<svg xmlns="http://www.w3.org/2000/svg" xmlns:xlink="http://www.w3.org/1999/xlink" version="1.1" style="enable-background:new 0 0 349.3 143;" xml:space="preserve" width="330.4104049174314" height="330"><rect id="backgroundrect" width="100%" height="100%" x="0" y="0" fill="none" stroke="none" class="" style=""/>
<style type="text/css">
	.st0{fill:#AF4444;}
	.st1{fill:none;}
</style>
<title>6pm</title>



<g class="currentLayer" style=""><title>Layer 1</title><path class="st0" d="M266.3710988998413,202.0537582397461 c-6.3,0.8 -13.1,-1.1 -15.4,-7.1 c-1.3,-3.2 -1.5,-7 -0.5,-10.4 c2.3,-8.1 4.9,-16.4 7.1,-24.5 c1.3,-4.5 2.6,-9.1 3.7,-13.6 c0.2,-1.1 0.30000000000000004,-2.1 0.2,-3.2 c0,-0.8 -0.5,-1.5 -1.3,-1.5 c-0.2,0 -0.5,0 -0.6000000000000001,0.2 c-1.3,0.5 -2.4,1.1 -3.6,2.1 c-3.2,3.6 -6,7.5 -8.3,11.7 c-4.2,7.3 -8.4,14.6 -12.8,21.7 c-1.6,2.4 -3.6,4.7 -5.7,6.7 c-1,0.8 -2.1,1.5 -3.4,1.8 c-1.9,0.8 -4.2,-0.30000000000000004 -5,-2.3 c0,-0.2 -0.2,-0.5 -0.2,-0.6000000000000001 c-0.5,-2.1 -0.6000000000000001,-4.2 -0.30000000000000004,-6.3 c0.6000000000000001,-6.3 2.8,-12.2 4.4,-18.2 c0.5,-1.9 1,-3.9 1.3,-6 c0.2,-1 -0.2,-1.9 -0.8,-2.6 c-1,-0.30000000000000004 -1.9,-0.2 -2.8,0.30000000000000004 c-1.9,1.6 -3.7,3.2 -5.4,5.2 c-4.5,6.5 -8.6,13.5 -12.2,20.6 c-2.4,4.7 -4.9,9.4 -7.3,14.1 c-0.2,0.5 -0.5,0.8 -0.6000000000000001,1.1 c-1,1.3 -1.3,3.4 -3.1,3.6 c-3.1,0.5 -6,-0.6000000000000001 -8.1,-2.9 c-1.8,-2.1 -2.3,-5 -1.5,-7.8 c1.3,-4.9 3.1,-9.6 4.7,-14.3 c1.9,-5.4 4.4,-10.5 5.4,-16.2 c0.30000000000000004,-1.8 0.5,-3.7 0.30000000000000004,-5.5 c0,-2.9 -1.9,-5.5 -4.9,-6.3 c-2.9,-0.8 -6,-0.8 -8.9,0 c0.5,1.9 1,3.9 1.1,5.7 c0.6000000000000001,5.4 -0.30000000000000004,10.7 -2.6,15.6 c-5,11.8 -13.5,21.7 -24.3,28.4 c-3.2,2.3 -7,3.4 -10.9,3.4 c-4.9,0.2 -9.1,-3.6 -9.4,-8.6 c-0.6000000000000001,-4.9 0.30000000000000004,-9.9 2.6,-14.4 c4.2,-8.9 10.5,-16.5 18.3,-22.7 c2.6,-2.1 5.5,-4.1 8.1,-6 l1,-0.6000000000000001 c-1.6,-1.1 -3.6,-1.6 -5.5,-1.1 c-3.4,0.8 -6.5,2.3 -9.1,4.7 c-6.8,5.5 -11.8,12.5 -16.7,19.8 c-6.7,10.4 -11,21.9 -14.9,33.6 c-3.4,10.4 -7,20.8 -10.5,31.1 c-0.8,2.3 -1.9,4.4 -2.9,6.5 c-0.5,1 -1.6,1.6 -2.8,1.3 c-0.8,-0.2 -1.6,-0.2 -2.3,-0.30000000000000004 c-5.4,-1.3 -7.8,-5.4 -6.2,-10.7 s3.6,-10.7 5.5,-16.1 c5.2,-13.9 10.5,-27.7 15.7,-41.7 c2.6,-7.1 4.7,-14.4 6.2,-21.7 c0.8,-3.6 1,-7.3 0.30000000000000004,-10.9 c-0.2,-0.8 -0.5,-1.8 -0.8,-2.6 c4.7,-1.1 9.7,1.1 11.8,5.5 c1.8,3.9 2.4,8.4 1.6,12.7 l-0.2,1.3 l0.30000000000000004,0.2 l1.1,-1.5 c4.1,-5.2 8.9,-9.7 14.4,-13.3 c5.4,-3.4 11.7,-5.2 18.2,-5 c2.8,0 5.5,0.8 7.9,2.3 c0.5,0.2 1.1,0.2 1.8,0 c4.4,-1.6 9.1,-2.4 13.9,-2.3 c6,0.2 10.9,2.3 13.6,7.9 c1.3,2.9 2.1,6 2.1,9.2 c0.2,2.6 0,5.2 0,7.9 l1.1,-1.8 c2.6,-4.5 6.2,-8.6 10.2,-12 c2.9,-2.3 6.5,-3.6 10.2,-3.7 c2.9,-0.2 5.7,1.5 6.8,4.2 c1.6,3.7 2.3,7.9 1.9,12 c0,0.8 0,1.6 0.2,2.3 l2.1,-3.7 c2.8,-5.5 6.3,-10.7 10.4,-15.2 c2.9,-3.6 7,-5.8 11.5,-7 c7.1,-1.3 12.3,2.9 12.5,10.2 c-0.2,4.4 -1,8.8 -2.4,12.8 c-2.3,7 -4.5,13.9 -6.7,20.9 c-1.3,4.2 -2.1,8.6 -2.1,13 C262.9710988998413,195.4537582397461 264.1710988998413,199.15375823974608 266.3710988998413,202.0537582397461 zM167.9710988998413,147.5537582397461 c-0.5,0.2 -0.6000000000000001,0.30000000000000004 -0.8,0.5 c-9.2,5.8 -16.9,13.9 -22.4,23.4 c-2.1,3.4 -3.4,7.1 -3.7,11 c-0.30000000000000004,1.6 0.30000000000000004,3.2 1.5,4.1 c1.5,0.8 3.2,0.8 4.5,-0.2 c1.8,-1.1 3.6,-2.6 5.2,-4.1 c6.8,-7 11.8,-15.7 14.4,-25.1 C167.4710988998413,154.0537582397461 167.9710988998413,150.8537582397461 167.9710988998413,147.5537582397461 L167.9710988998413,147.5537582397461 z" id="svg_1"/><path class="st0" d="M121.5710988998413,104.4537582397461 c-7.1,0.30000000000000004 -13.9,2.3 -20.1,5.7 c-10.2,5.5 -19.1,13.5 -25.8,23 c-2.9,3.9 -5.2,8.3 -7.8,12.5 c-0.30000000000000004,0.5 -0.5,1.1 -0.8,1.6 l0.30000000000000004,0.30000000000000004 c0.30000000000000004,-0.30000000000000004 0.6000000000000001,-0.8 1,-1.1 c5.4,-5.8 12.3,-9.9 20.1,-11.5 c3.1,-0.6000000000000001 6.3,-0.6000000000000001 9.4,0 c5.8,1.5 9.1,5.5 10.2,11.2 c1,5.8 0.30000000000000004,11.8 -2.3,17.2 c-5.2,13 -15.1,23.5 -27.6,29.7 c-4.9,2.4 -10.5,2.9 -15.7,1.3 c-7.8,-2.3 -12,-7.8 -13.9,-15.2 c-1.6,-7.3 -1.5,-14.8 0.6000000000000001,-21.9 c3.9,-15.7 12,-30.2 23.5,-41.7 c6,-6.3 13.3,-11.5 21.4,-14.9 c4.9,-2.1 10.2,-3.1 15.6,-3.1 c4.1,0 7.9,1.8 10.5,5 C120.5710988998413,102.9537582397461 120.87109889984131,103.6537582397461 121.5710988998413,104.4537582397461 zM60.771098899841306,177.2537582397461 c0,2.6 0.6000000000000001,5.2 1.9,7.6 c1.3,2.3 3.9,3.4 6.5,2.8 c2.9,-0.6000000000000001 5.7,-2.1 7.9,-4.2 c6.7,-5.8 11.7,-13.3 14.6,-21.6 c1.9,-4.4 2.8,-9.2 2.3,-14.1 c-0.5,-4.9 -3.4,-7.1 -8.1,-6.2 c-1.8,0.30000000000000004 -3.6,1 -5.2,1.9 c-5.2,3.1 -9.6,7.5 -12.8,12.7 C63.67109889984131,162.5537582397461 61.0710988998413,169.8537582397461 60.771098899841306,177.2537582397461 L60.771098899841306,177.2537582397461 z" id="svg_2"/><rect class="st1" width="349.29998779296875" height="143" id="svg_3" y="181.50289154052734" x="-9.248554229736328"/></g></svg>