<?xml version="1.0" encoding="UTF-8" standalone="no"?>
<!-- Created with Inkscape (http://www.inkscape.org/) -->

<svg
   xmlns:dc="http://purl.org/dc/elements/1.1/"
   xmlns:cc="http://creativecommons.org/ns#"
   xmlns:rdf="http://www.w3.org/1999/02/22-rdf-syntax-ns#"
   xmlns:svg="http://www.w3.org/2000/svg"
   xmlns="http://www.w3.org/2000/svg"
   xmlns:sodipodi="http://sodipodi.sourceforge.net/DTD/sodipodi-0.dtd"
   xmlns:inkscape="http://www.inkscape.org/namespaces/inkscape"
   id="svg2985"
   version="1.1"
   inkscape:version="0.48.5 r10040"
   width="999.99994"
   height="448.08768"
   xml:space="preserve"
   sodipodi:docname="A.svg"><metadata
     id="metadata2991"><rdf:RDF><cc:Work
         rdf:about=""><dc:format>image/svg+xml</dc:format><dc:type
           rdf:resource="http://purl.org/dc/dcmitype/StillImage" /><dc:title></dc:title></cc:Work></rdf:RDF></metadata><defs
     id="defs2989"><clipPath
       clipPathUnits="userSpaceOnUse"
       id="clipPath2999"><path
         d="M 0,792 612,792 612,0 0,0 0,792 z"
         id="path3001"
         inkscape:connector-curvature="0" /></clipPath></defs><sodipodi:namedview
     pagecolor="#ffffff"
     bordercolor="#666666"
     borderopacity="1"
     objecttolerance="10"
     gridtolerance="10"
     guidetolerance="10"
     inkscape:pageopacity="0"
     inkscape:pageshadow="2"
     inkscape:window-width="1055"
     inkscape:window-height="1042"
     id="namedview2987"
     showgrid="false"
     fit-margin-left="0.5"
     fit-margin-bottom="0.5"
     fit-margin-top="0.5"
     fit-margin-right="0.5"
     inkscape:zoom="0.13909726"
     inkscape:cx="434.22736"
     inkscape:cy="805.31302"
     inkscape:window-x="859"
     inkscape:window-y="-21"
     inkscape:window-maximized="0"
     inkscape:current-layer="g2993"><inkscape:grid
       type="xygrid"
       id="grid3688"
       empspacing="5"
       visible="true"
       enabled="true"
       snapvisiblegridlinesonly="true"
       originx="-142.67195px"
       originy="430.78537px" /></sodipodi:namedview><g
     id="g2993"
     inkscape:groupmode="layer"
     inkscape:label="Story_Lab_Coloring"
     transform="matrix(1.25,0,0,-1.25,-713.56558,64.593425)"><g
       id="g3075"
       transform="matrix(8.032321,0,0,8.032321,1349.7741,-246.04216)"
       style="fill:#221f1f;fill-opacity:1"><path
         d="m 0,0 -0.418,0 0,0.249 1.121,0 0,-0.249 -0.42,0 0,-1.25 L 0,-1.25 0,0 z"
         style="fill:#221f1f;fill-opacity:1;fill-rule:nonzero;stroke:none"
         id="path3077"
         inkscape:connector-curvature="0" /></g><g
       id="g3079"
       transform="matrix(8.032321,0,0,8.032321,1365.6973,-254.52992)"
       style="fill:#221f1f;fill-opacity:1"><path
         d="m 0,0 -0.361,0 -0.278,0.777 -0.025,-0.97 -0.289,0 0.066,1.499 0.319,0 0.386,-1.065 0.387,1.065 0.318,0 0.069,-1.499 -0.293,0 L 0.277,0.777 0,0 z"
         style="fill:#221f1f;fill-opacity:1;fill-rule:nonzero;stroke:none"
         id="path3081"
         inkscape:connector-curvature="0" /></g><g
       id="g3083"
       transform="matrix(8.0943144,0,0,8.0943144,999.56016,-25.126782)"
       style="fill:#c7022d;fill-opacity:1"><path
         d="m 0,0 -2.732,1.111 c -1.176,0.449 -3.045,-1.397 -3.629,-2.609 -0.001,2.092 -0.766,3.521 -1.668,4.425 -0.891,0.889 -6.238,5.86 -6.604,6.214 -0.375,0.361 -0.545,0.438 -0.545,-0.017 l 0,-0.947 c 0,-0.295 0.08,-0.529 0.276,-0.728 0.519,-0.529 5.479,-5.428 6.034,-6.017 0.911,-0.971 1.384,-2.124 1.778,-3.715 0,0 -0.096,-0.175 -0.256,-0.016 -1.509,1.486 -9.529,9.203 -10.037,9.635 -0.493,0.419 -0.709,0.566 -0.709,-0.046 l 0,-10.65 c 0,-1.079 0.381,-1.933 1.074,-2.763 0.586,-0.7 3.61,-3.674 4.676,-4.726 -1.794,-1.713 -6.381,-4.933 -6.381,-4.933 l 5.07,0 0.887,-2.823 c 0,0 5.557,5.309 9.826,14.471 C -1.479,-0.998 0,0 0,0 M 11.889,0.3 C 11.719,0.281 3.355,-0.968 1.84,-1.229 0.324,-1.492 -0.596,-2.855 -0.793,-3.32 c -0.135,-0.316 0.023,-0.369 0.221,-0.282 0.24,0.105 1.084,0.695 3.156,1.006 1.463,0.219 5.13,0.798 7.369,1.192 1.132,0.199 1.863,1.01 2.16,1.355 0.262,0.303 0.021,0.378 -0.224,0.349 m -0.071,-3.068 c -0.765,-0.109 -12.06,-2.056 -12.91,-2.267 -0.42,-0.105 -0.637,-0.407 -0.715,-0.581 -1.826,-4.155 -3.942,-7.554 -4.076,-7.77 -0.14,-0.22 0.044,-0.339 0.53,-0.238 1.535,0.318 6.001,0.789 7.806,1.242 1.369,0.344 2.127,0.832 2.618,1.376 0.493,0.545 6.321,6.999 7.019,7.803 0.361,0.412 0.068,0.483 -0.272,0.435"
         style="fill:#c7022d;fill-opacity:1;fill-rule:nonzero;stroke:none"
         id="path3085"
         inkscape:connector-curvature="0" /></g><g
       id="g3087"
       transform="matrix(8.032321,0,0,8.032321,597.9519,-272.83799)"
       style="fill:#221f1f;fill-opacity:1"><path
         d="M 0,0 2.983,0 1.51,5.105 0,0 z m 3.504,-1.77 -4.007,0 -0.683,-2.237 -2.138,0 3.428,10.799 2.658,0 c 0.206,0 0.28,-0.337 0.28,-0.337 l 3.3,-10.462 -2.143,0 -0.695,2.237"
         style="fill:#221f1f;fill-opacity:1;fill-rule:nonzero;stroke:none"
         id="path3089"
         inkscape:connector-curvature="0" /></g><g
       id="g3091"
       transform="matrix(8.032321,0,0,8.032321,672.35289,-292.25934)"
       style="fill:#221f1f;fill-opacity:1"><path
         d="m 0,0 c 0.354,-0.047 0.761,-0.065 1.185,-0.065 1.296,0 1.556,0.52 1.556,1.443 l 0,2.434 C 2.741,4.443 2.465,4.786 1.735,4.786 1.185,4.786 0.485,4.558 0,4.33 L 0,0 z m 4.718,1.444 c 0,-1.914 -0.582,-3.194 -3.631,-3.194 -0.795,0 -2.076,0.078 -3.065,0.273 l 0,10.331 1.641,0.33 c 0,0 0.337,0.129 0.337,-0.34 L 0,6.002 C 0.585,6.243 1.478,6.47 2.337,6.47 4.038,6.47 4.718,5.432 4.718,3.764 l 0,-2.32"
         style="fill:#221f1f;fill-opacity:1;fill-rule:nonzero;stroke:none"
         id="path3093"
         inkscape:connector-curvature="0" /></g><g
       id="g3095"
       transform="matrix(8.032321,0,0,8.032321,828.47309,-275.2533)"
       style="fill:#221f1f;fill-opacity:1"><path
         d="m 0,0 c 0,0.73 -0.322,1.085 -1.134,1.085 l -2.27,0 0,-3.105 2.091,0 C -0.389,-2.02 0,-1.759 0,-0.965 L 0,0 z m -0.373,4.531 c 0,0.601 -0.325,0.875 -1.069,0.875 l -1.962,0 0,-2.836 1.946,0 c 0.793,0 1.085,0.372 1.085,1.006 l 0,0.955 z m -5.074,-8.237 0,10.799 4.248,0 c 2.042,0 2.869,-0.84 2.869,-2.3 l 0,-1.121 C 1.67,2.781 1.299,2.278 0.47,1.922 1.46,1.709 2.043,0.98 2.043,-0.072 l 0,-1.153 c 0,-1.522 -0.987,-2.481 -2.949,-2.481 l -4.541,0"
         style="fill:#221f1f;fill-opacity:1;fill-rule:nonzero;stroke:none"
         id="path3097"
         inkscape:connector-curvature="0" /></g><g
       id="g3099"
       transform="matrix(8.032321,0,0,8.032321,883.61659,-253.81584)"
       style="fill:#221f1f;fill-opacity:1"><path
         d="m 0,0 c -1.054,0 -1.458,-0.471 -1.458,-1.363 l 0,-2.122 c 0,-0.895 0.404,-1.367 1.458,-1.367 1.059,0 1.459,0.472 1.459,1.367 l 0,2.122 C 1.459,-0.471 1.059,0 0,0 m 0,-6.536 c -2.705,0 -3.438,1.492 -3.438,3.112 l 0,1.995 c 0,1.621 0.733,3.113 3.438,3.113 2.709,0 3.438,-1.492 3.438,-3.113 l 0,-1.995 C 3.438,-5.044 2.709,-6.536 0,-6.536"
         style="fill:#221f1f;fill-opacity:1;fill-rule:nonzero;stroke:none"
         id="path3101"
         inkscape:connector-curvature="0" /></g><g
       id="g3103"
       transform="matrix(8.032321,0,0,8.032321,948.75389,-253.81584)"
       style="fill:#221f1f;fill-opacity:1"><path
         d="m 0,0 c -1.056,0 -1.46,-0.471 -1.46,-1.363 l 0,-2.122 c 0,-0.895 0.404,-1.367 1.46,-1.367 1.053,0 1.457,0.472 1.457,1.367 l 0,2.122 C 1.457,-0.471 1.053,0 0,0 m 0,-6.536 c -2.708,0 -3.439,1.492 -3.439,3.112 l 0,1.995 c 0,1.621 0.731,3.113 3.439,3.113 2.709,0 3.436,-1.492 3.436,-3.113 l 0,-1.995 C 3.436,-5.044 2.709,-6.536 0,-6.536"
         style="fill:#221f1f;fill-opacity:1;fill-rule:nonzero;stroke:none"
         id="path3105"
         inkscape:connector-curvature="0" /></g><g
       id="g3107"
       transform="matrix(8.032321,0,0,8.032321,1203.6548,-253.81584)"
       style="fill:#221f1f;fill-opacity:1"><path
         d="m 0,0 c -1.055,0 -1.459,-0.471 -1.459,-1.363 l 0,-2.122 c 0,-0.895 0.404,-1.367 1.459,-1.367 1.053,0 1.461,0.472 1.461,1.367 l 0,2.122 C 1.461,-0.471 1.053,0 0,0 m 0,-6.536 c -2.709,0 -3.439,1.492 -3.439,3.112 l 0,1.995 c 0,1.621 0.73,3.113 3.439,3.113 2.709,0 3.438,-1.492 3.438,-3.113 l 0,-1.995 C 3.438,-5.044 2.709,-6.536 0,-6.536"
         style="fill:#221f1f;fill-opacity:1;fill-rule:nonzero;stroke:none"
         id="path3109"
         inkscape:connector-curvature="0" /></g><g
       id="g3111"
       transform="matrix(8.032321,0,0,8.032321,1279.8993,-305.02187)"
       style="fill:#221f1f;fill-opacity:1"><path
         d="m 0,0 0,5.514 c 0,0.423 -0.182,0.632 -0.633,0.632 -0.49,0 -1.346,-0.292 -2.06,-0.667 l 0,-5.479 -1.979,0 0,7.609 1.338,0.25 c 0.188,0.031 0.229,-0.125 0.229,-0.125 l 0.138,-0.501 c 0.988,0.487 2.237,0.826 3.158,0.826 0.764,0 1.235,-0.306 1.493,-0.843 0.959,0.488 2.222,0.843 3.177,0.843 1.315,0 1.787,-0.925 1.787,-2.335 l 0,-5.724 -1.98,0 0,5.514 C 4.668,5.937 4.49,6.146 4.037,6.146 3.549,6.146 2.596,5.838 1.979,5.479 L 1.979,0 0,0"
         style="fill:#221f1f;fill-opacity:1;fill-rule:nonzero;stroke:none"
         id="path3113"
         inkscape:connector-curvature="0" /></g><g
       id="g3115"
       transform="matrix(8.032321,0,0,8.032321,737.0428,-263.46427)"
       style="fill:#221f1f;fill-opacity:1"><path
         d="M 0,0 C 0,0.745 0.339,1.265 1.313,1.265 2.284,1.265 2.514,0.745 2.514,0 l 0,-0.391 L 0,-0.391 0,0 z M 3.688,-3.418 C 2.924,-3.604 2.221,-3.714 1.539,-3.714 0.339,-3.714 0,-3.341 0,-2.385 l 0,0.407 4.395,0 0,1.685 c 0,1.701 -0.571,3.178 -3.099,3.178 -2.528,0 -3.275,-1.41 -3.275,-3.08 l 0,-2.089 c 0,-1.902 0.859,-3.051 3.338,-3.051 0.836,0 1.772,0.128 2.596,0.395 l 0,1.251 c 0,0.19 -0.127,0.305 -0.267,0.271"
         style="fill:#221f1f;fill-opacity:1;fill-rule:nonzero;stroke:none"
         id="path3117"
         inkscape:connector-curvature="0" /></g><g
       id="g3119"
       transform="matrix(8.032321,0,0,8.032321,1028.4497,-242.08866)"
       style="fill:#221f1f;fill-opacity:1"><path
         d="m 0,0 -3.053,-3.562 0,6.165 c 0,0.304 -0.265,0.26 -0.265,0.26 l -1.711,-0.352 0,-10.346 1.976,0 0,3.694 3.114,-3.699 2.173,0 -3.392,3.991 L 2.086,0 0,0"
         style="fill:#221f1f;fill-opacity:1;fill-rule:nonzero;stroke:none"
         id="path3121"
         inkscape:connector-curvature="0" /></g><g
       id="g3123"
       transform="matrix(8.032321,0,0,8.032321,1164.8893,-291.62396)"
       style="fill:#221f1f;fill-opacity:1"><path
         d="m 0,0 c -0.443,-0.104 -0.883,-0.137 -1.279,-0.137 -1.135,0 -1.477,0.339 -1.477,1.314 l 0,2.186 c 0,0.973 0.342,1.313 1.477,1.313 0.361,0 0.998,-0.061 1.517,-0.184 l 0,1.519 c 0,0.124 -0.123,0.202 -0.185,0.216 -0.475,0.099 -0.987,0.15 -1.383,0.15 -2.479,0 -3.4,-0.906 -3.4,-3.03 l 0,-2.154 c 0,-2.125 0.921,-3.032 3.4,-3.032 0.514,0 1.092,0.073 1.568,0.192 l 0,1.439 C 0.238,-0.075 0.139,0.031 0,0"
         style="fill:#221f1f;fill-opacity:1;fill-rule:nonzero;stroke:none"
         id="path3125"
         inkscape:connector-curvature="0" /></g><g
       id="g3127"
       transform="matrix(8.032321,0,0,8.032321,1088.7709,-241.83002)"
       style="fill:#221f1f;fill-opacity:1"><path
         d="m 0,0 c -0.609,0.114 -1.322,0.178 -1.9,0.178 -2.252,0 -2.948,-0.698 -2.948,-2.283 0,-1.525 0.225,-2.012 2.155,-2.479 1.279,-0.311 1.377,-0.553 1.377,-1.039 0,-0.601 -0.129,-0.794 -1.004,-0.794 -0.674,0 -1.389,0.101 -1.993,0.246 -0.109,0.027 -0.32,-0.011 -0.32,-0.23 l 0,-1.282 c 0.717,-0.208 1.68,-0.355 2.406,-0.355 2.385,0 2.856,0.94 2.856,2.463 0,1.62 -0.211,1.913 -2.418,2.497 -1.066,0.274 -1.115,0.322 -1.115,0.954 0,0.487 0.144,0.681 1.004,0.681 0.593,0 1.5,-0.105 2.101,-0.214 l 0,1.407 C 0.201,-0.089 0.07,-0.014 0,0"
         style="fill:#221f1f;fill-opacity:1;fill-rule:nonzero;stroke:none"
         id="path3129"
         inkscape:connector-curvature="0" /></g><g
       id="g3131"
       transform="matrix(8.032321,0,0,8.032321,1104.0508,-289.23998)"
       style="fill:#221f1f;fill-opacity:1"><path
         d="m 0,0 1.492,0 c 0.274,0 0.274,-0.27 0.274,-0.27 l 0,-1.722 L 0,-1.992 0,0"
         style="fill:#221f1f;fill-opacity:1;fill-rule:nonzero;stroke:none"
         id="path3133"
         inkscape:connector-curvature="0" /></g></g></svg>