<?xml version="1.0" encoding="utf-8"?>
<!-- Generator: Adobe Illustrator 25.3.1, SVG Export Plug-In . SVG Version: 6.00 Build 0)  -->
<svg version="1.1" id="Layer_1" xmlns="http://www.w3.org/2000/svg" xmlns:xlink="http://www.w3.org/1999/xlink" x="0px" y="0px"
	 viewBox="0 0 700 700" enable-background="new 0 0 700 700" width="700" height="700" xml:space="preserve">
<g>
	<path fill="#4A4B4B" d="M446.237,364.939c0.737-0.67,0.396-1.597,0.393-2.406c-0.062-17.167,0.318-34.339-0.471-51.497
		c-0.082-1.783,0.417-2.256,2.092-2.013c1.922,0.279,3.882,0.444,5.8,0.038c2.307-0.489,3.085,0.277,2.943,2.663
		c-0.403,6.771-0.448,13.566-0.94,20.33c-0.761,10.454-0.791,20.921-0.885,31.387c-0.077,8.538-0.077,17.077,0.027,25.614
		c0.026,2.165-0.472,2.82-2.832,3.072c-5.228,0.558-8.618-1.277-12.042-5.357c-14.148-16.861-29.184-32.949-44.192-49.052
		c-0.982-1.054-1.894-2.173-2.838-3.262c-0.244,0.122-0.488,0.244-0.733,0.366c-0.138,2.468-0.396,4.936-0.395,7.404
		c0.002,15.711-0.277,31.428,0.598,47.126c0.111,1.999-0.394,2.865-2.531,2.694c-2.026-0.162-4.091-0.188-6.111,0.007
		c-2.167,0.209-2.578-0.661-2.462-2.629c0.645-11.025,1.342-22.051,1.713-33.086c0.473-14.059,0.396-28.127,0.059-42.192
		c-0.021-0.873,0.004-1.751-0.092-2.616c-0.218-1.976,0.387-2.978,2.576-2.479c0.843,0.192,1.819,0.436,2.593,0.198
		c4.971-1.53,7.71,1.355,10.697,4.678c15.102,16.801,30.38,33.445,45.606,50.135C445.172,364.461,445.425,365.105,446.237,364.939z"
		/>
	<path fill="#4A4B4B" d="M232.58,391.014c-6.986-2.603-13.424-6.065-18.493-11.698c-8.472-9.414-10.598-20.603-9.238-32.785
		c2.46-22.024,17.696-35.209,38.279-38.422c13.167-2.056,25.873-1.037,38.073,4.717c2.285,1.078,3.104,2.141,2.151,4.622
		c-0.933,2.429-1.43,5.023-2.191,7.522c-0.236,0.773-0.17,1.893-1.316,2.031c-1.002,0.121-1.506-0.686-2.065-1.373
		c-3.373-4.141-7.413-7.429-12.527-9.141c-13.698-4.587-27.623,0.528-34.787,13.121c-7.371,12.957-8.021,26.602-2.333,40.281
		c5.058,12.163,17.032,18.14,31.063,16.214c8.014-1.1,8.03-1.1,8.008-9.074c-0.018-6.689,0.203-13.386-0.486-20.059
		c-0.14-1.358,0.22-1.941,1.76-1.793c5.034,0.481,10.088,0.538,15.116-0.019c2.021-0.224,1.724,0.928,1.646,2.111
		c-0.542,8.223-0.739,16.453-0.811,24.694c-0.02,2.32,1.715,5.203-0.324,6.857c-1.65,1.338-4.351,1.448-6.621,1.945
		c-12.206,2.676-24.488,4.105-36.959,2.018c-0.473-0.079-0.966-0.036-1.45-0.049C236.963,391.961,234.605,392.115,232.58,391.014z"
		/>
	<path fill="#4A4B4B" d="M64.228,335.756c1.508-3.51,3.017-7.02,4.525-10.53c1.163-2.456,2.008-5.035,2.957-7.574
		c0.191-0.544,0.359-1.097,0.578-1.629c1.031-2.503,1.437-5.813,3.296-7.269c1.86-1.457,5.196,0.228,7.887-0.424
		c1.904-0.461,1.896,1.348,2.287,2.366c3.714,9.667,7.293,19.386,11.018,29.049c6.374,16.53,12.742,33.064,20.239,49.134
		c1.449,3.106,1.4,3.132-1.973,3.134c-4.953,0.003-9.919-0.212-14.854,0.088c-2.568,0.156-3.289-0.959-3.958-3.022
		c-2.062-6.355-4.292-12.656-6.456-18.978c-0.401-1.266-0.978-2.253-2.547-2.342c-8.035-0.46-16.068-0.483-24.104-0.028
		c-1.009,0.057-1.938,0.189-2.479,1.182c-2.863,6.793-5.009,13.835-7.134,20.877c-0.522,1.728-1.257,2.362-3.031,2.26
		c-2.419-0.139-4.854-0.09-7.28-0.02c-1.888,0.055-2.176-0.671-1.439-2.274c5.946-12.928,11.096-26.193,16.609-39.304
		c1.461-3.474,2.755-7.018,4.126-10.53C63.312,338.633,63.423,337.05,64.228,335.756z"/>
	<path fill="#4A4B4B" d="M334.429,392.013c-7.086,0-14.172-0.036-21.257,0.026c-1.708,0.015-2.356-0.33-2.224-2.286
		c1.248-18.489,0.889-37.007,0.792-55.519c-0.041-7.844-0.08-15.694-0.805-23.516c-0.15-1.624,0.603-1.977,2.066-1.916
		c14.157,0.596,28.319,0.718,42.476,0.08c2.221-0.1,2.75,0.707,2.3,2.647c-0.356,1.536-0.265,3.069-0.064,4.622
		c0.432,3.34,0.404,3.315-3.089,3.125c-7.259-0.396-14.523-0.714-21.779-1.168c-1.661-0.104-2.258,0.42-2.317,2.047
		c-0.26,7.163-0.65,14.319-0.587,21.493c0.017,1.903,0.574,2.523,2.504,2.447c7.558-0.297,15.124-0.395,22.681-0.7
		c1.876-0.076,2.344,0.46,2.149,2.283c-0.204,1.913-0.159,3.882,0.042,5.799c0.191,1.814-0.284,2.387-2.184,2.272
		c-7.062-0.428-14.134-0.702-21.203-1.021c-3.947-0.178-4.001-0.166-3.938,3.846c0.125,7.945-0.275,15.893,0.216,23.84
		c0.132,2.131,0.833,2.802,2.969,2.754c7.273-0.163,14.552-0.204,21.764-1.274c2.413-0.358,3.501,0.195,2.844,2.811
		c-0.456,1.816-0.311,3.662,0.036,5.487c0.292,1.535-0.218,1.957-1.85,1.93c-7.18-0.115-14.363-0.05-21.545-0.05
		C334.429,392.054,334.429,392.033,334.429,392.013z"/>
	<path fill="#4A4B4B" d="M538.519,392.81c-9.422-2.843-9.41-2.839-7.065-12.139c0.449-1.781,0.798-3.59,1.118-5.399
		c0.156-0.883,0.139-1.733,1.394-1.792c1.142-0.054,1.497,0.637,1.798,1.511c0.283,0.821,0.569,1.645,0.929,2.434
		c4.567,9.986,17.141,10.589,23.691,7.07c1.66-0.892,2.86-2.284,3.836-3.875c0.534-0.717,0.725-1.594,1.112-2.379
		c1.749-6.138,0.142-10.62-5.146-14.425c-4.677-3.365-10.031-5.463-15.108-8.078c-2.95-1.519-5.702-3.326-8.102-5.605
		c-7.373-6.999-8.567-15.648-5.966-24.915c2.507-8.933,8.739-14.558,17.627-16.878c9.141-2.386,18.062-1.597,26.449,3.156
		c1.688,0.957,2.365,1.899,1.474,3.93c-1.005,2.291-1.476,4.81-2.297,7.189c-0.348,1.009-0.276,2.515-1.849,2.6
		c-1.413,0.076-1.539-1.29-2.014-2.176c-4.047-7.542-12.729-10.414-20.085-6.62c-6.925,3.572-8.029,12.319-2.218,17.48
		c3.971,3.526,8.692,5.788,13.449,7.984c6.409,2.959,12.512,6.389,16.416,12.527c7.978,12.544,1.451,30.766-12.971,36.465
		c-1.8,0.711-3.66,1.272-5.492,1.902C552.507,394.282,545.514,394.263,538.519,392.81z"/>
	<path fill="#4A4B4B" d="M628.486,308.908c9.51,0,19.022,0.095,28.529-0.07c2.254-0.039,2.711,0.466,2.23,2.557
		c-0.436,1.892-0.353,3.884,0.022,5.79c0.391,1.984-0.356,2.313-2.155,2.106c-5.492-0.631-10.998-1.093-16.536-1.194
		c-1.814-0.033-2.646,0.224-2.632,2.278c0.149,21.433-0.231,42.868,0.341,64.299c0.062,2.305,1.407,5.334,0.113,6.727
		c-1.576,1.696-4.758,0.502-7.239,0.586c-3.2,0.108-6.414-0.106-9.608,0.071c-2.253,0.125-2.831-0.7-2.705-2.84
		c1.251-21.31,0.818-42.646,0.873-63.975c0.019-7.359-0.001-7.412-7.35-6.992c-4.257,0.243-8.509,0.623-12.749,1.074
		c-1.714,0.182-2.616-0.029-2.243-2.054c0.389-2.108,0.355-4.257,0.006-6.373c-0.277-1.677,0.232-2.083,1.996-2.061
		c9.702,0.118,19.406,0.057,29.109,0.057C628.486,308.898,628.486,308.903,628.486,308.908z"/>
	<path fill="#4A4B4B" d="M162.468,392.012c-6.89,0-13.783-0.137-20.667,0.07c-2.583,0.078-3.024-0.787-2.847-3.091
		c1.51-19.643,0.684-39.325,0.794-58.99c0.035-6.283-0.44-12.574-0.827-18.852c-0.112-1.828,0.341-2.416,2.199-2.229
		c5.028,0.507,10.084,0.618,15.103,0.021c2.388-0.284,2.827,0.631,2.679,2.711c-1.307,18.386-0.884,36.804-0.933,55.212
		c-0.012,4.555,0.182,9.112,0.088,13.665c-0.044,2.1,0.756,2.654,2.724,2.626c7.369-0.104,14.742-0.172,22.043-1.263
		c2.694-0.403,3.599,0.372,2.87,3.016c-0.475,1.723-0.265,3.464,0.044,5.191c0.249,1.39,0.054,2.066-1.733,2.034
		c-7.177-0.129-14.358-0.054-21.538-0.054C162.468,392.058,162.468,392.035,162.468,392.012z"/>
	<path fill="#4A4B4B" d="M495.931,309.382c2.623-0.149,5.045-0.247,7.459-0.436c1.621-0.127,2.348,0.034,2.234,2.145
		c-1.106,20.52-0.782,41.064-0.725,61.6c0.016,5.801,0.417,11.604,0.767,17.399c0.086,1.427-0.282,1.953-1.687,1.945
		c-5.335-0.033-10.672-0.061-16.006-0.001c-1.66,0.019-2.229-0.644-2.167-2.241c0.272-7.06,0.538-14.121,0.715-21.183
		c0.3-12.011,0.314-24.024-0.008-36.035c-0.192-7.163-0.424-14.325-0.689-21.486c-0.06-1.62,0.481-2.292,2.177-2.147
		C490.702,309.174,493.418,309.251,495.931,309.382z"/>
	<path fill="#B2B2B2" d="M60.644,368.912c-0.083-1.372,0.858-1.616,1.894-1.618c8.249-0.018,16.498-0.028,24.747,0.001
		c1.786,0.006,2.639,1.003,2.489,2.806c-1.155-2.477-3.675-2.08-5.552-2.115c-7.319-0.137-14.661-0.626-21.965,0.35
		C61.703,368.409,61.181,368.714,60.644,368.912z"/>
	<path fill="#D1D1D1" d="M538.519,392.81c6.995,1.002,13.987,0.946,20.979-0.035c-3.501,2.142-7.501,1.228-11.244,1.568
		c-2.077,0.189-4.385-0.288-6.595-0.375C540.475,393.922,539.338,393.812,538.519,392.81z"/>
	<path fill="#767777" d="M71.71,317.652c-0.34,2.777-1.335,5.298-2.957,7.574C69.255,322.513,70.33,320.023,71.71,317.652z"/>
	<path fill="#D7D7D7" d="M232.58,391.014c2.226,0.343,4.47,0.617,6.495,1.72C236.796,392.589,234.462,392.654,232.58,391.014z"/>
	<path fill="#CDCDCD" d="M64.228,335.756c-0.188,1.55-0.611,3.003-1.734,4.165C62.661,338.362,62.94,336.849,64.228,335.756z"/>
	<path fill="#B2B3B3" d="M565.332,378.24c0.207,1.062-0.271,1.805-1.112,2.379C564.129,379.611,564.598,378.863,565.332,378.24z"/>
	<path fill="#FDFDFD" d="M70.605,343.315c1.844-3.343,2.594-7.215,5.129-10.869c2.66,7.114,5.157,13.778,7.641,20.447
		c0.64,1.719,1.18,3.477,1.881,5.17c0.611,1.476,0.343,2.142-1.369,2.131c-5.807-0.037-11.615-0.037-17.422,0
		c-1.714,0.011-1.987-0.649-1.363-2.129c0.749-1.777,1.359-3.612,2.03-5.422c0.738-0.837,0.72-1.96,1.112-2.928
		c0.189-0.589,0.377-1.179,0.566-1.768C69.63,346.489,69.794,344.777,70.605,343.315z"/>
	<path fill="#7C7D7D" d="M70.605,343.315c-0.181,1.706-0.693,3.284-1.796,4.633C68.96,346.23,69.282,344.579,70.605,343.315z"/>
	<path fill="#BCBCBC" d="M68.244,349.716c0.094,1.152,0.09,2.267-1.112,2.928C67.119,351.522,67.487,350.545,68.244,349.716z"/>
</g>
</svg>
