<svg viewBox="0 0 400 57.16" xmlns="http://www.w3.org/2000/svg">
	<defs>
		<style>.avlogocls-1{fill:#131313;}.avlogocls-2{fill:#fff;}.avlogocls-3{fill:#af1f2d;}</style>
	</defs>
	<g data-name="Layer 2" id="Layer_2">
		<g data-name="Layer 1" id="Layer_1-2">
			<path class="avlogocls-1" d="M82.21,15.33l0-.05L88.78,1.21,22.13,25.46,9.2,53.07,75.74,28.85l.11,0,4.2-9h0v0l2.08-4.45ZM17.56,42.58l2.8-1,1,2.79-2.8,1Zm.52,3-2.8,1-1-2.79,2.8-1ZM67.25,16.49l-2.8,1-1-2.79,2.8-1Zm-.52-3,2.8-1,1,2.78-2.8,1ZM26.25,35.69l2.8-1,1,2.79-2.8,1Zm.52,3-2.8,1-1-2.79,2.8-1ZM61.85,22.17l-2.8,1L58,20.4l2.8-1Zm-.52-3,2.8-1,1,2.78-2.8,1Zm-2.78,4.17-2.8,1-1-2.79,2.8-1Zm-3.3,1.2-2.8,1-1-2.8,2.8-1ZM52,25.77l-2.8,1-1-2.79,2.8-1ZM48.66,27l-2.8,1-1-2.8,2.8-1Zm-3.3,1.2-2.8,1-1-2.79,2.8-1Zm-3.3,1.2-2.8,1-1-2.8,2.8-1Zm-3.3,1.21L36,31.6l-1-2.8,2.8-1Zm-3.29,1.19-2.8,1-1-2.79,2.8-1ZM32.17,33l-2.8,1-1-2.79,2.79-1Zm-3.3,1.2-2.8,1-1-2.79,2.8-1Zm.68.31,2.8-1,1,2.78-2.8,1Zm3.3-1.2,2.8-1,1,2.79-2.8,1Zm3.3-1.2,2.8-1,1,2.79-2.8,1Zm3.3-1.2,2.79-1,1,2.79-2.8,1Zm3.29-1.2,2.8-1,1,2.79-2.8,1Zm3.3-1.2,2.8-1,1,2.79-2.8,1Zm3.3-1.2,2.8-1,1,2.79-2.8,1Zm3.3-1.2,2.8-1,1,2.79-2.8,1Zm3.29-1.2,2.8-1,1,2.79-2.8,1Zm3.3-1.2,2.8-1,1,2.79-2.8,1Zm3.3-1.2,2.8-1,1,2.79-2.79,1Zm3.3-1.2,2.8-1,1,2.79-2.8,1Zm-.19-.5-1-2.79,2.8-1,1,2.78ZM64,17.69l-2.8,1-1-2.79,2.8-1Zm-3.3,1.2-2.8,1-1-2.8,2.8-1Zm-3.3,1.2-2.79,1-1-2.79,2.8-1Zm-3.29,1.2-2.8,1-1-2.79,2.8-1Zm-3.3,1.2-2.8,1-1-2.79,2.8-1Zm-3.3,1.2-2.79,1-1-2.79,2.8-1Zm-3.3,1.2-2.8,1-1-2.79,2.8-1Zm-3.29,1.2-2.8,1-1-2.79,2.8-1Zm-3.3,1.2-2.8,1-1-2.79,2.8-1Zm-3.3,1.2-2.8,1-1-2.79,2.8-1ZM31,29.69l-2.8,1-1-2.79,2.8-1Zm-3.29,1.2-2.8,1-1-2.79,2.8-1Zm-3.3,1.2-2.8,1-1-2.79,2.81-1Zm.18.5,1,2.79-2.8,1-1-2.8Zm-2.28,4-2.8,1-1-2.79,2.8-1Zm.18.5,1,2.78-2.81,1-1-2.8Zm-2.29,4-2.79,1-1-2.8,2.8-1Zm.69.32,2.79-1,1,2.79-2.8,1Zm3.29-1.2,2.8-1L28,42l-2.8,1Zm3.3-1.2,2.8-1,1,2.79-2.8,1Zm3.3-1.2,2.8-1,1,2.79-2.8,1Zm3.3-1.2,2.8-1,1,2.79-2.8,1Zm3.29-1.2,2.8-1,1,2.79-2.8,1Zm3.3-1.2,2.8-1,1,2.79-2.8,1Zm3.3-1.2,2.8-1,1,2.79-2.8,1Zm3.3-1.2,2.8-1,1,2.79-2.8,1Zm3.3-1.2,2.79-1,1,2.79-2.8,1Zm3.29-1.2,2.8-1,1,2.79-2.8,1Zm3.3-1.2,2.8-1,1,2.79-2.79,1Zm3.3-1.2,2.8-1,1,2.79-2.8,1Zm3.3-1.2,2.79-1,1,2.79-2.8,1ZM67,24.58l2.8-1,1,2.79-2.8,1Zm3.3-1.2,2.8-1,1,2.79-2.8,1Zm-.18-.5-1-2.79,2.79-1,1,2.79Zm-1.2-3.29-1-2.79,2.8-1,1,2.78Zm2.28-4,2.8-1,1,2.79-2.8,1Zm-.17-.49-1-2.79,2.8-1,1,2.78Zm2.28-4,2.8-1,1,2.79-2.8,1Zm3.29-1.21,2.8-1,1,2.79-2.8,1Zm3.3-1.19,2.8-1,1,2.78-2.8,1Zm3.63,2.4L82,14.43,81.12,12Zm-.33-3.61,2.43-.88L84.1,9.94ZM83,7,82,4.23l2.8-1,1,2.79Zm-.5.18-2.8,1-1-2.79,2.8-1Zm-3.3,1.2-2.8,1-1-2.79,2.8-1Zm-3.3,1.2-2.79,1-1-2.79,2.8-1Zm-3.29,1.2-2.8,1L68.83,9l2.8-1ZM69.35,12l-2.8,1-1-2.79,2.81-1Zm-3.3,1.2-2.8,1-1-2.79,2.8-1Zm-3.3,1.2-2.79,1-1-2.79,2.8-1Zm-3.29,1.2-2.8,1-1-2.79,2.8-1Zm-3.3,1.2-2.8,1-1-2.79,2.8-1ZM52.86,18l-2.8,1-1-2.79,2.8-1Zm-3.3,1.2-2.79,1-1-2.79,2.8-1Zm-3.29,1.2-2.8,1-1-2.79,2.8-1ZM43,21.6l-2.8,1-1-2.79,2.8-1Zm-3.3,1.2-2.8,1-1-2.79,2.8-1ZM36.37,24l-2.8,1-1-2.79,2.8-1Zm-3.29,1.2-2.8,1-1-2.79,2.8-1Zm-3.3,1.2-2.8,1-1-2.79,2.8-1Zm-3.3,1.2-2.8,1-1-2.79,2.8-1Zm-3.3,1.2-2.45.89,1.56-3.33Zm-2.1,4.49-2.45.89,1.56-3.33ZM19,37.78l-2.45.89,1.56-3.34Zm-2.1,4.48-2.45.9L16,39.82Zm-2.1,4.49-2.46.9,1.57-3.34Zm.18.5L16,50l-2.79,1-1-2.79Zm.5-.18,2.8-1,1,2.79-2.8,1Zm3.29-1.2,2.8-1,1,2.79-2.8,1Zm3.3-1.2,2.8-1,1,2.79-2.8,1Zm3.3-1.2,2.8-1,1,2.79-2.81,1Zm3.3-1.2,2.8-1,1,2.79-2.8,1Zm3.3-1.2,2.79-1,1,2.79-2.8,1Zm3.29-1.2,2.8-1,1,2.79-2.8,1Zm3.3-1.2,2.8-1,1,2.79-2.8,1Zm3.3-1.2,2.8-1,1,2.79-2.8,1Zm3.3-1.2,2.79-1L49,38l-2.8,1Zm3.29-1.2,2.81-1,1,2.79-2.8,1Zm3.3-1.2,2.8-1,1,2.79-2.8,1Zm3.3-1.2,2.8-1,1,2.79-2.8,1Zm3.3-1.2,2.8-1,1,2.79-2.8,1Zm3.3-1.2,2.79-1,1,2.79-2.8,1Zm3.29-1.2,2.8-1,1,2.79-2.8,1Zm3.3-1.21,2.8-1,1,2.78-2.8,1Zm3.3-1.19,2.8-1,1,2.78-2.8,1Zm3.3-1.2,2.42-.89-1.54,3.3Zm-.19-.5-1-2.79,2.8-1,1,2.79Zm-1.19-3.29-1-2.79,2.8-1,1,2.79Zm2.28-4,2.8-1,1,2.79-2.81,1Zm-.18-.5-1-2.79,2.79-1,1,2.79Zm2.28-4,2.8-1,1,2.79-2.79,1Zm8.39-7.75L85.32,3l2.44-.89ZM11.78,48.79l.9,2.45-2.46.89Zm66-25.39L76.92,21l2.43-.89Zm2.1-4.49L79,16.49l2.43-.89Z"/>
			<circle class="avlogocls-2" cx="61.44" cy="21.03" r="14.84" transform="translate(39.64 82.2) rotate(-89.28)"/>
			<path class="avlogocls-1" d="M61.44,36.22A15.19,15.19,0,1,1,76.63,21,15.21,15.21,0,0,1,61.44,36.22Zm0-29.69A14.5,14.5,0,1,0,75.93,21,14.52,14.52,0,0,0,61.44,6.53Z"/>
			<path class="avlogocls-1" d="M61.71,19.46c-.15,0-8.12-.06-12.42-7.13a.34.34,0,0,1,.12-.48.35.35,0,0,1,.48.11C54,18.7,61.56,18.77,61.71,18.77h0a.35.35,0,1,1,0,.69Z"/>
			<path class="avlogocls-1" d="M61.22,36.2a.33.33,0,0,1-.19-.06.35.35,0,0,1-.1-.48,15.41,15.41,0,0,0,.49-16.31l-.06-.09v-.12A11,11,0,0,1,63,14.6c1.31-2.06,3.93-4.48,9.07-4.32a.33.33,0,0,1,.33.35A.34.34,0,0,1,72,11c-3.85-.12-6.69,1.22-8.44,4a10.37,10.37,0,0,0-1.5,4.13A16,16,0,0,1,64,24.18,15.74,15.74,0,0,1,61.51,36,.36.36,0,0,1,61.22,36.2Z"/>
			<path class="avlogocls-1" d="M65.34,35.61a.35.35,0,0,1-.28-.55C68.53,30,69.37,25,67.56,20a16.68,16.68,0,0,0-3.78-6,.35.35,0,0,1,.47-.51,17,17,0,0,1,4,6.25c1.3,3.57,1.92,9.19-2.58,15.7A.38.38,0,0,1,65.34,35.61Z"/>
			<path class="avlogocls-1" d="M72.46,31.29a.28.28,0,0,1-.13,0,.34.34,0,0,1-.19-.45c5.21-12.36-3.82-18.48-4.86-19.14a.35.35,0,0,1-.11-.48.35.35,0,0,1,.48-.11c1.09.69,10.56,7.11,5.13,20A.36.36,0,0,1,72.46,31.29Z"/>
			<path class="avlogocls-1" d="M53.37,16.47a.36.36,0,0,1-.35-.32c0-.26-.41-6.34,4.46-9.74a.33.33,0,0,1,.48.08.36.36,0,0,1-.08.49c-4.55,3.18-4.17,9.05-4.17,9.11a.35.35,0,0,1-.32.38Z"/>
			<path class="avlogocls-1" d="M57.24,18.48a.35.35,0,0,1-.34-.31A12,12,0,0,1,57.7,13c1-2.44,3.26-5.51,8.67-6.3a.37.37,0,0,1,.4.3.35.35,0,0,1-.3.39C62.39,8,59.66,10,58.35,13.29a11.53,11.53,0,0,0-.76,4.81.35.35,0,0,1-.31.38Z"/>
			<path class="avlogocls-1" d="M61.83,24.16a20.7,20.7,0,0,1-4.14-.42,18.46,18.46,0,0,1-10.77-6.37.34.34,0,1,1,.53-.44c6.28,7.66,15.89,6.46,16,6.45a.36.36,0,0,1,.39.3.34.34,0,0,1-.29.39A13.09,13.09,0,0,1,61.83,24.16Z"/>
			<path class="avlogocls-1" d="M60.53,29a17.7,17.7,0,0,1-2.09-.12A21.19,21.19,0,0,1,46.5,23.1a.36.36,0,0,1,0-.49.35.35,0,0,1,.49,0c8.3,7.63,16.66,5.34,16.75,5.32a.34.34,0,0,1,.42.24.35.35,0,0,1-.23.43A14.18,14.18,0,0,1,60.53,29Z"/>
			<path class="avlogocls-1" d="M61.38,33.45c-2.79,0-9.58-.64-13.9-6.44a.35.35,0,0,1,.07-.49.36.36,0,0,1,.49.07c5.27,7.08,14.42,6.13,14.51,6.12a.34.34,0,0,1,.39.3.35.35,0,0,1-.31.39S62.15,33.45,61.38,33.45Z"/>
			<path class="avlogocls-3" d="M87.81.53,61.05,47.09,38,.53H28.59L.85,56.63h9.44l6.93-14.06,27.27-9.88L56.31,56.63h9.47L97.23.53Zm-66,32.95L33.28,10l8.07,16.32Z"/>
			<path class="avlogocls-1" d="M66.09,57.16H56l-.15-.3L44.22,33.35,17.6,43l-7,14.16H0L28.26,0H38.35L61.09,46,87.51,0H98.14ZM56.64,56.1h8.83l30.86-55H88.12L61,48.21,37.69,1.06H28.92L1.71,56.1H10l6.88-14L44.75,32ZM20.7,34.43,33.28,8.84l8.81,17.81ZM33.28,11.24,22.81,32.54l17.8-6.48Z"/>
			<path class="avlogocls-1" d="M125.46,40.42l-1.84-4.65h-9.16l-1.74,4.65H106.5l9.93-23.68H122l9.84,23.68Zm-6.35-17.36-3,8.13h6Z"/>
			<path class="avlogocls-1" d="M135,40.42V16.74h5.75v18.7h9.17v5Z"/>
			<path class="avlogocls-1" d="M153.76,40.42V16.74h5.75v18.7h9.17v5Z"/>
			<path class="avlogocls-1" d="M191.67,40.42H186l-9-23.68h6.42l5.49,16.79H189l5.45-16.79h6.33Z"/>
			<path class="avlogocls-1" d="M215.3,41.06c-7.39,0-12.87-5.09-12.87-12.58S207.91,16.1,215.3,16.1s12.92,4.79,12.92,12.38S222.73,41.06,215.3,41.06Zm0-19.81c-4,0-6.75,3.08-6.75,7.23s2.78,7.36,6.75,7.36,6.8-3.08,6.8-7.36S219.32,21.25,215.3,21.25Z"/>
			<path class="avlogocls-1" d="M232.69,40.42V16.74h5.75v18.7h9.17v5Z"/>
			<path class="avlogocls-1" d="M251.46,40.42V16.74h5.76v18.7h9.16v5Z"/>
			<path class="avlogocls-1" d="M270.24,40.42V16.74h15.92v4.85h-10.4V26h9.84v4.58h-9.84v4.92h11v4.88Z"/>
			<path class="avlogocls-1" d="M304.57,30.39v10h-5.71v-10L290,16.74h6.92l5.05,8.76L307,16.74h6.69Z"/>
			<path class="avlogocls-1" d="M326.73,40.42H317.3V16.74h9.43c3.69,0,8.07,1.3,8.07,6.09a5.22,5.22,0,0,1-3.88,5.11V28a5.47,5.47,0,0,1,4.85,5.52C335.77,38.68,331.25,40.42,326.73,40.42Zm-1.1-19.13h-2.81v4.88h3.08c2.14,0,3.38-.9,3.38-2.57S328,21.29,325.63,21.29Zm.37,9.1h-3.18V35.8H326c1.81,0,4-.5,4-2.81C330.05,31,328.44,30.39,326,30.39Z"/>
			<path class="avlogocls-1" d="M356.79,40.42,355,35.77h-9.17L344,40.42h-6.22l9.94-23.68h5.55l9.83,23.68Zm-6.36-17.36-3,8.13h5.95Z"/>
			<path class="avlogocls-1" d="M366.3,40.42V16.74h5.76v18.7h9.16v5Z"/>
			<path class="avlogocls-1" d="M385.08,40.42V16.74h5.76v18.7H400v5Z"/>
		</g>
	</g>
</svg>