<?xml version="1.0" encoding="utf-8"?>
<!-- Generator: Adobe Illustrator 23.0.0, SVG Export Plug-In . SVG Version: 6.00 Build 0)  -->
<svg version="1.1" id="Layer_1" xmlns="http://www.w3.org/2000/svg" xmlns:xlink="http://www.w3.org/1999/xlink" x="0px" y="0px"
	 viewBox="0 0 449.1 175.2" style="enable-background:new 0 0 449.1 175.2;" xml:space="preserve">
<style type="text/css">
	.Arched_x0020_Green{fill:url(#SVGID_1_);stroke:#FFFFFF;stroke-width:0.25;stroke-miterlimit:1;}
	.st0{fill:#A2958A;}
</style>
<linearGradient id="SVGID_1_" gradientUnits="userSpaceOnUse" x1="-81.4706" y1="483.5882" x2="-80.7635" y2="482.8811">
	<stop  offset="0" style="stop-color:#1EAB4B"/>
	<stop  offset="0.9831" style="stop-color:#19361A"/>
</linearGradient>
<g>
	<path class="st0" d="M224.1,90.5l6.2-12.4l6.1,12.4H224.1z M233.1,71.9h-0.6L220,96.8c-1.1,2.1-2.3,2.6-3.8,2.6H216v0.6h7.8v-0.6
		h-0.4c-1.8,0-2.5-0.3-2.7-0.9c-0.2-0.5,0-1.2,0.6-2.4l2.4-4.8h13l4,8.1h-2.9v0.6h11.7v-0.6h-2.7L233.1,71.9z"/>
	<path class="st0" d="M148.6,73.2h0.3c1.2,0,1.9,0.2,2.4,0.6c0.5,0.4,0.7,1,0.7,1.9v16.7l-20.1-19.7h-9.3v0.6h2.2l1.2,1.2v22.5
		c0,0.9-0.2,1.6-0.7,2c-0.5,0.4-1.4,0.6-2.6,0.6h-0.2v0.6h8v-0.6h-0.2c-1.4,0-2.2-0.2-2.8-0.7c-0.5-0.4-0.6-1-0.6-1.9V75.2L152,100
		h0.8V75.6c0-0.8,0.1-1.4,0.6-1.8c0.4-0.4,1.2-0.6,2.3-0.6h0.3v-0.6h-7.4V73.2z"/>
	<path class="st0" d="M103.9,73.2h0.2c1.2,0,1.9,0.2,2.4,0.6c0.5,0.4,0.7,1,0.7,1.9v16.7L87.2,72.5h-9.3v0.6h2.2l1.2,1.2v22.4
		c0,0.9-0.2,1.6-0.8,2c-0.5,0.4-1.4,0.6-2.6,0.6h-0.2v0.6h8v-0.6h-0.2c-1.4,0-2.2-0.2-2.8-0.7c-0.4-0.4-0.6-1-0.6-1.9V75.2
		l25.2,24.8h0.8V75.6c0-0.8,0.1-1.4,0.6-1.9c0.4-0.4,1.2-0.6,2.3-0.6h0.3v-0.6h-7.4V73.2z"/>
	<path class="st0" d="M276.7,73.2h0.3c1.8,0,2.3,0.3,2.4,1c0.1,0.7-0.3,1.6-1.4,3.2L270.9,88l-9.7-14.8h2.7v-0.6h-11.8v0.6h2.5
		l11.1,16.8v9.4h-3.5v0.6h12.6v-0.6h-3.5V88.9l8.7-13c1.1-1.6,2.1-2.8,4.1-2.8h0.4v-0.6h-7.8V73.2z"/>
	<path class="st0" d="M321.7,97.1c-1.9,1.9-5.7,2.2-11.9,2.2h-5.9V73.2h3.5v-0.6h-12.5v0.6h3.5v26.2h-3.5v0.6h29.7v-9h-0.9
		C323.5,94,323.1,95.8,321.7,97.1"/>
	<path class="st0" d="M42.5,90.5l6.2-12.4l6.1,12.4H42.5z M51.5,71.9h-0.6L38.4,96.8c-1.1,2.1-2.3,2.6-3.8,2.6h-0.1v0.6h7.8v-0.6
		h-0.4c-1.8,0-2.5-0.3-2.7-0.9c-0.2-0.5,0-1.2,0.6-2.4l2.4-4.8h13l4,8.1h-2.9v0.6H68v-0.6h-2.7L51.5,71.9z"/>
	<path class="st0" d="M351.6,100.2c-10.1,0-11.5-8.8-11.5-14c0-5.2,1.4-14,11.5-14c10.1,0,11.5,8.8,11.5,14
		C363.1,91.5,361.8,100.2,351.6,100.2 M351.6,71.6c-9.4,0-17.7,6.5-17.7,14.6s8.2,14.6,17.7,14.6c9.4,0,17.7-6.5,17.7-14.6
		S361.1,71.6,351.6,71.6"/>
	<path class="st0" d="M391.7,85.6h-4.1V73.2h5c7.8,0,9.3,2.9,9.3,6.1C402,83.7,398.2,85.6,391.7,85.6 M412.1,98.6
		c-0.7,0.4-1.7,0.8-2.5,0.7c-2.5,0-2.9-2-3.1-5.9c-0.3-4.7-2.6-7.2-10.4-7.6c6.1-0.6,11.5-2.6,11.5-7c0-5.2-5.2-6.3-13.1-6.3h-15.8
		v0.6h3.4v26.2h-3.5v0.6h12.5v-0.6h-3.5V86.2h5.1c5.8,0,7.4,2,7.7,6.6c0.2,2.7,0.5,4.7,1.9,6c1,0.9,2.7,1.5,5.4,1.5
		c2.1,0,3.4-0.3,4.7-1L412.1,98.6z"/>
	<path class="st0" d="M179.4,79.9h0.9c0-2.4,0.7-4.1,1.8-5c1.8-1.5,4.7-1.7,9.5-1.7h1.2v26.2h-3.5v0.6h12.6v-0.6h-3.5V73.2h1.2
		c4.8,0,7.7,0.2,9.5,1.7c1.1,1,1.7,2.6,1.7,5h0.9v-7.4h-32.3V79.9z"/>
</g>
</svg>
