<?xml version="1.0" encoding="UTF-8" standalone="no"?><!-- Generator: Gravit.io --><svg xmlns="http://www.w3.org/2000/svg" xmlns:xlink="http://www.w3.org/1999/xlink" style="isolation:isolate" viewBox="0 0 150 150" width="150pt" height="150pt"><defs><clipPath id="_clipPath_UVXA1bVLy3Exmpaq8gWiJQiaoVwsg3NJ"><rect width="150" height="150"/></clipPath></defs><g clip-path="url(#_clipPath_UVXA1bVLy3Exmpaq8gWiJQiaoVwsg3NJ)"><path d=" M 150 126.304 L 150 23.696 L 0 23.696 L 0 126.304 L 150 126.304 Z " fill="rgb(238,50,36)"/><g><path d=" M 73.314 106.793 C 103.121 106.793 124.179 95.011 133.191 89.164 C 134.73 88.197 133.85 86.614 132.18 87.274 C 109.187 96.726 94.284 100.199 73.314 100.199 C 52.344 100.199 37.441 96.726 14.448 87.274 C 12.778 86.614 11.898 88.153 13.437 89.164 C 22.493 95.011 43.507 106.793 73.314 106.793 Z " fill="rgb(255,255,255)"/></g><g><path d=" M 115.551 63.562 C 115.551 67.518 120.431 68.661 122.937 69.277 C 124.168 69.585 126.674 70.2 126.718 71.783 C 126.806 73.497 124.828 74.421 122.849 74.421 C 120.783 74.421 119.464 73.585 118.321 72.091 C 117.794 71.431 117.178 71.255 116.387 71.519 C 115.464 71.783 114.452 72.31 113.485 72.97 C 112.914 73.365 112.694 73.981 113.002 74.728 C 114.584 78.509 118.805 79.696 122.454 79.696 C 128.213 79.696 133.224 77.19 134.455 72.091 C 135.686 67.079 131.598 65.232 127.905 64.177 C 125.487 63.474 123.684 62.902 123.816 61.276 C 123.948 59.561 127.861 58.462 130.543 61.584 C 131.202 62.375 131.905 62.463 132.697 62.155 C 133.532 61.847 134.895 61.232 135.335 60.924 C 136.258 60.353 136.434 59.825 135.906 58.858 C 134.543 56.396 131.202 54.769 127.421 54.769 C 120.255 54.857 115.551 58.594 115.551 63.562 Z " fill="rgb(255,255,255)"/></g><g><path d=" M 36.021 53.179 C 36.153 57.18 36.548 66.456 36.548 66.456 L 27.14 66.456 C 29.25 62.499 32.943 56.784 35.713 53.135 C 35.933 52.74 36.021 53.179 36.021 53.179 Z  M 36.46 45.574 C 34.922 45.662 33.647 45.794 32.46 47.2 C 28.635 51.728 19.842 65.313 12.896 77.666 C 12.413 78.546 12.765 79.381 13.82 79.381 C 15.007 79.381 18.348 79.381 18.919 79.381 C 19.755 79.381 20.326 79.205 20.898 78.238 C 21.513 77.183 23.008 74.545 24.327 72.303 L 36.504 72.303 C 36.504 72.303 36.636 76.479 36.68 78.018 C 36.724 78.853 37.208 79.381 38.307 79.381 C 39.406 79.381 42.044 79.381 42.791 79.381 C 43.538 79.381 44.242 79.029 44.198 77.974 C 44.066 73.622 42.967 52.256 42.571 47.244 C 42.483 46.013 41.868 45.486 40.461 45.486 C 39.098 45.442 37.559 45.486 36.46 45.574 Z " fill="rgb(255,255,255)"/></g><g><path d=" M 98.836 74.54 C 103.1 74.54 104.946 71.023 106.045 67.286 C 107.101 63.55 107.54 60.033 103.232 60.033 C 98.924 60.033 97.121 63.55 96.066 67.286 C 94.923 71.067 94.527 74.54 98.836 74.54 Z  M 98.352 79.772 C 90.703 79.772 87.186 74.716 88.724 67.33 C 90.307 59.945 95.978 54.889 103.627 54.889 C 111.321 54.889 114.838 59.945 113.255 67.33 C 111.717 74.716 106.045 79.772 98.352 79.772 Z " fill="rgb(255,255,255)"/></g><g><path d=" M 84.189 76.609 C 86.035 69.312 87.75 62.41 88.893 57.486 C 89.157 56.299 88.453 55.507 87.53 55.507 C 86.871 55.507 84.936 55.507 84.321 55.551 C 83.266 55.595 82.65 56.123 82.387 57.002 C 82.343 57.222 82.255 57.442 82.123 57.969 C 82.079 58.189 81.991 58.189 81.903 58.013 C 81.463 57.134 79.485 55.156 76.056 55.156 C 69.813 55.156 65.505 61.179 63.703 66.762 C 62.559 70.279 62.472 74.323 63.922 76.522 C 65.241 78.5 67.351 79.775 70.605 79.819 C 73.33 79.863 75.704 78.939 76.891 77.445 C 77.023 77.269 77.155 77.357 77.111 77.533 C 75.528 82.984 72.187 84.479 69.593 84.479 C 67.879 84.479 66.648 83.775 66.033 83.38 C 65.065 82.808 64.758 82.764 63.878 82.984 C 62.911 83.248 61.768 83.687 60.845 84.303 C 59.746 85.05 59.966 85.798 60.361 86.457 C 62.428 89.798 67.22 90.633 70.033 90.633 C 76.979 90.633 81.859 85.842 84.189 76.609 Z  M 69.813 67.509 C 71.176 62.717 73.506 60.255 76.671 60.343 C 80.716 60.475 79.881 64.432 79.001 67.465 C 77.639 72.081 75.528 74.543 72.231 74.279 C 68.846 73.972 69.066 70.059 69.813 67.509 Z " fill="rgb(255,255,255)"/></g><g><path d=" M 67.424 56.602 C 67.864 56.206 67.6 55.547 66.896 55.547 C 62.94 55.547 59.159 55.547 56.345 58.141 C 56.301 58.185 56.17 58.185 56.214 58.053 C 56.257 57.833 56.389 57.35 56.521 56.778 C 56.697 56.119 56.301 55.547 55.554 55.547 C 54.367 55.547 53.136 55.547 51.685 55.591 C 50.806 55.591 50.323 55.943 50.103 56.91 C 49.663 58.888 46.63 73.835 45.75 78.32 C 45.619 78.935 46.146 79.419 46.674 79.419 C 47.157 79.419 50.938 79.419 51.378 79.419 C 52.213 79.419 52.653 79.023 52.784 78.32 C 53.532 74.759 54.499 69.967 54.807 68.296 C 55.29 65.834 56.301 63.9 57.269 63.153 C 58.192 62.449 59.467 61.966 62.017 61.834 C 63.16 61.79 63.599 61.438 64.215 60.559 C 65.182 59.02 66.061 57.877 67.424 56.602 Z " fill="rgb(255,255,255)"/></g></g></svg>