<?xml version="1.0" encoding="UTF-8" standalone="no"?><!-- Generator: Gravit.io --><svg xmlns="http://www.w3.org/2000/svg" xmlns:xlink="http://www.w3.org/1999/xlink" style="isolation:isolate" viewBox="0 0 150 150" width="150pt" height="150pt"><defs><clipPath id="_clipPath_3111DfdWengqM2sliSzOOZgfd1hSuYPP"><rect width="150" height="150"/></clipPath></defs><g clip-path="url(#_clipPath_3111DfdWengqM2sliSzOOZgfd1hSuYPP)"><path d=" M 99.274 46.16 L 94.792 46.16 L 102.03 62.648 L 108.466 50.124 C 108.924 49.033 109.154 48.401 109.154 47.999 C 109.154 47.309 108.924 46.964 108.579 46.677 C 108.063 46.39 107.317 46.16 106.053 46.16 L 104.443 46.16 L 104.443 45.127 L 116.049 45.127 L 116.049 46.16 L 114.326 46.16 C 113.176 46.16 112.314 46.448 111.626 47.138 C 110.936 47.712 110.304 48.746 109.499 50.297 L 102.606 63.798 L 114.901 91.259 L 119.266 91.259 L 119.266 92.351 L 103.696 92.351 L 103.696 91.259 L 108.58 91.259 L 99.16 70.233 L 89.68 88.962 C 89.508 89.363 89.393 89.764 89.393 90.052 C 89.393 90.914 90.197 91.258 91.633 91.258 L 94.218 91.258 L 94.218 92.351 L 81.637 92.351 L 81.637 91.258 L 83.015 91.258 C 84.451 91.202 85.6 90.972 86.346 90.683 C 87.381 90.224 88.244 89.247 88.933 87.812 L 98.699 69.083 L 88.243 46.16 L 83.589 46.16 L 83.589 45.127 L 99.274 45.127 L 99.274 46.16 L 99.274 46.16 Z  M 149.541 105.048 L 149.656 106.598 L 149.656 106.713 L 149.426 106.713 C 149.426 105.852 148.851 105.335 147.817 105.335 L 146.496 105.335 L 146.496 108.149 L 147.071 108.149 C 147.53 108.149 147.934 107.919 148.105 107.46 L 148.105 107 L 148.277 107 L 148.277 109.586 L 148.105 109.586 L 147.934 108.723 C 147.817 108.493 147.53 108.437 147.071 108.437 L 146.496 108.437 L 146.496 111.308 L 147.646 111.308 L 149.369 111.08 L 149.713 110.447 L 149.829 109.757 L 149.829 109.586 L 150 109.586 L 150 111.481 L 149.944 111.481 L 149.944 111.653 L 144.658 111.653 L 144.658 111.481 L 145.405 111.481 L 144.658 111.481 L 144.658 111.308 L 145.405 111.308 L 145.405 105.334 L 144.658 105.334 L 144.658 105.047 L 149.541 105.047 L 149.541 105.048 L 149.541 105.048 Z  M 146.382 111.482 L 148.277 111.482 L 146.382 111.482 Z  M 124.264 105.048 L 127.712 109.758 L 127.712 105.852 C 127.712 105.564 127.539 105.335 127.252 105.335 L 126.734 105.335 L 126.734 105.163 L 126.849 105.163 L 126.849 105.048 L 128.747 105.048 L 128.747 105.163 L 128.689 105.163 L 128.689 105.335 L 128.287 105.335 C 128.114 105.335 127.999 105.45 127.884 105.565 L 127.884 111.482 L 127.828 111.482 L 127.828 111.653 L 127.712 111.653 L 123.404 105.623 L 123.404 110.792 C 123.404 111.08 123.575 111.308 123.978 111.308 L 124.265 111.308 L 124.265 111.481 L 123.69 111.481 L 124.265 111.481 L 124.265 111.653 L 122.369 111.653 L 122.369 111.481 L 122.829 111.481 L 122.369 111.481 L 122.369 111.308 L 122.656 111.308 C 122.871 111.316 123.08 111.233 123.23 111.08 L 123.23 105.334 L 122.369 105.334 L 122.369 105.047 L 124.264 105.047 L 124.264 105.048 L 124.264 105.048 Z  M 114.612 104.875 L 112.603 110.792 L 112.028 111.308 L 111.741 111.308 L 111.741 111.481 L 112.086 111.481 L 111.626 111.481 L 111.626 111.653 L 113.522 111.653 L 113.522 111.481 L 112.889 111.481 L 113.522 111.481 L 113.522 111.308 L 113.062 111.308 C 112.776 111.308 112.659 111.195 112.659 111.08 L 113.176 109.586 L 115.186 109.586 L 115.761 111.308 L 114.9 111.308 L 114.9 111.481 L 115.819 111.481 L 114.9 111.481 L 114.9 111.653 L 117.542 111.653 L 117.542 111.481 L 116.796 111.481 L 117.657 111.481 L 117.657 111.308 L 116.796 111.308 L 114.612 104.875 L 114.612 104.875 Z  M 114.096 106.598 L 115.072 109.183 L 113.234 109.183 L 114.096 106.598 Z  M 136.615 105.048 L 137.765 105.335 L 137.88 105.335 L 136.73 105.048 L 136.04 105.048 L 136.615 105.048 Z  M 138.914 105.048 L 138.914 107 L 138.799 107 L 138.799 107.173 L 138.743 107.173 C 138.628 106.713 138.455 106.197 138.168 105.852 C 137.65 105.335 137.191 105.162 136.616 105.162 C 135.755 105.162 135.295 105.622 135.007 106.713 C 134.841 107.193 134.802 107.707 134.892 108.207 C 134.777 110.332 135.467 111.366 136.73 111.481 C 137.478 111.366 137.938 111.195 138.053 110.735 L 138.168 110.505 L 138.168 109.757 L 137.305 109.757 L 137.305 109.586 L 137.363 109.586 L 137.363 109.355 L 139.89 109.355 L 139.89 109.757 L 139.086 109.757 L 139.086 110.791 C 138.344 111.293 137.501 111.626 136.616 111.768 C 135.755 111.768 135.066 111.481 134.606 110.906 C 134.031 110.217 133.745 109.47 133.86 108.437 L 133.916 107.344 C 134.031 106.771 134.32 106.312 134.72 105.908 C 135.18 105.277 135.87 104.874 136.73 104.874 L 137.88 105.162 L 138.455 105.564 L 138.743 105.334 L 138.743 105.277 L 138.799 105.047 L 138.914 105.047 L 138.914 105.048 L 138.914 105.048 Z  M 136.73 111.596 L 136.04 111.481 L 136.615 111.653 L 137.592 111.366 L 136.73 111.596 Z  M 91.978 105.048 L 92.553 105.048 C 92.954 105.048 93.357 105.163 93.643 105.335 L 93.932 105.565 C 93.528 105.278 93.127 105.049 92.668 105.049 L 91.978 105.049 L 91.978 105.048 L 91.978 105.048 Z  M 81.291 105.048 L 81.291 105.163 L 81.176 105.163 L 81.176 105.335 L 80.601 105.335 L 81.751 107.46 L 82.785 105.737 L 82.9 105.564 C 82.9 105.449 82.727 105.334 82.441 105.334 L 82.152 105.334 L 82.152 105.047 L 84.164 105.047 L 84.164 105.162 L 84.049 105.162 L 84.049 105.334 L 83.761 105.334 C 83.474 105.334 83.301 105.564 83.015 105.908 L 81.865 107.632 L 83.934 111.308 L 84.738 111.308 L 84.738 111.481 L 83.875 111.481 L 84.623 111.481 L 84.623 111.653 L 81.923 111.653 L 81.923 111.481 L 82.784 111.481 L 82.036 111.481 L 82.036 111.308 L 82.726 111.308 L 81.176 108.608 L 79.626 111.195 L 80.027 111.308 L 80.431 111.308 L 80.431 111.481 L 79.741 111.481 L 80.431 111.481 L 80.431 111.653 L 78.189 111.653 L 78.189 111.481 L 78.764 111.481 L 78.304 111.481 L 78.304 111.308 L 78.477 111.308 C 78.993 111.308 79.338 111.08 79.453 110.792 L 81.177 108.437 L 79.338 105.334 L 78.592 105.334 L 78.592 105.047 L 81.291 105.047 L 81.291 105.048 L 81.291 105.048 Z  M 90.655 105.908 C 91.115 105.277 91.805 104.874 92.667 104.874 C 92.953 104.874 93.357 104.989 93.701 105.277 L 94.276 105.564 L 94.563 105.334 L 94.563 105.162 L 94.793 105.162 L 94.793 107.058 L 94.678 107.058 L 94.678 107.288 L 94.563 107.288 C 94.563 106.772 94.389 106.312 93.988 105.852 C 93.643 105.335 93.127 105.162 92.552 105.162 C 91.689 105.162 91.229 105.622 90.943 106.713 C 90.828 107.057 90.77 107.574 90.77 108.207 C 90.77 110.332 91.402 111.366 92.667 111.481 C 93.127 111.366 93.643 111.195 93.988 110.735 L 94.563 109.872 L 94.563 109.182 L 94.793 109.182 L 94.793 111.366 L 94.678 111.366 L 94.678 111.481 L 94.563 111.481 C 94.563 111.195 94.506 111.022 94.276 111.08 L 93.701 111.366 L 92.552 111.768 C 91.804 111.768 91.114 111.481 90.542 110.791 C 89.967 110.16 89.679 109.297 89.679 108.436 L 89.909 107.344 C 89.967 106.771 90.197 106.312 90.655 105.908 L 90.655 105.908 Z  M 106.914 105.048 L 106.914 105.163 L 106.858 105.163 L 106.858 105.335 L 106.053 105.335 L 106.053 111.309 L 106.915 111.309 L 106.915 111.482 L 106.053 111.482 L 106.858 111.482 L 106.858 111.653 L 104.271 111.653 L 104.271 111.482 L 105.134 111.482 L 104.33 111.482 L 104.33 111.309 L 105.134 111.309 L 105.134 108.438 L 101.86 108.438 L 101.86 111.309 L 102.721 111.309 L 102.721 111.482 L 101.744 111.482 L 102.721 111.482 L 102.721 111.653 L 100.021 111.653 L 100.021 111.482 L 100.882 111.482 L 100.136 111.482 L 100.136 111.309 L 100.882 111.309 L 100.882 105.335 L 100.021 105.335 L 100.021 105.163 L 100.136 105.163 L 100.136 105.048 L 102.721 105.048 L 102.721 105.335 L 101.86 105.335 L 101.86 108.149 L 105.134 108.149 L 105.134 105.335 L 104.271 105.335 L 104.271 105.163 L 104.329 105.163 L 104.329 105.048 L 106.914 105.048 L 106.914 105.048 Z  M 105.133 108.207 L 101.859 108.207 L 105.133 108.207 Z  M 76.178 98.096 L 77.041 98.096 L 77.041 38.232 L 76.178 38.232 L 76.178 98.096 Z  M 52.854 44.092 L 41.364 87.238 C 40.847 89.075 40.387 90.225 39.928 90.684 C 39.525 90.972 38.836 91.202 37.917 91.259 L 36.193 91.259 L 36.193 92.351 L 47.281 92.351 L 47.281 91.259 L 44.524 91.259 C 42.858 91.203 42.111 90.628 42.111 89.536 C 42.111 88.673 42.397 87.238 42.972 85.456 L 45.098 77.011 L 56.588 77.011 L 60.494 91.259 L 55.209 91.259 L 55.209 92.351 L 70.95 92.351 L 70.95 91.259 L 66.412 91.259 L 53.428 44.092 L 52.854 44.092 L 52.854 44.092 Z  M 50.843 55.64 L 56.3 75.978 L 45.443 75.978 L 50.613 55.64 L 50.843 55.64 Z  M 58.025 105.048 L 58.025 105.335 L 57.221 105.335 L 57.221 111.309 L 58.025 111.309 L 58.025 111.482 L 57.163 111.482 L 58.025 111.482 L 58.025 111.653 L 55.439 111.653 L 55.439 111.482 L 56.185 111.482 L 55.439 111.482 L 55.439 111.309 L 56.185 111.309 L 56.185 105.335 L 55.439 105.335 L 55.439 105.048 L 58.025 105.048 L 58.025 105.048 Z  M 46.017 105.048 L 49.464 109.758 L 49.464 105.852 C 49.464 105.564 49.292 105.335 49.004 105.335 L 48.602 105.335 L 48.602 105.048 L 50.613 105.048 L 50.613 105.163 L 50.555 105.163 L 50.555 105.335 L 50.153 105.335 C 49.866 105.335 49.751 105.45 49.693 105.565 L 49.693 111.654 L 49.578 111.654 L 45.154 105.624 L 45.154 110.793 C 45.154 111.081 45.384 111.309 45.728 111.309 L 46.13 111.309 L 46.13 111.482 L 45.557 111.482 L 46.13 111.482 L 46.13 111.653 L 44.12 111.653 L 44.12 111.482 L 44.579 111.482 L 44.12 111.482 L 44.12 111.309 L 44.522 111.309 C 44.81 111.309 44.867 111.196 44.982 111.08 L 44.982 105.335 L 44.12 105.335 L 44.12 105.048 L 46.017 105.048 L 46.017 105.048 Z  M 67.274 111.482 L 68.135 111.482 L 67.388 111.482 L 67.388 111.309 L 68.135 111.309 L 68.135 105.335 L 67.274 105.335 L 67.274 105.163 L 67.388 105.163 L 67.388 105.048 L 72.156 105.048 L 72.386 106.598 L 72.271 106.598 L 72.271 106.713 L 72.099 106.713 C 72.099 105.852 71.525 105.335 70.432 105.335 L 68.996 105.335 L 68.996 108.149 L 69.8 108.149 C 70.26 108.149 70.547 107.919 70.72 107.575 L 70.72 107 L 70.95 107 L 70.95 109.586 L 70.72 109.586 C 70.72 109.069 70.662 108.782 70.547 108.723 C 70.432 108.493 70.145 108.437 69.685 108.437 L 68.996 108.437 L 68.996 111.308 L 70.375 111.308 L 71.984 111.08 C 72.156 110.906 72.271 110.735 72.386 110.447 L 72.443 109.757 L 72.443 109.586 L 72.673 109.586 L 72.673 111.653 L 67.273 111.653 L 67.273 111.482 L 67.274 111.482 L 67.274 111.482 Z  M 70.951 111.482 L 68.997 111.482 L 70.951 111.482 Z  M 23.266 105.048 L 25.162 109.873 L 27.001 105.048 L 28.724 105.048 L 28.724 105.335 L 27.92 105.335 L 27.92 111.309 L 28.724 111.309 L 28.724 111.482 L 27.92 111.482 L 28.724 111.482 L 28.724 111.653 L 26.139 111.653 L 26.139 111.482 L 27.001 111.482 L 26.139 111.482 L 26.139 111.309 L 27.001 111.309 L 27.001 105.623 L 26.886 105.623 L 24.703 111.482 L 24.587 111.482 L 22.404 105.909 L 22.404 110.506 L 22.461 111.081 L 22.978 111.31 L 23.323 111.31 L 23.323 111.483 L 22.691 111.483 L 23.265 111.483 L 23.265 111.654 L 21.426 111.654 L 21.426 111.483 L 21.829 111.483 L 21.426 111.483 L 21.426 111.31 L 21.714 111.31 C 21.886 111.31 22.001 111.196 22.116 111.081 L 22.173 111.081 L 22.173 105.335 L 21.426 105.335 L 21.426 105.049 L 23.266 105.049 L 23.266 105.048 L 23.266 105.048 Z  M 10.915 105.048 L 10.915 105.335 L 11.777 105.335 L 11.777 111.309 L 10.915 111.309 L 10.915 111.482 L 11.777 111.482 L 10.915 111.482 L 10.915 111.653 L 13.558 111.653 L 13.558 111.482 L 12.696 111.482 L 13.558 111.482 L 13.558 111.309 L 12.696 111.309 L 12.696 108.438 L 13.271 108.438 C 14.075 108.438 14.42 108.782 14.534 109.472 L 14.649 110.047 L 14.936 111.196 C 14.993 111.483 15.396 111.654 15.855 111.654 L 16.659 111.598 L 16.659 111.368 L 16.257 111.483 L 16.085 111.483 L 16.659 111.368 L 16.659 111.31 L 16.257 111.368 C 15.969 111.368 15.797 111.196 15.797 110.793 L 15.682 109.643 C 15.567 109.069 15.395 108.724 15.108 108.494 C 14.865 108.385 14.615 108.29 14.361 108.207 C 15.222 108.034 15.682 107.633 15.797 107.058 L 15.854 106.713 C 15.854 105.623 15.108 105.048 13.671 105.048 L 10.915 105.048 L 10.915 105.048 Z  M 14.822 107.173 C 14.649 107.863 14.076 108.149 13.213 108.149 L 12.697 108.149 L 12.697 105.335 L 13.271 105.335 C 14.363 105.335 14.823 105.852 14.823 106.772 L 14.823 107.173 L 14.822 107.173 Z  M 13.845 108.322 L 13.96 108.322 L 13.845 108.322 Z  M 13.845 108.149 L 14.076 108.149 L 13.845 108.149 Z  M 13.501 108.207 L 12.697 108.207 L 13.501 108.207 Z  M 36.366 104.875 L 34.469 110.792 C 34.24 111.08 34.067 111.308 33.895 111.308 L 33.494 111.308 L 33.494 111.481 L 33.953 111.481 L 33.494 111.481 L 33.494 111.653 L 35.332 111.653 L 35.332 111.481 L 34.757 111.481 L 35.389 111.481 L 35.389 111.308 L 34.93 111.308 C 34.642 111.308 34.527 111.195 34.527 111.08 L 35.044 109.586 L 36.94 109.586 L 37.514 111.308 L 36.768 111.308 L 36.768 111.481 L 37.629 111.481 L 36.768 111.481 L 36.768 111.653 L 39.411 111.653 L 39.411 111.481 L 38.664 111.481 L 39.411 111.481 L 39.411 111.308 L 38.664 111.308 L 36.481 104.874 L 36.366 104.874 L 36.366 104.875 Z  M 35.964 106.598 L 36.826 109.183 L 35.103 109.183 L 35.964 106.598 Z  M 2.929 104.875 L 0.919 110.792 C 0.862 111.08 0.632 111.308 0.345 111.308 L 0.057 111.308 L 0.057 111.481 L 0.46 111.481 L 0 111.481 L 0 111.653 L 1.896 111.653 L 1.896 111.481 L 1.206 111.481 L 1.896 111.481 L 1.896 111.308 L 1.436 111.308 C 1.149 111.308 1.034 111.195 1.034 111.08 L 1.493 109.586 L 3.446 109.586 L 4.078 111.308 L 3.217 111.308 L 3.217 111.481 L 4.193 111.481 L 3.217 111.481 L 3.217 111.653 L 5.917 111.653 L 5.917 111.481 L 5.17 111.481 L 5.917 111.481 L 5.917 111.308 L 5.17 111.308 L 2.929 104.875 Z  M 3.447 109.183 L 1.608 109.183 L 2.47 106.598 L 3.447 109.183 Z " fill-rule="evenodd" fill="rgb(0,0,0)"/></g></svg>