<?xml version="1.0" encoding="UTF-8" standalone="no"?><!-- Generator: Gravit.io --><svg xmlns="http://www.w3.org/2000/svg" xmlns:xlink="http://www.w3.org/1999/xlink" style="isolation:isolate" viewBox="0 0 150 150" width="150pt" height="150pt"><defs><clipPath id="_clipPath_BddGyAlKgPXbZDC8OUlXVMusjk3SBI8C"><rect width="150" height="150"/></clipPath></defs><g clip-path="url(#_clipPath_BddGyAlKgPXbZDC8OUlXVMusjk3SBI8C)"><path d=" M 103.681 85.117 C 101.431 87.53 98.542 88.756 95.094 88.756 C 91.646 88.756 88.756 87.53 86.508 85.117 C 84.36 82.818 83.126 79.141 83.126 75.034 C 83.126 71.025 84.374 67.399 86.544 65.084 C 88.816 62.67 91.692 61.439 95.092 61.429 C 98.497 61.439 101.373 62.67 103.643 65.084 C 105.817 67.399 107.062 71.025 107.062 75.034 C 107.062 79.141 105.829 82.818 103.681 85.117 L 103.681 85.117 Z  M 73.49 75.034 C 73.49 75.22 73.499 75.402 73.504 75.585 C 70.054 72.445 65.066 71.276 62.018 70.666 C 56.38 69.477 52.072 68.389 52.072 64.375 C 52.072 61.542 54.608 59.482 59.48 59.835 C 63.933 60.158 65.808 62.88 66.322 65.506 C 66.395 65.937 66.594 66.251 67.085 66.255 L 75.093 66.323 C 75.131 66.323 75.164 66.319 75.198 66.316 C 74.069 68.95 73.49 71.881 73.49 75.034 Z  M 59.872 89.764 C 55.999 89.764 51.732 88.388 50.749 83.065 C 50.666 82.556 50.426 82.346 50.036 82.335 L 42.295 82.231 L 42.295 68.547 C 43.312 72.558 46.681 75.334 53.969 76.975 C 58.846 78.142 67.308 78.884 67.308 83.891 C 67.308 87.382 64.737 89.846 59.872 89.764 Z  M 21.314 88.762 C 15.068 88.762 9.346 83.846 9.346 75.04 C 9.346 68.13 13.636 61.435 21.355 61.435 C 24.698 61.435 33.176 62.58 33.176 75.04 C 33.176 87.532 24.325 88.762 21.312 88.762 L 21.314 88.762 Z  M 116.467 71.678 C 118.244 74.048 121.451 75.803 126.661 76.976 C 131.538 78.143 140 78.885 140 83.892 C 140 87.383 137.429 89.847 132.564 89.765 C 128.693 89.765 124.424 88.39 123.442 83.066 C 123.36 82.557 123.12 82.347 122.729 82.336 L 115.556 82.241 C 116.313 80.009 116.699 77.591 116.699 75.035 C 116.698 73.912 116.621 72.791 116.467 71.678 L 116.467 71.678 Z  M 132.035 96.734 C 140.625 96.734 150.749 93.536 149.956 83.164 C 149.081 73.957 139.5 71.625 134.711 70.668 C 129.071 69.479 124.763 68.39 124.763 64.376 C 124.763 61.544 127.299 59.483 132.173 59.836 C 136.625 60.16 138.5 62.881 139.014 65.508 C 139.088 65.939 139.289 66.252 139.778 66.256 L 147.785 66.325 C 148.395 66.329 148.584 66.012 148.508 65.579 C 146.94 55.981 138.922 53.266 131.543 53.266 C 124.175 53.266 115.298 55.336 114.668 64.501 C 114.646 64.856 114.638 65.205 114.638 65.547 C 113.465 63.109 111.774 60.87 109.595 58.887 C 105.573 55.26 100.557 53.317 95.088 53.269 L 94.906 53.269 C 92.294 53.269 89.737 53.75 87.305 54.705 C 84.834 55.683 82.56 57.099 80.594 58.887 C 78.53 60.764 76.901 62.869 75.736 65.156 C 74.002 55.906 66.117 53.266 58.849 53.266 C 52.085 53.266 44.048 55.016 42.295 62.403 L 42.295 55.07 C 42.294 54.679 41.977 54.363 41.585 54.363 L 34.045 54.363 C 33.653 54.363 33.337 54.681 33.337 55.072 L 33.337 57.049 C 33.337 57.382 33.115 57.498 32.843 57.304 C 30.161 55.358 26.193 53.27 21.417 53.27 C 18.734 53.27 16.171 53.742 13.8 54.672 C 11.427 55.605 9.172 57.025 7.102 58.893 C 4.745 61.036 2.951 63.48 1.774 66.155 C 0.597 68.831 0 71.82 0 75.038 C 0 78.042 0.529 80.86 1.571 83.405 C 2.613 85.951 4.199 88.306 6.286 90.406 C 8.373 92.506 10.707 94.102 13.22 95.152 C 15.734 96.198 18.503 96.728 21.457 96.728 C 26.532 96.728 30.341 94.567 32.836 92.602 C 33.112 92.392 33.337 92.505 33.337 92.849 L 33.337 94.925 C 33.337 95.315 33.656 95.635 34.046 95.635 L 41.587 95.635 C 41.978 95.633 42.294 95.316 42.295 94.925 L 42.295 87.93 C 45.85 96.289 54.908 96.732 59.343 96.732 C 66.755 96.732 75.304 94.346 77 87.026 C 77.816 88.237 78.746 89.368 79.778 90.401 C 83.82 94.469 89.116 96.656 95.101 96.721 L 95.347 96.721 C 98.189 96.721 100.931 96.176 103.497 95.097 C 106.088 94.002 108.438 92.406 110.411 90.401 C 111.887 88.929 113.148 87.256 114.155 85.432 C 116.843 96.209 127.196 96.732 132.035 96.732 L 132.035 96.734 Z " fill-rule="evenodd" fill="rgb(11,11,10)"/></g></svg>