<?xml version="1.0" encoding="utf-8"?>
<!-- Generator: Adobe Illustrator 25.3.1, SVG Export Plug-In . SVG Version: 6.00 Build 0)  -->
<svg version="1.1" id="Layer_1" xmlns="http://www.w3.org/2000/svg" xmlns:xlink="http://www.w3.org/1999/xlink" x="0px" y="0px"
	 viewBox="0 0 500 500" enable-background="new 0 0 500 500" width="500" height="500" xml:space="preserve">
<g>
	<path d="M364.054,282.915c0-20.957,0-41.626,0-63.001c11.772,0.477,23.594-1.701,35.063,2.186
		c8.096,2.744,12.662,8.926,14.679,16.964c2.087,8.318,2.107,16.74,0.031,25.068c-2.666,10.697-10.099,17.75-21.093,18.629
		C383.387,283.508,373.931,282.915,364.054,282.915z M375.717,230.452c0,14.507,0,28.14,0,42.221
		c9.036-0.912,19.356,3.037,24.895-7.213c4.967-9.19,5.197-19.362-0.207-28.372C394.709,227.591,384.616,231.237,375.717,230.452z"
		/>
	<path d="M11.359,283.35c7.582-21.769,14.795-42.479,21.942-63.002c0.615-0.203,0.913-0.389,1.21-0.387
		c4.792,0.026,11.077-0.02,14.195-0.02c1,0,3.805,8.88,5.375,13.335c5.239,14.864,10.372,29.765,15.525,44.66
		c0.512,1.479,0.881,3.007,1.561,5.358c-3.736,0-6.998,0.096-10.245-0.075c-0.721-0.038-1.49-0.936-2.052-1.594
		c-0.386-0.451-0.447-1.175-0.662-1.774c-1.394-3.892-2.443-10.557-4.467-11.23c-3.377-1.122-9.33-0.857-13.069-0.837
		c-11.972,0.064-12.116-0.064-15.709,11.207c-1.044,3.275-2.419,4.855-5.976,4.409C16.815,283.128,14.58,283.35,11.359,283.35z
		 M50.888,257.782c-3.191-9.497-6.158-18.326-9.519-28.329c-3.352,10.109-6.314,19.041-9.395,28.329
		C38.595,257.782,44.336,257.782,50.888,257.782z"/>
	<path d="M293.769,220.157c3.918,0,7.356,0,11.338,0c0,9.465-0.007,18.666,0.003,27.867c0.005,4.463-0.123,8.935,0.103,13.387
		c0.402,7.906,5.056,12.139,13.028,12.144c7.886,0.005,12.667-4.235,12.878-12.272c0.302-11.47,0.116-22.953,0.137-34.431
		c0.004-2.063,0.001-4.126,0.001-6.579c3.785,0,7.338,0,11.466,0c0,9.894,0.092,19.727-0.035,29.558
		c-0.074,5.718,0.085,11.533-0.897,17.124c-1.819,10.361-9.635,16.773-20.107,17.046c-4.115,0.107-8.407,0.103-12.342-0.914
		c-9.42-2.437-14.921-9.247-15.382-18.583C293.24,249.894,293.769,235.222,293.769,220.157z"/>
	<path d="M445.575,256.369c0,5.706,0,10.609,0,16.128c9.302,0,18.482,0,27.915,0c0,3.741,0,6.872,0,10.43
		c-13.009,0-26.004,0-39.319,0c0-20.848,0-41.647,0-62.746c13.036,0,25.918,0,39.197,0c0,3.28,0,6.504,0,10.232
		c-9.112,0-18.159,0-27.591,0c0,5.484,0,10.483,0,16.066c9.107,0,18.297,0,27.726,0c0,3.51,0,6.445,0,9.889
		C464.215,256.369,455.167,256.369,445.575,256.369z"/>
	<path d="M260.574,283.082c-4.009,0-7.459,0-11.557,0c0-17.491,0-34.759,0-52.478c-6.017,0-11.398,0-17.12,0c0-3.7,0-6.937,0-10.449
		c15.35,0,30.467,0,45.966,0c0,3.269,0,6.492,0,10.365c-4.154,0-8.279,0.269-12.351-0.075c-4.152-0.35-5.07,1.334-5.016,5.167
		c0.198,14.017,0.078,28.037,0.078,42.057C260.574,279.384,260.574,281.1,260.574,283.082z"/>
	<path d="M151.388,230.575c-6.129,0-11.5,0-17.218,0c0-3.684,0-6.908,0-10.414c15.31,0,30.418,0,45.835,0c0,3.352,0,6.589,0,10.374
		c-5.651,0-11.159,0-17.121,0c0,17.671,0,34.808,0,52.378c-3.99,0-7.521,0-11.496,0C151.388,265.666,151.388,248.52,151.388,230.575
		z"/>
	<path d="M104.51,283.085c-4.034,0-7.496,0-11.501,0c0-17.355,0-34.657,0-52.365c-5.915,0-11.301,0-17.073,0
		c0-3.65,0-6.897,0-10.495c15.012,0,30.128,0,45.68,0c0,3.2,0,6.421,0,10.205c-5.509,0-11.026,0-17.107,0
		C104.51,248.259,104.51,265.544,104.51,283.085z"/>
	<path d="M209.89,229.241c-0.946,8.573,2.444,12.647,13.64,15.785c0,1.473,0,3.008,0,5.791c-4.868-1.569-9.23-2.976-13.515-4.357
		c-1.389,7.975,2.463,12.653,13.487,15.582c0,1.473,0,3.011,0,5.833c-4.815-1.524-9.186-2.907-14.002-4.431
		c0,6.297,0,13.015,0,19.984c-1.981,0-3.338,0-5.422,0c0-6.758,0-13.483,0-20.081c-4.869,1.615-9.13,3.028-14.034,4.655
		c0-2.681,0-4.323,0-5.931c11.294-3.22,13.656-5.976,13.63-15.8c-4.307,1.475-8.641,2.96-13.621,4.665c0-2.642,0-4.29,0-5.921
		c11.361-3.244,14.244-6.72,13.469-15.777c-4.262,1.432-8.625,2.898-13.572,4.56c0-2.702,0-4.233,0-6.255
		c7.5-0.429,12.275-4.351,14.199-11.74c0.215-0.825,1.878-1.845,2.78-1.766c0.926,0.081,2.259,1.255,2.527,2.2
		c1.978,6.992,6.535,10.723,14.008,11.264c0,1.788,0,3.451,0,6.27C218.544,232.129,214.168,230.669,209.89,229.241z"/>
	<path fill="#FFFFFF" d="M375.717,230.452c8.899,0.785,18.992-2.861,24.689,6.637c5.404,9.01,5.173,19.182,0.207,28.372
		c-5.54,10.25-15.86,6.301-24.895,7.213C375.717,258.592,375.717,244.959,375.717,230.452z"/>
	<path fill="#FFFFFF" d="M50.888,257.782c-6.552,0-12.293,0-18.914,0c3.08-9.289,6.042-18.221,9.395-28.329
		C44.73,239.456,47.697,248.285,50.888,257.782z"/>
</g>
</svg>
