<?xml version="1.0" encoding="utf-8"?>
<!-- Generator: Adobe Illustrator 24.0.1, SVG Export Plug-In . SVG Version: 6.00 Build 0)  -->
<svg version="1.1" id="Layer_1" xmlns="http://www.w3.org/2000/svg" xmlns:xlink="http://www.w3.org/1999/xlink" x="0px" y="0px"
	 viewBox="0 0 1000 1000" style="enable-background:new 0 0 1000 1000;" width="1000" height="1000" xml:space="preserve">
<style type="text/css">
	.st0{fill:#EE7B28;}
	.st1{fill:#070707;}
	.st2{fill:#C6C8C9;}
</style>
<g>
	<path class="st0" d="M467.48,458.9c0,9.62-0.11,19.25,0.05,28.87c0.06,3.66-1.27,6.25-3.97,8.63
		c-11.55,10.2-25.52,15.43-40.02,19.29c-13.68,3.64-27.62,4.74-41.78,2.64c-26.69-3.98-40.41-34.88-24.99-56.87
		c5.36-7.65,13.69-10.98,22.17-13.83c11.86-3.98,24.29-4.4,36.59-5.64c4.98-0.5,10.14-0.98,12.7-6.33
		c3.04-6.36-0.19-12.87-7.17-15.33c-10.96-3.87-21.57-0.99-32.2,1.37c-10.09,2.24-20.14,4.65-30.18,7.08
		c-2.89,0.7-4.22-0.1-4.1-3.18c0.1-2.77,0.02-5.55,0.01-8.33c-0.02-12.2-0.03-12.24,11.31-15.8c21.38-6.71,43.08-10.03,65.58-7.3
		c23.9,2.89,36.5,20.45,36.01,40.85c-0.19,7.95-0.03,15.91-0.03,23.87C467.46,458.9,467.47,458.9,467.48,458.9z M406.83,494.09
		c11.67,0.14,17.61-3.13,20.36-11.57c1.77-5.41,2.57-11.08,2.69-16.85c0.1-4.87-1.89-5.66-6.12-4.36
		c-7.39,2.27-14.87,4.24-22.31,6.35c-7.27,2.06-10.75,7.47-10.07,15.64c0.59,7.11,3.67,9.79,12.21,10.59
		C404.88,494,406.17,494.04,406.83,494.09z"/>
	<path class="st1" d="M846.3,613.72c0-11.84,0.1-23.69-0.07-35.53c-0.04-3.04,1.01-4.74,3.63-6.08
		c19.53-9.97,39.42-12.21,59.78-2.75c2.83,1.31,4.95,1.21,7.74-0.07c16.99-7.79,33.79-8.26,50.54,1.19
		c8.96,5.05,11.72,13.3,11.96,22.34c0.52,19.42,0.14,38.86,0.3,58.29c0.02,3.08-1.15,3.73-3.9,3.67
		c-7.03-0.14-14.07-0.23-21.09,0.03c-3.48,0.13-4.35-1.02-4.32-4.41c0.17-18.5-0.02-37.01,0.18-55.52
		c0.06-5.63-1.68-9.77-7.01-11.94c-3.51-1.43-12.54,0.84-15.08,3.59c-1.45,1.57-1,3.48-1,5.28c-0.03,19.25-0.14,38.49,0.09,57.74
		c0.05,4.15-0.99,5.51-5.22,5.27c-6.46-0.36-12.96-0.31-19.42-0.02c-3.86,0.17-5.06-1.02-5.02-4.95c0.2-18.87,0.05-37.75,0.15-56.63
		c0.02-4.6-0.77-8.83-5.53-10.42c-5.58-1.86-11.37-1.65-16.67,1.22c-1.91,1.04-0.98,3.39-0.97,5.15
		c0.09,19.98,0.08,39.97,0.51,59.95c0.1,4.83-1.46,5.96-5.94,5.71c-6.46-0.36-12.96-0.3-19.42-0.04c-3.5,0.14-4.4-1.1-4.35-4.43
		c0.17-12.21,0.07-24.43,0.07-36.64C846.24,613.72,846.27,613.72,846.3,613.72z"/>
	<path class="st1" d="M837.74,610.71c0,5.91-0.36,11.3,0.09,16.62c0.53,6.29-1.85,11.11-6.95,14.09
		c-18.82,11.04-38.91,16.11-60.58,10.61c-13.34-3.38-20.73-12.52-21.33-26.36c-0.55-12.74-0.35-25.51-0.25-38.27
		c0.04-6.06,3.27-10.79,8.41-13.5c18.27-9.62,37.41-14.87,58.2-9.91c13.08,3.12,19.57,10.13,21.74,23.43
		C838.36,595.35,837.39,603.32,837.74,610.71z M810.28,611.02c-0.05,0-0.1,0-0.15,0c0-4.99,0.21-9.99-0.04-14.97
		c-0.53-10.54-6.22-15.77-16.76-15.64c-2.03,0.03-4.07,0.16-6.07,0.47c-8.09,1.23-10.77,4.39-10.79,12.57
		c-0.01,5.91,0.01,11.83,0.01,17.74c0,1.29,0,2.59,0.01,3.88c0.08,16.08,8.84,23.24,24.68,20.16c6.97-1.35,9.12-3.92,9.11-10.91
		C810.28,619.89,810.28,615.45,810.28,611.02z"/>
	<path class="st1" d="M412.4,606.21c0-6.67,0.15-13.34-0.07-19.99c-0.11-3.27,0.78-5.78,3.39-7.7
		c18.03-13.2,38.14-19.02,60.17-14.66c16.14,3.19,24.1,18.34,19.22,34.11c-2.47,7.97-8.67,12.15-16.04,14.94
		c-9.66,3.65-19.87,4.24-29.98,5.23c-4.85,0.47-8.83,1.74-9.33,7.42c-0.42,4.73,2.57,7.89,8.61,9.01c6.9,1.28,13.64-0.02,20.34-1.57
		c7.2-1.67,14.42-3.25,21.57-5.12c2.54-0.66,3.49-0.16,3.28,2.42c-0.01,0.18,0.01,0.37,0,0.56c-0.57,16.82,3.61,12.65-12.9,17.61
		c-16.13,4.85-32.59,7.05-49.24,2.32c-11.21-3.19-18.91-13.44-19.01-25.13C412.36,619.18,412.4,612.69,412.4,606.21z M454.95,580.68
		c-8.76-0.01-12.54,2.79-14.44,11.25c-0.67,3.02-0.56,6.21-0.79,9.33c-0.21,2.89,0.61,3.96,3.8,2.9c5.24-1.74,10.62-3.05,15.96-4.45
		c3.46-0.91,5.89-2.84,7.09-6.29C469.45,585.21,465.35,580.7,454.95,580.68z"/>
	<path class="st1" d="M563.48,605.98c0-6.66,0.16-13.33-0.07-19.99c-0.11-3.28,0.82-5.72,3.44-7.64
		c17.72-12.94,37.54-18.56,59.15-14.75c16.58,2.92,24.86,18.18,20.06,34.06c-2.44,8.07-8.46,12.3-15.79,15.14
		c-9.8,3.79-20.22,4.3-30.51,5.41c-6.01,0.65-9.17,3.1-9.2,7.56c-0.03,5.53,3.67,7.71,8.39,8.71c6.9,1.46,13.63,0.1,20.33-1.41
		c7.03-1.59,14.08-3.13,21.05-4.96c2.98-0.78,4.36-0.69,4.2,2.99c-0.75,16.79,3.53,12.33-12.61,17.27
		c-16.1,4.94-32.55,7.11-49.23,2.49c-11.36-3.14-19.14-13.22-19.2-24.89C563.45,619.31,563.48,612.64,563.48,605.98z M606.02,580.7
		c-4.55-0.11-9.04,0.25-11.8,4.51c-3.46,5.34-3.91,11.41-3.62,17.58c0.11,2.31,1.32,2.01,2.99,1.53c5.85-1.67,11.75-3.17,17.61-4.81
		c3.05-0.85,5.12-2.9,6.22-5.84C620.43,585.56,616.18,580.73,606.02,580.7z"/>
	<path class="st0" d="M606.92,460.75c0-17.01,0.12-34.02-0.08-51.02c-0.06-4.59,0.95-6.68,6.1-6.49c9.97,0.36,19.96,0.19,29.94-0.01
		c3.64-0.07,4.78,1.24,4.77,4.83c-0.09,35.12-0.07,70.25,0.03,105.37c0.01,3.41-0.8,5.03-4.62,4.96
		c-10.53-0.2-21.08-0.17-31.61,0.03c-3.82,0.07-4.57-1.56-4.54-4.98c0.14-17.56,0.06-35.12,0.06-52.69
		C606.95,460.75,606.94,460.75,606.92,460.75z"/>
	<path class="st1" d="M656.08,605.97c0-6.67,0.18-13.34-0.08-19.99c-0.13-3.31,0.81-5.75,3.43-7.65
		c17.75-12.88,37.51-18.31,59.2-14.78c12.07,1.97,19.73,10.8,21.15,22.03c0.42,3.36-0.05,5.19-4.15,5.01
		c-7.02-0.3-14.07-0.13-21.1-0.09c-1.97,0.01-3.69,0-3.92-2.64c-0.48-5.5-4.48-6.83-9.01-7.05c-5.93-0.28-12.12-0.82-15.6,5.69
		c-1.68,3.15-2.46,6.59-2.5,10.15c-0.1,9.07-0.17,18.14-0.14,27.21c0.03,7.27,2.32,9.83,9.71,10.9c8.67,1.26,16.89-1.33,25.18-3.17
		c5.05-1.12,10.15-2.1,15.09-3.59c3.31-1,3.8,0.2,3.7,3.05c-0.64,16.87,3.51,12.35-12.5,17.34c-14.82,4.61-30,6.59-45.48,3.45
		c-14.99-3.04-22.93-12.73-22.97-28.09C656.06,617.82,656.08,611.89,656.08,605.97z"/>
	<path class="st1" d="M363.04,607.61c0-5.73-0.53-11.53,0.13-17.18c0.83-7.1-1.41-11.58-8.28-13.89c-2.37-0.8-4.39-2.02-4.41-5.49
		c-0.04-8.96-0.28-9.11,8.62-9.39c3.2-0.1,4.13-1.24,4-4.28c-0.2-4.8,0.01-9.61-0.08-14.42c-0.04-2.3,0.69-3.27,3.19-3.22
		c7.39,0.15,14.79,0.17,22.19,0.02c2.95-0.06,3.9,1.03,3.79,3.88c-0.17,4.43,0.15,8.89-0.11,13.31c-0.21,3.53,0.83,4.79,4.58,4.75
		c9.16-0.08,10.44,1.86,8.92,11.19c-0.52,3.19-3.19,3.68-5.19,4.21c-6.92,1.86-8.83,5.96-8.42,12.96
		c0.66,11.43,0.38,22.92,0.1,34.38c-0.14,5.6,2.1,9.02,7.45,9.83c3.27,0.5,4.39,1.99,4.5,4.98c0.08,2.4,0.38,4.79,0.57,7.18
		c0.57,7.49,0.57,7.48-6.83,7.28c-7.48-0.21-14.65-1.83-21.57-4.62c-8.66-3.5-13.01-9.98-13.09-19.29
		c-0.06-7.4-0.01-14.79-0.01-22.19C363.06,607.61,363.05,607.61,363.04,607.61z"/>
	<path class="st1" d="M554.9,633.31c0,3.07,0,5.63,0,8.2c0,10.48,0.01,10.52-10.45,12.67c-6.79,1.4-13.63,1.78-20.27-0.58
		c-10.49-3.73-17.72-10.93-17.93-22.29c-0.54-29.38-0.25-58.78-0.37-88.16c-0.01-2.78,1.2-3.42,3.7-3.38
		c6.84,0.12,13.69,0.31,20.51-0.04c4.22-0.22,5.27,1.15,5.24,5.28c-0.19,25.88-0.1,51.76-0.11,77.64c0,16.08,3.28,18.09,17.92,10.99
		C553.44,633.49,553.81,633.5,554.9,633.31z"/>
	<path class="st2" d="M75.73,409.59c-0.2,4.02-0.35,7.87-1.81,11.89c-2.35,6.46-7.31,9.81-12.96,10.7
		c-8.64,1.36-17.57,1.78-26.31-0.38c0.01-11.25,0.22-22.51-0.08-33.76c-0.13-4.97,1.7-6.37,6.45-6.22c9.58,0.3,19.19,0.3,28.77,0
		c4.74-0.15,6.23,1.66,5.92,6.15C75.44,401.82,75.7,405.71,75.73,409.59z"/>
	<path class="st2" d="M65.54,616.3c7.16,4.15,10.08,10.76,10.02,18.62c-0.06,6.72,1.22,13.54-0.95,20.17
		c-5.18,0.02-10.37,0.03-15.55,0.05c-3.33,0-6.67,0-10,0c-0.18-0.01-0.37-0.03-0.55-0.03c-13.83-0.26-13.82-0.26-13.84-13.98
		c-0.01-6.08-0.05-12.16-0.07-18.24c1.23-2.63-2.54-7.62,3.69-7.89c6.93-0.3,13.86-0.56,20.79-0.83
		C61.03,615.48,63.22,616.08,65.54,616.3z"/>
	<path class="st2" d="M290.1,392.55c1.26-0.1,2.57-0.02,3.78-0.33c3.04-0.79,4,0.47,3.98,3.37c-0.07,11.08-0.03,22.16-0.03,33.24
		c0,2.02-0.48,4.07-2.86,3.91c-9.6-0.64-19.46,2.38-28.78-2.71c-4.83-2.64-7.41-6.31-8.44-11.44c-0.04-0.8-0.07-1.6-0.11-2.4
		c0.05-4.21-0.12-8.43,0.22-12.62c0.32-3.9-1.45-8.02,1.15-11.69C269.37,392.29,279.71,393.53,290.1,392.55z"/>
	<path class="st2" d="M297.96,648.42c-0.39,4.49-2.56,6.06-7.27,5.83c-9.04-0.45-18.13-0.39-27.18-0.02
		c-4.79,0.19-6.12-1.54-5.78-6.03c0.34-4.6,0.1-9.24,0.06-13.87c-0.08-8.14,2.28-14.78,10.64-17.96c1.13-0.43,1.99-1.55,2.98-2.35
		c0.65,0.01,1.3,0.02,1.94,0.04c6.31,1.99,12.79,0.76,19.17,0.81c4.01,0.03,5.63,0.98,5.43,5.27c-0.31,6.82-0.04,13.67-0.01,20.51
		C297.94,643.24,297.95,645.83,297.96,648.42z"/>
	<path class="st0" d="M627.53,360.91c5.18-0.01,10.37,0.14,15.55-0.06c3.28-0.12,4.68,0.9,4.59,4.38c-0.19,7.4-0.17,14.81,0,22.21
		c0.08,3.25-1.28,4.11-4.29,4.08c-10.55-0.11-21.11-0.13-31.66,0.05c-3.22,0.05-4.92-0.92-4.95-4.24
		c-0.08-7.58-0.2-15.17-0.23-22.75c-0.01-2.8,1.61-3.76,4.33-3.7C616.42,361,621.97,360.91,627.53,360.91z"/>
	<path class="st2" d="M135.7,519.52c-7.39,0.01-14.78-0.12-22.17,0.06c-3.32,0.08-4.68-0.94-4.48-4.4
		c0.81-14.52,1.5-29.05,2.14-43.58c0.11-2.46,1.36-2.92,3.51-3.17c14.87-1.71,29.85-0.46,44.73-1.72c2.32-0.2,2.84,1.36,2.84,3.17
		c0.02,15.33,0,30.67-0.01,46c0,3.44-2.33,3.66-4.94,3.64C150.11,519.49,142.91,519.51,135.7,519.52z"/>
	<path class="st2" d="M135.7,528.38c7.39,0.01,14.79,0.14,22.18-0.05c3.39-0.09,4.49,1.11,4.46,4.48c-0.13,14.41-0.09,28.83,0,43.24
		c0.02,3.27-1.19,5-4.57,4.52c-13.23-1.87-26.54-0.72-39.81-1.01c-8.33-0.18-7.29-0.13-7.36-8.76c-0.08-8.98,0.46-18.11-0.84-27.02
		c-2.25-15.45-2.5-15.42,12.65-15.4C126.83,528.38,131.27,528.37,135.7,528.38z"/>
	<path class="st2" d="M197,519.51c-7.39,0-14.78-0.04-22.16,0.01c-3.17,0.02-4.18-0.7-4-4.52c0.65-13.62,0.52-27.26-0.52-40.9
		c-0.54-7.05-0.11-6.96,6.77-6.86c12.72,0.19,25.43,0.05,38.13,1.07c4.4,0.35,6.08,1.42,6.21,6.07c0.36,13.05,1.17,26.1,2.01,39.14
		c0.29,4.56-1.25,6.31-5.95,6.08C210.68,519.27,203.83,519.51,197,519.51z"/>
	<path class="st2" d="M170.23,566.68c-0.24-12.71,2.06-24.28,0.51-35.89c-0.32-2.38,1.11-2.39,2.63-2.39
		c15.51-0.02,31.03,0,46.54-0.06c2.67-0.01,3.78,1.19,3.47,3.7c-1.81,14.47-0.12,29.1-2.07,43.57c-0.29,2.12-1.27,2.68-3.2,2.92
		c-4.02,0.49-8,1.2-12.08,1c-9.97-0.49-19.88,0.69-29.81,1.17c-4.32,0.21-6.15-1.48-6.01-5.72
		C170.32,571.85,170.23,568.71,170.23,566.68z"/>
	<path class="st0" d="M215.71,625.19c-15.06,2.57-30.25,3.33-45.5,3.17c0.03-11.84,0.12-23.69,0.06-35.53
		c-0.02-3.11,0.8-4.53,4.32-4.77c13.84-0.95,27.77-0.08,41.56-1.88c3.64-0.48,4.5,1.32,4.14,4.56c-0.53,4.77-0.86,9.57-1.27,14.36
		c-2.36,6.46-2.14,13.34-3.23,20.01L215.71,625.19z"/>
	<path class="st0" d="M170.07,419.41c7.71-1.92,15.42-0.51,23.11,0.12c6.26,0.51,12.5,1.21,18.75,1.76c2.29,0.2,3.72,0.98,4.02,3.58
		c1.28,11,2.71,21.98,4.06,32.97c0.42,3.37-2.09,2.94-4.02,2.85c-7.75-0.36-15.5-0.86-23.25-1.25c-5.35-0.27-10.72-0.76-16.05-0.55
		c-4.65,0.18-6.4-1.5-5.91-6.07c0.19-1.78,0.41-3.71-0.65-5.41C170.1,438.06,170.09,428.73,170.07,419.41z"/>
	<path class="st0" d="M103.81,470.64c-1.44,14.35-2.59,28.72-2.31,43.16c0.08,3.85-1.18,5.13-5.04,5.14
		c-9.98,0.02-19.99-0.6-29.94,0.6c-4.7,0.57-5.44-1.58-5.47-5.7c-0.07-12.6,2.53-25.01,2.41-37.6c0.19-0.26,0.25-0.55,0.17-0.87
		c0.34-0.43,0.68-0.86,1.02-1.29c0,0,0.01,0,0.01,0c12.91-1.46,25.82-2.91,38.73-4.37C103.48,470.04,103.62,470.35,103.81,470.64z"
		/>
	<path class="st2" d="M266.87,463.57c0.73,4.11-0.82,5.01-4.55,3.86c-9.79-3.03-20.08-1.94-30.09-3.33c-3.3-0.46-6.37-1.31-6.3-4.73
		c0.2-10.76-3.74-20.97-3.67-31.71c0.03-3.98,0.97-5.46,5.07-4.43c9.1,2.28,18.26,4.31,27.36,6.61c1.82,0.46,3.8,0.75,4.64,3.28
		C262.65,443.12,264.69,453.4,266.87,463.57z"/>
	<path class="st2" d="M109.98,427.75c-1.54,10.58-3.97,21.17-4.39,32.04c-0.06,1.67-0.94,2.76-2.67,3
		c-11.43,1.58-22.87,3.07-34.28,4.79c-2.68,0.4-3.42-0.55-2.99-2.86c1.99-10.64,4.09-21.25,7.52-31.56
		c0.75-2.24,2.38-2.73,4.08-3.16c9.44-2.36,18.91-4.61,28.38-6.87C109.56,422.19,110.81,423.97,109.98,427.75z"/>
	<path class="st2" d="M110.23,620.31c0.42,3.08-1.14,4.11-3.91,3.7c-10.58-1.57-20.85-4.38-31.01-7.68
		c-1.65-0.54-2.35-1.81-2.69-3.24c-2.34-9.66-4.64-19.32-6.87-29.01c-0.87-3.8,0.99-5.18,4.56-4.46c9.92,1.98,19.92,3.45,29.96,4.67
		c3.02,0.37,5.4,1.38,5.53,5.48c0.29,9.39,1.97,18.64,3.9,27.83C109.9,618.5,110.06,619.41,110.23,620.31z"/>
	<path class="st2" d="M261.51,579.84c5.13-0.95,5.9,1.27,5.22,4.29c-2.19,9.69-4.51,19.34-6.83,29c-0.47,1.96-1.94,2.63-3.84,3.4
		c-9.62,3.91-20.05,4.67-29.81,8.07c-4.36,1.52-4.26-2.42-3.81-5.12c1.25-7.62,2.59-15.21,3.76-22.85
		c1.72-11.22,2.02-11.27,13.19-13.29C247.16,581.95,254.99,580.87,261.51,579.84z"/>
	<path class="st0" d="M299.05,482.89c0.69,10.27,2.5,20.43,2.56,30.77c0.03,4.66-0.83,6.85-6.01,6.27
		c-4.56-0.51-9.21-0.4-13.81-0.26c-3.57,0.11-4.88-1.3-4.87-4.86c0.01-11.42-0.51-22.84-2.32-34.14c-0.61-3.82,1.04-4.96,4.47-4.62
		c0.38,0.05,0.75,0.1,1.13,0.14c6.2,1.96,12.41,3.91,18.61,5.87C298.77,482.38,298.85,482.66,299.05,482.89z"/>
	<path class="st0" d="M267.72,600.61c2.31-6.85,3.47-13.95,4.64-21.06c7.91-4.43,16.72-5.86,25.42-7.68c0,0,0.01-0.02,0.01-0.02
		c-0.18,10.83-0.6,21.66-0.41,32.48c0.07,4.08-1.28,5.03-5,5.04c-8,0.03-16.1-1.08-23.79,2.65c-4.25,2.05-2.28-2.11-2.94-3.6
		c0,0,0.01-0.03,0.01-0.03C267.24,606.04,268.15,603.5,267.72,600.61z"/>
	<path class="st0" d="M67.79,612.7c-9.52-3.21-19.31-4.04-29.28-3.43c-2.53,0.16-3.08-1.46-3.08-3.56c0-10.14-0.05-20.28,0.01-30.42
		c0.01-1.51-0.24-3.94,2.4-3.22c7.08,1.92,14.08,4.12,21.09,6.27c0.45,0.14,0.73,0.8,1.1,1.22
		C61.98,590.76,64.84,601.74,67.79,612.7z"/>
	<path class="st0" d="M78.98,416.12c3.88-4.95,1.82-10.67,1.72-15.99c-0.13-7.38-0.51-7.38,6.99-7.39c7.76,0,15.51,0,23.27,0
		c7.85,0,7.9,0.01,5.38,7.7c-1.78,5.44-3.31,10.94-4.19,16.6c0,0,0.03,0.05,0.03,0.05c-10.42,1.32-20.57,3.87-30.69,6.61
		c-1.5,0.41-3.84,2.61-4.9-0.83c0.21-0.32,0.29-0.67,0.25-1.05c1.69-1.51,2.24-3.44,2.1-5.63L78.98,416.12z"/>
	<path class="st0" d="M61.27,462.9c-0.75,5.32-4.24,7.4-9.17,8.3c-4.15,0.76-8.3,1.83-12.24,3.31c-3.91,1.47-4.49-0.3-4.47-3.48
		c0.06-10.87,0.07-21.75,0.09-32.62c0,0,0.24-0.13,0.24-0.13c5.27,0.04,10.55,0.1,15.82,0.1c2.69,0,5.53,0.41,7.54-2.1c0,0,0,0,0,0
		c1.87,0.01,3.39-0.68,4.52-2.19c3.89-0.24,3.33,1.93,2.73,4.58C64.54,446.73,62.95,454.82,61.27,462.9z"/>
	<path class="st0" d="M254.57,628.43c-3.84,4.11-2.82,9.26-2.88,14.12c-0.15,11.68-0.09,11.69-11.64,11.72
		c-7.18,0.02-14.36-0.07-21.53,0.03c-3.15,0.04-4.34-0.67-3.14-4.14c1.55-4.49,2.74-9.14,3.65-13.8c0.63-3.25,2.43-5.59,4.49-7.9
		c6.93,0.5,13.44-1.4,19.92-3.48c2.41,0.22,4.68-0.27,6.85-1.33c4.19-2.05,5.31-0.27,4.62,3.73
		C254.63,627.69,254.52,628.04,254.57,628.43z"/>
	<path class="st0" d="M82.28,622.94c7.45,3.89,15.72,4.85,23.78,6.29c4,0.71,6.2,1.81,6.97,6.15c0.92,5.23,2.68,10.34,4.28,15.43
		c0.79,2.5,0.11,3.41-2.42,3.41c-10.17-0.02-20.33-0.03-30.5,0.04c-2.74,0.02-3.47-1.35-3.44-3.79c0.06-4.44,0.01-8.87-0.03-13.31
		c-0.01-2.01,0.3-4.15-1.86-5.44c0,0,0,0.01,0,0.01c0.19-2.52-0.57-4.71-2.3-6.55c-0.07-0.8-0.15-1.59-0.22-2.39
		c1.58-0.01,3.16-0.02,4.74-0.03C81.61,622.95,81.93,623.01,82.28,622.94z"/>
	<path class="st0" d="M836.53,517.21c-12.01,1-24.05,0.12-36.07,0.5c-4.42,0.14-3.94-2.76-3.94-5.56c0.01-28.33,0-56.65,0.01-84.98
		c0-5,0.24-10.01-0.05-14.99c-0.21-3.55,1.44-5.39,4.28-6.89c18.83-9.95,38.71-14.36,59.94-11.13c7.86,1.2,15.53,3.41,22.62,7.1
		c3.61,1.88,6.48,1.82,10.34,0.06c21.53-9.82,43.2-11.38,65.25-0.86c11.39,5.43,17.88,13.88,19.78,26.09
		c0.6,3.82,1.11,7.71,1.13,11.57c0.1,24.62-0.07,49.25,0.17,73.87c0.05,4.86-1.74,5.93-6.14,5.8c-9.06-0.28-18.15-0.36-27.21-0.03
		c-4.94,0.18-6.66-1.09-6.6-6.42c0.29-25.73,0.17-51.47,0.1-77.2c-0.03-12.11-9.67-18.7-21.18-14.61c-1.74,0.62-3.39,1.48-5.13,2.11
		c-4.39,1.59-5.99,4.44-5.95,9.29c0.23,27.03,0.03,54.06,0.18,81.09c0.02,4.2-0.92,5.93-5.52,5.76c-9.24-0.35-18.52-0.32-27.76-0.01
		c-4.78,0.16-6.41-1.22-6.36-6.23c0.24-25.36,0.1-50.73,0.1-76.09c0-13.68-5.34-18.71-19.09-17.98c-1.1,0.06-2.21,0.21-3.3,0.4
		c-10.61,1.86-10.86,1.88-10.41,12.75C836.89,459.48,836.07,488.35,836.53,517.21C836.53,517.21,836.53,517.21,836.53,517.21z"/>
	<path class="st0" d="M781.69,457.23c0.35,9.46-0.17,18.32,0.65,27.21c0.94,10.25-5.9,16.14-13.79,20.28
		c-21.07,11.06-43.55,16.66-67.43,13.83c-23.87-2.83-38.65-12.4-40.18-42.55c-0.78-15.33-0.09-30.73-0.17-46.09
		c-0.05-9.54,4.6-16.35,12.63-20.6c18.56-9.8,38.19-15.79,59.45-15.47c9.17,0.14,18.1,1.7,26.62,4.86
		c14.39,5.34,20.04,17.23,21.96,31.4C782.66,439.31,782.41,448.57,781.69,457.23z M744.68,461.2c-0.06,0-0.11,0-0.17,0
		c0-6.85,0.2-13.7-0.04-20.54c-0.43-12.07-5.03-18.76-14.93-21.31c-8.14-2.1-16.26-0.91-23.88,2.31c-4.54,1.92-6.97,5.82-6.95,11.03
		c0.05,12.96-0.13,25.91,0.07,38.87c0.19,11.82,7.12,19.97,18.63,22.15c5.88,1.11,11.83,0.91,17.61-0.7
		c6.98-1.94,9.63-5.61,9.66-12.92C744.7,473.79,744.68,467.49,744.68,461.2z"/>
	<path class="st0" d="M552.44,497.23c-1.64-7.29-4.6-14.02-8.56-20.33c-1.55-4.95-3.19-11.67-7.61-12.61
		c-3.56-0.76-5.51,6.44-7.71,10.28c-7.01,12.21-12.3,25.21-15.8,38.86c-0.77,3.01-1.86,4.34-5.11,4.29
		c-10.73-0.16-21.46-0.18-32.19-0.02c-3.82,0.06-4.42-1.29-3.17-4.6c8.99-23.8,19.73-46.61,37.62-65.24
		c3.11-3.24,3.45-5.94,1.35-9.76c-6.3-11.43-13.36-21.84-27.56-24.21c-2.42-0.4-2.71-2.13-2.69-4.12c0.03-2.96,0.01-5.92,0.01-8.88
		c0.01-7.24,0.89-8.26,8.27-7.91c12.61,0.59,22.88,6.57,31.93,14.84c3.81,3.48,7.5,7.18,10.71,11.21c2.75,3.47,4.37,3.06,6.92-0.14
		c8.28-10.41,18-19.08,30.77-23.67c4.54-1.63,9.23-2.65,14.11-2.19c1.1,0.1,2.39,0.13,3.22,0.71c5.88,4.09,1.82,10.19,2.87,15.28
		c0.64,3.13-1.36,4.43-4.39,5.11c-15.08,3.38-21.82,15.33-27.74,27.85c-1.22,2.58,1.25,4.25,3.37,5.49
		c16.59,18.98,28.01,40.9,36.9,64.31c1.61,4.23,1.29,6.06-3.8,5.95c-10.16-0.23-20.33-0.2-30.48,0c-3.69,0.07-5.2-1.4-6.01-4.85
		C556.41,507.53,555.47,502.02,552.44,497.23z"/>
	<path class="st0" d="M61.33,527.39c11.47,0.26,22.93,0.66,34.4,0.71c4.13,0.02,5.98,1.02,5.8,5.62c-0.51,12.77,0.64,25.5,1.85,38.2
		c0.41,4.3-0.45,6.01-5.38,5.19c-8.55-1.43-17.22-2.12-25.85-3.05c-7.72-0.84-8.19-1.5-8.85-9.03c-1.1-12.52-2.65-25.01-1.99-37.63
		C61.32,527.4,61.33,527.39,61.33,527.39z"/>
	<path class="st0" d="M42.85,527.32c12.42,0.16,12.41,0.16,12.85,12.82c0.31,8.84,0.82,17.68,2.17,26.43
		c0.54,3.51-0.55,4.94-4.11,4.09c-5.37-1.29-10.74-2.6-16.11-3.89c-2.63-0.63-4-2.16-4.27-4.99c-0.89-9.35-1.83-18.71-2.99-28.03
		c-0.64-5.13,1.2-7.19,6.37-6.47C38.76,527.55,40.82,527.32,42.85,527.32z"/>
	<path class="st0" d="M267.87,474.07c2.56,13.27,3.08,26.71,3.54,40.17c0.14,4.22-1.24,5.45-5.34,5.31
		c-10.5-0.35-21.01-0.45-31.52-0.41c-3.93,0.01-3.34-2.61-3.43-4.9c-0.43-11.06-0.78-22.12-1.19-33.18
		c-0.44-11.82-0.45-11.8,11.6-10.28c8.77,1.11,17.55,2.18,26.32,3.27C267.85,474.06,267.87,474.07,267.87,474.07z"/>
	<path class="st0" d="M267.85,447.39c0.46-3.46-1.08-6.5-1.99-9.68c-0.66-2.32-0.05-4.02,2.61-2.53c7.56,4.26,15.77,3.24,23.83,3.17
		c3.5-0.03,4.97,0.93,4.9,4.66c-0.19,9.43-0.11,18.88-0.02,28.32c0.03,3.18-0.82,4.38-4.25,3.29c-5.28-1.68-10.65-3.09-16.05-4.33
		c-3.02-0.69-4.15-2.36-4.66-5.27c-1.05-5.96-1.53-12.08-4.36-17.61C267.86,447.41,267.85,447.39,267.85,447.39z"/>
	<path class="st0" d="M181.09,388.54c5.2,0.52,13.26,1.38,21.34,2.13c4.39,0.41,6.92,2.48,7.72,7c0.77,4.35,2.02,8.61,3.16,12.89
		c0.96,3.6-0.04,5.33-4,4.8c-11.71-1.57-23.49-2.25-35.31-2.42c-2.8-0.04-3.95-1.25-3.9-4.06c0.09-4.24-0.08-8.49-0.09-12.74
		C169.98,388.14,169.99,388.14,181.09,388.54z"/>
	<path class="st0" d="M256.54,425.14c-12.21-3.13-22.67-6.05-33.39-7.78c-2.54-0.41-3.08-2.33-3.61-4.33
		c-1.43-5.34-2.68-10.73-4.35-16c-1.06-3.35,0.01-4.32,3.23-4.3c9.61,0.08,19.22,0.14,28.82-0.03c3.55-0.06,4.49,1.6,4.38,4.7
		C251.3,406.48,251.43,415.49,256.54,425.14z"/>
	<path class="st0" d="M161.6,617.23c0.6,11.52,0.59,11.69-11.23,11.11c-9.57-0.48-19.11-1.48-28.67-2.15
		c-3.24-0.23-4.86-1.48-5.25-4.98c-1.12-10.06-2.63-20.09-3.95-30.13c-0.37-2.81-0.39-4.94,3.79-4.67
		c13.24,0.87,26.5,1.57,39.77,1.85c4.43,0.09,5.76,1.51,5.62,5.75C161.42,601.74,161.6,609.49,161.6,617.23z"/>
	<path class="st0" d="M162.49,645.96c0.2,13.07,0.19,13.26-11.22,12.57c-7.9-0.47-15.77-1.55-23.66-2.35
		c-2.01-0.21-3.54-1.1-4.09-3.15c-1.52-5.69-3.05-11.38-4.46-17.1c-0.71-2.87-0.04-4.77,3.54-4.16c11.13,1.91,22.39,2.3,33.64,2.48
		c5.05,0.08,6.86,2.28,6.29,7.11C162.29,643.37,162.49,645.42,162.49,645.96z"/>
	<path class="st0" d="M116.86,421.84c13.36-1.6,26.73-3.09,40.22-3.34c3.67-0.07,5.33,0.79,5.22,4.84
		c-0.28,10.33-0.24,20.67-0.21,31.01c0.01,2.86-0.64,4.34-3.96,4.45c-13.63,0.48-27.27,1.09-40.88,1.96c-4.62,0.3-5.23-1.64-4.7-5.5
		C114.09,444.15,115.43,432.99,116.86,421.84C116.85,421.85,116.86,421.84,116.86,421.84z"/>
	<path class="st0" d="M162.61,400.47c-0.24,12.52-0.24,12.52-12.81,12.69c-8.5,0.11-16.93,1.06-25.36,2.02
		c-5.56,0.63-6.2-0.2-4.96-5.69c0.45-1.98,1.02-3.93,1.53-5.89c3.77-14.69,1.2-11.25,15.11-13.66c6.69-1.16,13.62-0.86,20.39-1.62
		c4.93-0.55,6.87,1.1,6.15,6.07C162.37,396.38,162.61,398.44,162.61,400.47z"/>
	<path class="st0" d="M42.66,519.69c-12.45,0.24-12.52,0.23-11.48-12.39c0.56-6.81,1.55-13.58,2.06-20.4
		c0.27-3.68,1.73-5.69,5.44-6.49c5.04-1.09,9.98-2.68,14.99-3.97c3.38-0.87,4.9,0.32,4.27,3.98c-1.91,10.95-2.14,22.08-2.68,33.13
		c-0.27,5.52-2.47,6.58-7.05,6.17C46.37,519.55,44.51,519.69,42.66,519.69z"/>
	<path class="st0" d="M170.01,646.97c0.17-12.53,0.17-12.65,12.81-12.89c8.87-0.17,17.68-0.75,26.43-2.19
		c2.86-0.47,4.28-0.23,4.08,3.48c-0.32,6.17-3.21,11.56-4.36,17.45c-0.46,2.33-2.22,3.21-4.46,3.42
		c-9.35,0.88-18.62,2.44-28.07,2.63c-4.96,0.1-7.28-1.11-6.48-6.37C170.25,650.7,170.01,648.81,170.01,646.97z"/>
	<path class="st0" d="M271.52,538.03c-0.85,10.12-1.72,20.24-2.55,30.36c-0.24,2.96-1.47,4.63-4.71,5
		c-10.63,1.2-21.24,2.61-31.86,3.96c-2.96,0.37-3.32-1.27-3.2-3.71c0.68-13.47,1.42-26.94,1.81-40.42c0.11-3.88,1.39-5.1,5.2-5.09
		c9.24,0.02,18.48-0.39,27.72-0.57c7.44-0.14,7.44-0.1,7.38,7.12c-0.01,1.11,0,2.22,0,3.33
		C271.37,538.01,271.44,538.02,271.52,538.03z"/>
	<path class="st0" d="M298.57,565.86c-6.79,1.66-13.62,3.18-20.35,5.04c-3.17,0.88-4.12-0.1-3.67-3.06
		c1.82-12.06,2.28-24.2,2.48-36.37c0.05-3.01,1.53-4.19,4.55-4.11c4.79,0.14,9.61,0.24,14.38-0.11c4.29-0.32,5.7,0.96,5.67,5.49
		c-0.08,11.11-1.59,22.04-2.98,33.01C298.65,565.75,298.57,565.86,298.57,565.86z"/>
</g>
</svg>
