<?xml version="1.0" encoding="utf-8"?>
<!-- Generator: Adobe Illustrator 25.3.1, SVG Export Plug-In . SVG Version: 6.00 Build 0)  -->
<svg version="1.1" id="Layer_1" xmlns="http://www.w3.org/2000/svg" xmlns:xlink="http://www.w3.org/1999/xlink" x="0px" y="0px"
	 viewBox="0 0 700 700" enable-background="new 0 0 700 700" width="700" height="700" xml:space="preserve">
<g>
	<path fill="#582700" d="M167.034,307.499c1.784-1.13,3.176-2.03,4.586-2.901c6.674-4.127,13.549-7.831,21.148-10.004
		c11.711-3.349,22.971-2.079,33.659,3.625c10.295,5.495,16.337,14.166,17.817,25.744c1.037,8.114,0.228,16.128-2.871,23.785
		c-3.114,7.695-8.104,13.981-15.006,18.558c-14.505,9.619-30.256,12.705-47.076,7.649c-12.386-3.724-20.215-12.102-23.006-24.909
		c-0.945-4.338-0.812-8.752-0.787-13.142c0.058-10.155,0.26-20.31,0.347-30.465c0.086-10.078-0.129-20.146-1.058-30.193
		c-0.787-8.516-1.445-17.045-2.158-25.568c-0.279-3.336-0.028-2.744,2.441-3.04c3.584-0.43,7.185-0.381,10.781-0.426
		c1.832-0.023,1.895,0.042,1.86,1.843c-0.138,7.195-0.345,14.388-0.477,21.583c-0.221,11.994-0.368,23.99-0.201,35.987
		C167.04,306.102,167.034,306.58,167.034,307.499z"/>
	<path fill="#582700" d="M347.087,307.498c2.06-1.301,3.723-2.382,5.416-3.414c6.911-4.21,14.031-7.965,21.957-9.924
		c11.738-2.9,22.889-1.266,33.283,4.79c10.359,6.035,15.836,15.256,16.736,27.192c0.455,6.028-0.011,11.982-1.735,17.797
		c-2.586,8.719-7.462,15.953-14.813,21.26c-14.289,10.317-30.144,13.684-47.264,9.173c-11.467-3.021-19.606-10.114-23.367-21.668
		c-1.044-3.207-1.623-6.516-1.68-9.89c-0.205-12.156,0-24.309,0.297-36.463c0.203-8.316,0.054-16.635-0.615-24.933
		c-0.841-10.439-1.734-20.873-2.601-31.309c-0.04-0.478-0.059-0.959-0.066-1.438c-0.027-1.72-0.023-1.713,1.605-1.935
		c3.896-0.531,7.819-0.492,11.736-0.522c1.804-0.014,1.875,0.054,1.837,1.899c-0.146,7.115-0.343,14.229-0.515,21.343
		C346.995,281.999,346.984,294.545,347.087,307.498z"/>
	<path fill="#582700" d="M430.911,334.716c0.191-18.366,10.315-32.38,27.891-38.821c8.459-3.1,17.205-4.006,26.177-3.198
		c8.041,0.724,15.749,2.567,22.893,6.398c10.628,5.698,17.886,14.127,20.277,26.151c3.233,16.254-1.73,29.664-14.742,39.913
		c-8.181,6.444-17.701,9.711-28.003,10.795c-9.102,0.958-18.059,0.245-26.695-2.865c-15.573-5.609-24.757-16.646-27.427-33.01
		C430.975,338.195,431.01,336.256,430.911,334.716z"/>
	<path fill="#582700" d="M304.629,374.081c0.269-2.027,0.489-3.679,0.716-5.384c-0.958-0.166-1.581,0.406-2.254,0.715
		c-6.412,2.945-13.029,5.236-20.029,6.294c-6.303,0.952-12.558,0.877-18.785-0.716c-18.265-4.673-20.865-25.01-12.582-35.961
		c4.336-5.733,10.118-9.16,16.917-11.067c6.806-1.909,13.75-1.835,20.704-1.285c4.697,0.371,9.388,0.841,14.032,1.69
		c0.382,0.07,0.788,0.009,1.304,0.009c0.434-2.878-0.019-5.73-0.334-8.551c-0.765-6.851-3.446-12.826-9.015-17.115
		c-5.458-4.203-11.599-5.853-18.466-4.2c-3.977,0.958-6.373,3.216-6.404,7.463c-0.01,1.336-0.599,1.595-1.751,1.551
		c-0.912-0.035-1.349-0.322-1.208-1.277c0.55-3.73,0.248-7.462-0.169-11.092c0.317-0.175,0.458-0.324,0.581-0.31
		c6.549,0.727,13.096-0.258,19.643-0.024c4.407,0.158,8.734,0.794,12.925,2.257c9.076,3.169,14.204,9.626,15.956,18.956
		c0.46,2.449,0.596,4.913,0.595,7.395c-0.003,14.391-0.002,28.783-0.002,43.174c0,0.4-0.002,0.8,0,1.199
		c0.014,2.248,0.015,2.233,2.152,2.321c3.034,0.125,6.068,0.262,9.1,0.419c1.895,0.098,1.894,0.119,1.808,2.153
		c-0.059,1.393-0.061,1.427-2.047,1.315c-1.674-0.095-3.341-0.313-5.015-0.421c-4.634-0.299-9.261-0.339-13.883,0.258
		C307.711,374.028,306.278,374.001,304.629,374.081z"/>
	<path fill="#582800" d="M99.76,453.231c-3.56,0.029-7.002-0.587-10.275-1.998c-9.703-4.185-13.335-13.346-12.385-21.951
		c1.147-10.391,8.757-16.54,17.665-18.264c5.288-1.023,10.502-0.655,15.553,1.319c8.097,3.165,13.475,10.541,13.403,18.968
		c-0.076,8.947-4.151,15.589-12.333,19.487C107.724,452.539,103.809,453.245,99.76,453.231z"/>
	<path fill="#582800" d="M25.823,430.463c0.907,0.811,2.024,0.716,2.989,1.039c5.269,1.763,7.799,6.282,6.42,11.676
		c-1.338,5.232-4.884,8.054-10.041,9.024c-2.839,0.534-5.724,0.666-8.594,0.378c-2.878-0.289-5.738-0.313-8.607-0.004
		c-0.397,0.043-0.797,0.063-1.196,0.069c-0.427,0.006-0.788-0.112-0.847-0.617c-0.067-0.576,0.212-0.923,0.767-0.996
		c0.632-0.083,1.271-0.114,1.908-0.158c1.756-0.122,1.817-0.117,1.889-1.944c0.116-2.953,0.198-5.909,0.197-8.864
		c-0.002-6.551-0.034-13.102-0.121-19.652c-0.027-1.993-0.32-3.98-0.402-5.974c-0.042-1.032-0.523-1.413-1.474-1.428
		c-0.798-0.012-1.597-0.044-2.394-0.087c-0.371-0.02-0.541-0.26-0.567-0.621c-0.032-0.438,0.081-0.823,0.569-0.859
		c0.635-0.047,1.279-0.036,1.915,0.007c3.359,0.225,6.695,0.089,10.04-0.335c2.97-0.377,5.901-0.024,8.68,1.181
		c3.601,1.561,5.796,4.25,6.051,8.208c0.243,3.776-1.517,6.597-4.709,8.549C27.502,429.539,26.68,429.976,25.823,430.463z"/>
	<path fill="#582800" d="M315.778,421.513c0,1.719-0.006,3.437,0.001,5.156c0.026,6.552-0.159,13.111,0.604,19.641
		c0.046,0.397,0.057,0.798,0.111,1.194c0.426,3.11,0.428,3.111,3.625,3.518c0.238,0.03,0.484,0.009,0.716,0.06
		c0.432,0.096,0.701,0.359,0.671,0.834c-0.029,0.467-0.29,0.723-0.758,0.728c-0.399,0.004-0.802,0.005-1.197-0.046
		c-2.951-0.379-5.901-0.322-8.851,0.004c-0.396,0.044-0.798,0.042-1.197,0.044c-0.458,0.002-0.751-0.188-0.761-0.695
		c-0.008-0.44,0.113-0.798,0.603-0.863c0.633-0.085,1.277-0.224,1.905-0.178c1.262,0.091,1.624-0.527,1.765-1.678
		c0.528-4.292,0.629-8.605,0.757-12.918c0.236-7.913,0.116-15.823-0.278-23.73c-0.016-0.319-0.065-0.645-0.018-0.956
		c0.125-0.826,0.707-0.769,1.245-0.508c0.251,0.122,0.393,0.482,0.57,0.744c7.029,10.377,15.713,19.336,24.318,28.361
		c1.697,1.78,3.488,3.47,5.219,5.185c0.456-0.148,0.374-0.499,0.374-0.795c-0.009-7.995,0.006-15.99-0.056-23.984
		c-0.014-1.831-0.288-3.661-0.458-5.49c-0.115-1.235-0.59-2.101-2.046-2.041c-0.633,0.026-1.272-0.098-1.909-0.152
		c-0.449-0.038-0.727-0.23-0.75-0.728c-0.032-0.666,0.373-0.793,0.906-0.791c0.08,0,0.16,0.004,0.24,0.009
		c3.196,0.196,6.391,0.175,9.587-0.005c0.505-0.029,1.193-0.233,1.293,0.62c0.121,1.028-0.66,0.854-1.268,0.937
		c-2.315,0.315-2.336,0.318-2.615,2.518c-0.533,4.203-0.973,8.418-0.975,12.66c-0.003,7.994,0.039,15.988,0.062,23.982
		c0.002,0.532,0.305,1.186-0.34,1.506c-0.798,0.397-1.118-0.378-1.521-0.806c-9.265-9.833-18.528-19.668-27.553-29.724
		c-0.515-0.573-1.031-1.145-1.547-1.717C316.093,421.443,315.935,421.478,315.778,421.513z"/>
	<path fill="#582800" d="M260.652,450.722c-1.012-3.932-2.484-7.377-3.958-10.823c-0.325-0.759-0.816-1.049-1.642-1.073
		c-4.558-0.131-9.114-0.157-13.673-0.013c-0.852,0.027-1.317,0.384-1.608,1.129c-1.36,3.482-2.469,7.038-3.393,10.779
		c1.357,0.123,2.545,0.215,3.73,0.344c0.568,0.062,0.839,0.426,0.739,0.996c-0.084,0.481-0.446,0.612-0.884,0.591
		c-0.719-0.035-1.44-0.045-2.155-0.119c-2.635-0.272-5.267-0.276-7.901,0.005c-0.555,0.059-1.116,0.08-1.674,0.075
		c-0.368-0.004-0.559-0.262-0.571-0.618c-0.011-0.311-0.03-0.672,0.33-0.806c0.294-0.11,0.633-0.214,0.932-0.175
		c2.145,0.279,3.085-1.126,4.025-2.695c4.075-6.801,7.271-14.03,10.415-21.282c2.127-4.906,4.126-9.866,5.884-14.919
		c0.201-0.577,0.332-1.209,0.786-1.563c0.706,0.022,0.721,0.513,0.816,0.85c3.065,10.864,7.534,21.19,12.034,31.505
		c0.893,2.048,1.879,4.058,2.738,6.12c0.506,1.214,1.116,2.088,2.619,1.873c0.372-0.053,0.796,0.072,1.163,0.207
		c0.46,0.17,0.444,0.603,0.39,1.01c-0.052,0.393-0.333,0.499-0.675,0.504c-0.239,0.003-0.481,0.006-0.718-0.022
		c-3.512-0.406-7.024-0.304-10.535,0.012c-0.08,0.007-0.16,0.019-0.239,0.013c-0.513-0.038-1.199,0.237-1.28-0.636
		c-0.088-0.948,0.629-0.964,1.265-1.026C258.56,450.876,259.512,450.812,260.652,450.722z"/>
	<path fill="#582800" d="M540.781,410.519c0.321,1.112,0.614,2.234,0.967,3.337c3.928,12.254,9.012,24.042,14.376,35.718
		c0.423,0.921,0.957,1.417,1.99,1.296c0.234-0.027,0.479,0.015,0.717,0.047c0.637,0.084,1.383,0.106,1.294,1.029
		c-0.097,1.006-0.916,0.702-1.481,0.643c-3.514-0.368-7.022-0.296-10.533,0.028c-0.238,0.022-0.479,0.016-0.719,0.027
		c-0.442,0.02-0.794-0.113-0.882-0.593c-0.108-0.587,0.208-0.934,0.748-1.001c1.103-0.137,2.213-0.213,3.293-0.312
		c0.303-0.728-0.014-1.301-0.195-1.894c-0.887-2.904-2.064-5.696-3.223-8.498c-0.409-0.988-0.915-1.516-2.095-1.539
		c-4.397-0.085-8.791-0.132-13.188,0c-0.875,0.026-1.503,0.218-1.86,1.131c-1.361,3.481-2.444,7.042-3.419,10.788
		c1.296,0.112,2.402,0.203,3.507,0.306c0.502,0.047,0.938,0.17,0.941,0.822c0.004,0.84-0.556,0.839-1.14,0.788
		c-3.669-0.319-7.338-0.459-11.008-0.009c-0.559,0.069-0.927-0.12-0.933-0.757c-0.004-0.472,0.211-0.742,0.68-0.805
		c0.079-0.011,0.161-0.041,0.237-0.03c2.604,0.386,3.61-1.466,4.667-3.292c4.811-8.31,8.605-17.099,12.243-25.96
		c1.333-3.245,2.53-6.546,3.785-9.823C539.767,411.402,539.759,410.681,540.781,410.519z"/>
	<path fill="#582800" d="M668.672,447.938c0-1.039,0.002-2.078-0.001-3.117c-0.001-0.46,0.165-0.764,0.676-0.754
		c0.444,0.008,0.761,0.18,0.803,0.672c0.034,0.398,0.089,0.796,0.093,1.195c0.009,0.894,0.441,1.467,1.215,1.895
		c2.737,1.514,5.532,2.86,8.671,3.317c6.691,0.974,11.956-4.696,10.288-11.034c-0.598-2.273-2.031-3.731-4.084-4.709
		c-1.963-0.936-4.071-1.388-6.163-1.893c-1.784-0.432-3.572-0.859-5.259-1.597c-6.642-2.904-8.4-10.936-3.615-16.597
		c2.568-3.038,5.956-4.493,9.856-4.779c3.285-0.241,6.54,0.289,9.805,0.548c0.921,0.073,1.436,0.415,1.351,1.509
		c-0.112,1.43-0.042,2.875-0.03,4.314c0.004,0.533-0.091,0.943-0.737,0.965c-0.578,0.02-0.982-0.273-0.948-0.822
		c0.108-1.746-1.165-2.241-2.392-2.861c-2.918-1.475-5.89-2.48-9.199-1.441c-3.634,1.141-5.789,3.84-5.98,7.519
		c-0.208,4.006,1.316,6.404,5.12,8.016c2.36,1,4.866,1.523,7.328,2.19c0.154,0.042,0.31,0.078,0.465,0.117
		c6.654,1.681,8.849,4.236,8.831,10.278c-0.018,5.934-3.501,10.369-9.249,11.818c-2.599,0.655-5.23,0.649-7.863,0.399
		c-2.623-0.249-5.234-0.631-7.855-0.906c-1.044-0.11-1.654-0.338-1.271-1.622c0.246-0.823,0.172-1.741,0.241-2.617
		C668.735,447.94,668.703,447.939,668.672,447.938z"/>
	<path fill="#582800" d="M479.935,447.066c0.437,1.213,0.275,2.02-0.89,2.668c-6.14,3.417-12.673,4.53-19.441,2.744
		c-7.484-1.974-11.582-7.308-13.046-14.734c-0.785-3.981-0.492-7.991,0.556-11.885c2.243-8.333,7.867-13.102,16.193-14.796
		c4.522-0.92,9.069-0.69,13.59,0.107c1.693,0.299,1.651,0.339,1.497,2.173c-0.12,1.432-0.136,2.873-0.206,4.31
		c-0.024,0.483-0.029,0.977-0.74,0.964c-0.644-0.012-0.774-0.411-0.814-0.935c-0.036-0.478-0.098-0.954-0.162-1.429
		c-0.067-0.499-0.269-0.907-0.767-1.126c-3.675-1.617-7.382-3.062-11.533-2.412c-4.779,0.749-8.336,3.261-10.332,7.644
		c-3.001,6.588-3.537,13.44-1.061,20.291c2.23,6.169,6.682,9.851,13.346,10.422c3.753,0.322,7.269-0.789,10.638-2.36
		C477.836,448.212,478.867,447.623,479.935,447.066z"/>
	<path fill="#582800" d="M180.152,432.307c0.162,5.751,0.344,11.503,0.468,17.255c0.02,0.919,0.313,1.304,1.232,1.311
		c0.797,0.006,1.593,0.115,2.388,0.195c0.461,0.046,0.696,0.308,0.699,0.788c0.003,0.63-0.342,0.823-0.91,0.786
		c-1.515-0.099-3.03-0.197-4.545-0.286c-2.323-0.136-4.631,0.114-6.942,0.28c-0.595,0.043-1.138,0.027-1.121-0.81
		c0.013-0.665,0.474-0.734,0.963-0.794c0.159-0.019,0.318-0.036,0.476-0.056c2.866-0.357,2.814-0.359,2.917-3.344
		c0.291-8.388,0.617-16.774,0.334-25.168c-0.086-2.555-0.261-5.108-0.327-7.664c-0.027-1.034-0.417-1.395-1.45-1.333
		c-3.279,0.195-6.508,0.691-9.707,1.416c-0.71,0.161-1.124,0.544-1.167,1.298c-0.028,0.478-0.088,0.955-0.151,1.43
		c-0.049,0.367-0.286,0.53-0.649,0.553c-0.451,0.029-0.82-0.108-0.832-0.599c-0.045-1.836-0.096-3.674-0.056-5.51
		c0.019-0.841,0.769-0.628,1.287-0.624c2.318,0.019,4.636,0.052,6.953,0.095c7.594,0.143,15.187,0.033,22.78-0.081
		c1.972-0.03,1.975-0.016,1.923,1.862c-0.035,1.278-0.073,2.555-0.118,3.833c-0.017,0.474,0.001,0.987-0.679,1.03
		c-0.595,0.038-0.96-0.267-0.881-0.837c0.291-2.112-1.074-2.423-2.688-2.761c-2.668-0.559-5.361-0.828-8.062-1.103
		c-1.261-0.129-1.687,0.344-1.711,1.582C180.464,420.804,180.1,426.55,180.152,432.307z"/>
	<path fill="#592900" d="M627.227,452.392c-0.69,0.432-1.344,0.27-1.968,0.269c-8.147-0.004-16.293-0.393-24.441-0.028
		c-0.319,0.014-0.639,0.008-0.958,0.008c-0.485,0.001-0.708-0.249-0.717-0.728c-0.009-0.455,0.146-0.78,0.639-0.829
		c0.874-0.087,1.749-0.201,2.626-0.225c0.769-0.021,1.17-0.29,1.197-1.11c0.032-0.957,0.195-1.909,0.224-2.866
		c0.316-10.225,0.33-20.451,0.092-30.678c-0.009-0.399-0.076-0.802-0.045-1.197c0.103-1.317-0.519-1.882-1.803-1.89
		c-0.716-0.004-1.433-0.103-2.147-0.182c-0.446-0.049-0.707-0.294-0.706-0.778c0.001-0.507,0.293-0.709,0.743-0.716
		c0.558-0.008,1.118,0.004,1.676,0.037c3.116,0.183,6.23,0.098,9.344-0.033c0.558-0.024,1.12-0.043,1.676-0.003
		c0.342,0.025,0.549,0.28,0.565,0.642c0.019,0.44-0.103,0.784-0.614,0.837c-0.159,0.016-0.318,0.023-0.478,0.034
		c-1.101,0.076-2.479-0.159-3.168,0.638c-0.685,0.793-0.293,2.149-0.359,3.256c-0.607,10.218-0.409,20.446-0.339,30.672
		c0.004,0.559,0.063,1.117,0.072,1.676c0.014,0.882,0.414,1.267,1.328,1.275c4.644,0.039,9.266-0.117,13.776-1.378
		c1.931-0.54,1.928-0.557,2.116-2.544c0.03-0.318,0.023-0.64,0.061-0.957c0.079-0.647,0.546-0.705,1.052-0.633
		c0.477,0.068,0.645,0.352,0.56,0.842C626.847,448.012,627.103,450.232,627.227,452.392z"/>
	<path fill="#592900" d="M397.022,432.295c0-5.199,0.005-10.397-0.005-15.596c-0.001-0.719-0.08-1.437-0.118-2.156
		c-0.043-0.824-0.346-1.329-1.294-1.341c-0.875-0.011-1.749-0.167-2.622-0.263c-0.468-0.051-0.682-0.316-0.686-0.788
		c-0.004-0.512,0.285-0.711,0.737-0.713c0.639-0.003,1.279,0.013,1.918,0.047c3.039,0.16,6.076,0.108,9.113-0.041
		c0.558-0.027,1.121-0.038,1.678-0.005c0.341,0.02,0.568,0.245,0.595,0.612c0.031,0.435-0.07,0.805-0.574,0.873
		c-0.713,0.096-1.43,0.234-2.145,0.226c-1.245-0.013-1.753,0.409-1.831,1.779c-0.63,11.108-0.652,22.221-0.463,33.338
		c0.008,0.48,0.061,0.958,0.066,1.438c0.007,0.804,0.425,1.107,1.198,1.136c0.958,0.036,1.913,0.147,2.868,0.239
		c0.491,0.047,0.649,0.372,0.646,0.827c-0.003,0.487-0.242,0.724-0.719,0.74c-0.08,0.003-0.161,0.014-0.239,0.006
		c-4.071-0.422-8.143-0.34-12.215-0.005c-0.433,0.036-0.789-0.099-0.869-0.589c-0.094-0.578,0.19-0.94,0.741-1.012
		c0.791-0.104,1.597-0.226,2.388-0.182c1.173,0.066,1.43-0.433,1.49-1.542c0.282-5.193,0.365-10.389,0.404-15.587
		c0.004-0.48,0-0.96,0-1.44C397.064,432.295,397.043,432.295,397.022,432.295z"/>
	<path fill="#633500" d="M542.62,366.287c0,2.122,0.006,4.244-0.004,6.366c-0.003,0.556-0.026,1.116-0.093,1.667
		c-0.026,0.211-0.167,0.414-0.462,0.44c-0.308,0.027-0.423-0.181-0.532-0.377c-0.073-0.132-0.089-0.309-0.089-0.466
		c-0.006-3.115-0.012-6.229,0.002-9.344c0.002-0.374-0.021-0.851,0.508-0.939c0.547-0.09,1.162-0.214,1.52,0.36
		c0.334,0.537,0.58,1.132,0.838,1.712c0.867,1.949,1.479,4.016,2.721,6.027c0.95-2.218,1.82-4.25,2.692-6.282
		c0.188-0.439,0.352-0.893,0.585-1.307c0.388-0.69,1.056-0.635,1.693-0.511c0.644,0.125,0.559,0.686,0.561,1.145
		c0.009,2.955,0.01,5.91-0.002,8.865c-0.002,0.451,0.096,1.092-0.577,1.09c-0.783-0.003-0.728-0.688-0.729-1.244
		c-0.006-1.837-0.003-3.674-0.004-5.511c0-0.554,0-1.109-0.426-1.815c-1.222,2.75-2.443,5.499-3.867,8.705
		c-1.384-3.111-2.616-5.88-3.849-8.649C542.944,366.242,542.782,366.265,542.62,366.287z"/>
	<path fill="#71461C" d="M535.786,364.901c0,2.766,0.001,5.222-0.001,7.677c0,0.477,0.001,0.954-0.018,1.43
		c-0.017,0.426-0.156,0.828-0.664,0.771c-0.437-0.05-0.653-0.405-0.665-0.848c-0.012-0.477-0.014-0.954-0.014-1.431
		c-0.001-1.988-0.047-3.977,0.017-5.963c0.037-1.157-0.206-1.771-1.558-1.675c-0.651,0.046-1.907,0.566-1.91-0.614
		c-0.003-1.128,1.225-0.66,1.927-0.684c1.827-0.061,3.657-0.014,5.486-0.019c0.551-0.001,0.95,0.195,0.92,0.795
		c-0.026,0.531-0.483,0.55-0.881,0.556C537.635,364.91,536.847,364.901,535.786,364.901z"/>
	<path fill="#FFFFFF" d="M166.562,331.859c-0.007-5.72,0.11-10.107,1.011-14.442c0.688-3.309,2.203-6.018,4.735-8.365
		c9.693-8.985,21.305-11.73,33.803-9.244c13.494,2.685,21.633,11.898,25.135,24.914c2.749,10.217,1.629,20.328-3.214,29.825
		c-6.449,12.645-19.386,19.028-33.353,16.743c-13.844-2.265-21.985-10.782-26.108-23.694
		C166.927,342.45,166.593,338.795,166.562,331.859z"/>
	<path fill="#FFFFFF" d="M346.65,330.393c-0.103-4.245,0.12-8.464,0.916-12.647c0.646-3.397,2.152-6.189,4.722-8.634
		c7.852-7.469,17.334-10.224,27.862-10.055c10.752,0.173,19.14,5.001,25.49,13.506c10.235,13.709,8.693,35.01-0.823,47.156
		c-6.153,7.852-14.266,11.881-24.25,11.948c-12.549,0.085-22.201-5.106-28.551-16.059c-2.22-3.83-3.602-7.985-4.459-12.328
		C346.715,339.018,346.564,334.716,346.65,330.393z"/>
	<path fill="#FFFFFF" d="M444.384,330.63c0.058-4.244,1.262-11.21,4.59-17.658c5.205-10.086,13.679-15.297,24.855-16.267
		c6.37-0.552,12.608,0.116,18.558,2.608c10.257,4.298,17.076,11.89,20.724,22.274c3.177,9.044,3.534,18.319,1.052,27.589
		c-2.863,10.694-9.602,17.896-20.243,21.109c-10.251,3.095-20.327,2.828-29.925-2.487
		C451.777,361.035,443.953,347.421,444.384,330.63z"/>
	<path fill="#FFFFFF" d="M305.444,346.307c-0.015,5.11,0.146,10.224-0.471,15.317c-0.097,0.8-0.103,1.52-0.839,2.108
		c-8.474,6.77-18.024,9.562-28.674,7.126c-7.381-1.688-11.667-6.876-13.548-14.061c-1.104-4.216-1.296-8.502-0.354-12.802
		c1.159-5.288,4.28-8.983,9.106-11.312c3.733-1.801,7.741-2.496,11.817-2.724c7.321-0.409,14.477,0.657,21.531,2.61
		c1.212,0.336,1.462,0.893,1.45,1.996C305.417,338.478,305.444,342.393,305.444,346.307z"/>
	<path fill="#FFFFFF" d="M82.17,431.302c-0.082-2.495,0.261-4.947,0.992-7.322c1.731-5.625,5.361-9.316,11.163-10.723
		c7.29-1.768,13.835-0.605,19.049,5.145c6.835,7.537,6.412,18.523,2.025,25.402c-3.018,4.733-7.583,6.933-13.024,7.439
		c-11.935,1.111-19.391-7.847-20.197-17.785C82.12,432.744,82.17,432.021,82.17,431.302z"/>
	<path fill="#FFFFFF" d="M18.952,450.837c-4.258-0.114-3.847,0.423-3.977-4.12c-0.124-4.316-0.089-8.636-0.092-12.954
		c-0.001-1.65,0.039-1.653,1.737-1.718c3.151-0.121,6.226,0.244,9.134,1.54c2.899,1.291,4.449,3.517,4.599,6.713
		c0.301,6.402-3.316,10.356-9.67,10.538C20.204,450.849,19.724,450.837,18.952,450.837z"/>
	<path fill="#FFFFFF" d="M15.162,422.238c0-2.552-0.004-5.105,0.002-7.657c0.003-1.291,0.666-1.837,1.943-1.741
		c0.795,0.06,1.601-0.012,2.393,0.07c6.882,0.71,9.349,5.633,8.297,11.462c-0.534,2.958-2.726,4.598-5.556,5.314
		c-2.024,0.512-4.116,0.456-6.191,0.534c-0.987,0.037-1.204-0.392-1.187-1.273c0.043-2.235,0.014-4.472,0.014-6.707
		C14.972,422.238,15.067,422.238,15.162,422.238z"/>
	<path fill="#FEFEFD" d="M241.376,436.321c2.217-5.506,4.569-10.693,7.22-16.234c2.75,5.406,4.627,10.766,6.624,16.242
		C250.593,437.008,246.163,436.922,241.376,436.321z"/>
	<path fill="#FEFEFD" d="M545.461,436.334c-4.615,0.658-9.043,0.597-13.799-0.001c2.067-5.548,4.598-10.755,7.172-16.296
		C541.549,425.489,543.446,430.861,545.461,436.334z"/>
</g>
</svg>
