<?xml version="1.0" encoding="utf-8"?>
<!-- Generator: Adobe Illustrator 24.0.1, SVG Export Plug-In . SVG Version: 6.00 Build 0)  -->
<svg version="1.1" id="Layer_1" xmlns="http://www.w3.org/2000/svg" xmlns:xlink="http://www.w3.org/1999/xlink" x="0px" y="0px"
	 viewBox="0 0 300 300" style="enable-background:new 0 0 300 300;" width="300" height="300" xml:space="preserve">
<style type="text/css">
	.st0{fill:#FDFDFD;}
	.st1{fill:#B62F79;}
	.st2{fill:#B32774;}
	.st3{fill:#DF48AB;}
	.st4{fill:#ED5CC2;}
	.st5{fill:#FAF6F9;}
	.st6{enable-background:new    ;}
	.st7{fill:#B51C70;}
</style>
<g>
	<g>
		<path class="st0" d="M152.06,240.49c-48.81,0-97.61-0.03-146.42,0.08c-2.98,0.01-3.59-0.6-3.58-3.58
			c0.11-53.61,0.11-107.23,0-160.84c-0.01-2.98,0.6-3.58,3.58-3.58c97.61,0.1,195.23,0.1,292.84,0c2.98,0,3.59,0.6,3.58,3.58
			c-0.11,53.61-0.11,107.23,0,160.84c0.01,2.98-0.6,3.59-3.58,3.58C249.67,240.46,200.86,240.49,152.06,240.49z M58.22,179.44
			c-0.17-0.62-0.22-1.37-1.07-1.42c-0.19-0.01-0.58,0.38-0.57,0.57c0.05,0.85,0.81,0.89,1.43,1.06c0,1.27,0.01,2.54,0.01,3.8
			c-0.47,0.11-0.99,0.13-1.39,0.36c-0.78,0.45-1.94,0.55-2.04,1.75c-0.02,0.23,0.26,0.65,0.48,0.72c1.29,0.4,2.18-0.24,2.76-1.32
			c0.22-0.41,0.24-0.93,0.35-1.39C59.55,182.22,59.45,180.84,58.22,179.44z M74.08,121.55c0.02-0.3,0.02-0.6,0-0.9
			c-0.83-3.04,1.82-3.79,4.61-5.27c-4.84-0.8-7.13-0.07-6.44,4.42c0.2,1.28-0.03,2.63,0.06,3.94c0.05,0.66-0.53,1.87,0.72,1.79
			c0.47-0.03,0.86-1.24,1.28-1.91c0.65-0.12,1.43-0.22,1.36-1.07c-0.07-0.82-0.85-0.86-1.51-0.92L74.08,121.55z M58.21,119.57
			c-0.54,0.27-1.08,0.53-1.61,0.8c0.23,0.35,0.41,0.95,0.7,1.01c1.14,0.21,1.72-0.51,2.03-1.52c0.85-0.01,1.69-0.01,2.54-0.02
			c0.4,0.86-0.12,2.92,1.68,2.04c1.69-0.83,1.52-2.73,0.66-4.29c-1.16-2.1-2.98-3.49-5.38-2.62c-1.78,0.65-2.45,2.17-0.53,3.71
			C58.26,118.98,58.23,119.27,58.21,119.57z M165.97,179.47c-2.53,1.15-4.25,3.22-1.42,4.98c1.17,0.72,4.07,0.78,6.04,0.77
			c2.16-0.02,1.45-2.39,1-4.06c-1.95-0.16-5.22,4.19-5.47-1.53c1.11-0.34,2.61,0.56,3.3-1c0.08-0.17-0.43-0.82-0.75-0.91
			C167.18,177.31,166.23,177.9,165.97,179.47z M109.96,118.71c0.55-0.3,1.61-0.67,1.58-0.88c-0.31-2.03-2.25-2.25-3.68-2.77
			c-2.27-0.83-2.91,1.19-3.95,2.64c-1.65,2.3,0.01,3.77,1.21,5.16c0.66,0.76,2.4,1.57,3,1.23c2.13-1.24-0.32-2.86-0.03-4.37
			C108.72,119.4,109.69,119.71,109.96,118.71z M265.97,121.6c-3.19,5.51-2.96,10.65,0.97,15.27c1.22,1.43,2.35,2.66,1.95,4.66
			c-1.83,3.12-1.71,6.71-2.47,10.09c-0.72,2.71-1.46,5.4-2.15,8.12c-0.48,1.88,0.23,2.79,2.24,2.78c6.8-0.03,13.6,0.03,20.4,0
			c2.65-0.01,2.01-1.48,1.15-2.94c-0.59-3.76-0.93-7.59-2.65-11.08c-2.59-5.52-1.34-10.43,2.39-14.94c2.43-6.7,0.42-13.5-5.25-16.16
			C276.65,114.62,270.24,114.75,265.97,121.6z M106.91,161.7c0.38,3.41,1,6.82-3.59,7.87c-2.2,0.51-4.3,0.11-5.99-1.59
			c-1.32-1.33-2.9-1.14-3.89,0.05c-1.06,1.28,0.22,2.48,1.13,3.41c2.84,2.93,6.33,3.36,10.12,2.44c4.08-0.99,6.42-3.84,6.63-7.76
			c0.41-7.78,0.32-15.59,0.39-23.39c0.01-1.48-0.65-2.74-2.29-2.65c-1.54,0.09-2.23,1.27-2.24,2.79c-0.01,2.82,0.01,5.65-0.03,8.47
			c-0.04,3.67-1.11,6.88-5.35,7.01c-4.52,0.14-5.79-3.16-5.93-7.02c-0.11-2.99-0.06-5.98-0.15-8.96c-0.04-1.31-0.81-2.31-2.13-2.33
			c-1.33-0.02-2.13,0.98-2.18,2.28c-0.11,2.49-0.13,4.98-0.08,7.47C91.58,160.29,96.53,164.14,106.91,161.7z M65.74,145.48
			c0,3.15-0.12,6.31,0.03,9.45c0.16,3.45-1.81,8.88,5.46,6.47c0.48-0.16,1.19,0.52,1.82,0.7c6.49,1.84,12.94-1.74,14.32-7.93
			c1.65-7.44-2.71-14.25-10.07-14.45c-5.17-0.14-8.51-0.77-7.28-6.97c0.45-2.27-1.33-2.34-2.75-2.44c-2.2-0.15-1.47,1.69-1.5,2.74
			C65.68,137.18,65.74,141.33,65.74,145.48z M12.06,145.55c0,2.32-0.05,4.64,0.01,6.96c0.12,4.53-2.16,10.82,6.59,9.23
			c0.27-0.05,0.59,0.29,0.91,0.38c4.59,1.34,8.58,0.27,11.68-3.34c3.05-3.55,3.83-7.65,2.03-12.06c-1.8-4.41-5.23-7.27-9.88-7.05
			c-5.56,0.27-8.18-1.26-7.2-7.14c0.22-1.34-0.09-2.86-1.84-2.97c-2.09-0.14-2.29,1.47-2.29,3.06
			C12.06,136.93,12.06,141.24,12.06,145.55z M211.92,162.62c1.83,0.11,3.85-0.52,5.7-1.76c1.38-0.93,3.23-1.9,2.09-3.83
			c-1.21-2.07-2.73-0.71-4.16,0.23c-3.01,1.98-5.96,1.65-8.7-0.61c-0.9-0.74-1.83-1.63-1.27-2.92c0.46-1.07,1.6-1.02,2.6-1.02
			c2.82-0.01,5.65,0.1,8.46-0.04c5.01-0.25,6.65-3.46,4.07-7.79c-2.79-4.67-8.31-6.56-13.37-4.57c-5.14,2.03-8.05,7.39-6.99,12.87
			C201.44,158.76,206,162.62,211.92,162.62z M144.42,162.64c2.05,0.18,4.18-0.67,6.18-1.93c1.43-0.9,3.09-1.96,1.76-3.89
			c-1.2-1.74-2.61-0.49-3.86,0.31c-3.2,2.04-6.25,1.89-9.1-0.69c-0.75-0.68-1.53-1.46-1.19-2.55c0.36-1.13,1.46-1.19,2.47-1.2
			c2.99-0.02,5.98,0.11,8.96-0.05c4.66-0.26,6.3-3.5,3.99-7.59c-2.63-4.64-8.29-6.71-13.3-4.85c-5.22,1.94-8.09,7-7.24,12.74
			C133.9,158.41,138.6,162.57,144.42,162.64z M59.99,154.04c0-9.65-3.81-14.7-10.98-14.54c-6.26,0.13-11.13,5.29-11.04,11.72
			c0.09,6.49,4.95,11.41,11.29,11.42C59.66,162.65,59.99,162.39,59.99,154.04z M121.45,162.68c4.69-0.06,7.99-1.57,8.67-5.86
			c0.68-4.32-1.75-6.84-6.02-7.59c-0.49-0.09-0.97-0.23-1.46-0.33c-1.66-0.36-2.88-1.26-2.45-3.08c0.42-1.77,1.96-2.06,3.57-1.84
			c0.82,0.12,1.61,0.4,2.43,0.55c1.29,0.24,2.42-0.14,2.8-1.44s-0.42-2.23-1.61-2.73c-3.07-1.28-6.15-1.46-9.07,0.38
			c-2.47,1.56-3.7,3.9-3.12,6.8c0.66,3.34,3.1,4.94,6.29,5.56c0.49,0.09,0.98,0.17,1.47,0.26c1.51,0.27,2.48,1.09,2.28,2.7
			c-0.2,1.63-1.56,2.09-2.91,2.14c-0.96,0.03-1.94-0.38-2.91-0.57c-1.49-0.29-2.73,0.11-3.1,1.67c-0.33,1.4,0.75,2.13,1.89,2.52
			C119.43,162.26,120.73,162.5,121.45,162.68z M169.93,162.63c1.84,0.2,3.79-0.35,5.46-1.46c1.21-0.8,3.56-1.38,2.3-3.58
			c-1.09-1.91-2.61-1.14-4.22-0.17c-3.56,2.14-6.84,1.22-9.25-1.91c-2.28-2.95-2.25-6.3,0.22-9.16c2.58-2.97,5.8-3.7,9.36-1.53
			c1.32,0.81,2.82,2.63,4.12,0.34c1.28-2.28-0.87-3.27-2.4-4.13c-4.36-2.47-8.65-2.06-12.6,0.91c-3.88,2.92-5.35,8.27-3.81,13.03
			C160.56,159.43,164.87,162.55,169.93,162.63z M238.1,162.56c1.07,0.16,2.1-0.01,2.53-1.09c0.93-2.34-0.87-2.64-2.46-3.32
			c-5.57-2.38-4.15-7.44-4.01-11.71c0.13-3.88,3.52-1.63,5.42-2.1c1.38-0.34,2.83-0.52,2.86-2.16c0.04-2.01-1.6-2.26-3.18-2.29
			c-2.73-0.04-6.01,0.76-5.28-3.98c0.19-1.24-0.46-2.34-1.9-2.43c-1.79-0.11-2.23,1.11-2.21,2.61c0.02,1.75-0.09,3.38-2.31,3.78
			c-1.21,0.22-2.36,0.77-2.36,2.16c0,1.71,1.37,2.13,2.77,2.24c1.92,0.15,1.85,1.48,1.87,2.86c0.02,2.33-0.1,4.68,0.2,6.98
			C230.62,158.48,234.48,162.36,238.1,162.56z M183.2,150.72c0,2.83-0.02,5.66,0.01,8.48c0.01,1.48,0.59,2.78,2.22,2.76
			c1.6-0.02,2.18-1.32,2.24-2.79c0.05-1.16,0.03-2.33,0.03-3.49c0.02-8.54,0.01-8.57,8.03-11.9c1.22-0.5,2.14-1.08,1.9-2.45
			c-0.23-1.31-1.23-1.83-2.55-1.87c-2.24-0.07-4.55,1.92-6.21,1.35c-6.85-2.39-5.61,2.24-5.67,5.92
			C183.17,148.06,183.18,149.39,183.2,150.72z M212.46,186.09c3.85,1.09,3.96-2.28,4.13-4.4c0.2-2.42-1.24-3.77-3.73-1.7
			c-0.62,0.51-1.25,0.24-1.63-0.44c-1.56-2.86-2.38-0.28-2.83,0.59C206.84,183.15,208.81,186.02,212.46,186.09z M96.47,186.05
			c4.14,0.96,4.09-2.55,4.17-4.52c0.13-3.09-1.8-2.59-3.79-1.23c-0.76,0.52-1.41-0.49-2.04-1c-1.09-0.87-1.9-0.21-2.32,0.77
			C91.32,182.76,93.54,185.95,96.47,186.05z M136.06,179.69c1.16,1.35,0.92,2.43,0.69,3.58c-0.33,1.62,0.59,2.78,2.07,2.53
			c1.35-0.23,1.39-1.72,0.9-2.88c-1.02-2.42-0.93-5.93-5.12-5.37c-4.13,0.55-2.06,3.76-2.47,5.85c-0.17,0.83-0.4,2.03,0.92,2.58
			C135.79,184.92,134.38,181.89,136.06,179.69z M147.46,177.81c-0.24,3.18-0.64,5.67,0.59,8.06
			C148.53,183.34,152.73,180.8,147.46,177.81z M155.56,178.31c-1.87,2.2-3.72,3.45-3.98,6.3c3.23-4.29,2.02,2.31,4.13,1.07
			C156.17,183.54,156.17,181.35,155.56,178.31z M111.58,185.01c-0.03-2.6-0.01-4.97,2.59-6.86c-2.64-0.48-4.52-0.76-8.26,0.81
			C112.16,178.91,111.43,182.22,111.58,185.01z M52.87,186.74c0.1-3.18,0.97-5.34-0.5-7.35c-0.09-0.13-1.41,0.24-1.64,0.66
			C49.34,182.54,50.89,184.17,52.87,186.74z M240.34,123.03c0.46-0.03,0.92-0.07,1.38-0.1c-0.13-2.36,1.04-4.81-1.38-7.73
			c-0.18,1.98-0.38,3.25-0.38,4.53C239.97,120.83,240.21,121.93,240.34,123.03z M80.99,120.32c-0.01-0.78-0.36-1.19-1.17-0.96
			c-0.99,0.28-1.69,0.94-1.98,1.94c-0.22,0.78,0.09,1.26,0.92,1.19C80.07,122.38,80.75,121.56,80.99,120.32z"/>
		<path class="st1" d="M106.91,161.7c-10.38,2.44-15.33-1.41-15.57-11.9c-0.06-2.49-0.03-4.98,0.08-7.47
			c0.06-1.29,0.86-2.29,2.18-2.28c1.32,0.02,2.09,1.02,2.13,2.33c0.09,2.99,0.04,5.98,0.15,8.96c0.14,3.86,1.42,7.16,5.93,7.02
			c4.24-0.13,5.31-3.35,5.35-7.01c0.03-2.82,0.01-5.65,0.03-8.47c0.01-1.52,0.7-2.71,2.24-2.79c1.64-0.09,2.3,1.16,2.29,2.65
			c-0.08,7.8,0.02,15.61-0.39,23.39c-0.21,3.92-2.55,6.78-6.63,7.76c-3.79,0.92-7.28,0.49-10.12-2.44
			c-0.91-0.93-2.18-2.13-1.13-3.41c0.98-1.19,2.57-1.37,3.89-0.05c1.68,1.7,3.78,2.1,5.99,1.59
			C107.91,168.51,107.28,165.1,106.91,161.7z"/>
		<path class="st2" d="M65.74,145.48c0-4.14-0.06-8.29,0.04-12.43c0.03-1.05-0.71-2.89,1.5-2.74c1.42,0.1,3.2,0.17,2.75,2.44
			c-1.23,6.2,2.1,6.84,7.28,6.97c7.36,0.19,11.72,7,10.07,14.45c-1.38,6.19-7.83,9.77-14.32,7.93c-0.63-0.18-1.35-0.86-1.82-0.7
			c-7.27,2.41-5.3-3.02-5.46-6.47C65.62,151.78,65.74,148.63,65.74,145.48z M83.9,150.89c-0.16-3.8-3.79-7.28-7.55-7.23
			c-4.06,0.05-7.41,3.76-7.17,7.94c0.23,4.03,3.62,7.1,7.63,6.9C80.68,158.3,84.06,154.68,83.9,150.89z"/>
		<path class="st2" d="M12.06,145.55c0-4.31,0-8.62,0.01-12.93c0-1.59,0.2-3.19,2.29-3.06c1.75,0.11,2.06,1.64,1.84,2.97
			c-0.98,5.87,1.64,7.4,7.2,7.14c4.64-0.22,8.08,2.64,9.88,7.05c1.8,4.41,1.02,8.51-2.03,12.06c-3.1,3.61-7.09,4.68-11.68,3.34
			c-0.32-0.09-0.64-0.43-0.91-0.38c-8.75,1.58-6.46-4.71-6.59-9.23C12,150.2,12.06,147.87,12.06,145.55z M30.11,150.96
			c-0.07-3.95-3.44-7.3-7.35-7.3c-3.84,0-7.31,3.46-7.38,7.34c-0.07,4.14,3.52,7.64,7.66,7.48C27,158.34,30.18,154.95,30.11,150.96z
			"/>
		<path class="st2" d="M211.92,162.62c-5.93,0-10.49-3.86-11.57-9.45c-1.06-5.48,1.86-10.84,6.99-12.87
			c5.06-1.99,10.58-0.11,13.37,4.57c2.58,4.32,0.94,7.53-4.07,7.79c-2.81,0.14-5.64,0.03-8.46,0.04c-1,0.01-2.14-0.04-2.6,1.02
			c-0.56,1.29,0.37,2.18,1.27,2.92c2.74,2.26,5.69,2.59,8.7,0.61c1.43-0.94,2.95-2.29,4.16-0.23c1.14,1.93-0.71,2.91-2.09,3.83
			C215.78,162.1,213.76,162.73,211.92,162.62z M209.84,143.79c0.68-0.11-0.04-0.15-0.6,0.12c-1.92,0.93-4.22,1.92-3.84,4.48
			c0.47,3.14,2.86,0.58,4.32,0.98c1.38,0.38,2.95,0.1,4.44,0.07c1.13-0.02,2.53,0.23,2.95-1.17c0.36-1.22-0.46-2.18-1.41-2.94
			C214.38,144.28,212.97,143.47,209.84,143.79z"/>
		<path class="st2" d="M144.42,162.64c-5.82-0.07-10.52-4.23-11.34-9.69c-0.86-5.74,2.02-10.8,7.24-12.74
			c5.01-1.86,10.68,0.21,13.3,4.85c2.31,4.09,0.67,7.33-3.99,7.59c-2.98,0.17-5.97,0.04-8.96,0.05c-1.01,0.01-2.12,0.06-2.47,1.2
			c-0.34,1.09,0.44,1.87,1.19,2.55c2.85,2.57,5.9,2.73,9.1,0.69c1.26-0.8,2.66-2.05,3.86-0.31c1.34,1.93-0.33,2.99-1.76,3.89
			C148.61,161.97,146.47,162.82,144.42,162.64z M142.99,150.49c2.67-0.18,6.45,0.32,6.74-2.89c0.24-2.67-3.08-4.03-5.91-3.9
			c-2.78,0.13-5.48,1.31-5.62,4.41C138.06,151.57,141.16,150.1,142.99,150.49z"/>
		<path class="st2" d="M59.99,154.04c0,8.35-0.33,8.62-10.73,8.59c-6.34-0.01-11.21-4.93-11.29-11.42
			c-0.09-6.43,4.78-11.59,11.04-11.72C56.18,139.34,59.99,144.39,59.99,154.04z M56.57,151c-0.02-4.01-3.31-7.38-7.2-7.38
			c-3.92,0-7.26,3.3-7.35,7.27c-0.11,4.2,3.35,7.72,7.48,7.62C53.44,158.41,56.58,155.08,56.57,151z"/>
		<path class="st2" d="M121.45,162.68c-0.72-0.18-2.02-0.42-3.26-0.85c-1.14-0.39-2.22-1.12-1.89-2.52c0.37-1.56,1.62-1.96,3.1-1.67
			c0.98,0.19,1.95,0.6,2.91,0.57c1.36-0.04,2.71-0.51,2.91-2.14c0.2-1.61-0.77-2.43-2.28-2.7c-0.49-0.09-0.98-0.17-1.47-0.26
			c-3.19-0.62-5.63-2.22-6.29-5.56c-0.58-2.9,0.65-5.23,3.12-6.8c2.92-1.85,5.99-1.67,9.07-0.38c1.18,0.49,1.98,1.42,1.61,2.73
			c-0.37,1.29-1.51,1.68-2.8,1.44c-0.81-0.15-1.61-0.43-2.43-0.55c-1.6-0.23-3.15,0.07-3.57,1.84c-0.43,1.82,0.79,2.72,2.45,3.08
			c0.49,0.11,0.97,0.25,1.46,0.33c4.26,0.75,6.7,3.26,6.02,7.59C129.44,161.11,126.14,162.62,121.45,162.68z"/>
		<path class="st2" d="M169.93,162.63c-5.06-0.08-9.37-3.2-10.82-7.67c-1.55-4.76-0.08-10.11,3.81-13.03
			c3.95-2.97,8.24-3.38,12.6-0.91c1.53,0.86,3.68,1.86,2.4,4.13c-1.29,2.3-2.79,0.47-4.12-0.34c-3.56-2.17-6.78-1.45-9.36,1.53
			c-2.47,2.85-2.5,6.2-0.22,9.16c2.41,3.13,5.69,4.06,9.25,1.91c1.61-0.97,3.13-1.74,4.22,0.17c1.26,2.2-1.09,2.77-2.3,3.58
			C173.72,162.29,171.77,162.83,169.93,162.63z"/>
		<path class="st3" d="M266.41,151.62c0.76-3.38,0.65-6.97,2.48-10.09c0.45-0.01,0.91-0.03,1.36-0.04c1.62,0.44,1.63-1.55,2.77-1.84
			c2.75,4.88,7.34,7.18,12.39,8.84c1.72,3.49,2.06,7.32,2.65,11.08c-1.29,0.54-2.53,1.63-3.98,0.34c-0.55-3.45-7.86-7.25-12.15-6.31
			C269.99,153.18,269.44,148.92,266.41,151.62z"/>
		<path class="st2" d="M238.1,162.56c-3.62-0.2-7.48-4.09-8.05-8.43c-0.3-2.3-0.18-4.65-0.2-6.98c-0.01-1.38,0.05-2.71-1.87-2.86
			c-1.4-0.11-2.77-0.53-2.77-2.24c0-1.39,1.15-1.94,2.36-2.16c2.22-0.4,2.33-2.03,2.31-3.78c-0.02-1.5,0.42-2.71,2.21-2.61
			c1.45,0.09,2.09,1.19,1.9,2.43c-0.73,4.73,2.55,3.93,5.28,3.98c1.58,0.03,3.22,0.28,3.18,2.29c-0.03,1.64-1.48,1.82-2.86,2.16
			c-1.9,0.47-5.28-1.78-5.42,2.1c-0.15,4.28-1.56,9.33,4.01,11.71c1.58,0.68,3.39,0.97,2.46,3.32
			C240.21,162.55,239.17,162.73,238.1,162.56z"/>
		<path class="st2" d="M265.97,121.6c4.28-6.84,10.68-6.98,16.56-4.21c5.67,2.67,7.69,9.46,5.25,16.16
			c-0.94-0.67-1.87-0.49-2.79,0.05c0.32-2.48,2.73-5.47,0.01-7.31c-2.48-1.68-5.79-0.98-8.56,0.53c-1.16,0.63-2.23,1.43-3.34,2.15
			c-0.5-1.22-1.63-1.21-2.68-1.48c-1.3-0.33-1.34-1.06-0.37-1.92c3.52-1.73,6.3-4.64,11.47-5.9c-5.95-1.44-8.8,0.86-11.25,4.04
			C268.37,123.97,267.15,122.84,265.97,121.6z"/>
		<path class="st1" d="M183.19,150.72c-0.01-1.33-0.02-2.66,0-3.99c0.06-3.68-1.17-8.31,5.67-5.92c1.66,0.58,3.97-1.42,6.21-1.35
			c1.32,0.04,2.32,0.56,2.55,1.87c0.24,1.38-0.69,1.95-1.9,2.45c-8.03,3.33-8.01,3.36-8.03,11.9c0,1.16,0.02,2.33-0.03,3.49
			c-0.06,1.46-0.63,2.77-2.24,2.79c-1.63,0.02-2.2-1.28-2.22-2.76C183.18,156.38,183.2,153.55,183.19,150.72z"/>
		<path class="st4" d="M284.07,159.9c1.44,1.29,2.69,0.21,3.98-0.34c0.86,1.47,1.5,2.93-1.15,2.95c-6.8,0.04-13.6-0.03-20.4,0
			c-2.02,0.01-2.72-0.9-2.24-2.78c0.69-2.71,1.43-5.41,2.15-8.12c3.04-2.7,3.59,1.56,5.51,1.97
			C275.45,156.69,279.09,159.59,284.07,159.9z"/>
		<path class="st1" d="M265.97,121.6c1.18,1.24,2.41,2.37,4.32,2.11c-0.07,0.62-0.15,1.24-0.22,1.86c-0.97,0.85-0.93,1.59,0.37,1.92
			c1.05,0.27,2.19,0.26,2.68,1.48c-2.87,3.73-3.84,7.9-2.87,12.51c-0.45,0.01-0.91,0.03-1.36,0.04c0.41-2-0.73-3.23-1.95-4.66
			C263.01,132.25,262.78,127.11,265.97,121.6z"/>
		<path class="st1" d="M284.99,133.6c0.92-0.54,1.85-0.72,2.79-0.05c-3.73,4.51-4.98,9.42-2.39,14.94
			c-5.05-1.66-9.64-3.97-12.39-8.84c3.67-2.61,5.84-0.67,7.52,2.71c0.62-1.73,1.01-3.32,1.74-4.74
			C283.01,136.19,284.07,134.93,284.99,133.6z"/>
		<path class="st5" d="M212.46,186.09c-3.65-0.07-5.62-2.94-4.06-5.96c0.45-0.87,1.27-3.45,2.83-0.59c0.37,0.69,1.01,0.96,1.63,0.44
			c2.5-2.07,3.93-0.72,3.73,1.7C216.42,183.8,216.31,187.18,212.46,186.09z"/>
		<path class="st5" d="M96.47,186.05c-2.93-0.1-5.15-3.29-3.99-5.98c0.42-0.98,1.23-1.64,2.32-0.77c0.64,0.51,1.29,1.51,2.04,1
			c1.99-1.36,3.93-1.86,3.79,1.23C100.56,183.5,100.61,187.01,96.47,186.05z"/>
		<path class="st5" d="M136.06,179.69c-1.68,2.2-0.27,5.23-3.02,6.28c-1.32-0.54-1.09-1.74-0.92-2.58c0.42-2.09-1.66-5.31,2.47-5.85
			c4.19-0.55,4.1,2.95,5.12,5.37c0.49,1.16,0.45,2.66-0.9,2.88c-1.48,0.25-2.4-0.91-2.07-2.53
			C136.98,182.12,137.22,181.04,136.06,179.69z"/>
		<path class="st5" d="M108.09,119.73c-0.29,1.5,2.16,3.13,0.03,4.37c-0.59,0.35-2.34-0.46-3-1.23c-1.2-1.4-2.86-2.86-1.21-5.16
			c1.04-1.46,1.68-3.47,3.95-2.64c1.43,0.52,3.37,0.74,3.68,2.77c0.03,0.21-1.03,0.58-1.58,0.88l0.07,0.03
			c-1.19-1.84-2.37-3.84-3.94-0.28C105.51,120.84,107.62,119,108.09,119.73z"/>
		<path class="st5" d="M58.29,118.68c-1.92-1.54-1.25-3.07,0.53-3.71c2.4-0.87,4.22,0.52,5.38,2.62c0.86,1.56,1.04,3.46-0.66,4.29
			c-1.8,0.89-1.28-1.18-1.68-2.04c0.34-0.35,1.38-0.82,0.23-1.13C60.91,118.4,59.57,118.67,58.29,118.68z"/>
		<path class="st4" d="M74.3,123.62c-0.43,0.67-0.82,1.88-1.28,1.91c-1.25,0.08-0.67-1.13-0.72-1.79c-0.09-1.31,0.14-2.65-0.06-3.94
			c-0.69-4.49,1.6-5.22,6.44-4.42c-2.79,1.48-5.44,2.23-4.61,5.27c-0.24,0.15-0.47,0.31-0.71,0.46c0.24,0.15,0.47,0.29,0.71,0.44
			l0.07,0.08C74.2,122.29,74.25,122.95,74.3,123.62z"/>
		<path class="st5" d="M166.12,179.63c0.25,5.72,3.52,1.36,5.47,1.52c0.45,1.68,1.16,4.04-1,4.06c-1.97,0.02-4.87-0.04-6.04-0.77
			c-2.83-1.75-1.11-3.83,1.42-4.98L166.12,179.63z"/>
		<path class="st4" d="M147.46,177.81c5.27,2.99,1.07,5.53,0.59,8.06C146.82,183.48,147.22,181,147.46,177.81z"/>
		<path class="st4" d="M155.56,178.31c0.61,3.03,0.61,5.23,0.14,7.37c-2.11,1.24-0.9-5.36-4.13-1.07
			C151.84,181.76,153.69,180.52,155.56,178.31z"/>
		<path class="st4" d="M111.58,185.01c-0.15-2.79,0.57-6.1-5.67-6.04c3.73-1.57,5.61-1.29,8.26-0.81
			C111.57,180.04,111.55,182.41,111.58,185.01z"/>
		<path class="st5" d="M52.87,186.74c-1.98-2.58-3.52-4.2-2.14-6.69c0.23-0.42,1.55-0.79,1.64-0.66
			C53.83,181.41,52.96,183.56,52.87,186.74z"/>
		<path class="st4" d="M240.34,123.03c-0.14-1.1-0.38-2.2-0.38-3.3c0-1.27,0.2-2.55,0.38-4.53c2.42,2.92,1.25,5.37,1.38,7.73
			C241.26,122.96,240.8,123,240.34,123.03z"/>
		<path class="st5" d="M80.99,120.33c-0.25,1.23-0.93,2.06-2.23,2.17c-0.82,0.07-1.14-0.42-0.92-1.19c0.29-1.01,0.98-1.66,1.98-1.94
			C80.63,119.12,80.99,119.54,80.99,120.33z"/>
		<path class="st5" d="M58.18,183.59c-0.11,0.47-0.13,0.99-0.35,1.39c-0.59,1.08-1.47,1.72-2.76,1.32c-0.22-0.07-0.5-0.49-0.48-0.72
			c0.1-1.2,1.25-1.3,2.04-1.75c0.4-0.23,0.92-0.25,1.39-0.36L58.18,183.59z"/>
		<path class="st1" d="M58.29,118.68c1.28-0.01,2.62-0.28,3.81,0.03c1.15,0.3,0.11,0.78-0.23,1.13c-0.85,0.01-1.69,0.01-2.54,0.02
			c-0.37-0.1-0.74-0.19-1.11-0.29C58.23,119.27,58.26,118.98,58.29,118.68z"/>
		<path class="st5" d="M165.97,179.47c0.25-1.58,1.2-2.16,2.7-1.75c0.33,0.09,0.83,0.74,0.75,0.91c-0.69,1.56-2.19,0.65-3.3,1
			L165.97,179.47z"/>
		<path class="st5" d="M58.21,119.57c0.37,0.1,0.74,0.19,1.11,0.29c-0.31,1-0.89,1.73-2.03,1.52c-0.29-0.05-0.47-0.66-0.7-1.01
			C57.14,120.1,57.68,119.84,58.21,119.57z"/>
		<path class="st1" d="M108.09,119.73c-0.47-0.73-2.58,1.11-2-1.27c1.31,0.09,2.63,0.19,3.94,0.28l-0.07-0.03
			C109.69,119.71,108.72,119.4,108.09,119.73z"/>
		<path class="st5" d="M74.3,123.62c-0.05-0.66-0.1-1.33-0.15-1.99c0.66,0.06,1.44,0.1,1.51,0.92
			C75.73,123.39,74.96,123.5,74.3,123.62z"/>
		<path class="st5" d="M58.02,183.46c0-1.27-0.01-2.54-0.01-3.8l0.22-0.22c1.23,1.4,1.33,2.78-0.04,4.15
			C58.18,183.59,58.02,183.46,58.02,183.46z"/>
		<path class="st5" d="M58,179.66c-0.62-0.17-1.37-0.21-1.43-1.06c-0.01-0.19,0.38-0.58,0.57-0.57c0.85,0.05,0.9,0.8,1.07,1.42
			C58.22,179.44,58,179.66,58,179.66z"/>
		<path class="st5" d="M74.08,121.55c-0.24-0.15-0.47-0.29-0.71-0.44c0.24-0.15,0.47-0.31,0.71-0.46
			C74.1,120.95,74.1,121.25,74.08,121.55z"/>
		<path class="st5" d="M83.9,150.89c0.16,3.79-3.22,7.41-7.1,7.6c-4.01,0.2-7.4-2.86-7.63-6.9c-0.24-4.18,3.11-7.89,7.17-7.94
			C80.11,143.61,83.74,147.09,83.9,150.89z"/>
		<path class="st5" d="M30.11,150.96c0.07,3.99-3.11,7.38-7.07,7.53c-4.14,0.16-7.73-3.34-7.66-7.48c0.06-3.89,3.54-7.35,7.38-7.34
			C26.66,143.66,30.04,147.01,30.11,150.96z"/>
		<path class="st5" d="M209.84,143.79c3.12-0.32,4.53,0.49,5.86,1.54c0.95,0.76,1.77,1.73,1.41,2.94c-0.42,1.4-1.82,1.15-2.95,1.17
			c-1.49,0.03-3.06,0.31-4.44-0.07c-1.46-0.4-3.86,2.16-4.32-0.98c-0.38-2.56,1.92-3.55,3.84-4.48
			C209.81,143.64,210.53,143.69,209.84,143.79z"/>
		<path class="st5" d="M142.99,150.49c-1.83-0.4-4.94,1.08-4.78-2.38c0.14-3.09,2.83-4.28,5.62-4.41c2.83-0.13,6.14,1.23,5.91,3.9
			C149.44,150.81,145.66,150.31,142.99,150.49z"/>
		<path class="st5" d="M56.57,151c0.02,4.08-3.13,7.41-7.08,7.51c-4.13,0.1-7.59-3.42-7.48-7.62c0.1-3.97,3.44-7.27,7.35-7.27
			C53.26,143.62,56.55,147,56.57,151z"/>
		<path class="st5" d="M284.99,133.6c-0.92,1.33-1.99,2.59-2.72,4.02c-0.73,1.42-1.12,3.01-1.74,4.74
			c-1.67-3.39-3.85-5.32-7.52-2.71c-1.14,0.29-1.15,2.28-2.77,1.84c-0.98-4.61,0-8.78,2.87-12.52c1.11-0.72,2.18-1.52,3.34-2.15
			c2.77-1.51,6.07-2.22,8.56-0.53C287.72,128.12,285.32,131.11,284.99,133.6z"/>
		<path class="st5" d="M284.07,159.9c-4.98-0.31-8.62-3.21-12.15-6.31C276.21,152.65,283.52,156.45,284.07,159.9z"/>
		<path class="st5" d="M270.06,125.57c0.07-0.62,0.15-1.24,0.22-1.86c2.45-3.18,5.3-5.48,11.25-4.04
			C276.36,120.93,273.58,123.84,270.06,125.57z"/>
		<path class="st0" d="M110.04,118.74c-1.31-0.09-2.63-0.19-3.94-0.28C107.66,114.9,108.84,116.9,110.04,118.74z"/>
	</g>
</g>
<rect x="28.32" y="101.23" class="st0" width="222.26" height="24.65"/>
<rect x="28.32" y="176.36" class="st0" width="222.26" height="24.65"/>
<g class="st6">
	<path class="st7" d="M12.11,96.28h1.41v6.33l3.9-6.33h1.52v8.3h-1.41v-6.29l-3.9,6.29h-1.52V96.28z"/>
	<path class="st7" d="M27.48,96.28h1.41v3.45h3.9v-3.45h1.41v8.3h-1.41v-3.68h-3.9v3.68h-1.41V96.28z"/>
	<path class="st7" d="M41.98,96.28h6.74v1.16h-2.67v7.13h-1.4v-7.13h-2.67V96.28z"/>
	<path class="st7" d="M62.18,101.9l1.45,0.18c-0.23,0.85-0.65,1.51-1.27,1.98c-0.62,0.47-1.41,0.7-2.38,0.7
		c-1.21,0-2.18-0.37-2.89-1.12s-1.07-1.8-1.07-3.14c0-1.4,0.36-2.48,1.08-3.25s1.65-1.16,2.8-1.16c1.11,0,2.02,0.38,2.72,1.13
		s1.05,1.82,1.05,3.19c0,0.08,0,0.21-0.01,0.38h-6.19c0.05,0.91,0.31,1.61,0.77,2.09c0.46,0.48,1.04,0.73,1.73,0.73
		c0.52,0,0.96-0.14,1.32-0.41C61.68,102.93,61.97,102.5,62.18,101.9z M57.56,99.63h4.63c-0.06-0.7-0.24-1.22-0.53-1.57
		c-0.45-0.54-1.03-0.81-1.74-0.81c-0.65,0-1.19,0.22-1.63,0.65C57.85,98.33,57.61,98.9,57.56,99.63z"/>
	<path class="st7" d="M71.83,107.75V96.28h1.28v1.08c0.3-0.42,0.64-0.74,1.02-0.95c0.38-0.21,0.84-0.32,1.38-0.32
		c0.71,0,1.33,0.18,1.88,0.55c0.54,0.36,0.95,0.88,1.23,1.54c0.28,0.66,0.41,1.39,0.41,2.18c0,0.85-0.15,1.61-0.46,2.29
		s-0.75,1.2-1.33,1.56c-0.58,0.36-1.19,0.54-1.83,0.54c-0.47,0-0.89-0.1-1.26-0.3c-0.37-0.2-0.68-0.45-0.92-0.75v4.04H71.83z
		 M73.1,100.47c0,1.07,0.22,1.86,0.65,2.37c0.43,0.51,0.96,0.77,1.57,0.77c0.63,0,1.16-0.26,1.61-0.79s0.67-1.35,0.67-2.46
		c0-1.06-0.22-1.85-0.65-2.38c-0.44-0.53-0.95-0.79-1.56-0.79c-0.6,0-1.13,0.28-1.59,0.84S73.1,99.4,73.1,100.47z"/>
	<path class="st7" d="M87.16,96.28h1.41v3.45h3.9v-3.45h1.41v8.3h-1.41v-3.68h-3.9v3.68h-1.41V96.28z"/>
	<path class="st7" d="M108.1,101.9l1.45,0.18c-0.23,0.85-0.65,1.51-1.27,1.98c-0.62,0.47-1.41,0.7-2.38,0.7
		c-1.21,0-2.18-0.37-2.89-1.12s-1.07-1.8-1.07-3.14c0-1.4,0.36-2.48,1.08-3.25s1.65-1.16,2.8-1.16c1.11,0,2.02,0.38,2.72,1.13
		s1.05,1.82,1.05,3.19c0,0.08,0,0.21-0.01,0.38h-6.19c0.05,0.91,0.31,1.61,0.77,2.09c0.46,0.48,1.04,0.73,1.73,0.73
		c0.52,0,0.96-0.14,1.32-0.41C107.6,102.93,107.89,102.5,108.1,101.9z M103.48,99.63h4.63c-0.06-0.7-0.24-1.22-0.53-1.57
		c-0.45-0.54-1.03-0.81-1.74-0.81c-0.65,0-1.19,0.22-1.63,0.65C103.77,98.33,103.53,98.9,103.48,99.63z"/>
	<path class="st7" d="M116.99,96.28h6.74v1.16h-2.67v7.13h-1.4v-7.13h-2.67V96.28z"/>
	<path class="st7" d="M130.96,101.14v-1.41h4.32v1.41H130.96z"/>
	<path class="st7" d="M143.3,96.28h2.19l2.18,6.64l2.42-6.64h2.02v8.3h-1.41v-6.68l-2.45,6.68H147l-2.32-7v7h-1.38V96.28z"/>
	<path class="st7" d="M166.11,103.55c-0.52,0.44-1.02,0.75-1.5,0.94s-1,0.27-1.55,0.27c-0.91,0-1.61-0.22-2.1-0.67
		s-0.73-1.01-0.73-1.71c0-0.41,0.09-0.78,0.28-1.11s0.43-0.61,0.73-0.81s0.64-0.36,1.01-0.46c0.28-0.07,0.69-0.14,1.25-0.21
		c1.14-0.14,1.97-0.3,2.51-0.48c0-0.19,0.01-0.32,0.01-0.37c0-0.57-0.13-0.98-0.4-1.21c-0.36-0.32-0.89-0.48-1.6-0.48
		c-0.66,0-1.15,0.12-1.46,0.35s-0.55,0.64-0.7,1.23l-1.38-0.19c0.13-0.59,0.33-1.06,0.62-1.43s0.7-0.64,1.24-0.84
		s1.17-0.29,1.88-0.29c0.71,0,1.28,0.08,1.73,0.25s0.77,0.38,0.98,0.63s0.35,0.57,0.44,0.96c0.05,0.24,0.07,0.67,0.07,1.3v1.88
		c0,1.31,0.03,2.13,0.09,2.48s0.18,0.68,0.36,1h-1.47C166.24,104.28,166.15,103.94,166.11,103.55z M165.99,100.41
		c-0.51,0.21-1.28,0.39-2.3,0.53c-0.58,0.08-0.99,0.18-1.23,0.28s-0.42,0.26-0.55,0.46s-0.2,0.42-0.2,0.67
		c0,0.38,0.14,0.69,0.43,0.94s0.7,0.38,1.25,0.38c0.54,0,1.02-0.12,1.45-0.36s0.73-0.56,0.93-0.97c0.15-0.32,0.23-0.79,0.23-1.41
		V100.41z"/>
	<path class="st7" d="M176.03,96.28h4.77v1.16h-3.37v7.13h-1.41V96.28z"/>
	<path class="st7" d="M193.7,103.55c-0.52,0.44-1.02,0.75-1.5,0.94c-0.48,0.18-1,0.27-1.55,0.27c-0.91,0-1.61-0.22-2.1-0.67
		c-0.49-0.45-0.73-1.01-0.73-1.71c0-0.41,0.09-0.78,0.28-1.11c0.18-0.34,0.43-0.61,0.73-0.81c0.3-0.2,0.64-0.36,1.01-0.46
		c0.28-0.07,0.69-0.14,1.25-0.21c1.13-0.14,1.97-0.3,2.51-0.48c0-0.19,0.01-0.32,0.01-0.37c0-0.57-0.13-0.98-0.4-1.21
		c-0.36-0.32-0.89-0.48-1.6-0.48c-0.66,0-1.15,0.12-1.46,0.35c-0.32,0.23-0.55,0.64-0.7,1.23l-1.38-0.19
		c0.13-0.59,0.33-1.06,0.62-1.43c0.29-0.36,0.7-0.64,1.24-0.84c0.54-0.2,1.17-0.29,1.88-0.29c0.71,0,1.28,0.08,1.73,0.25
		c0.44,0.17,0.77,0.38,0.98,0.63c0.21,0.25,0.35,0.57,0.44,0.96c0.05,0.24,0.07,0.67,0.07,1.3v1.88c0,1.31,0.03,2.13,0.09,2.48
		c0.06,0.35,0.18,0.68,0.36,1h-1.47C193.83,104.28,193.74,103.94,193.7,103.55z M193.58,100.41c-0.51,0.21-1.28,0.39-2.3,0.53
		c-0.58,0.08-0.99,0.18-1.23,0.28c-0.24,0.1-0.42,0.26-0.55,0.46c-0.13,0.2-0.2,0.42-0.2,0.67c0,0.38,0.14,0.69,0.43,0.94
		c0.28,0.25,0.7,0.38,1.25,0.38c0.54,0,1.02-0.12,1.45-0.36s0.73-0.56,0.93-0.97c0.15-0.32,0.23-0.79,0.23-1.41V100.41z"/>
	<path class="st7" d="M205.45,100.82v-1.1c0.59,0,1-0.03,1.21-0.07s0.42-0.17,0.61-0.38s0.29-0.47,0.29-0.78
		c0-0.38-0.13-0.68-0.38-0.91s-0.58-0.34-0.98-0.34c-0.79,0-1.35,0.47-1.66,1.4l-1.34-0.22c0.42-1.56,1.42-2.34,3.02-2.34
		c0.89,0,1.58,0.24,2.08,0.73s0.75,1.06,0.75,1.73c0,0.68-0.33,1.22-0.98,1.62c0.42,0.22,0.73,0.51,0.94,0.86s0.31,0.76,0.31,1.23
		c0,0.75-0.27,1.35-0.81,1.81s-1.3,0.7-2.27,0.7c-1.89,0-2.99-0.84-3.29-2.52l1.32-0.28c0.12,0.53,0.36,0.94,0.73,1.23
		s0.79,0.44,1.26,0.44s0.87-0.13,1.18-0.4s0.47-0.61,0.47-1.03c0-0.32-0.1-0.6-0.3-0.84s-0.41-0.39-0.63-0.45s-0.63-0.09-1.22-0.09
		C205.72,100.82,205.62,100.82,205.45,100.82z"/>
	<path class="st7" d="M217.38,96.28h1.41v6.33l3.9-6.33h1.52v8.3h-1.41v-6.29l-3.9,6.29h-1.52V96.28z"/>
	<path class="st7" d="M232.75,96.28h1.41v3.45h3.9v-3.45h1.41v8.3h-1.41v-3.68h-3.9v3.68h-1.41V96.28z"/>
</g>
<g class="st6">
	<path class="st7" d="M42.39,200.57h-1.49v-9.52c-0.36,0.34-0.83,0.69-1.42,1.03c-0.58,0.34-1.11,0.6-1.57,0.77v-1.44
		c0.84-0.39,1.57-0.87,2.19-1.43s1.07-1.1,1.33-1.63h0.96V200.57z"/>
	<path class="st7" d="M52.2,194.57c0-1.44,0.15-2.6,0.44-3.47c0.3-0.88,0.74-1.55,1.32-2.03c0.58-0.48,1.32-0.71,2.2-0.71
		c0.65,0,1.23,0.13,1.72,0.39s0.9,0.64,1.22,1.14s0.57,1.1,0.76,1.81s0.27,1.67,0.27,2.88c0,1.43-0.15,2.58-0.44,3.46
		s-0.73,1.55-1.32,2.03c-0.58,0.48-1.32,0.72-2.21,0.72c-1.17,0-2.09-0.42-2.76-1.26C52.6,198.51,52.2,196.86,52.2,194.57z
		 M53.73,194.57c0,2,0.23,3.33,0.7,3.99c0.47,0.66,1.04,0.99,1.73,0.99s1.26-0.33,1.73-1c0.47-0.66,0.7-1.99,0.7-3.98
		c0-2-0.23-3.33-0.7-3.99c-0.47-0.66-1.05-0.99-1.75-0.99c-0.69,0-1.23,0.29-1.64,0.87C53.99,191.2,53.73,192.57,53.73,194.57z"/>
	<path class="st7" d="M79.49,191.76h6.94v8.82h-1.49V193h-3.96v4.39c0,1.02-0.03,1.7-0.1,2.03s-0.25,0.61-0.55,0.86
		c-0.3,0.24-0.73,0.37-1.29,0.37c-0.35,0-0.75-0.02-1.2-0.07v-1.25h0.66c0.31,0,0.53-0.03,0.66-0.09s0.22-0.17,0.27-0.3
		c0.04-0.14,0.07-0.59,0.07-1.35V191.76z"/>
	<path class="st7" d="M100.7,197.73l1.54,0.19c-0.24,0.9-0.69,1.6-1.35,2.1s-1.5,0.75-2.52,0.75c-1.29,0-2.31-0.4-3.07-1.19
		c-0.76-0.79-1.13-1.91-1.13-3.34c0-1.48,0.38-2.63,1.15-3.45s1.75-1.23,2.97-1.23c1.18,0,2.14,0.4,2.89,1.2
		c0.75,0.8,1.12,1.93,1.12,3.39c0,0.09,0,0.22-0.01,0.4h-6.57c0.06,0.97,0.33,1.71,0.82,2.22c0.49,0.51,1.11,0.77,1.84,0.77
		c0.55,0,1.02-0.14,1.4-0.43S100.47,198.37,100.7,197.73z M95.79,195.32h4.92c-0.07-0.74-0.25-1.3-0.56-1.67
		c-0.48-0.58-1.09-0.86-1.85-0.86c-0.69,0-1.26,0.23-1.73,0.69C96.1,193.94,95.84,194.55,95.79,195.32z"/>
	<path class="st7" d="M108.73,191.76h7.16V193h-2.84v7.58h-1.49V193h-2.84V191.76z"/>
	<path class="st7" d="M134.02,191.76h3.44c0.85,0,1.48,0.07,1.89,0.21c0.41,0.14,0.77,0.4,1.06,0.78c0.3,0.38,0.44,0.83,0.44,1.35
		c0,0.42-0.09,0.79-0.26,1.1c-0.17,0.31-0.44,0.57-0.78,0.79c0.42,0.14,0.76,0.4,1.03,0.78c0.27,0.38,0.41,0.83,0.41,1.35
		c-0.06,0.83-0.35,1.46-0.9,1.86c-0.54,0.4-1.33,0.61-2.37,0.61h-3.98V191.76z M135.52,195.47h1.59c0.64,0,1.07-0.03,1.31-0.1
		s0.45-0.2,0.64-0.4s0.28-0.44,0.28-0.73c0-0.46-0.16-0.79-0.49-0.97c-0.33-0.18-0.89-0.27-1.69-0.27h-1.64V195.47z M135.52,199.34
		h1.97c0.85,0,1.43-0.1,1.74-0.29s0.48-0.54,0.5-1.02c0-0.28-0.09-0.54-0.27-0.78c-0.18-0.24-0.42-0.39-0.71-0.46
		s-0.76-0.1-1.41-0.1h-1.81V199.34z"/>
	<path class="st7" d="M148.88,191.76h2.32l2.32,7.06l2.57-7.06h2.15v8.82h-1.49v-7.1l-2.61,7.1h-1.34l-2.46-7.44v7.44h-1.46V191.76z
		"/>
	<path class="st7" d="M172.54,197.73l1.54,0.19c-0.24,0.9-0.69,1.6-1.35,2.1c-0.66,0.5-1.5,0.75-2.52,0.75
		c-1.29,0-2.31-0.4-3.07-1.19c-0.76-0.79-1.13-1.91-1.13-3.34c0-1.48,0.38-2.63,1.15-3.45s1.75-1.23,2.97-1.23
		c1.18,0,2.14,0.4,2.89,1.2c0.75,0.8,1.12,1.93,1.12,3.39c0,0.09,0,0.22-0.01,0.4h-6.57c0.05,0.97,0.33,1.71,0.82,2.22
		c0.49,0.51,1.11,0.77,1.84,0.77c0.55,0,1.02-0.14,1.4-0.43C172.01,198.82,172.32,198.37,172.54,197.73z M167.64,195.32h4.92
		c-0.07-0.74-0.25-1.3-0.56-1.67c-0.48-0.58-1.09-0.86-1.85-0.86c-0.69,0-1.26,0.23-1.73,0.69
		C167.95,193.94,167.69,194.55,167.64,195.32z"/>
	<path class="st7" d="M187.7,197.34l1.47,0.19c-0.16,1.01-0.57,1.81-1.23,2.38c-0.66,0.57-1.47,0.86-2.44,0.86
		c-1.21,0-2.18-0.39-2.91-1.18c-0.73-0.79-1.1-1.92-1.1-3.39c0-0.95,0.16-1.78,0.47-2.5s0.79-1.25,1.44-1.61
		c0.65-0.36,1.35-0.54,2.1-0.54c0.96,0,1.74,0.24,2.35,0.73c0.61,0.48,1,1.17,1.17,2.06l-1.45,0.22c-0.14-0.59-0.38-1.04-0.74-1.34
		c-0.35-0.3-0.78-0.45-1.27-0.45c-0.75,0-1.36,0.27-1.83,0.81c-0.47,0.54-0.71,1.39-0.71,2.56c0,1.18,0.23,2.04,0.68,2.58
		c0.45,0.54,1.05,0.8,1.78,0.8c0.59,0,1.08-0.18,1.47-0.54C187.35,198.64,187.6,198.09,187.7,197.34z"/>
	<path class="st7" d="M195.63,191.76h7.16V193h-2.84v7.58h-1.49V193h-2.84V191.76z"/>
	<path class="st7" d="M216.05,197.73l1.54,0.19c-0.24,0.9-0.69,1.6-1.35,2.1c-0.66,0.5-1.5,0.75-2.52,0.75
		c-1.29,0-2.31-0.4-3.07-1.19c-0.76-0.79-1.13-1.91-1.13-3.34c0-1.48,0.38-2.63,1.15-3.45s1.75-1.23,2.97-1.23
		c1.18,0,2.14,0.4,2.89,1.2c0.75,0.8,1.12,1.93,1.12,3.39c0,0.09,0,0.22-0.01,0.4h-6.57c0.05,0.97,0.33,1.71,0.82,2.22
		c0.49,0.51,1.11,0.77,1.84,0.77c0.55,0,1.02-0.14,1.4-0.43C215.51,198.82,215.82,198.37,216.05,197.73z M211.14,195.32h4.92
		c-0.07-0.74-0.25-1.3-0.56-1.67c-0.48-0.58-1.09-0.86-1.85-0.86c-0.69,0-1.26,0.23-1.73,0.69
		C211.45,193.94,211.19,194.55,211.14,195.32z"/>
</g>
</svg>
