<?xml version="1.0" encoding="utf-8"?>
<!-- Generator: Adobe Illustrator 25.3.1, SVG Export Plug-In . SVG Version: 6.00 Build 0)  -->
<svg version="1.1" id="Layer_1" xmlns="http://www.w3.org/2000/svg" xmlns:xlink="http://www.w3.org/1999/xlink" x="0px" y="0px"
	 viewBox="0 0 300 300" enable-background="new 0 0 300 300" width="300" height="300" xml:space="preserve">
<g>
	<path fill="#FEFEFE" d="M150,214.893c-49.273,0-98.546-0.011-147.819,0.048c-1.71,0.002-2.048-0.335-2.046-2.044
		c0.061-41.931,0.061-83.863,0-125.794c-0.002-1.709,0.336-2.045,2.045-2.044c98.546,0.053,197.092,0.053,295.637,0
		c1.71-0.001,2.048,0.334,2.046,2.044c-0.061,41.931-0.061,83.863,0,125.794c0.003,1.709-0.335,2.047-2.045,2.045
		C248.546,214.882,199.273,214.893,150,214.893z M111.912,159.843c0.099,0.102,0.2,0.203,0.303,0.301
		c-0.268,1.866-1.41,3.353-2.19,4.993c-1.323,2.779-2.679,5.543-3.219,8.605c-0.317,1.795-0.028,3.51,1.275,4.863
		c2.782,2.89,6.709,1.946,8.071-1.915c1.369-3.88,0.683-7.911,0.779-11.878c0.034-1.396,0.265-2.103,1.82-2.625
		c4.349-1.461,7.05-4.561,7.746-9.194c0.12-0.796,0.229-1.92-0.747-2.156c-1.153-0.278-1.425,0.783-1.68,1.705
		c-0.755,2.732-2.467,4.661-5.072,5.768c-1.224,0.52-2.084,0.723-2.082-1.269c0.006-5.564-0.213-11.128-0.355-16.692
		c-0.029-1.136,0.222-2.64-1.423-2.702c-1.787-0.068-1.992,1.369-1.986,2.816c0.014,3.244-0.01,6.488-0.023,9.733
		c-0.016,3.999-3.183,7.816-6.869,8.285c-3.498,0.445-6.793-2.346-7.765-6.552c-0.895-3.869-0.314-7.787-0.401-11.682
		c-0.024-1.067-0.106-2.102-1.463-2.167c-1.36-0.064-1.502,0.939-1.642,2.013c-0.488,3.724-0.646,7.443-0.004,11.16
		c0.213,1.234-0.188,2.308-0.739,3.333c-1.733,3.219-5.697,4.64-10.094,3.504c1.816-1.547,2.992-3.45,4.243-5.285
		c4.093-6.005,1.824-13.111-4.562-14.187c-3.697-0.623-7.097,0.317-10.098,2.593c-1.151,0.873-2.279,1.778-3.544,2.767
		c-0.424-1.867,0.291-3.224,0.91-4.556c0.876-1.882,1.906-3.692,2.834-5.551c1.222-2.448,2.568-4.858,3.013-7.606
		c0.551-3.408-1.557-6.297-4.791-6.649c-2.809-0.305-4.931,1.997-5.073,5.506c-0.134,3.317-0.338,6.633-0.382,9.951
		c-0.075,5.656-0.124,11.314-0.033,16.969c0.041,2.555-0.865,4.527-2.799,6.074c-1.269,1.015-2.673,1.756-4.36,1.109
		c-1.708-0.655-2.277-2.178-2.401-3.783c-0.167-2.151-0.115-4.322-0.112-6.484c0.004-3.244,0.072-6.488,0.057-9.732
		c-0.004-0.93-0.217-1.926-1.353-2.091c-1.091-0.159-1.645,0.601-1.959,1.545c-0.121,0.363,0.051,0.839-0.447,1.082
		c-0.213-0.075-0.467-0.122-0.675-0.245c-6.81-4.03-17.306-0.431-17.931,10.251c-0.387,6.61-3.944,9.584-10.917,8.48
		c0.798-1.042,1.531-2.012,2.278-2.971c1.436-1.845,2.736-3.763,3.399-6.043c1.409-4.843-1.019-9.486-5.692-10.482
		c-3.075-0.655-6.058-0.221-8.921,1.331c-2.053,1.113-3.531,2.904-5.604,4.391c-0.008-2.453,0.869-4.31,1.81-6.153
		c1.919-3.762,4.263-7.332,5.138-11.563c0.741-3.58-0.944-6.603-4.011-7.11c-3.104-0.513-5.542,1.812-5.871,5.616
		c-0.043,0.496-0.017,0.998-0.021,1.497c-0.04,5.157-0.107,10.314-0.111,15.472c-0.005,5.989,0.056,11.979,0.06,17.968
		c0.001,1.068,0.146,2.039,1.227,2.499c0.991,0.421,1.551-0.305,2.021-1.004c0.31-0.461,0.594-0.82,1.179-0.482
		c3.819,2.205,7.998,1.238,11.99,1.106c4.992-0.165,10.034-0.815,13.109-5.698c4.587,6.394,11.209,7.696,17.861,3.477
		c1.016-0.644,1.303-0.13,1.768,0.428c1.278,1.536,2.911,2.044,4.878,1.973c2.463-0.09,4.259-1.564,6.17-2.836
		c0.138,0.27,0.235,0.407,0.281,0.559c0.911,3.049,0.924,3.068,3.426,1.145c0.408-0.314,0.686-0.31,1.094-0.133
		c4.888,2.129,9.944,1.172,14.966,0.792c4.136-0.313,7.681-1.8,10.122-5.376c1.346,1.61,2.584,3.035,4.284,4.021
		C104.583,162.981,108.269,161.857,111.912,159.843z M256.438,140.056c1.221,0.166,1.544,0.782,1.945,1.297
		c4.943,6.354,9.87,12.72,14.841,19.052c0.746,0.95,1.545,2.163,3.029,1.74c1.566-0.447,1.081-1.88,1.086-2.968
		c0.031-7.486,0.017-14.973,0.016-22.459c0-0.582,0.011-1.166-0.027-1.746c-0.065-0.995-0.689-1.535-1.618-1.563
		c-1.039-0.031-1.426,0.667-1.423,1.638c0.006,1.58,0.025,3.161-0.007,4.741c-0.103,5.188,0.269,10.39-0.315,16.093
		c-2.448-3.101-4.554-5.836-6.732-8.512c-3.452-4.242-6.38-8.907-10.326-12.75c-0.738-0.719-1.502-1.426-2.613-0.945
		c-1.178,0.51-0.935,1.639-0.94,2.612c-0.017,3.161-0.01,6.322-0.011,9.483c-0.001,4.409-0.021,8.817,0.011,13.226
		c0.01,1.336-0.476,3.294,1.621,3.247c2.155-0.048,1.397-2.075,1.438-3.34c0.092-2.825,0.025-5.655,0.024-8.484
		C256.437,147.033,256.438,143.647,256.438,140.056z M223.402,147.684c0,3.988,0.013,7.976-0.008,11.964
		c-0.007,1.302,0.223,2.35,1.839,2.35c5.652,0.002,11.304,0.015,16.956-0.003c1.108-0.004,2.028-0.5,2.027-1.711
		c-0.001-1.279-1.073-1.267-2.011-1.268c-2.743-0.004-5.489,0.084-8.228-0.025c-2.292-0.091-5.252,1.055-6.697-0.515
		c-1.407-1.529-0.233-4.459-0.473-6.754c-0.202-1.931,0.625-2.413,2.43-2.355c3.653,0.117,7.313,0.047,10.971,0.023
		c1.106-0.007,2.042-0.479,2.091-1.681c0.053-1.322-1.014-1.591-2.067-1.611c-2.077-0.039-4.156-0.008-6.234-0.008
		c-7.303,0-7.254,0-7.199-7.284c0.013-1.685,0.427-2.344,2.224-2.293c4.153,0.119,8.311,0.043,12.467,0.036
		c1.074-0.002,2.374,0.17,2.414-1.408c0.045-1.742-1.338-1.585-2.505-1.586c-5.07-0.006-10.142,0.063-15.21-0.038
		c-2.019-0.04-2.874,0.604-2.815,2.704C223.48,140.038,223.403,143.863,223.402,147.684z M175.59,162.481
		c0.333,0,0.666,0.004,0.999-0.001c5.089-0.065,8.69-2.767,9.27-6.956c0.593-4.278-1.713-7.168-7.015-8.75
		c-2.305-0.688-4.676-1.188-6.919-2.035c-2.031-0.767-3.356-2.36-2.864-4.669c0.46-2.16,2.013-3.378,4.245-3.606
		c2.894-0.296,5.67,0.068,8.106,1.777c1.201,0.843,2.363,1.177,3.158-0.273c0.777-1.416-0.494-2.174-1.466-2.716
		c-3.043-1.695-6.325-2.568-9.824-2.088c-4.547,0.623-7.444,3.359-7.757,7.153c-0.337,4.082,1.649,6.557,6.431,8.233
		c2.43,0.852,5.021,1.081,7.395,2.182c1.832,0.85,3.179,1.955,3.035,4.065c-0.151,2.221-1.486,3.602-3.644,4.216
		c-4.137,1.177-7.692-0.209-10.982-2.543c-0.997-0.707-1.851-1.289-2.753-0.102c-0.965,1.269-0.185,2.012,0.871,2.83
		C168.756,161.429,171.971,162.512,175.59,162.481z M159.215,160.563c-0.175-0.488-0.333-1.051-0.572-1.577
		c-3.574-7.852-7.169-15.695-10.728-23.554c-0.55-1.215-1.254-2.246-2.677-2.251c-1.378-0.005-1.893,1.136-2.392,2.221
		c-2.39,5.202-4.808,10.391-7.193,15.595c-1.313,2.865-2.6,5.742-3.859,8.632c-0.424,0.972-0.556,2.045,0.608,2.585
		c1.168,0.541,1.876-0.224,2.332-1.219c0.691-1.507,1.377-3.018,2.014-4.548c0.529-1.27,1.292-1.984,2.807-1.949
		c3.654,0.084,7.312,0.063,10.968,0.013c1.71-0.023,2.808,0.641,3.444,2.258c0.636,1.618,1.399,3.189,2.16,4.755
		c0.374,0.771,1.091,1.062,1.888,0.763C158.728,162.019,159.338,161.558,159.215,160.563z M194.975,148.051c0,1.992,0,3.983,0,5.975
		s-0.006,3.984,0.005,5.975c0.006,1.107-0.005,2.352,1.54,2.323c1.462-0.027,1.906-1.089,1.899-2.408
		c-0.01-1.992,0.086-3.989-0.032-5.974c-0.094-1.578,0.548-2.011,2.023-1.96c2.321,0.08,4.655,0.102,6.971-0.042
		c4.721-0.293,8.559-3.836,8.986-8.14c0.501-5.057-1.88-8.457-7.088-9.821c-3.663-0.96-7.441-0.158-11.15-0.455
		c-2.376-0.19-3.296,0.634-3.197,3.076C195.086,140.411,194.972,144.234,194.975,148.051z M288.614,130.646
		c-3.13-0.04-5.646,2.322-5.721,5.37c-0.079,3.233,2.34,5.848,5.452,5.891c3.251,0.045,5.919-2.655,5.88-5.949
		C294.194,133.283,291.446,130.682,288.614,130.646z"/>
	<path fill="#B2A5CE" d="M111.912,159.843c-3.643,2.015-7.329,3.138-11.315,0.826c-1.7-0.986-2.938-2.41-4.284-4.021
		c-2.441,3.577-5.986,5.064-10.122,5.376c-5.022,0.38-10.078,1.337-14.966-0.792c-0.407-0.177-0.685-0.181-1.094,0.133
		c-2.502,1.923-2.515,1.904-3.426-1.145c-0.046-0.152-0.143-0.289-0.281-0.559c-1.911,1.272-3.707,2.747-6.17,2.836
		c-1.967,0.072-3.6-0.437-4.878-1.973c-0.464-0.558-0.752-1.072-1.768-0.428c-6.652,4.219-13.274,2.917-17.861-3.477
		c-3.075,4.883-8.117,5.534-13.109,5.698c-3.991,0.132-8.171,1.099-11.99-1.106c-0.585-0.338-0.87,0.021-1.179,0.482
		c-0.47,0.699-1.03,1.425-2.021,1.004c-1.081-0.459-1.227-1.431-1.227-2.499c-0.004-5.989-0.065-11.979-0.06-17.968
		c0.004-5.157,0.072-10.314,0.111-15.472c0.004-0.499-0.022-1.001,0.021-1.497c0.329-3.804,2.767-6.129,5.871-5.616
		c3.068,0.507,4.752,3.529,4.011,7.11c-0.875,4.231-3.219,7.801-5.138,11.563c-0.94,1.844-1.818,3.7-1.81,6.153
		c2.073-1.486,3.551-3.278,5.604-4.391c2.863-1.552,5.846-1.987,8.921-1.331c4.673,0.996,7.1,5.639,5.692,10.482
		c-0.663,2.281-1.963,4.199-3.399,6.043c-0.747,0.959-1.48,1.929-2.278,2.971c6.974,1.104,10.531-1.87,10.917-8.48
		c0.625-10.682,11.121-14.281,17.931-10.251c0.208,0.123,0.462,0.17,0.675,0.245c0.498-0.244,0.326-0.72,0.447-1.082
		c0.314-0.944,0.868-1.704,1.959-1.545c1.136,0.165,1.349,1.161,1.353,2.091c0.015,3.244-0.053,6.488-0.057,9.732
		c-0.003,2.162-0.054,4.332,0.112,6.484c0.124,1.605,0.693,3.128,2.401,3.783c1.687,0.647,3.092-0.094,4.36-1.109
		c1.934-1.547,2.84-3.519,2.799-6.074c-0.09-5.655-0.042-11.313,0.033-16.969c0.044-3.318,0.248-6.634,0.382-9.951
		c0.142-3.51,2.265-5.812,5.073-5.506c3.234,0.352,5.343,3.24,4.791,6.649c-0.444,2.748-1.791,5.158-3.013,7.606
		c-0.928,1.859-1.958,3.669-2.834,5.551c-0.62,1.332-1.334,2.689-0.91,4.556c1.264-0.989,2.392-1.893,3.544-2.767
		c3-2.276,6.401-3.216,10.098-2.593c6.386,1.077,8.655,8.183,4.562,14.187c-1.251,1.836-2.427,3.738-4.243,5.285
		c4.397,1.136,8.361-0.285,10.094-3.504c0.552-1.025,0.952-2.099,0.739-3.333c-0.642-3.717-0.484-7.436,0.004-11.16
		c0.141-1.075,0.283-2.078,1.642-2.013c1.358,0.064,1.44,1.099,1.463,2.167c0.087,3.895-0.494,7.812,0.401,11.682
		c0.972,4.205,4.267,6.997,7.765,6.552c3.686-0.469,6.853-4.286,6.869-8.285c0.013-3.244,0.037-6.489,0.023-9.733
		c-0.006-1.447,0.199-2.884,1.986-2.816c1.645,0.062,1.394,1.567,1.423,2.702c0.142,5.564,0.361,11.128,0.355,16.692
		c-0.002,1.992,0.858,1.788,2.082,1.269c2.605-1.106,4.317-3.035,5.072-5.768c0.255-0.923,0.528-1.983,1.68-1.705
		c0.976,0.235,0.866,1.36,0.747,2.156c-0.697,4.633-3.397,7.734-7.746,9.194c-1.555,0.522-1.786,1.229-1.82,2.625
		c-0.096,3.967,0.59,7.998-0.779,11.878c-1.362,3.86-5.29,4.805-8.071,1.915c-1.302-1.353-1.592-3.069-1.275-4.863
		c0.541-3.062,1.897-5.826,3.219-8.605c0.78-1.64,1.922-3.127,2.189-4.994c0.163-0.167,0.347-0.349,0.052-0.533
		C112.216,159.579,112.034,159.76,111.912,159.843z M53.665,150.261c0-1.21,0.001-2.124,0-3.039
		c-0.005-2.737-1.346-4.666-3.916-5.638c-4.005-1.514-9.11,0.62-10.927,4.568c-2.198,4.776-0.704,10.268,3.37,12.39
		c4.041,2.105,8.921,0.876,10.925-2.707C54.176,153.941,53.383,151.911,53.665,150.261z M81.287,141.472
		c-5.31-0.56-10.795,6.496-11.148,12.016c-0.225,3.521,3.232,6.213,6.64,5.188c5.008-1.505,8.056-5.067,9.779-9.816
		C88.285,144.097,86.307,141.411,81.287,141.472z M9.65,153.688c-0.032,3.468,3.201,5.947,6.577,5.044
		c4.742-1.269,9.84-7.216,10.369-12.097c0.302-2.779-1.596-4.953-4.493-5.148C15.73,141.058,9.713,146.953,9.65,153.688z
		 M113.778,165.003c-1.553,2.955-3.479,5.699-3.773,9.116c-0.116,1.348,0.342,2.394,1.686,2.631
		c1.464,0.258,1.666-0.972,1.919-2.046C114.366,171.506,113.878,168.271,113.778,165.003z M9.214,134.655
		c1.645-3.244,2.828-5.93,3.681-8.744c0.496-1.635-0.404-2.968-1.87-3.2c-1.367-0.216-1.803,1.162-1.808,2.425
		C9.207,128.076,9.214,131.016,9.214,134.655z M69.691,134.027c0.186,0.023,0.372,0.045,0.557,0.068
		c1.011-2.51,2.064-5.003,3.016-7.535c0.517-1.375,0.824-2.994-1.131-3.367c-1.71-0.326-2.304,1.264-2.387,2.54
		C69.567,128.487,69.691,131.261,69.691,134.027z"/>
	<path fill="#B2A5CE" d="M256.438,140.056c0,3.59-0.001,6.976,0,10.362c0.001,2.828,0.068,5.658-0.024,8.484
		c-0.041,1.264,0.717,3.291-1.438,3.34c-2.097,0.047-1.612-1.912-1.621-3.247c-0.032-4.408-0.012-8.817-0.011-13.226
		c0.001-3.161-0.006-6.322,0.011-9.483c0.005-0.973-0.238-2.102,0.94-2.612c1.111-0.481,1.875,0.226,2.613,0.945
		c3.946,3.843,6.874,8.508,10.326,12.75c2.178,2.676,4.284,5.412,6.732,8.512c0.585-5.703,0.213-10.905,0.315-16.093
		c0.031-1.58,0.012-3.161,0.007-4.741c-0.003-0.971,0.383-1.669,1.423-1.638c0.929,0.028,1.552,0.568,1.618,1.563
		c0.038,0.58,0.027,1.164,0.027,1.746c0.001,7.486,0.015,14.973-0.016,22.459c-0.004,1.088,0.48,2.521-1.086,2.968
		c-1.484,0.424-2.283-0.789-3.029-1.74c-4.972-6.331-9.898-12.698-14.841-19.052C257.982,140.838,257.659,140.223,256.438,140.056z"
		/>
	<path fill="#B2A5CE" d="M223.403,147.684c0.001-3.822,0.077-7.646-0.03-11.465c-0.059-2.1,0.797-2.745,2.815-2.704
		c5.068,0.101,10.14,0.032,15.21,0.038c1.167,0.001,2.549-0.156,2.505,1.586c-0.04,1.578-1.34,1.407-2.414,1.408
		c-4.156,0.007-8.314,0.083-12.467-0.036c-1.797-0.052-2.211,0.608-2.224,2.293c-0.055,7.284-0.104,7.284,7.199,7.284
		c2.078,0,4.156-0.031,6.234,0.008c1.053,0.02,2.121,0.288,2.067,1.611c-0.048,1.202-0.985,1.674-2.091,1.681
		c-3.657,0.024-7.317,0.094-10.971-0.023c-1.804-0.058-2.632,0.424-2.43,2.355c0.24,2.295-0.934,5.226,0.473,6.754
		c1.445,1.57,4.405,0.424,6.697,0.515c2.739,0.109,5.485,0.021,8.228,0.025c0.937,0.001,2.01-0.01,2.011,1.268
		c0.001,1.211-0.919,1.707-2.027,1.711c-5.652,0.019-11.304,0.005-16.956,0.003c-1.616-0.001-1.846-1.048-1.839-2.35
		C223.415,155.661,223.402,151.673,223.403,147.684z"/>
	<path fill="#B2A5CE" d="M175.59,162.481c-3.619,0.031-6.834-1.052-9.713-3.283c-1.056-0.819-1.836-1.561-0.871-2.83
		c0.902-1.186,1.756-0.605,2.753,0.102c3.29,2.334,6.844,3.721,10.982,2.543c2.159-0.614,3.493-1.995,3.644-4.216
		c0.143-2.11-1.203-3.216-3.035-4.065c-2.374-1.101-4.965-1.33-7.395-2.182c-4.782-1.676-6.768-4.151-6.431-8.233
		c0.313-3.794,3.211-6.53,7.757-7.153c3.499-0.48,6.782,0.393,9.824,2.088c0.972,0.542,2.243,1.299,1.466,2.716
		c-0.795,1.45-1.957,1.116-3.158,0.273c-2.436-1.709-5.213-2.073-8.106-1.777c-2.232,0.228-3.785,1.446-4.245,3.606
		c-0.492,2.31,0.833,3.902,2.864,4.669c2.242,0.847,4.614,1.347,6.919,2.035c5.302,1.582,7.608,4.472,7.015,8.75
		c-0.58,4.188-4.181,6.89-9.27,6.956C176.256,162.484,175.923,162.481,175.59,162.481z"/>
	<path fill="#B2A5CE" d="M159.215,160.563c0.123,0.994-0.487,1.456-1.199,1.723c-0.797,0.299-1.514,0.008-1.888-0.763
		c-0.76-1.566-1.523-3.137-2.16-4.755c-0.636-1.617-1.734-2.281-3.444-2.258c-3.656,0.049-7.314,0.071-10.968-0.013
		c-1.515-0.035-2.278,0.679-2.807,1.949c-0.637,1.53-1.323,3.041-2.014,4.548c-0.456,0.995-1.164,1.76-2.332,1.219
		c-1.164-0.54-1.032-1.613-0.608-2.585c1.259-2.889,2.546-5.767,3.859-8.632c2.385-5.204,4.803-10.393,7.193-15.595
		c0.499-1.085,1.014-2.226,2.392-2.221c1.423,0.005,2.126,1.036,2.677,2.251c3.559,7.859,7.155,15.701,10.728,23.554
		C158.882,159.512,159.04,160.075,159.215,160.563z M138.926,151.527c4.075,0,7.639-0.005,11.203,0.003
		c0.927,0.002,1.483-0.202,0.981-1.297c-1.896-4.135-3.772-8.279-5.862-12.874C143.081,142.215,141.106,146.64,138.926,151.527z"/>
	<path fill="#B2A5CE" d="M194.973,148.051c-0.001-3.818,0.113-7.64-0.042-11.451c-0.1-2.442,0.821-3.266,3.197-3.076
		c3.709,0.297,7.487-0.504,11.15,0.455c5.208,1.364,7.589,4.764,7.088,9.821c-0.426,4.304-4.265,7.847-8.986,8.14
		c-2.316,0.144-4.65,0.122-6.971,0.042c-1.474-0.051-2.116,0.381-2.023,1.96c0.118,1.985,0.022,3.982,0.032,5.974
		c0.006,1.319-0.437,2.381-1.899,2.408c-1.544,0.029-1.534-1.216-1.54-2.323c-0.011-1.992-0.004-3.983-0.005-5.975
		S194.975,150.043,194.973,148.051z M198.416,142.717c0,1.576,0.001,3.152,0,4.728c0,0.784,0.04,1.571,1.11,1.55
		c3.138-0.061,6.315,0.422,9.39-0.567c2.391-0.769,4.033-3.138,4.024-5.703c-0.01-2.767-1.427-4.734-4.118-5.525
		c-1.344-0.395-2.723-0.643-4.156-0.645C198.411,136.551,198.411,136.528,198.416,142.717z"/>
	<path fill="#B2A5CE" d="M288.475,130.646c2.832,0.036,5.58,2.637,5.611,5.312c0.039,3.294-2.63,5.994-5.88,5.949
		c-3.111-0.043-5.531-2.658-5.452-5.891C282.829,132.968,285.345,130.606,288.475,130.646z M285.743,139.471
		c1.057,0.951,3.77,1.202,5.471-0.059c1.606-1.57,1.977-4.59-0.424-6.51c-1.795-1.435-4.354-1.058-5.684,0.836
		C283.649,135.814,284.48,138.16,285.743,139.471z"/>
	<path fill="#FCFBFC" d="M53.665,150.261c-0.282,1.65,0.511,3.68-0.549,5.574c-2.004,3.583-6.884,4.812-10.925,2.707
		c-4.074-2.122-5.567-7.614-3.37-12.39c1.817-3.948,6.922-6.082,10.927-4.568c2.57,0.972,3.911,2.901,3.916,5.638
		C53.666,148.137,53.665,149.051,53.665,150.261z"/>
	<path fill="#FCFBFC" d="M81.287,141.472c5.02-0.061,6.999,2.625,5.271,7.388c-1.722,4.749-4.771,8.311-9.779,9.816
		c-3.408,1.024-6.866-1.668-6.64-5.188C70.492,147.967,75.977,140.912,81.287,141.472z"/>
	<path fill="#FCFBFC" d="M9.65,153.688c0.063-6.735,6.08-12.63,12.454-12.201c2.897,0.195,4.794,2.369,4.493,5.148
		c-0.53,4.881-5.627,10.828-10.369,12.097C12.851,159.635,9.618,157.156,9.65,153.688z"/>
	<path fill="#FCFBFC" d="M113.778,165.003c0.099,3.268,0.588,6.503-0.167,9.701c-0.254,1.074-0.455,2.304-1.919,2.046
		c-1.344-0.237-1.802-1.283-1.686-2.631C110.299,170.702,112.225,167.958,113.778,165.003z"/>
	<path fill="#FCFBFC" d="M9.214,134.655c0-3.639-0.008-6.579,0.004-9.519c0.005-1.263,0.441-2.64,1.808-2.425
		c1.466,0.231,2.366,1.564,1.87,3.2C12.042,128.725,10.859,131.411,9.214,134.655z"/>
	<path fill="#FCFBFC" d="M69.691,134.027c0-2.766-0.124-5.54,0.055-8.294c0.083-1.276,0.677-2.867,2.387-2.54
		c1.955,0.373,1.648,1.993,1.131,3.367c-0.952,2.532-2.005,5.025-3.016,7.535C70.062,134.072,69.877,134.049,69.691,134.027z"/>
	<path fill="#FEFEFE" d="M111.912,159.843c0.121-0.083,0.303-0.264,0.354-0.233c0.296,0.184,0.111,0.365-0.052,0.533
		C112.113,160.045,112.012,159.945,111.912,159.843z"/>
	<path fill="#FCFBFC" d="M138.926,151.527c2.18-4.887,4.155-9.312,6.321-14.168c2.09,4.595,3.966,8.739,5.862,12.874
		c0.502,1.095-0.054,1.299-0.981,1.297C146.564,151.522,143.001,151.527,138.926,151.527z"/>
	<path fill="#FCFBFC" d="M198.414,142.717c-0.003-6.189-0.003-6.166,6.251-6.161c1.434,0.001,2.812,0.25,4.156,0.645
		c2.691,0.791,4.108,2.758,4.118,5.525c0.01,2.565-1.632,4.933-4.024,5.703c-3.075,0.989-6.253,0.506-9.39,0.567
		c-1.07,0.021-1.11-0.767-1.11-1.55C198.417,145.869,198.416,144.293,198.414,142.717z"/>
	<g>
		<path fill="#B2A5CE" d="M290.756,138.237h-1.268l-0.762-1.261c-0.058-0.096-0.112-0.181-0.164-0.256
			c-0.053-0.075-0.105-0.14-0.159-0.193c-0.054-0.053-0.109-0.094-0.168-0.123c-0.058-0.028-0.121-0.042-0.189-0.042h-0.298v1.876
			h-1.104v-4.901h1.75c1.189,0,1.784,0.444,1.784,1.333c0,0.171-0.026,0.329-0.079,0.474c-0.052,0.145-0.126,0.275-0.222,0.391
			s-0.211,0.216-0.347,0.301s-0.287,0.15-0.453,0.198v0.014c0.073,0.023,0.144,0.06,0.212,0.111c0.068,0.052,0.135,0.111,0.198,0.18
			s0.125,0.142,0.183,0.221c0.059,0.078,0.111,0.155,0.159,0.23L290.756,138.237z M287.748,134.163v1.364h0.479
			c0.237,0,0.428-0.068,0.571-0.205c0.146-0.139,0.219-0.311,0.219-0.516c0-0.428-0.257-0.643-0.769-0.643H287.748z"/>
	</g>
</g>
</svg>
