<svg data-name="Layer 1" xmlns="http://www.w3.org/2000/svg" viewBox="0 0 535 116"><path d="M70.3 72.69c-1.58-1.89-2-4.27-.83-6.09a9.45 9.45 0 001.4-4.6c0-2.83-3.26-7-7.86-7.9-2.8-.53-5.88-.54-8.27-.86-6.66-.9-8.56-3.64-8.56-6.27 0-3.19 3.13-4.07 4.45-4.24 5.44-.68 12.1 3.08 16.91 10.06-2.89-9-9-13.25-16.06-15.29 7.29.57 11.91 3.9 16.68 10.05-3.56-11.23-13.45-14.21-19-14.53-6.36-.37-11.36 1.22-15.32 6.11-.2.25-.52.67-.73 1a5.33 5.33 0 00-.43.7 9.08 9.08 0 00-.42.92 23.43 23.43 0 00-.93 3.59 21.27 21.27 0 01-1.33 4.2 3.11 3.11 0 001.62 1.25 2.56 2.56 0 00.11 2c.33.94 1.05 1.59 1.14 2.74a6.3 6.3 0 01-.72 2.56s2.06-1.34 2.41-2.61c.3-1.06-.2-1.59-.06-2.67a2.2 2.2 0 01.89-1.55A1.73 1.73 0 0138 53.14c-.29 1.35-1.58 3.72-2.56 6.27-1.44 3.66-.7 6.17 2.12 9.59-.16 5.17-1.74 11-1.56 12.38.08.61.48.82 1.1.87h3.22l.5-1.94c2.45-11.09 9.43-13.89 16.18-13 4.41.56 9.48 5.48 9 12.76 0 .66-.27 1.14-.09 1.54a1.21 1.21 0 001.2.67h3.43l.63-.83a19.86 19.86 0 01-.87-8.76zM35.11 45.58a1 1 0 11.89-1.15 1 1 0 01-.89 1.15z"></path><path d="M50.46 104.9A45.92 45.92 0 1196.38 59a46 46 0 01-45.92 45.9m0-84.56A38.65 38.65 0 1089.11 59a38.69 38.69 0 00-38.65-38.66m63.74 12.14h18.33a34.91 34.91 0 019.5 1.08 15.56 15.56 0 015.9 3 9.74 9.74 0 013 4.45 17.87 17.87 0 01.82 5.45 13.26 13.26 0 01-1.48 6.2 11.15 11.15 0 01-5.42 4.71 16.59 16.59 0 014.15 2.5 12.72 12.72 0 012.6 3 10.79 10.79 0 011.34 3.34 16.92 16.92 0 01.37 3.52 18.71 18.71 0 01-1 6.16 12.09 12.09 0 01-3.3 5 16.3 16.3 0 01-6 3.34 29.43 29.43 0 01-9.13 1.22H114.2zm19.37 21.74q5.27 0 7.35-1.93a7.23 7.23 0 002.08-5.56q0-3.78-2.41-5.45t-8.35-1.67h-9.35v14.62zm0 24a20 20 0 005.31-.59 8.15 8.15 0 003.34-1.63 6.2 6.2 0 001.78-2.7 11 11 0 00.52-3.49 8 8 0 00-2.26-6.12q-2.27-2.11-7.83-2.11h-11.5v16.7zm50.02 2.2a18 18 0 01-5.27 4.3 15.55 15.55 0 01-7.57 1.71 17.9 17.9 0 01-5.12-.71 11.78 11.78 0 01-4.12-2.11 9.76 9.76 0 01-2.75-3.6 12.29 12.29 0 01-1-5.16 10.9 10.9 0 011.78-6.49 12.27 12.27 0 014.64-3.9 22.23 22.23 0 016.42-2 63.5 63.5 0 017.13-.7l5.71-.3v-1.59q0-4.38-2.11-6a8.67 8.67 0 00-5.53-1.67q-3.93 0-5.83 1.34a6.28 6.28 0 00-2.49 3.86l-7.72-.82q1-5.64 5.12-8.24t11.21-2.6a20.91 20.91 0 017.61 1.19 12 12 0 014.79 3.26 11.82 11.82 0 012.51 4.89 26.24 26.24 0 01.7 6.27v24.12h-8.09zm-5.57-13a33.75 33.75 0 00-6.12.81 10.52 10.52 0 00-3.6 1.52 4.41 4.41 0 00-1.67 2.15 8.26 8.26 0 00-.41 2.63 5 5 0 001.59 3.93 6.92 6.92 0 004.71 1.41q5.56 0 8.24-2.82a10.66 10.66 0 002.67-7.64v-2.2zm54.7 4.58q-.74 6.9-4.94 10.8t-12 3.9a20.93 20.93 0 01-8.13-1.45 15.2 15.2 0 01-5.75-4.12 17.17 17.17 0 01-3.42-6.42 29.31 29.31 0 01-1.11-8.35 26.75 26.75 0 011.26-8.42 18.3 18.3 0 013.67-6.53 16.34 16.34 0 015.9-4.19 20.12 20.12 0 017.94-1.48 19.48 19.48 0 016.9 1.07 12.94 12.94 0 017.57 7.09 21.4 21.4 0 011.48 5l-8.39 1.26a12.28 12.28 0 00-2.27-5.42q-1.67-2.15-5.6-2.15a8.53 8.53 0 00-4.68 1.19 9.07 9.07 0 00-3 3.08 13.73 13.73 0 00-1.6 4.34 25.65 25.65 0 00-.48 5 26.74 26.74 0 00.52 5.42 13.41 13.41 0 001.63 4.34 8.28 8.28 0 003 2.89 8.88 8.88 0 004.53 1.08 7.86 7.86 0 005.86-2 10 10 0 002.58-5.93zm14.17-39.52V61.8l16.48-14.92h9.87l-13.95 13.13 15.21 25.46h-9.28L253.2 64.84l-6.31 5.64v14.99h-8.23V32.48h8.23zM310 72q-.74 6.9-4.94 10.8t-12 3.9a20.94 20.94 0 01-8.06-1.49 15.2 15.2 0 01-5.75-4.12 17.17 17.17 0 01-3.42-6.42 29.33 29.33 0 01-1.11-8.35A26.75 26.75 0 01276 57.9a18.29 18.29 0 013.67-6.53 16.34 16.34 0 015.9-4.19 20.12 20.12 0 017.94-1.48 19.48 19.48 0 016.9 1.07 12.94 12.94 0 017.59 7.09 21.4 21.4 0 011.48 5l-8.39 1.26a12.27 12.27 0 00-2.27-5.42q-1.67-2.15-5.6-2.15a8.53 8.53 0 00-4.68 1.19 9.07 9.07 0 00-3 3.08 13.72 13.72 0 00-1.6 4.34 25.61 25.61 0 00-.48 5 26.74 26.74 0 00.52 5.42 13.42 13.42 0 001.63 4.34 8.29 8.29 0 003 2.89 8.88 8.88 0 004.53 1.08 7.86 7.86 0 005.86-2 10 10 0 002.51-5.89zm22.9 14.66q-9.06 0-14-5.34t-5-15.14a25.7 25.7 0 011.3-8.39 18.11 18.11 0 013.8-6.46 16.83 16.83 0 016-4.16 20.91 20.91 0 018.09-1.48 20.61 20.61 0 018.16 1.52 16.8 16.8 0 016 4.19 17.61 17.61 0 013.64 6.42 26.24 26.24 0 011.23 8.2 25.57 25.57 0 01-1.41 8.87 18.1 18.1 0 01-4 6.46 16.61 16.61 0 01-6 4 21.41 21.41 0 01-7.72 1.34m.07-6.83q5.34 0 7.83-3.67t2.49-10.06q0-6.31-2.49-9.94T333 52.52q-5.34 0-7.83 3.67t-2.49 9.91q0 6.31 2.41 10t7.9 3.71m32.42-32.93v24.27q0 4.83 1.59 6.61a6.2 6.2 0 004.86 1.78 10.37 10.37 0 003.6-.67 9.93 9.93 0 003.23-1.93 10.12 10.12 0 002.3-3 8.83 8.83 0 00.89-4v-23h8.46v38.53h-8.24v-5.64a17.6 17.6 0 01-5.79 5.2 14.21 14.21 0 01-6.68 1.63q-6.75 0-9.69-3.49T357 72.48v-25.6zm39.93 0v5.64a16.56 16.56 0 015.83-5.2 15.18 15.18 0 016.94-1.63q12.89 0 12.89 14.25v25.53h-8.46V61.28q0-4.67-1.71-6.57a6.45 6.45 0 00-5-1.89 10.73 10.73 0 00-4.12.78 9.77 9.77 0 00-3.23 2.11 10.21 10.21 0 00-2.11 3.08 8.9 8.9 0 00-.78 3.67v23h-8.39V46.88zm29.83 6.68v-6.68h6.08V36.49h8.39v10.39h9.57v6.68h-9.57v20.18a6.26 6.26 0 001.23 4.3 4.64 4.64 0 003.6 1.34 18.89 18.89 0 002.41-.15 12 12 0 002.26-.52L460.4 85a24.3 24.3 0 01-7.72 1.19q-6.38 0-8.91-3.3T441.25 73V53.56zm38.29-6.68v5.71a14.46 14.46 0 014.82-4.68 11.81 11.81 0 016-1.63q1.26 0 2.12.07c.57 0 1.12.12 1.67.22l-1 7.72a9.6 9.6 0 00-1.78-.3q-1-.07-2-.07a10.31 10.31 0 00-4.16.78 9.36 9.36 0 00-3 2 8.6 8.6 0 00-1.85 2.86 8.73 8.73 0 00-.63 3.23v22.68h-8.35V46.88zm22.41 45.42a12.4 12.4 0 004.23.67 5.21 5.21 0 003.49-1.08 10 10 0 002.37-4l1.41-3.71-16.25-37.3h9.8l10.61 27.83 9.72-27.83h9.2l-15.36 39q-1.34 3.41-2.52 6a19.53 19.53 0 01-2.67 4.38 9.88 9.88 0 01-3.53 2.71 12.06 12.06 0 01-5 .93 22.77 22.77 0 01-3.56-.26 23.57 23.57 0 01-3.49-.85z"></path></svg>