<?xml version="1.0" encoding="utf-8"?>
<!-- Generator: Adobe Illustrator 23.0.0, SVG Export Plug-In . SVG Version: 6.00 Build 0)  -->
<svg version="1.1" id="Layer_1" xmlns="http://www.w3.org/2000/svg" xmlns:xlink="http://www.w3.org/1999/xlink" x="0px" y="0px"
	 viewBox="0 0 2500 2500" style="enable-background:new 0 0 2500 2500;" xml:space="preserve">
<style type="text/css">
	.st0{fill:#050505;}
</style>
<g>
	<path class="st0" d="M298.4,1530.9c3.9-4.9,5.4-42.5,4.4-131.8l-1.5-125h56.2c66.9,0,89.4,5.4,110.8,26.9
		c27.8,27.8,18.6,70.3-20.5,90.8l-21,11.2l12.7,7.8c7.3,4.4,29.8,30.8,49.8,58.1c23.4,32.2,43,53.7,53.7,59.6l17.1,8.8l-28.3,0.5
		c-18.1,0-33.7-2.9-41.5-7.8c-7.3-4.4-30.3-30.8-51.3-58.6c-38.1-51.3-49.8-60.5-77.1-60.5h-14.2v57.6c0,38.1,2,59.6,5.9,63.5
		c4.4,4.4-1.5,5.9-27.3,5.9C298.4,1537.7,293.5,1536.7,298.4,1530.9z M411.2,1387.3c24.4-11.7,37.1-39.1,29.3-62.5
		c-8.3-24.4-29.3-36.1-64.5-36.1h-28.3v107.4h23.4C383.8,1396.1,401.9,1392.2,411.2,1387.3z M593.8,1529.9c6.8-6.3,7.8-24.9,7.8-126
		c0-85.4-1.5-119.6-5.9-124s12.7-5.9,78.1-5.9h84v12.2c0,10.7-1,11.7-12.7,7.3c-6.8-2.9-33.2-4.9-58.6-4.9h-45.9v92.8h40.5
		c24.9,0,43-2.4,46.4-5.9c4.4-4.4,5.9-2,5.9,12.7c0,15.6-1,17.6-6.8,13.2c-4.4-3.9-21-5.4-45.4-4.4l-38.1,1.5l-1.5,60.1l-1.5,59.6
		h55.7c49.8,0,57.1-1,69.3-10.7l13.2-10.3l-3.4,16.6c-2,9.3-4.4,18.1-5.9,20.5c-1,2-42.5,3.4-92.3,3.4
		C594.3,1537.7,586.9,1537.2,593.8,1529.9z M830.6,1530.9c3.9-4.9,5.4-42.5,4.4-131.8l-1.5-125h58.1c65.9,0,90.8,5.9,110.8,25.4
		c29.3,29.3,21,80.6-16.6,105.5c-17.6,11.7-24.4,13.2-63,13.2h-43v50.3c0,27.8,2.4,54.7,4.9,60.1c4.9,8.8,3.4,9.3-27.3,9.3
		C830.1,1537.7,825.7,1536.7,830.6,1530.9z M954.6,1392.7c35.6-21,34.7-77.1-1.5-95.2c-10.3-5.4-28.3-8.8-44.9-8.8h-28.3v55.2
		c0,30.8,1.5,57.1,3.9,59.1C889.7,1409.3,938,1402.4,954.6,1392.7z M1128,1532.8c-22.5-6.8-44.9-22.9-55.2-40
		c-8.8-14.2-9.8-27.3-12.2-117.7l-2.4-101.1h28.3c27.3,0,27.8,0.5,22.5,10.3c-3.4,6.8-4.9,40-3.4,101.6c1.5,99.1,3.9,107.9,31.7,126
		c17.6,11.7,70.8,11.2,92.8,0c28.8-15.1,31.3-26.4,29.8-137.7l-1.5-100.1h29.3l-2.4,101.1c-2,80.6-4.4,104.5-10.7,116.2
		c-17.6,32.7-46.9,46.4-97.7,45.9C1157.3,1537.2,1135.3,1535.2,1128,1532.8z M1333,1532.3c6.8-7.8,8.8-239.3,1.5-252.4
		c-3.9-7.8,1-8.3,62-5.9c48.8,2,70.8,4.9,81.5,10.7c48.8,26.4,45.4,74.2-6.8,101.1l-16.6,8.8l19,2.9c40,6.8,66.9,33.7,66.9,67.4
		c0,25.4-12.7,43-42.5,57.6c-21,10.7-31.7,12.2-97.7,14.2C1339.9,1538.2,1327.7,1537.7,1333,1532.3z M1465.8,1507.4
		c27.3-14.2,37.6-37.6,27.8-65.4c-8.3-25.9-30.3-36.1-75.2-36.1h-35.6v112.3h30.8C1435.6,1518.2,1450.2,1515.2,1465.8,1507.4z
		 M1443.9,1379.5c17.1-7.3,31.7-28.8,31.7-46.4c0-5.9-6.3-17.1-14.2-25.9c-12.2-14.2-17.1-15.6-46.4-17.6l-32.2-2v98.6h22
		C1417,1386.3,1434.6,1383.4,1443.9,1379.5z M1587.4,1530.9c3.9-4.9,5.4-42.5,4.4-131.8l-1.5-125h48.8l-1.5,122.1l-1.5,122.1h52.7
		c36.1,0,57.1-2.4,66.4-6.8c14.2-7.8,15.6-5.4,10.3,15.6c-2.9,10.7-3.9,10.7-93.3,10.7C1595.7,1537.7,1582.5,1536.7,1587.4,1530.9z
		 M1816.4,1533.8c4.9-3.4,5.9-32.2,4.9-131.8l-1.5-127.9h29.3c22.5,0,27.3,1.5,22.9,5.9c-7.8,7.8-8.3,234.4-1,248.5
		c4.9,8.8,3.4,9.3-27.8,9.3C1824.2,1537.7,1812.5,1535.7,1816.4,1533.8z M2026.9,1530.4c-35.6-11.2-68.4-36.6-85.9-65.9
		c-13.7-22.5-16.1-31.3-16.1-57.1c0-17.1,2.9-38.6,6.8-47.9c11.7-27.3,44.4-58.6,77.6-73.7c27.8-12.7,34.7-14.2,86.4-14.2
		c43.5,0,62,2.4,83,9.8l26.9,9.8l1.5,25.9l1.5,26.4l-15.6-18.1c-24.9-28.3-49.3-38.6-92.3-38.6c-47.4-0.5-76.2,10.7-101.6,38.1
		c-50.8,55.2-32.7,148.4,35.6,183.1c19.5,10.3,30.8,12.7,63,12.7c48.8,0,79.1-13.2,101.6-43.5l14.6-20l-3.4,26.9
		c-2,14.6-4.4,28.3-5.4,30.3C2194.4,1532.3,2068.9,1544,2026.9,1530.4z M1678.2,1034.8l-107.4-112.3l-1.5,100.1
		c-0.5,63.5,0.5,104,3.9,109.9c4.9,8.8,3.4,9.8-14.6,9.8s-19.5-1-14.6-9.3c2.9-5.9,4.9-53.7,4.9-122.1c0-106.4-0.5-113.3-9.8-122.6
		l-9.8-9.8h28.3l27.8-0.5l88.9,91.8l89.4,91.8l-1.5-91.8l-1-91.3h29.3l-1.5,88.9c-0.5,49.3-1.5,109.9-2.4,134.8l-1,45.4
		L1678.2,1034.8z M412.6,1135.3c7.3-7.3,8.3-22,8.3-125.5c0-77.1-2-120.6-5.4-127.4c-5.4-10.3-5.4-10.3,55.7-7.3
		c87.4,3.9,121.6,21,121.6,60.1c0,22-12.7,39.6-37.6,52.7l-19,9.8l18.1,3.9c44.9,9.3,66.9,31.7,66.9,68.4c0,21-2.4,26.9-16.1,40.5
		c-22.5,22.5-43.9,27.3-127.9,30.3C408.7,1143.2,404.8,1143.2,412.6,1135.3z M542.5,1114.8c24.9-9.8,34.7-24.9,34.7-53.2
		c0-37.6-21.5-51.3-81.1-51.3h-36.6l1,56.2l0.5,56.2h31.3C509.3,1122.6,531.8,1119.2,542.5,1114.8z M534.7,978.6
		c22.9-15.1,26.4-50.3,6.3-70.3c-10.7-10.3-18.1-12.7-46.9-14.2l-34.2-2v100.1l30.8-2.4C507.8,988.4,527.9,983.5,534.7,978.6z
		 M639.2,1131.4c5.9-6.3,38.1-66.9,71.8-134.3c34.2-67.9,62.5-123.5,64-123.5s31.3,57.6,66.4,127.9s67.9,130.9,72.3,134.3
		c6.3,4.9,0.5,5.9-33.7,5.9c-22.9,0-38.6-1.5-35.2-2.9c8.8-3.4,7.3-15.1-7.3-46.4l-13.7-28.3H700.2l-13.2,31.3
		c-7.3,17.6-12.2,35.2-10.7,39.1c2.4,6.3-1.5,7.8-22,7.8h-24.9L639.2,1131.4z M810.6,1040.6c-10.3-25.9-45.9-98.6-48.3-98.6
		s-38.1,73.7-47.4,98.1c-1,2.4,20.5,4.4,47.9,4.4S811.5,1042.6,810.6,1040.6z M947.3,1136.3c4.4-4.4,5.9-38.6,5.9-123
		c0-102.1-1-118.2-8.3-126c-7.3-8.3-6.8-8.8,21.5-8.8c28.8,0,30.3,0.5,48.3,21c10.3,11.2,49.8,53.7,88.4,93.8l70.3,73.2l-1.5-94.2
		l-1.5-93.8h14.2c10.7,0,13.2,2,10.7,7.8c-1.5,4.4-2.9,64-2.9,132.8v125l-15.1-14.6c-8.3-7.8-56.6-57.6-107.4-110.4l-92.3-96.2v104
		c0,73.7,1.5,105,5.9,109.4s0.5,5.9-18.1,5.9S942.9,1140.7,947.3,1136.3z M1231,1131.9c6.3-5.9,38.6-65.4,71.8-132.8
		c33.2-66.9,61-123,62.5-124c1.5-1.5,31.7,55.7,67.4,127c41,82.5,68.4,131.3,74.7,134.8c7.3,3.4-1.5,4.9-33.7,4.9
		c-37.1,0.5-42.5-0.5-35.2-5.9c8.3-5.9,7.8-8.3-7.3-39.1l-16.1-32.7h-120.1l-14.6,29.3c-16.1,31.7-18.1,42-8.3,45.4
		c2.9,1.5-7.3,2.9-22.9,2.9l-29.3,0.5L1231,1131.9z M1400.9,1038.7c-10.3-26.9-44.4-96.7-46.9-96.7s-40,76.2-48.3,98.1
		c-1,2.4,20.5,4.4,47.9,4.4C1391.6,1044.5,1402.9,1043.1,1400.9,1038.7z M1820.8,1131.4c5.9-6.3,37.1-64.9,69.8-130.9
		s61-121.1,63-123c1.5-2,31.7,53.7,66.4,123.5c35.2,70.3,67.9,130.4,73.2,134.3c8.3,5.9,4.9,6.8-30.8,6.8c-37.6,0-39.6-0.5-34.7-8.8
		c4.4-6.8,2.4-14.6-9.8-39.1l-15.1-30.3h-120.1l-15.6,32.2c-12.7,25.4-14.6,33.7-10.3,39.1c4.9,5.9,1.5,6.8-20.5,6.8h-25.4
		L1820.8,1131.4z M1976.6,1009.4c-8.8-19.5-20-43.5-25.4-53.2l-9.3-18.1l-25.4,53.2l-25.4,53.2h101.6L1976.6,1009.4z"/>
</g>
</svg>
