<svg viewBox="0 0 173 17" fill="none" xmlns="http://www.w3.org/2000/svg">
        <path fill-rule="evenodd" clip-rule="evenodd" d="M131.963 15.8181H129.419V0.381618H131.963V15.8181ZM121.876 14.8513H114.11V0.387979H111.566V15.8244H121.889L121.876 14.8513ZM149.225 6.90728H148.78H144.169C143.876 6.90728 143.774 6.83732 143.781 6.52566V1.6982V1.34202H151.871V0.387979H141.199V15.8181H151.89V14.8449H143.806V7.89949H149.225V6.90728Z" fill="#A5926D"></path>
        <path fill-rule="evenodd" clip-rule="evenodd" d="M0 0.362536H6.36029C7.45408 0.339622 8.5396 0.556726 9.54044 0.998565C10.6972 1.41547 11.545 2.41593 11.7665 3.62537C12.0697 4.88861 11.5641 6.20815 10.4945 6.94544C10.0302 7.26345 9.54044 7.53695 9.0507 7.84224C9.34963 7.91856 9.64221 7.98217 9.92206 8.07757C11.3552 8.43111 12.4209 9.63345 12.5997 11.0987C12.8347 12.568 12.1686 14.0354 10.9079 14.8258C9.81342 15.5392 8.52434 15.8948 7.21893 15.8435L0 15.8562V0.362536ZM2.60771 14.6923C3.82889 14.6923 5.00554 14.6923 6.17584 14.6923C6.93546 14.6747 7.68126 14.4856 8.35742 14.1389C9.06382 13.826 9.57553 13.1911 9.73124 12.4344C10.062 10.6853 9.40687 9.06978 7.27617 8.51643C5.72426 8.10301 4.17871 8.35107 2.60771 8.26838V14.6923ZM2.60771 7.28254C3.98154 7.28254 5.31084 7.3525 6.63378 7.28254C7.95936 7.20343 9.03443 6.17943 9.1779 4.85926C9.43117 3.49456 8.6047 2.16118 7.26981 1.78088C7.07865 1.71113 6.88319 1.65377 6.68466 1.60915C5.36918 1.39314 4.03322 1.32912 2.70312 1.41834C2.70312 1.41834 2.66496 1.41834 2.63315 1.46287L2.60771 7.28254Z" fill="#A5926D"></path>
        <path fill-rule="evenodd" clip-rule="evenodd" d="M172.962 15.8562C172.071 15.8562 171.181 15.8562 170.297 15.8562C170.072 15.8647 169.859 15.7534 169.737 15.5636L164.789 8.83445C164.677 8.64974 164.47 8.54396 164.255 8.56096C163.771 8.56096 163.281 8.56096 162.754 8.56096V15.8244H160.209V0.381618H160.464C162.289 0.381618 164.115 0.381618 165.94 0.381618C166.965 0.371661 167.979 0.588874 168.91 1.01765C170.126 1.51321 170.967 2.64271 171.092 3.94974C171.287 5.33872 170.623 6.70777 169.413 7.4161C168.769 7.786 168.105 8.11732 167.422 8.40831C167.454 8.46994 167.49 8.52942 167.53 8.5864L172.796 15.6145C172.851 15.6746 172.911 15.7299 172.975 15.7799L172.962 15.8562ZM162.747 7.82952C163.612 7.82605 164.477 7.77296 165.336 7.67052C165.923 7.55382 166.483 7.3249 166.983 6.99632C168.099 6.26339 168.596 4.88212 168.204 3.60629C167.888 2.36856 166.819 1.46893 165.546 1.36746C164.744 1.2975 163.937 1.36746 163.135 1.30386C162.798 1.30386 162.734 1.41199 162.741 1.71728C162.741 3.42184 162.741 5.1264 162.741 6.80551L162.747 7.82952Z" fill="#A5926D"></path>
        <path fill-rule="evenodd" clip-rule="evenodd" d="M93.6873 16.2124C93.0149 16.1069 92.3499 15.9582 91.6966 15.7672C88.5164 14.6541 86.4748 12.4344 86.0041 9.04434C85.4886 5.34018 87.6777 1.79225 91.2195 0.591507C91.9303 0.378096 92.6522 0.203984 93.382 0.0699632L93.6174 0H95.2711C95.7608 0.0954044 96.2633 0.159007 96.7466 0.292574C99.8314 1.17029 101.968 3.0593 102.751 6.23309C103.693 10.2902 101.384 14.396 97.4272 15.6972C96.7912 15.9071 96.1551 15.9961 95.5191 16.1488L95.2838 16.2124H93.6873ZM88.9553 8.02033C88.9461 9.31951 89.1613 10.6105 89.5913 11.8365C90.5644 14.4824 92.7142 15.8053 95.4173 15.3537C97.1532 15.0544 98.5899 13.8368 99.1699 12.1736C100.046 9.99481 100.209 7.59424 99.6342 5.31721C99.3691 4.01336 98.7018 2.82549 97.7261 1.92081C96.4785 0.873746 94.8051 0.48721 93.2247 0.881053C91.6443 1.2749 90.3479 2.40152 89.7376 3.91158C89.2121 5.2189 88.9527 6.61789 88.9744 8.02669" fill="#A5926D"></path>
        <path fill-rule="evenodd" clip-rule="evenodd" d="M53.471 16.2124C52.5233 15.1184 51.5629 14.0117 50.6279 12.9178L42.7984 3.93066L42.4486 3.54904V15.8181H41.291V0.362537C41.7362 0.362537 42.1815 0.362537 42.614 0.362537C42.7348 0.362537 42.8556 0.508824 42.9447 0.610589C45.7135 3.68897 48.4697 6.77371 51.2131 9.86482C51.6774 10.38 52.1417 10.9015 52.5996 11.4231C52.6772 11.512 52.7494 11.6055 52.8159 11.7029L52.9113 11.6457V0.394339H54.0752V15.7481C54.0752 15.9071 54.0752 16.0597 54.0752 16.2124H53.471Z" fill="#A5926D"></path>
        <path fill-rule="evenodd" clip-rule="evenodd" d="M26.6626 0L30.2307 7.77864C31.401 10.3228 32.5755 12.8817 33.7543 15.4555C33.8052 15.5636 33.8497 15.6718 33.926 15.8499C33.3945 15.8147 32.8612 15.8147 32.3296 15.8499C32.012 15.9294 31.6757 15.876 31.3984 15.7019C31.1211 15.5279 30.9268 15.2482 30.8604 14.9276C30.3325 13.5792 29.6646 12.2817 29.0731 10.9588C29.0097 10.7508 28.8054 10.619 28.5897 10.6471C26.6117 10.6471 24.6273 10.6471 22.6492 10.6471C22.4229 10.6239 22.2111 10.7616 22.1404 10.9779C21.4281 12.5107 20.6966 14.0372 19.9843 15.57C19.9317 15.7551 19.7477 15.8705 19.5581 15.8371C19.2465 15.8371 18.9221 15.8371 18.5659 15.8371C21.0592 10.5326 23.5333 5.26632 26.0138 0H26.6626ZM22.7701 9.64221H28.4434L25.6449 3.54268L22.7701 9.64221Z" fill="#A5926D"></path>
        <path fill-rule="evenodd" clip-rule="evenodd" d="M149.225 6.90728V7.89949H143.806V14.8449H151.909V15.8181H141.199V0.387978H151.884V1.34838H143.813C143.813 1.49467 143.813 1.60279 143.813 1.70456C143.813 3.31371 143.813 4.92287 143.813 6.53202C143.813 6.84368 143.915 6.91364 144.201 6.91364C145.74 6.91364 147.279 6.91364 148.812 6.91364L149.225 6.90728Z" fill="#A5926D"></path>
        <path fill-rule="evenodd" clip-rule="evenodd" d="M121.876 14.8513V15.8244H111.547V0.387978H114.11V14.8513H121.876Z" fill="#A5926D"></path>
        <rect x="129.419" y="0.381618" width="2.5314" height="15.4364" fill="#A5926D"></rect>
        <path fill-rule="evenodd" clip-rule="evenodd" d="M63.3423 0.381618H63.514C65.7592 0.381618 68.0044 0.381618 70.2496 0.477023C71.1707 0.53058 72.0823 0.692833 72.9654 0.960405C76.2826 1.96678 78.4073 5.19933 78.0155 8.64364C77.7038 12.3708 75.147 14.9403 71.4135 15.64C70.6805 15.7703 69.9382 15.8405 69.1938 15.8499C67.3429 15.8499 65.4984 15.8499 63.6476 15.8499H63.3423V0.381618ZM65.9245 14.6986C67.0376 14.6986 68.1316 14.7686 69.2192 14.6986C71.4111 14.6576 73.387 13.3683 74.3074 11.3786C74.9903 9.90744 75.1971 8.25986 74.8989 6.66559C74.5449 4.14451 72.6144 2.13447 70.1096 1.67912C69.1118 1.55575 68.1065 1.50261 67.1012 1.52011C66.7196 1.52011 66.338 1.52011 65.9436 1.52011L65.9245 14.6986Z" fill="#A5926D"></path>
      </svg>