<?xml version="1.0" encoding="UTF-8" standalone="no"?><!-- Generator: Gravit.io --><svg xmlns="http://www.w3.org/2000/svg" xmlns:xlink="http://www.w3.org/1999/xlink" style="isolation:isolate" viewBox="0 0 150 150" width="150pt" height="150pt"><defs><clipPath id="_clipPath_4WKIRqlg3nEhiCy3sxmdDI1LNgiyUYk0"><rect width="150" height="150"/></clipPath></defs><g clip-path="url(#_clipPath_4WKIRqlg3nEhiCy3sxmdDI1LNgiyUYk0)"><path d=" M 0 0 L 150 0 L 150 149.989 L 0 149.989 L 0 0 Z " fill="rgb(255,102,0)"/><path d=" M 135.064 97.53 C 135.613 82.622 127.868 74.325 113.85 74.325 C 100.858 74.325 93.31 83.758 93.31 97.818 C 93.31 112.647 100.858 121.414 113.851 121.414 L 135.814 121.414 L 135.814 112.85 L 129.351 112.85 C 132.54 109.707 134.814 104.258 135.067 97.529 L 135.065 97.529 L 135.064 97.53 Z  M 108.588 97.818 C 108.588 89.953 110.256 86.177 113.851 86.177 C 117.444 86.177 119.118 89.953 119.118 97.818 C 119.118 105.683 117.443 109.456 113.851 109.456 C 110.258 109.456 108.589 105.683 108.589 97.818 L 108.588 97.818 Z  M 44.783 97.425 C 49.965 94.71 51.43 91.447 51.364 86.328 C 51.281 79.744 46.583 74.996 36.998 74.996 L 15.258 74.996 L 15.258 121.459 L 37.39 121.459 C 45.444 121.459 52.485 117.045 52.485 108.432 C 52.485 102.723 49.719 98.984 44.782 97.425 L 44.783 97.425 Z  M 30.196 85.522 L 32.12 85.522 C 34.787 85.522 36.213 86.721 36.213 89.133 C 36.213 91.54 34.786 92.932 32.12 92.932 L 30.197 92.932 L 30.197 85.522 L 30.196 85.522 Z  M 32.746 110.926 L 30.196 110.926 L 30.196 102.647 L 32.746 102.647 C 35.447 102.647 37.073 103.988 37.073 106.688 C 37.073 109.39 35.447 110.926 32.747 110.926 L 32.746 110.926 Z  M 92.114 121.503 C 91.707 118.733 90.295 115.532 88.077 112.043 C 89.007 111.106 89.913 110.146 90.794 109.163 L 85.121 102.59 C 84.294 103.322 83.48 104.076 82.668 104.822 C 81.503 103.438 80.242 102.032 78.895 100.607 C 82.826 97.947 85.486 94.523 85.486 90.158 C 85.486 85.328 81.207 80.449 73.379 80.449 C 65.183 80.449 60.504 85.176 60.504 90.639 C 60.504 93.734 62.386 96.773 64.359 99.17 C 60.501 101.826 57.152 105.474 56.87 110 C 56.367 118.042 62.548 122.342 70.114 122.018 C 73.135 121.896 76.439 120.95 80.243 118.535 C 80.852 119.655 81.276 120.675 81.431 121.502 L 92.114 121.502 L 92.114 121.503 L 92.114 121.503 Z  M 73.283 87.851 C 74.726 87.851 75.708 89.25 75.708 90.641 C 75.708 91.602 75.109 92.974 72.896 94.465 C 71.553 92.981 70.755 91.761 70.755 90.545 C 70.754 89.26 71.767 87.851 73.283 87.851 L 73.283 87.851 Z  M 68.989 112.016 C 67.75 110.996 66.833 107.874 70.32 105.56 C 71.98 107.399 73.589 109.284 75.143 111.213 C 72.741 112.79 70.636 113.381 68.99 112.016 L 68.989 112.016 Z " fill="rgb(255,255,255)"/></g></svg>