<svg id="icon-bark-logo" xmlns="http://www.w3.org/2000/svg" viewBox="0 0 362.9 126.01">
<g>
<path fill="currentColor" d="M1.44,125.63C1.79,83.37,1.24,35.79,0,1.28C6.54,0.61,16.89-0.05,23.32,0c0.37,0,0.74,0.01,1.09,0.01
c13.92,0.3,24.1,3.95,30.62,10.95c5.3,5.69,8.15,12.8,8.09,21.67c-0.2,26.63-29,29.79-29,29.79l0.73,0.02
c0.1,0,31.87,1.48,32.2,29.53c0.6,31.43-31.21,33.73-46.23,33.62c-0.64,0-1.28,0.02-1.93,0.02L1.44,125.63z"></path>
<path fill="currentColor" d="M327.99,88.95c0.58-2.67,2.31-8.55,3.14-10.96l30.18,6.12c-0.52,2.46-1.87,7.07-2.96,10.82c-0.52,1.78-0.98,3.35-1.27,4.43
L327.99,88.95z"></path>
<path fill="currentColor" d="M320.99,70.59l-0.22-0.31c-1.45-2.1-4.53-7.69-5.91-10.98l-0.15-0.36l0.35-0.19c8.01-4.3,16.17-9.68,24.07-14.89
c5.27-3.47,10.72-7.07,15.99-10.24l0.37-0.22l0.22,0.37c1.25,2.05,3.36,7.04,5.06,11.06c0.82,1.94,1.53,3.62,1.97,4.55l0.17,0.36
l-0.35,0.2c-7.45,4.22-15.86,8.2-23.99,12.06c-5.77,2.73-11.73,5.56-17.23,8.42L320.99,70.59z"></path>
<path fill="currentColor" d="M236.35,123.27h29.08c-2.04-12.26-2.51-21.37-2.51-21.58l-0.02-1.04l51.73,22.3l12.15-15.46
c-20.53-13.16-52.41-32.89-53.87-34.29l-0.35-0.34l0.37-0.31c0.18-0.15,33.19-24.55,56.45-42.44L318.5,11.5l-56.15,18.12
l-0.16-29.59h-25.84C236.35,0.04,238.48,70.65,236.35,123.27z"></path>
<path fill="currentColor" d="M125.81,0.15c5.46,39.94,13.42,94.26,22.15,125.55l-25.36,0.3c-4.7-17.03-9.91-42.9-9.97-43.18l-0.09-0.43l-12.37,2.45
l-7.66,38.27H67.78C75.2,88.44,85,38.97,89.9,0.15H125.81z"></path>
<path fill="currentColor" d="M213.53,125.9c-13.7-13.65-30.32-43.31-33.24-49.18l-1.82,0.04c0.12,5.43,0.2,8.32,0.38,13.82
c0.31,9.64,0.63,19.76,0.64,32.55h-23.34c-0.01-38.5-0.73-77.26-2.22-121.89c6.26-0.77,14.65-1.21,23.12-1.21
c19.56,0,44.42,6.24,44.42,36.28c0,12.5-6.4,23.09-15.21,29.7c-0.48,0.44-0.98,0.85-1.54,1.25l-0.29,0.21l0.15,0.33
c3.9,8.41,15.12,30.42,28.23,46.06L213.53,125.9z"></path>
</g>
</svg>