<?xml version="1.0" encoding="utf-8"?>
<!-- Generator: Adobe Illustrator 22.1.0, SVG Export Plug-In . SVG Version: 6.00 Build 0)  -->
<svg version="1.1"
	 id="svg2" inkscape:version="0.48.2 r9819" sodipodi:docname="Aeropostale_logo2.svg" xmlns:cc="http://creativecommons.org/ns#" xmlns:dc="http://purl.org/dc/elements/1.1/" xmlns:inkscape="http://www.inkscape.org/namespaces/inkscape" xmlns:rdf="http://www.w3.org/1999/02/22-rdf-syntax-ns#" xmlns:sodipodi="http://sodipodi.sourceforge.net/DTD/sodipodi-0.dtd" xmlns:svg="http://www.w3.org/2000/svg"
	 xmlns="http://www.w3.org/2000/svg" xmlns:xlink="http://www.w3.org/1999/xlink" x="0px" y="0px" viewBox="0 0 500 500"
	 style="enable-background:new 0 0 500 500;" xml:space="preserve">
<style type="text/css">
	.st0{fill:#006B6D;}
	.st1{fill:#B86E27;}
	.st2{fill:#FFFFFF;}
</style>
<sodipodi:namedview  bordercolor="#666666" borderopacity="1" gridtolerance="10" guidetolerance="10" id="namedview35" inkscape:current-layer="svg2" inkscape:cx="305.96738" inkscape:cy="101.65201" inkscape:pageopacity="0" inkscape:pageshadow="2" inkscape:window-height="1003" inkscape:window-maximized="1" inkscape:window-width="1680" inkscape:window-x="-4" inkscape:window-y="-4" inkscape:zoom="1.2764184" objecttolerance="10" pagecolor="#ffffff" showgrid="false">
	</sodipodi:namedview>
<path class="st0" d="M320.7,232.5c0.5,9.2,0.6,11.9,0.6,20V270h-11.4v-68.9h11.3c0,0,5.4,20.2,6.5,24.5c1.2,4.4,2.1,8,2.6,10.9
	c-0.3-7.3-0.5-14.6-0.4-22v-13.4h11v68.9h-10.1c0,0-6.2-21.3-7.5-25.5C322.4,241.4,321.6,237.6,320.7,232.5 M382.6,235.7
	c0,29.7-4.9,35.8-16.1,35.8c-10.5,0-16.1-4.6-16.1-35.8c0-30.2,4.4-35.6,16.1-35.6S382.6,205.5,382.6,235.7L382.6,235.7z
	 M369.8,235.7c0-10.8,0-17.5-0.4-22.4c-0.4-5-1.2-6-3-6c-2,0-2.8,1-3.2,6c-0.4,4.8-0.3,11.7-0.3,22.4c0,12.6-0.1,17.4,0.3,22.2
	c0.5,5.3,1.2,5.8,3.2,5.8c1.9,0,2.5-0.5,3-5.8C369.7,253,369.8,248.3,369.8,235.7 M424.4,250.6c0,14.3-6.4,19.5-17.1,19.5h-15.4
	v-68.9h15.5c11.9,0,15.1,7.2,15.1,18.9c0,8.4-3.1,13-8.5,13.3C419.8,233.4,424.4,239.4,424.4,250.6z M403.8,237.7V262h3.1
	c3.7,0,4.7-2.2,4.7-12.7c0-7.6-0.9-11.6-4.8-11.6L403.8,237.7L403.8,237.7z M403.8,209.2v19.8h3c3.2,0,3.9-2.9,3.9-8.8
	c0-8.1-0.8-11-4.7-11H403.8 M445.7,259.7h14.6v10.3h-27.2v-68.9h12.6V259.7 M479.2,259.7h15v10.3H467v-68.9h25.2v10.3h-13.1v18.7
	h11.6v9.6h-11.6V259.7 M40.4,250.6c0,14.3-6.4,19.5-17.1,19.5H7.8v-68.9h15.5c11.9,0,15.1,7.2,15.1,18.9c0,8.4-3.1,13-8.5,13.3
	C35.8,233.4,40.4,239.4,40.4,250.6z M19.8,237.7V262h3.1c3.7,0,4.7-2.2,4.7-12.7c0-7.6-0.9-11.6-4.8-11.6L19.8,237.7L19.8,237.7z
	 M19.8,209.2v19.8h3.1c3.2,0,3.9-2.9,3.9-8.8c0-8.1-0.8-11-4.7-11H19.8 M108.7,234.7c7.7,2.3,8.6,11.4,8.6,19.8
	c0,6.5,0.2,12.2,1.1,15.6h-12.6c-0.4-2.5-0.9-4-0.9-10.2V251c0-5.5-1.9-9.6-5.8-10.6h-0.9v29.7H85.9v-68.9h18.4
	c8.6,0,14.4,5,14.4,17.5C118.8,229.5,114,234.2,108.7,234.7L108.7,234.7z M98.3,209.7v20.2h3.8c3.2,0,4.2-2.1,4.2-8.5
	c0-10-1.9-11.7-5.7-11.7H98.3 M139.8,232.5c0.5,9.2,0.6,11.9,0.6,20V270h-11.4v-68.9h11.3c0,0,5.4,20.2,6.5,24.5
	c1.2,4.4,2.1,8,2.6,10.9c-0.3-7.3-0.5-14.6-0.4-22v-13.4h11v68.9H150c0,0-6.2-21.3-7.4-25.5C141.5,241.4,140.7,237.6,139.8,232.5
	 M183.2,259.7h15v10.3h-27.1v-68.9h25.2v10.3h-13.1v18.7h11.6v9.6h-11.6L183.2,259.7 M216.3,254.2c0,7.7,1.6,8.9,4.4,8.9
	c2.2,0,3.8-1.3,3.8-8.9c0-6.8-4.6-11.7-9.7-17.9c-4.7-5.6-9.9-13.3-9.9-19.8c0-10.3,4.7-16.3,14.4-16.3c9.6,0,14.6,5.3,14.6,15.4
	c0,2.4-0.4,4.1-0.9,5.6h-10.2c0.2-1.1,0.3-2.8,0.3-4.9c0-6.5-0.7-8.5-3.6-8.5c-2.7,0-3.1,2.6-3.1,7.5c0,6.2,5,11.1,9,16.3
	c5.9,7.5,10.6,13.5,10.6,20.5c0,11.2-4.7,19.5-15.3,19.5c-9.4,0-15.6-5.1-15.6-17.1c0-2.8,0.1-5.1,0.8-7.5l11-0.1
	C216.5,249.6,216.3,251.2,216.3,254.2 M45,270.1l10-69.4h11.8l11.8,69.4H65.9L64.6,259h-7.7l-1.3,11.1H45z M57.7,251.4H64
	c0,0-0.9-8-1.5-13.2c-0.4-3.2-1.6-13.3-2-19.9c-0.2,6.8-1.3,16.8-1.5,19.9C58.5,243.4,57.7,251.4,57.7,251.4"/>
<path class="st1" d="M295.3,234.1c-4.8,0-8.3,3.2-10.5,7.6c-2.1,4.9-4.5,10.5-6.1,13.6c-5.3-9.1-9.3-16.3-11.8-22.8
	c4.1-2.3,11.3-5.8,15.4-9.5c4.1-3.7,6.1-7.2,6.8-11.3c1.3-7.8-3.1-14.5-12.9-14.5c-8.2,0-18,6.4-19.9,17.2
	c-0.9,5.5,0.3,12.5,2.3,18.3c-7.4,5-13.8,10.5-15.5,19.2c-2.4,14.3,6.5,20.8,16.7,20.8c6.9,0,12.2-3.1,16.3-7.8
	c3.2,3.6,7.2,7.8,12.2,7.8c4.1,0,8.3-2.6,11.7-6.9l-1.4-2c-3.1,3-5.5,4.2-7.3,4.2c-3.2,0-6.5-2.9-9.4-7.4c-0.4-0.7-0.8-1.4-1.2-2.1
	c1.9-3.7,3.3-7.7,5-11.3c3.1-6.9,5-9.2,7.9-9.2c4.8,0,0.9,8,6.1,8c2.4,0,3.6-2,3.9-3.9C304.1,239.1,302.1,234.1,295.3,234.1
	L295.3,234.1z M264.4,212.4c0.8-4.9,5-10.1,11.4-10.1c5,0,8.3,3.8,7.3,9.6c-0.4,2.3-1,4.3-3.2,7.1c-2.3,2.8-10.4,7.8-14.2,9.9
	C263.9,223.2,263.5,218,264.4,212.4z M262.8,268c-9.5,0-13.1-8-12-14.3c1.3-7.5,4.8-12.2,9.4-16.4c3.3,8.1,7.7,16.6,13.8,25.2
	C270.8,266.4,267.5,268,262.8,268"/>
<path class="st2" d="M262.2,209.9c0,0-6.5,10,2.6,30.1c7.5,16.5,16.5,25.9,16.5,25.9s-9.1-12.5-15.2-27.2
	C258.6,220.7,262.2,209.9,262.2,209.9"/>
</svg>
