<svg xmlns="http://www.w3.org/2000/svg" viewBox="0 0 250 32"><style type="text/css">.st0{fill:#000;}</style><path class="st0" d="M16.32 15.54v-0.11c2.32-0.93 3.81-3.17 3.81-6.27 0-4.33-2.2-7.17-8.66-7.17H0v28h11.54c7.09 0 9.93-2.84 9.93-7.65C21.47 19.43 19.98 16.25 16.32 15.54zM2.69 4.49h9.22c3.73 0 5.53 1.68 5.53 4.67 0 3.36-2.02 5.45-5.94 5.49H2.69V4.49zM11.84 27.49H2.69V17.15h9.52c4.59 0 6.57 2.05 6.57 5.26C18.78 25.78 16.62 27.53 11.84 27.49z"/><polygon class="st0" points="27.76 29.99 46.58 29.99 46.58 27.49 30.45 27.49 30.45 17.11 45.05 17.11 45.05 14.61 30.45 14.61 30.45 4.49 46.58 4.49 46.58 1.99 27.76 1.99 "/><path class="st0" d="M101.95 18.64c0 6.8-3.77 9.41-9 9.41 -4.52 0-8.81-2.61-8.81-9.41V1.99h-2.69v16.35c0 8.1 4.37 12.21 11.46 12.21 7.62 0 11.73-4.11 11.73-12.21V1.99h-2.69V18.64z"/><polygon class="st0" points="109.68 4.42 119.2 4.42 119.2 29.99 121.89 29.99 121.89 4.42 131.41 4.42 131.41 1.99 109.68 1.99 "/><polygon class="st0" points="147.92 17.34 138.43 1.99 135.52 1.99 146.57 19.99 146.57 29.99 149.26 29.99 149.26 19.99 160.31 1.99 157.4 1.99 "/><polygon class="st0" points="168.04 1.99 165.35 1.99 165.35 29.99 183.5 29.99 183.5 27.49 168.04 27.49 "/><path class="st0" d="M211.91 14.35c-5.45-0.78-7.39-2.91-7.39-5.49 0-3.1 2.88-5.08 6.53-5.08 2.99 0 5.6 1.16 7.47 2.95l1.9-1.87c-2.54-2.28-5.94-3.44-9.37-3.44 -5.68 0-9.07 3.51-9.07 7.8 0 3.58 2.43 6.5 8.92 7.43 6.24 0.9 8.48 2.88 8.48 6.24 0 2.99-2.73 5.3-7.24 5.3 -3.73 0-7.24-1.79-9.04-3.99L201.05 26c2.17 2.61 6.35 4.56 10.64 4.56 6.8 0 10.23-3.06 10.23-8.03C221.92 17.86 218.04 15.25 211.91 14.35z"/><polygon class="st0" points="247.31 1.99 247.31 14.76 230.96 14.76 230.96 1.99 228.27 1.99 228.27 29.99 230.96 29.99 230.96 17.26 247.31 17.26 247.31 29.99 250 29.99 250 1.99 "/><path class="st0" d="M194.01 15.56c-0.01 0.04-0.04 0.06-0.03 0.12 0.03 0 0.06 0 0.09 0C194.06 15.62 194.1 15.53 194.01 15.56z"/><path class="st0" d="M193.89 17.81c0 0.1-0.11 0.09-0.12 0.18C193.9 18.02 194 17.83 193.89 17.81z"/><path class="st0" d="M193.8 18.35c0.07 0.03 0.03 0.17 0.15 0.15 0.04-0.02 0.08-0.05 0.12-0.06 0.02-0.14 0-0.23 0.03-0.39 -0.04-0.03-0.08-0.04-0.15-0.03C193.96 18.19 193.83 18.22 193.8 18.35z"/><path class="st0" d="M189.76 20.02c0.09-0.05 0.1-0.38-0.03-0.39 -0.02 0-0.04 0-0.06 0C189.65 19.77 189.59 19.98 189.76 20.02z"/><path class="st0" d="M194.04 19.99c0.03-0.07 0.06-0.12 0.06-0.21 -0.04-0.03-0.08-0.04-0.15-0.03C193.87 19.84 193.93 19.99 194.04 19.99z"/><path class="st0" d="M193.4 21.11c-0.11 0.08-0.12 0.35 0.03 0.39 0.02 0.1 0.05 0.19 0.06 0.3 0.19 0 0.25 0.14 0.45 0.12 0.05-0.13 0.07-0.3 0.12-0.43C193.83 21.39 193.8 21.08 193.4 21.11z"/><path class="st0" d="M193.71 22.42c-0.11-0.03-0.12 0.15-0.03 0.15C193.7 22.54 193.72 22.49 193.71 22.42z"/><path class="st0" d="M192.76 23.42c0 0.04-0.04 0.04-0.03 0.09 0.03 0 0.06 0 0.09 0 0-0.03 0-0.06 0-0.09C192.81 23.42 192.79 23.42 192.76 23.42z"/><path class="st0" d="M192.89 24.09c0.05 0.01 0.19-0.04 0.21-0.06 0.03-0.02-0.02-0.12 0.06-0.09 0.15-0.05 0.07 0.13 0.18 0.12 0.04 0 0.08 0 0.12 0 0.13-0.19 0.02-0.35 0-0.61 -0.12 0.01-0.29-0.03-0.36 0.03 -0.03 0.09 0.04 0.08 0.03 0.15 -0.08 0.09-0.12 0.21-0.21 0.27 -0.08 0.01-0.14 0.04-0.18 0.09C192.79 24.03 192.81 24.08 192.89 24.09z"/><path class="st0" d="M192.89 24.15c0.05 0.19-0.08 0.3-0.03 0.4 0.16 0 0.1-0.23 0.33-0.15 0.04-0.07 0.08-0.15 0.06-0.27C193.09 24.13 193.05 24.22 192.89 24.15z"/><path class="st0" d="M193.83 24.3c-0.03 0-0.06 0-0.09 0 0 0.08 0 0.15 0.06 0.15C193.82 24.42 193.84 24.37 193.83 24.3z"/><path class="st0" d="M192.64 24.33c0 0.03 0 0.06 0 0.09C192.73 24.47 192.73 24.29 192.64 24.33z"/><path class="st0" d="M192.61 24.64c0-0.02 0-0.04 0-0.06 -0.02 0-0.04 0-0.03-0.03 -0.02 0-0.04 0-0.06 0 0 0.02 0 0.04-0.03 0.03 0 0.02 0 0.04 0 0.06 0.02 0 0.04 0 0.03 0.03 0.02 0 0.04 0 0.06 0C192.59 24.65 192.59 24.63 192.61 24.64z"/><path class="st0" d="M192.76 24.91c0.11-0.02 0.13-0.14 0.15-0.24 -0.07 0-0.15 0-0.18 0.03C192.72 24.8 192.76 24.84 192.76 24.91z"/><path class="st0" d="M193.92 25.12c0.04-0.04 0.03-0.13 0.03-0.21 -0.19 0.06-0.06-0.2-0.18-0.21C193.69 24.86 193.72 25.09 193.92 25.12z"/><path class="st0" d="M193.25 25.52c0-0.16 0-0.32 0-0.49 -0.07-0.02-0.14-0.04-0.24-0.03 -0.03 0.09-0.03 0.22-0.06 0.3 -0.02 0.06-0.18-0.02-0.15 0.09 -0.11 0.08 0.02 0.23 0.03 0.33 0.02 0.1-0.06 0.09 0 0.15 0.05 0.05 0 0.15 0.12 0.12 0.09-0.05-0.02-0.13 0-0.21C193.1 25.74 193.15 25.61 193.25 25.52zM192.89 25.4c0.04 0.01 0.06 0.04 0.06 0.09C192.84 25.51 192.84 25.44 192.89 25.4z"/><path class="st0" d="M191.07 25.15c0.01 0.17-0.23 0.08-0.25 0.21 0.03 0.07 0.15 0.06 0.18 0.12 -0.09 0-0.14 0.04-0.12 0.15 0.05 0 0.1 0 0.15 0C191.06 25.47 191.28 25.31 191.07 25.15z"/><path class="st0" d="M193.37 25.43c-0.01 0.07 0 0.12 0.03 0.15 0.1 0.02 0.07-0.09 0.18-0.06 0.01 0.06 0.01 0.13 0.09 0.12 0.11-0.03 0.22-0.19 0.12-0.33 -0.16-0.03-0.19 0.06-0.24 0.12C193.49 25.43 193.43 25.43 193.37 25.43z"/><path class="st0" d="M190.58 25.76c0.07-0.07-0.01-0.12 0-0.21 -0.05 0-0.1 0-0.15 0 0 0.05 0 0.1 0 0.15C190.54 25.66 190.48 25.78 190.58 25.76z"/><path class="st0" d="M191.31 25.55c0 0.03 0 0.06 0 0.09C191.4 25.68 191.4 25.5 191.31 25.55z"/><path class="st0" d="M191.25 25.85c0.09 0 0.15 0.04 0.21 0.06 0.07-0.05 0.06-0.2-0.03-0.24C191.43 25.79 191.29 25.77 191.25 25.85z"/><path class="st0" d="M191.64 25.82c0 0.02 0 0.04 0 0.06 0.03 0 0.06 0 0.09 0C191.74 25.83 191.7 25.81 191.64 25.82z"/><path class="st0" d="M193.8 25.91c-0.09 0-0.18 0-0.27 0 -0.16-0.16-0.34 0.07-0.49 0.12 -0.02 0.15-0.08 0.27-0.18 0.33 0 0.16-0.05 0.28-0.06 0.42 -0.04-0.04-0.11-0.01-0.15 0.03 0.22 0.02 0.03 0.27 0.12 0.39 0.09-0.01 0.13-0.07 0.21-0.09 -0.01-0.15 0.09-0.19 0.15-0.27 -0.01-0.11 0-0.2 0.03-0.27 0.12-0.04 0.21-0.12 0.33-0.15 0.1 0.05 0.11 0.2 0.12 0.33 0.08 0.02 0.09 0.01 0.18 0.06 -0.04-0.23 0-0.3 0.03-0.52 0.06-0.04 0.15-0.05 0.15-0.15C193.85 26.14 193.85 26 193.8 25.91z"/><path class="st0" d="M190.31 25.97c0.07 0.03 0.13 0.07 0.24 0.06 0-0.04 0-0.08 0-0.12C190.48 25.85 190.33 25.89 190.31 25.97z"/><path class="st0" d="M191 25.91c0 0.05 0.01 0.1 0.03 0.12 0.09 0 0.15-0.03 0.18-0.09C191.17 25.9 191.07 25.85 191 25.91z"/><path class="st0" d="M192.4 26.12c0.02 0 0.04 0 0.06 0 0-0.04 0.04-0.04 0.03-0.09 -0.03 0-0.06 0-0.09 0C192.4 26.06 192.4 26.09 192.4 26.12z"/><path class="st0" d="M191.7 26.18c-0.06-0.03-0.1-0.08-0.21-0.06 0 0.07 0 0.14 0 0.21C191.63 26.36 191.61 26.21 191.7 26.18z"/><path class="st0" d="M191.13 26.31c-0.04-0.01-0.06-0.04-0.12-0.03C190.98 26.38 191.12 26.4 191.13 26.31z"/><path class="st0" d="M192.19 26.34c-0.03 0.04-0.03 0.11-0.03 0.18C192.29 26.54 192.26 26.36 192.19 26.34z"/><path class="st0" d="M192.16 26.61c-0.08 0.13 0.06 0.27 0.18 0.3 0.11-0.13-0.07-0.18-0.09-0.27C192.21 26.64 192.21 26.6 192.16 26.61z"/><path class="st0" d="M193.77 27.04c-0.03 0.01-0.15-0.04-0.12 0.06 -0.01 0.08 0.12-0.08 0.09 0.06 0.1 0.02 0.11-0.05 0.21-0.03 0-0.05 0-0.1 0-0.15C193.89 26.95 193.82 27.02 193.77 27.04z"/><path class="st0" d="M191.04 27.37c0.11 0.02 0.12-0.06 0.12-0.15 0.05 0 0.1 0 0.09-0.06C191.1 27.15 191.03 27.22 191.04 27.37z"/><path class="st0" d="M192.89 27.31c-0.08 0.07-0.14 0.16-0.24 0.21 0 0.14 0.08 0.21 0.06 0.36 0.07-0.01 0.11 0.01 0.12 0.06 -0.05 0.12 0.02 0.28 0.06 0.39 0.15-0.02 0.16-0.18 0.21-0.3 -0.05-0.04-0.12-0.06-0.12-0.15 0.04 0 0.04-0.04 0.09-0.03 0.06 0.02 0.01 0.15 0.12 0.12 0.18-0.12 0.01-0.31 0.03-0.52C193.14 27.38 193.01 27.35 192.89 27.31z"/><path class="st0" d="M191.55 27.37c-0.03 0.03-0.09 0.26 0.03 0.24C191.65 27.57 191.61 27.38 191.55 27.37z"/><path class="st0" d="M193.62 27.61c-0.04 0.35 0.01 0.55 0 0.94 0.17-0.04 0.14-0.38 0.12-0.52C193.86 27.94 193.82 27.62 193.62 27.61z"/><path class="st0" d="M191.61 28.25c-0.13-0.01-0.12 0.03-0.09 0.12C191.6 28.38 191.62 28.33 191.61 28.25z"/><path class="st0" d="M192.28 28.25c0 0.08-0.02 0.18 0.06 0.18C192.32 28.37 192.39 28.22 192.28 28.25z"/><path class="st0" d="M193.1 28.89c-0.09-0.06-0.14-0.17-0.21-0.24 0.02-0.09 0.02-0.06 0-0.15 -0.04-0.02-0.08-0.04-0.12-0.06 -0.19 0.14-0.08 0.56-0.21 0.76 0.08-0.03 0.09 0.09 0.15 0.12 0.04 0.02 0.13-0.01 0.18 0 0.09 0.02 0.15 0.13 0.21 0.06 0.01-0.02 0-0.06 0.03-0.06 0-0.13-0.08-0.19-0.12-0.27C193.02 28.97 193.11 28.98 193.1 28.89z"/><path class="st0" d="M191.55 28.61c0.07-0.02 0.16-0.02 0.18-0.09 -0.08-0.07-0.07-0.03-0.18-0.06C191.51 28.5 191.51 28.57 191.55 28.61z"/><path class="st0" d="M193.37 28.95c0.03 0 0.06 0 0.09 0 0-0.03 0-0.06 0-0.09 -0.03 0-0.06 0-0.09 0C193.37 28.89 193.37 28.92 193.37 28.95z"/><path class="st0" d="M192.86 29.58c-0.03-0.07-0.12-0.08-0.15-0.15 0-0.05 0-0.1-0.06-0.09 -0.04 0.11 0 0.38 0.03 0.52 0.07-0.01 0.07 0.06 0.15 0.03C192.88 29.83 192.85 29.69 192.86 29.58z"/><path class="st0" d="M191.34 29.8c0.04 0.03 0.08 0.04 0.15 0.03 0-0.04 0-0.08 0-0.12 -0.04 0-0.08 0-0.12 0C191.37 29.75 191.35 29.77 191.34 29.8z"/><path class="st0" d="M191.19 30.01c0.05 0.03 0.1 0.07 0.12 0.12 0.08-0.04 0.21-0.03 0.18-0.18C191.35 29.9 191.27 29.88 191.19 30.01z"/><path class="st0" d="M191.31 30.16c-0.02 0.06-0.15 0.01-0.12 0.12 0.06 0.02 0.12 0.02 0.18 0C191.38 30.21 191.36 30.17 191.31 30.16z"/><path class="st0" d="M190.09 30.71C190.06 30.89 190.23 30.72 190.09 30.71L190.09 30.71z"/><path class="st0" d="M190.21 31.04c-0.01 0.04-0.04 0.06-0.03 0.12 0.03 0 0.06 0 0.09 0C190.28 31.1 190.27 31.05 190.21 31.04z"/><path class="st0" d="M194.04 16.1c-0.01-0.06-0.09-0.05-0.06-0.12 0-0.06 0.08-0.04 0.06-0.12 -0.07-0.13-0.21-0.2-0.39-0.21 -0.05-0.12-0.14-0.19-0.15-0.33 -0.11-0.02-0.19-0.08-0.24-0.15 -0.01-0.21-0.22-0.22-0.24-0.42 0.17 0.05 0.18-0.01 0.3-0.06 0.07 0.07 0.07 0.22 0.06 0.36 0.08 0.05 0.09 0.17 0.18 0.21 0.05-0.05-0.01-0.21 0.12-0.18 0.12 0.01 0.08 0.18 0.15 0.24 0.08 0 0.17 0.01 0.21-0.03 0.04-0.06-0.03-0.15 0.03-0.24 -0.03-0.07-0.1-0.1-0.12-0.18 0.04-0.04 0.04-0.12 0.12-0.12 0-0.08 0.02-0.18-0.06-0.18 -0.08 0.02-0.03 0.17-0.15 0.15 -0.07-0.01-0.16 0-0.21-0.03 -0.02-0.01-0.15-0.2-0.15-0.21 -0.03-0.07-0.04-0.15-0.03-0.21 -0.05-0.04-0.14-0.03-0.12-0.12 0.01-0.07 0.03-0.13 0.09-0.15 0.03 0.11 0.21 0.08 0.18 0.24 0.09-0.03 0.13 0.09 0.21 0.09 0.05 0 0.17-0.06 0.18-0.15 0.02-0.04-0.06-0.24-0.03-0.39 0.06-0.07 0.1-0.16 0.12-0.27 -0.04-0.1-0.16-0.12-0.18-0.24 0.11-0.02 0.15-0.11 0.15-0.24 -0.05-0.04-0.11-0.08-0.12-0.15 -0.15 0.02-0.16 0.02-0.3 0 -0.01-0.09-0.09-0.11-0.15-0.15 -0.07-0.19-0.21-0.3-0.36-0.4 0.02-0.04-0.04-0.16 0.03-0.15 0.1-0.01 0.07 0.09 0.18 0.06 0.11 0.01 0.15-0.04 0.21-0.03 0.17 0.02 0.15 0.15 0.24 0.24 0.05 0.05 0.05 0.08 0.18 0.06 0.03-0.08 0.06-0.23 0-0.3 0.01-0.07 0.11-0.06 0.09-0.15 -0.08-0.07-0.08-0.21-0.12-0.3 -0.18-0.03-0.19 0.12-0.3 0.15 -0.12-0.16-0.37-0.2-0.43-0.43 0.06-0.08 0.14-0.14 0.21-0.18 0.16 0.06 0.27 0.17 0.49 0.18 0.1-0.11 0.07-0.49 0.03-0.64 -0.05-0.06-0.09 0.04-0.18 0.06 -0.1 0.02-0.22 0.01-0.3-0.03 -0.01-0.27 0.01-0.51 0.21-0.58 0.03 0.05 0.04 0.09 0.06 0.12 0.01 0.01 0.05 0.02 0.06 0.03 0.03 0.05 0.01 0.17 0.12 0.15 0.11-0.08 0.06-0.41 0.03-0.55 -0.1-0.02-0.12 0.04-0.18 0.06 -0.13-0.14-0.4-0.15-0.39-0.42 0.08-0.11 0.19 0.05 0.39 0 0.11-0.08 0.14-0.22 0.21-0.33 -0.08-0.1 0.01-0.38-0.06-0.49 -0.1-0.05-0.19-0.02-0.3 0 -0.06-0.11 0.02-0.18 0-0.33 0.1-0.03 0.18-0.08 0.3-0.09 0.07-0.21 0.03-0.49 0.03-0.73 0-0.12 0.11-0.33-0.09-0.36 -0.12 0.04-0.15 0.26-0.33 0.15 -0.04 0.06-0.04 0.16-0.12 0.18 -0.06-0.07-0.08-0.2-0.03-0.3 0.1-0.04 0.17-0.09 0.24-0.15 0-0.11 0-0.22 0-0.33 0.04-0.05 0.17-0.01 0.21-0.06 0-0.13 0.01-0.25-0.06-0.3 0.04-0.15 0.1-0.32 0.06-0.49 -0.01-0.05-0.05-0.07-0.06-0.12 -0.01-0.12 0.02-0.24 0-0.37 -0.01-0.08-0.06-0.17-0.06-0.24 0-0.14 0.09-0.27 0.09-0.39 0-0.12-0.04-0.23-0.09-0.33 0.09-0.12 0.02-0.33 0.03-0.49 0-0.05 0.04-0.1 0.03-0.15 -0.02-0.15-0.09-0.25-0.15-0.36 0.02-0.13-0.02-0.2-0.03-0.3 -0.04 0-0.09 0.01-0.09-0.03 -0.07-0.17-0.18-0.31-0.36-0.37 -0.12-0.27-0.39-0.4-0.49-0.7 -0.05-0.04-0.12-0.04-0.15-0.09 0-0.13 0-0.26 0-0.39 -0.07-0.04-0.08-0.14-0.12-0.21 -0.02-0.03-0.07-0.05-0.09-0.09 -0.03-0.05-0.01-0.13-0.03-0.15 -0.03-0.04-0.1-0.04-0.12-0.06 -0.01-0.01 0.01-0.05 0-0.06 -0.03-0.02-0.1-0.02-0.12-0.03 -0.07-0.03-0.07-0.06-0.12-0.06 -0.13 0-0.16 0.09-0.21 0.12 -0.05 0.03-0.11 0.01-0.15 0.03 -0.02 0.01-0.04 0.05-0.06 0.06 -0.09 0.07-0.19 0.1-0.24 0.18 -0.2 0.01-0.46-0.04-0.58 0.06 0 0.28-0.14 0.42-0.21 0.64 0.03 0.2-0.08 0.27-0.12 0.39 0 0.05 0.08 0.02 0.06 0.09 -0.07 0.05-0.11 0.11-0.09 0.24 -0.06 0-0.04 0.08-0.12 0.06 -0.05 0.27-0.07 0.57-0.12 0.85 -0.04 0.05-0.1 0.08-0.09 0.18 -0.02 0.1 0.1 0.07 0.06 0.18 -0.21 0.28-0.01 0.63-0.03 0.94 0 0.04-0.05 0.06-0.06 0.09 -0.05 0.17 0 0.33 0 0.46 0 0.17-0.09 0.3-0.09 0.46 0.02 0.06 0.07 0.09 0.06 0.18 -0.09 0.14-0.05 0.29-0.06 0.42 -0.01 0.18-0.06 0.35-0.03 0.52 0.01 0.07 0.05 0.12 0.06 0.18 0.01 0.06-0.03 0.12-0.03 0.18 0 0.1 0.06 0.13 0.06 0.21 -0.01 0.04-0.03 0.07-0.06 0.09 0 0.05 0.05 0.1 0.06 0.15 0.01 0.06-0.01 0.13 0 0.21 0.02 0.17 0.1 0.4 0.09 0.55 -0.01 0.08-0.06 0.16-0.06 0.24 0 0.05 0.03 0.13 0.03 0.18 0 0.27-0.09 0.62-0.09 0.88 0 0.08 0.04 0.11 0.03 0.18 0 0.05-0.07 0.02-0.06 0.09 -0.02 0.08 0.06 0.06 0.06 0.12 -0.23 0.3 0.01 0.73 0.09 1 -0.05 0.08-0.08 0.17-0.15 0.21 0.04 0.1 0.08 0.2 0.06 0.36 0.04 0.11 0.18 0.11 0.15 0.27 -0.05 0.06-0.17 0.04-0.15 0.15 -0.02 0.19 0.16 0.19 0.21 0.3 -0.02 0.09 0.08 0.06 0.06 0.15 0.02 0.09-0.08 0.06-0.06 0.15 0.04 0.24-0.09 0.3-0.06 0.52 -0.1 0.09-0.21 0.18-0.24 0.33 0.14 0.09 0.07 0.25 0 0.36 0.08 0.05 0.14 0.11 0.15 0.21 0.03 0.2-0.11 0.27-0.15 0.36 0.02 0.14-0.06 0.38 0.09 0.39 0.15-0.05-0.06-0.28 0.09-0.33 0.07 0.02 0.09 0.09 0.12 0.15 0.11-0.02 0.15 0.03 0.18 0.09 0 0.27 0.1 0.59-0.09 0.73 -0.01 0-0.1 0.03-0.09 0.03 -0.14 0.04-0.15 0-0.27 0 -0.05 0.04-0.03 0.15-0.03 0.24 0.04 0.01 0.07 0.03 0.09 0.06 0.16 0 0.25-0.08 0.37-0.12 0.08 0.11 0 0.27-0.12 0.27 -0.01 0.11-0.08 0.17-0.15 0.21 -0.12-0.03-0.11 0.07-0.18 0.09 0 0.12-0.01 0.25 0.03 0.33 0.14 0.02 0.06-0.16 0.18-0.15 0.04 0.04 0.12 0.04 0.15 0.09 -0.06 0.18-0.08 0.41-0.21 0.52 -0.03 0.23-0.03 0.41 0 0.64 0.13 0.01 0.15 0.14 0.21 0.21 -0.09 0.16-0.11 0.53-0.09 0.7 0.05 0.09 0.16-0.05 0.18 0.03 0.05 0.11 0.03 0.3 0.03 0.46 0 0.17 0.01 0.35 0 0.46 -0.04 0.04-0.14 0.02-0.18 0.06 -0.01 0.2 0.14 0.24 0.18 0.4 -0.11 0.21 0.03 0.4-0.03 0.61 -0.07 0.01-0.07-0.06-0.15-0.03 -0.03 0.11 0.07 0.08 0.06 0.18 -0.09 0.17-0.22 0.31-0.3 0.49 0.03 0.06 0.14 0.04 0.18 0.09 0.03 0.12 0.08 0.22 0.18 0.27 -0.08 0.13 0.04 0.16 0.06 0.27 0 0.12 0 0.24 0 0.36 0.03 0.06 0.17 0.08 0.09 0.15 0 0.05-0.22-0.07-0.18 0.09 0.1 0.05 0.22-0.02 0.3 0.09 -0.08 0.01-0.05 0.14-0.09 0.21 -0.04 0.06-0.08 0.01-0.09 0.09 -0.01 0.06 0.02 0.11 0.03 0.18 0.05 0 0.22-0.1 0.21 0.03 -0.06 0.13-0.18-0.04-0.24 0.03 -0.04 0.11 0.07 0.13 0.09 0.18 0.02 0.05 0 0.09 0.03 0.15 0.04 0.03 0.12 0.02 0.09 0.12 -0.08 0.07-0.17 0.13-0.21 0.24 0.02 0.06 0.15 0.01 0.12 0.12 -0.05 0.1-0.02 0.19 0 0.3 0.11 0.01 0.07 0.18 0.24 0.12 0.03-0.11-0.05-0.16 0-0.21 0.06 0.02 0.2-0.04 0.21 0.03 0.03 0.09-0.04 0.08-0.03 0.15 -0.16 0.05-0.35 0.2-0.3 0.36 0.09 0.04 0.03-0.06 0.09-0.09 0.04-0.02 0.13-0.01 0.15-0.03 0.03-0.02-0.02-0.12 0.06-0.09 0.12-0.04 0.01 0.14 0.12 0.09 0.03-0.08 0.13-0.09 0.15-0.18 -0.01-0.05-0.1-0.03-0.06-0.12 0.08 0.02 0.08-0.04 0.15-0.03 0.04 0.08 0.14 0.08 0.18 0.12 0.02 0.02-0.03 0.03-0.03 0.03 -0.02 0.09 0.21 0.08 0.15 0.18 -0.1 0.03-0.2 0.06-0.12 0.18 0.11 0.09 0.09-0.14 0.21-0.12 0.04 0.1 0.09 0.19 0.24 0.18 0.04-0.13-0.14-0.04-0.12-0.15 0-0.09 0.13-0.05 0.12-0.15 0.09-0.26-0.08-0.62 0.06-0.85 -0.04-0.01-0.03-0.05-0.03-0.09 -0.01-0.09-0.15-0.04-0.12-0.15 0.02-0.07 0.17-0.01 0.15-0.12 -0.03-0.09-0.12-0.12-0.15-0.21 0-0.11 0.06-0.14 0.09-0.21 0.04 0.01 0.06 0.04 0.12 0.03 -0.01 0.09 0 0.16 0.09 0.15 0.01-0.03 0.03-0.05 0.06-0.06 0.04-0.13-0.13-0.05-0.15-0.12 0.01-0.07-0.07-0.1-0.09-0.15 -0.03-0.08 0-0.18-0.06-0.24 0.02-0.11-0.14-0.1-0.06-0.18 0.14-0.05 0.14-0.25 0.33-0.24 0.09 0.17 0.38 0.12 0.3 0.46 0.09 0 0.17 0.01 0.21 0.06 -0.01 0.09-0.17 0.04-0.15 0.15 0.04 0.04 0.03 0.13 0.03 0.21 -0.01 0.08-0.14 0.04-0.12 0.15 0.09 0.13 0.04 0.41 0.27 0.39 0.02-0.09-0.05-0.09-0.03-0.18 -0.04-0.04-0.13-0.04-0.12-0.12 0.14-0.01 0.17-0.14 0.21-0.24 0.12-0.03 0.27 0.03 0.36-0.09 -0.02-0.07-0.03-0.15-0.06-0.21 -0.11-0.01-0.17 0.12-0.24 0.06 0-0.04-0.01-0.07-0.03-0.09 0.01-0.09 0.08-0.12 0.12-0.18 0-0.08-0.01-0.15 0.06-0.15 0.06 0.08 0 0.17 0.03 0.24 0.01 0.02 0.09 0.11 0.12 0.12 0.03 0.01 0.16-0.07 0.24 0 0-0.09 0.05-0.13 0.06-0.21 -0.14-0.03-0.2-0.22-0.12-0.37 -0.08-0.03-0.15-0.07-0.24-0.09 -0.02 0.08-0.03 0.17-0.15 0.15 -0.08-0.18 0.05-0.38-0.03-0.55 0.13 0.01 0.15-0.09 0.24-0.12 0.02 0.12 0.07 0.21 0.24 0.18 0.03-0.08 0.04-0.16 0.03-0.27 -0.05-0.08-0.16 0.12-0.24 0 0.04-0.11 0.16-0.14 0.18-0.27 0-0.07-0.05-0.09-0.03-0.18 -0.16 0.01-0.08-0.06-0.12-0.12 0.09-0.1 0.15-0.24 0.12-0.46 -0.1-0.01-0.09-0.13-0.12-0.21 0.1-0.01 0.11-0.12 0.18-0.15 0.12 0 0.24 0 0.36 0 0.08 0 0.04 0.12 0.12 0.12 0.11-0.25-0.14-0.38-0.24-0.52 -0.11 0.01-0.15-0.06-0.24-0.06 -0.05-0.13-0.2-0.14-0.27-0.24 0.08-0.12 0.19-0.2 0.4-0.18 0.06-0.03 0.05-0.14 0.15-0.12 0.1 0.08 0.24-0.01 0.33-0.03 -0.02-0.18-0.1-0.31-0.15-0.45 0.02 0.11-0.13 0.1-0.15 0.12 -0.04 0.04 0 0.12-0.09 0.09 -0.04-0.01-0.06-0.04-0.12-0.03 -0.04-0.17-0.19-0.21-0.24-0.37 -0.01-0.07 0.14 0.02 0.09-0.09 -0.04-0.2 0.07-0.25 0.09-0.4 0.01-0.1-0.02-0.25 0.03-0.3 0.07 0 0.14 0 0.21 0 0.12-0.28 0.23-0.55 0.52-0.67 0-0.05 0-0.1 0-0.15 0-0.09-0.15-0.03-0.15-0.12 0.03-0.04 0.04-0.08 0.03-0.15 0.11-0.01 0.09-0.15 0.18-0.18 -0.03-0.15-0.12-0.26-0.15-0.4C194 16.2 194.05 16.16 194.04 16.1zM190.25 16.83c-0.02 0-0.04 0-0.06 0 0-0.04 0-0.08 0-0.12 0.02 0 0.04 0 0.06 0C190.25 16.75 190.25 16.79 190.25 16.83zM190.55 24.36c0-0.09 0.13-0.06 0.21-0.06C190.78 24.44 190.62 24.39 190.55 24.36zM190.76 24.27c0.04-0.12 0.07-0.17 0.03-0.31 0.16-0.02 0.26 0.03 0.27 0.15C190.95 24.16 190.93 24.29 190.76 24.27zM191.67 24.06c0.09-0.04 0.09 0.14 0 0.09C191.67 24.12 191.67 24.09 191.67 24.06zM191.79 24.46c-0.02 0.16-0.24 0.13-0.21 0.33 -0.08 0.02-0.06-0.06-0.09-0.09 -0.07 0.01-0.11-0.01-0.12-0.06 -0.02-0.11 0.11-0.08 0.15-0.12 0-0.12-0.16-0.2-0.09-0.3 0.08-0.03 0.05 0.07 0.12 0.09 0.03 0.01 0.09-0.02 0.12 0C191.72 24.33 191.75 24.42 191.79 24.46zM193.31 10.24c-0.04-0.02-0.06-0.06-0.06-0.12 -0.06 0.01-0.1-0.01-0.09-0.06 0.05 0 0.1 0 0.15 0C193.31 10.12 193.31 10.18 193.31 10.24zM193.4 8.3c0.11 0.04 0.06 0.08 0.06 0.21C193.34 8.54 193.36 8.35 193.4 8.3zM193.46 9.06c-0.01 0.13 0.05 0.14 0 0.24 -0.16 0-0.21-0.1-0.24-0.21 0.01-0.08-0.12-0.02-0.09-0.12C193.22 8.91 193.36 9.03 193.46 9.06zM193.13 9.55c0.01 0.1-0.03 0.14-0.12 0.12C192.91 9.58 193.05 9.45 193.13 9.55zM192.71 19.38c0 0.04 0 0.08 0 0.12 -0.1 0.03-0.06-0.08-0.12-0.09C192.59 19.37 192.66 19.39 192.71 19.38zM192.19 19.05c0.04 0.03 0.08 0.04 0.15 0.03 0.02 0.14 0.2 0.12 0.21 0.27 -0.04 0.03-0.08 0.04-0.15 0.03 -0.04-0.01 0-0.09-0.03-0.12 -0.02-0.03-0.1-0.01-0.12-0.03 -0.01-0.01 0.01-0.05 0-0.06C192.23 19.14 192.15 19.1 192.19 19.05zM192.58 21.27c0 0.02 0 0.04 0 0.06 -0.02 0-0.04 0-0.06 0 0-0.02 0-0.04 0-0.06C192.54 21.27 192.56 21.27 192.58 21.27zM192.16 20.72c0.11-0.03 0.05 0.13 0.03 0.15C192.12 20.88 192.18 20.76 192.16 20.72zM192.04 20.33c0-0.11 0-0.22 0-0.33 0.13-0.01 0.16 0.08 0.18 0.18C192.18 20.25 192.15 20.32 192.04 20.33zM192.04 19.51c0.03 0 0.06 0 0.09 0 0.03 0.1 0.08 0.19 0.09 0.3 -0.09-0.01-0.08-0.12-0.18-0.12C192.03 19.58 192 19.6 192.04 19.51zM192.04 21.18c0.18-0.02 0.19 0.21 0 0.18C192 21.32 192 21.21 192.04 21.18zM192.04 22.12c0.02 0.15 0.07 0.1 0 0.24 -0.01 0.02-0.04 0.08-0.06 0.09 -0.09-0.03-0.11-0.13-0.18-0.18 -0.02-0.07 0.06-0.04 0.06-0.09 0.02-0.08-0.06-0.11-0.06-0.18 -0.01-0.11 0.08-0.18 0.12-0.27 0.07 0 0.14 0 0.21 0 0.03-0.16-0.15-0.11-0.21-0.18 0.07-0.15 0.28 0 0.43-0.03 -0.02 0.09 0.05 0.09 0.03 0.18 -0.04 0.04-0.16 0-0.12 0.12 -0.09-0.03-0.08 0.04-0.15 0.03C192.09 21.94 192.02 21.96 192.04 22.12zM192.71 22.3c-0.08 0.02-0.06-0.06-0.09-0.09 -0.08 0-0.16 0-0.24 0 -0.06 0.17 0.14 0.08 0.12 0.21 -0.16 0.01-0.26-0.1-0.21-0.21 0.14 0.05 0.1-0.15 0.06-0.18 -0.09 0-0.05 0.13-0.15 0.12 -0.09 0-0.11-0.16-0.06-0.21 0.13 0 0.18 0.08 0.33 0.06 0.1-0.08-0.01-0.21 0.06-0.33 0.07 0.02 0.16 0.03 0.21 0.06C192.78 21.97 192.72 22.14 192.71 22.3zM192.64 21.63c-0.04-0.04-0.04-0.14 0-0.18 0.05 0.02 0.13 0.02 0.15 0.06C192.79 21.59 192.72 21.61 192.64 21.63zM192.73 18.14c-0.01-0.14 0.02-0.22 0.06-0.3C192.84 17.9 192.93 18.18 192.73 18.14zM192.98 13.01c0.02 0 0.04 0 0.06 0 0.06-0.01 0.06 0.04 0.06 0.09 0.12-0.01 0.16 0.07 0.24 0.09 0.11 0.02 0.13-0.05 0.24-0.03 -0.01 0.17 0.14 0.16 0.15 0.3 -0.21-0.01-0.29 0.04-0.46 0 -0.05-0.12-0.17-0.17-0.21-0.3 -0.05 0-0.1 0-0.15 0C192.95 13.12 193 13.1 192.98 13.01zM193.62 16.5c-0.03 0.08 0.05 0.07 0 0.18 -0.06 0-0.06 0.04-0.12 0.03 0.12 0.12 0.29 0.3 0.18 0.55 -0.07 0.01-0.07-0.05-0.15-0.03 -0.07-0.14-0.18-0.24-0.27-0.36 -0.01-0.11 0.1-0.1 0.12-0.18 -0.02-0.14-0.03-0.3-0.18-0.3 -0.03-0.06 0.09-0.1 0-0.12 0.04-0.08 0.18-0.06 0.21-0.15 0.09 0 0.08 0.09 0.12 0.12 0.04-0.02 0.2 0.07 0.21 0.12C193.75 16.39 193.64 16.42 193.62 16.5z"/><path class="st0" d="M191.19 26.64c-0.02 0.09-0.11 0.11-0.18 0.15 0.11 0.11-0.12 0.38 0.12 0.36 -0.01-0.13 0.03-0.21 0.09-0.27 0.14 0.02 0.22 0.11 0.18 0.3 0.06 0.03 0.12 0.06 0.18 0.09 0.06-0.05 0.07-0.15 0.06-0.27 -0.04-0.01-0.06-0.04-0.12-0.03 0-0.1-0.13-0.07-0.12-0.18 0.12-0.04 0.1 0.06 0.18 0.06 0.01-0.06-0.04-0.06-0.06-0.09 0.01-0.08-0.01-0.13-0.09-0.12 -0.08-0.01-0.03 0.11-0.09 0.12C191.27 26.74 191.26 26.66 191.19 26.64z"/><path class="st0" d="M191.37 27.92c0 0.08-0.17 0.13-0.03 0.18 0.04-0.02 0-0.12 0.06-0.12 0.04 0 0.08 0 0.12 0 -0.01 0.07 0.01 0.11 0.06 0.12 0.08-0.08-0.03-0.12-0.03-0.21C191.48 27.88 191.4 27.88 191.37 27.92z"/><path class="st0" d="M191.13 29.98c-0.04 0-0.08 0-0.12 0 0.03-0.12-0.07-0.11-0.09-0.18 0.02-0.13-0.04-0.18-0.03-0.3 0.03-0.06 0.13-0.05 0.12-0.15 -0.07 0.02-0.09-0.06-0.12-0.09 -0.05-0.05-0.07-0.04-0.09-0.12 -0.02-0.07 0.05-0.17 0-0.24 0.05-0.07 0.18-0.07 0.3-0.06 -0.01 0.09 0.07 0.17 0.09 0.24 0.02 0.06-0.03 0.14 0.06 0.15 -0.03-0.13 0.09-0.11 0.15-0.15 -0.02-0.12-0.18-0.1-0.12-0.3 -0.14 0-0.15-0.13-0.15-0.27 0.08 0 0.09-0.05 0.15-0.06 -0.01-0.08-0.1-0.18-0.09-0.24 0-0.01 0.05 0 0.03-0.03 -0.02-0.05-0.12-0.03-0.09-0.12 0.02-0.06 0.09-0.12 0.03-0.18 -0.04 0-0.08 0-0.12 0 -0.06 0.05-0.01 0.15-0.03 0.21 -0.01 0.03-0.06 0.02-0.06 0.09 -0.01 0.14 0.09 0.26 0.09 0.43 0.01 0.14-0.34 0.24-0.37 0.06 0-0.14 0.17-0.11 0.15-0.27 -0.01-0.09-0.14-0.06-0.18-0.12 0.06-0.08-0.01-0.3 0.12-0.3 0.02-0.11-0.11-0.07-0.09-0.18 0.05-0.01 0.07-0.05 0.06-0.12 -0.15-0.04-0.12-0.34-0.09-0.45 -0.01-0.06-0.08-0.08-0.12-0.12 -0.01-0.01 0.01-0.05 0-0.06 -0.01-0.01-0.05 0.01-0.06 0 -0.1-0.09-0.02-0.22-0.12-0.33 0.1 0.01 0.15-0.04 0.15-0.12 -0.1-0.08-0.27-0.1-0.33-0.21 0.01-0.17 0.01-0.33-0.06-0.42 -0.22 0.01-0.28 0.17-0.34 0.33 -0.09-0.04-0.07 0.05-0.12 0.06 -0.02 0.25 0.05 0.42 0.03 0.67 0.14 0.02 0.2 0.12 0.27 0.21 -0.06 0.09-0.07 0.23-0.06 0.39 0.04 0.05 0.12 0.05 0.15 0.09 -0.03 0.21 0.08 0.26 0.12 0.4 -0.02 0.08-0.07 0.15-0.09 0.24 0.07 0.11 0.13-0.1 0.18 0 0.03 0.2-0.17 0.17-0.18 0.33 0.02 0.17 0.05 0.33 0.18 0.4 -0.01 0.06-0.12 0.02-0.09 0.12 0.04 0.18-0.09 0.19-0.06 0.36 0.09 0.03 0.31 0.27 0.09 0.33 0.04 0.15 0.1 0.28 0.21 0.37 0 0.06 0 0.12 0 0.18 -0.07-0.01-0.12 0.01-0.15 0.03 -0.02 0.17 0.08 0.22 0.15 0.3 0.02 0.17 0.06 0.35 0 0.52 0.01 0.06 0.11 0.03 0.12 0.09 0 0.07-0.01 0.15 0.06 0.15 0.05-0.05 0.09-0.11 0.15-0.15 -0.11-0.02-0.11-0.16-0.18-0.21 0.07 0 0.14 0 0.21 0 0.05-0.11 0.02-0.28 0.03-0.43 0.02-0.08 0.13-0.08 0.12-0.18 0.02-0.09-0.03-0.11-0.03-0.18 0.07 0.01 0.1-0.02 0.09-0.09 0.02-0.08-0.06-0.06-0.06-0.12 0.05-0.03 0.05-0.11 0.12-0.12C191.07 30.02 191.22 30.01 191.13 29.98zM190.21 26.61c0-0.03 0-0.06 0-0.09C190.3 26.48 190.3 26.66 190.21 26.61z"/><path class="st0" d="M66.97 3.12c-0.07-0.11-0.12-0.23-0.1-0.43 -0.01-0.08-0.12-0.06-0.1-0.17V2.29c-0.08-0.11-0.25-0.13-0.4-0.17 -0.06-0.06 0.03-0.08 0-0.2 -0.14-0.09-0.29-0.16-0.5-0.1 0.03-0.08-0.07-0.12-0.1-0.16 -0.13-0.18-0.18-0.36-0.3-0.53 -0.43-0.02-0.91-0.02-1.32 0 -0.06 0.02 0 0.16-0.06 0.17 -0.14-0.08-0.25-0.19-0.5-0.17 -0.12 0.1-0.17 0.27-0.36 0.3 -0.02 0.11-0.02 0.24-0.17 0.23 0.01 0.1-0.09 0.11-0.06 0.23 -0.17 0.02-0.21 0.16-0.4 0.17 -0.08 0.08-0.15 0.17-0.23 0.23 -0.01 0.01-0.05-0.01-0.07 0C62.3 2.3 62.3 2.34 62.28 2.36c-0.05 0.03-0.09 0.04-0.13 0.07 0 0.19-0.12 0.26-0.2 0.36 0.02 0.17-0.09 0.22-0.07 0.4 -0.04 0-0.07 0.02-0.1 0.03 0.01 0.38-0.19 0.7-0.13 1.02 -0.15 0.01-0.11 0.2-0.23 0.23 -0.01 0.08 0.06 0.07 0.03 0.17 -0.07 0.03-0.12 0.1-0.13 0.2 -0.26 0.11-0.4 0.34-0.63 0.5 0.04 0.22-0.08 0.27-0.17 0.36 -0.03 0.26-0.03 0.37 0.07 0.53 -0.1 0.14 0.01 0.36-0.03 0.5 -0.03 0.11-0.09 0.12-0.17 0.2 0.02 0.21-0.04 0.34-0.07 0.46 -0.04 0.19-0.06 0.25-0.1 0.33 -0.02 0.04-0.01 0.08-0.03 0.13 -0.03 0.06-0.11 0.11-0.13 0.17 -0.03 0.07-0.01 0.16-0.03 0.23 -0.02 0.07-0.06 0.13-0.1 0.2V8.7c-0.06 0.07-0.18 0.1-0.1 0.23 -0.11 0.05-0.12 0.21-0.26 0.23 -0.07 0.29-0.36 0.36-0.36 0.73 -0.12-0.01-0.12 0.1-0.23 0.1 0.02 0.21-0.08 0.3-0.2 0.36 -0.01 0.09 0.11 0.06 0.06 0.2 -0.12 0.01-0.14 0.12-0.23 0.17 -0.03 0.06-0.06 0.12-0.07 0.2 -0.1-0.04-0.08 0.05-0.13 0.07 -0.06 0.14 0.01 0.23 0 0.33 -0.01 0.05-0.05 0.06-0.07 0.1 -0.02 0.07 0.02 0.12 0 0.2 -0.04 0.05-0.14 0.04-0.13 0.13 0.01 0.28-0.05 0.5-0.23 0.6 -0.03 0.11 0.06 0.14 0 0.2 -0.09 0.09-0.19 0.19-0.2 0.36 -0.11 0.07-0.18 0.17-0.26 0.26 -0.01 0.08 0.01 0.13 0.03 0.17 -0.08 0.03-0.19 0.03-0.2 0.13 -0.05 0.01 0.04 0.18-0.07 0.2 -0.02 0.12 0.12 0.08 0.1 0.2 -0.04 0.06-0.09 0.11-0.13 0.17 -0.02 0.14-0.03 0.29-0.07 0.36 -0.01 0.02-0.02 0.06-0.03 0.1 -0.03 0.06-0.08 0.08-0.1 0.13 -0.04 0.1 0.03 0.24-0.1 0.3 0.03 0.08 0.04 0.18 0.03 0.3 -0.07 0.13-0.19 0.23-0.23 0.4 -0.04 0.16 0.01 0.35-0.03 0.53 -0.14 0.08-0.12 0.32-0.3 0.36 0.01 0.1-0.09 0.11-0.07 0.23 -0.16 0-0.15 0.16-0.26 0.2 -0.02 0.1 0.09 0.06 0.07 0.16 -0.16 0.13-0.09 0.28-0.17 0.43 -0.01 0.01-0.06 0.02-0.07 0.03 -0.02 0.03-0.01 0.07-0.03 0.1 -0.11 0.15-0.28 0.26-0.33 0.43 -0.02 0.08 0 0.18 0 0.26 0 0.04 0 0.2 0 0.2 0 0-0.06 0.03-0.07 0.03 -0.01 0.02-0.03 0.09-0.03 0.1 -0.03 0.08-0.04 0.11-0.03 0.2 -0.09 0-0.09 0.1-0.13 0.17 -0.14 0.23-0.22 0.53-0.26 0.86 -0.01 0.05-0.07 0.04-0.1 0.07 -0.02 0.32-0.21 0.46-0.26 0.73 -0.12 0.01-0.11 0.14-0.17 0.2 -0.02 0.02-0.08 0.01-0.1 0.03 -0.01 0.01 0.01 0.05 0 0.07 -0.02 0.04-0.09 0.01-0.13 0.03 -0.01 0.01-0.02 0.06-0.03 0.07 -0.12 0.08-0.28 0.1-0.3 0.26 0.07 0.09 0.12 0.19 0.2 0.26 0.01 0.39-0.02 0.75-0.2 0.96 -0.04 0.43-0.22 0.71-0.4 0.99 -0.14 0.03-0.18 0.15-0.3 0.2 -0.02 0.22-0.13 0.37-0.07 0.6 -0.07 0.16-0.24 0.21-0.26 0.4 -0.01 0.08 0.07 0.17 0.03 0.3 -0.05 0.18-0.2 0.27-0.2 0.5 -0.12 0.04-0.19 0.12-0.16 0.3 -0.02 0.05-0.16-0.01-0.13 0.1 -0.03 0.15 0.08 0.16 0.07 0.3 -0.14 0.02-0.18 0.13-0.36 0.1 0 0.1-0.19 0.18-0.2 0.2 -0.05 0.1-0.03 0.21 0 0.33 0.15-0.03 0.19-0.16 0.36-0.17 -0.02 0.17-0.15 0.22-0.17 0.4 -0.12-0.01-0.12 0.06-0.17 0.13 -0.04 0.05-0.08 0.09-0.1 0.13 0 0.1 0.1 0.09 0.07 0.23 -0.06 0.1-0.17 0.16-0.2 0.3 -0.08 0.09-0.21 0.23-0.03 0.3 0.12 0.02 0.04-0.26 0.17-0.13 0.07 0.07-0.04 0.09-0.07 0.13 -0.05 0.07-0.09 0.13-0.1 0.23 -0.14 0-0.2 0.08-0.3 0.13 0.02 0.16-0.05 0.24-0.03 0.36 0.01 0.11 0.12 0.18 0.13 0.3 0.01 0.12-0.05 0.23-0.03 0.4 -0.22 0.03-0.3 0.21-0.43 0.33 0.01 0.1 0.13 0.09 0.13 0.2 -0.09 0.02-0.03 0.19-0.13 0.2 -0.08-0.03-0.06-0.16-0.17-0.17 -0.06 0.09 0 0.31-0.17 0.3 -0.01 0.13 0.15 0.09 0.17 0.2 -0.09 0.07-0.06 0.18 0 0.26 -0.09 0.06-0.17 0.14-0.13 0.33 0.14 0.05 0.07-0.13 0.2-0.1 0.25 0.05 0.3-0.1 0.5-0.1 0.03 0.26-0.17 0.27-0.26 0.4h-0.17c-0.01 0.14-0.19 0.12-0.23 0.23 -0.01 0.11 0.01 0.19 0.03 0.26 0.07 0.04 0.09-0.04 0.13-0.07 0.13-0.09 0.15-0.13 0.23-0.23 0.17-0.02 0.18-0.19 0.36-0.2 0-0.08 0.06-0.12 0.1-0.16 0.1-0.04 0.17-0.1 0.23-0.13 0.02-0.01 0.08-0.02 0.1-0.03 0.04-0.03 0.03-0.1 0.07-0.13 0.06-0.05 0.18 0.02 0.13-0.1v-0.17c-0.15-0.03-0.11 0.13-0.26 0.1 -0.01-0.07-0.15-0.01-0.13-0.1 0.02-0.12 0.15-0.13 0.16-0.26 -0.01-0.13 0.01-0.21 0.1-0.23 0.14 0.08 0.19-0.03 0.33-0.03 -0.02-0.12 0.09-0.13 0.13-0.17 0.03-0.02 0.01-0.07 0.03-0.1 0.07-0.08 0.2-0.12 0.2-0.26 -0.03-0.13-0.2 0-0.23-0.07 0.03-0.17 0.11-0.28 0.33-0.26 -0.02-0.08-0.05-0.15-0.03-0.26 0.07-0.07 0.2-0.08 0.3-0.13 -0.01-0.14-0.1-0.21-0.13-0.33 0.07-0.03 0.12-0.08 0.16-0.13 0.02-0.08 0-0.2 0.1-0.2 0.18-0.04 0.11 0.18 0.26 0.17 0.09-0.13 0.21-0.23 0.3-0.36 0.08 0.01 0.14-0.02 0.17-0.07 -0.16-0.11-0.25 0.09-0.46 0.03 -0.06-0.08-0.01-0.28-0.07-0.36 0.12-0.04 0.28-0.06 0.36-0.13 0.05-0.15-0.03-0.32 0.1-0.43 0.11 0.02 0.23 0.03 0.36 0 -0.01-0.1 0.08-0.1 0.07-0.2 -0.03-0.07-0.11-0.09-0.16-0.13 0.05-0.18-0.09-0.18-0.1-0.3 0.14-0.03 0.16-0.17 0.2-0.3 0.13 0.03 0.15 0.16 0.23 0.23 -0.08 0.08 0 0.2 0 0.3 0.28 0.02 0.38-0.03 0.4-0.2 0.01-0.16-0.18-0.15-0.2-0.3 0.02-0.22-0.11-0.31-0.13-0.5 0.04-0.17 0.16-0.26 0.26-0.37 0.13 0.02 0.12 0.19 0.27 0.2 0.09 0 0.14-0.07 0.23-0.1 0.08-0.02 0.17 0 0.23-0.03 0.01 0 0-0.06 0-0.07 0.03-0.06 0.23-0.01 0.17-0.13 -0.15-0.11-0.49-0.02-0.5-0.26 0.08-0.07 0.15-0.17 0.23-0.2 0.07-0.09 0.15-0.16 0.3-0.17 0.02 0.15 0.08 0.25 0.27 0.23 0.06-0.01 0.08-0.06 0.07-0.13 0.09 0.01 0.11-0.04 0.1-0.13 -0.04-0.05-0.16-0.02-0.2-0.07 -0.03-0.15-0.2-0.15-0.2-0.33 0.18-0.11 0.18-0.41 0.3-0.59 0.03 0 0.04-0.03 0.07-0.03 0.16 0.02 0.22 0.13 0.43 0.1 0.13-0.16 0.37-0.2 0.36-0.5 0.05-0.01 0.03-0.1 0.13-0.06 -0.03-0.18-0.2-0.22-0.2-0.43 0.01-0.1 0.11-0.15 0.17-0.2 0.07-0.06 0.14-0.1 0.2-0.17 0.19 0.01 0.34-0.01 0.46-0.07 0.08-0.08 0.07-0.26 0.06-0.43 -0.12 0.02-0.12-0.07-0.23-0.07 0-0.13-0.1-0.15-0.1-0.26 0-0.13 0.18-0.27 0.26-0.3 0.01-0.18 0.19-0.21 0.3-0.3 0.13 0.02 0.19-0.03 0.3-0.03 -0.01-0.21 0.16-0.24 0.13-0.46 0.12-0.08 0.22-0.18 0.33-0.26 0.16-0.03 0.25-0.13 0.36-0.2 0.03-0.12-0.06-0.14 0-0.2 0.11-0.15 0.46-0.04 0.59-0.16 0.02-0.1-0.06-0.1-0.03-0.2 -0.16-0.04-0.37-0.02-0.43-0.17 0.04-0.11 0.09-0.19 0.2-0.23 0.01-0.1 0.07-0.15 0.1-0.23 0.1-0.04 0.17-0.11 0.26-0.16 -0.02-0.13 0.09-0.13 0.07-0.27 0.15 0 0.13-0.16 0.17-0.26 0.12-0.01 0.09-0.17 0.23-0.17 0.12-0.36 0.47-0.5 0.46-0.99 0.19-0.13 0.27-0.37 0.46-0.5v-0.2c0.06 0.01 0.07-0.04 0.13-0.03v-0.26c0.11-0.11 0.25-0.19 0.26-0.4 0.14-0.07 0.25-0.16 0.26-0.36 0.08 0.01 0.07-0.06 0.17-0.03 -0.02-0.14 0.02-0.22 0.03-0.33 0.1 0.01 0.09-0.12 0.13-0.17 0.05-0.05 0.14-0.07 0.17-0.13 -0.02-0.12 0.06-0.14 0.03-0.26 0.04-0.01 0.06-0.05 0.13-0.03 -0.05-0.23 0.08-0.28 0.17-0.36 -0.07 0.01-0.1-0.03-0.1-0.1 0.14-0.11 0.23-0.28 0.33-0.43 -0.01-0.19 0.02-0.33 0.17-0.36 0.01-0.25 0.13-0.4 0.13-0.66 0.06 0 0.1-0.07 0.13-0.1 0.03-0.03 0.1-0.07 0.1-0.13 0.07 0 0.01-0.14 0.03-0.2 0.07-0.01 0.06-0.09 0.13-0.1 -0.04-0.24 0.14-0.26 0.1-0.5 0.16-0.18 0.29-0.37 0.33-0.63 0.09 0.02 0.07-0.07 0.13-0.07 0.01-0.39 0.15-0.63 0.17-0.93 0.1-0.06 0.13-0.2 0.13-0.36 0.21-0.07 0.18-0.37 0.23-0.6 0.16-0.11 0.14-0.42 0.3-0.53 -0.01-0.13 0.06-0.18 0.03-0.33 0.01-0.07 0.09-0.07 0.13-0.1 0.03-0.09-0.05-0.09-0.03-0.17 0.08-0.08 0.14-0.19 0.2-0.3l9.83 22.75h2.95L66.91 3.85C66.94 3.57 66.97 3.33 66.97 3.12zM51.17 30.72c-0.07-0.02-0.03-0.2 0-0.23C51.24 30.51 51.2 30.69 51.17 30.72zM63.44 2.52H63.3c-0.02-0.15-0.17-0.18-0.13-0.4 0.09-0.12 0.32-0.1 0.53-0.1 0.02 0.22 0.07 0.42 0.07 0.66C63.63 2.68 63.5 2.67 63.44 2.52z"/></svg>