<?xml version="1.0" encoding="UTF-8" standalone="no"?><!-- Generator: Gravit.io --><svg xmlns="http://www.w3.org/2000/svg" xmlns:xlink="http://www.w3.org/1999/xlink" style="isolation:isolate" viewBox="0 0 150 150" width="150pt" height="150pt"><defs><clipPath id="_clipPath_OvILEFoEiKtNOWUuUrHzWXvP8MSJTIeI"><rect width="150" height="150"/></clipPath></defs><g clip-path="url(#_clipPath_OvILEFoEiKtNOWUuUrHzWXvP8MSJTIeI)"><g><path d=" M 9.625 99.34 C 9.625 100.103 9.53 100.817 9.339 101.437 C 9.149 102.056 8.863 102.58 8.482 103.057 C 8.1 103.486 7.624 103.867 7.004 104.105 C 6.433 104.343 5.718 104.486 4.956 104.486 C 4.193 104.486 3.526 104.343 2.954 104.105 C 2.382 103.867 1.906 103.533 1.477 103.057 C 1.096 102.628 0.81 102.056 0.619 101.437 C 0.381 100.817 0.286 100.103 0.286 99.34 L 0.286 97.768 C 0.286 97.005 0.381 96.291 0.572 95.671 C 0.762 95.052 1.048 94.528 1.429 94.051 C 1.811 93.622 2.287 93.241 2.907 93.003 C 3.478 92.765 4.145 92.622 4.908 92.622 C 5.67 92.622 6.337 92.765 6.957 93.003 C 7.529 93.241 8.053 93.575 8.434 94.051 C 8.815 94.48 9.101 95.052 9.292 95.671 C 9.482 96.291 9.578 97.005 9.578 97.768 L 9.578 99.34 L 9.625 99.34 Z  M 7.719 97.72 C 7.719 96.624 7.481 95.814 7.052 95.147 C 6.623 94.528 5.909 94.194 4.908 94.194 C 3.907 94.194 3.24 94.528 2.764 95.147 C 2.335 95.766 2.097 96.624 2.097 97.72 L 2.097 99.292 C 2.097 100.388 2.335 101.198 2.764 101.866 C 3.193 102.485 3.907 102.819 4.908 102.819 C 5.909 102.819 6.623 102.485 7.052 101.866 C 7.529 101.246 7.719 100.388 7.719 99.292 L 7.719 97.72 Z " fill="rgb(52,52,58)"/><path d=" M 20.823 104.153 C 20.727 104.248 20.632 104.296 20.537 104.296 L 19.536 104.296 C 19.441 104.296 19.346 104.248 19.25 104.153 C 19.155 104.057 19.107 103.962 19.107 103.867 L 19.107 99.197 L 13.58 99.197 L 13.58 103.867 C 13.58 103.962 13.532 104.057 13.437 104.153 C 13.342 104.248 13.247 104.296 13.151 104.296 L 12.151 104.296 C 12.055 104.296 11.96 104.248 11.865 104.153 C 11.769 104.057 11.722 103.962 11.722 103.867 L 11.722 93.193 C 11.722 93.098 11.769 93.003 11.865 92.907 C 11.96 92.812 12.055 92.765 12.151 92.765 L 13.151 92.765 C 13.247 92.765 13.342 92.812 13.437 92.907 C 13.532 93.003 13.58 93.098 13.58 93.193 L 13.58 97.625 L 19.107 97.625 L 19.107 93.193 C 19.107 93.098 19.155 93.003 19.25 92.907 C 19.346 92.812 19.441 92.765 19.536 92.765 L 20.537 92.765 C 20.632 92.765 20.727 92.812 20.823 92.907 C 20.918 93.003 20.966 93.098 20.966 93.193 L 20.966 103.867 C 20.966 104.01 20.966 104.105 20.823 104.153 Z " fill="rgb(52,52,58)"/><path d=" M 28.113 94.671 C 28.065 94.432 27.922 94.289 27.732 94.289 C 27.541 94.289 27.398 94.432 27.303 94.671 L 24.778 104.01 C 24.73 104.105 24.682 104.153 24.635 104.248 C 24.587 104.296 24.492 104.343 24.396 104.343 L 23.158 104.343 C 22.919 104.343 22.824 104.248 22.824 104.01 C 22.824 103.962 22.824 103.914 22.824 103.867 L 25.588 94.289 C 25.683 93.956 25.778 93.718 25.969 93.527 C 26.112 93.336 26.302 93.146 26.493 93.05 C 26.684 92.955 26.874 92.86 27.112 92.812 C 27.351 92.765 27.541 92.717 27.732 92.717 C 27.922 92.717 28.113 92.717 28.351 92.765 C 28.59 92.812 28.78 92.907 28.971 93.003 C 29.161 93.146 29.352 93.289 29.495 93.479 C 29.638 93.67 29.781 93.956 29.876 94.242 L 32.64 103.867 C 32.64 103.914 32.64 103.962 32.64 104.01 C 32.64 104.248 32.544 104.343 32.306 104.343 L 31.067 104.343 C 30.972 104.343 30.877 104.296 30.829 104.248 C 30.781 104.2 30.734 104.105 30.686 104.01 L 28.113 94.671 Z " fill="rgb(52,52,58)"/><path d=" M 42.503 103.867 C 42.503 103.962 42.456 104.057 42.36 104.153 C 42.265 104.248 42.17 104.296 42.074 104.296 L 41.121 104.296 C 41.026 104.296 40.931 104.248 40.835 104.153 C 40.74 104.057 40.693 103.962 40.693 103.867 L 40.693 103.39 C 40.168 103.676 39.692 103.914 39.12 104.105 C 38.548 104.296 38.024 104.391 37.452 104.391 C 37.024 104.391 36.595 104.343 36.166 104.248 C 35.737 104.153 35.403 103.962 35.07 103.676 C 34.736 103.39 34.498 103.057 34.307 102.628 C 34.117 102.199 34.022 101.627 34.022 101.008 L 34.022 100.817 C 34.022 100.245 34.117 99.769 34.26 99.34 C 34.45 98.911 34.736 98.578 35.118 98.292 C 35.499 98.006 36.023 97.815 36.69 97.672 C 37.309 97.529 38.119 97.482 39.072 97.482 L 40.645 97.482 L 40.645 96.624 C 40.645 95.766 40.454 95.147 40.121 94.766 C 39.787 94.385 39.215 94.242 38.405 94.242 C 37.738 94.242 37.119 94.242 36.595 94.289 C 36.071 94.337 35.594 94.385 35.213 94.385 C 35.118 94.385 34.975 94.385 34.879 94.337 C 34.784 94.289 34.736 94.194 34.736 94.051 L 34.736 93.336 C 34.736 93.098 34.879 93.003 35.165 92.955 C 35.594 92.907 36.071 92.812 36.595 92.765 C 37.119 92.717 37.738 92.669 38.405 92.669 C 39.835 92.669 40.883 93.003 41.55 93.718 C 42.17 94.432 42.503 95.385 42.503 96.624 L 42.503 103.867 L 42.503 103.867 Z  M 40.597 98.721 L 39.025 98.721 C 38.405 98.721 37.881 98.768 37.452 98.816 C 37.024 98.911 36.69 99.007 36.452 99.15 C 36.213 99.292 36.023 99.531 35.928 99.769 C 35.832 100.007 35.785 100.341 35.785 100.722 L 35.785 100.96 C 35.785 101.723 35.975 102.199 36.309 102.485 C 36.642 102.771 37.119 102.866 37.738 102.866 C 38.215 102.866 38.691 102.819 39.12 102.676 C 39.549 102.533 40.025 102.342 40.55 102.056 L 40.55 98.721 L 40.597 98.721 Z " fill="rgb(52,52,58)"/><path d=" M 45.029 103.676 L 45.029 93.193 C 45.029 92.907 45.172 92.812 45.41 92.812 L 46.506 92.812 C 46.601 92.812 46.696 92.86 46.792 92.907 C 46.839 92.955 46.887 93.05 46.887 93.193 L 46.887 101.389 C 46.887 101.437 46.887 101.437 46.887 101.437 C 46.887 101.437 46.935 101.437 46.935 101.389 L 51.795 93.193 C 51.89 93.003 52.033 92.86 52.128 92.86 C 52.224 92.86 52.414 92.812 52.652 92.812 L 53.748 92.812 C 53.939 92.812 54.082 92.86 54.13 92.907 C 54.177 93.003 54.225 93.146 54.225 93.384 L 54.225 103.914 C 54.225 104.057 54.177 104.153 54.13 104.2 C 54.082 104.296 53.987 104.296 53.844 104.296 L 52.748 104.296 C 52.652 104.296 52.557 104.248 52.462 104.2 C 52.414 104.105 52.367 104.01 52.367 103.914 L 52.367 95.766 C 52.367 95.671 52.319 95.671 52.271 95.766 L 47.411 104.01 C 47.316 104.153 47.22 104.248 47.125 104.296 C 47.03 104.343 46.887 104.343 46.744 104.343 L 45.553 104.343 C 45.362 104.343 45.219 104.296 45.124 104.153 C 45.076 104.01 45.029 103.867 45.029 103.676 Z  M 52.938 88.333 C 52.891 88.81 52.795 89.238 52.557 89.62 C 52.319 90.001 52.081 90.287 51.795 90.525 C 51.509 90.763 51.128 90.954 50.747 91.097 C 50.365 91.24 49.936 91.287 49.555 91.287 C 49.174 91.287 48.745 91.24 48.364 91.097 C 47.983 90.954 47.602 90.763 47.316 90.525 C 46.982 90.287 46.744 89.953 46.553 89.62 C 46.363 89.286 46.22 88.81 46.172 88.333 C 46.172 88.238 46.172 88.19 46.172 88.095 C 46.172 88 46.267 88 46.363 88 L 47.125 88 C 47.316 88 47.411 88.095 47.459 88.333 C 47.506 88.619 47.554 88.857 47.697 89.048 C 47.84 89.238 47.983 89.429 48.173 89.572 C 48.364 89.715 48.555 89.81 48.793 89.906 C 49.031 89.953 49.269 90.001 49.508 90.001 C 49.746 90.001 49.984 89.953 50.222 89.906 C 50.461 89.858 50.651 89.715 50.842 89.572 C 51.032 89.429 51.175 89.238 51.318 89.048 C 51.461 88.857 51.509 88.571 51.557 88.333 C 51.557 88.095 51.652 88 51.89 88 L 52.652 88 C 52.748 88 52.843 88.047 52.843 88.095 C 52.843 88.143 52.938 88.238 52.938 88.333 Z " fill="rgb(52,52,58)"/><path d=" M 65.947 104.153 C 65.851 104.248 65.756 104.296 65.661 104.296 L 64.612 104.296 C 64.517 104.296 64.422 104.248 64.327 104.153 C 64.231 104.057 64.184 103.962 64.184 103.867 L 64.184 99.197 L 58.656 99.197 L 58.656 103.867 C 58.656 103.962 58.609 104.057 58.513 104.153 C 58.418 104.248 58.323 104.296 58.227 104.296 L 57.227 104.296 C 57.132 104.296 57.036 104.248 56.941 104.153 C 56.846 104.057 56.798 103.962 56.798 103.867 L 56.798 93.193 C 56.798 93.098 56.846 93.003 56.941 92.907 C 57.036 92.812 57.132 92.765 57.227 92.765 L 58.227 92.765 C 58.323 92.765 58.418 92.812 58.513 92.907 C 58.609 93.003 58.656 93.098 58.656 93.193 L 58.656 97.625 L 64.184 97.625 L 64.184 93.193 C 64.184 93.098 64.231 93.003 64.327 92.907 C 64.422 92.812 64.517 92.765 64.612 92.765 L 65.613 92.765 C 65.708 92.765 65.804 92.812 65.899 92.907 C 65.994 93.003 66.042 93.098 66.042 93.193 L 66.042 103.867 C 66.042 104.01 65.994 104.105 65.947 104.153 Z " fill="rgb(52,52,58)"/><path d=" M 72.713 98.959 L 68.567 98.959 C 68.281 98.959 68.186 98.864 68.186 98.625 L 68.186 97.815 C 68.186 97.72 68.234 97.625 68.281 97.529 C 68.377 97.482 68.472 97.434 68.567 97.434 L 72.713 97.434 C 72.999 97.434 73.094 97.577 73.094 97.815 L 73.094 98.625 C 73.142 98.816 72.951 98.959 72.713 98.959 Z " fill="rgb(52,52,58)"/><path d=" M 86.102 104.153 C 86.007 104.248 85.912 104.296 85.816 104.296 L 84.863 104.296 C 84.768 104.296 84.673 104.248 84.578 104.153 C 84.482 104.057 84.435 103.962 84.435 103.867 L 84.435 95.052 L 82.004 99.435 C 81.909 99.626 81.814 99.721 81.671 99.817 C 81.528 99.912 81.337 99.96 81.099 99.96 L 80.289 99.96 C 80.051 99.96 79.86 99.912 79.717 99.817 C 79.574 99.721 79.479 99.626 79.384 99.435 L 76.954 95.052 L 76.954 103.867 C 76.954 103.962 76.906 104.057 76.811 104.153 C 76.715 104.248 76.62 104.296 76.525 104.296 L 75.572 104.296 C 75.476 104.296 75.381 104.248 75.286 104.153 C 75.191 104.057 75.143 103.962 75.143 103.867 L 75.143 93.193 C 75.143 93.098 75.191 93.003 75.286 92.907 C 75.381 92.812 75.476 92.765 75.572 92.765 L 76.954 92.765 C 77.144 92.765 77.24 92.765 77.382 92.812 C 77.478 92.86 77.573 92.955 77.621 93.05 L 80.575 98.435 C 80.623 98.53 80.67 98.578 80.67 98.578 C 80.718 98.578 80.766 98.53 80.813 98.435 L 83.767 93.05 C 83.815 92.907 83.91 92.86 84.006 92.812 C 84.101 92.765 84.244 92.765 84.435 92.765 L 85.816 92.765 C 85.912 92.765 86.007 92.812 86.102 92.907 C 86.198 93.003 86.245 93.098 86.245 93.193 L 86.245 103.867 C 86.293 104.01 86.245 104.105 86.102 104.153 Z " fill="rgb(52,52,58)"/><path d=" M 96.776 103.867 C 96.776 103.962 96.728 104.057 96.633 104.153 C 96.537 104.248 96.442 104.296 96.347 104.296 L 95.394 104.296 C 95.299 104.296 95.203 104.248 95.108 104.153 C 95.013 104.057 94.965 103.962 94.965 103.867 L 94.965 103.39 C 94.441 103.676 93.964 103.914 93.393 104.105 C 92.821 104.296 92.297 104.391 91.725 104.391 C 91.296 104.391 90.867 104.343 90.438 104.248 C 90.01 104.153 89.676 103.962 89.342 103.676 C 89.009 103.39 88.771 103.057 88.58 102.628 C 88.389 102.199 88.294 101.627 88.294 101.008 L 88.294 100.817 C 88.294 100.245 88.389 99.769 88.532 99.34 C 88.723 98.911 89.009 98.578 89.39 98.292 C 89.771 98.006 90.295 97.815 90.963 97.672 C 91.582 97.529 92.392 97.482 93.345 97.482 L 94.917 97.482 L 94.917 96.624 C 94.917 95.766 94.727 95.147 94.393 94.766 C 94.06 94.385 93.488 94.242 92.678 94.242 C 92.011 94.242 91.391 94.242 90.867 94.289 C 90.343 94.337 89.867 94.385 89.485 94.385 C 89.39 94.385 89.247 94.385 89.152 94.337 C 89.057 94.289 89.009 94.194 89.009 94.051 L 89.009 93.336 C 89.009 93.098 89.152 93.003 89.438 92.955 C 89.867 92.907 90.343 92.812 90.867 92.765 C 91.391 92.717 92.011 92.669 92.678 92.669 C 94.107 92.669 95.156 93.003 95.823 93.718 C 96.442 94.432 96.776 95.385 96.776 96.624 L 96.776 103.867 L 96.776 103.867 Z  M 95.013 98.721 L 93.44 98.721 C 92.821 98.721 92.297 98.768 91.868 98.816 C 91.439 98.911 91.105 99.007 90.867 99.15 C 90.629 99.292 90.438 99.531 90.343 99.769 C 90.248 100.007 90.2 100.341 90.2 100.722 L 90.2 100.96 C 90.2 101.723 90.391 102.199 90.724 102.485 C 91.058 102.771 91.534 102.866 92.154 102.866 C 92.63 102.866 93.107 102.819 93.536 102.676 C 93.964 102.533 94.441 102.342 94.965 102.056 L 95.013 98.721 L 95.013 98.721 Z " fill="rgb(52,52,58)"/><path d=" M 102.017 94.385 C 101.684 94.385 101.493 94.432 101.398 94.528 C 101.302 94.623 101.255 94.861 101.255 95.147 L 101.255 103.819 C 101.255 103.914 101.207 104.01 101.112 104.105 C 101.017 104.2 100.921 104.248 100.826 104.248 L 99.825 104.248 C 99.73 104.248 99.635 104.2 99.539 104.105 C 99.444 104.01 99.396 103.914 99.396 103.819 L 99.396 95.099 C 99.396 94.48 99.492 94.051 99.682 93.718 C 99.873 93.384 100.111 93.146 100.349 93.003 C 100.588 92.86 100.921 92.765 101.207 92.765 C 101.493 92.717 101.779 92.717 102.017 92.717 L 105.686 92.717 C 105.781 92.717 105.877 92.765 105.972 92.86 C 106.067 92.955 106.115 93.05 106.115 93.146 L 106.115 93.908 C 106.115 94.003 106.067 94.099 105.972 94.194 C 105.877 94.289 105.781 94.337 105.686 94.337 L 102.017 94.385 L 102.017 94.385 Z " fill="rgb(52,52,58)"/><path d=" M 115.597 103.867 C 115.597 103.962 115.55 104.057 115.454 104.153 C 115.359 104.248 115.264 104.296 115.168 104.296 L 114.215 104.296 C 114.12 104.296 114.025 104.248 113.929 104.153 C 113.834 104.057 113.787 103.962 113.787 103.867 L 113.787 103.39 C 113.262 103.676 112.786 103.914 112.214 104.105 C 111.642 104.296 111.118 104.391 110.546 104.391 C 110.118 104.391 109.689 104.343 109.26 104.248 C 108.831 104.153 108.497 103.962 108.164 103.676 C 107.83 103.39 107.592 103.057 107.402 102.628 C 107.211 102.199 107.116 101.627 107.116 101.008 L 107.116 100.817 C 107.116 100.245 107.211 99.769 107.354 99.34 C 107.544 98.911 107.83 98.578 108.212 98.292 C 108.593 98.006 109.117 97.815 109.784 97.672 C 110.403 97.529 111.213 97.482 112.166 97.482 L 113.739 97.482 L 113.739 96.624 C 113.739 95.766 113.548 95.147 113.215 94.766 C 112.881 94.385 112.309 94.242 111.499 94.242 C 110.832 94.242 110.213 94.242 109.689 94.289 C 109.165 94.337 108.688 94.385 108.307 94.385 C 108.212 94.385 108.069 94.385 107.973 94.337 C 107.878 94.289 107.83 94.194 107.83 94.051 L 107.83 93.336 C 107.83 93.098 107.973 93.003 108.259 92.955 C 108.688 92.907 109.165 92.812 109.689 92.765 C 110.213 92.717 110.832 92.669 111.499 92.669 C 112.929 92.669 113.977 93.003 114.644 93.718 C 115.264 94.432 115.597 95.385 115.597 96.624 L 115.597 103.867 L 115.597 103.867 Z  M 113.739 98.721 L 112.166 98.721 C 111.547 98.721 111.023 98.768 110.594 98.816 C 110.165 98.911 109.832 99.007 109.593 99.15 C 109.355 99.292 109.165 99.531 109.069 99.769 C 108.974 100.007 108.926 100.341 108.926 100.722 L 108.926 100.96 C 108.926 101.723 109.117 102.199 109.45 102.485 C 109.784 102.771 110.26 102.866 110.88 102.866 C 111.356 102.866 111.833 102.819 112.262 102.676 C 112.691 102.533 113.167 102.342 113.691 102.056 L 113.739 98.721 L 113.739 98.721 Z " fill="rgb(52,52,58)"/><path d=" M 125.747 102.533 C 125.508 102.961 125.175 103.343 124.794 103.629 C 124.365 103.914 123.888 104.105 123.316 104.248 C 122.745 104.391 122.173 104.439 121.506 104.439 C 120.934 104.439 120.41 104.391 119.886 104.343 C 119.361 104.296 118.885 104.248 118.456 104.153 C 118.361 104.105 118.266 104.105 118.17 104.057 C 118.075 104.01 118.027 103.914 118.027 103.772 L 118.027 103.057 C 118.027 102.866 118.075 102.771 118.17 102.723 C 118.266 102.676 118.361 102.676 118.456 102.676 C 118.98 102.723 119.504 102.771 120.076 102.819 C 120.6 102.866 121.077 102.866 121.506 102.866 C 122.459 102.866 123.173 102.723 123.602 102.437 C 124.031 102.151 124.222 101.675 124.222 100.96 L 124.222 100.77 C 124.222 100.245 124.079 99.864 123.793 99.531 C 123.507 99.197 122.983 99.054 122.22 99.054 L 118.933 99.054 C 118.647 99.054 118.551 98.959 118.551 98.721 L 118.551 97.958 C 118.551 97.72 118.694 97.625 118.933 97.625 L 122.22 97.625 C 122.649 97.625 122.983 97.577 123.221 97.482 C 123.459 97.387 123.698 97.244 123.841 97.101 C 123.983 96.958 124.079 96.767 124.174 96.576 C 124.269 96.386 124.269 96.148 124.269 95.909 L 124.269 95.719 C 124.269 95.099 124.079 94.718 123.65 94.48 C 123.221 94.242 122.554 94.146 121.553 94.146 C 121.029 94.146 120.553 94.146 120.076 94.194 C 119.647 94.242 119.123 94.289 118.504 94.337 C 118.409 94.337 118.313 94.337 118.218 94.289 C 118.123 94.242 118.075 94.146 118.075 93.956 L 118.075 93.241 C 118.075 93.098 118.123 93.003 118.218 92.955 C 118.313 92.907 118.409 92.86 118.504 92.86 C 118.933 92.765 119.409 92.717 119.933 92.669 C 120.457 92.622 120.982 92.574 121.553 92.574 C 122.22 92.574 122.84 92.622 123.412 92.717 C 123.983 92.812 124.46 92.955 124.889 93.193 C 125.318 93.432 125.604 93.765 125.842 94.146 C 126.08 94.528 126.175 95.052 126.175 95.671 L 126.175 95.862 C 126.175 96.291 126.032 96.767 125.794 97.196 C 125.556 97.625 125.127 98.006 124.603 98.292 C 124.889 98.435 125.175 98.625 125.365 98.816 C 125.556 99.007 125.747 99.197 125.842 99.435 C 125.937 99.674 126.032 99.864 126.08 100.103 C 126.128 100.341 126.175 100.531 126.175 100.77 L 126.175 100.96 C 126.08 101.58 125.985 102.104 125.747 102.533 Z " fill="rgb(52,52,58)"/><path d=" M 128.463 93.193 C 128.463 92.907 128.605 92.812 128.844 92.812 L 129.94 92.812 C 130.035 92.812 130.13 92.86 130.226 92.907 C 130.273 92.955 130.321 93.05 130.321 93.193 L 130.321 101.389 C 130.321 101.437 130.321 101.437 130.321 101.437 C 130.321 101.437 130.368 101.437 130.368 101.389 L 135.276 93.193 C 135.372 93.003 135.515 92.86 135.61 92.86 C 135.705 92.86 135.896 92.812 136.134 92.812 L 137.23 92.812 C 137.421 92.812 137.564 92.86 137.611 92.907 C 137.659 93.003 137.706 93.146 137.706 93.384 L 137.706 103.914 C 137.706 104.057 137.659 104.153 137.611 104.2 C 137.564 104.296 137.468 104.296 137.325 104.296 L 136.229 104.296 C 136.134 104.296 136.039 104.248 135.943 104.2 C 135.896 104.105 135.848 104.01 135.848 103.914 L 135.848 95.766 C 135.848 95.671 135.801 95.671 135.753 95.766 L 130.845 104.01 C 130.75 104.153 130.654 104.248 130.559 104.296 C 130.464 104.343 130.321 104.343 130.178 104.343 L 129.034 104.343 C 128.844 104.343 128.701 104.296 128.605 104.153 C 128.51 104.057 128.415 103.914 128.415 103.724 L 128.415 93.193 L 128.463 93.193 Z " fill="rgb(52,52,58)"/><path d=" M 149.333 104.153 C 149.238 104.248 149.142 104.296 149.047 104.296 L 147.999 104.296 C 147.903 104.296 147.808 104.248 147.713 104.153 C 147.618 104.057 147.57 103.962 147.57 103.867 L 147.57 99.197 L 142.043 99.197 L 142.043 103.867 C 142.043 103.962 141.995 104.057 141.9 104.153 C 141.804 104.248 141.709 104.296 141.614 104.296 L 140.613 104.296 C 140.518 104.296 140.422 104.248 140.327 104.153 C 140.232 104.057 140.184 103.962 140.184 103.867 L 140.184 93.193 C 140.184 93.098 140.232 93.003 140.327 92.907 C 140.422 92.812 140.518 92.765 140.613 92.765 L 141.614 92.765 C 141.709 92.765 141.804 92.812 141.9 92.907 C 141.995 93.003 142.043 93.098 142.043 93.193 L 142.043 97.625 L 147.57 97.625 L 147.57 93.193 C 147.57 93.098 147.618 93.003 147.713 92.907 C 147.808 92.812 147.903 92.765 147.999 92.765 L 148.999 92.765 C 149.095 92.765 149.19 92.812 149.285 92.907 C 149.381 93.003 149.428 93.098 149.428 93.193 L 149.428 103.867 C 149.428 104.01 149.428 104.105 149.333 104.153 Z " fill="rgb(52,52,58)"/></g><g><path d=" M 16.296 74.944 C 16.296 76.183 16.058 77.231 15.629 78.089 C 15.2 78.946 14.533 79.613 13.723 80.137 C 12.913 80.662 11.912 81.043 10.769 81.281 C 9.625 81.519 8.291 81.615 6.861 81.615 C 5.623 81.615 4.527 81.567 3.574 81.519 C 2.668 81.472 1.954 81.376 1.477 81.281 C 0.953 81.186 0.572 80.995 0.334 80.805 C 0.095 80.566 0 80.185 0 79.613 L 0 60.077 C 0 59.505 0.095 59.124 0.334 58.886 C 0.572 58.648 0.905 58.505 1.382 58.409 C 1.811 58.362 2.478 58.266 3.383 58.219 C 4.288 58.123 5.337 58.123 6.576 58.123 C 7.957 58.123 9.244 58.219 10.435 58.457 C 11.579 58.695 12.627 59.029 13.437 59.505 C 14.295 59.982 14.962 60.649 15.391 61.459 C 15.82 62.269 16.105 63.222 16.105 64.413 L 16.105 65.033 C 16.105 66.081 15.867 66.986 15.391 67.844 C 14.914 68.702 14.199 69.321 13.247 69.702 C 14.199 70.131 14.914 70.703 15.438 71.465 C 15.963 72.228 16.248 73.228 16.248 74.372 L 16.296 74.944 L 16.296 74.944 Z  M 11.912 64.651 C 11.912 63.556 11.531 62.793 10.721 62.364 C 9.911 61.888 8.529 61.697 6.576 61.697 C 6.194 61.697 5.813 61.697 5.432 61.697 C 5.051 61.697 4.67 61.745 4.336 61.745 L 4.336 68.082 L 8.291 68.082 C 9.006 68.082 9.625 67.987 10.102 67.844 C 10.578 67.701 10.959 67.463 11.245 67.225 C 11.531 66.986 11.722 66.653 11.817 66.272 C 11.912 65.89 12.008 65.509 12.008 65.128 L 12.008 64.651 L 11.912 64.651 L 11.912 64.651 Z  M 12.103 74.515 C 12.103 74.086 12.055 73.657 11.912 73.276 C 11.769 72.895 11.579 72.561 11.293 72.228 C 11.007 71.942 10.578 71.704 10.102 71.513 C 9.625 71.322 9.006 71.227 8.291 71.227 L 4.288 71.227 L 4.288 78.041 C 4.67 78.041 5.098 78.041 5.575 78.089 C 6.051 78.136 6.48 78.136 6.814 78.136 C 7.814 78.136 8.625 78.089 9.292 77.946 C 9.959 77.803 10.483 77.612 10.864 77.374 C 11.245 77.088 11.579 76.754 11.722 76.373 C 11.912 75.992 12.008 75.515 12.008 74.944 L 12.103 74.515 L 12.103 74.515 Z " fill="rgb(52,52,58)"/><path d=" M 33.069 73.324 C 33.069 73.848 32.878 74.086 32.449 74.086 L 22.348 74.086 L 22.348 74.181 C 22.348 74.658 22.395 75.087 22.49 75.563 C 22.586 76.04 22.776 76.468 23.062 76.85 C 23.348 77.231 23.729 77.564 24.206 77.803 C 24.682 78.041 25.302 78.136 26.064 78.136 C 27.208 78.136 28.256 78.089 29.257 78.041 C 30.257 77.946 31.067 77.898 31.734 77.85 L 31.83 77.85 C 31.973 77.85 32.116 77.898 32.211 77.946 C 32.306 78.041 32.354 78.136 32.354 78.279 L 32.354 80.328 C 32.354 80.566 32.306 80.757 32.259 80.9 C 32.163 81.043 32.02 81.09 31.734 81.138 C 31.258 81.233 30.781 81.329 30.353 81.376 C 29.924 81.424 29.495 81.472 29.018 81.519 C 28.59 81.567 28.065 81.615 27.541 81.615 C 27.017 81.615 26.398 81.662 25.683 81.662 C 24.921 81.662 24.063 81.567 23.205 81.329 C 22.348 81.09 21.537 80.662 20.775 80.09 C 20.06 79.518 19.441 78.708 18.964 77.707 C 18.488 76.707 18.25 75.42 18.25 73.895 L 18.25 71.608 C 18.25 70.417 18.393 69.321 18.726 68.368 C 19.06 67.415 19.536 66.557 20.156 65.89 C 20.775 65.223 21.585 64.699 22.49 64.318 C 23.396 63.937 24.492 63.746 25.635 63.746 C 26.827 63.746 27.875 63.937 28.78 64.318 C 29.686 64.699 30.448 65.223 31.067 65.938 C 31.687 66.653 32.163 67.463 32.497 68.416 C 32.83 69.369 32.973 70.417 32.973 71.608 L 32.973 73.324 L 33.069 73.324 L 33.069 73.324 Z  M 28.923 71.036 C 28.923 69.798 28.637 68.892 28.018 68.225 C 27.398 67.558 26.636 67.225 25.635 67.225 C 24.682 67.225 23.872 67.558 23.253 68.177 C 22.633 68.845 22.3 69.75 22.3 70.989 L 22.3 71.132 L 28.875 71.132 L 28.923 71.036 L 28.923 71.036 Z " fill="rgb(52,52,58)"/><path d=" M 49.365 80.9 C 49.222 80.995 49.079 81.09 48.888 81.138 C 48.745 81.186 48.555 81.233 48.269 81.281 C 47.983 81.329 47.602 81.376 47.173 81.424 C 46.744 81.472 46.267 81.519 45.696 81.567 C 45.172 81.615 44.6 81.615 43.98 81.615 C 43.027 81.615 42.074 81.472 41.026 81.233 C 39.978 80.948 39.072 80.471 38.215 79.756 C 37.357 79.042 36.642 78.089 36.071 76.85 C 35.499 75.611 35.213 74.038 35.213 72.132 L 35.213 67.558 C 35.213 65.604 35.499 64.032 36.071 62.793 C 36.642 61.554 37.357 60.601 38.215 59.887 C 39.072 59.172 40.025 58.695 41.026 58.457 C 42.074 58.219 43.027 58.076 43.98 58.076 C 44.6 58.076 45.124 58.076 45.696 58.123 C 46.22 58.171 46.696 58.219 47.173 58.266 C 47.602 58.314 47.983 58.362 48.269 58.457 C 48.555 58.505 48.793 58.552 48.888 58.6 C 49.079 58.648 49.269 58.743 49.365 58.838 C 49.508 58.934 49.555 59.076 49.555 59.315 L 49.555 61.411 C 49.555 61.602 49.508 61.745 49.412 61.888 C 49.317 62.031 49.174 62.078 48.936 62.078 L 48.888 62.078 C 48.602 62.078 48.316 62.031 47.935 61.983 C 47.554 61.935 47.125 61.935 46.696 61.888 C 46.267 61.888 45.839 61.84 45.362 61.84 C 44.886 61.84 44.457 61.792 44.076 61.792 C 43.409 61.792 42.789 61.888 42.265 62.078 C 41.741 62.269 41.264 62.603 40.835 63.031 C 40.407 63.46 40.121 64.08 39.93 64.794 C 39.692 65.557 39.597 66.462 39.597 67.558 L 39.597 72.132 C 39.597 73.228 39.692 74.134 39.93 74.848 C 40.168 75.611 40.454 76.183 40.835 76.659 C 41.217 77.136 41.693 77.421 42.265 77.612 C 42.789 77.803 43.409 77.898 44.076 77.898 C 44.504 77.898 44.933 77.898 45.362 77.85 C 45.839 77.85 46.267 77.803 46.696 77.803 C 47.125 77.803 47.554 77.755 47.935 77.707 C 48.316 77.66 48.65 77.66 48.888 77.612 L 48.936 77.612 C 49.174 77.612 49.317 77.66 49.412 77.803 C 49.508 77.946 49.555 78.089 49.555 78.279 L 49.555 80.376 C 49.603 80.662 49.508 80.852 49.365 80.9 Z " fill="rgb(52,52,58)"/><path d=" M 66.28 73.943 C 66.28 75.039 66.137 76.087 65.804 77.04 C 65.47 77.993 64.994 78.803 64.374 79.47 C 63.755 80.137 62.992 80.709 62.087 81.09 C 61.182 81.472 60.086 81.662 58.895 81.662 C 57.656 81.662 56.607 81.472 55.702 81.09 C 54.797 80.709 54.034 80.137 53.415 79.47 C 52.795 78.803 52.319 77.993 51.985 77.04 C 51.652 76.087 51.509 75.087 51.509 73.943 L 51.509 71.418 C 51.509 70.322 51.652 69.273 51.985 68.32 C 52.319 67.367 52.795 66.557 53.415 65.89 C 54.034 65.223 54.797 64.651 55.702 64.27 C 56.607 63.889 57.703 63.698 58.895 63.698 C 60.133 63.698 61.182 63.889 62.087 64.27 C 62.992 64.651 63.755 65.223 64.374 65.89 C 64.994 66.557 65.47 67.367 65.804 68.32 C 66.137 69.273 66.28 70.274 66.28 71.418 L 66.28 73.943 Z  M 62.182 71.418 C 62.182 70.131 61.896 69.13 61.325 68.368 C 60.753 67.606 59.943 67.225 58.847 67.225 C 57.751 67.225 56.941 67.606 56.369 68.368 C 55.797 69.13 55.511 70.131 55.511 71.418 L 55.511 73.943 C 55.511 75.23 55.797 76.23 56.369 76.993 C 56.941 77.755 57.751 78.136 58.847 78.136 C 59.943 78.136 60.753 77.755 61.325 76.993 C 61.896 76.23 62.182 75.23 62.182 73.943 L 62.182 71.418 Z " fill="rgb(52,52,58)"/><path d=" M 90.82 81.186 C 90.677 81.329 90.534 81.376 90.391 81.376 L 87.532 81.376 C 87.389 81.376 87.198 81.329 87.103 81.186 C 86.96 81.043 86.912 80.9 86.912 80.757 L 86.912 70.226 C 86.912 69.607 86.865 69.13 86.817 68.749 C 86.722 68.368 86.626 68.082 86.483 67.844 C 86.341 67.606 86.102 67.463 85.816 67.367 C 85.53 67.272 85.149 67.225 84.72 67.225 C 84.435 67.225 84.006 67.272 83.482 67.415 C 82.957 67.51 82.386 67.749 81.861 68.035 C 81.909 68.368 81.957 68.749 81.957 69.13 C 81.957 69.512 82.004 69.893 82.004 70.274 L 82.004 80.805 C 82.004 80.948 81.957 81.138 81.814 81.233 C 81.671 81.376 81.528 81.424 81.385 81.424 L 78.526 81.424 C 78.383 81.424 78.193 81.376 78.097 81.233 C 77.954 81.09 77.907 80.948 77.907 80.805 L 77.907 70.226 C 77.907 69.607 77.859 69.13 77.811 68.749 C 77.764 68.368 77.621 68.082 77.478 67.844 C 77.335 67.606 77.097 67.463 76.811 67.367 C 76.525 67.272 76.191 67.225 75.762 67.225 C 75.143 67.225 74.19 67.558 72.903 68.225 L 72.903 80.709 C 72.903 80.852 72.856 81.043 72.713 81.138 C 72.57 81.281 72.427 81.329 72.284 81.329 L 69.425 81.329 C 69.282 81.329 69.091 81.281 68.996 81.138 C 68.853 80.995 68.806 80.852 68.806 80.709 L 68.806 64.508 C 68.806 64.366 68.853 64.223 68.996 64.08 C 69.139 63.937 69.282 63.889 69.425 63.889 L 72.141 63.889 C 72.284 63.889 72.475 63.937 72.57 64.08 C 72.665 64.223 72.76 64.366 72.76 64.508 L 72.76 65.176 C 73.428 64.747 74.095 64.413 74.762 64.127 C 75.429 63.841 76.239 63.698 77.192 63.698 C 78.097 63.698 78.812 63.841 79.384 64.08 C 79.956 64.318 80.432 64.651 80.813 65.08 C 81.576 64.651 82.386 64.318 83.148 64.08 C 83.91 63.841 84.863 63.698 85.912 63.698 C 86.96 63.698 87.818 63.889 88.485 64.223 C 89.152 64.556 89.676 65.033 90.057 65.604 C 90.438 66.176 90.677 66.891 90.82 67.653 C 90.963 68.416 91.058 69.273 91.058 70.179 L 91.058 80.709 C 91.01 80.9 90.867 81.09 90.82 81.186 Z " fill="rgb(52,52,58)"/><path d=" M 108.45 73.895 C 108.45 76.326 107.83 78.231 106.639 79.613 C 105.4 80.995 103.542 81.662 101.064 81.662 C 100.683 81.662 100.254 81.662 99.73 81.615 C 99.206 81.567 98.682 81.519 98.11 81.424 L 98.11 86.904 C 98.11 87.047 98.062 87.19 97.919 87.333 C 97.776 87.475 97.633 87.523 97.49 87.523 L 94.632 87.523 C 94.489 87.523 94.298 87.475 94.203 87.333 C 94.06 87.19 94.012 87.047 94.012 86.904 L 94.012 65.366 C 94.012 65.128 94.06 64.985 94.155 64.842 C 94.25 64.699 94.489 64.604 94.822 64.508 C 95.775 64.27 96.823 64.08 97.919 63.937 C 99.015 63.794 100.064 63.698 101.064 63.698 C 103.542 63.698 105.4 64.366 106.639 65.747 C 107.878 67.129 108.45 69.035 108.45 71.465 L 108.45 73.895 L 108.45 73.895 Z  M 104.4 71.513 C 104.4 70.894 104.352 70.274 104.257 69.75 C 104.161 69.226 103.971 68.749 103.733 68.368 C 103.494 67.987 103.161 67.653 102.732 67.463 C 102.303 67.225 101.731 67.129 101.112 67.129 C 100.54 67.129 99.968 67.129 99.444 67.177 C 98.872 67.225 98.443 67.272 98.158 67.32 L 98.158 78.089 C 98.586 78.136 99.111 78.184 99.682 78.231 C 100.254 78.279 100.731 78.279 101.112 78.279 C 101.779 78.279 102.303 78.184 102.732 77.946 C 103.161 77.707 103.494 77.421 103.733 77.04 C 103.971 76.659 104.161 76.183 104.257 75.658 C 104.352 75.134 104.4 74.562 104.4 73.895 L 104.4 71.513 Z " fill="rgb(52,52,58)"/><path d=" M 123.745 80.805 C 123.745 80.948 123.698 81.09 123.555 81.233 C 123.412 81.376 123.269 81.424 123.126 81.424 L 120.505 81.424 C 120.362 81.424 120.172 81.376 120.076 81.233 C 119.933 81.09 119.886 80.948 119.886 80.805 L 119.886 80.328 C 119.171 80.757 118.456 81.09 117.694 81.329 C 116.979 81.567 116.217 81.662 115.502 81.662 C 114.882 81.662 114.215 81.567 113.596 81.424 C 112.976 81.281 112.405 80.995 111.881 80.614 C 111.356 80.233 110.975 79.709 110.642 79.042 C 110.308 78.374 110.165 77.517 110.165 76.468 L 110.165 76.326 C 110.165 75.42 110.308 74.658 110.594 73.991 C 110.88 73.324 111.309 72.752 111.928 72.323 C 112.548 71.846 113.31 71.513 114.263 71.322 C 115.216 71.084 116.36 70.989 117.694 70.989 L 119.647 70.989 L 119.647 69.607 C 119.647 68.606 119.409 67.892 118.98 67.558 C 118.551 67.225 117.837 67.082 116.931 67.082 C 115.931 67.082 114.978 67.129 114.072 67.177 C 113.167 67.225 112.405 67.272 111.928 67.367 L 111.785 67.367 C 111.642 67.367 111.499 67.32 111.404 67.272 C 111.309 67.225 111.261 67.082 111.261 66.843 L 111.261 64.89 C 111.261 64.556 111.452 64.318 111.833 64.223 C 112.452 64.08 113.215 63.984 114.072 63.889 C 114.93 63.794 115.931 63.746 116.979 63.746 C 119.171 63.746 120.886 64.223 122.03 65.223 C 123.173 66.176 123.793 67.701 123.793 69.702 L 123.793 80.805 L 123.745 80.805 Z  M 119.647 73.705 L 117.694 73.705 C 116.979 73.705 116.407 73.752 115.978 73.895 C 115.55 73.991 115.168 74.181 114.93 74.372 C 114.692 74.61 114.501 74.848 114.406 75.182 C 114.311 75.515 114.263 75.897 114.263 76.326 L 114.263 76.468 C 114.263 77.231 114.454 77.755 114.787 77.993 C 115.121 78.231 115.693 78.374 116.503 78.374 C 117.074 78.374 117.598 78.279 118.17 78.136 C 118.742 77.993 119.219 77.755 119.695 77.517 L 119.695 73.705 L 119.647 73.705 Z " fill="rgb(52,52,58)"/><path d=" M 137.754 80.995 C 137.659 81.09 137.516 81.186 137.23 81.281 C 136.896 81.376 136.372 81.472 135.658 81.567 C 134.99 81.662 134.18 81.71 133.227 81.71 C 132.227 81.71 131.274 81.567 130.416 81.233 C 129.558 80.9 128.796 80.471 128.177 79.804 C 127.557 79.184 127.033 78.374 126.699 77.469 C 126.318 76.516 126.175 75.42 126.175 74.181 L 126.175 71.322 C 126.175 70.083 126.366 68.94 126.699 68.035 C 127.081 67.082 127.557 66.319 128.177 65.7 C 128.796 65.08 129.558 64.604 130.416 64.27 C 131.274 63.937 132.227 63.794 133.227 63.794 C 134.18 63.794 134.99 63.841 135.658 63.937 C 136.325 64.032 136.849 64.127 137.23 64.223 C 137.516 64.27 137.659 64.366 137.754 64.508 C 137.849 64.604 137.897 64.794 137.897 65.033 L 137.897 67.034 C 137.897 67.177 137.849 67.32 137.754 67.367 C 137.659 67.463 137.516 67.463 137.373 67.463 L 137.278 67.463 C 136.992 67.415 136.658 67.367 136.42 67.367 C 136.134 67.32 135.896 67.32 135.562 67.32 C 135.276 67.32 134.943 67.32 134.562 67.272 C 134.18 67.272 133.752 67.272 133.275 67.272 C 132.894 67.272 132.56 67.32 132.179 67.463 C 131.846 67.606 131.512 67.796 131.226 68.082 C 130.94 68.368 130.702 68.797 130.559 69.321 C 130.368 69.845 130.273 70.512 130.273 71.322 L 130.273 74.181 C 130.273 74.991 130.368 75.658 130.559 76.183 C 130.75 76.707 130.94 77.136 131.226 77.421 C 131.512 77.707 131.798 77.946 132.179 78.041 C 132.513 78.184 132.894 78.231 133.275 78.231 C 133.752 78.231 134.228 78.231 134.562 78.231 C 134.943 78.231 135.276 78.231 135.562 78.184 C 135.848 78.184 136.134 78.136 136.42 78.136 C 136.706 78.089 136.992 78.089 137.278 78.041 L 137.373 78.041 C 137.516 78.041 137.659 78.089 137.754 78.136 C 137.849 78.231 137.897 78.327 137.897 78.47 L 137.897 80.471 C 137.897 80.709 137.802 80.852 137.754 80.995 Z " fill="rgb(52,52,58)"/><path d=" M 149.428 81.424 C 149.047 81.472 148.713 81.519 148.38 81.567 C 148.046 81.615 147.713 81.615 147.332 81.615 C 146.474 81.615 145.712 81.567 145.092 81.424 C 144.473 81.281 143.949 81.043 143.567 80.709 C 143.186 80.376 142.9 79.852 142.71 79.184 C 142.519 78.517 142.424 77.707 142.424 76.659 L 142.424 66.986 L 139.517 66.557 C 139.374 66.51 139.184 66.462 139.088 66.319 C 138.993 66.176 138.898 66.081 138.898 65.938 L 138.898 64.556 C 138.898 64.413 138.945 64.27 139.088 64.127 C 139.231 63.984 139.374 63.937 139.517 63.937 L 142.424 63.937 L 142.424 61.411 C 142.424 61.268 142.471 61.125 142.614 61.03 C 142.757 60.935 142.9 60.839 143.043 60.792 L 145.902 60.315 L 146.045 60.315 C 146.379 60.315 146.522 60.458 146.522 60.792 L 146.522 63.984 L 149.285 63.984 C 149.428 63.984 149.619 64.032 149.714 64.175 C 149.857 64.318 149.905 64.461 149.905 64.604 L 149.905 66.414 C 149.905 66.557 149.857 66.748 149.714 66.843 C 149.571 66.939 149.428 67.034 149.285 67.034 L 146.522 67.034 L 146.522 76.754 C 146.522 77.136 146.522 77.469 146.569 77.707 C 146.569 77.946 146.665 78.089 146.712 78.231 C 146.807 78.374 146.903 78.422 147.046 78.47 C 147.189 78.517 147.427 78.517 147.713 78.517 L 149.333 78.517 C 149.762 78.517 150 78.66 150 78.994 L 150 80.948 C 149.952 81.186 149.809 81.376 149.428 81.424 Z " fill="rgb(52,52,58)"/></g><g><path d=" M 62.992 56.646 L 59.037 59.124 C 58.847 59.267 58.656 59.172 58.513 58.981 C 58.466 58.886 58.418 58.791 58.466 58.648 L 59.609 54.121 L 55.988 51.119 C 55.797 50.976 55.797 50.738 55.94 50.595 C 56.036 50.5 56.131 50.452 56.226 50.452 L 60.896 50.118 L 62.659 45.782 C 62.754 45.592 62.992 45.449 63.135 45.544 C 63.231 45.592 63.326 45.687 63.374 45.782 L 65.137 50.118 L 69.806 50.452 C 70.044 50.452 70.187 50.643 70.187 50.833 C 70.187 50.928 70.14 51.071 70.044 51.119 L 66.423 54.121 L 67.567 58.648 C 67.614 58.886 67.471 59.029 67.281 59.076 C 67.186 59.124 67.043 59.076 66.947 59.029 L 62.992 56.646 Z " fill="rgb(255,163,0)"/><path d=" M 79.67 56.646 L 75.715 59.124 C 75.524 59.267 75.334 59.172 75.191 58.981 C 75.143 58.886 75.095 58.791 75.143 58.648 L 76.287 54.121 L 72.665 51.119 C 72.475 50.976 72.475 50.738 72.618 50.595 C 72.713 50.5 72.808 50.452 72.903 50.452 L 77.573 50.118 L 79.336 45.782 C 79.431 45.592 79.67 45.449 79.813 45.544 C 79.908 45.592 80.003 45.687 80.051 45.782 L 81.814 50.118 L 86.483 50.452 C 86.722 50.452 86.865 50.643 86.865 50.833 C 86.865 50.928 86.817 51.071 86.722 51.119 L 83.053 54.121 L 84.196 58.648 C 84.244 58.886 84.101 59.029 83.91 59.076 C 83.815 59.124 83.672 59.076 83.577 59.029 L 79.67 56.646 Z " fill="rgb(255,163,0)"/><path d=" M 96.299 56.646 L 92.344 59.124 C 92.154 59.267 91.963 59.172 91.82 58.981 C 91.773 58.886 91.725 58.791 91.773 58.648 L 92.916 54.121 L 89.295 51.119 C 89.104 50.976 89.104 50.738 89.247 50.595 C 89.342 50.5 89.438 50.452 89.533 50.452 L 94.203 50.118 L 95.966 45.782 C 96.061 45.592 96.299 45.449 96.442 45.544 C 96.537 45.592 96.633 45.687 96.68 45.782 L 98.443 50.118 L 103.113 50.452 C 103.351 50.452 103.494 50.643 103.494 50.833 C 103.494 50.928 103.447 51.071 103.351 51.119 L 99.73 54.121 L 100.874 58.648 C 100.921 58.886 100.778 59.029 100.588 59.076 C 100.492 59.124 100.349 59.076 100.254 59.029 L 96.299 56.646 Z " fill="rgb(255,163,0)"/><path d=" M 112.976 56.646 L 109.022 59.124 C 108.831 59.267 108.64 59.172 108.497 58.981 C 108.45 58.886 108.402 58.791 108.45 58.648 L 109.593 54.121 L 105.972 51.119 C 105.781 50.976 105.781 50.738 105.924 50.595 C 106.02 50.5 106.115 50.452 106.21 50.452 L 110.88 50.118 L 112.643 45.782 C 112.738 45.592 112.976 45.449 113.119 45.544 C 113.215 45.592 113.31 45.687 113.358 45.782 L 115.121 50.118 L 119.79 50.452 C 120.029 50.452 120.172 50.643 120.172 50.833 C 120.172 50.928 120.124 51.071 120.029 51.119 L 116.407 54.121 L 117.551 58.648 C 117.598 58.886 117.456 59.029 117.265 59.076 C 117.17 59.124 117.027 59.076 116.931 59.029 L 112.976 56.646 Z " fill="rgb(255,163,0)"/><path d=" M 130.083 56.646 L 126.128 59.124 C 125.937 59.267 125.747 59.172 125.604 58.981 C 125.556 58.886 125.508 58.791 125.556 58.648 L 126.699 54.121 L 123.078 51.119 C 122.888 50.976 122.888 50.738 123.03 50.595 C 123.126 50.5 123.221 50.452 123.316 50.452 L 127.986 50.118 L 129.749 45.782 C 129.844 45.592 130.083 45.449 130.226 45.544 C 130.321 45.592 130.416 45.687 130.464 45.782 L 132.227 50.118 L 136.896 50.452 C 137.135 50.452 137.278 50.643 137.278 50.833 C 137.278 50.928 137.23 51.071 137.135 51.119 L 133.513 54.121 L 134.657 58.648 C 134.705 58.886 134.562 59.029 134.371 59.076 C 134.276 59.124 134.133 59.076 134.037 59.029 L 130.083 56.646 Z " fill="rgb(255,163,0)"/></g></g></svg>