<?xml version="1.0" encoding="UTF-8" standalone="no"?><!-- Generator: Gravit.io --><svg xmlns="http://www.w3.org/2000/svg" xmlns:xlink="http://www.w3.org/1999/xlink" style="isolation:isolate" viewBox="0 0 150 150" width="150pt" height="150pt"><defs><clipPath id="_clipPath_MeU95dVjNxMyBNat9o3pHWzT4fMKMSrp"><rect width="150" height="150"/></clipPath></defs><g clip-path="url(#_clipPath_MeU95dVjNxMyBNat9o3pHWzT4fMKMSrp)"><path d=" M 0 69.151 L 5.174 69.151 C 8.261 69.151 9.594 70.485 9.594 72.319 C 9.604 73.051 9.247 73.739 8.643 74.153 C 8.347 74.356 8.02 74.509 7.675 74.605 L 7.675 74.691 C 8.161 74.801 8.629 74.982 9.062 75.229 C 9.918 75.666 10.449 76.553 10.428 77.514 C 10.428 79.268 8.842 80.854 5.824 80.854 L 0 80.854 L 0 69.151 Z  M 5.174 73.906 C 6.507 73.906 7.174 73.239 7.174 72.486 C 7.174 71.733 6.507 71.066 5.174 71.066 L 2.339 71.066 L 2.339 73.9 L 5.174 73.9 L 5.174 73.906 Z  M 2.339 75.826 L 2.339 78.923 L 5.846 78.923 C 7.363 78.923 7.997 78.273 7.997 77.423 C 7.997 76.487 7.346 75.836 5.846 75.836 L 2.339 75.836 L 2.339 75.826 Z " fill="rgb(255,34,50)"/><path d=" M 13.515 69.151 L 22.857 69.151 L 22.857 71.071 L 15.865 71.071 L 15.865 74.083 L 20.706 74.083 L 20.706 76.003 L 15.865 76.003 L 15.865 78.923 L 23.04 78.923 L 23.04 80.843 L 13.531 80.843 L 13.531 69.151 L 13.515 69.151 Z " fill="rgb(255,34,50)"/><path d=" M 33.22 69.522 C 33.628 69.72 34.014 69.96 34.371 70.238 L 33.479 71.824 C 33.198 71.634 32.903 71.467 32.597 71.324 C 31.906 71.001 31.154 70.83 30.392 70.824 C 28.805 70.824 28.057 71.577 28.057 72.158 C 28.057 74.492 34.651 73.325 34.651 77.412 C 34.651 79.413 32.898 81.177 29.563 81.177 C 28.438 81.177 27.331 80.902 26.336 80.375 C 25.904 80.167 25.501 79.903 25.137 79.59 L 26.137 78.004 C 27.055 78.768 28.198 79.208 29.391 79.257 C 31.311 79.257 32.225 78.337 32.225 77.423 C 32.225 75.336 25.632 76.439 25.632 72.168 C 25.632 70.501 27.299 68.829 30.219 68.829 C 31.259 68.832 32.285 69.069 33.22 69.522 L 33.22 69.522 Z " fill="rgb(255,34,50)"/><path d=" M 46.553 69.151 L 46.553 71.071 L 42.546 71.071 L 42.546 80.833 L 40.212 80.833 L 40.212 71.071 L 36.205 71.071 L 36.205 69.151 L 46.553 69.151 Z " fill="rgb(255,34,50)"/><path d=" M 56.981 72.158 L 54.561 80.833 L 51.474 80.833 L 48.22 69.151 L 50.721 69.151 L 53.141 77.912 L 53.227 77.912 L 55.615 69.151 L 58.433 69.151 L 60.821 77.912 L 60.907 77.912 L 63.327 69.151 L 65.828 69.151 L 62.574 80.833 L 59.487 80.833 L 57.067 72.158 L 56.981 72.158 L 56.981 72.158 Z " fill="rgb(255,34,50)"/><path d=" M 79.59 80.833 L 77.089 80.833 L 76.17 78.498 L 70.415 78.498 L 69.496 80.833 L 66.995 80.833 L 71.835 69.151 L 74.755 69.151 L 79.59 80.833 Z  M 71.249 76.492 L 75.336 76.492 L 73.335 71.652 L 73.276 71.652 L 71.249 76.492 Z " fill="rgb(255,34,50)"/><path d=" M 90.438 69.151 L 90.438 71.071 L 86.431 71.071 L 86.431 80.833 L 84.097 80.833 L 84.097 71.071 L 80.09 71.071 L 80.09 69.151 L 90.438 69.151 Z " fill="rgb(255,34,50)"/><path d=" M 101.484 69.404 C 101.865 69.557 102.226 69.753 102.56 69.99 L 101.56 71.577 C 101.302 71.43 101.035 71.302 100.758 71.195 C 100.136 70.953 99.474 70.829 98.806 70.829 C 97.28 70.775 95.846 71.557 95.067 72.87 C 94.288 74.183 94.288 75.817 95.067 77.13 C 95.846 78.443 97.28 79.225 98.806 79.171 C 99.846 79.139 100.856 78.821 101.726 78.251 L 102.727 79.838 C 102.393 80.098 102.033 80.322 101.651 80.504 C 100.719 80.948 99.699 81.176 98.666 81.171 C 94.848 81.171 92.245 78.584 92.245 74.997 C 92.245 71.41 94.848 68.823 98.666 68.823 C 99.635 68.831 100.592 69.028 101.484 69.404 L 101.484 69.404 Z " fill="rgb(255,34,50)"/><path d=" M 116.382 69.151 L 116.382 80.833 L 114.048 80.833 L 114.048 75.992 L 108.04 75.992 L 108.04 80.833 L 105.706 80.833 L 105.706 69.151 L 108.04 69.151 L 108.04 74.083 L 114.048 74.083 L 114.048 69.162 L 116.382 69.162 L 116.382 69.151 Z " fill="rgb(255,34,50)"/><path d=" M 120.969 78.498 C 121.649 78.542 122.169 79.121 122.14 79.802 C 122.112 80.483 121.544 81.015 120.863 81.002 C 120.182 80.988 119.637 80.433 119.635 79.752 C 119.662 79.039 120.256 78.48 120.969 78.498 Z " fill="rgb(255,34,50)"/><path d=" M 130.897 69.151 C 134.065 69.151 135.737 70.802 135.737 72.991 C 135.769 73.973 135.377 74.921 134.662 75.594 C 134.35 75.902 133.986 76.152 133.586 76.331 L 133.586 76.417 L 136.673 80.838 L 133.92 80.838 L 131.166 76.831 L 127.912 76.831 L 127.912 80.838 L 125.578 80.838 L 125.578 69.151 L 130.919 69.151 L 130.897 69.151 Z  M 130.897 71.071 L 127.896 71.071 L 127.896 74.911 L 130.897 74.911 C 132.484 74.911 133.317 73.927 133.317 72.991 C 133.317 71.932 132.5 71.071 130.897 71.071 Z " fill="rgb(255,34,50)"/><path d=" M 139.325 76.164 L 139.325 69.173 L 141.659 69.173 L 141.659 76.164 C 141.659 77.823 143.003 79.168 144.662 79.168 C 146.321 79.168 147.666 77.823 147.666 76.164 L 147.666 69.173 L 150 69.173 L 150 76.164 C 150 79.085 147.913 81.171 144.66 81.171 C 141.406 81.171 139.325 79.079 139.325 76.164 Z " fill="rgb(255,34,50)"/></g></svg>