<?xml version="1.0" encoding="UTF-8" standalone="no"?><!-- Generator: Gravit.io --><svg xmlns="http://www.w3.org/2000/svg" xmlns:xlink="http://www.w3.org/1999/xlink" style="isolation:isolate" viewBox="0 0 150 150" width="150pt" height="150pt"><defs><clipPath id="_clipPath_kRNomiMYPSfrU26mW2xDoQkEDsmk2kPK"><rect width="150" height="150"/></clipPath></defs><g clip-path="url(#_clipPath_kRNomiMYPSfrU26mW2xDoQkEDsmk2kPK)"><path d=" M 43.021 69.127 L 31.044 69.127 C 27.944 69.183 25.468 71.733 25.509 74.838 L 25.509 86.695 C 25.459 89.8 27.939 92.359 31.044 92.415 L 43.021 92.415 C 46.127 92.359 48.603 89.8 48.556 86.695 L 48.556 74.829 C 48.593 71.728 46.122 69.183 43.021 69.127 Z  M 45.053 76.425 L 45.053 85.209 C 45.085 87.218 43.489 88.87 41.48 88.907 L 32.581 88.907 C 30.572 88.87 28.976 87.213 29.008 85.209 L 29.008 76.425 C 28.976 74.417 30.572 72.765 32.581 72.728 L 41.48 72.728 C 43.484 72.765 45.085 74.422 45.053 76.425 Z " fill="rgb(0,0,0)"/><path d=" M 68.456 69.127 L 56.424 69.127 C 53.323 69.183 50.847 71.733 50.889 74.838 L 50.889 86.695 C 50.838 89.8 53.318 92.359 56.424 92.415 L 68.456 92.415 C 71.561 92.359 74.037 89.8 73.991 86.695 L 73.991 74.829 C 74.028 71.728 71.557 69.183 68.456 69.127 Z  M 70.488 76.425 L 70.488 85.209 C 70.52 87.218 68.924 88.87 66.915 88.907 L 58.016 88.907 C 56.021 88.851 54.438 87.204 54.471 85.209 L 54.471 76.425 C 54.438 74.417 56.035 72.765 58.043 72.728 L 66.943 72.728 C 68.937 72.783 70.52 74.431 70.488 76.425 Z " fill="rgb(0,0,0)"/><path d=" M 119.071 69.127 L 107.048 69.127 C 103.947 69.183 101.471 71.733 101.513 74.838 L 101.513 86.695 C 101.471 89.795 103.943 92.35 107.048 92.405 L 119.071 92.405 C 122.172 92.35 124.648 89.8 124.606 86.695 L 124.606 74.829 C 124.643 71.728 122.167 69.183 119.071 69.127 Z  M 121.103 76.425 L 121.103 85.209 C 121.135 87.218 119.539 88.87 117.53 88.907 L 108.631 88.907 C 106.622 88.87 105.026 87.213 105.058 85.209 L 105.058 76.425 C 105.026 74.417 106.622 72.765 108.631 72.728 L 117.53 72.728 C 119.534 72.765 121.135 74.422 121.103 76.425 Z " fill="rgb(0,0,0)"/><path d=" M 144.465 69.127 L 132.441 69.127 C 129.341 69.183 126.865 71.733 126.906 74.838 L 126.906 86.695 C 126.865 89.795 129.336 92.35 132.441 92.405 L 144.465 92.405 C 147.565 92.35 150.041 89.8 149.999 86.695 L 149.999 74.829 C 150.037 71.728 147.565 69.183 144.465 69.127 Z  M 146.496 76.425 L 146.496 85.209 C 146.529 87.218 144.932 88.87 142.923 88.907 L 134.024 88.907 C 132.016 88.87 130.419 87.213 130.451 85.209 L 130.451 76.425 C 130.419 74.417 132.016 72.765 134.024 72.728 L 142.923 72.728 C 144.932 72.765 146.529 74.422 146.496 76.425 L 146.496 76.425 Z " fill="rgb(0,0,0)"/><path d=" M 17.489 69.127 L 5.466 69.127 C 4.795 69.132 4.133 69.266 3.513 69.516 L 3.513 57.511 L 0.001 57.511 L 0.001 86.704 C -0.041 89.805 2.43 92.359 5.535 92.415 L 17.489 92.415 C 20.595 92.359 23.071 89.8 23.024 86.695 L 23.024 74.829 C 23.061 71.728 20.59 69.183 17.489 69.127 Z  M 19.521 76.425 L 19.521 85.209 C 19.553 87.218 17.957 88.87 15.948 88.907 L 7.035 88.907 C 5.026 88.87 3.43 87.213 3.462 85.209 L 3.462 76.425 C 3.462 74.44 5.05 72.816 7.035 72.774 L 15.934 72.774 C 17.929 72.811 19.526 74.435 19.521 76.425 Z " fill="rgb(0,0,0)"/><path d=" M 93.785 69.234 L 81.798 69.234 C 81.127 69.238 80.466 69.372 79.845 69.622 L 79.845 57.632 L 76.333 57.632 L 76.333 92.456 L 79.845 92.456 L 79.845 92.146 C 79.845 90.739 79.776 76.638 79.776 76.532 C 79.776 74.546 81.363 72.922 83.349 72.88 L 92.248 72.88 C 94.257 72.917 95.853 74.574 95.821 76.578 L 95.821 92.489 L 99.366 92.489 L 99.366 74.981 C 99.431 71.872 96.964 69.298 93.854 69.234 C 93.831 69.234 93.808 69.234 93.785 69.234 Z " fill="rgb(0,0,0)"/></g></svg>