<?xml version="1.0" encoding="UTF-8" standalone="no"?><!-- Generator: Gravit.io --><svg xmlns="http://www.w3.org/2000/svg" xmlns:xlink="http://www.w3.org/1999/xlink" style="isolation:isolate" viewBox="0 0 173 173" width="173" height="173"><defs><clipPath id="_clipPath_mSUplPlCdhBxl5HsNeBmsFN6udDnv94c"><rect width="173" height="173"/></clipPath></defs><g clip-path="url(#_clipPath_mSUplPlCdhBxl5HsNeBmsFN6udDnv94c)"><g><clipPath id="_clipPath_94wsfiG3lvyXaYa1A42NAcMSi7C5jzku"><rect x="2" y="58" width="173" height="173" transform="matrix(1,0,0,1,0,0)" fill="rgb(255,255,255)"/></clipPath><g clip-path="url(#_clipPath_94wsfiG3lvyXaYa1A42NAcMSi7C5jzku)"><path d=" M 150.251 80.154 C 151.116 79.144 152.51 76.982 152.414 75.492 C 152.366 75.108 152.029 74.819 151.501 74.627 C 150.54 74.291 149.146 74.435 148.762 74.964 C 148.81 74.916 148.81 74.868 148.762 75.012 C 148.185 75.877 148.521 75.396 148.714 75.108 C 147.704 76.694 146.936 78.664 146.647 80.49 C 146.647 80.538 146.647 80.538 146.647 80.586 C 146.647 80.586 146.647 80.634 146.647 80.634 C 146.647 80.634 146.647 80.682 146.647 80.682 C 146.455 82.124 149.819 80.634 150.251 80.154 Z " fill="rgb(255,203,5)"/></g><clipPath id="_clipPath_pgDSJGXJhpywKAOmYYtz0eNGU3HYky1V"><rect x="2" y="58" width="173" height="173" transform="matrix(1,0,0,1,0,0)" fill="rgb(255,255,255)"/></clipPath><g clip-path="url(#_clipPath_pgDSJGXJhpywKAOmYYtz0eNGU3HYky1V)"><path d=" M 80.523 84.719 C 80.379 84.431 80.234 84.142 80.042 83.902 C 79.514 83.277 78.841 82.797 77.976 82.46 C 77.591 82.316 77.207 82.22 76.822 82.172 C 79.994 78.664 82.541 74.819 83.646 71.167 C 84.175 69.533 83.887 67.948 83.166 66.65 C 82.637 65.689 81.916 64.824 81.051 64.199 C 81.003 64.151 80.955 64.151 80.955 64.103 C 79.85 63.238 78.697 63.382 77.495 64.439 C 69.951 70.831 61.06 82.22 58.225 93.177 C 58.129 93.561 58.033 93.994 57.937 94.378 C 55.918 96.108 53.227 98.223 52.314 97.838 C 52.074 97.742 51.882 97.598 51.738 97.454 C 50.969 96.781 50.873 95.772 51.353 94.618 C 53.323 90.918 56.879 86.833 57.696 85.584 C 57.793 85.44 57.648 85.248 57.408 85.151 C 57.312 85.103 57.216 85.103 57.12 85.055 C 57.072 85.055 57.072 85.055 57.024 85.055 C 57.024 85.055 57.024 85.055 57.024 85.055 C 56.111 84.911 54.909 84.911 53.9 85.488 C 53.516 83.71 52.747 81.884 51.065 81.115 C 49.094 80.202 46.403 80.346 43.232 82.124 C 39.051 84.479 35.206 88.9 33.188 93.081 C 31.891 94.09 24.298 99.808 19.108 97.021 C 18.099 96.493 17.33 95.82 16.705 94.955 C 13.485 90.678 14.879 82.749 21.03 75.06 C 28.334 65.929 34.726 61.748 38.234 64.247 C 38.763 64.632 39.099 65.064 39.291 65.545 C 39.916 67.083 39.195 68.909 39.003 69.389 C 39.003 69.437 38.955 69.485 38.955 69.533 C 38.426 70.735 37.849 71.984 37.609 73.186 C 37.417 74.003 37.465 74.675 37.609 75.204 C 37.898 76.069 38.618 76.694 39.724 77.318 C 40.541 77.799 41.261 77.607 41.598 76.838 C 43.328 72.993 45.49 66.794 43.76 63.238 C 43.328 62.373 42.703 61.652 41.742 61.172 C 40.589 60.595 39.051 60.259 37.321 60.211 C 37.225 60.211 37.129 60.211 37.033 60.211 C 36.936 60.211 36.792 60.211 36.696 60.211 C 36.648 60.211 36.552 60.211 36.504 60.211 C 36.456 60.211 36.36 60.211 36.312 60.211 C 36.312 60.211 36.312 60.211 36.312 60.211 C 29.344 60.451 19.684 65.737 12.572 76.838 C 6.565 86.161 6.469 94.522 9.881 99.184 C 11.659 101.683 14.446 103.124 17.858 103.124 C 22.568 103.124 29.632 98.751 31.842 97.358 C 31.746 97.838 31.746 98.319 31.746 98.751 C 31.746 99.953 32.083 100.962 32.756 101.683 C 33.573 102.596 34.87 103.124 36.792 103.124 C 41.646 103.124 45.25 99.328 45.25 99.328 C 45.25 99.328 45.202 99.953 45.442 100.673 C 45.586 101.154 45.827 101.683 46.211 102.115 C 46.74 102.692 47.557 103.124 48.806 103.124 C 51.065 103.124 55.053 100.769 57.937 98.607 C 58.033 98.991 58.129 99.376 58.273 99.712 C 58.417 100.097 58.658 100.481 58.898 100.769 C 58.946 100.818 58.994 100.866 58.994 100.914 C 59.859 101.971 61.156 102.692 62.838 102.98 C 62.838 102.98 63.607 103.124 64.953 103.172 C 65.674 103.172 66.346 103.076 67.019 102.932 C 71.825 102.163 75.333 99.28 78.312 94.763 C 80.811 90.87 81.676 87.122 80.523 84.719 Z  M 38.907 97.55 C 37.225 96.06 39.964 91.158 41.79 89.284 C 43.616 87.362 47.509 84.238 48.806 85.392 C 49.046 85.584 49.143 85.872 49.191 86.209 C 49.431 87.939 47.461 91.11 46.067 92.888 C 44.721 94.618 40.781 98.847 39.003 97.694 C 38.955 97.646 38.907 97.598 38.907 97.55 Z  M 68.269 84.19 C 73.843 75.733 78.841 69.87 79.85 69.87 C 79.85 69.87 79.898 69.87 79.898 69.87 C 79.898 69.87 79.946 69.918 79.946 70.062 C 79.946 70.302 79.898 70.687 79.706 71.215 C 78.841 73.81 75.621 79.529 69.182 84.623 C 68.461 85.199 67.692 85.776 66.923 86.305 C 67.404 85.488 67.692 85.007 68.269 84.19 Z  M 63.559 96.541 L 63.559 96.541 C 64.328 92.504 71.488 86.401 72.738 85.824 C 73.795 85.44 74.564 85.44 74.9 85.584 C 75.285 85.776 75.525 86.113 75.573 86.545 C 75.765 87.843 74.804 90.197 72.401 93.417 C 69.422 97.454 65.818 99.52 64.28 98.367 C 63.847 98.078 63.559 97.454 63.559 96.541 Z " fill="rgb(255,203,5)"/></g><clipPath id="_clipPath_o7vLMPD8qAKMRmFs9Ez7IMRzUzrP6dns"><rect x="2" y="58" width="173" height="173" transform="matrix(1,0,0,1,0,0)" fill="rgb(255,255,255)"/></clipPath><g clip-path="url(#_clipPath_o7vLMPD8qAKMRmFs9Ez7IMRzUzrP6dns)"><path d=" M 157.748 83.133 C 157.94 82.893 158.084 82.701 158.277 82.46 C 159.19 81.307 159.622 80.586 158.805 80.009 C 158.709 79.913 158.565 79.865 158.421 79.817 C 158.229 79.769 158.036 79.721 157.796 79.721 C 156.883 79.721 155.778 80.106 154.817 80.778 C 153.519 81.643 152.846 82.46 152.462 83.806 C 150.732 86.305 148.233 88.9 146.359 90.87 C 146.503 92.648 146.647 93.994 146.888 94.955 C 146.888 94.955 146.888 94.955 146.888 94.955 C 146.888 95.051 146.936 95.147 146.936 95.195 C 146.936 95.195 146.936 95.195 146.936 95.195 C 147.801 94.138 148.569 93.081 149.29 92.071 C 149.627 91.687 149.915 91.303 150.251 90.918 C 150.876 90.149 151.501 89.38 152.078 88.611 C 152.126 88.948 152.126 89.284 152.174 89.669 C 152.174 89.813 152.222 90.005 152.222 90.149 C 152.318 91.062 152.366 92.071 152.414 93.081 C 152.414 93.129 152.414 93.129 152.414 93.177 C 152.462 93.898 152.462 94.618 152.462 95.339 C 152.366 96.829 151.885 98.271 150.107 98.943 C 148.329 99.568 146.839 99.088 145.926 97.982 C 145.686 97.694 145.494 97.406 145.35 97.069 C 144.821 96.108 144.485 94.618 144.293 92.312 C 144.196 91.735 143.812 91.591 143.572 91.543 C 143.524 91.543 143.476 91.543 143.476 91.543 C 143.187 91.543 142.899 91.639 142.563 91.831 C 140.977 92.792 140.256 94.714 140.544 96.637 C 139.391 97.454 138.382 97.982 137.901 97.79 C 137.661 97.694 137.517 97.598 137.324 97.454 C 136.508 96.829 136.508 95.772 136.94 94.57 C 138.238 92.071 140.208 89.428 141.649 87.602 C 141.842 87.314 141.89 87.314 141.89 87.314 C 142.514 86.497 143.043 85.824 143.283 85.488 C 143.379 85.392 143.235 85.248 143.091 85.151 C 142.995 85.103 142.851 85.055 142.755 85.055 C 142.755 85.055 142.755 85.055 142.755 85.055 C 142.755 85.055 142.755 85.055 142.707 85.055 C 141.746 84.863 140.544 84.911 139.487 85.488 C 139.103 83.71 138.334 81.884 136.652 81.115 C 134.681 80.202 131.99 80.346 128.819 82.124 C 123.869 84.911 119.4 90.678 117.862 95.435 C 115.075 98.319 112.864 99.904 110.365 99.856 C 110.269 99.856 110.173 99.856 110.029 99.808 C 109.981 99.808 109.981 99.808 109.933 99.76 C 109.933 99.76 109.933 99.76 109.933 99.76 C 109.548 99.664 109.212 99.424 108.876 99.088 C 108.059 98.223 107.674 96.685 107.914 95.243 C 112.432 91.735 117.189 87.362 121.37 82.508 C 124.782 78.856 127.569 74.723 128.771 70.879 C 129.299 69.245 129.011 67.659 128.29 66.314 C 127.761 65.353 126.993 64.488 126.128 63.863 C 126.079 63.815 126.031 63.815 126.031 63.767 C 124.926 62.902 123.773 62.998 122.523 64.103 C 116.324 69.389 109.212 77.991 105.271 86.929 C 104.358 88.996 103.589 91.062 103.061 93.129 C 102.869 93.849 102.724 94.522 102.628 95.195 C 101.331 96.06 100.081 96.877 98.832 97.598 L 98.784 97.646 C 96.429 98.991 93.45 99.568 91.768 99.568 C 90.326 99.52 89.221 99.136 88.5 98.367 C 87.971 97.838 87.683 97.069 87.587 96.204 C 87.539 95.916 87.539 95.579 87.587 95.243 C 92.2 95.628 95.708 94.907 98.832 91.543 C 98.88 91.495 98.928 91.399 99.024 91.351 C 99.024 91.351 99.024 91.351 99.024 91.351 C 99.12 91.254 99.168 91.158 99.264 91.062 C 99.313 91.014 99.313 91.014 99.361 90.966 C 99.505 90.822 99.601 90.63 99.745 90.486 C 99.745 90.486 99.793 90.438 99.793 90.438 C 99.937 90.245 100.033 90.101 100.129 89.909 C 100.129 89.909 100.129 89.909 100.129 89.909 C 101.331 87.891 101.523 85.824 100.994 84.527 C 100.898 84.238 100.754 83.998 100.562 83.806 C 99.505 82.556 98.351 81.739 96.766 80.923 C 96.525 80.778 96.237 80.682 95.949 80.634 C 95.949 80.634 95.949 80.634 95.949 80.634 C 95.66 80.586 95.324 80.538 94.988 80.49 L 94.988 80.49 C 94.843 80.49 94.699 80.49 94.507 80.49 C 94.459 80.49 94.411 80.49 94.363 80.49 C 94.267 80.49 94.123 80.49 94.026 80.538 C 93.978 80.538 93.882 80.538 93.834 80.538 C 93.738 80.538 93.594 80.586 93.498 80.586 C 93.45 80.586 93.354 80.586 93.306 80.634 C 93.161 80.682 93.017 80.682 92.825 80.73 C 92.825 80.73 92.777 80.73 92.777 80.73 C 89.365 81.595 85.232 84.575 82.349 89.476 C 79.946 93.609 79.994 97.598 82.013 100.241 C 83.502 102.211 86.097 103.461 89.605 103.413 C 95.228 103.364 97.198 102.115 102.773 98.847 C 102.869 99.232 103.013 99.568 103.157 99.904 C 103.301 100.193 103.445 100.481 103.638 100.721 C 103.686 100.769 103.734 100.818 103.734 100.866 C 103.878 101.01 103.974 101.154 104.118 101.298 C 105.319 102.499 107.146 103.124 109.5 103.172 C 109.596 103.172 109.644 103.172 109.741 103.172 C 112.672 103.172 115.315 101.827 117.381 100.241 C 117.478 100.625 117.67 100.962 117.862 101.25 C 117.958 101.346 118.054 101.49 118.102 101.586 C 118.919 102.499 120.217 103.028 122.139 103.028 C 127.041 103.028 130.597 99.232 130.597 99.232 C 130.597 99.232 130.549 99.856 130.789 100.577 C 130.933 101.058 131.173 101.538 131.558 101.971 C 132.086 102.548 132.903 102.98 134.153 102.98 C 134.153 102.98 134.441 102.98 134.778 102.98 C 137.517 102.836 139.968 101.683 142.082 99.953 C 143.572 101.442 145.59 102.355 147.993 102.884 C 153.904 104.133 156.595 100.769 157.412 98.607 C 157.844 97.646 157.988 96.637 158.084 95.676 C 158.084 95.531 158.084 95.387 158.084 95.291 C 158.084 95.243 158.084 95.243 158.084 95.195 L 158.084 95.195 C 158.133 93.753 157.94 92.264 157.748 90.678 C 157.46 88.371 157.171 86.016 157.412 83.325 C 157.604 83.325 157.652 83.229 157.748 83.133 Z  M 88.452 91.639 C 89.173 89.957 90.326 88.275 91.864 86.785 C 93.498 85.055 94.891 84.479 95.756 84.623 C 95.997 84.671 96.189 84.815 96.189 84.815 C 96.237 84.863 96.285 84.911 96.333 84.959 C 96.333 84.959 96.381 85.007 96.381 85.055 C 96.477 85.199 96.525 85.392 96.525 85.632 C 96.525 86.401 96.141 87.506 95.132 88.659 C 93.93 90.005 92.344 91.591 89.509 91.687 C 89.173 91.687 88.836 91.687 88.452 91.639 Z  M 116.997 78.52 C 118.487 76.453 119.88 74.675 121.034 73.282 C 122.86 71.119 124.157 69.918 124.638 69.918 C 124.638 69.918 124.686 69.918 124.686 69.918 C 124.686 69.918 124.734 69.966 124.734 70.11 C 124.734 70.35 124.686 70.735 124.494 71.263 C 124.109 72.369 123.292 74.099 121.947 76.117 L 121.947 76.117 L 120.505 78.279 L 120.505 78.279 C 117.958 81.643 115.171 84.719 112.191 87.458 C 111.423 88.179 110.654 88.852 109.885 89.524 C 111.903 85.728 114.834 81.499 116.997 78.52 Z  M 124.398 97.55 C 122.716 96.06 125.455 91.158 127.281 89.284 C 129.107 87.362 132.999 84.238 134.297 85.392 C 134.537 85.584 134.633 85.872 134.681 86.209 C 134.922 87.939 132.951 91.11 131.558 92.888 C 130.212 94.618 126.272 98.847 124.494 97.694 C 124.494 97.646 124.446 97.598 124.398 97.55 Z " fill="rgb(255,203,5)"/></g><clipPath id="_clipPath_wNWhD7DmSoaYsHvFr7I6ktE3pynG6KPa"><rect x="2" y="58" width="173" height="173" transform="matrix(1,0,0,1,0,0)" fill="rgb(255,255,255)"/></clipPath><g clip-path="url(#_clipPath_wNWhD7DmSoaYsHvFr7I6ktE3pynG6KPa)"><path d=" M 80.907 91.591 C 80.955 91.447 81.003 91.254 81.051 91.11 C 81.099 91.014 81.099 90.87 81.148 90.774 C 81.196 90.63 81.244 90.486 81.244 90.341 C 81.244 90.245 81.292 90.197 81.292 90.101 C 81.82 87.794 81.964 84.479 78.841 82.893 C 79.273 83.181 79.658 83.469 79.994 83.854 C 80.186 84.094 80.331 84.383 80.475 84.671 C 81.484 86.785 80.955 89.957 79.033 93.369 C 79.033 93.417 78.985 93.417 78.985 93.465 C 78.889 93.657 78.745 93.849 78.649 94.042 C 78.504 94.282 78.36 94.522 78.216 94.763 C 75.237 99.28 71.729 102.163 66.923 102.932 C 66.923 102.932 66.923 102.932 66.923 102.932 L 66.923 102.932 C 66.25 103.076 65.577 103.172 64.857 103.172 C 63.511 103.172 62.742 102.98 62.742 102.98 C 61.06 102.692 59.763 101.971 58.898 100.914 C 58.85 100.866 58.802 100.818 58.802 100.769 C 58.657 100.577 58.513 100.337 58.369 100.097 C 58.994 101.538 59.907 102.451 60.964 103.076 C 61.012 103.124 61.06 103.124 61.108 103.172 C 61.252 103.22 61.349 103.316 61.493 103.364 C 61.493 103.364 61.541 103.364 61.541 103.413 C 62.79 103.989 64.136 104.133 65.241 104.133 C 65.289 104.133 65.337 104.133 65.433 104.133 C 66.154 104.133 66.827 104.037 67.5 103.893 C 72.305 103.124 75.813 100.241 78.793 95.724 C 79.562 94.57 80.186 93.369 80.667 92.264 C 80.715 92.119 80.811 91.975 80.859 91.783 C 80.859 91.735 80.907 91.687 80.907 91.591 Z " fill="rgb(84,83,74)"/></g><clipPath id="_clipPath_MCEtSGZsor7fPSrB5K7u4OPc9VFsYoS9"><rect x="2" y="58" width="173" height="173" transform="matrix(1,0,0,1,0,0)" fill="rgb(255,255,255)"/></clipPath><g clip-path="url(#_clipPath_MCEtSGZsor7fPSrB5K7u4OPc9VFsYoS9)"><path d=" M 148.041 82.22 C 149.05 82.172 150.588 81.403 150.876 81.067 C 151.741 80.058 153.135 77.895 153.039 76.405 C 153.039 76.357 153.039 76.309 153.039 76.309 C 152.943 75.733 152.654 75.012 151.549 74.627 C 152.029 74.771 152.414 75.06 152.462 75.492 C 152.606 76.934 151.164 79.144 150.299 80.154 C 149.867 80.634 146.551 82.124 146.599 80.682 C 146.359 82.412 147.704 82.268 148.041 82.22 Z " fill="rgb(84,83,74)"/></g><clipPath id="_clipPath_Oirtyzk5HjRNVfSqkBZgBw3vAbRz7O6v"><rect x="2" y="58" width="173" height="173" transform="matrix(1,0,0,1,0,0)" fill="rgb(255,255,255)"/></clipPath><g clip-path="url(#_clipPath_Oirtyzk5HjRNVfSqkBZgBw3vAbRz7O6v)"><path d=" M 79.706 71.215 C 79.898 70.687 79.946 70.302 79.946 70.062 C 79.946 69.918 79.898 69.87 79.898 69.87 C 79.898 69.87 79.85 69.87 79.85 69.87 C 78.841 69.87 73.795 75.733 68.269 84.19 C 67.74 85.007 67.404 85.488 66.923 86.305 C 67.74 85.776 68.461 85.199 69.182 84.623 C 73.747 77.751 77.928 72.657 79.706 71.215 Z " fill="rgb(84,83,74)"/></g><clipPath id="_clipPath_oCZ5wsWcpPE9ClVVKjRA9WVyC4FcoVHC"><rect x="2" y="58" width="173" height="173" transform="matrix(1,0,0,1,0,0)" fill="rgb(255,255,255)"/></clipPath><g clip-path="url(#_clipPath_oCZ5wsWcpPE9ClVVKjRA9WVyC4FcoVHC)"><path d=" M 64.28 98.415 C 64.184 98.126 64.136 97.838 64.136 97.454 L 64.136 97.454 C 64.905 93.417 72.065 87.314 73.314 86.737 C 74.372 86.353 75.141 86.353 75.477 86.497 C 75.525 86.497 75.525 86.545 75.573 86.545 C 75.477 86.064 75.285 85.728 74.9 85.584 C 74.564 85.44 73.795 85.44 72.738 85.824 C 71.536 86.401 64.328 92.504 63.559 96.541 L 63.559 96.541 C 63.559 97.454 63.847 98.078 64.28 98.415 Z " fill="rgb(84,83,74)"/></g><clipPath id="_clipPath_FKbQbnqX877ZW9jKdSXSMpKX96ktVLHI"><rect x="2" y="58" width="173" height="173" transform="matrix(1,0,0,1,0,0)" fill="rgb(255,255,255)"/></clipPath><g clip-path="url(#_clipPath_FKbQbnqX877ZW9jKdSXSMpKX96ktVLHI)"><path d=" M 41.742 89.284 C 39.916 91.206 37.177 96.06 38.859 97.55 C 38.907 97.598 38.955 97.598 39.003 97.646 C 38.57 95.628 40.781 91.831 42.319 90.197 C 44.049 88.371 47.653 85.44 49.143 86.161 C 49.094 85.824 48.95 85.536 48.758 85.344 C 47.461 84.238 43.616 87.362 41.742 89.284 Z " fill="rgb(84,83,74)"/></g><clipPath id="_clipPath_cdYbTft0kGwr48z6sWoTbTqPHcMZfNjK"><rect x="2" y="58" width="173" height="173" transform="matrix(1,0,0,1,0,0)" fill="rgb(255,255,255)"/></clipPath><g clip-path="url(#_clipPath_cdYbTft0kGwr48z6sWoTbTqPHcMZfNjK)"><path d=" M 21.607 76.069 C 28.911 66.89 35.351 62.661 38.859 65.16 C 39.003 65.256 39.147 65.401 39.291 65.545 C 39.099 65.064 38.763 64.584 38.234 64.247 C 34.726 61.748 28.286 65.929 20.982 75.108 C 14.879 82.797 13.485 90.726 16.657 95.003 C 14.302 90.582 15.888 83.229 21.607 76.069 Z " fill="rgb(84,83,74)"/></g><clipPath id="_clipPath_lVbYuSmkb61IREwvZNziEuNI5JJPuc3s"><rect x="2" y="58" width="173" height="173" transform="matrix(1,0,0,1,0,0)" fill="rgb(255,255,255)"/></clipPath><g clip-path="url(#_clipPath_lVbYuSmkb61IREwvZNziEuNI5JJPuc3s)"><path d=" M 57.312 98.991 C 57.264 99.039 57.168 99.088 57.12 99.136 C 57.024 99.232 56.879 99.28 56.783 99.376 C 56.687 99.424 56.639 99.472 56.543 99.52 C 56.447 99.568 56.351 99.664 56.255 99.712 C 56.159 99.76 56.062 99.856 55.966 99.904 C 55.87 99.953 55.774 100.001 55.726 100.097 C 55.63 100.145 55.534 100.241 55.39 100.289 C 55.342 100.337 55.246 100.385 55.198 100.385 C 54.573 100.769 53.948 101.154 53.275 101.49 C 53.275 101.49 53.227 101.49 53.227 101.538 C 53.083 101.634 52.891 101.731 52.747 101.779 C 52.747 101.779 52.747 101.779 52.747 101.779 C 51.738 102.307 50.728 102.692 49.863 102.932 C 49.863 102.932 49.863 102.932 49.863 102.932 C 49.431 103.028 49.046 103.076 48.71 103.076 C 47.461 103.076 46.644 102.644 46.115 102.067 C 45.779 101.683 45.538 101.25 45.394 100.818 C 46.163 103.509 47.989 103.989 49.287 103.989 C 49.287 103.989 49.335 103.989 49.335 103.989 C 49.383 103.989 49.383 103.989 49.431 103.989 C 49.527 103.989 49.623 103.989 49.671 103.989 C 49.719 103.989 49.767 103.989 49.815 103.989 C 50.248 103.941 50.536 103.845 50.632 103.845 C 52.843 103.268 55.822 101.442 58.177 99.712 C 58.033 99.376 57.889 98.991 57.841 98.607 C 57.648 98.751 57.504 98.847 57.312 98.991 Z " fill="rgb(84,83,74)"/></g><clipPath id="_clipPath_czic25ZM8nDVwzjIpD2tAbilnZOLbo8o"><rect x="2" y="58" width="173" height="173" transform="matrix(1,0,0,1,0,0)" fill="rgb(255,255,255)"/></clipPath><g clip-path="url(#_clipPath_czic25ZM8nDVwzjIpD2tAbilnZOLbo8o)"><path d=" M 56.976 85.055 L 56.976 85.055 C 56.976 85.055 56.976 85.055 56.976 85.055 C 56.976 85.055 56.976 85.055 56.976 85.055 Z " fill="rgb(84,83,74)"/></g><clipPath id="_clipPath_uhxfo2xw58ARWcZBJVJ1B8LvtVKiZmQc"><rect x="2" y="58" width="173" height="173" transform="matrix(1,0,0,1,0,0)" fill="rgb(255,255,255)"/></clipPath><g clip-path="url(#_clipPath_uhxfo2xw58ARWcZBJVJ1B8LvtVKiZmQc)"><path d=" M 37.609 75.204 C 37.946 76.598 39.003 77.463 39.676 77.895 C 39.868 78.039 40.06 78.135 40.3 78.279 C 41.117 78.76 41.838 78.568 42.174 77.799 C 43.184 75.492 44.385 72.369 44.817 69.437 C 44.817 69.389 44.817 69.341 44.817 69.341 C 44.866 69.101 44.866 68.861 44.914 68.668 C 44.914 68.62 44.914 68.572 44.914 68.572 C 44.914 68.38 44.962 68.188 44.962 67.996 C 44.962 67.948 44.962 67.948 44.962 67.899 C 45.01 67.227 44.962 66.602 44.866 66.025 C 44.866 66.025 44.866 66.025 44.866 66.025 C 44.866 65.929 44.817 65.785 44.817 65.689 C 44.481 64.055 43.76 62.902 42.943 62.133 C 43.28 62.469 43.52 62.854 43.76 63.286 C 44.529 64.872 44.529 66.986 44.145 69.197 C 44.145 69.197 44.145 69.197 44.145 69.197 C 44.097 69.341 44.097 69.533 44.049 69.678 C 44.049 69.678 44.049 69.678 44.049 69.726 C 44.001 69.87 44.001 70.062 43.952 70.206 C 43.952 70.206 43.952 70.254 43.952 70.254 C 43.904 70.398 43.856 70.591 43.856 70.735 C 43.856 70.735 43.856 70.735 43.856 70.783 C 43.616 71.792 43.28 72.801 42.943 73.81 C 42.943 73.81 42.943 73.858 42.943 73.858 C 42.895 74.003 42.847 74.147 42.799 74.291 C 42.799 74.339 42.799 74.339 42.751 74.387 C 42.703 74.531 42.655 74.627 42.607 74.723 C 42.607 74.771 42.559 74.819 42.559 74.868 C 42.511 74.964 42.463 75.108 42.415 75.204 C 42.415 75.252 42.367 75.3 42.367 75.348 C 42.319 75.444 42.271 75.54 42.223 75.636 C 42.223 75.684 42.174 75.733 42.174 75.781 C 42.126 75.877 42.078 75.973 42.03 76.069 C 42.03 76.117 41.982 76.165 41.982 76.213 C 41.934 76.309 41.886 76.405 41.838 76.501 C 41.838 76.549 41.79 76.598 41.79 76.646 C 41.742 76.79 41.694 76.886 41.598 77.03 C 41.261 77.799 40.541 77.991 39.724 77.511 C 38.618 76.694 37.898 76.069 37.609 75.204 Z " fill="rgb(84,83,74)"/></g><clipPath id="_clipPath_6bTgaNDFp3OlpJ4NrZblApypvh4Z8UzI"><rect x="2" y="58" width="173" height="173" transform="matrix(1,0,0,1,0,0)" fill="rgb(255,255,255)"/></clipPath><g clip-path="url(#_clipPath_6bTgaNDFp3OlpJ4NrZblApypvh4Z8UzI)"><path d=" M 45.154 99.328 C 45.154 99.328 41.598 103.124 36.696 103.124 C 34.774 103.124 33.476 102.596 32.659 101.683 C 32.083 101.058 31.794 100.241 31.698 99.328 C 31.794 101.779 33.14 102.932 34.486 103.509 C 35.014 103.749 35.687 103.941 36.456 103.989 C 36.6 103.989 36.744 103.989 36.84 104.037 C 36.984 104.037 37.177 104.037 37.321 104.037 C 41.213 104.037 44.241 101.634 45.346 100.673 C 45.106 99.953 45.154 99.328 45.154 99.328 Z " fill="rgb(84,83,74)"/></g><clipPath id="_clipPath_jiPbQgXrGYP6BTKni8PHmbod4VTc0JF3"><rect x="2" y="58" width="173" height="173" transform="matrix(1,0,0,1,0,0)" fill="rgb(255,255,255)"/></clipPath><g clip-path="url(#_clipPath_jiPbQgXrGYP6BTKni8PHmbod4VTc0JF3)"><path d=" M 31.794 97.309 C 29.632 98.751 22.52 103.076 17.81 103.076 C 17.618 103.076 17.426 103.076 17.282 103.076 C 17.234 103.076 17.186 103.076 17.089 103.076 C 16.945 103.076 16.849 103.076 16.705 103.028 C 16.609 103.028 16.561 103.028 16.465 102.98 C 16.321 102.98 16.224 102.932 16.08 102.932 C 15.984 102.932 15.888 102.884 15.792 102.884 C 15.744 102.884 15.696 102.884 15.648 102.836 C 13.245 102.355 11.275 101.058 9.881 99.088 C 9.545 98.655 9.304 98.174 9.016 97.694 C 9.689 99.088 10.458 100.193 11.275 101.01 C 11.996 101.779 12.861 102.403 13.774 102.884 C 13.774 102.884 13.822 102.884 13.822 102.932 C 13.87 102.932 13.918 102.98 13.966 102.98 C 14.494 103.268 14.879 103.364 14.879 103.364 C 14.879 103.364 14.879 103.364 14.879 103.364 C 15.984 103.749 17.138 103.989 18.435 103.989 C 22.712 103.989 28.959 100.385 31.698 98.655 C 31.698 98.607 31.698 98.559 31.698 98.511 L 31.698 98.511 C 31.698 98.174 31.698 97.742 31.794 97.309 Z " fill="rgb(84,83,74)"/></g><clipPath id="_clipPath_u2KVEkIRp7tfBMdY0MmyYjhmaQZxPDeO"><rect x="2" y="58" width="173" height="173" transform="matrix(1,0,0,1,0,0)" fill="rgb(255,255,255)"/></clipPath><g clip-path="url(#_clipPath_u2KVEkIRp7tfBMdY0MmyYjhmaQZxPDeO)"><path d=" M 144.196 92.312 C 144.437 94.618 144.773 96.108 145.254 97.069 C 145.398 97.406 145.59 97.694 145.83 97.982 C 145.35 97.021 145.013 95.531 144.773 93.225 C 144.773 93.225 144.773 93.225 144.773 93.225 C 144.773 92.984 144.533 91.495 143.476 91.543 C 143.716 91.591 144.1 91.735 144.196 92.312 Z " fill="rgb(84,83,74)"/></g><clipPath id="_clipPath_hfpFMNDEA99UKr9WY00KWgVhwi8V2wgL"><rect x="2" y="58" width="173" height="173" transform="matrix(1,0,0,1,0,0)" fill="rgb(255,255,255)"/></clipPath><g clip-path="url(#_clipPath_hfpFMNDEA99UKr9WY00KWgVhwi8V2wgL)"><path d=" M 142.563 85.055 L 142.563 85.055 L 142.563 85.055 L 142.563 85.055" fill="rgb(84,83,74)"/></g><clipPath id="_clipPath_4tBDPYXxEzWSsmquKQF2ThhX4hsjZbFj"><rect x="2" y="58" width="173" height="173" transform="matrix(1,0,0,1,0,0)" fill="rgb(255,255,255)"/></clipPath><g clip-path="url(#_clipPath_4tBDPYXxEzWSsmquKQF2ThhX4hsjZbFj)"><path d=" M 150.203 90.918 C 149.915 91.303 149.579 91.687 149.242 92.071 C 148.521 93.081 147.704 94.186 146.839 95.243 C 147.176 96.06 147.416 96.156 147.416 96.156 C 148.281 95.099 149.05 94.042 149.819 92.984 C 150.155 92.6 150.444 92.216 150.78 91.831 C 151.261 91.254 151.693 90.726 152.174 90.149 C 152.174 90.005 152.126 89.813 152.126 89.669 C 152.077 89.284 152.077 88.948 152.029 88.611 C 151.453 89.38 150.828 90.149 150.203 90.918 Z " fill="rgb(84,83,74)"/></g><clipPath id="_clipPath_sCXki3NrtswO7Np1RF0NOZZZtz3uYtmw"><rect x="2" y="58" width="173" height="173" transform="matrix(1,0,0,1,0,0)" fill="rgb(255,255,255)"/></clipPath><g clip-path="url(#_clipPath_sCXki3NrtswO7Np1RF0NOZZZtz3uYtmw)"><path d=" M 102.244 99.232 C 101.956 99.376 101.715 99.568 101.427 99.712 C 101.379 99.712 101.331 99.76 101.331 99.76 C 101.235 99.808 101.091 99.904 100.994 99.953 C 100.946 99.953 100.946 100.001 100.898 100.001 C 100.802 100.049 100.706 100.145 100.562 100.193 C 100.514 100.193 100.466 100.241 100.466 100.241 C 100.37 100.289 100.274 100.337 100.178 100.433 C 100.129 100.433 100.129 100.481 100.081 100.481 C 99.985 100.529 99.889 100.577 99.793 100.673 C 99.745 100.673 99.745 100.721 99.697 100.721 C 99.601 100.769 99.505 100.818 99.409 100.866 C 99.361 100.866 99.361 100.914 99.313 100.914 C 99.216 100.962 99.12 101.01 99.024 101.058 C 98.976 101.058 98.976 101.106 98.928 101.106 C 98.832 101.154 98.736 101.202 98.64 101.25 C 98.592 101.25 98.592 101.298 98.544 101.298 C 98.448 101.346 98.351 101.394 98.255 101.442 C 98.255 101.442 98.207 101.442 98.207 101.49 C 98.111 101.538 98.015 101.586 97.919 101.634 C 97.919 101.634 97.871 101.634 97.871 101.683 C 97.775 101.731 97.679 101.779 97.583 101.827 C 97.583 101.827 97.534 101.827 97.534 101.827 C 97.438 101.875 97.342 101.923 97.246 101.971 C 97.246 101.971 97.246 101.971 97.246 101.971 C 95.997 102.548 94.843 102.932 93.45 103.124 C 93.45 103.124 93.45 103.124 93.45 103.124 C 93.354 103.124 93.209 103.172 93.113 103.172 C 93.113 103.172 93.113 103.172 93.065 103.172 C 92.969 103.172 92.825 103.22 92.729 103.22 C 92.729 103.22 92.729 103.22 92.681 103.22 C 92.585 103.22 92.441 103.268 92.296 103.268 C 92.296 103.268 92.248 103.268 92.248 103.268 C 92.104 103.268 92.008 103.316 91.864 103.316 C 91.864 103.316 91.816 103.316 91.816 103.316 C 91.672 103.316 91.576 103.316 91.431 103.364 C 91.431 103.364 91.383 103.364 91.383 103.364 C 91.239 103.364 91.095 103.364 90.999 103.364 C 90.999 103.364 90.999 103.364 90.951 103.364 C 90.807 103.364 90.663 103.364 90.518 103.364 C 90.518 103.364 90.518 103.364 90.518 103.364 C 90.23 103.364 89.99 103.364 89.653 103.364 C 86.145 103.413 83.55 102.163 82.061 100.193 C 81.484 99.424 81.051 98.511 80.811 97.55 C 81.484 101.49 84.175 103.124 86.674 103.845 C 87.731 104.181 88.933 104.326 90.278 104.326 C 95.804 104.277 97.823 103.076 103.253 99.904 C 103.109 99.568 102.965 99.232 102.869 98.847 C 102.58 99.039 102.388 99.136 102.244 99.232 Z " fill="rgb(84,83,74)"/></g><clipPath id="_clipPath_TiuCJCtG9USkK4RQtv9lf7r4TPjvwmwq"><rect x="2" y="58" width="173" height="173" transform="matrix(1,0,0,1,0,0)" fill="rgb(255,255,255)"/></clipPath><g clip-path="url(#_clipPath_TiuCJCtG9USkK4RQtv9lf7r4TPjvwmwq)"><path d=" M 127.233 89.284 C 125.407 91.206 122.668 96.06 124.349 97.55 C 124.398 97.598 124.446 97.598 124.494 97.646 C 124.061 95.628 126.272 91.831 127.809 90.197 C 129.539 88.371 133.144 85.44 134.633 86.161 C 134.585 85.824 134.441 85.536 134.249 85.344 C 132.951 84.238 129.107 87.362 127.233 89.284 Z " fill="rgb(84,83,74)"/></g><clipPath id="_clipPath_6QhOx7eIknqzOWGbPFBHs0ai8ScSm37i"><rect x="2" y="58" width="173" height="173" transform="matrix(1,0,0,1,0,0)" fill="rgb(255,255,255)"/></clipPath><g clip-path="url(#_clipPath_6QhOx7eIknqzOWGbPFBHs0ai8ScSm37i)"><path d=" M 117.622 79.481 C 119.111 77.414 120.505 75.636 121.658 74.243 C 122.86 72.801 123.869 71.792 124.494 71.263 C 124.686 70.735 124.734 70.35 124.734 70.11 C 124.734 69.966 124.686 69.918 124.686 69.918 C 124.686 69.918 124.638 69.918 124.638 69.918 C 124.157 69.918 122.86 71.167 121.034 73.282 C 119.832 74.675 118.487 76.453 116.997 78.52 C 114.834 81.451 111.903 85.728 109.933 89.524 C 110.702 88.852 111.471 88.131 112.239 87.458 C 113.969 84.527 115.988 81.643 117.622 79.481 Z " fill="rgb(84,83,74)"/></g><clipPath id="_clipPath_IuJuq5uxwFHO8bTTsnBaLqI3SZlxEAUN"><rect x="2" y="58" width="173" height="173" transform="matrix(1,0,0,1,0,0)" fill="rgb(255,255,255)"/></clipPath><g clip-path="url(#_clipPath_IuJuq5uxwFHO8bTTsnBaLqI3SZlxEAUN)"><path d=" M 89.509 91.687 C 90.23 90.341 91.191 88.948 92.441 87.746 C 94.074 86.016 95.468 85.44 96.333 85.584 C 96.381 85.584 96.429 85.632 96.477 85.632 C 96.477 85.392 96.429 85.199 96.333 85.055 C 96.333 85.055 96.285 84.959 96.285 84.959 C 96.237 84.911 96.189 84.863 96.141 84.815 C 96.141 84.815 95.949 84.719 95.708 84.623 C 94.843 84.479 93.45 85.055 91.816 86.785 C 90.278 88.275 89.125 90.005 88.404 91.639 C 88.836 91.687 89.173 91.687 89.509 91.687 Z " fill="rgb(84,83,74)"/></g><clipPath id="_clipPath_QTVbt9bhganiNVYnOZVRIi8uMRAMj4ZU"><rect x="2" y="58" width="173" height="173" transform="matrix(1,0,0,1,0,0)" fill="rgb(255,255,255)"/></clipPath><g clip-path="url(#_clipPath_QTVbt9bhganiNVYnOZVRIi8uMRAMj4ZU)"><path d=" M 158.133 84.334 C 158.229 84.238 158.277 84.142 158.373 84.046 C 158.565 83.806 158.709 83.614 158.901 83.373 C 159.43 82.701 159.814 82.172 159.863 81.739 C 160.007 81.115 159.959 80.106 158.421 79.769 C 158.565 79.817 158.709 79.865 158.805 79.961 C 159.622 80.586 159.19 81.259 158.277 82.412 C 158.084 82.653 157.94 82.845 157.748 83.085 C 157.652 83.181 157.604 83.277 157.508 83.373 C 157.219 86.016 157.556 88.419 157.844 90.726 C 158.036 92.312 158.229 93.801 158.181 95.243 L 158.181 95.243 C 158.181 95.291 158.181 95.291 158.181 95.339 C 158.181 95.483 158.181 95.628 158.181 95.724 C 158.132 96.685 157.94 97.742 157.508 98.655 C 156.691 100.818 154 104.181 148.089 102.932 C 145.638 102.403 143.62 101.538 142.178 100.001 C 142.034 100.145 141.89 100.241 141.698 100.337 C 141.649 100.385 141.601 100.385 141.553 100.433 C 141.457 100.529 141.313 100.577 141.217 100.673 C 141.169 100.721 141.121 100.721 141.073 100.769 C 140.929 100.866 140.832 100.962 140.688 101.01 C 140.64 101.01 140.64 101.058 140.592 101.058 C 140.256 101.25 139.919 101.442 139.535 101.634 C 139.487 101.634 139.487 101.683 139.439 101.683 C 139.295 101.779 139.151 101.827 139.006 101.923 C 138.958 101.923 138.958 101.971 138.91 101.971 C 137.661 102.548 136.315 102.884 134.874 102.98 C 134.489 102.98 134.249 102.98 134.249 102.98 C 132.999 102.98 132.183 102.548 131.654 101.971 C 131.318 101.586 131.077 101.154 130.933 100.769 C 131.318 102.403 132.183 103.22 133.24 103.605 C 133.576 103.749 133.961 103.845 134.393 103.893 C 135.498 104.037 136.652 103.845 137.469 103.605 C 137.469 103.605 137.517 103.605 137.517 103.605 C 137.517 103.605 137.565 103.605 137.565 103.605 C 139.487 103.124 141.217 102.163 142.803 100.914 C 144.293 102.403 146.311 103.316 148.714 103.845 C 154.624 105.094 157.316 101.731 158.133 99.568 C 158.565 98.607 158.709 97.598 158.805 96.637 C 158.805 96.493 158.805 96.348 158.805 96.252 C 158.805 96.204 158.805 96.204 158.805 96.156 L 158.805 96.156 C 158.853 94.714 158.661 93.225 158.469 91.639 C 158.133 89.38 157.844 86.978 158.133 84.334 Z " fill="rgb(84,83,74)"/></g><clipPath id="_clipPath_qsPY9B6Z0vgqCiLvC5UUdfWs3hRZracM"><rect x="2" y="58" width="173" height="173" transform="matrix(1,0,0,1,0,0)" fill="rgb(255,255,255)"/></clipPath><g clip-path="url(#_clipPath_qsPY9B6Z0vgqCiLvC5UUdfWs3hRZracM)"><path d=" M 130.741 100.289 C 130.741 100.241 130.741 100.145 130.693 100.097 C 130.693 100.049 130.693 100.049 130.693 100.001 C 130.693 99.953 130.693 99.904 130.693 99.808 C 130.693 99.808 130.693 99.76 130.693 99.76 C 130.645 99.472 130.693 99.28 130.693 99.28 C 130.693 99.28 130.693 99.28 130.645 99.328 C 130.645 99.328 130.645 99.328 130.645 99.328 C 130.645 99.328 130.645 99.328 130.645 99.328 C 130.645 99.328 130.645 99.328 130.597 99.376 C 130.597 99.376 130.597 99.376 130.597 99.376 C 130.597 99.376 130.549 99.424 130.549 99.424 C 130.549 99.424 130.549 99.424 130.501 99.472 C 130.501 99.472 130.452 99.52 130.452 99.52 C 130.452 99.52 130.404 99.52 130.404 99.568 C 130.404 99.568 130.356 99.616 130.356 99.616 C 130.356 99.616 130.308 99.664 130.308 99.664 C 130.308 99.664 130.26 99.712 130.212 99.712 C 130.212 99.712 130.164 99.76 130.164 99.76 C 130.116 99.808 130.116 99.808 130.068 99.856 C 130.068 99.856 130.02 99.904 130.02 99.904 C 129.972 99.952 129.972 99.952 129.924 100.001 C 129.876 100.001 129.876 100.049 129.828 100.049 C 129.78 100.097 129.78 100.097 129.732 100.145 C 129.684 100.145 129.684 100.193 129.636 100.193 C 129.587 100.241 129.587 100.241 129.539 100.289 C 129.491 100.337 129.491 100.337 129.443 100.385 C 129.395 100.385 129.395 100.433 129.347 100.433 C 129.299 100.481 129.251 100.481 129.203 100.529 C 129.203 100.529 129.155 100.529 129.155 100.577 C 128.915 100.769 128.626 100.962 128.29 101.154 C 128.29 101.154 128.242 101.154 128.242 101.202 C 128.194 101.25 128.098 101.298 128.002 101.346 C 128.002 101.346 127.954 101.346 127.954 101.394 C 127.857 101.442 127.809 101.49 127.713 101.538 C 127.713 101.538 127.665 101.586 127.665 101.586 C 127.569 101.634 127.521 101.682 127.425 101.731 C 127.425 101.731 127.377 101.779 127.377 101.779 C 127.281 101.827 127.233 101.875 127.137 101.923 C 127.089 101.923 127.089 101.971 127.041 101.971 C 126.944 102.019 126.896 102.067 126.8 102.115 C 126.752 102.115 126.752 102.115 126.704 102.163 C 126.608 102.211 126.512 102.259 126.464 102.259 C 126.464 102.259 126.416 102.259 126.416 102.307 C 126.32 102.355 126.224 102.403 126.127 102.403 C 126.127 102.403 126.079 102.403 126.079 102.451 C 125.983 102.499 125.887 102.547 125.791 102.547 C 125.791 102.547 125.743 102.547 125.743 102.547 C 125.647 102.596 125.551 102.644 125.455 102.644 C 125.455 102.644 125.407 102.644 125.407 102.644 C 125.311 102.692 125.166 102.692 125.07 102.74 C 125.07 102.74 125.07 102.74 125.022 102.74 C 124.157 102.98 123.244 103.172 122.235 103.172 C 122.235 103.172 122.235 103.172 122.235 103.172 C 122.187 103.172 122.187 103.172 122.139 103.172 C 120.217 103.172 118.919 102.644 118.102 101.731 C 118.006 101.634 117.91 101.49 117.862 101.394 C 117.814 101.346 117.766 101.25 117.718 101.202 L 117.718 101.202 C 117.718 101.202 117.718 101.202 117.718 101.202 C 117.67 101.106 117.574 100.962 117.526 100.817 C 117.526 100.817 117.526 100.769 117.477 100.769 C 117.429 100.625 117.381 100.529 117.333 100.385 C 117.189 100.481 117.045 100.577 116.901 100.673 C 116.853 100.673 116.853 100.721 116.805 100.721 C 116.709 100.817 116.564 100.866 116.468 100.962 C 116.42 100.962 116.42 101.01 116.372 101.01 C 116.276 101.106 116.132 101.154 116.036 101.25 C 115.988 101.25 115.988 101.298 115.94 101.298 C 115.796 101.394 115.699 101.442 115.555 101.538 C 115.555 101.538 115.507 101.586 115.459 101.586 C 115.315 101.682 115.171 101.731 115.027 101.827 C 115.027 101.827 114.979 101.827 114.979 101.875 C 114.834 101.971 114.69 102.019 114.546 102.115 C 114.546 102.115 114.498 102.115 114.498 102.115 C 114.354 102.211 114.162 102.259 114.017 102.355 C 114.017 102.355 114.017 102.355 114.017 102.355 C 113.825 102.451 113.681 102.499 113.489 102.547 C 113.489 102.547 113.489 102.547 113.489 102.547 L 113.489 102.547 C 112.287 102.98 110.99 103.268 109.644 103.268 C 109.548 103.268 109.5 103.268 109.404 103.268 C 107.001 103.22 105.175 102.596 104.022 101.394 C 103.878 101.25 103.734 101.106 103.637 100.962 C 103.589 100.914 103.541 100.866 103.541 100.817 C 103.445 100.721 103.397 100.625 103.349 100.529 C 103.493 100.817 103.686 101.106 103.878 101.346 C 103.974 101.49 104.07 101.634 104.166 101.779 C 104.31 101.971 104.502 102.163 104.647 102.355 C 104.935 102.644 105.319 102.932 105.704 103.172 C 108.299 104.902 111.422 104.374 113.345 103.749 C 114.979 103.22 116.516 102.403 117.766 101.394 C 118.006 101.971 118.631 103.124 120.361 103.701 C 121.034 103.941 121.802 104.037 122.716 104.037 C 126.608 104.037 129.636 101.634 130.741 100.673 C 130.693 100.577 130.693 100.481 130.693 100.385 C 130.741 100.337 130.741 100.337 130.741 100.289 Z " fill="rgb(84,83,74)"/></g><clipPath id="_clipPath_q4Dcpu2PCPaiTC4i9kTsXTn9EzOtfDWI"><rect x="2" y="58" width="173" height="173" transform="matrix(1,0,0,1,0,0)" fill="rgb(255,255,255)"/></clipPath><g clip-path="url(#_clipPath_q4Dcpu2PCPaiTC4i9kTsXTn9EzOtfDWI)"><path d=" M 161.064 99.712 C 159.863 99.712 158.805 100.673 158.805 101.923 C 158.805 103.22 159.814 104.133 161.064 104.133 C 162.265 104.133 163.323 103.172 163.323 101.923 C 163.323 100.673 162.265 99.712 161.064 99.712 Z  M 161.064 103.797 C 160.055 103.797 159.238 103.028 159.238 101.923 C 159.238 100.866 160.007 100.097 161.064 100.097 C 162.073 100.097 162.842 100.866 162.842 101.923 C 162.842 102.98 162.073 103.797 161.064 103.797 Z " fill="rgb(84,83,74)"/></g><clipPath id="_clipPath_sdUOQXejaCY03BWxjpFqPN50vQx5tD7w"><rect x="2" y="58" width="173" height="173" transform="matrix(1,0,0,1,0,0)" fill="rgb(255,255,255)"/></clipPath><g clip-path="url(#_clipPath_sdUOQXejaCY03BWxjpFqPN50vQx5tD7w)"><path d=" M 162.073 101.394 C 162.073 100.914 161.785 100.673 161.16 100.673 L 160.199 100.673 L 160.199 103.22 L 160.583 103.22 L 160.583 102.115 L 161.016 102.115 L 161.689 103.22 L 162.121 103.22 L 161.4 102.115 C 161.785 102.019 162.073 101.827 162.073 101.394 Z  M 160.583 101.779 L 160.583 101.01 L 161.112 101.01 C 161.4 101.01 161.689 101.058 161.689 101.394 C 161.689 101.779 161.4 101.827 161.064 101.827 L 160.583 101.827 L 160.583 101.779 Z " fill="rgb(84,83,74)"/></g><clipPath id="_clipPath_Szv0TweV7z6Tq3Vck1WU0iqrJTIeAKPj"><rect x="2" y="58" width="173" height="173" transform="matrix(1,0,0,1,0,0)" fill="rgb(255,255,255)"/></clipPath><g clip-path="url(#_clipPath_Szv0TweV7z6Tq3Vck1WU0iqrJTIeAKPj)"><path d=" M 88.452 98.367 C 88.404 98.319 88.164 97.934 88.164 96.204 C 88.164 96.204 95.612 97.598 99.937 91.927 C 102.773 88.179 101.859 85.536 100.706 83.998 C 100.802 84.142 100.898 84.334 100.994 84.527 C 101.475 85.824 101.283 87.891 100.129 89.909 C 100.129 89.909 100.129 89.909 100.129 89.909 C 100.033 90.101 99.889 90.245 99.793 90.438 C 99.793 90.438 99.745 90.486 99.745 90.486 C 99.649 90.63 99.505 90.822 99.361 90.966 C 99.313 91.014 99.313 91.014 99.264 91.062 C 99.168 91.158 99.12 91.254 99.024 91.351 C 99.024 91.351 99.024 91.351 99.024 91.351 C 98.976 91.399 98.928 91.495 98.832 91.543 C 95.66 94.907 92.2 95.628 87.587 95.243 C 87.587 95.579 87.587 95.916 87.587 96.204 C 87.635 97.069 87.971 97.79 88.452 98.367 Z " fill="rgb(84,83,74)"/></g><clipPath id="_clipPath_x9rJic2WSlsvKGEAytdtfJR1AW0jp8xb"><rect x="2" y="58" width="173" height="173" transform="matrix(1,0,0,1,0,0)" fill="rgb(255,255,255)"/></clipPath><g clip-path="url(#_clipPath_x9rJic2WSlsvKGEAytdtfJR1AW0jp8xb)"><path d=" M 108.395 96.108 C 108.395 96.108 113.873 92.504 121.13 84.286 C 127.809 76.79 131.029 71.119 128.242 66.458 C 128.915 67.755 129.155 69.341 128.674 70.927 C 127.473 74.771 124.686 78.904 121.274 82.556 C 117.093 87.362 112.336 91.783 107.818 95.291 C 107.626 96.733 108.011 98.271 108.779 99.136 C 108.779 99.136 108.251 98.223 108.395 96.108 Z " fill="rgb(84,83,74)"/></g><clipPath id="_clipPath_BJ7XsKempQekmhXOyIWqEiNxMBv96F3e"><rect x="2" y="58" width="173" height="173" transform="matrix(1,0,0,1,0,0)" fill="rgb(255,255,255)"/></clipPath><g clip-path="url(#_clipPath_BJ7XsKempQekmhXOyIWqEiNxMBv96F3e)"><path d=" M 57.456 85.199 C 57.648 85.296 57.744 85.44 57.648 85.584 C 56.831 86.881 53.275 90.918 51.305 94.618 C 50.824 95.724 50.921 96.733 51.593 97.406 C 51.545 96.925 51.593 95.772 52.506 94.426 C 53.708 92.6 57.696 87.218 58.129 86.641 C 58.513 86.113 58.081 85.44 57.456 85.199 Z " fill="rgb(84,83,74)"/></g><clipPath id="_clipPath_2nGmBV4xl7gSLeyVUboavDtQRLLP3qKf"><rect x="2" y="58" width="173" height="173" transform="matrix(1,0,0,1,0,0)" fill="rgb(255,255,255)"/></clipPath><g clip-path="url(#_clipPath_2nGmBV4xl7gSLeyVUboavDtQRLLP3qKf)"><path d=" M 137.132 97.406 C 137.084 96.973 137.084 95.772 138.045 94.378 C 139.247 92.552 143.235 87.17 143.668 86.593 C 144.052 86.064 143.524 85.344 142.803 85.103 C 142.851 85.103 142.851 85.151 142.899 85.151 C 143.091 85.248 143.187 85.344 143.091 85.488 C 142.851 85.872 142.322 86.497 141.698 87.314 C 141.698 87.314 141.649 87.362 141.457 87.602 C 140.016 89.476 138.093 92.119 136.748 94.57 C 136.411 95.772 136.411 96.781 137.132 97.406 Z " fill="rgb(84,83,74)"/></g><clipPath id="_clipPath_3YziYLAUeuflQHDT7ipAQEuKpxSkqGva"><rect x="2" y="58" width="173" height="173" transform="matrix(1,0,0,1,0,0)" fill="rgb(255,255,255)"/></clipPath><g clip-path="url(#_clipPath_3YziYLAUeuflQHDT7ipAQEuKpxSkqGva)"><path d=" M 83.598 71.167 C 82.493 74.819 79.946 78.664 76.774 82.172 C 77.159 82.22 77.495 82.316 77.832 82.46 C 78.649 81.595 83.358 76.549 83.983 71.167 C 84.319 68.668 83.454 67.131 83.022 66.458 C 83.07 66.506 83.07 66.554 83.118 66.65 C 83.839 67.948 84.079 69.533 83.598 71.167 Z " fill="rgb(84,83,74)"/></g></g></g></svg>