<?xml version="1.0" encoding="UTF-8" standalone="no"?><!-- Generator: Gravit.io --><svg xmlns="http://www.w3.org/2000/svg" xmlns:xlink="http://www.w3.org/1999/xlink" style="isolation:isolate" viewBox="0 0 500 500" width="500" height="500"><defs><clipPath id="_clipPath_mPyY8tRJz9mhLfGpUGlNSSYiFFA33fcG"><rect width="500" height="500"/></clipPath></defs><g clip-path="url(#_clipPath_mPyY8tRJz9mhLfGpUGlNSSYiFFA33fcG)"><path d=" M -21.333 273.333 C -36.703 236.312 -14.936 19.273 -15 -25.333 C -15 -27.903 66.897 -44.333 69.667 -44.333 C 197.847 -44.253 376.163 -18.233 504.333 -18.333 C 507.283 -18.333 603.333 52.977 603.333 55.667 C 603.253 183.697 546.587 332.637 546.667 460.667 C 546.667 463.347 472.293 545.333 469.333 545.333 C 341.293 545.233 183.383 547.91 55.333 548 C 52.303 548 -30.333 515.84 -30.333 513 C -94.542 508.998 -87.694 165.361 -58.333 122 C -50.725 110.764 47.689 237.979 56.938 243.594 C 57.078 243.293 56.993 249.503 57 250 C 57.234 253.375 57.565 260.939 57.64 261.61 C 58.48 269.07 63.44 273.52 69.04 277.59 C 79.67 285.33 91.48 286.63 104 284.18 C 105.54 283.88 106.95 283.53 107.17 281.41 C 107.77 275.48 107.57 269.56 107.58 263.1 C 103.52 265.2 100.51 267.94 96.57 269.02 C 89.17 271.05 82.74 269.3 77.76 263.72 C 72.65 257.99 71.75 251.07 74.7 244.02 C 77.61 237.08 83.05 233.27 90.69 232.86 C 96.21 232.57 100.82 234.75 105 238.09 C 106.69 239.44 107.71 239.54 107.65 236.85 C 107.56 232.03 107.57 227.22 107.62 222.4 C 107.64 220.56 106.83 219.45 105.13 218.91 C 97.69 216.57 89.96 215.21 82.45 217.49 C 69.6 221.4 59.253 229.352 56.953 243.672 C 50.96 257.119 -15.071 288.417 -21.333 273.333 Z  M 294.81 249.17 C 300.9 242.91 301.68 240.72 301.04 232 C 300.43 223.73 293.7 217.2 285.4 217.12 C 276.28 217.03 267.16 217.23 258.04 217.21 C 256.18 217.21 255.22 217.52 255.24 219.74 C 255.44 240.85 255.53 261.94 255.65 283.05 C 255.66 284.46 255.81 285.72 257.69 285.65 C 269.14 285.27 280.64 286.24 292.04 284.74 C 299.48 283.76 304.28 278.76 306.48 271.96 C 308.62 265.33 307.37 258.87 302.56 253.4 C 300.48 251.06 297.4 250.63 294.81 249.17 Z  M 247.26 285.63 C 247.36 285.19 247.46 284.76 247.56 284.32 C 241.26 276.19 234.99 268.05 228.66 259.96 C 227.38 258.32 226.82 257.36 229.47 256.5 C 235.8 254.47 239.75 250.12 241.03 243.52 C 243.71 229.75 234.99 216.28 220.37 216.95 C 211.79 217.33 203.18 216.93 194.58 216.76 C 192.48 216.72 191.51 217.25 191.49 219.56 C 191.33 240.66 191.09 261.76 190.83 282.86 C 190.81 284.63 191.26 285.47 193.21 285.46 C 197.9 285.43 202.59 285.46 207.28 285.68 C 209.71 285.8 210.08 284.66 209.99 282.63 C 209.8 278.59 209.72 274.56 209.71 270.52 C 209.7 267.77 209.55 265.09 209.85 261.41 C 211.18 263.26 212.2 264.2 212.93 265.34 C 216.75 271.24 220.54 277.17 224.36 283.08 C 225.12 284.26 225.69 285.64 227.5 285.63 C 234.08 285.61 240.67 285.63 247.26 285.63 Z  M 148.37 217 C 146.81 217 145.36 216.95 143.69 216.96 C 139.62 217.02 137.87 218.1 136.45 221.89 C 129.62 240.15 122.44 258.28 115.38 276.46 C 112.19 284.67 112.18 284.66 121.15 284.98 C 130.52 285.31 130.59 285.33 134.3 276.52 C 135.2 274.38 136.36 273.56 138.67 273.69 C 142.82 273.9 146.99 273.82 151.16 273.87 C 159.87 273.96 159.97 273.93 162.96 282.12 C 163.8 284.42 164.96 285.07 167.25 284.9 C 170.88 284.63 174.53 284.63 178.17 284.56 C 183.43 284.44 183.43 284.46 181.63 279.7 C 174.85 261.71 168.07 243.7 161.28 225.71 C 157.91 216.72 157.91 216.73 148.37 217 Z  M 378.37 217.2 C 379.1 218.57 379.34 219.16 379.69 219.66 C 385.69 228.33 391.58 237.08 397.78 245.61 C 399.75 248.32 399.6 250.08 397.65 252.66 C 390.27 262.42 383.13 272.36 375.92 282.24 C 375.41 282.94 374.4 283.59 374.85 284.57 C 375.32 285.6 376.47 285.09 377.31 285.11 C 381.99 285.2 386.69 285.08 391.37 285.31 C 393.86 285.44 395.44 284.7 396.87 282.6 C 400.54 277.23 404.55 272.09 408.22 266.72 C 410 264.12 411.05 263.53 412.89 266.74 C 416.12 272.39 419.77 277.78 423.12 283.37 C 424.23 285.23 425.43 286.19 427.74 286.08 C 432.55 285.85 437.37 285.97 442.19 285.87 C 443.15 285.85 444.5 286.43 445 285.24 C 445.45 284.18 444.32 283.38 443.76 282.56 C 438.53 274.94 433.21 267.38 428.03 259.73 C 425.93 256.63 421.64 252.44 421.67 249.36 C 421.7 245.72 425.61 242.28 427.89 238.81 C 432.36 231.99 436.91 225.22 442.11 217.39 C 435.55 217.39 430 217.52 424.47 217.34 C 421.94 217.25 420.43 217.97 419.18 220.26 C 416.59 225.01 413.67 229.57 410.49 234.87 C 407.23 229.33 404.31 224.45 401.48 219.51 C 400.64 218.06 399.77 217.13 397.87 217.16 C 391.59 217.27 385.35 217.2 378.37 217.2 Z  M 305.04 223.11 C 305.26 224.3 305.34 224.95 305.49 225.58 C 310.56 245.74 315.63 265.89 320.68 286.05 C 321.3 288.51 322.36 289.31 325.11 288.6 C 341.71 284.32 358.37 280.22 375.03 276.18 C 377.95 275.47 377.81 273.94 377.23 271.64 C 372.03 251.38 366.88 231.11 361.81 210.82 C 361.26 208.63 360.64 207.59 358.13 208.51 C 355.96 209.32 353.59 209.61 351.32 210.18 C 336.83 213.82 322.35 217.47 307.86 221.14 C 306.56 221.47 304.88 221.56 305.04 223.11 Z " fill="rgb(24,32,46)"/><path d=" M 305.04 223.11 C 304.89 221.56 306.56 221.48 307.88 221.15 C 322.36 217.48 336.85 213.83 351.34 210.19 C 353.61 209.62 355.97 209.32 358.15 208.52 C 360.64 207.6 361.27 208.64 361.83 210.83 C 366.91 231.12 372.05 251.39 377.25 271.65 C 377.84 273.96 377.99 275.48 375.05 276.19 C 358.39 280.23 341.74 284.33 325.13 288.61 C 322.37 289.32 321.31 288.51 320.7 286.06 C 315.65 265.9 310.57 245.75 305.51 225.59 C 305.33 224.95 305.25 224.3 305.04 223.11 Z  M 330.99 274.31 C 331.72 274.19 331.98 274.16 332.23 274.1 C 342.44 271.53 352.64 268.94 362.85 266.38 C 364.47 265.97 364.81 265.14 364.4 263.51 C 361.19 250.92 358.07 238.3 354.91 225.69 C 354.53 224.15 353.85 223.18 351.87 223.69 C 341.81 226.29 331.71 228.77 321.62 231.29 C 319.79 231.74 318.68 232.3 319.31 234.72 C 322.52 247.04 325.52 259.42 328.62 271.76 C 328.97 273.23 329.48 274.62 330.99 274.31 Z " fill="rgb(35,156,211)"/><path d=" M 279.73 257.66 C 280.45 257.71 281.89 257.74 283.3 257.9 C 287.3 258.37 289.1 260.19 289.38 264.15 C 289.64 267.86 287.68 269.9 284.2 270.8 C 281.26 271.57 278.26 271.3 275.29 271.55 C 273.54 271.7 273.03 270.74 273.07 269.17 C 273.12 267.35 273.05 265.53 273.08 263.71 C 273.18 256.91 272.07 257.73 279.73 257.66 Z " fill="rgb(24,32,46)"/><path d=" M 273.52 237.09 C 273.52 236.7 273.52 236.3 273.54 235.93 C 273.61 233.83 272.89 230.71 275.26 230.52 C 279.31 229.59 283.29 230.76 283.84 233.91 C 284.37 236.98 284.72 239.9 282.53 242.39 C 280.31 244.14 277.71 244.02 275.12 243.9 C 273.7 243.84 273.52 242.85 273.53 241.73 C 273.53 240.2 273.52 238.64 273.52 237.09 Z " fill="rgb(24,32,46)"/><path d=" M 208.54 238.5 C 208.54 238.24 208.57 237.97 208.56 237.73 C 208.38 235.56 208.13 230.98 210.68 230.54 C 218.02 229.28 222.79 232.98 223.09 238.55 C 223.25 241.38 222.53 243.95 219.72 245.45 C 216.51 247.16 213.1 247.7 209.55 247.04 C 208.42 246.83 208.64 245.62 208.62 244.74 C 208.59 242.67 208.61 240.59 208.61 238.52 C 208.59 238.5 208.56 238.5 208.54 238.5 Z " fill="rgb(24,32,46)"/><path d=" M 148.43 239.37 C 150.52 245.71 152.6 252.05 154.69 258.4 C 155.15 259.79 154.6 260.33 153.22 260.25 C 152.83 260.23 152.44 260.26 152.05 260.25 C 148.55 260.13 143.44 261.34 141.99 259.55 C 140.27 257.43 143.42 253.24 144.41 249.93 C 145.48 246.37 146.83 242.89 148.03 239.37 C 148.24 239.37 148.23 239.37 148.43 239.37 Z " fill="rgb(24,32,46)"/><path d=" M 330.99 274.31 C 329.47 274.61 328.96 273.22 328.6 271.78 C 325.5 259.43 322.5 247.05 319.29 234.74 C 318.66 232.32 319.77 231.76 321.6 231.31 C 331.69 228.8 341.78 226.31 351.85 223.71 C 353.82 223.2 354.5 224.17 354.89 225.71 C 358.06 238.32 361.17 250.93 364.38 263.53 C 364.79 265.16 364.45 265.99 362.83 266.4 C 352.62 268.96 342.42 271.55 332.21 274.12 C 331.98 274.17 331.72 274.19 330.99 274.31 Z " fill="rgb(24,32,46)"/></g></svg>