<?xml version="1.0" encoding="UTF-8" standalone="no"?><!-- Generator: Gravit.io --><svg xmlns="http://www.w3.org/2000/svg" xmlns:xlink="http://www.w3.org/1999/xlink" style="isolation:isolate" viewBox="0 0 150 150" width="150pt" height="150pt"><defs><clipPath id="_clipPath_sqm4NDRWU4Ny2cN6LnLLO4faYRwZR40z"><rect width="150" height="150"/></clipPath></defs><g clip-path="url(#_clipPath_sqm4NDRWU4Ny2cN6LnLLO4faYRwZR40z)"><path d=" M 30.528 126.484 C 28.584 126.484 27.164 127.465 27.164 129.341 C 27.164 131.099 28.398 132.324 30.251 132.324 C 31.487 132.324 32.722 131.637 33.493 130.656 L 33.493 128.153 C 33.493 127.318 32.412 126.484 30.528 126.484 M 72.558 126.138 C 72.65 129.432 74.751 131.815 78.364 131.815 C 80.557 131.815 82.226 130.626 82.811 129.88 C 83.089 130.089 83.368 130.402 83.368 131.129 C 83.368 132.768 81.391 135.035 76.789 135.035 C 72.158 135.035 68.388 131.342 68.388 126.515 C 68.388 121.2 71.879 117.401 77.037 117.401 C 81.727 117.401 83.892 120.855 83.892 123.797 C 83.892 124.665 83.706 125.468 83.334 126.138 L 72.558 126.138 L 72.558 126.138 Z  M 79.107 124.009 C 79.847 124.009 79.879 123.575 79.879 122.994 C 79.847 121.261 78.486 119.656 76.419 119.656 C 73.733 119.656 72.682 121.908 72.59 124.009 L 79.107 124.009 L 79.107 124.009 Z  M 122.678 125.826 C 122.678 129.852 123.236 131.903 125.832 131.903 C 128.668 131.903 129.444 129.371 129.444 127.07 L 129.444 122.679 C 129.444 121.17 128.729 120.585 127.095 120.761 C 126.416 119.066 128.668 117.987 129.939 117.739 C 130.336 117.678 130.709 117.616 131.052 117.616 C 132.84 117.616 133.527 118.732 133.527 120.399 C 133.527 121.012 133.467 122.129 133.467 126.749 C 133.467 128.703 133.435 129.734 133.435 130.057 C 133.435 131.579 134.139 132.353 135.772 132.176 C 136.441 133.875 134.204 134.68 132.927 134.916 C 132.536 134.975 132.179 135.035 131.885 135.035 C 130.188 135.035 129.843 133.933 129.501 132.355 C 129.261 132.651 129.04 132.893 128.58 133.337 C 127.467 134.379 126.017 135.006 124.378 135.006 C 122.586 135.006 121.073 134.318 120.115 133.189 C 118.633 131.432 118.633 129.166 118.633 125.858 L 118.633 122.68 C 118.633 121.172 117.922 120.586 116.287 120.763 C 115.607 119.067 117.863 117.988 119.128 117.74 C 119.529 117.679 119.898 117.618 120.239 117.618 C 122.029 117.618 122.709 118.733 122.709 120.4 L 122.678 125.826 L 122.678 125.826 Z  M 114.867 126.172 C 114.867 120.949 111.254 117.4 106.25 117.4 C 101.619 117.4 97.51 120.949 97.51 126.172 C 97.51 131.46 101.37 135.004 106.096 135.004 C 111.097 135.004 114.867 131.401 114.867 126.172 Z  M 37.354 130.773 C 37.354 132.105 38.217 132.53 39.731 132.739 C 39.639 134.286 38.557 134.886 37.292 135.004 C 35.871 135.123 34.481 134.465 33.926 132.981 C 33.276 133.571 31.362 135.063 28.86 135.063 C 25.433 135.063 22.869 132.767 22.869 129.64 C 22.869 126.334 25.741 124.375 29.787 124.375 C 31.178 124.375 32.627 124.665 33.492 125.112 L 33.492 122.899 C 33.492 120.915 32.627 119.656 30.374 119.656 C 29.91 119.656 28.892 119.779 28.088 120.084 C 28.181 120.398 28.244 120.733 28.244 121.041 C 28.244 122.252 27.472 123.234 26.175 123.234 C 25.031 123.234 24.166 122.312 24.166 121.135 C 24.166 118.973 26.885 117.399 30.653 117.399 C 33.649 117.399 35.472 118.109 36.429 119.342 C 37.292 120.427 37.354 122.096 37.354 124.503 L 37.354 130.773 Z  M 110.451 126.426 C 110.451 130.438 108.72 132.619 106.282 132.619 C 104.12 132.619 102.02 130.439 102.02 125.68 C 102.02 121.972 103.564 119.657 106.096 119.657 C 108.597 119.657 110.451 122.223 110.451 126.426 M 49.582 120.335 C 49.675 121.388 50.571 122.126 51.62 122.126 C 52.948 122.126 53.751 120.948 53.751 119.808 C 53.751 118.201 52.454 117.368 51.156 117.368 C 49.675 117.368 48.1 118.482 47.205 120.146 L 47.143 120.177 C 46.865 118.698 46.154 117.582 44.672 117.582 C 44.332 117.582 43.961 117.646 43.561 117.768 C 42.325 118.138 40.503 119.093 41.183 120.791 C 42.913 120.458 43.53 121.04 43.53 122.548 L 43.53 129.73 C 43.53 131.157 43.345 131.754 42.85 132.172 C 42.386 132.527 41.893 132.674 41.584 132.735 C 40.874 134.283 42.264 134.765 45.692 134.765 C 49.12 134.765 50.294 134.284 49.583 132.735 C 49.274 132.673 48.41 132.526 47.947 132.172 C 47.452 131.754 47.237 131.157 47.237 129.73 L 47.237 125.398 C 47.236 121.536 48.656 120.52 49.582 120.335 M 92.076 117.83 L 96.492 117.83 C 97.018 119.094 96.308 120.114 95.319 120.208 C 95.01 120.241 94.67 120.241 94.362 120.241 C 93.558 120.241 92.756 120.177 92.2 120.177 L 92.2 129.732 C 92.2 131.158 92.447 131.755 92.941 132.173 C 93.405 132.528 94.487 132.675 94.796 132.737 C 95.506 134.284 93.836 134.766 90.409 134.766 C 86.982 134.766 85.562 134.285 86.271 132.737 C 86.579 132.674 87.075 132.527 87.537 132.173 C 88.031 131.755 88.216 131.158 88.216 129.732 L 88.216 120.112 L 85.622 120.021 C 85.097 118.759 85.807 117.861 86.857 117.861 L 88.156 117.861 L 88.156 116.625 C 88.156 114.124 88.618 112.733 89.236 111.806 C 90.192 110.324 91.83 109.306 94.391 109.306 C 97.635 109.306 100.259 110.819 100.259 113.103 C 100.259 114.092 99.58 115.296 98.159 115.296 C 97.111 115.296 96.122 114.4 96.122 113.29 C 96.122 112.824 96.308 112.331 96.553 112.024 C 96.184 111.591 95.412 111.374 94.67 111.374 C 92.538 111.374 92.076 112.949 92.076 114.925 L 92.076 117.83 L 92.076 117.83 Z  M 63.634 120.335 C 63.727 121.388 64.622 122.126 65.672 122.126 C 67.001 122.126 67.803 120.948 67.803 119.808 C 67.803 118.201 66.506 117.368 65.209 117.368 C 63.727 117.368 62.151 118.482 61.258 120.146 L 61.194 120.177 C 60.918 118.698 60.207 117.582 58.724 117.582 C 58.386 117.582 58.014 117.646 57.613 117.768 C 56.376 118.138 54.554 119.093 55.235 120.791 C 56.964 120.458 57.58 121.04 57.58 122.548 L 57.58 129.73 C 57.58 131.157 57.397 131.754 56.902 132.172 C 56.439 132.527 55.946 132.674 55.638 132.735 C 54.927 134.283 56.318 134.765 59.743 134.765 C 63.171 134.765 64.346 134.284 63.635 132.735 C 63.327 132.673 62.463 132.526 61.998 132.172 C 61.505 131.754 61.288 131.157 61.288 129.73 L 61.288 125.398 C 61.287 121.536 62.707 120.52 63.634 120.335 M 145.826 120.335 C 145.93 121.388 146.833 122.126 147.887 122.126 C 149.197 122.126 150 120.948 150 119.808 C 150 118.201 148.722 117.368 147.407 117.368 C 145.93 117.368 144.372 118.482 143.48 120.146 L 143.389 120.177 C 143.119 118.698 142.402 117.582 140.946 117.582 C 140.584 117.582 140.233 117.646 139.809 117.768 C 138.591 118.138 136.775 119.093 137.437 120.791 C 139.172 120.458 139.78 121.04 139.78 122.548 L 139.78 129.73 C 139.78 131.156 139.602 131.754 139.092 132.172 C 138.649 132.527 138.14 132.674 137.845 132.735 C 137.128 134.283 138.53 134.765 141.956 134.765 C 145.383 134.765 146.542 134.284 145.825 132.735 C 145.531 132.673 144.667 132.526 144.186 132.172 C 143.716 131.754 143.508 131.156 143.508 129.73 L 143.508 125.398 C 143.509 121.536 144.905 120.52 145.826 120.335" fill="rgb(0,78,159)"/><path d=" M 0 122.756 C 0 130.55 5.372 135.166 11.209 135.166 C 16.459 135.166 20.133 131.474 20.133 128.401 C 20.133 126.764 19.115 125.575 17.787 125.575 C 16.427 125.575 15.286 126.496 15.286 128.08 C 15.286 129.091 15.841 129.656 16.243 130.102 C 15.532 131.475 14.019 132.605 11.671 132.605 C 7.781 132.605 4.971 128.552 4.971 122.725 C 4.971 116.89 7.656 112.813 11.549 112.813 C 13.896 112.813 15.408 113.955 16.119 115.316 C 15.717 115.778 15.162 116.334 15.162 117.353 C 15.162 118.929 16.305 119.854 17.664 119.854 C 18.993 119.854 20.01 118.653 20.01 117.013 C 20.01 113.954 16.336 110.25 11.085 110.25 C 5.247 110.249 0 115.315 0 122.756 Z " fill="rgb(0,78,159)"/><path d=" M 50.582 17.518 L 17.815 49.218 C 16.178 50.607 15.133 52.239 15.133 54.574 C 15.133 56.898 16.179 58.536 17.815 59.936 L 50.582 91.625 C 50.792 91.84 50.995 91.926 51.168 91.926 C 51.479 91.926 51.693 91.644 51.683 91.312 C 51.674 91.117 51.589 90.893 51.395 90.699 C 43.704 81.143 38.108 70.183 38.108 54.689 C 38.108 39.186 43.704 28.011 51.395 18.448 C 51.589 18.257 51.674 18.036 51.683 17.836 C 51.694 17.497 51.479 17.223 51.168 17.223 C 50.995 17.22 50.792 17.305 50.582 17.518 Z " fill="rgb(227,0,13)"/><path d=" M 75.772 14.834 C 62.942 14.834 57.929 33.016 57.929 54.687 C 57.929 76.365 62.942 94.304 75.772 94.304 C 83.472 94.304 90.034 89.796 90.055 86.09 C 90.059 85.279 89.746 84.502 89.066 83.823 C 85.416 80.298 83.989 76.774 83.979 73.664 C 83.955 67.729 89.104 63.307 93.852 63.307 C 100.378 63.307 104.227 68.436 104.227 75.079 C 104.227 81.373 101.545 86.616 98.627 90.814 C 98.512 90.985 98.46 91.177 98.46 91.345 C 98.463 91.674 98.657 91.945 98.947 91.945 C 99.123 91.945 99.33 91.851 99.556 91.624 L 132.331 59.935 C 133.968 58.536 135.013 56.897 135.013 54.573 C 135.013 52.239 133.966 50.606 132.331 49.217 L 99.556 17.517 C 99.331 17.293 99.125 17.198 98.947 17.198 C 98.654 17.198 98.463 17.47 98.46 17.801 C 98.46 17.97 98.512 18.159 98.627 18.333 C 101.544 22.526 104.227 27.774 104.227 34.064 C 104.227 40.701 100.378 45.835 93.852 45.835 C 89.104 45.835 83.955 41.417 83.979 35.48 C 83.989 32.371 85.416 28.844 89.066 25.321 C 89.746 24.639 90.059 23.869 90.055 23.057 C 90.034 19.345 83.472 14.834 75.772 14.834 Z " fill="rgb(0,78,159)"/></g></svg>