<?xml version="1.0" encoding="utf-8"?>
<!-- Generator: Adobe Illustrator 25.3.1, SVG Export Plug-In . SVG Version: 6.00 Build 0)  -->
<svg version="1.1" id="Layer_1" xmlns="http://www.w3.org/2000/svg" xmlns:xlink="http://www.w3.org/1999/xlink" x="0px" y="0px"
	 viewBox="0 0 500 317.531" enable-background="new 0 0 500 317.531"  width="500" height="317.531" xml:space="preserve">
<g>
	<polygon fill="#2AA3E1" points="0,0 500,0 500,317.531 0,317.531 0,0 	"/>
	<g>
		<path fill="#FFFFFF" d="M177.398,112.072c-3.24,1.837-7.394,2.339-10.821,0.709c-3.519-1.546-5.949-5.032-6.58-8.776
			c-0.679-4.008-0.16-8.31,1.829-11.892c1.377-2.506,3.892-4.367,6.735-4.777c3.076-0.442,6.418-0.107,9.109,1.546
			c1.835,1.126,2.857,3.094,4.136,4.752c0.321-1.947,0.401-3.92,0.422-5.892c-3.657-1.22-7.408-2.421-11.311-2.394
			c-4.159-0.132-8.334,1.637-11.12,4.733c-3.251,3.621-4.756,8.701-4.131,13.514c0.435,3.488,2.344,6.781,5.185,8.855
			c2.975,2.239,6.776,3.14,10.45,3.16c4.111-0.016,8.087-1.774,11.042-4.599c0.005-1.163,0-2.325-0.05-3.488
			C180.811,109.188,179.375,110.973,177.398,112.072z"/>
		<path fill="#FFFFFF" d="M457.468,103.51c-1.163-2.291-3.456-3.682-5.732-4.677c-2.134-1.049-4.487-1.769-6.306-3.347
			c-1.765-1.514-2.271-4.375-0.853-6.284c1.957-2.704,6.115-2.8,8.76-1.094c1.774,1.167,2.189,3.374,2.567,5.31
			c0.443-0.012,0.89-0.028,1.345-0.041c-0.018-2.317-0.005-4.64-0.046-6.959c-2.722-0.479-5.435-1.195-8.222-1.055
			c-2.362,0.048-4.701,1.012-6.371,2.684c-2.403,2.38-3.014,6.56-0.944,9.332c3.032,3.872,8.528,4.202,12.025,7.481
			c1.883,1.858,2.038,5.235,0.16,7.152c-2.741,2.905-7.99,2.725-10.484-0.426c-1.241-1.22-0.962-3.561-2.827-4.157
			c-0.032,2.396-0.018,4.798,0.183,7.189c4.186,0.971,8.805,1.676,12.868-0.148C457.605,112.733,459.42,107.371,457.468,103.51z"/>
		<path fill="#FFFFFF" d="M424.644,86.973c0.839,1.136,1.792,2.358,1.61,3.872c0.128,1.854-1.596,3.024-1.992,4.717
			c0.524,0,1.099-0.079,1.468-0.51c1.473-1.339,2.891-2.987,3.119-5.048c0.274-1.653-0.402-3.254-1.103-4.713
			C426.696,85.833,425.674,86.408,424.644,86.973z"/>
		<path fill="#FFFFFF" d="M32.833,85.917c-0.009,2.494,0,4.991-0.005,7.49c0.362-0.009,1.083-0.025,1.446-0.032
			c0.203-1.897,0.442-4.355,2.462-5.208c2.335-0.789,4.861-0.449,7.278-0.586c-0.007,7.467,0.005,14.927-0.002,22.39
			c-0.064,1.135,0.002,2.419-0.725,3.37c-0.889,0.383-1.874,0.376-2.818,0.483c-0.005,0.39-0.011,0.784-0.016,1.183
			c3.577-0.121,7.155-0.1,10.73-0.016c-0.009-0.39-0.012-0.782-0.021-1.172c-1.031-0.127-2.059-0.294-3.083-0.486
			c-0.602-2.675-0.431-5.418-0.452-8.135c0.012-5.826-0.023-11.653,0.021-17.481c2.389,0.109,4.893-0.381,7.196,0.429
			c2.123,0.8,2.287,3.374,2.652,5.276c0.447-0.014,0.894-0.029,1.341-0.036c0.002-2.499,0.007-4.995-0.014-7.49
			C50.159,85.972,41.497,85.945,32.833,85.917z"/>
		<path fill="#FFFFFF" d="M97.338,87.012c-0.004-0.274-0.011-0.826-0.011-1.103c-3.554,0.041-7.109,0.036-10.662,0.004
			c0.005,0.288,0.007,0.864,0.011,1.151c0.944,0.112,1.893,0.244,2.836,0.374c1.307,3.701,0.452,7.697,0.686,11.535
			c-5.57,0.018-11.136,0.005-16.706,0c0.235-3.817-0.534-7.754,0.59-11.467c1.138-0.346,2.939,0.053,3.174-1.55
			c-3.725-0.021-7.449-0.064-11.17,0.012c0.294,1.523,2.032,1.119,3.017,1.844c0.68,0.834,0.625,1.993,0.696,3.01
			c0,6.382-0.007,12.764,0.004,19.15c-0.075,1.147,0.016,2.606-1.028,3.368c-0.768,0.294-1.596,0.374-2.401,0.513
			c-0.005,0.39-0.009,0.782-0.014,1.177c3.53-0.153,7.064-0.148,10.591,0c0.018-0.304,0.05-0.912,0.071-1.22
			c-0.919-0.128-1.947,0.011-2.777-0.463c-0.668-0.823-0.705-1.961-0.741-2.971c-0.027-3.165,0.025-6.332-0.016-9.499
			c5.575,0.016,11.152-0.032,16.726,0.028c-0.187,4.125,0.402,8.311-0.472,12.379c-1.197,0.403-3.003,0.048-3.377,1.637
			c3.648,0.084,7.303-0.071,10.951,0.084c0.005-0.29,0.012-0.864,0.016-1.152c-0.871-0.148-1.813-0.135-2.593-0.606
			c-1.06-1.053-0.773-2.72-0.851-4.075c0.112-6.649-0.157-13.316,0.133-19.953C94.003,87.415,95.984,87.196,97.338,87.012z"/>
		<path fill="#FFFFFF" d="M124.916,111.73c-1.82,1.51-4.334,1.58-6.589,1.649c-1.43-0.043-2.925,0.155-4.298-0.322
			c-0.91-0.331-1.135-1.406-1.14-2.264c-0.057-3.391,0-6.786-0.009-10.178c2.403,0.082,4.87-0.235,7.223,0.369
			c1.086,0.283,1.2,1.571,1.53,2.446c0.399,0.005,0.798,0.005,1.194,0.007c-0.385-2.554,0.021-5.142-0.194-7.688
			c-0.203-0.021-0.608-0.055-0.814-0.075c-0.486,0.969-0.46,2.446-1.669,2.862c-2.342,0.759-4.852,0.349-7.271,0.438
			c-0.007-3.826-0.019-7.645,0-11.467c3.283,0.18,6.913-0.513,9.865,1.286c1.738,0.996,0.992,3.714,2.923,4.46
			c0.041-2.462-0.114-4.918-0.285-7.371c-6.546,0.096-13.097,0.068-19.647,0.028c0.014,0.278,0.029,0.841,0.041,1.119
			c0.843,0.224,1.833,0.18,2.574,0.698c0.962,1.056,0.716,2.613,0.78,3.924c-0.086,6.653,0.112,13.32-0.096,19.969
			c0.075,1.817-1.888,2.107-3.279,2.234c-0.005,0.388-0.007,0.773-0.007,1.163c7.123-0.183,14.251-0.076,21.378-0.032
			c0.103-2.645,0.762-5.253,0.581-7.912C125.955,108.073,126.425,110.531,124.916,111.73z"/>
		<path fill="#FFFFFF" d="M219.475,87.603c0.757-0.324,1.589-0.404,2.389-0.575c-0.011-0.283-0.032-0.844-0.043-1.124
			c-3.604,0.093-7.214-0.032-10.825,0.057c0.298,1.55,2.002,1.231,3.149,1.546c1.222,3.689,0.417,7.645,0.668,11.455
			c-5.577,0.039-11.159,0.011-16.736,0.016c0.219-3.817-0.511-7.745,0.561-11.475c0.955-0.16,1.92-0.315,2.884-0.459
			c-0.005-0.278-0.007-0.839-0.012-1.124c-3.525,0.021-7.048,0.009-10.57,0.009c0.02,0.276,0.061,0.825,0.084,1.099
			c0.78,0.164,1.589,0.251,2.339,0.547c0.951,0.577,0.928,1.847,0.967,2.827c0.016,6.523-0.016,13.039,0.021,19.563
			c-0.039,0.912,0.032,1.895-0.399,2.736c-0.538,1.083-1.957,0.88-2.948,1.16c-0.021,0.381-0.034,0.759-0.052,1.147
			c3.507-0.123,7.013-0.112,10.52,0.007c0.018-0.402,0.043-0.8,0.066-1.2c-0.869-0.112-1.785-0.07-2.597-0.433
			c-0.793-0.777-0.805-1.979-0.857-3.012c-0.018-3.167,0.021-6.331-0.007-9.498c5.577,0.016,11.154-0.019,16.733,0.025
			c-0.03,3.019,0.002,6.042-0.014,9.063c-0.082,1.108-0.011,2.362-0.732,3.29c-0.784,0.591-1.844,0.415-2.766,0.55
			c0.005,0.403,0.014,0.809,0.021,1.215c3.507-0.139,7.016-0.114,10.527-0.016c0-0.381,0-0.759,0.007-1.138
			c-0.841-0.169-1.71-0.244-2.494-0.597c-0.81-0.718-0.826-1.906-0.857-2.903c-0.002-6.505,0.005-13.015-0.002-19.522
			C218.514,89.721,218.499,88.36,219.475,87.603z"/>
		<path fill="#FFFFFF" d="M240.873,87.064c-0.011-0.287-0.041-0.864-0.057-1.156c-3.454,0.025-6.911,0.073-10.365-0.028
			c-0.046,0.374-0.085,0.748-0.123,1.124c1.434,0.155,3.37,0.502,3.334,2.362c0.139,6.861,0.005,13.728,0.063,20.593
			c-0.036,1.131,0.059,2.517-0.891,3.327c-0.777,0.367-1.651,0.415-2.474,0.57c0.002,0.385,0.012,0.773,0.019,1.163
			c3.495-0.132,6.984-0.135,10.479-0.004c-0.005-0.29-0.011-0.871-0.011-1.163c-0.898-0.159-1.886-0.143-2.664-0.677
			c-0.732-0.729-0.652-1.844-0.688-2.793c0.021-5.582,0.011-11.159,0.011-16.74c0.028-2.063-0.278-4.236,0.661-6.156
			C239.067,87.343,239.968,87.199,240.873,87.064z"/>
		<path fill="#FFFFFF" d="M268.76,112.207c-1.154,1.085-2.836,1.167-4.332,1.284c-2.143,0.132-4.428,0.278-6.439-0.604
			c-1.436-0.83-1.318-2.702-1.327-4.125c0.1-6.498-0.092-13.003,0.086-19.495c0.009-1.92,2.112-2.079,3.548-2.223
			c0-0.287-0.009-0.86-0.018-1.142c-3.557,0.059-7.114,0.059-10.673,0c-0.011,0.271-0.043,0.812-0.059,1.083
			c0.88,0.203,1.804,0.294,2.638,0.673c0.825,0.83,0.716,2.093,0.766,3.167c-0.032,6.512-0.009,13.026-0.014,19.536
			c-0.05,0.78,0.023,1.628-0.351,2.342c-0.586,1.088-1.988,0.926-3.019,1.147c-0.004,0.388-0.004,0.77,0,1.16
			c7.328-0.155,14.666-0.107,21.994,0.021c0.091-2.419,0.191-4.838,0.292-7.255c-0.46,0-0.921,0.002-1.373,0.007
			C270.124,109.306,270.001,111.089,268.76,112.207z"/>
		<path fill="#FFFFFF" d="M305.246,89.185c-2.645-2.264-6.179-3.345-9.627-3.288c-5.107,0.016-10.215,0.085-15.322,0.007
			c0.014,0.282,0.036,0.85,0.045,1.133c0.839,0.177,1.742,0.223,2.536,0.593c0.894,0.784,0.826,2.107,0.885,3.194
			c0,5.985-0.014,11.966,0.004,17.948c-0.027,1.243,0.092,2.538-0.342,3.731c-0.474,1.27-2.025,1.11-3.11,1.35
			c0.005,0.288,0.009,0.857,0.014,1.14c2.846-0.036,5.695-0.137,8.546-0.053c2.964,0.041,5.96,0.272,8.906-0.187
			c3.758-0.641,7.438-2.526,9.677-5.682c1.847-2.49,2.918-5.566,2.864-8.676C310.454,96.144,308.443,91.948,305.246,89.185z
			 M305.405,106.714c-1.181,3.16-4.136,5.434-7.392,6.12c-2.845,0.65-5.887,0.839-8.737,0.15c-1.331-0.315-1.879-1.788-1.815-3.028
			c-0.028-7.411,0.022-14.825-0.018-22.237c4.364-0.538,9.221-0.782,13.028,1.83C305.903,93.179,307.636,100.77,305.405,106.714z"/>
		<path fill="#FFFFFF" d="M339.985,110.574c-1.92-3.092-3.766-6.232-5.646-9.351c1.473-0.714,3.055-1.411,4.109-2.725
			c2.627-3.276,1.911-8.689-1.573-11.088c-1.779-1.302-4.045-1.61-6.197-1.519c-3.748,0.1-7.497-0.006-11.245,0.073
			c0.178,1.532,1.851,1.258,2.951,1.578c0.392,0.912,0.72,1.872,0.684,2.88c-0.023,6.642-0.032,13.283,0,19.923
			c-0.041,0.978,0.027,2.125-0.743,2.857c-0.757,0.522-1.751,0.467-2.618,0.645c0.005,0.388,0.009,0.773,0.023,1.165
			c3.539-0.137,7.082-0.11,10.621-0.009c-0.009-0.298-0.036-0.891-0.041-1.188c-0.994-0.114-1.974-0.262-2.946-0.444
			c-0.985-3.81-0.351-7.793-0.501-11.679c1.463,0.176,3.365-0.039,4.241,1.439c2.166,3.199,3.88,6.706,6.188,9.809
			c1.682,2.223,4.742,2.501,7.314,2.31c0.647,0,1.176-0.413,1.71-0.725c-1.145-0.315-2.344-0.402-3.452-0.821
			C341.49,113.139,340.774,111.742,339.985,110.574z M326.847,99.928c0.036-4.068-0.1-8.142,0.069-12.208
			c1.564-0.298,3.206-0.283,4.747,0.133c4.104,1.222,5.969,7.038,3.187,10.342C332.798,100.311,329.565,100.302,326.847,99.928z"/>
		<path fill="#FFFFFF" d="M371.381,112.312c-2.736,1.302-5.882,1.108-8.833,1.017c-1.085,0.032-2.22-0.664-2.253-1.831
			c-0.182-3.625-0.005-7.257-0.086-10.887c2.362,0.059,4.774-0.219,7.086,0.362c1.172,0.214,1.291,1.551,1.669,2.458
			c0.342,0.032,0.688,0.064,1.039,0.096c-0.036-2.617-0.041-5.235,0.014-7.848c-0.269,0.007-0.802,0.032-1.067,0.039
			c-0.283,0.981-0.233,2.399-1.395,2.802c-2.362,0.78-4.893,0.365-7.333,0.454c0-3.81,0.009-7.618,0-11.428
			c3.361,0.149,7.232-0.647,10.128,1.496c1.514,1.031,0.743,3.641,2.704,4.175c0-2.438-0.31-4.866-0.296-7.303
			c-5.673,0.007-11.341,0.08-17.009-0.009c-1.113,0.025-2.54-0.317-3.042,0.985c1.045,0.326,2.275,0.294,3.165,1.008
			c0.556,0.864,0.552,1.934,0.565,2.925c-0.022,5.315-0.013,10.63-0.013,15.94c-0.014,2.186,0.201,4.437-0.524,6.546
			c-0.958,0.198-1.924,0.381-2.887,0.529c0.019,0.388,0.041,0.777,0.073,1.167c7.095-0.123,14.191-0.143,21.282,0.028
			c0.287-2.618,0.693-5.226,0.734-7.864c-0.255,0.171-0.766,0.515-1.021,0.686C373.415,109.438,373.119,111.486,371.381,112.312z"/>
		<path fill="#FFFFFF" d="M406.143,85.897c-0.046,0.383-0.092,0.769-0.128,1.156c0.78,0.146,1.56,0.301,2.344,0.453
			c1.477,2.729,0.971,5.919,1.085,8.892c-0.064,4.323,0.283,8.637,0.219,12.96c-2.586-2.848-4.897-5.933-7.351-8.896
			c-3.972-4.832-7.885-9.713-11.847-14.554c-2.417,0.059-4.834-0.007-7.242,0.052c0.315,1.708,2.284,1.179,3.525,1.521
			c0.483,0.914,0.866,1.897,0.82,2.953c0.014,4.649-0.05,9.296-0.091,13.945c-0.105,2.996,0.155,6.079-0.844,8.963
			c-0.843,0.173-1.692,0.335-2.53,0.479c0.009,0.395,0.018,0.789,0.041,1.188c2.982-0.121,5.974-0.105,8.961-0.009
			c-0.018-0.378-0.028-0.757-0.032-1.135c-1.386-0.055-3.064-0.524-3.169-2.177c-0.629-6.977-0.365-14.009-0.451-21.013
			c6.735,8.199,13.457,16.407,20.115,24.666c0.46,0.028,0.921,0.055,1.395,0.091c0.292-7.134,0.397-14.278,0.693-21.41
			c0.092-1.877-0.141-3.865,0.625-5.63c0.388-1.136,1.756-1.088,2.704-1.443c-0.018-0.258-0.055-0.775-0.068-1.035
			C411.994,85.936,409.067,85.972,406.143,85.897z"/>
	</g>
	<g>
		<path fill="#FFFFFF" d="M284.803,229.867c-4.929-3.129-7.287-8.783-9.407-13.968c-11.583-27.662-23.216-55.305-34.746-82.988
			c-0.937-0.012-1.87-0.018-2.8-0.023c-10.825,28.562-21.699,57.109-32.564,85.655c-1.637,3.971-3.338,8.263-6.872,10.939
			c-2.565,1.911-5.9,1.988-8.963,1.879c-0.025,1.441-0.032,2.882-0.028,4.323c10.297-0.693,20.64-0.511,30.948-0.005
			c0.023-1.446,0.016-2.896-0.059-4.337c-1.965-0.023-3.988,0.251-5.894-0.338c-1.386-0.415-2.601-1.61-2.725-3.096
			c-0.29-2.978,0.698-5.869,1.546-8.678c2.702-8.04,5.379-16.088,8.104-24.118c10.73,0.032,21.462,0.018,32.192,0.005
			c3.685,9.17,7.488,18.295,11.09,27.497c0.739,2.248,1.838,5.304-0.237,7.178c-2.595,2.18-6.202,1.437-9.303,1.564
			c-0.018,1.436-0.014,2.873,0,4.314c12.686-0.579,25.395-0.565,38.077-0.005c-0.005-1.441-0.009-2.877-0.023-4.314
			C290.303,231.431,287.256,231.541,284.803,229.867z M223.155,189.756c4.223-12.622,8.666-25.176,12.77-37.842
			c5.203,12.602,10.374,25.215,15.454,37.865C241.972,189.774,232.562,189.811,223.155,189.756z"/>
		<path fill="#FFFFFF" d="M380.534,210.696c-1.974,0.935-3.01,2.937-4.437,4.478c-4.67,5.545-10.424,10.324-17.178,13.074
			c-6.01,2.462-12.568,3.511-19.043,3.283c-8.943-0.556-17.611-4.505-23.959-10.812c-5.003-4.82-8.468-11.095-10.383-17.743
			c-2.089-7.428-2.563-15.272-1.715-22.929c0.807-7.898,2.937-15.778,7.032-22.632c2.991-5.048,7.178-9.467,12.344-12.308
			c6.216-3.561,13.552-4.558,20.616-4.159c6.133,0.298,12.344,1.398,17.899,4.131c5.778,2.777,10.502,7.543,13.503,13.184
			c0.62,1.085,1.085,2.271,1.842,3.274c0.752,0.141,1.519,0.128,2.284,0.174c0.123-6.298,0.365-12.588,0.552-18.881
			c-4.099-0.953-8.021-2.519-12.08-3.614c-8.322-2.399-16.9-4.109-25.578-4.271c-7.666-0.157-15.423,1.254-22.404,4.473
			c-6.612,2.987-12.49,7.545-17.119,13.124c-9.157,10.874-13.73,25.316-13.211,39.465c0.369,8.687,3.014,17.333,7.98,24.506
			c6.922,10.133,18.145,16.759,30.001,19.381c12.86,2.786,26.845,2.18,38.738-3.822c5.344-2.617,10.05-6.33,14.364-10.393
			C380.538,218.015,380.625,214.353,380.534,210.696z"/>
		<path fill="#FFFFFF" d="M90.108,140.586c-5.224-2.909-11.3-3.96-17.224-3.801c-8.359-0.1-16.711,0.561-25.069,0.374
			c-4.939-0.032-9.873-0.369-14.811-0.374c0.011,1.382,0.016,2.761,0.027,4.143c3.035,0.196,6.557-0.287,9.025,1.892
			c2.305,2.187,2.517,5.607,2.656,8.589c0,23.229,0.005,46.458-0.005,69.688c-0.13,2.905-0.349,6.188-2.49,8.391
			c-2.478,2.267-6.063,1.874-9.159,1.865c-0.048,1.446-0.055,2.891-0.043,4.341c2.351-0.105,4.706-0.119,7.055-0.237
			c9.642-0.465,19.285-0.018,28.92,0.21c0.005-1.441,0-2.877,0.009-4.314c-3.21-0.255-7.251,0.948-9.69-1.801
			c-2.086-2.85-2.016-6.621-2.218-9.996c-0.069-10.233-0.043-20.47-0.012-30.708c9.602,0.83,19.607,1.605,28.852-1.715
			c5.816-2.07,11.113-6.047,13.949-11.619c3.023-5.759,3.616-12.627,2.155-18.915C100.506,149.926,96.182,143.833,90.108,140.586z
			 M86.526,176.541c-2.303,3.876-6.402,6.489-10.81,7.26c-6.314,1.154-12.869-0.137-18.638-2.818
			c-0.059-13.128,0-26.262-0.032-39.393c7.23-0.864,15.076-1.238,21.674,2.382c5.23,2.718,8.628,8.119,9.832,13.781
			C89.912,163.978,89.912,170.936,86.526,176.541z"/>
		<path fill="#FFFFFF" d="M173.953,222.89c-1.427,2.882-4.077,5.048-7.116,6.056c-4.179,1.468-8.666,1.632-13.053,1.842
			c-5.438,0.041-10.974,0.301-16.302-1.017c-2.335-0.588-4.67-1.806-5.907-3.949c-1.263-2.262-1.519-4.916-1.567-7.461
			c0.009-22.459-0.007-44.926,0.012-67.389c0.112-3.051,0.554-6.628,3.201-8.582c2.688-1.804,6.115-1.277,9.179-1.453
			c-0.009-1.384-0.009-2.766-0.004-4.145c-5.506-0.016-11.004,0.319-16.51,0.383c-6.61,0.127-13.213-0.347-19.82-0.386
			c-0.009,1.386,0,2.777,0.016,4.166c3.071,0.16,6.713-0.294,9.115,2.052c2.143,2.205,2.362,5.502,2.502,8.411
			c0.007,21.902-0.005,43.814,0.005,65.716c0.002,3.074,0.123,6.211-0.73,9.202c-0.527,1.792-1.701,3.479-3.461,4.227
			c-2.307,1.122-4.941,0.739-7.412,0.784c-0.034,1.45-0.039,2.905-0.039,4.355c7.809-0.183,15.618-0.402,23.43-0.392
			c17.055-0.247,34.103,0.264,51.16,0.355c0.219-8.212,0.577-16.421,0.796-24.629c-1.457-0.014-2.916-0.022-4.373-0.022
			C176.39,215.046,175.773,219.183,173.953,222.89z"/>
		<path fill="#FFFFFF" d="M462.757,210.45c-0.552,3.328-1.204,6.699-2.704,9.745c-1.4,2.941-3.808,5.394-6.735,6.822
			c-3.42,1.715-7.25,2.376-11.013,2.795c-5.449,0.634-10.94,0.338-16.407,0.42c-2.941-0.041-6.324-0.356-8.423-2.663
			c-1.86-2.221-1.906-5.299-2.002-8.044c0.023-10.958-0.059-21.916,0.041-32.869c5.987,0.027,11.979-0.123,17.962,0.141
			c3.169,0.274,6.648,0.351,9.316,2.317c2.098,1.852,2.162,4.879,2.481,7.461c1.304-0.014,2.617-0.023,3.935-0.028
			c-0.036-4.163-0.333-8.322-0.274-12.486c-0.064-4.62,0.205-9.23,0.292-13.845c-1.322,0.009-2.64,0.019-3.958,0.032
			c-0.183,2.886-0.059,6.357-2.44,8.441c-2.444,1.81-5.613,2.125-8.55,2.399c-6.006,0.351-12.021,0.305-18.026,0.255
			c-0.944,0.177-0.688-1.099-0.789-1.651c0.023-12.527-0.009-25.058,0.018-37.587c7.994,0.114,16.038-0.447,23.973,0.764
			c4.51,0.698,9.284,2.136,12.335,5.746c2.754,3.294,3.265,7.741,3.858,11.838c1.318,0,2.636-0.004,3.954-0.032
			c-0.648-7.866-0.971-15.751-1.227-23.631c-8.568-0.02-17.137,0.413-25.71,0.353c-13.708,0.212-27.416-0.214-41.119-0.335
			c0.018,1.352-0.064,2.713,0.119,4.061c3.064,0.308,6.703-0.23,9.102,2.155c2.458,2.675,2.389,6.555,2.358,9.957
			c-0.005,22.849,0.005,45.7-0.009,68.55c-0.004,2.754-0.424,5.805-2.357,7.916c-2.445,2.308-6.029,1.915-9.107,1.906
			c-0.092,1.441-0.11,2.877-0.114,4.318c24.119-0.657,48.255-0.438,72.374,0.018c1.049-8.395,1.819-16.817,2.795-25.218
			C465.389,210.473,464.071,210.473,462.757,210.45z"/>
	</g>
</g>
</svg>
