<?xml version="1.0" encoding="utf-8"?>
<!-- Generator: Adobe Illustrator 24.0.1, SVG Export Plug-In . SVG Version: 6.00 Build 0)  -->
<svg version="1.1" id="Layer_1" xmlns="http://www.w3.org/2000/svg" xmlns:xlink="http://www.w3.org/1999/xlink" x="0px" y="0px"
	 viewBox="0 0 550 550" style="enable-background:new 0 0 550 550;" width="550" height="550" xml:space="preserve">
<style type="text/css">
	.st0{fill:#FEFEFE;}
	.st1{fill:#E84F0E;}
	.st2{fill:#E84F0F;}
	.st3{fill:#E85111;}
	.st4{fill:#161617;}
	.st5{font-family:'FranklinGothic-Book';}
	.st6{font-size:43.0835px;}
	.st7{letter-spacing:2.34;}
</style>
<g>
	<path class="st0" d="M275.24,107.08c90.1,0,180.21,0.02,270.31-0.08c3.37,0,4.45,0.4,4.45,4.24
		c-0.14,108.92-0.14,217.83-0.01,326.75c0,3.56-0.9,4.01-4.17,4.01c-180.54-0.09-361.08-0.09-541.62,0C0.96,442,0,441.6,0.01,438
		C0.14,329.09,0.14,220.17,0,111.26c0-3.8,1.02-4.26,4.43-4.26C94.7,107.1,184.97,107.08,275.24,107.08z"/>
	<path class="st1" d="M246.57,220.64c0-9.59,0-18.2,0-26.81c0-9.83-0.09-19.66,0.03-29.48c0.09-8.08,5.41-13.51,12.91-13.51
		c7.51,0,12.79,5.43,12.91,13.52c0.11,7.49,0.08,14.99,0,22.49c-0.02,2.28,0.25,3.21,3.04,2.61c4.52-0.98,8.64,0.49,11.68,4.04
		c1.38,1.6,2.48,2.14,4.6,1.39c5.94-2.1,10.84-0.11,14.48,4.74c1.36,1.81,2.34,2.62,4.8,2.14c8.71-1.68,15.36,3.77,15.89,12.67
		c0.04,0.66,0.02,1.33,0.03,2c0.11,11.64,0.11,11.64,11.98,11.64c2,0,4,0.07,6-0.04c6.57-0.36,10.83-4.51,11.07-11.12
		c0.22-5.99,0.13-11.99,0.1-17.99c-0.02-3.62,1.17-6.53,5.18-6.48c4.04,0.05,5.04,3.05,4.98,6.65c-0.11,6.16,0.12,12.33-0.18,18.48
		c-0.55,11.05-7.22,18.42-18.14,19.71c-5.59,0.66-11.3,0.5-16.95,0.44c-2.77-0.03-4.33,0.31-4.08,3.71
		c1.23,16.28-4.57,31.06-10.17,45.84c-2.13,5.61-6.38,9.16-12.42,9.34c-9.98,0.3-19.98,0.2-29.97-0.01
		c-6.32-0.13-10.75-3.75-14.45-8.62c-11.78-15.51-23.73-30.88-35.43-46.44c-2.14-2.84-4.35-4.12-7.89-3.82
		c-3.64,0.3-7.33,0.13-10.99,0.05c-14.75-0.32-22.71-8.36-22.76-23.15c-0.07-20.99-0.02-41.98-0.02-62.96c0-4.5-0.1-9,0.07-13.49
		c0.51-13,8.63-20.96,21.68-21.04c19.66-0.12,39.31-0.03,58.97-0.03c26.32,0,52.64-0.01,78.96,0c15.62,0.01,23.47,7.64,23.73,23.12
		c0.09,5.49,0.02,10.99-0.02,16.49c-0.02,3.29-1.42,5.55-4.98,5.53c-3.52-0.02-5.02-2.29-5.07-5.54
		c-0.09-5.83,0.05-11.66-0.06-17.49c-0.15-7.96-3.85-11.84-11.8-12.58c-1.16-0.11-2.33-0.09-3.49-0.09
		c-44.14,0-88.29-0.01-132.43,0.01c-1.66,0-3.33,0.08-4.97,0.31c-6.7,0.93-10.32,4.52-10.36,11.23
		c-0.13,26.32-0.12,52.63,0.03,78.95c0.04,6.38,4.33,10.47,10.67,10.98c1.66,0.13,3.35-0.12,4.99,0.09
		c4.71,0.61,7.07-0.16,7.36-6.09c0.43-9.04,10.76-13.83,19.28-9.88C239.34,213.99,242.11,217.42,246.57,220.64z"/>
	<path class="st1" d="M41.25,339.94c5.99,0,11.99,0.06,17.98-0.01c9.21-0.11,13.65,6.87,11.8,16.6c-0.42,2.23-2.31,3.34-4.48,3.18
		c-2.4-0.18-4.44-1.8-4.18-4.15c0.75-6.91-3.36-6.82-8.3-6.71c-9.82,0.23-19.64,0.25-29.46,0.01c-4.04-0.1-5.32,1.55-5.27,5.27
		c0.1,7.49,0.12,14.98-0.01,22.47c-0.06,3.65,1.42,5,5.07,4.95c10.82-0.15,21.64-0.15,32.46,0c3.72,0.05,5.65-0.95,5.33-5.07
		c-0.24-3.15,0.97-5.76,4.68-5.68c3.74,0.08,4.4,2.8,4.48,5.92c0.24,9.24-3.81,13.59-13.05,13.64c-11.82,0.07-23.64,0.07-35.46,0
		c-8.62-0.06-12.69-4.29-12.73-13.02c-0.03-7.99-0.04-15.98,0-23.97c0.04-8.84,4.69-13.39,13.65-13.43
		C29.59,339.92,35.42,339.94,41.25,339.94z"/>
	<path class="st1" d="M132,353.91c-12.91,10.97-24.82,21.1-36.74,31.22c-1.27,1.08-2.62,2.06-3.84,3.19
		c-1.85,1.72-3.9,2.64-6.35,1.57c-2.36-1.03-2.7-3.28-2.71-5.47c-0.05-12.83-0.05-25.65-0.02-38.48c0.01-3.15,1.12-5.83,4.69-5.87
		c3.87-0.04,4.92,2.77,4.92,6.14c0,9.63,0,19.26,0,29.92c9.52-8.05,18.34-15.51,27.16-22.97c4.32-3.66,8.67-7.28,12.95-10.99
		c1.85-1.6,3.78-2.91,6.29-1.86c2.55,1.06,2.96,3.36,2.96,5.82c-0.01,12.66-0.01,25.32,0,37.98c0,3.32-0.8,6.24-4.8,6.15
		c-4.01-0.09-4.55-3.05-4.53-6.37C132.04,374.27,132,364.66,132,353.91z"/>
	<path class="st1" d="M392.69,354.01c-13.35,11.34-25.86,21.96-38.38,32.59c-0.76,0.64-1.54,1.27-2.27,1.94
		c-1.73,1.57-3.67,2.35-5.93,1.41c-2.34-0.97-2.89-3.02-2.89-5.31c0-12.81-0.01-25.63,0.01-38.44c0-3.33,1.05-6.22,4.93-6.12
		c3.89,0.1,4.66,3.16,4.67,6.4c0.03,7.99,0.01,15.98,0.01,23.96c0,1.49,0,2.98,0,4.88c2.6-0.75,4.06-2.6,5.73-4.01
		c11.33-9.53,22.61-19.11,33.88-28.71c2.08-1.77,4.03-3.57,7.06-2.07c2.83,1.4,2.61,3.96,2.61,6.46c0,12.15-0.04,24.3,0.02,36.45
		c0.02,3.43-0.3,6.71-4.61,6.81c-4.32,0.1-4.85-3.14-4.84-6.59C392.72,374.16,392.69,364.68,392.69,354.01z"/>
	<path class="st1" d="M261.56,353.95c-11.24,9.54-21.5,18.24-31.75,26.94c-2.92,2.48-5.86,4.92-8.73,7.46
		c-1.89,1.67-3.92,2.61-6.36,1.52c-2.32-1.03-2.71-3.11-2.71-5.42c0.03-12.82,0.03-25.64,0-38.47c-0.01-3.2,0.93-5.86,4.51-5.94
		c3.95-0.09,4.79,2.75,4.77,6.14c-0.05,9.62-0.02,19.24-0.02,30.13c3.99-3.34,7.24-6.03,10.46-8.76c9.77-8.29,19.54-16.59,29.3-24.9
		c2.06-1.75,4.12-3.68,7.09-2.26c2.93,1.4,2.85,4.18,2.84,6.9c-0.02,12.16-0.05,24.31,0.01,36.47c0.02,3.58-0.78,6.57-4.99,6.48
		c-4.05-0.09-4.45-3.2-4.44-6.44C261.58,374.35,261.56,364.89,261.56,353.95z"/>
	<path class="st1" d="M414.69,364.88c0-6.16,0.04-12.33-0.02-18.49c-0.03-3.32,0.64-6.3,4.59-6.33c3.83-0.03,4.91,2.68,4.81,6.14
		c-0.1,3.33,0.2,6.68-0.08,9.99c-0.3,3.55,0.55,4.97,4.54,4.85c10.15-0.31,20.33-0.32,30.48,0c4,0.13,4.78-1.31,4.55-4.84
		c-0.25-3.81-0.04-7.65,0.1-11.48c0.1-2.94,1.72-4.77,4.69-4.7c2.95,0.07,4.54,2.02,4.55,4.91c0.06,13.49,0.04,26.98,0,40.47
		c-0.01,2.93-1.56,4.82-4.55,4.86c-2.97,0.04-4.64-1.78-4.75-4.7c-0.15-3.99-0.32-8.01-0.04-11.98c0.23-3.37-1.29-3.77-4.12-3.73
		c-10.49,0.14-20.99,0.15-31.48-0.01c-2.97-0.05-4.22,0.63-3.97,3.84c0.28,3.64,0.01,7.32,0.08,10.99c0.07,3.38-1.3,5.59-4.84,5.56
		c-3.33-0.03-4.54-2.27-4.53-5.37C414.7,378.2,414.69,371.54,414.69,364.88z"/>
	<path class="st1" d="M307.04,353.24c-4.66,7.74-8.99,14.94-13.32,22.14c-2.39,3.99-4.79,7.97-7.16,11.97
		c-1.59,2.69-4,3.83-6.71,2.42c-2.96-1.53-2.77-4.23-1.2-6.85c8.03-13.38,15.98-26.81,24.14-40.11c2.51-4.1,6.13-4.14,8.65-0.06
		c8.21,13.27,16.22,26.67,24.25,40.05c1.56,2.59,1.59,5.36-1.28,6.91c-2.68,1.45-5.13,0.47-6.76-2.26
		c-5.53-9.27-11.08-18.53-16.63-27.78C309.86,357.74,308.64,355.82,307.04,353.24z"/>
	<path class="st2" d="M176.5,339.94c7.5,0,14.99,0.04,22.49-0.02c3.22-0.03,5.84,0.93,5.95,4.5c0.12,3.76-2.7,4.51-5.83,4.51
		c-4.33-0.01-8.68,0.27-12.99-0.07c-3.69-0.29-4.36,1.15-4.29,4.5c0.21,9.99,0.06,19.99,0.09,29.98c0.01,2.22-0.11,4.4-1.92,5.96
		c-1.36,1.17-3.02,1.35-4.7,0.7c-2.59-1.01-3.15-3.19-3.14-5.68c0-9.99-0.21-20,0.1-29.98c0.13-4.24-0.73-5.99-5.36-5.5
		c-4.45,0.47-8.98,0.1-13.48,0.08c-2.86-0.01-5.08-1.26-5.12-4.25c-0.05-3.16,2.04-4.72,5.21-4.72
		C161.18,339.94,168.84,339.94,176.5,339.94z"/>
	<path class="st1" d="M510.64,365.26c8.35,5.42,16.25,10.56,24.16,15.67c2.8,1.81,5.66,3.8,3.22,7.52
		c-2.22,3.38-5.24,1.96-7.88,0.26c-9.65-6.2-19.29-12.41-28.87-18.73c-4.72-3.12-4.67-6.52,0.14-9.65
		c9.6-6.27,19.29-12.41,28.93-18.63c2.71-1.75,5.59-3.13,7.79,0.31c2.14,3.36-0.11,5.46-2.89,7.24
		C527.14,354.44,519.11,359.74,510.64,365.26z"/>
	<path class="st3" d="M494.87,364.94c0,6.48-0.07,12.95,0.03,19.43c0.05,3.53-1.25,6.05-4.99,5.96c-3.54-0.08-4.56-2.72-4.55-5.91
		c0.02-12.79,0.01-25.57,0.01-38.36c0-3.39,1.17-6.17,5-6.01c3.45,0.14,4.55,2.74,4.52,5.96
		C494.83,352.32,494.87,358.63,494.87,364.94z"/>
	<path class="st0" d="M254.26,196.63c0-9.66,0-19.32,0-28.98c0-6.61,1.41-9.03,5.37-8.76c5.63,0.38,5.12,4.69,5.11,8.53
		c-0.04,14.32-0.12,28.64-0.18,42.96c-0.01,1.33-0.06,2.67,0.09,3.99c0.26,2.29,1.58,3.64,3.94,3.68c2.5,0.04,3.65-1.6,3.76-3.8
		c0.18-3.66,0.07-7.32,0.1-10.99c0.03-3.44,1.42-6.06,5.13-6.05c3.68,0.01,5.11,2.62,5.15,6.05c0.04,3.5,0,6.99,0.06,10.49
		c0.05,2.48,1.13,4.21,3.84,4.25c2.72,0.03,3.82-1.83,4.05-4.17c0.21-2.15,0.04-4.33,0.08-6.49c0.07-3.12,1.58-5.15,4.79-5.23
		c3.19-0.08,4.9,1.97,5.22,4.95c0.27,2.47,0.05,4.99,0.12,7.49c0.07,2.9-0.76,6.57,3.82,6.65c4.1,0.07,3.9-3.29,4.14-6.1
		c0.03-0.33,0-0.67,0.02-1c0.22-2.96,2.04-4.72,4.77-4.82c3.02-0.11,5.18,1.78,5.24,4.87c0.44,23.62,1.7,47.34-9.12,69.52
		c-1.66,3.39-3.85,5.25-7.63,5.24c-8.66-0.03-17.32,0.04-25.98-0.03c-3.9-0.03-6.92-1.72-9.34-4.89
		c-13.5-17.75-27.09-35.42-40.64-53.12c-0.51-0.66-0.99-1.34-1.43-2.04c-1.87-3.02-2.12-6.13,0.61-8.61
		c2.79-2.54,6.02-1.79,8.64,0.38c4.1,3.39,7.93,7.11,11.88,10.68c1.72,1.55,3.35,3.55,6.04,2.4c2.72-1.16,2.36-3.71,2.35-6.04
		C254.26,217.28,254.26,206.95,254.26,196.63z"/>
	<text transform="matrix(0.8538 0 0 1 46.1738 428.6143)" class="st4 st5 st6 st7">электронный дискаунтер</text>
</g>
</svg>
