<?xml version="1.0" encoding="utf-8"?>
<!-- Generator: Adobe Illustrator 25.3.1, SVG Export Plug-In . SVG Version: 6.00 Build 0)  -->
<svg version="1.1" id="Layer_1" xmlns="http://www.w3.org/2000/svg" xmlns:xlink="http://www.w3.org/1999/xlink" x="0px" y="0px"
	 viewBox="0 0 2500 2500" enable-background="new 0 0 2500 2500" width="2500" height="2500" xml:space="preserve">
<g>
	<path fill-rule="evenodd" clip-rule="evenodd" d="M885.759,1513.212c0,0-17.055-81.917-51.49-97.961
		c0,0-191.965,15.499-414.228,76.301c0,0-241.64,78.61-232.652-32.424c0,0,76.016-264.402,511.424-463.384
		c0,0,48.209,56.535,93.59,22.892c0,0,34.876-31.115-7.133-77.105c0,0-36.86-36.51-107.883-8.884
		c0,0-301.988,122.953-518.518,410.221c0,0-101.281,131.319-11.349,203.236c0,0,65.757,55.783,244.052,19.078
		C391.572,1565.195,685.622,1506.092,885.759,1513.212L885.759,1513.212z M1015.223,1009.207c0,0,29.091,27.522,37.366,39.13
		c0,0,17.704,12.736,1.686,42.982c0,0-61.101,144.081-74.874,271.833c0,0-8.054,76.444,19.066,90.321
		c0,0,20.83,13.826,59.051-37.184c0,0,76.599-119.815,184.702-134.522c0,0,58.701-1.543,77.546,1.777c0,0,28.274,2.36,25.758,47.405
		c0,0-7.224,97.416,24.085,112.396c0,0,53.228,25.667,88.609-57.884c0,0,22.541-57.43,34.5-103.447c0,0,0.272-29.351,33.721-17.509
		c0,0,55.277,28.819,84.355,56.354c0,0,9.429,1.128,8.002,43.047c0,0-1.673,66.029,34.927,73.707c0,0,57.482,19.403,122.863-134.068
		c0,0,51.529-129.49,71.308-227.84c0,0,3.346-19.883,24.266-16.536c0,0,25.135,4.423,31.335,12.866c0,0,10.441,4.293,6.057,25.213
		c0,0-28.041,194.702-22.542,279.654c0,0,92.254-114.432,221.679-166.674c0,0,21.076-12.386,21.867,15.927l0.661,42.982
		c0,0,0.882,16.783-14.85,18.728c0,0-89.517,45.277-117.182,86.949c0,0,65.147,93.901,79.622,116.04
		c0,0,19.714,24.292-17.328,60.647c0,0-15.888,16.614-38.728-6.667c0,0-42.554-44.408-84.654-136.001
		c0,0-26.316,11.271-68.882,76.911l-1.414,41.918c0,0,4.034,16.822-21.128,16.562l-30.401-0.272c0,0-24.111,0.804-21.815-22.217
		c0,0,4.124-103.732,7.73-154.016c0,0-57.041,160.877-154.522,159.956c0,0-90.257,11.725-98.181-149.762
		c0,0-0.908-12.581-7.224-11.595c0,0-7.315-2.166-10.583,10.376c0,0-61.178,154.548-158.672,153.64c0,0-68.117-0.636-81.191-60.491
		c0,0-42.645,77.157-138.971,65.757c0,0-64.927-5.823-77.935-71.995c0,0-102.889,129.01-162.68,22.567
		c0,0-70.841-158.932,64.122-466.886C976.352,1019.324,988.206,983.787,1015.223,1009.207L1015.223,1009.207z"/>
	<path fill-rule="evenodd" clip-rule="evenodd" fill="#FFFFFF" d="M1267.848,1343.853c0,0,2.659,50.349,5.655,69.22
		c0,0-56.639,71.943-94.718,39.999c0,0-31.153-31.737,16.472-79.505C1195.243,1373.567,1250.481,1323.776,1267.848,1343.853
		L1267.848,1343.853z"/>
	<path fill-rule="evenodd" clip-rule="evenodd" d="M2159.312,1543.25c0,0,129.775-6.641,161.318-100.697
		c0,0,18.495-43.851-38.637-71.1c0,0-21.932-8.067-45.498-13.009c0,0-55.731-9.17-21.608-42.658c0,0,26.951-23.333,75.536-6.368
		c0,0,22.671,12.01,30.012-14.656c0,0,8.923-29.792-27.185-37.197c0,0-89.465-14.993-144.263,43.462c0,0-51.646,57.689-5.629,95.081
		c0,0,20.284,16.692,54.084,18.573c0,0,37.69,5.097,25.641,33.255c0,0-12.062,27.405-74.304,40.984c0,0-18.132,5.318-29.13,4.436
		c0,0-18.845-1.751-11.141,16.42c0,0,5.318,19.714,16.978,33.164c0,0,4.682,3.982,14.137,2.503L2159.312,1543.25L2159.312,1543.25z
		 M2322.303,1502.901c0-19.104,15.499-33.164,33.786-33.164c18.132,0,33.617,14.059,33.617,33.164
		c0,19.273-15.473,33.358-33.617,33.358C2337.802,1536.26,2322.303,1522.174,2322.303,1502.901z"/>
	<path fill-rule="evenodd" clip-rule="evenodd" fill="#FFFFFF" d="M2356.089,1530.708c15.045,0,26.925-11.802,26.925-27.82
		c0-15.758-11.88-27.639-26.925-27.639c-15.227,0-27.107,11.88-27.107,27.639
		C2328.982,1518.906,2340.863,1530.708,2356.089,1530.708z"/>
	<path fill-rule="evenodd" clip-rule="evenodd" d="M2349.046,1522.174h-5.798v-38.377h14.617c9.04,0,13.553,3.346,13.553,10.921
		c0,6.861-4.332,9.857-9.961,10.557l10.921,16.9h-6.511l-10.129-16.64h-6.692L2349.046,1522.174L2349.046,1522.174z"/>
	<path fill-rule="evenodd" clip-rule="evenodd" fill="#FFFFFF" d="M2356.011,1500.619c4.916,0,9.325-0.35,9.325-6.251
		c0-4.734-4.306-5.629-8.365-5.629h-7.925v11.88H2356.011z"/>
</g>
</svg>
