<?xml version="1.0" encoding="UTF-8" standalone="no"?><!-- Generator: Gravit.io --><svg xmlns="http://www.w3.org/2000/svg" xmlns:xlink="http://www.w3.org/1999/xlink" style="isolation:isolate" viewBox="0 0 150 150" width="150pt" height="150pt"><defs><clipPath id="_clipPath_5dsBtX973MvnX2pfoK52ZKmW88hqIRtQ"><rect width="150" height="150"/></clipPath></defs><g clip-path="url(#_clipPath_5dsBtX973MvnX2pfoK52ZKmW88hqIRtQ)"><path d=" M 25.558 94.704 C 31.061 94.704 36.167 93.474 42.067 90.722 L 42.067 95.141 C 36.167 97.892 31.061 99.122 25.558 99.122 C 11.482 99.122 0 88.897 0 74.134 C 0 73.327 0.026 72.586 0.093 71.805 C 1.138 85.444 12.17 94.704 25.558 94.704 L 25.558 94.704 Z  M 7.091 69.715 C 7.091 58.762 15.464 51.46 25.571 51.46 C 31.074 51.46 36.577 52.981 42.08 56.526 L 42.08 60.945 C 36.577 57.412 31.074 55.878 25.571 55.878 C 16.285 55.878 8.255 62.069 7.223 71.99 C 7.13 71.263 7.091 70.509 7.091 69.715 L 7.091 69.715 Z  M 105.142 74.147 C 105.142 87.931 93.937 99.109 80.153 99.109 C 66.368 99.109 55.19 87.931 55.19 74.147 C 55.19 73.366 55.217 72.652 55.283 71.885 C 56.367 84.664 67.083 94.691 80.153 94.691 C 93.196 94.691 103.938 84.664 105.049 71.911 C 105.115 72.652 105.142 73.406 105.142 74.147 L 105.142 74.147 Z  M 98.117 69.649 C 98.117 59.529 90.074 51.592 80.205 51.592 C 70.324 51.592 62.294 59.529 62.294 69.649 C 62.294 70.443 62.32 71.17 62.413 71.938 C 63.471 62.876 71.038 56.023 80.205 56.023 C 89.399 56.023 96.966 62.876 97.998 71.964 C 98.091 71.197 98.117 70.429 98.117 69.649 L 98.117 69.649 Z  M 150 84.928 C 150 93.262 142.433 99.122 133.173 99.122 C 126.413 99.122 120.156 96.741 116.002 91.582 L 118.436 89.664 C 122.418 93.13 127.604 94.704 133.173 94.704 C 141.653 94.704 148.704 89.783 149.828 82.573 C 149.96 83.301 150 84.095 150 84.928 L 150 84.928 Z  M 143.121 80.51 C 143.121 81.423 143.002 82.203 142.777 82.944 C 139.774 74.57 117.325 77.441 117.325 62.043 C 117.325 61.275 117.378 60.574 117.497 59.886 C 119.759 73.697 143.121 70.191 143.121 80.51 Z  M 146.561 53.113 C 147.42 53.775 148.227 54.515 148.942 55.375 L 144.219 59.701 C 141.719 57.201 137.883 55.309 133.041 55.309 C 129.085 55.309 125.739 56.83 124.614 59.727 C 124.35 59.093 124.191 58.431 124.191 57.611 C 124.191 53.219 128.12 50.878 133.041 50.878 C 137.883 50.878 141.719 52.769 144.219 55.269 L 146.561 53.113 L 146.561 53.113 Z " fill="rgb(68,68,68)"/></g></svg>