<?xml version="1.0" encoding="UTF-8" standalone="no"?><!-- Generator: Gravit.io --><svg xmlns="http://www.w3.org/2000/svg" xmlns:xlink="http://www.w3.org/1999/xlink" style="isolation:isolate" viewBox="0 0 150 150" width="150pt" height="150pt"><defs><clipPath id="_clipPath_t964CfpO5uwYGRibXihC420sfiU0dOgZ"><rect width="150" height="150"/></clipPath></defs><g clip-path="url(#_clipPath_t964CfpO5uwYGRibXihC420sfiU0dOgZ)"><path d=" M 0 56.349 L 0 93.55 L 150 93.651 L 150 56.349 L 0 56.349 L 0 56.349 Z " fill="rgb(20,130,194)"/><g><path d=" M 59.975 65.272 L 51.575 77.712 C 50.701 79.028 49.168 79.824 47.564 79.824 C 44.952 79.824 42.789 77.678 42.789 75.088 C 42.789 72.46 44.952 70.317 47.582 70.317 C 47.843 70.284 48.193 70.247 48.437 70.247 C 50.25 70.247 52.098 71.008 53.353 72.288 L 55.862 68.486 C 53.91 66.482 51.016 65.2 48.122 65.2 C 42.719 65.2 37.769 69.659 37.769 75.051 C 37.769 80.412 42.196 84.8 47.601 84.8 C 50.215 84.8 52.829 83.694 54.642 81.861 L 60.429 81.861 L 60.463 84.8 L 65.485 84.8 L 65.485 65.272 L 59.975 65.272 L 59.975 65.272 Z  M 57.677 77.574 L 60.429 73.741 L 60.463 77.574 L 57.677 77.574 L 57.677 77.574 Z " fill="rgb(255,255,255)"/><path d=" M 75.106 84.8 L 70.086 84.8 L 70.086 69.832 L 66.182 69.832 L 66.182 65.305 L 79.009 65.272 L 79.009 69.832 L 75.106 69.832 L 75.106 84.8 L 75.106 84.8 Z " fill="rgb(255,255,255)"/><path d=" M 95.744 65.272 L 90.723 65.274 L 90.688 72.564 L 84.761 72.564 L 84.724 65.272 L 79.707 65.272 L 79.707 84.8 L 84.761 84.8 L 84.761 77.091 L 90.723 77.091 L 90.723 84.8 L 95.743 84.8 L 95.743 65.272 L 95.744 65.272 Z " fill="rgb(255,255,255)"/><path d=" M 135.972 65.272 L 135.972 74.36 L 129.07 65.272 L 124.502 65.304 L 124.467 72.426 C 123.317 68.278 119.377 65.272 114.985 65.272 C 109.583 65.272 105.155 69.659 105.155 75.051 C 105.155 76.783 105.677 78.541 106.512 80.064 L 101.539 80.064 L 101.539 65.272 L 96.424 65.272 L 96.424 84.8 L 108.118 84.8 L 108.118 82.068 C 109.966 83.762 112.475 84.8 114.985 84.8 C 119.377 84.8 123.248 81.861 124.467 77.712 L 124.502 84.8 L 129.558 84.8 L 129.558 75.297 L 136.423 84.8 L 140.988 84.8 L 140.995 65.272 L 135.973 65.272 L 135.972 65.272 Z  M 114.985 80.03 C 112.231 80.03 109.966 77.819 109.966 75.051 C 109.966 72.322 112.231 70.076 114.985 70.076 C 117.776 70.076 120.041 72.322 120.041 75.051 C 120.041 77.819 117.776 80.03 114.985 80.03 Z " fill="rgb(255,255,255)"/><path d=" M 31.698 80.065 L 31.698 77.332 L 37.086 77.332 L 37.076 72.564 L 31.698 72.564 L 31.698 70.077 L 37.636 70.077 L 37.626 65.273 L 26.192 65.305 L 26.192 72.011 C 25.007 68.348 21.589 65.65 17.685 65.305 L 9.005 65.273 L 9.005 84.799 L 17.721 84.799 C 21.589 84.455 25.007 81.759 26.192 78.13 L 26.192 84.799 L 37.637 84.799 L 37.626 80.065 L 31.698 80.065 L 31.698 80.065 Z  M 20.649 78.025 C 20.336 79.34 19.08 80.271 17.721 80.305 L 14.514 80.305 L 14.514 69.832 L 17.721 69.832 C 19.08 69.832 20.336 70.804 20.649 72.15 C 20.964 73.049 21.138 74.086 21.138 75.052 C 21.138 76.056 20.964 77.091 20.649 78.025" fill="rgb(255,255,255)"/></g></g></svg>