<?xml version="1.0" encoding="UTF-8" standalone="no"?><!-- Generator: Gravit.io --><svg xmlns="http://www.w3.org/2000/svg" xmlns:xlink="http://www.w3.org/1999/xlink" style="isolation:isolate" viewBox="0 0 150 150" width="150pt" height="150pt"><defs><clipPath id="_clipPath_TpX1GgYIBKFN730zjvo1SW7ZHBpcEtOs"><rect width="150" height="150"/></clipPath></defs><g clip-path="url(#_clipPath_TpX1GgYIBKFN730zjvo1SW7ZHBpcEtOs)"><path d=" M 145.538 91.61 C 145.123 92.464 144.519 92.948 143.716 93.04 L 143.693 93.04 C 142.71 93.04 142.035 92.454 141.656 91.272 C 141.4 90.522 141.28 89.54 141.28 88.317 C 141.28 87.04 141.405 85.965 141.697 85.108 C 142.109 83.88 142.779 83.238 143.716 83.179 L 143.849 83.179 C 144.683 83.179 145.272 83.616 145.622 84.491 C 145.973 85.354 146.152 86.59 146.152 88.194 C 146.152 89.619 145.95 90.765 145.538 91.61 Z  M 148.831 83.427 C 149.606 84.555 150 86.039 150 87.892 C 150 90.123 149.47 91.845 148.416 93.086 C 147.457 94.199 146.236 94.741 144.785 94.741 C 144.396 94.741 144.041 94.706 143.716 94.631 C 143.353 94.547 143.038 94.414 142.761 94.237 C 142.232 93.889 141.774 93.424 141.405 92.838 L 141.405 101.212 C 140.755 101.123 140.159 101.084 139.625 101.084 C 139.08 101.084 138.486 101.123 137.826 101.212 L 137.826 81.746 C 138.013 81.746 138.34 81.748 138.798 81.789 C 139.259 81.835 139.504 81.843 139.561 81.843 C 139.75 81.843 140.037 81.835 140.423 81.789 C 140.799 81.748 141.088 81.746 141.28 81.746 L 141.28 84.046 C 141.587 83.245 142.058 82.624 142.651 82.166 C 142.974 81.925 143.327 81.746 143.716 81.633 C 144.066 81.523 144.435 81.48 144.834 81.48 C 146.589 81.48 147.933 82.13 148.831 83.427 Z  M 127.064 89.785 C 127.939 88.677 128.842 87.411 129.797 85.975 C 130.511 84.891 131.373 83.481 132.404 81.748 L 133.768 81.815 L 135.068 81.748 L 135.068 94.519 C 134.871 94.519 134.535 94.496 134.059 94.447 C 133.589 94.406 133.32 94.383 133.274 94.383 C 132.972 94.383 132.739 94.393 132.591 94.406 C 132.437 94.411 132.066 94.447 131.47 94.519 L 131.47 86.387 C 130.452 87.687 129.479 89.061 128.535 90.502 C 127.691 91.786 126.898 93.135 126.125 94.519 C 126.041 94.519 125.844 94.496 125.557 94.447 C 125.263 94.406 125.017 94.383 124.825 94.383 C 124.505 94.383 124.242 94.406 123.973 94.447 C 123.725 94.496 123.559 94.519 123.477 94.519 L 123.477 81.743 C 123.973 81.777 124.347 81.805 124.592 81.815 C 124.835 81.846 125.063 81.856 125.268 81.856 C 125.774 81.856 126.143 81.846 126.381 81.835 C 126.701 81.777 126.923 81.748 127.064 81.748 L 127.064 89.785 Z  M 116.062 85.448 C 115.138 87.764 114.452 89.588 113.964 90.942 C 113.506 92.3 113.132 93.48 112.884 94.506 C 112.728 94.506 112.49 94.488 112.175 94.442 C 111.858 94.406 111.615 94.386 111.448 94.386 C 111.274 94.386 111.021 94.406 110.686 94.442 C 110.351 94.488 110.113 94.506 109.967 94.506 L 106.781 85.448 C 106.492 86.753 106.208 88.26 105.909 89.964 C 105.592 91.666 105.351 93.183 105.157 94.506 L 103.107 94.506 C 103.683 92.428 104.251 90.312 104.819 88.171 C 105.389 86.021 105.929 83.872 106.438 81.715 C 106.587 81.715 106.83 81.733 107.142 81.779 C 107.454 81.835 107.687 81.859 107.851 81.859 C 108.002 81.859 108.265 81.835 108.616 81.779 C 108.969 81.733 109.171 81.715 109.23 81.715 L 112.382 90.443 C 113.436 87.536 114.516 84.632 115.596 81.715 C 115.752 81.715 115.982 81.733 116.3 81.779 C 116.612 81.835 116.852 81.859 117.026 81.859 C 117.188 81.859 117.418 81.835 117.717 81.779 C 118.042 81.733 118.283 81.715 118.436 81.715 C 118.917 84.274 119.36 86.408 119.731 88.12 C 120.24 90.312 120.813 92.436 121.455 94.506 C 121.246 94.506 120.931 94.488 120.511 94.442 C 120.102 94.406 119.779 94.386 119.552 94.386 C 119.339 94.386 119.014 94.406 118.577 94.442 C 118.16 94.488 117.827 94.506 117.625 94.506 L 116.062 85.448 Z  M 86.685 89.785 C 87.571 88.683 88.471 87.411 89.413 85.975 C 90.129 84.891 91.01 83.481 92.033 81.748 L 93.384 81.835 L 94.694 81.748 L 94.694 94.519 C 94.5 94.519 94.165 94.496 93.691 94.447 C 93.21 94.406 92.944 94.383 92.895 94.383 C 92.606 94.383 92.379 94.393 92.225 94.406 C 92.064 94.411 91.68 94.447 91.104 94.519 L 91.104 86.387 C 90.083 87.697 89.109 89.071 88.157 90.502 C 87.325 91.786 86.511 93.135 85.752 94.519 C 85.659 94.519 85.47 94.496 85.178 94.447 C 84.882 94.406 84.639 94.383 84.447 94.383 C 84.137 94.383 83.858 94.406 83.6 94.447 C 83.349 94.496 83.18 94.519 83.098 94.519 L 83.098 81.743 C 83.6 81.777 83.971 81.805 84.211 81.815 C 84.452 81.846 84.685 81.856 84.892 81.856 C 85.396 81.856 85.777 81.846 86.015 81.835 C 86.322 81.777 86.545 81.748 86.685 81.748 L 86.685 89.785 Z  M 84.477 77.115 C 85.166 77.777 85.874 78.284 86.611 78.617 C 87.338 78.957 88.077 79.128 88.84 79.128 C 90.396 79.128 91.89 78.455 93.335 77.115 L 94.157 78.269 C 93.412 79.008 92.588 79.571 91.662 79.968 C 90.723 80.359 89.787 80.556 88.814 80.556 C 87.855 80.556 86.934 80.38 86.071 80.001 C 85.196 79.638 84.38 79.072 83.618 78.307 L 84.477 77.115 Z  M 72.198 89.775 C 73.068 88.67 73.979 87.393 74.928 85.965 C 75.629 84.878 76.505 83.468 77.531 81.746 L 78.884 81.81 L 80.189 81.746 L 80.189 94.506 C 79.997 94.506 79.67 94.488 79.183 94.442 C 78.705 94.393 78.441 94.378 78.395 94.378 C 78.096 94.378 77.873 94.378 77.712 94.393 C 77.554 94.404 77.185 94.442 76.586 94.506 L 76.586 86.38 C 75.583 87.68 74.606 89.043 73.677 90.486 C 72.825 91.776 72.027 93.114 71.259 94.506 C 71.172 94.506 70.978 94.478 70.691 94.442 C 70.392 94.393 70.149 94.378 69.957 94.378 C 69.647 94.378 69.361 94.393 69.107 94.442 C 68.867 94.478 68.693 94.506 68.608 94.506 L 68.608 81.733 C 69.107 81.774 69.481 81.797 69.724 81.81 C 69.967 81.823 70.187 81.835 70.402 81.835 C 70.906 81.835 71.275 81.835 71.523 81.82 C 71.827 81.759 72.052 81.746 72.198 81.746 L 72.198 89.775 Z  M 54.884 81.748 C 55.457 81.818 55.835 81.859 56.033 81.869 C 56.232 81.874 56.452 81.874 56.672 81.874 C 57.21 81.874 57.811 81.835 58.468 81.746 L 58.468 87.367 C 58.527 87.416 58.596 87.424 58.709 87.385 C 59.5 86.556 60.344 85.656 61.206 84.673 C 62.301 83.389 63.141 82.419 63.721 81.746 C 63.847 81.746 64.023 81.774 64.264 81.8 C 64.515 81.835 64.704 81.859 64.839 81.859 C 64.973 81.859 65.147 81.835 65.4 81.8 C 65.643 81.774 65.817 81.746 65.937 81.746 L 65.937 81.905 C 65.474 82.501 64.947 83.107 64.351 83.698 C 62.634 85.448 61.703 86.408 61.564 86.59 L 63.675 89.936 C 64.563 91.377 65.418 92.833 66.229 94.332 L 66.229 94.519 C 66.024 94.519 65.653 94.496 65.106 94.45 C 64.563 94.406 64.274 94.386 64.248 94.386 C 64.016 94.386 63.691 94.406 63.256 94.45 C 62.818 94.496 62.478 94.519 62.26 94.519 C 61.759 93.557 61.275 92.682 60.817 91.894 C 60.224 90.868 59.694 89.982 59.2 89.238 C 59.08 89.041 58.972 88.882 58.857 88.757 C 58.758 88.636 58.622 88.503 58.468 88.386 L 58.468 94.519 C 58.282 94.519 57.946 94.496 57.453 94.45 C 56.974 94.406 56.708 94.386 56.672 94.386 C 56.48 94.386 56.145 94.406 55.662 94.45 C 55.175 94.496 54.914 94.519 54.884 94.519 L 54.884 81.748 Z  M 52.044 85.377 L 51.442 85.377 C 51.34 84.591 51.069 83.954 50.631 83.468 C 50.153 82.928 49.528 82.644 48.753 82.644 C 47.658 82.644 46.819 83.266 46.248 84.491 C 45.79 85.459 45.562 86.587 45.562 87.879 C 45.562 89.529 45.882 90.799 46.507 91.692 C 47.139 92.6 48.131 93.042 49.51 93.042 C 50.04 93.042 50.547 92.927 51.041 92.712 C 51.534 92.474 51.941 92.17 52.251 91.779 L 52.696 92.15 L 52.044 93.708 C 51.729 94.028 51.207 94.289 50.475 94.46 C 49.733 94.644 49.088 94.741 48.551 94.741 C 46.478 94.741 44.838 94.209 43.625 93.109 C 42.351 91.968 41.712 90.384 41.712 88.355 C 41.712 86.259 42.336 84.576 43.582 83.345 C 44.82 82.099 46.486 81.48 48.574 81.48 C 49.383 81.48 50.165 81.567 50.951 81.748 C 51.729 81.938 52.425 82.224 53.044 82.644 L 52.044 85.377 Z  M 37.643 83.273 L 37.643 94.509 C 37.454 94.509 37.111 94.488 36.645 94.442 C 36.162 94.404 35.909 94.378 35.847 94.378 C 35.665 94.378 35.315 94.404 34.839 94.442 C 34.343 94.488 34.089 94.509 34.048 94.509 L 34.048 83.273 C 32.892 83.273 32.114 83.304 31.705 83.33 C 31.116 83.414 30.576 83.473 30.075 83.509 C 30.075 83.412 30.095 83.245 30.131 83.01 C 30.18 82.787 30.195 82.654 30.195 82.616 C 30.195 82.496 30.18 82.327 30.131 82.099 C 30.095 81.879 30.075 81.774 30.075 81.746 L 41.66 81.746 C 41.66 81.856 41.637 82.025 41.586 82.227 C 41.553 82.457 41.525 82.58 41.525 82.616 C 41.525 82.741 41.553 82.92 41.586 83.135 C 41.637 83.353 41.66 83.483 41.66 83.509 C 40.99 83.447 40.407 83.389 39.936 83.345 C 39.468 83.304 38.7 83.273 37.643 83.273 Z  M 27.45 92.728 C 27.971 92.51 28.468 92.216 28.916 91.845 L 29.192 92.075 L 28.637 93.557 C 27.516 94.35 26.285 94.741 24.909 94.741 C 24.609 94.741 24.313 94.724 24.034 94.706 C 22.296 94.547 20.922 93.964 19.899 92.907 C 18.696 91.694 18.105 89.995 18.105 87.813 C 18.105 85.911 18.655 84.376 19.75 83.217 C 20.812 82.099 22.24 81.518 24.034 81.48 L 24.223 81.48 C 26.147 81.48 27.57 82.112 28.491 83.381 C 29.297 84.476 29.693 86.057 29.693 88.109 L 21.964 88.109 C 21.964 89.596 22.25 90.765 22.849 91.61 C 23.164 92.073 23.563 92.421 24.034 92.656 C 24.545 92.922 25.157 93.04 25.853 93.04 C 26.393 93.04 26.935 92.935 27.45 92.728 Z  M 22.378 84.218 C 22.104 84.949 21.964 85.835 21.964 86.848 L 26.104 86.848 C 26.104 85.835 25.994 84.949 25.763 84.218 C 25.436 83.171 24.929 82.644 24.238 82.644 C 24.172 82.644 24.1 82.644 24.034 82.654 C 23.297 82.739 22.744 83.256 22.378 84.218 Z  M 17.046 93.895 C 17.046 94.063 17.051 94.309 17.095 94.639 C 17.13 94.951 17.166 95.176 17.207 95.317 L 16.805 95.317 C 16.503 94.931 15.966 94.675 15.188 94.552 C 14.426 94.442 13.543 94.388 12.538 94.388 L 4.844 94.388 C 3.644 94.388 2.689 94.432 1.97 94.534 C 1.244 94.631 0.719 94.895 0.376 95.317 L 0 95.317 C 0.046 95.1 0.084 94.895 0.105 94.68 C 0.123 94.465 0.13 94.207 0.13 93.895 C 0.13 93.616 0.11 93.327 0.084 93.066 C 0.038 92.805 0.023 92.608 0 92.487 L 1.113 92.487 C 1.876 90.712 2.63 88.926 3.357 87.152 C 4.232 85.072 4.954 83.294 5.522 81.818 C 6.128 80.29 6.765 78.576 7.433 76.682 C 7.482 76.567 7.517 76.462 7.558 76.355 C 7.676 76.355 7.865 76.37 8.103 76.401 C 8.344 76.437 8.52 76.457 8.651 76.457 C 8.794 76.457 8.981 76.437 9.232 76.401 C 9.472 76.37 9.656 76.355 9.769 76.355 C 10.662 78.824 11.66 81.536 12.791 84.461 C 13.786 87.045 14.833 89.724 15.943 92.487 L 17.207 92.487 C 17.166 92.738 17.141 92.981 17.11 93.257 C 17.095 93.518 17.064 93.726 17.046 93.895 Z  M 9.454 92.559 C 10.224 92.541 10.918 92.51 11.545 92.487 C 10.966 90.747 10.327 88.913 9.631 87.009 C 8.922 85.108 8.234 83.227 7.558 81.354 L 7.433 81.649 C 6.701 83.494 6.01 85.246 5.376 86.904 C 4.58 88.926 3.907 90.781 3.339 92.474 C 3.679 92.495 4.304 92.523 5.212 92.549 C 6.118 92.579 6.806 92.587 7.267 92.587 L 7.433 92.587 C 8.083 92.587 8.756 92.579 9.454 92.559 Z " fill-rule="evenodd" fill="rgb(0,113,187)"/><path d=" M 116.99 61.563 C 116.133 63.925 115.261 65.649 114.583 66.806 C 113.889 67.99 112.533 68.615 111.203 68.351 C 109.926 68.103 108.099 67.642 105.748 66.801 C 103.401 65.959 101.7 65.15 100.559 64.534 C 99.366 63.891 98.724 62.551 98.954 61.197 C 99.18 59.877 99.617 57.999 100.477 55.637 C 101.336 53.273 102.209 51.551 102.884 50.394 C 103.578 49.21 104.934 48.585 106.267 48.846 C 107.539 49.097 109.368 49.555 111.714 50.397 C 114.066 51.241 115.767 52.05 116.909 52.667 C 118.101 53.309 118.743 54.652 118.513 56.003 C 118.29 57.323 117.85 59.201 116.99 61.563 Z " fill-rule="evenodd" fill="rgb(0,173,239)"/><path d=" M 94.694 55.601 C 95.564 57.955 96.009 59.831 96.24 61.146 C 96.475 62.497 95.84 63.838 94.653 64.485 C 93.517 65.107 91.821 65.92 89.48 66.775 C 87.138 67.627 85.314 68.093 84.045 68.349 C 82.717 68.617 81.361 68.003 80.66 66.821 C 79.979 65.67 79.099 63.953 78.232 61.599 C 77.362 59.242 76.916 57.369 76.686 56.054 C 76.451 54.703 77.085 53.363 78.273 52.713 C 79.409 52.093 81.102 51.277 83.444 50.423 C 85.785 49.573 87.612 49.105 88.881 48.849 C 90.209 48.583 91.567 49.2 92.266 50.379 C 92.947 51.53 93.824 53.247 94.694 55.601 Z " fill-rule="evenodd" fill="rgb(0,165,80)"/><path d=" M 72.449 61.563 C 71.592 63.925 70.719 65.649 70.041 66.806 C 69.348 67.99 67.992 68.615 66.661 68.351 C 65.387 68.103 63.558 67.642 61.206 66.801 C 58.86 65.959 57.158 65.15 56.02 64.534 C 54.825 63.891 54.183 62.551 54.413 61.197 C 54.635 59.877 55.076 57.999 55.935 55.637 C 56.795 53.273 57.668 51.551 58.343 50.394 C 59.036 49.21 60.393 48.585 61.726 48.846 C 62.997 49.097 64.827 49.555 67.176 50.397 C 69.524 51.241 71.226 52.05 72.367 52.667 C 73.559 53.309 74.202 54.652 73.971 56.003 C 73.749 57.323 73.309 59.201 72.449 61.563 Z " fill-rule="evenodd" fill="rgb(253,184,51)"/><path d=" M 50.153 55.601 C 51.023 57.955 51.468 59.831 51.698 61.146 C 51.934 62.497 51.299 63.838 50.112 64.485 C 48.976 65.107 47.279 65.92 44.938 66.775 C 42.597 67.627 40.773 68.093 39.503 68.349 C 38.175 68.617 36.817 68.003 36.118 66.821 C 35.438 65.67 34.56 63.953 33.69 61.599 C 32.82 59.242 32.375 57.369 32.145 56.054 C 31.909 54.703 32.544 53.363 33.731 52.713 C 34.867 52.093 36.561 51.277 38.902 50.423 C 41.246 49.573 43.07 49.105 44.339 48.849 C 45.667 48.583 47.026 49.2 47.724 50.379 C 48.405 51.53 49.283 53.247 50.153 55.601 Z " fill-rule="evenodd" fill="rgb(237,28,35)"/></g></svg>