<svg xmlns="http://www.w3.org/2000/svg" width="330.2138724882327" height="330.4046219577169"><rect id="backgroundrect" width="100%" height="100%" x="0" y="0" fill="none" stroke="none"/><g class="currentLayer" style=""><title>Layer 1</title><path d="M51.005728380203244,126.309 C29.85972838020325,126.309 12.238728380203247,135.279 12.238728380203247,162.345 c0,21.442 11.849,34.944 39.312,34.944 c32.326,0 34.398,-21.294 34.398,-21.294 H70.28572838020324 s-3.358,11.466 -19.69,11.466 c-13.302,0 -22.869,-8.986 -22.869,-21.58 h59.861 v-7.904 c0,-12.46 -7.91,-31.668 -36.582,-31.668 zM50.45872838020325,136.41 c12.662,0 21.294,7.757 21.294,19.383 h-43.68 c0,-12.343 11.268,-19.383 22.386,-19.383 z" fill="#e53238" id="svg_1" class=""/><path d="M89.88886705684662,100.1 v83.597 c0,4.745 -0.3390000000000002,11.408 -0.3390000000000002,11.408 h14.939 s0.537,-4.785 0.537,-9.159 c0,0 7.381,11.548 27.451,11.548 c21.134,0 35.49,-14.674 35.49,-35.695 c0,-19.557 -13.186,-35.286 -35.456,-35.286 c-20.854,0 -27.334,11.261 -27.334,11.261 V100.1 H89.88886705684662 zm38.766,36.753 c14.352,0 23.479,10.652000000000001 23.479,24.946 c0,15.328 -10.541,25.355 -23.376,25.355 c-15.318,0 -23.581,-11.961 -23.581,-25.219 c0,-12.354 7.414,-25.082 23.478,-25.082 z" fill="#0064d2" id="svg_2" class=""/><path d="M206.25193645477296,126.309 c-31.812,0 -33.852,17.418 -33.852,20.202 h15.834 s0.8300000000000001,-10.169 16.926,-10.169 c10.459,0 18.564,4.788 18.564,13.991 v3.276 h-18.564 c-24.645,0 -37.674,7.21 -37.674,21.841 c0,14.398 12.038,22.232 28.307,22.232 c22.172,0 29.314,-12.251 29.314,-12.251 c0,4.873 0.37500000000000006,9.675 0.37500000000000006,9.675 h14.076 s-0.545,-5.952 -0.545,-9.76 V152.43200000000002 c0,-21.582 -17.408,-26.123 -32.761,-26.123 zm17.472,37.128 v4.368 c0,5.697 -3.516,19.861 -24.212,19.861 c-11.333,0 -16.192,-5.656000000000001 -16.192,-12.217 c0,-11.935 16.363,-12.012 40.404,-12.012 z" fill="#f5af02" id="svg_3" class=""/><path d="M232.7980752506256,129.041 h17.813 l25.565,51.218 l25.506,-51.218 H317.8190752506256 l-46.459,91.184 h-16.927 l13.406,-25.419 l-35.041,-65.765 z" fill="#86b817" id="svg_4" class=""/></g></svg>