<?xml version="1.0" encoding="utf-8"?>
<!-- Generator: Adobe Illustrator 21.1.0, SVG Export Plug-In . SVG Version: 6.00 Build 0)  -->
<svg version="1.1" id="Слой_1" xmlns="http://www.w3.org/2000/svg" xmlns:xlink="http://www.w3.org/1999/xlink" x="0px" y="0px"
	 viewBox="0 0 595.3 87" style="enable-background:new 0 0 595.3 87;" xml:space="preserve">
<g id="Слой_x0020_1">
	<g id="_2213001915616">
		<g>
			<polygon points="59.7,10.6 11.8,10.6 11.8,37.3 56.6,37.3 56.6,46.8 11.8,46.8 11.8,76.3 60.3,76.3 60.3,86.2 0.6,86.2 0.6,0.7 
				59.7,0.7 			"/>
			<polygon points="89.6,0.7 117.1,73.1 143.6,0.7 159.3,0.7 159.3,86.2 148.6,86.2 148.6,14.9 121.9,86.2 112,86.2 84.8,14.9 
				84.8,86.2 74,86.2 74,0.7 			"/>
		</g>
		<g>
			<path d="M208.7,0.7c13.6,0,26.2,6.5,26.2,21.2c0,10-6.6,17.6-16.4,19.4c11.3,1.2,19.3,9.1,19.3,21c0,7.9-3.5,14.6-10,19
				c-6.2,4.1-14,4.8-21.2,4.8h-33V0.7H208.7L208.7,0.7z M178.7,39.7L178.7,39.7h26.9c10.9,0,24.1-2.6,24.1-17.2
				c0-13-10.7-17.4-22.4-17.4h-28.6L178.7,39.7L178.7,39.7z M178.7,81.6L178.7,81.6h27.5c13,0,26.4-3.2,26.4-19.3
				c0-14.8-13.3-18.2-25.7-18.2h-28.2V81.6z"/>
			<polygon points="306.2,5.3 253.8,5.3 253.8,39.5 303,39.5 303,44 253.8,44 253.8,81.6 306.7,81.6 306.7,86.2 248.6,86.2 
				248.6,0.7 306.2,0.7 			"/>
			<path d="M381.5,86.2h-5.8L365,58.6h-41.2L313,86.2h-5.6L342,0.7h5.5L381.5,86.2z M347.8,14.6L347.8,14.6c-1.1-2.8-2-6.1-3.1-9
				c-1.1,2.9-2,5.8-3.2,8.6l-16,40h37.9L347.8,14.6L347.8,14.6z"/>
			<path d="M453,57c0,19.4-12.6,31-32.4,31C396.5,88,387,74.6,387,52.7v-52h5.3v52.2c0,19.2,7.4,30.6,28.3,30.6
				c20.4,0,27.2-12.1,27.2-30.6V0.7h5.2V57z"/>
			<polygon points="524.6,5.3 494.4,5.3 494.4,86.2 489.2,86.2 489.2,5.3 458.9,5.3 458.9,0.7 524.6,0.7 			"/>
			<path d="M559.9,50.5v35.6h-5.2V50.5L520.3,0.7h6.2l27.1,39.4c1.3,1.9,2.6,4,3.8,6c1.2-1.9,2.3-3.8,3.6-5.8l27.5-39.6h5.9
				L559.9,50.5L559.9,50.5z"/>
		</g>
		<polygon points="312.8,86.1 296.5,86.1 296.5,81.6 312.8,81.6 		"/>
	</g>
</g>
</svg>
