<?xml version="1.0" encoding="utf-8"?>
<!-- Generator: Adobe Illustrator 22.1.0, SVG Export Plug-In . SVG Version: 6.00 Build 0)  -->
<svg version="1.1"
	 id="svg2" inkscape:version="0.48.2 r9819" sodipodi:docname="Aeropostale_logo2.svg" xmlns:cc="http://creativecommons.org/ns#" xmlns:dc="http://purl.org/dc/elements/1.1/" xmlns:inkscape="http://www.inkscape.org/namespaces/inkscape" xmlns:rdf="http://www.w3.org/1999/02/22-rdf-syntax-ns#" xmlns:sodipodi="http://sodipodi.sourceforge.net/DTD/sodipodi-0.dtd" xmlns:svg="http://www.w3.org/2000/svg"
	 xmlns="http://www.w3.org/2000/svg" xmlns:xlink="http://www.w3.org/1999/xlink" x="0px" y="0px" viewBox="0 0 500 500"
	 style="enable-background:new 0 0 500 500;" xml:space="preserve">
<style type="text/css">
	.st0{fill:#231F20;}
</style>
<sodipodi:namedview  bordercolor="#666666" borderopacity="1" gridtolerance="10" guidetolerance="10" id="namedview35" inkscape:current-layer="svg2" inkscape:cx="305.96738" inkscape:cy="101.65201" inkscape:pageopacity="0" inkscape:pageshadow="2" inkscape:window-height="1003" inkscape:window-maximized="1" inkscape:window-width="1680" inkscape:window-x="-4" inkscape:window-y="-4" inkscape:zoom="1.2764184" objecttolerance="10" pagecolor="#ffffff" showgrid="false">
	</sodipodi:namedview>
<path class="st0" d="M96.3,212.4v48h6.7v-48h16.5v-3.1H79.7v3.1H96.3z M156.5,203.4v-3h-30.1v3H156.5z M126.6,260.4h30.2v-3.3h-23.5
	v-22.9h21.4v-3h-21.4v-18.8h23.2v-3.1h-29.9V260.4L126.6,260.4z M166.4,260.4h30.4v-3.3h-23.6v-22.9h21.5v-3h-21.5v-18.8h23.2v-3.1
	h-30V260.4L166.4,260.4z M6.7,260.4H37v-3.3H13.4v-22.9h21.4v-3H13.4v-18.8h23.3v-3.1h-30V260.4L6.7,260.4z M416.6,260.4H447v-3.3
	h-23.5v-22.9h21.4v-3h-21.4v-18.8h23.2v-3h-30V260.4L416.6,260.4z M226.9,260.4h30v-3.3h-23.4v-47.8H227L226.9,260.4L226.9,260.4z
	 M43.4,258.2c4.6,2.4,9.7,3.6,14.8,3.5c10.6,0,20.2-6.1,20.2-16.5c0-17.5-29.1-11.5-29.1-25c0-5,4.7-9.3,11.7-9.3
	c5.1,0.1,10,1.9,13.8,5.3v-4.7c-4.4-2.2-9.2-3.4-14.1-3.4c-9,0-17.3,5.3-17.3,13.9c0,18.3,28.9,11.7,28.9,25.4
	c0,5.6-5.2,11.2-14.1,11.2c-6.9,0-12.3-3.5-14.8-5.1L43.4,258.2L43.4,258.2z M259.5,260.4l21.6-51.6h5.3l8.4,19.9l13.6,31.7h-7.7
	l-8-19.5H272l-7.9,19.5L259.5,260.4z M291.6,237.8c-2.3-5.5-5.8-14.1-9.2-22.6c-3.5,8.9-8,20.1-9.1,22.6H291.6z M312,243.5
	c0,11.5,6.7,18.1,20.5,18.1c14.7,0,20.4-8.5,20.4-17.7v-34.6h-4v34.6c0,9.4-6.3,14.8-15.7,14.8c-8.3,0-14.6-4.3-14.6-13.9v-35.4H312
	V243.5L312,243.5z M456.6,209.3h18.5c9.7-0.2,17.8,3.6,17.8,13.1s-10.7,12.4-13,12.8l16.6,25.3H489L473.3,236h-9.8v24.4h-6.8
	L456.6,209.3L456.6,209.3z M471.4,233.1c8.4,0.1,14.9-3.1,14.9-10.7c0-6.7-4.1-10.4-11.6-10.3h-11.3v21L471.4,233.1z M363,260.5
	v-51.1h19.6c16.3-0.3,25.7,9,25.7,24.9c0,19-13,26.4-28.3,26.2H363z M369.8,257.4h9c13.9,0.2,22.7-5.8,22.7-22.4
	c0-15.2-7.3-23-19.8-22.8h-11.9L369.8,257.4L369.8,257.4z"/>
</svg>
