<?xml version="1.0" encoding="UTF-8" standalone="no"?><!-- Generator: Gravit.io --><svg xmlns="http://www.w3.org/2000/svg" xmlns:xlink="http://www.w3.org/1999/xlink" style="isolation:isolate" viewBox="0 0 150 150" width="150pt" height="150pt"><defs><clipPath id="_clipPath_JpGCmC4DzkIwvuF7LkR376uW8lrJkjb4"><rect width="150" height="150"/></clipPath></defs><g clip-path="url(#_clipPath_JpGCmC4DzkIwvuF7LkR376uW8lrJkjb4)"><path d=" M 4.285 61.853 L 17.143 61.853 L 17.143 78.995 L 8.571 78.995 L 8.571 83.281 L 17.143 83.281 L 4.285 83.281 L 4.285 66.138 L 12.857 66.138 L 12.857 61.853 L 4.285 61.853 Z  M 8.571 70.423 L 12.857 70.423 L 12.857 74.71 L 8.571 74.71 L 8.571 70.423 Z " fill-rule="evenodd" fill="rgb(255,255,255)"/><path d=" M 0 61.853 L 12.857 61.853 L 12.857 66.138 L 4.285 66.138 L 4.285 83.281 L 0 83.281 L 0 61.853 Z  M 21.428 83.281 L 8.571 83.281 L 8.571 78.995 L 17.143 78.995 L 17.143 61.853 L 21.428 61.853 L 21.428 83.281 Z  M 8.571 70.423 L 12.857 70.423 L 12.857 74.71 L 8.571 74.71 L 8.571 70.423 Z " fill-rule="evenodd" fill="rgb(217,135,27)"/><path d=" M 32.519 82.525 L 32.519 69.786 L 30.327 69.786 L 30.327 67.853 L 32.519 67.853 L 32.519 66.291 C 32.519 65.306 32.609 64.57 32.783 64.094 C 33.024 63.447 33.444 62.924 34.048 62.523 C 34.651 62.122 35.496 61.924 36.585 61.924 C 37.282 61.924 38.056 62.004 38.905 62.174 L 38.533 64.344 C 38.019 64.25 37.528 64.202 37.066 64.202 C 36.311 64.202 35.778 64.362 35.467 64.688 C 35.151 65.008 34.995 65.612 34.995 66.499 L 34.995 67.853 L 37.853 67.853 L 37.853 69.786 L 34.995 69.786 L 34.995 82.525 L 32.519 82.525 Z  M 38.863 75.187 C 38.863 72.47 39.618 70.456 41.131 69.15 C 42.391 68.065 43.928 67.518 45.744 67.518 C 47.762 67.518 49.414 68.178 50.691 69.503 C 51.974 70.824 52.611 72.649 52.611 74.979 C 52.611 76.871 52.329 78.356 51.762 79.436 C 51.196 80.521 50.371 81.361 49.291 81.96 C 48.205 82.559 47.027 82.855 45.744 82.855 C 43.692 82.855 42.032 82.199 40.764 80.879 C 39.495 79.563 38.863 77.668 38.863 75.187 Z  M 41.419 75.187 C 41.419 77.069 41.829 78.474 42.65 79.408 C 43.471 80.346 44.503 80.813 45.744 80.813 C 46.979 80.813 48.008 80.342 48.829 79.403 C 49.644 78.464 50.055 77.03 50.055 75.106 C 50.055 73.291 49.644 71.914 48.819 70.98 C 47.994 70.046 46.97 69.579 45.744 69.579 C 44.503 69.579 43.471 70.046 42.65 70.975 C 41.829 71.904 41.419 73.309 41.419 75.187 Z  M 65.105 77.149 L 67.547 77.47 C 67.283 79.153 66.599 80.474 65.497 81.426 C 64.397 82.379 63.044 82.855 61.44 82.855 C 59.436 82.855 57.818 82.199 56.601 80.888 C 55.38 79.577 54.767 77.696 54.767 75.243 C 54.767 73.658 55.031 72.272 55.554 71.083 C 56.082 69.894 56.879 69.003 57.955 68.409 C 59.025 67.815 60.195 67.518 61.455 67.518 C 63.048 67.518 64.354 67.924 65.364 68.73 C 66.378 69.536 67.029 70.678 67.317 72.164 L 64.898 72.536 C 64.666 71.551 64.26 70.81 63.675 70.31 C 63.091 69.814 62.384 69.565 61.554 69.565 C 60.299 69.565 59.28 70.013 58.497 70.913 C 57.714 71.81 57.322 73.229 57.322 75.173 C 57.322 77.144 57.7 78.577 58.46 79.474 C 59.214 80.365 60.2 80.813 61.416 80.813 C 62.393 80.813 63.204 80.511 63.859 79.912 C 64.515 79.313 64.93 78.393 65.105 77.149 Z  M 79.254 80.714 C 78.33 81.497 77.443 82.049 76.594 82.374 C 75.74 82.695 74.825 82.855 73.849 82.855 C 72.236 82.855 71.001 82.464 70.133 81.676 C 69.27 80.888 68.836 79.88 68.836 78.658 C 68.836 77.936 68.996 77.28 69.326 76.686 C 69.651 76.092 70.081 75.616 70.609 75.258 C 71.141 74.899 71.736 74.625 72.401 74.441 C 72.887 74.314 73.622 74.186 74.609 74.069 C 76.617 73.828 78.098 73.545 79.046 73.21 C 79.056 72.871 79.061 72.653 79.061 72.564 C 79.061 71.551 78.825 70.833 78.353 70.423 C 77.721 69.857 76.773 69.579 75.524 69.579 C 74.354 69.579 73.491 69.782 72.929 70.192 C 72.373 70.603 71.962 71.328 71.694 72.371 L 69.265 72.036 C 69.486 70.998 69.849 70.154 70.354 69.517 C 70.859 68.876 71.595 68.381 72.552 68.037 C 73.509 67.692 74.618 67.518 75.882 67.518 C 77.136 67.518 78.15 67.669 78.933 67.961 C 79.716 68.258 80.292 68.625 80.664 69.074 C 81.033 69.522 81.287 70.084 81.438 70.768 C 81.518 71.192 81.561 71.955 81.561 73.059 L 81.561 76.375 C 81.561 78.691 81.612 80.153 81.721 80.762 C 81.825 81.375 82.037 81.964 82.348 82.525 L 79.749 82.525 C 79.495 82.011 79.325 81.407 79.254 80.714 Z  M 79.046 75.158 C 78.141 75.531 76.787 75.842 74.986 76.102 C 73.962 76.247 73.236 76.413 72.816 76.596 C 72.392 76.781 72.061 77.05 71.836 77.408 C 71.604 77.762 71.487 78.153 71.487 78.587 C 71.487 79.252 71.741 79.804 72.241 80.247 C 72.741 80.686 73.477 80.908 74.443 80.908 C 75.401 80.908 76.254 80.7 77 80.28 C 77.745 79.86 78.297 79.285 78.646 78.559 C 78.915 77.998 79.046 77.167 79.046 76.073 L 79.046 75.158 Z  M 85.362 62.269 L 87.847 62.269 L 87.847 82.525 L 85.362 82.525 L 85.362 62.269 Z  M 91.706 88.147 L 91.706 67.853 L 93.969 67.853 L 93.969 69.758 C 94.502 69.013 95.106 68.451 95.78 68.079 C 96.45 67.706 97.266 67.518 98.224 67.518 C 99.478 67.518 100.582 67.844 101.539 68.485 C 102.501 69.13 103.222 70.041 103.708 71.216 C 104.199 72.389 104.444 73.677 104.444 75.078 C 104.444 76.578 104.176 77.932 103.633 79.134 C 103.095 80.337 102.312 81.257 101.284 81.898 C 100.256 82.534 99.176 82.855 98.044 82.855 C 97.214 82.855 96.473 82.681 95.813 82.332 C 95.153 81.983 94.616 81.54 94.191 81.007 L 94.191 88.147 L 91.706 88.147 Z  M 93.955 75.272 C 93.955 77.158 94.337 78.554 95.101 79.46 C 95.865 80.36 96.794 80.813 97.88 80.813 C 98.982 80.813 99.93 80.346 100.718 79.408 C 101.506 78.474 101.902 77.026 101.902 75.063 C 101.902 73.192 101.516 71.795 100.747 70.862 C 99.978 69.933 99.058 69.465 97.992 69.465 C 96.931 69.465 95.992 69.961 95.176 70.952 C 94.361 71.941 93.955 73.385 93.955 75.272 Z  M 107.415 82.525 L 107.415 67.853 L 109.651 67.853 L 109.651 70.074 C 110.222 69.036 110.75 68.347 111.236 68.018 C 111.716 67.688 112.249 67.518 112.83 67.518 C 113.669 67.518 114.518 67.787 115.386 68.319 L 114.528 70.631 C 113.924 70.268 113.316 70.088 112.707 70.088 C 112.16 70.088 111.674 70.254 111.241 70.578 C 110.807 70.909 110.5 71.361 110.316 71.941 C 110.038 72.823 109.901 73.791 109.901 74.842 L 109.901 82.525 L 107.415 82.525 Z  M 116.876 62.269 L 119.366 62.269 L 119.366 65.131 L 116.876 65.131 L 116.876 62.269 Z  M 116.876 67.853 L 119.366 67.853 L 119.366 82.525 L 116.876 82.525 L 116.876 67.853 Z  M 132.729 77.149 L 135.171 77.47 C 134.907 79.153 134.223 80.474 133.119 81.426 C 132.02 82.379 130.667 82.855 129.064 82.855 C 127.059 82.855 125.441 82.199 124.225 80.888 C 123.003 79.577 122.39 77.696 122.39 75.243 C 122.39 73.658 122.654 72.272 123.178 71.083 C 123.706 69.894 124.503 69.003 125.578 68.409 C 126.649 67.815 127.819 67.518 129.078 67.518 C 130.672 67.518 131.978 67.924 132.988 68.73 C 134.002 69.536 134.652 70.678 134.94 72.164 L 132.52 72.536 C 132.289 71.551 131.884 70.81 131.299 70.31 C 130.714 69.814 130.007 69.565 129.176 69.565 C 127.922 69.565 126.904 70.013 126.121 70.913 C 125.338 71.81 124.946 73.229 124.946 75.173 C 124.946 77.144 125.324 78.577 126.082 79.474 C 126.837 80.365 127.824 80.813 129.04 80.813 C 130.016 80.813 130.828 80.511 131.483 79.912 C 132.139 79.313 132.554 78.393 132.729 77.149 Z  M 147.345 77.799 L 149.915 78.115 C 149.509 79.62 148.759 80.785 147.666 81.615 C 146.566 82.44 145.165 82.855 143.463 82.855 C 141.317 82.855 139.614 82.195 138.359 80.874 C 137.101 79.554 136.473 77.7 136.473 75.314 C 136.473 72.843 137.11 70.928 138.378 69.565 C 139.652 68.202 141.298 67.518 143.326 67.518 C 145.288 67.518 146.892 68.187 148.132 69.522 C 149.378 70.857 150 72.738 150 75.158 C 150 75.309 149.995 75.531 149.986 75.823 L 139.043 75.823 C 139.133 77.436 139.591 78.672 140.411 79.525 C 141.232 80.385 142.251 80.813 143.477 80.813 C 144.387 80.813 145.165 80.573 145.812 80.092 C 146.458 79.615 146.968 78.851 147.345 77.799 Z  M 139.18 73.777 L 147.373 73.777 C 147.264 72.545 146.948 71.616 146.434 71.003 C 145.642 70.046 144.614 69.565 143.355 69.565 C 142.213 69.565 141.251 69.947 140.473 70.711 C 139.695 71.475 139.265 72.499 139.18 73.777 Z " fill-rule="evenodd" fill="rgb(20,77,158)"/></g></svg>