<?xml version="1.0" encoding="utf-8"?>
<!-- Generator: Adobe Illustrator 23.0.0, SVG Export Plug-In . SVG Version: 6.00 Build 0)  -->
<svg version="1.1" id="Capa_1" xmlns="http://www.w3.org/2000/svg" xmlns:xlink="http://www.w3.org/1999/xlink" x="0px" y="0px"
	 viewBox="0 0 220 220" style="enable-background:new 0 0 220 220;" xml:space="preserve">
<style type="text/css">
	.st0{fill:#FED900;}
</style>
<g>
	<path class="st0" d="M30.2,89.2c4.9,0,9.8,0,14.7,0c3.5,0,6,2.5,6,6c0,9.8,0,19.6,0,29.3c0,3.7-2.4,6.2-6.1,6.2
		c-9.7,0-19.5,0-29.2,0c-3.8,0-6.2-2.5-6.2-6.3c0-9.7,0-19.4,0-29.2c0-3.7,2.5-6.2,6.2-6.2C20.4,89.2,25.3,89.2,30.2,89.2z"/>
	<path d="M75,108c1.5,0,3,0,4.5,0c2.3,0,3.8,1.8,3.3,4.1c-1.1,5.6-6,9.5-11.7,9.5c-5.6,0-10.4-4.1-11.4-9.7c-0.9-4.9,1.6-9.9,6-12.4
		c4.4-2.4,10.1-1.7,13.6,1.7c1,0.9,1.1,1.8,0.4,2.6c-0.7,0.8-1.7,0.7-2.6-0.1c-2.7-2.4-5.7-3-9-1.6c-3.3,1.4-4.9,4.1-5.2,7.6
		c-0.2,3.8,3,7.7,6.8,8.4c4.1,0.8,8.4-1.6,9.6-5.4c0.3-0.8,0-1.2-0.9-1.2c-2.7,0-5.4,0-8.1,0c-0.9,0-1.6-0.5-1.8-1.4
		c-0.2-1.1,0.6-2,1.8-2C71.8,108,73.4,108,75,108z"/>
	<path d="M186.6,103.3c3.4,0,5.6,1,7.4,2.8c0.9,0.9,0.9,2.1,0.1,2.8c-0.8,0.7-1.8,0.6-2.7-0.4c-1.7-1.8-4.5-2.3-6.7-1.1
		c-0.6,0.3-1.1,0.8-1,1.5c0.1,0.7,0.6,1.1,1.3,1.3c2,0.4,3.9,0.8,5.9,1.3c1.9,0.4,3.1,1.5,3.6,3.3c0.5,1.9-0.1,3.4-1.5,4.7
		c-3.4,3-9.7,2.5-12.5-1c-0.7-0.9-0.7-2,0-2.6c0.7-0.7,1.7-0.6,2.6,0.2c1.7,1.6,3.7,2.5,6,1.6c0.3-0.1,0.5-0.2,0.8-0.4
		c0.6-0.4,1.1-0.8,0.9-1.6c-0.1-0.8-0.7-1-1.4-1.2c-2-0.4-3.9-0.8-5.9-1.2c-2-0.4-3.2-1.7-3.5-3.6c-0.4-2,0.4-3.6,2-4.8
		C183.7,103.9,185.4,103.3,186.6,103.3z"/>
	<path d="M200.5,110.1c0-0.9,0-1.9,0-2.8c0-0.4-0.1-0.6-0.5-0.6c-0.5,0-0.9,0-1.4,0c-1,0-1.7-0.8-1.7-1.7c0-1,0.7-1.6,1.7-1.7
		c0.6,0,1.4,0.3,1.8-0.1c0.4-0.4,0.1-1.2,0.1-1.9c0-0.6,0-1.2,0-1.8c0-1.1,0.7-1.7,1.7-1.7c1,0,1.6,0.7,1.6,1.7c0,1,0,2,0,3
		c0,0.6,0.1,0.8,0.8,0.8c1.4,0,2.8,0,4.3,0c1.1,0,1.8,0.7,1.8,1.7c0,1-0.7,1.7-1.8,1.7c-1.4,0-2.7,0-4.1,0c-0.6,0-0.9,0.1-0.8,0.8
		c0.1,1.7,0,3.3,0,5c0,2.6,1.9,4.9,4.5,5.4c0.3,0.1,0.5,0.1,0.8,0.2c1,0.2,1.5,1,1.4,1.9c-0.1,0.9-0.8,1.5-1.8,1.5
		c-3.2-0.2-5.6-1.9-7.2-4.7c-0.8-1.4-1.2-2.9-1.1-4.5C200.5,111.6,200.5,110.9,200.5,110.1z"/>
	<path d="M131.3,105.2c1.2-0.8,2.4-1.4,3.8-1.7c1-0.2,1.9,0.3,2.1,1.2c0.2,1-0.2,1.9-1.2,2.1c-2.9,0.6-4.9,2.9-4.8,6.6
		c0.1,2.1,0,4.2,0,6.3c0,0.7-0.3,1.3-1,1.6c-0.6,0.3-1.2,0.2-1.8-0.2c-0.6-0.4-0.7-1-0.7-1.6c0-4.7,0-9.4,0-14.2
		c0-1.2,0.5-1.9,1.4-2C130.4,103.3,131.1,103.8,131.3,105.2z"/>
	<path d="M40.4,102.2c0.9,0,1.8,0,2.7,0c1.2,0,2,0.8,2,2.1c0.1,7.7-5.9,14.3-13.7,15c-7.5,0.7-14.6-4.8-15.9-12.2
		c-0.2-0.9-0.2-1.8-0.2-2.6c0-1.3,0.8-2.2,2-2.2c1.2-0.1,2.2,0.8,2.2,2.1c0.1,2.3,0.7,4.4,2,6.2c2.7,3.5,6.2,5.1,10.5,4.3
		c4.2-0.8,7-3.3,8.4-7.4c0.3-1,0.3-1-0.7-1c-0.7,0-1.4,0-2.1,0c-1.3-0.1-2.1-1-2-2.2c0-1.2,0.9-2,2.2-2
		C38.6,102.2,39.5,102.2,40.4,102.2z"/>
	<path d="M156.3,107.5c-1.4-2.3-3.5-3.6-6.2-4.1c-2.6-0.4-5,0.1-7.2,1.8c0-1.1,0-2,0-2.9c0-0.9,0-1.8,0-2.7c0-1.1-0.7-1.8-1.7-1.8
		c-1,0-1.7,0.7-1.7,2c0,3.2,0,6.4,0,9.6c0,3.4,0,6.7,0,10.1c0,1.4,0.9,2.2,2.1,2c0.9-0.2,1.3-0.9,1.4-1.8c4.9,2.8,9,2.4,12.3-1
		C158.1,115.7,158.5,111,156.3,107.5z M148.6,118c-3.1,0-5.5-2.5-5.5-5.6c0-3,2.6-5.6,5.6-5.6c3,0,5.5,2.5,5.5,5.5
		C154.1,115.5,151.7,118,148.6,118z"/>
	<path d="M100,114c2,0,3.5-1.9,3.1-3.7c-1-4.7-5.9-7.9-10.6-6.9c-5,1-8.2,5.8-7.2,10.7c1,5,5.9,8.2,10.9,7.1c1.9-0.4,3.6-1.4,4.9-3
		c0.5-0.6,0.6-1.3,0.2-2c-0.4-0.7-1-0.9-1.7-0.9c-0.7,0-1.1,0.5-1.6,1c-2.9,2.9-7.8,1.6-9.1-2.3c0.4,0,0.7,0,1,0
		C93.3,114,96.6,114.1,100,114z M93.8,106.9c2.2-0.2,3.9,0.7,5.1,2.6c0.4,0.6,0.1,1-0.6,1.1c-0.1,0-0.2,0-0.4,0c-2.9,0-5.9,0-9,0
		C89.9,108.3,91.5,107,93.8,106.9z"/>
	<path d="M164.4,114c1.7,0,3.5,0,5.2,0c1.7,0,3.3,0,5,0c2.3,0,3.7-1.9,3.1-4.1c-1.2-4.5-5.8-7.4-10.3-6.5c-3.6,0.7-6.1,2.9-7.1,6.5
		c-1,3.4-0.2,6.5,2.4,9c2.7,2.6,6,3.3,9.6,2c1.4-0.5,2.6-1.3,3.6-2.5c0.5-0.6,0.6-1.3,0.2-2c-0.3-0.6-0.9-0.9-1.5-0.9
		c-0.8,0-1.2,0.5-1.7,0.9c-2.7,2.6-7.3,1.7-8.9-1.7C163.6,114.2,163.7,114,164.4,114z M170.3,107c1.4,0.4,2.5,1.2,3.3,2.4
		c0.4,0.6,0.2,1.1-0.6,1.1c-2.9,0-5.8,0-8.7,0c-0.2,0-0.3,0-0.5,0C164.5,107.9,167.6,106.3,170.3,107z"/>
	<path d="M123.5,105.1c0-0.6-0.2-1.1-0.7-1.4c-1.2-0.8-2.5,0-2.7,1.6c-4.3-3.2-9.4-2.2-12.3,0.9c-3.1,3.3-3.4,8.4-0.6,11.9
		c2.5,3.2,7.8,5.1,12.8,1.6c0.1,0.3,0.1,0.5,0.2,0.8c0.3,0.8,1,1.2,1.9,1.1c0.8-0.1,1.4-0.8,1.4-1.6
		C123.5,114.9,123.5,110,123.5,105.1z M114.3,117.9c-3.1,0-5.5-2.5-5.5-5.5c0-3.1,2.5-5.6,5.6-5.6c3.1,0,5.5,2.5,5.5,5.6
		C119.9,115.6,117.4,118,114.3,117.9z"/>
</g>
</svg>
