<?xml version="1.0" encoding="UTF-8" standalone="no"?><!-- Generator: Gravit.io --><svg xmlns="http://www.w3.org/2000/svg" xmlns:xlink="http://www.w3.org/1999/xlink" style="isolation:isolate" viewBox="0 0 150 150" width="150pt" height="150pt"><defs><clipPath id="_clipPath_4QwtpSqtI7ItFXlgRPLdVAcGPKwm6Imj"><rect width="150" height="150"/></clipPath></defs><g clip-path="url(#_clipPath_4QwtpSqtI7ItFXlgRPLdVAcGPKwm6Imj)"><g><clipPath id="_clipPath_Bg6JkK73z4ljpfF5sZZKzCsmlv5h3gyk"><path d=" M 0 96.356 L 0 53.644 L 150 53.644 L 150 96.356" fill="rgb(255,255,255)"/></clipPath><g clip-path="url(#_clipPath_Bg6JkK73z4ljpfF5sZZKzCsmlv5h3gyk)"><g><path d=" M 24.131 56.863 C 22.056 55.333 19.464 54.567 16.352 54.567 C 11.956 54.567 8.299 56.06 5.379 59.047 C 2.567 61.911 1.161 65.366 1.161 69.414 C 1.161 73.215 2.458 76.325 5.051 78.742 C 7.999 81.509 11.575 82.889 15.778 82.889 C 19.655 82.889 22.739 81.754 25.032 79.483 C 26.396 78.126 27.093 76.559 27.121 74.781 L 27.202 69.92 L 18.604 69.92 L 18.604 71.715 L 20.291 71.715 C 22.474 71.715 23.566 72.167 23.566 73.683 L 23.566 74.853 C 23.566 76.804 22.802 78.047 21.275 79.133 C 19.854 80.146 18.562 80.651 16.352 80.651 C 14.66 80.651 13.117 80.28 11.725 79.54 C 8.449 77.862 6.81 74.646 6.81 68.82 C 6.81 65.414 7.425 62.9 8.654 60.753 C 10.264 57.94 12.777 56.533 16.188 56.533 C 18.781 56.533 20.951 57.261 22.699 58.717" fill="rgb(0,0,0)"/><path d=" M 46.649 69.844 C 46.739 64.539 44.996 61.886 41.418 61.886 C 37.629 61.886 35.628 64.539 35.415 69.844 L 46.649 69.844 Z  M 48.558 80.486 C 46.769 82.062 44.464 82.849 41.646 82.849 C 38.341 82.849 35.673 81.895 33.642 79.985 C 31.519 78.045 30.459 75.437 30.459 72.163 C 30.459 68.464 31.444 65.515 33.414 63.319 C 35.386 61.12 38.205 60.022 41.872 60.022 C 44.904 60.022 47.299 61.265 49.059 63.75 C 50.544 65.873 51.377 68.54 51.56 71.753 L 35.415 71.753 L 35.415 72.391 C 35.415 74.727 36.006 76.636 37.189 78.12 C 38.462 79.727 40.221 80.531 42.464 80.531 C 44.434 80.531 46.07 79.985 47.376 78.894" fill="rgb(0,0,0)"/><path d=" M 64.759 81.046 C 68.489 81.046 70.353 77.847 70.353 71.45 C 70.353 65.083 68.489 61.9 64.759 61.9 C 61.031 61.9 59.168 65.083 59.168 71.45 C 59.168 77.847 61.031 81.046 64.759 81.046 Z  M 56.983 63.356 C 58.924 61.142 61.516 60.036 64.759 60.036 C 68.004 60.036 70.596 61.142 72.536 63.356 C 74.385 65.447 75.311 68.145 75.311 71.45 C 75.311 74.756 74.385 77.452 72.536 79.544 C 70.596 81.758 68.004 82.865 64.759 82.865 C 61.516 82.865 58.924 81.758 56.983 79.544 C 55.134 77.452 54.21 74.756 54.21 71.45 C 54.21 68.145 55.134 65.447 56.983 63.356 Z " fill="rgb(0,0,0)"/><path d=" M 80.184 78.493 C 80.184 79.433 79.965 80.062 79.526 80.38 C 79.087 80.699 78.381 80.858 77.41 80.858 L 77.137 80.858 L 77.137 82.813 L 88.325 82.813 L 88.325 80.858 L 87.87 80.858 C 86.99 80.858 86.353 80.798 85.958 80.676 C 85.262 80.464 84.914 80.009 84.914 79.311 L 84.914 74.446 C 84.914 71.686 85.413 69.065 86.415 66.577 C 87.719 63.335 89.552 61.713 91.917 61.713 L 92.007 61.713 L 92.007 61.804 C 91.189 62.319 90.781 63.046 90.781 63.987 C 90.781 64.775 91.061 65.411 91.621 65.897 C 92.183 66.382 92.857 66.623 93.645 66.623 C 95.706 66.623 96.737 65.518 96.737 63.305 C 96.737 62.184 96.335 61.273 95.532 60.575 C 94.73 59.878 93.766 59.529 92.646 59.529 C 90.552 59.529 88.778 60.288 87.324 61.804 C 86.173 62.985 85.398 64.396 85.004 66.033 L 84.914 66.033 L 84.914 60.258 L 80.184 60.258" fill="rgb(0,0,0)"/><path d=" M 111.677 61.567 C 111.677 61.567 114.623 56.307 118.174 57.325 C 121.71 58.341 119.586 61.274 117.726 61.567 C 114.673 62.05 115.878 57.679 113.358 60.86 C 110.838 64.042 111.677 61.567 111.677 61.567 Z " fill="rgb(253,221,4)"/><path d=" M 111.681 64.338 C 110.711 62.671 109.362 61.836 107.635 61.836 C 105.907 61.836 104.557 62.685 103.587 64.383 C 102.8 65.779 102.405 67.401 102.405 69.25 C 102.405 71.099 102.812 72.72 103.632 74.114 C 104.604 75.783 105.937 76.617 107.635 76.617 C 109.362 76.617 110.711 75.783 111.681 74.114 C 112.499 72.72 112.91 71.099 112.91 69.25 C 112.91 67.37 112.499 65.733 111.681 64.338 M 114.547 75.889 C 112.546 77.526 110.121 78.344 107.27 78.344 C 102.724 78.344 100.45 79.073 100.45 80.527 C 100.45 82.013 101.508 82.755 103.632 82.755 L 111.681 82.755 C 117.077 82.755 119.775 84.605 119.775 88.304 C 119.775 91.154 118.472 93.26 115.866 94.624 L 114.501 92.761 C 115.743 91.942 116.367 90.987 116.367 89.894 C 116.367 87.439 114.031 86.347 109.363 86.62 C 107.301 86.712 105.602 86.758 104.269 86.758 C 102.572 86.758 101.464 86.667 100.949 86.484 C 98.311 85.968 96.993 84.468 96.993 81.982 C 96.993 79.466 98.706 77.844 102.132 77.117 L 102.132 77.026 C 100.646 76.45 99.492 75.359 98.675 73.751 C 97.947 72.326 97.584 70.75 97.584 69.022 C 97.584 66.414 98.644 64.201 100.768 62.383 C 102.766 60.685 105.103 59.836 107.771 59.836 C 110.408 59.836 112.726 60.715 114.729 62.473 C 116.73 64.232 117.729 66.414 117.729 69.022 C 117.729 71.841 116.668 74.132 114.547 75.889" fill="rgb(0,0,0)"/><path d=" M 135.897 69.815 C 135.988 64.509 134.245 61.857 130.667 61.857 C 126.877 61.857 124.876 64.509 124.664 69.815 L 135.897 69.815 Z  M 137.806 80.455 C 136.017 82.033 133.714 82.821 130.894 82.821 C 127.589 82.821 124.923 81.866 122.893 79.956 C 120.769 78.016 119.706 75.408 119.706 72.134 C 119.706 68.435 120.694 65.487 122.663 63.289 C 124.635 61.09 127.455 59.992 131.123 59.992 C 134.153 59.992 136.549 61.235 138.308 63.721 C 139.793 65.843 140.627 68.511 140.808 71.724 L 124.664 71.724 L 124.664 72.36 C 124.664 74.695 125.256 76.606 126.437 78.09 C 127.712 79.697 129.471 80.501 131.714 80.501 C 133.685 80.501 135.32 79.956 136.625 78.865" fill="rgb(0,0,0)"/><path d=" M 144.043 77.856 C 143.438 78.402 143.135 79.07 143.135 79.857 C 143.135 80.676 143.438 81.358 144.043 81.903 C 144.651 82.449 145.362 82.722 146.181 82.722 C 147 82.722 147.704 82.449 148.298 81.903 C 148.888 81.358 149.182 80.676 149.182 79.857 C 149.182 79.07 148.878 78.402 148.273 77.856 C 147.667 77.31 146.969 77.038 146.181 77.038 C 145.362 77.038 144.651 77.31 144.043 77.856 Z " fill="rgb(0,0,0)"/></g></g></g></g></svg>