<?xml version="1.0" encoding="utf-8"?>
<!-- Generator: Adobe Illustrator 22.1.0, SVG Export Plug-In . SVG Version: 6.00 Build 0)  -->
<svg version="1.1"
	 id="svg2" inkscape:version="0.48.2 r9819" sodipodi:docname="Aeropostale_logo2.svg" xmlns:cc="http://creativecommons.org/ns#" xmlns:dc="http://purl.org/dc/elements/1.1/" xmlns:inkscape="http://www.inkscape.org/namespaces/inkscape" xmlns:rdf="http://www.w3.org/1999/02/22-rdf-syntax-ns#" xmlns:sodipodi="http://sodipodi.sourceforge.net/DTD/sodipodi-0.dtd" xmlns:svg="http://www.w3.org/2000/svg"
	 xmlns="http://www.w3.org/2000/svg" xmlns:xlink="http://www.w3.org/1999/xlink" x="0px" y="0px" viewBox="0 0 500 500"
	 style="enable-background:new 0 0 500 500;" xml:space="preserve">
<sodipodi:namedview  bordercolor="#666666" borderopacity="1" gridtolerance="10" guidetolerance="10" id="namedview35" inkscape:current-layer="svg2" inkscape:cx="305.96738" inkscape:cy="101.65201" inkscape:pageopacity="0" inkscape:pageshadow="2" inkscape:window-height="1003" inkscape:window-maximized="1" inkscape:window-width="1680" inkscape:window-x="-4" inkscape:window-y="-4" inkscape:zoom="1.2764184" objecttolerance="10" pagecolor="#ffffff" showgrid="false">
	</sodipodi:namedview>
<sodipodi:namedview  bordercolor="#666666" borderopacity="1" fit-margin-bottom="0" fit-margin-left="0" fit-margin-right="0" fit-margin-top="0" gridtolerance="10" guidetolerance="10" id="namedview3875" inkscape:current-layer="g3881" inkscape:cx="836.55822" inkscape:cy="-249.2839" inkscape:pageopacity="0" inkscape:pageshadow="2" inkscape:window-height="1028" inkscape:window-maximized="1" inkscape:window-width="1920" inkscape:window-x="-8" inkscape:window-y="-8" inkscape:zoom="0.47532087" objecttolerance="10" pagecolor="#ffffff" showgrid="false">
	</sodipodi:namedview>
<path d="M494.8,290.9c0,2.9-2.8,5.3-6.2,5.3c-1.6,0-3.2-0.6-4.4-1.6c-1.2-1-1.8-2.4-1.8-3.8c0-1.4,0.6-2.8,1.8-3.8
	c1.2-1,2.7-1.6,4.4-1.6c1.7,0,3.2,0.6,4.4,1.6C494.1,288.2,494.8,289.5,494.8,290.9 M488.6,285c-3.8,0-6.9,2.7-6.9,6
	c0,1.6,0.7,3.1,2,4.2c1.3,1.1,3.1,1.8,4.9,1.8c1.9,0,3.6-0.6,4.9-1.8c1.3-1.1,2-2.6,2-4.2c0-1.6-0.7-3.1-2-4.2
	C492.2,285.6,490.4,285,488.6,285"/>
<path d="M487.5,288v2.2c0,0,2.6,0.1,2.6-1.1C490.1,287.7,487.5,288,487.5,288 M487.5,291.6v3.4h-1.7v-8.2c2.1,0,5.8-0.5,5.8,2.3
	c0,1.8-1.5,2.2-1.5,2.2l2,3.7h-1.7l-1.9-3.4L487.5,291.6L487.5,291.6z M375.5,262.2v-25.1c0,0-0.4-11.4-13.7-11.4
	c-8.3,0-13.7,6.3-13.7,11.4c0,8.1,8.6,11.4,13.7,11.4c3.1,0,5.1-0.5,9.7-3.2c0,9.9-0.1,15.7,0,15.7c-3.1,0.7-4.2,1.2-9.7,1.2
	c-16.9,0-30.2-11.5-30.2-25.1c0-17.3,18-25.1,30.2-25.1c15.2,0,30.2,10.1,30.2,25.1c0,9.2,0,9,0,11.5v13.6L375.5,262.2L375.5,262.2z
	 M254,239.1v-25.9l16.6-6.2v35c0,27.4-53,27.4-53,0.5v-15.5l16.6-6.3v18.6C234.3,252.2,254,252,254,239.1"/>
<path d="M328.9,262.8c0,0-8.4,0.4-13.9-2.1c-10-4.6-8.9-18.1-8.9-18.1v-26.3h-10.8v-13.8h10.8V194l16.6-6.5V203h10.8v13.6h-10.8
	v27.1c0,0,0.3,6.4,6.1,6.4L328.9,262.8L328.9,262.8z M275.1,213.2h16.6v49h-16.6V213.2z M275.1,209.4l16.6-0.1v-10.1l-16.6,6.2
	V209.4z"/>
<g>
	<path d="M426.6,209.9v14.5c-12.2,0-11.7,6.2-11.7,12v25.8h-16.6v-34.1C398.3,210.3,415.3,209.9,426.6,209.9 M395.4,162
		c-0.5-1-2.7-1.1-5.1-0.4l-0.7-1.3l0.7-0.3l-0.6-17.6l-15.2-11.8l-0.7,0.3l-0.7-1.3c2.2-1.1,3.5-2.6,3-3.6c-0.6-1.1-3.3-1.1-6.1,0
		c-2.8,1.1-4.6,2.9-4,4c0.5,1,2.7,1.1,5.1,0.4l0.7,1.3l-12.7,5l-0.7-1.3c2.2-1.1,3.5-2.6,2.9-3.6c-0.6-1.1-3.3-1.1-6.1,0
		c-2.8,1.1-4.6,2.9-4,4c0.5,1,2.7,1.1,5.1,0.4l0.7,1.3l-12.2,4.8l-0.7-1.3c2.2-1.1,3.5-2.6,2.9-3.6c-0.6-1.1-3.3-1.1-6.1,0
		c-2.8,1.1-4.5,2.9-4,4c0.5,1,2.7,1.1,5.1,0.4l0.7,1.3l-1.5,0.6l-4.6,11.1l-170.4,66.8c-8.1-6.2-21.8-7.5-34.4-2.4
		c-16,6.3-24.2,20.3-18.4,31.2c5.8,10.9,23.5,14.6,39.6,8.3c11.5-4.6,19-13.1,20.1-21.6l8.4-3.4c0.6-0.2,5.7-1.7,11.4,3.2
		c3.4,6.5,6.4,13.5,4.5,17.9c-0.3,0.8-1.4,3.2-7.1,5.4c-3.8,1.4-7.1,2.1-11.2,2.9c-6.2,1.2-13.9,2.7-25.8,7.4
		c-10.3,4.1-16.2,12-22.3,20.4c-8.2,11.2-17.6,23.9-40.7,33c-6.2,2.4-11.8,2.8-17.3,1c-17-5.4-30.1-29.8-34.3-37.9
		C30,270.7,19,247.4,25,233.5c1.8-4.2,5.2-7.3,10.4-9.3c23.4-9.3,40.1-8.6,54.8-8c10.8,0.4,21,0.9,30.9-3.1
		c11.9-4.7,17-8.3,21.1-11.1c2.7-1.9,4.7-3.3,8.3-4.7c4.9-1.9,9.6-2.1,14-0.7c6.7,2.3,11.4,7.8,13.5,12.2l13.7-4.9
		c-4.2-8.8-12.4-16-21.8-19.1c-8.2-2.8-17.1-2.4-25.7,0.9c-5.3,2.1-8.5,4.3-11.5,6.4c-3.6,2.5-7.7,5.4-17.9,9.4
		c-6.7,2.7-14.3,2.3-24,1.9c-15.6-0.7-35-1.5-61.7,9.1c-8.8,3.5-14.9,9-18.1,16.5c-7.8,18.1,3.5,43.3,14.2,63.3
		c8.6,16,22.3,38,42.7,44.5c9.3,2.9,18.9,2.5,28.7-1.4c27-10.7,38.1-25.7,47-37.8c5.4-7.3,9.6-13.1,16-15.6
		c10.5-4.2,17-5.4,22.8-6.6c4.6-0.9,8.9-1.7,14-3.7c7.5-2.9,12.5-7.1,14.9-12.6c4.5-10.4-1.7-21.9-7.2-32.1l-1.1-2.1l141.2-56.3
		l12.9,4.3l1.5-0.6l0.7,1.3c-2.2,1.1-3.5,2.6-2.9,3.6c0.6,1.1,3.3,1.1,6.1,0c2.8-1.1,4.6-2.9,4-4c-0.5-1-2.7-1.1-5.1-0.4l-0.7-1.3
		l12.2-4.8l0.7,1.3c-2.2,1.1-3.5,2.6-2.9,3.6c0.6,1.1,3.3,1.1,6.1,0c2.8-1.1,4.6-2.9,4-4c-0.5-1-2.7-1.1-5.1-0.4l-0.7-1.3l12.7-5
		l0.7,1.3c-2.2,1.1-3.5,2.6-2.9,3.6c0.6,1.1,3.3,1.1,6.1,0C394.2,164.9,396,163.1,395.4,162 M382.9,337.1c0,0-8.1,0.4-13.4-2.1
		c-9.4-4.4-8.6-20.3-8.6-20.3v-27.9h-10.5v-14h10.5v-5.9H377l0,6.4h10.5v13.7H377V318c0,0,0.3,6.5,5.9,6.5L382.9,337.1L382.9,337.1z
		"/>
	<path d="M250,336.1c-14.1,13.8-29,13.6-34.7,13.6c-28.6,0-46-20.9-46-39.6c0-16.9,13.2-35.3,38.8-38.9c16.2-2.3,31.9,3,42.8,13.6
		c-3.5,2.2-11.5,7.5-11.5,7.5c-8.7-6.8-14.8-9.1-24.1-9.1c-7.5,0-31.5,5.3-31.5,27.1c0,14.3,13.2,27.2,31.5,27.1
		c13.7-0.1,19.7-6.1,23.4-9.1L250,336.1z M336.5,308.5v28.2h16.1v-32.3c0-27.4-51.2-27.4-51.2-0.5v32.8h16.1V308
		C317.5,295.6,336.5,295.3,336.5,308.5 M477.5,284.5v14.5c-11.8,0-11.3,6.2-11.3,12v25.6h-16.1v-33.9
		C450.2,286.6,466.7,284.5,477.5,284.5 M406.4,301.1c0,0-6.5,5.1-3.4,11.8l17.1-14.8C420.1,298.1,413.8,295.3,406.4,301.1
		 M411,324.3c-0.1,0.1,3.8,0.6,4.9,0.6c8.5,0,12.7-5.2,12.7-5.2s14,0,16,0c0,0-3.7,8.3-10.4,12c-25.6,14.2-41.9-3.4-45.1-8
		c-4.8-7-7.4-27.1,10.8-35.8c27.3-13.1,42.6,9.6,42.6,9.6L411,324.3L411,324.3z"/>
	<path d="M260.4,301.1c0,0-6.5,5-3.4,11.8l17.2-14.8C274.1,298.1,267.8,295.3,260.4,301.1 M298.7,319.7c0,0-3.7,8.3-10.4,12
		c-25.6,14.2-41.9-3.4-45.1-8c-4.8-7-7.4-27.1,10.8-35.8c27.4-13.1,42.6,9.6,42.6,9.6L265,324.3c-0.1,0.1,3.8,0.6,4.9,0.6
		c8.5,0,12.7-5.2,12.7-5.2L298.7,319.7L298.7,319.7z"/>
</g>
</svg>
