<svg width="210" height="35" viewBox="0 0 210 35" fill="none" xmlns="http://www.w3.org/2000/svg">
<path d="M3.48679 16.996V4.56685H0.107544V1.2352H10.6694V4.56685H7.31394V16.996H3.48679Z" fill="#30302F"/>
<path d="M12.2604 16.996V1.2352H21.759V4.56685H16.0884V7.33161H21.5941V10.6633H16.0884V13.6643H21.759V16.996H12.2604Z" fill="#30302F"/>
<path d="M32.3983 16.996L29.7992 11.8684L27.224 16.996H22.8521L27.4127 8.9388L23.1121 1.23605H27.4832L29.7992 6.05675L32.0914 1.23605H36.4863L32.2096 8.91585L36.7702 16.9968H32.3983V16.996Z" fill="#30302F"/>
<path d="M46.4719 16.996V10.5689H41.8883V16.996H38.0603V1.2352H41.8883V7.21348H46.4719V1.2352H50.2999V16.996H46.4719Z" fill="#30302F"/>
<path d="M52.8785 16.996V1.2352H56.7065V9.55243L61.2196 1.2352H65.0943V16.996H61.2672V8.27672L56.5179 16.996H52.8785Z" fill="#30302F"/>
<path d="M75.6358 16.996L72.4928 11.231L71.501 12.8841V16.996H67.673V1.2352H71.501V7.89935L75.3995 1.2352H79.842L74.9032 8.60818L80.1488 16.996H75.6358Z" fill="#30302F"/>
<path d="M90.5551 16.996L89.9644 14.5856H85.4981L84.9082 16.996H80.7726L85.4276 1.2352H90.0349L94.6907 16.996H90.5551ZM87.7436 5.20514L86.2554 11.254H89.2088L87.7436 5.20514Z" fill="#30302F"/>
<path d="M100.271 14.7751L102.468 12.3172C103.341 13.3099 104.736 13.9006 105.964 13.9006C107.547 13.9006 108.256 13.1679 108.256 12.2466C108.256 11.1596 107.406 10.71 105.798 10.71H103.27V7.35539H105.68C107.098 7.35539 108.019 6.88199 108.019 5.91394C108.019 4.8745 107.098 4.37815 105.774 4.37815C104.64 4.37815 103.388 4.8745 102.585 5.79581L100.481 3.57499C101.709 1.94401 103.742 0.999756 106.152 0.999756C109.555 0.999756 111.871 2.53555 111.871 5.30031C111.871 7.04943 110.524 8.53762 108.729 8.86823C110.5 9.10366 112.107 10.546 112.107 12.6248C112.107 15.3896 109.626 17.2807 106.153 17.2807C103.508 17.2798 101.357 16.1928 100.271 14.7751Z" fill="#30302F"/>
<path d="M113.339 13.9006C114.545 13.711 115.276 13.2623 115.631 9.43429L116.41 1.2352H126.405V13.6643H127.659V19.9027H123.831V16.996H117.167V19.9027H113.339V13.9006ZM117.947 13.6643H122.577V4.56685H119.885L119.459 9.29321C119.294 11.3253 118.726 12.7192 117.947 13.6643Z" fill="#30302F"/>
<path d="M128.492 9.12748C128.492 4.37817 131.115 0.975128 135.368 0.975128C139.622 0.975128 142.245 4.37817 142.245 9.12748C142.245 13.8768 139.622 17.2798 135.368 17.2798C131.115 17.2798 128.492 13.8768 128.492 9.12748ZM138.369 9.12748C138.369 6.38651 137.306 4.35438 135.368 4.35438C133.454 4.35438 132.391 6.38736 132.391 9.12748C132.391 11.8446 133.454 13.9006 135.368 13.9006C137.306 13.9006 138.369 11.8455 138.369 9.12748Z" fill="#30302F"/>
<path d="M144.109 16.996V1.2352H150.442C153.868 1.2352 155.569 3.64555 155.569 6.43326C155.569 9.19802 153.868 11.5854 150.442 11.5854H147.937V16.996H144.109ZM151.694 6.41031C151.694 5.25273 150.986 4.56685 149.969 4.56685H147.937V8.25377H149.969C150.986 8.25377 151.694 7.56789 151.694 6.41031Z" fill="#30302F"/>
<path d="M156.753 9.12748C156.753 4.37817 159.376 0.975128 163.629 0.975128C167.883 0.975128 170.505 4.37817 170.505 9.12748C170.505 13.8768 167.883 17.2798 163.629 17.2798C159.376 17.2798 156.753 13.8768 156.753 9.12748ZM166.63 9.12748C166.63 6.38651 165.567 4.35438 163.629 4.35438C161.715 4.35438 160.652 6.38736 160.652 9.12748C160.652 11.8446 161.715 13.9006 163.629 13.9006C165.567 13.9006 166.63 11.8455 166.63 9.12748Z" fill="#30302F"/>
<path d="M172.37 16.996V1.2352H179.553C182.53 1.2352 183.853 3.22059 183.853 5.25273C183.853 7.21433 182.742 8.51384 181.254 8.86825C182.884 9.12833 184.112 10.7585 184.112 12.7192C184.112 15.0352 182.766 16.996 179.788 16.996H172.37ZM179.955 5.93776C179.955 5.087 179.481 4.51926 178.608 4.51926H176.198V7.35541H178.608C179.481 7.35541 179.955 6.81232 179.955 5.93776ZM180.214 12.1753C180.214 11.2778 179.67 10.6395 178.726 10.6395H176.197V13.7111H178.726C179.671 13.7119 180.214 13.168 180.214 12.1753Z" fill="#30302F"/>
<path d="M189.948 1.2352V6.64659H192.453C195.879 6.64659 197.579 9.03314 197.579 11.7979C197.579 14.5856 195.879 16.996 192.453 16.996H186.12V1.2352H189.948ZM189.948 9.97824V13.6643H191.98C192.996 13.6643 193.705 12.9784 193.705 11.8208C193.705 10.6633 192.996 9.97824 191.98 9.97824H189.948Z" fill="#30302F"/>
<path d="M198.312 16.996L200.958 10.8995C199.8 10.3802 198.406 9.03314 198.406 6.36272C198.406 3.45602 200.391 1.2352 203.462 1.2352H209.866V16.996H206.062V11.5854H204.643L202.54 16.996H198.312ZM206.063 8.25377V4.56685H204.055C203.039 4.56685 202.306 5.25273 202.306 6.41031C202.306 7.56789 203.038 8.25377 204.055 8.25377H206.063Z" fill="#30302F"/>
<path d="M2.92247 33.2471C3.40012 33.2471 3.79533 32.9004 4.02226 32.3496L4.32143 31.6569L1.78699 25.6778H3.08991L4.60869 29.6359C4.72853 29.935 4.83647 30.3651 4.83647 30.3651H4.86027C4.86027 30.3651 4.95631 29.958 5.0634 29.6469L6.53374 25.677H7.78907L4.94356 32.8154C4.5849 33.7596 3.83103 34.2381 2.98282 34.2381C2.31309 34.2381 1.82268 33.8676 1.82268 33.8676L2.22979 32.9828C2.22894 32.9845 2.56381 33.2471 2.92247 33.2471Z" fill="#52AE33"/>
<path d="M9.31125 25.6778H10.6023L12.1449 29.0979C12.3123 29.4565 12.4797 29.9104 12.4797 29.9104H12.5035C12.5035 29.9104 12.6828 29.4676 12.8384 29.0979L14.4167 25.6778H15.6839L16.21 31.7283H15.0864L14.8229 28.1298C14.811 27.7712 14.8348 27.0887 14.8348 27.0887H14.811C14.811 27.0887 14.6555 27.5077 14.4286 27.9734L12.9939 30.9991H12.0012L10.5666 27.9862C10.3753 27.5434 10.1841 27.0887 10.1841 27.0887H10.1603C10.1603 27.0887 10.196 27.7712 10.1722 28.1298L9.90874 31.7283H8.78516L9.31125 25.6778Z" fill="#52AE33"/>
<path d="M18.0739 25.6778H19.234V28.1409H22.2954V25.6778H23.4555V31.7283H22.2954V29.1336H19.234V31.7283H18.0739V25.6778Z" fill="#52AE33"/>
<path d="M28.6756 27.9616H28.9867V27.8417C28.9867 26.849 28.413 26.5142 27.6591 26.5142C27.0616 26.5142 26.4514 26.753 25.961 27.0997L25.4944 26.2507C25.9848 25.8436 26.9052 25.5334 27.7543 25.5334C29.2731 25.5334 30.1451 26.3697 30.1451 27.9004V31.7267H29.0572V31.1164C29.0572 30.8419 29.0929 30.6388 29.0929 30.6388H29.0691C28.7223 31.3323 27.9812 31.8703 27.0846 31.8703C26.0324 31.8703 25.0643 31.2133 25.0643 30.077C25.0652 28.1766 27.4203 27.9616 28.6756 27.9616ZM27.3608 30.9515C28.3773 30.9515 28.9867 29.9231 28.9867 29.0256V28.7979H28.6875C27.8265 28.7979 26.2245 28.8701 26.2245 29.9826C26.2245 30.4611 26.6078 30.9515 27.3608 30.9515Z" fill="#52AE33"/>
<path d="M32.9591 29.72C33.0909 29.5041 33.2337 29.3486 33.2337 29.3486V29.3375C32.5401 29.1455 31.9188 28.5004 31.9188 27.5799C31.9188 26.3365 32.8036 25.6787 34.0827 25.6787H36.4982V31.7292H35.338V29.5415H34.3215L32.8384 31.7292H31.5593L32.9591 29.72ZM35.338 28.6916V26.4793H34.3691C33.5923 26.4793 33.09 26.7895 33.09 27.5672C33.09 28.3202 33.628 28.6908 34.3334 28.6908H35.338V28.6916Z" fill="#52AE33"/>
<path d="M43.2227 26.6705H41.1183V25.6778H46.4872V26.6705H44.3709V31.7283H43.2227V26.6705Z" fill="#52AE33"/>
<path d="M50.4495 25.535C52.1595 25.535 53.068 26.8142 53.068 28.3686C53.068 28.5242 53.0442 28.6916 53.0204 28.8582H48.6204C48.6799 30.162 49.6131 30.8674 50.701 30.8674C51.3461 30.8674 52.0039 30.592 52.4824 30.162L52.9728 31.011C52.3873 31.549 51.4668 31.872 50.6296 31.872C48.7284 31.872 47.4127 30.4968 47.4127 28.7027C47.4127 26.7785 48.7275 25.535 50.4495 25.535ZM51.896 28.0219C51.8603 26.9816 51.2144 26.4317 50.4257 26.4317C49.529 26.4317 48.8236 27.0173 48.6561 28.0219H51.896Z" fill="#52AE33"/>
<path d="M56.0921 28.6194L54.1433 25.6778H55.4708L56.5944 27.5196C56.6786 27.6751 56.7865 27.8782 56.7865 27.8782H56.8103C56.8103 27.8782 56.9301 27.6751 57.0134 27.5196L58.137 25.6778H59.4646L57.5157 28.6194L59.5844 31.7283H58.2688L57.0015 29.7073C56.9063 29.5636 56.8103 29.3843 56.8103 29.3843H56.7865C56.7865 29.3843 56.7024 29.5636 56.6072 29.7073L55.34 31.7283H54.0251L56.0921 28.6194Z" fill="#52AE33"/>
<path d="M60.9408 25.6778H62.1009V28.1409H65.1623V25.6778H66.3224V31.7283H65.1623V29.1336H62.1009V31.7283H60.9408V25.6778Z" fill="#52AE33"/>
<path d="M68.3988 25.6778H69.5113V29.2891C69.5113 29.6121 69.4875 30.043 69.4756 30.1025H69.4994C69.547 29.9945 69.8343 29.5764 70.0374 29.2891L72.6441 25.6778H73.7685V31.7283H72.6441V28.1171C72.6441 27.8307 72.6798 27.4116 72.6798 27.3165H72.656C72.6203 27.4244 72.3211 27.8307 72.1299 28.1171L69.5113 31.7283H68.3988V25.6778Z" fill="#52AE33"/>
<path d="M75.8389 25.6778H76.999V28.1171H77.8481L79.4986 25.6778H80.8134L78.7932 28.5599V28.5837L81.0531 31.7283H79.6779L77.8719 29.1098H76.999V31.7283H75.8389V25.6778Z" fill="#52AE33"/>
<path d="M85.4318 27.9616H85.742V27.8417C85.742 26.849 85.1675 26.5142 84.4145 26.5142C83.817 26.5142 83.2068 26.753 82.7164 27.0997L82.2498 26.2507C82.7402 25.8436 83.6606 25.5334 84.5097 25.5334C86.0285 25.5334 86.9013 26.3697 86.9013 27.9004V31.7267H85.8126V31.1164C85.8126 30.8419 85.8491 30.6388 85.8491 30.6388H85.8253C85.4786 31.3323 84.7375 31.8703 83.8408 31.8703C82.7886 31.8703 81.8206 31.2133 81.8206 30.077C81.8206 28.1766 84.1757 27.9616 85.4318 27.9616ZM84.1162 30.9515C85.1327 30.9515 85.742 29.9231 85.742 29.0256V28.7979H85.4429C84.5819 28.7979 82.9798 28.8701 82.9798 29.9826C82.9807 30.4611 83.3631 30.9515 84.1162 30.9515Z" fill="#52AE33"/>
<path d="M92.0713 30.7722C92.9204 29.6121 93.0156 27.7227 93.0156 26.7895V25.677H97.1054V30.7713H97.9663V33.1621H96.9022V31.7275H92.4189V33.1621H91.3311V30.7713H92.0713V30.7722ZM95.9461 30.7722V26.6229H94.1281V26.9459C94.1281 27.8536 94.0321 29.5764 93.2663 30.7722H95.9461Z" fill="#52AE33"/>
<path d="M99.0619 30.7484C99.9466 30.6167 100.425 29.7319 100.425 27.5434V25.6778H104.479V31.7283H103.319V26.6348H101.538V27.5434C101.538 30.2818 100.844 31.6926 99.0627 31.7878V30.7484H99.0619Z" fill="#52AE33"/>
<path d="M107.36 29.72C107.491 29.5041 107.635 29.3486 107.635 29.3486V29.3375C106.942 29.1455 106.319 28.5004 106.319 27.5799C106.319 26.3365 107.204 25.6787 108.484 25.6787H110.899V31.7292H109.739V29.5415H108.724L107.241 31.7292H105.961L107.36 29.72ZM109.739 28.6916V26.4793H108.771C107.994 26.4793 107.491 26.7895 107.491 27.5672C107.491 28.3202 108.029 28.6908 108.735 28.6908H109.739V28.6916Z" fill="#52AE33"/>
<path d="M116.116 30.2223C116.392 30.5096 116.965 30.9396 117.695 30.9396C118.388 30.9396 118.95 30.6048 118.95 29.9469C118.95 29.3622 118.555 29.0265 117.706 29.0265H116.965V28.1902H117.598C118.281 28.1902 118.748 27.9267 118.748 27.3173C118.748 26.7555 118.34 26.4444 117.671 26.4444C117.145 26.4444 116.666 26.6246 116.2 26.9705L115.769 26.1937C116.236 25.847 116.919 25.5367 117.875 25.5367C119.023 25.5367 119.92 26.0985 119.92 27.1745C119.92 27.9284 119.512 28.3465 119.035 28.5497V28.5735C119.644 28.7647 120.122 29.2194 120.122 29.9962C120.122 31.2396 119.046 31.8737 117.802 31.8737C116.869 31.8737 116.081 31.4666 115.578 30.9889L116.116 30.2223Z" fill="#52AE33"/>
<path d="M121.952 30.7722C122.802 29.6121 122.896 27.7227 122.896 26.7895V25.677H126.986V30.7713H127.847V33.1621H126.782V31.7275H122.298V33.1621H121.211V30.7713H121.952V30.7722ZM125.826 30.7722V26.6229H124.008V26.9459C124.008 27.8536 123.912 29.5764 123.147 30.7722H125.826Z" fill="#52AE33"/>
<path d="M132.122 25.535C133.928 25.535 135.386 26.8626 135.386 28.6916C135.386 30.5325 133.928 31.872 132.134 31.872C130.328 31.872 128.87 30.5325 128.87 28.6916C128.87 26.8617 130.328 25.535 132.122 25.535ZM132.134 30.8674C133.27 30.8674 134.214 29.9588 134.214 28.6908C134.214 27.4346 133.27 26.5388 132.134 26.5388C130.986 26.5388 130.054 27.4354 130.054 28.6908C130.054 29.9588 130.987 30.8674 132.134 30.8674Z" fill="#52AE33"/>
<path d="M137.057 25.6778H138.133V26.2167C138.133 26.4674 138.097 26.6705 138.097 26.6705H138.121C138.503 25.9413 139.269 25.535 140.153 25.535C141.792 25.535 142.808 26.8261 142.808 28.7035C142.808 30.6294 141.66 31.8728 140.07 31.8728C139.305 31.8728 138.611 31.4904 138.193 30.8444H138.169C138.169 30.8444 138.217 31.0595 138.217 31.3705V34.12H137.058V25.6778H137.057ZM139.891 30.8674C140.847 30.8674 141.636 30.0897 141.636 28.7154C141.636 27.3997 140.931 26.5507 139.926 26.5507C139.018 26.5507 138.181 27.1966 138.181 28.7273C138.181 29.8033 138.779 30.8674 139.891 30.8674Z" fill="#52AE33"/>
<path d="M147.387 25.535C149.193 25.535 150.652 26.8626 150.652 28.6916C150.652 30.5325 149.193 31.872 147.399 31.872C145.594 31.872 144.135 30.5325 144.135 28.6916C144.135 26.8617 145.594 25.535 147.387 25.535ZM147.399 30.8674C148.535 30.8674 149.479 29.9588 149.479 28.6908C149.479 27.4346 148.535 26.5388 147.399 26.5388C146.252 26.5388 145.319 27.4354 145.319 28.6908C145.319 29.9588 146.252 30.8674 147.399 30.8674Z" fill="#52AE33"/>
<path d="M152.344 25.6778H154.843C156.063 25.6778 156.864 26.2167 156.864 27.2323C156.864 27.8179 156.553 28.3202 156.003 28.5599V28.5726C156.756 28.752 157.151 29.3375 157.151 30.0073C157.151 31.1309 156.242 31.7283 154.927 31.7283H152.344V25.6778ZM154.64 28.2369C155.334 28.2369 155.681 27.8782 155.681 27.3165C155.681 26.7666 155.335 26.4801 154.605 26.4801H153.505V28.2369H154.64ZM154.748 30.915C155.584 30.915 155.98 30.5325 155.98 29.9707C155.98 29.3732 155.537 29.0146 154.736 29.0146H153.505V30.915H154.748Z" fill="#52AE33"/>
<path d="M161.687 25.535C163.493 25.535 164.952 26.8626 164.952 28.6916C164.952 30.5325 163.493 31.872 161.7 31.872C159.894 31.872 158.435 30.5325 158.435 28.6916C158.434 26.8617 159.894 25.535 161.687 25.535ZM161.699 30.8674C162.835 30.8674 163.779 29.9588 163.779 28.6908C163.779 27.4346 162.835 26.5388 161.699 26.5388C160.55 26.5388 159.618 27.4354 159.618 28.6908C159.618 29.9588 160.551 30.8674 161.699 30.8674Z" fill="#52AE33"/>
<path d="M166.618 25.6778H167.73V29.2891C167.73 29.6121 167.706 30.043 167.694 30.1025H167.718C167.765 29.9945 168.053 29.5764 168.256 29.2891L170.862 25.6778H171.986V31.7283H170.862V28.1171C170.862 27.8306 170.898 27.4116 170.898 27.3164H170.874C170.839 27.4244 170.539 27.8306 170.348 28.1171L167.73 31.7283H166.618V25.6778ZM167.515 23.4544V23.2751H168.448V23.4417C168.448 23.9678 168.866 24.2313 169.284 24.2313C169.702 24.2313 170.133 23.9678 170.133 23.4307V23.2751H171.054V23.4544C171.054 24.4344 170.217 24.9851 169.284 24.9851C168.364 24.9843 167.515 24.4344 167.515 23.4544Z" fill="#52AE33"/>
<path d="M177.24 25.6778H178.399V28.1171H179.248L180.898 25.6778H182.213L180.193 28.5599V28.5837L182.452 31.7283H181.077L179.271 29.1098H178.399V31.7283H177.24V25.6778Z" fill="#52AE33"/>
<path d="M184.421 33.2471C184.899 33.2471 185.293 32.9004 185.521 32.3496L185.82 31.6569L183.286 25.6778H184.588L186.107 29.6359C186.227 29.935 186.335 30.3651 186.335 30.3651H186.358C186.358 30.3651 186.454 29.958 186.562 29.6469L188.032 25.677H189.288L186.442 32.8154C186.083 33.7596 185.33 34.2381 184.481 34.2381C183.811 34.2381 183.321 33.8676 183.321 33.8676L183.728 32.9828C183.727 32.9845 184.061 33.2471 184.421 33.2471Z" fill="#52AE33"/>
<path d="M192.324 28.6194L190.375 25.6778H191.703L192.827 27.5196C192.911 27.6751 193.019 27.8782 193.019 27.8782H193.042C193.042 27.8782 193.161 27.6751 193.246 27.5196L194.369 25.6778H195.697L193.747 28.6194L195.817 31.7283H194.501L193.234 29.7073C193.139 29.5636 193.042 29.3843 193.042 29.3843H193.019C193.019 29.3843 192.935 29.5636 192.839 29.7073L191.571 31.7283H190.256L192.324 28.6194Z" fill="#52AE33"/>
<path d="M197.172 25.6778H198.332V28.1409H201.394V25.6778H202.554V31.7283H201.394V29.1336H198.332V31.7283H197.172V25.6778Z" fill="#52AE33"/>
<path d="M204.631 25.6778H205.744V29.2891C205.744 29.6121 205.72 30.043 205.708 30.1025H205.731C205.779 29.9945 206.067 29.5764 206.269 29.2891L208.876 25.6778H210V31.7283H208.876V28.1171C208.876 27.8307 208.911 27.4116 208.911 27.3165H208.888C208.852 27.4244 208.553 27.8307 208.362 28.1171L205.744 31.7283H204.631V25.6778Z" fill="#52AE33"/>
</svg>
