<?xml version="1.0" encoding="UTF-8" standalone="no"?><!-- Generator: Gravit.io --><svg xmlns="http://www.w3.org/2000/svg" xmlns:xlink="http://www.w3.org/1999/xlink" style="isolation:isolate" viewBox="0 0 150 150" width="150pt" height="150pt"><defs><clipPath id="_clipPath_rUQFnds6gfptzLGq7kW6x39iezICSAwN"><rect width="150" height="150"/></clipPath></defs><g clip-path="url(#_clipPath_rUQFnds6gfptzLGq7kW6x39iezICSAwN)"><g><path d=" M 105.414 28.525 C 110.863 25.849 113.563 26.2 113.623 28.913 C 113.696 32.436 113.175 37.122 112.8 40.512 C 110.778 58.938 107.4 73.996 107.146 92.915 C 116.045 69.876 123.503 53.864 133.116 34.143 C 136.168 27.859 138.117 29.034 140.623 27.92 C 150.382 23.573 150.746 26.237 149.474 31.552 C 144.74 51.239 132.62 113.225 130.768 122.77 C 130.235 125.532 127.232 124.361 126.457 123.281 C 122.983 118.474 119.06 118.399 119.495 115.203 C 121.675 99.289 129.52 59.363 131.567 49.956 C 121.142 71.328 110.33 98.046 104.772 113.195 C 103.598 116.412 101.455 116.176 100.123 113.822 C 98.246 110.516 94.602 108.828 93.996 104.921 C 92.096 92.499 96.176 68.821 96.745 53.841 C 91.067 70.205 81.538 101.974 77.361 116.327 C 75.641 122.266 69.902 121.297 71.428 115.509 C 77.772 91.421 91.442 48.818 97.35 33.501 C 98.743 29.893 102.387 30.014 105.414 28.525 Z " fill="rgb(204,7,30)"/><path d=" M 70.811 25.571 C 68.971 25.123 63.631 28.004 60.35 28.573 C 59.309 28.755 58.316 29.857 57.964 30.644 C 52.71 42.715 48 54.222 43.92 64.705 C 38.701 65.596 32.599 66.769 25.77 68.303 C 30.662 55.756 35.602 43.381 40.421 31.479 C 42.794 25.619 36.546 25.062 34.124 30.995 C 30.976 38.708 25.08 53.158 18.554 70.001 C 13.759 71.177 8.674 72.52 3.359 74.056 C -0.504 75.171 -0.661 76.2 1.01 78.516 C 1.93 79.806 3.831 79.676 4.703 80.595 C 6.955 82.977 8.323 85.826 12.355 86.257 C 8.759 95.876 5.163 105.796 1.906 115.348 C -0.141 121.343 5.683 122.57 7.923 116.225 C 11.531 105.998 15.333 95.647 19.244 85.327 C 22.501 84.57 30.383 82.872 37.66 81.293 C 31.884 97.123 28.082 109.145 26.642 114.996 C 26.375 116.122 26.823 116.747 27.065 117.206 C 29.015 120.043 30.867 120.159 33.373 123.666 C 34.052 124.623 36.328 125.139 37.103 122.784 C 42.454 106.619 47.963 91.452 53.097 77.855 C 55.228 77.389 59.066 76.462 61.415 72.957 C 65.592 66.736 66.79 67.998 67.796 66.106 C 69.055 63.732 68.219 61.503 63.764 62.054 C 63.764 62.054 62.081 62.174 58.969 62.528 C 63.909 49.809 68.231 39.021 71.343 30.801 C 72.409 28.016 72.542 25.982 70.811 25.571 Z " fill="rgb(204,7,30)"/><path d=" M 63.522 108.065 C 64.672 110.972 68.268 110.092 66.9 106.583 C 65.507 103.009 62.045 92.249 61.137 88.782 C 59.902 84.111 65.253 85.388 62.541 88.442 C 60.217 91.068 58.667 92.12 54.368 97.114 C 50.216 101.934 51.342 108.189 55.785 109.57 C 60.798 111.129 65.217 105.606 67.953 101.554 C 70.605 97.63 68.038 95.328 65.362 97.648 C 63.643 99.139 61.657 101.43 59.647 102.665 C 58.013 103.659 56.729 102.591 58.909 99.591 C 61.439 96.117 64.272 93.207 66.379 89.924 C 70.677 83.235 62.178 79.379 58.521 83.724 C 56.56 86.04 57.056 88.314 57.589 90.266 C 58.449 93.392 61.645 103.371 63.522 108.065 Z " fill="rgb(204,7,30)"/></g></g></svg>