<?xml version="1.0" encoding="utf-8"?>
<!-- Generator: Adobe Illustrator 23.0.0, SVG Export Plug-In . SVG Version: 6.00 Build 0)  -->
<svg version="1.1" id="Layer_1" xmlns="http://www.w3.org/2000/svg" xmlns:xlink="http://www.w3.org/1999/xlink" x="0px" y="0px"
	 viewBox="0 0 399 137.4" style="enable-background:new 0 0 399 137.4;" xml:space="preserve">
<style type="text/css">
	.st0{fill:#458500;}
	.st1{fill:#458501;}
</style>
<g>
	<path class="st0" d="M151.5,72.7c0,11.8,0,23.5,0,35.2c0,3.5-0.3,7-2.5,10c-3.1,4.1-7.4,5.2-12.2,4.2c-4.9-1-8.4-5.1-8.7-11.1
		c-0.4-7.2-0.2-14.4-0.2-21.6c0-8.6,0-8.6-8.4-8.6c-7.2,0-14.4,0.1-21.6-0.1c-3-0.1-3.9,0.9-3.8,3.8c0.2,8.2,0.1,16.5,0,24.7
		c0,5.1-1.8,9.3-6.4,11.8c-6.7,3.6-14.8,0-16.6-7.4c-0.6-2.4-0.7-4.9-0.7-7.3c0-22.5,0-44.9,0-67.3c0-1.6,0-3.2,0.3-4.7
		c0.9-7.5,5.1-11.2,12.1-11c6.6,0.2,11,4.7,11.3,12c0.2,5.4,0,10.9,0,16.3c0,8.5,0,8.5,8.4,8.5c7.2,0,14.4-0.1,21.6,0.1
		c2.9,0.1,3.9-0.7,3.8-3.8c-0.2-6.8-0.2-13.7,0-20.5c0.3-7.8,4.5-12.4,11.2-12.6c7.7-0.2,12.2,4.4,12.4,13c0.2,8.4,0,16.8,0,25.2
		C151.5,65.4,151.5,69,151.5,72.7z"/>
	<path class="st0" d="M250.5,53.9c7.6-8.1,18.7-5.9,25.1-2.1c5.1,3,6.9,8,4.9,13c-2,4.9-6.7,6.8-12.6,5.1c-10.1-3-13.2-0.9-14.9,9.6
		c-1.4,8.9-0.7,17.8-0.9,26.7c0,2.1,0.1,4.2-0.2,6.3c-1,6.4-5.4,10.1-11.5,9.9c-5.8-0.2-9.8-4.1-10.3-10.5
		c-0.4-4.9-0.2-9.8-0.2-14.7c0-11.9,0-23.8,0.1-35.7c0-5.3,1.3-10.2,6.9-12.4C241.6,47.2,245.9,48.9,250.5,53.9z"/>
	<path class="st0" d="M42.5,85.5c0-8.2,0-16.5,0-24.7c0.1-7.6,4.1-12.1,10.7-12.2c6.9-0.1,11.3,4.5,11.3,12.3
		c0.1,16.3,0.1,32.6,0,48.9c0,8.2-4.4,12.8-11.4,12.7c-6.7-0.1-10.6-4.7-10.6-12.8C42.5,101.6,42.5,93.5,42.5,85.5z"/>
	<path class="st1" d="M53.4,24.4c6.5-0.1,11.1,4.2,11.2,10.5c0.2,6.6-4.4,11.3-11,11.3c-6.6,0.1-11-4.1-11.1-10.5
		C42.4,28.9,46.8,24.4,53.4,24.4z"/>
	<path class="st0" d="M355.8,76.4c-2.1-15.3-10.3-24.6-23.2-27.2c-8.9-1.8-17.4-0.5-25.8,5.9c0-7.8,0.2-14.7-0.1-21.4
		c-0.2-6.1-4.2-10-9.9-10.2c-6.2-0.2-10.2,3.2-11,9.5c-0.2,1.9-0.2,3.8-0.2,5.8c0,23,0,46,0,68.9c0,2.4,0.2,4.9,0.7,7.3
		c0.9,3.9,3.6,6.5,7.5,7.3c4.2,0.8,8.5,0,10.6-3.9c2-3.6,3.2-2.1,5.3-0.6c11.4,7.7,27.1,6.2,36.5-3.8
		C356.3,103.2,357.6,90,355.8,76.4z M332.9,94.2c-1.9,6.3-6.3,9.6-12.2,9.5c-5.8-0.1-10.2-3.6-11.9-10c-0.7-2.5-0.9-5.1-1.1-6.4
		c0.1-6.7,0.8-11.8,4.4-16.1c6-7.2,15.9-6,19.8,2.5C334.8,80.2,335,87.2,332.9,94.2z"/>
	<path class="st0" d="M182.6,92.4c4.7,0.2,9.5,0,15,0c5.3-0.2,11.4,0.5,17.5-0.5c6.8-1.1,9.8-4.5,10.1-11.3c0.3-8.4-2.3-15.9-8.2-22
		c-10.6-11-23.8-12.2-37.4-8.4c-12.8,3.5-19.9,12.9-22.4,25.9c-3.5,17.7,2.1,33.4,14.8,41.2c8.6,5.3,18.2,6,27.9,4.7
		c9.7-1.3,18.2-5.3,23-14.6c2.5-4.7,1.7-9.4-1.6-11.9c-3.5-2.6-8.5-2.1-12.4,1.4c-3,2.7-5.8,5.6-9.5,7.4c-8.1,3.8-16.9,0.1-19.5-8.2
		C178.9,93.3,179.6,92.3,182.6,92.4z M181.6,71.1c2.7-4.3,6.7-6.1,11.6-5.3c4.8,0.7,7.7,3.8,9.2,8.3c0.9,2.4,0.3,3.5-2.5,3.3
		c-3.1-0.2-6.3,0-9.4,0c-1.9,0-3.8,0.1-5.8,0c-1.7-0.1-4.2,0.9-4.9-0.5C178.9,74.9,180.6,72.8,181.6,71.1z"/>
</g>
</svg>
