<?xml version="1.0" encoding="utf-8"?>
<!-- Generator: Adobe Illustrator 22.1.0, SVG Export Plug-In . SVG Version: 6.00 Build 0)  -->
<svg version="1.1"
	 id="svg2" inkscape:version="0.48.2 r9819" sodipodi:docname="Aeropostale_logo2.svg" xmlns:cc="http://creativecommons.org/ns#" xmlns:dc="http://purl.org/dc/elements/1.1/" xmlns:inkscape="http://www.inkscape.org/namespaces/inkscape" xmlns:rdf="http://www.w3.org/1999/02/22-rdf-syntax-ns#" xmlns:sodipodi="http://sodipodi.sourceforge.net/DTD/sodipodi-0.dtd" xmlns:svg="http://www.w3.org/2000/svg"
	 xmlns="http://www.w3.org/2000/svg" xmlns:xlink="http://www.w3.org/1999/xlink" x="0px" y="0px" viewBox="0 0 500 500"
	 style="enable-background:new 0 0 500 500;" xml:space="preserve">
<style type="text/css">
	.st0{fill:#1D1D1B;stroke:#1D1D1B;stroke-width:0.216;stroke-miterlimit:22.9256;}
</style>
<sodipodi:namedview  bordercolor="#666666" borderopacity="1" gridtolerance="10" guidetolerance="10" id="namedview35" inkscape:current-layer="svg2" inkscape:cx="305.96738" inkscape:cy="101.65201" inkscape:pageopacity="0" inkscape:pageshadow="2" inkscape:window-height="1003" inkscape:window-maximized="1" inkscape:window-width="1680" inkscape:window-x="-4" inkscape:window-y="-4" inkscape:zoom="1.2764184" objecttolerance="10" pagecolor="#ffffff" showgrid="false">
	</sodipodi:namedview>
<sodipodi:namedview  bordercolor="#666666" borderopacity="1" fit-margin-bottom="0" fit-margin-left="0" fit-margin-right="0" fit-margin-top="0" gridtolerance="10" guidetolerance="10" id="namedview3875" inkscape:current-layer="g3881" inkscape:cx="836.55822" inkscape:cy="-249.2839" inkscape:pageopacity="0" inkscape:pageshadow="2" inkscape:window-height="1028" inkscape:window-maximized="1" inkscape:window-width="1920" inkscape:window-x="-8" inkscape:window-y="-8" inkscape:zoom="0.47532087" objecttolerance="10" pagecolor="#ffffff" showgrid="false">
	</sodipodi:namedview>
<path class="st0" d="M9.5,268.9v-63.8h10.7v63.8H9.5L9.5,268.9z M53.2,268.9v-63.8h6.7l47.7,42.6c1.1,1,2.2,2.1,3.5,3.5
	c1.2,1.4,2.5,2.9,3.8,4.5c-0.3-2-0.6-4.2-0.7-6.4c-0.2-2.2-0.2-5.3-0.2-9.3v-35h9.8v63.8h-6l-49-44.3c-0.2-0.2-0.6-0.5-1.1-0.9
	c-2.4-2.2-4.2-4.3-5.4-6.2c0.2,1.9,0.4,4,0.5,6.2c0.1,2.2,0.2,4.8,0.2,7.8v37.6L53.2,268.9L53.2,268.9z M216.4,213.8h-49.9V260h49.9
	v-18.7h-25.8v-8.2h36.4v20.6c0,5.8-1.1,9.8-3.1,11.9c-2.1,2.1-6.1,3.2-11.8,3.2h-41.2c-5.8,0-9.8-1.1-11.9-3.2
	c-2.1-2.1-3.1-6.1-3.1-11.9v-33.6c0-5.8,1-9.8,3.1-11.9c2.1-2.1,6-3.2,11.9-3.2h41.2c5.7,0,9.6,1,11.8,3.1c2.1,2.1,3.2,5.8,3.2,11.3
	v1.6l-10.6,2.1L216.4,213.8L216.4,213.8z M257.6,268.9v-63.8h10.7V260h48.3v8.9H257.6L257.6,268.9z M345.9,260h52.8v-46.2h-52.8
	L345.9,260L345.9,260z M335.3,220.2c0-5.8,1-9.8,3.1-11.9c2.1-2.1,6-3.2,11.9-3.2h44.1c5.7,0,9.7,1.1,11.7,3.2
	c2.1,2.1,3.1,6.1,3.1,11.9v33.6c0,5.9-1,9.9-3.1,12c-2.1,2.1-6,3.1-11.7,3.1h-44.1c-5.8,0-9.8-1.1-11.9-3.2
	c-2.1-2.1-3.1-6.1-3.1-11.9L335.3,220.2L335.3,220.2z M466.2,213.8v55.1h-10.6v-55.1h-29.1v-8.7h69v8.7H466.2z"/>
</svg>
