<?xml version="1.0" encoding="utf-8"?>
<!-- Generator: Adobe Illustrator 23.0.0, SVG Export Plug-In . SVG Version: 6.00 Build 0)  -->
<svg version="1.1" id="Layer_1" xmlns="http://www.w3.org/2000/svg" xmlns:xlink="http://www.w3.org/1999/xlink" x="0px" y="0px"
	 viewBox="0 0 220 220" style="enable-background:new 0 0 220 220;" xml:space="preserve">
<style type="text/css">
	.st0{fill:#F3978B;}
</style>
<g>
	<path class="st0" d="M104.7,141.1c-0.4-5.6-0.8-11.2-1.1-16.8c0.6,0.1,0.7,0.6,0.9,0.9c2.6,4.7,5.8,8.9,10.5,11.7
		c5.1,3.1,10.4,4.1,15.9,1.3c3.1-1.5,4.6-4.3,4.8-7.6c0.4-4.8-2.1-7.6-6.1-9.4c-3.7-1.7-7.6-2.7-11.5-3.9c-3.1-1-6.2-2.2-8.9-4.3
		c-2.9-2.2-4.5-5.1-5-8.7c-0.4-2.6-0.3-5.1,0.6-7.6c1.6-4.4,4.7-7.3,8.9-9c5.9-2.4,12-2.2,18-0.5c1.3,0.4,2.6,0.8,3.9,1
		c1.9,0.3,3.4-0.3,4.8-1.6c0.2-0.2,0.4-0.5,0.7-0.4c0.3,0.1,0.2,0.4,0.2,0.7c0.1,4.5,0.2,9.1,0.2,13.6c0,0.2,0,0.5-0.2,0.8
		c-0.6-1-1.2-2-1.8-3c-2.3-3.6-4.9-6.9-8.7-8.9c-4.8-2.4-9.7-2.9-14.4,0.4c-2,1.4-2.9,3.4-3.2,5.7c-0.5,4.4,1.5,7.4,5.3,9.4
		c2.9,1.5,6,2.3,9.1,3.2c3.6,1,7.2,2.1,10.4,4.1c4,2.6,6.2,6.2,6.7,11c0.4,4.1-0.4,7.8-2.9,11.1c-2.2,2.9-5.3,4.7-8.7,5.8
		c-5.5,1.8-11.1,1.7-16.6,0.2c-1.4-0.4-2.9-0.7-4.3-1.1c-2.2-0.5-4.2-0.2-6.1,1.2C105.7,140.7,105.4,141.1,104.7,141.1z"/>
	<path class="st0" d="M187.3,86.5c4.4,0,8.5,0,12.7,0c-0.2,0.7-0.8,0.9-1.3,1.3c-2.7,2.1-4.6,4.9-6.4,7.8c-2.5,4.1-5.1,8.1-7.6,12.1
		c-2,3.2-4,6.4-6,9.6c-0.5,0.8-0.4,1.6-0.4,2.4c0,4.7-0.1,9.5,0.1,14.2c0.1,2.6,1.3,4.6,3.5,5.9c0.2,0.1,0.4,0.3,0.7,0.4
		c-0.9,0.6-17.7,0.7-20.2,0.2c0.7-0.8,1.6-1.2,2.3-1.9c1.3-1.2,1.8-2.8,1.9-4.5c0.3-2.8,0.2-5.5,0.2-8.3c0-1.3-0.1-2.7,0-4
		c0.4-2.7-0.7-4.8-2.1-6.9c-3.3-5.1-6.5-10.4-9.8-15.5c-2-3.1-3.7-6.5-6.3-9.3c-0.8-0.9-1.7-1.8-2.7-2.5c-0.3-0.2-0.6-0.5-1-0.9
		c7.3,0,14.4,0,21.5,0c0.1,0.5-0.3,0.6-0.5,0.8c-2.3,1.8-2.8,4-1.3,6.5c1.4,2.5,3,4.9,4.4,7.4c2.6,4.2,5.1,8.5,7.7,12.7
		c0.2,0.3,0.3,0.7,0.6,0.7c0.4,0,0.5-0.4,0.7-0.7c2.7-4.3,5.5-8.6,8.1-13c1.3-2.2,3-4.3,4-6.7c1.2-3,0.5-5-2.2-7
		C187.9,87,187.7,86.9,187.3,86.5z"/>
	<path class="st0" d="M39.7,86.7c-0.3,0.3-0.6,0.5-0.9,0.7c-2.4,1.5-3.2,3.9-3.2,6.5c-0.1,13,0,26,0,38.9c0,3,0.9,5.6,3.7,7.1
		c0.1,0.1,0.4,0.1,0.3,0.7c-6.6,0.1-13.3,0-20.1,0c0.2-0.7,0.6-0.9,0.9-1.1c2.1-1.4,3-3.4,3.1-5.8c0.4-12.1,0.1-24.3,0.1-36.4
		c0-2.1,0.1-4.2-0.5-6.3c-0.5-1.7-1.7-2.9-3.1-3.9c-0.2-0.1-0.6-0.2-0.4-0.5c0.1-0.2,0.4-0.2,0.6-0.2c6.5,0,13,0,19.5,0.1
		C39.5,86.5,39.5,86.6,39.7,86.7z"/>
	<path class="st0" d="M98.3,96.8c-1.5-4-4.6-6.5-8.4-8.1c-3.6-1.5-7.5-2.1-11.4-2.1c-8.3,0-16.6,0-24.9,0c-0.9,0-1.7,0-2.7,0
		c0.1,0.7,0.5,0.8,0.9,1c1.4,0.8,2.3,2,2.7,3.5c0.6,2,0.6,4,0.6,6c0,11.2,0,22.3,0,33.5c0,1.3-0.1,2.6-0.2,3.9
		c-0.2,2.1-1.1,3.8-2.8,5.1c-0.3,0.3-1.1,0.4-1,0.8c0.2,0.5,0.9,0.3,1.5,0.4c0.1,0,0.3,0,0.4,0c5.7,0,11.5,0,17.2,0
		c0.9,0,1.8-0.1,2.8-0.2c0-0.1,0-0.2,0-0.2c-0.4-0.2-0.7-0.4-1.1-0.6c-3.1-1.4-4.8-3.7-4.8-7.2c0-4.3,0-8.7,0-13
		c0-1,0.3-1.3,1.3-1.3c4.3,0,8.6,0.2,12.9-0.2c4.3-0.4,8.4-1.3,12.1-3.9C99.3,110.1,100.5,102.7,98.3,96.8z M86.2,109
		c-1.7,4.1-4.9,6.3-9.3,6.9c-3,0.4-5.9,0.1-8.9,0.2c-0.9,0-0.8-0.5-0.8-1.1c0-2.1,0-4.2,0-6.3s0-4.2,0-6.3c0-4.2,0-8.4,0-12.6
		c0-0.9,0.3-1.2,1.2-1.2c3,0.2,6-0.3,8.9,0.2c6.4,1.2,9.5,5.3,10,11.4C87.5,103.2,87.4,106.2,86.2,109z"/>
</g>
</svg>
