<?xml version="1.0" encoding="utf-8"?>
<!-- Generator: Adobe Illustrator 24.0.1, SVG Export Plug-In . SVG Version: 6.00 Build 0)  -->
<svg version="1.1" id="Layer_1" xmlns="http://www.w3.org/2000/svg" xmlns:xlink="http://www.w3.org/1999/xlink" x="0px" y="0px"
	 viewBox="0 0 1000 1000" style="enable-background:new 0 0 1000 1000;" width="1000" height="1000" xml:space="preserve">
<style type="text/css">
	.st0{fill:#FEFEFE;}
	.st1{fill:#C71321;}
	.st2{fill:#C71322;}
	.st3{fill:#C61420;}
	.st4{fill:#C7131F;}
	.st5{fill:#C71320;}
	.st6{fill:#D54C57;}
	.st7{fill:#D54F58;}
	.st8{fill:#D54E58;}
	.st9{fill:#D54E59;}
	.st10{fill:#E2888F;}
	.st11{fill:#E38B92;}
	.st12{fill:#F1C9CC;}
	.st13{fill:#C6131F;}
	.st14{fill:#C7141F;}
	.st15{fill:#C71420;}
</style>
<g>
	<g>
		<path class="st0" d="M738.24,683.06c-36.52,0-73.03,0-109.55,0c0.52-2.94,3.18-2.34,4.99-2.75c11.74-2.69,22.73-6.98,32.27-14.52
			c3.94-3.11,4-3.53,0.56-7.13c-7.97-8.35-8.02-8.43-17.99-2.68c-36.26,20.93-78.09-1.38-84.88-38.75
			c-7.28-40.04,25.97-68.32,57.91-67.23c11.45,0.39,21.48,4.92,31.15,10.54c4.99,2.9,5.52,2.96,9.61-1.25
			c8.24-8.47,9.91-6.7-1.18-14.14c-27.08-18.18-61.29-17.17-86.8,2.68c-34.34,26.73-39.05,72.99-12.88,105.93
			c10.54,13.27,23.99,21.71,40.41,25.75c2.55,0.63,6.07-0.08,7.28,3.53c-105.31,0-210.63,0-315.94,0c-0.3-0.6-0.18-1.09,0.36-1.48
			c7.62-1.88,15.48-1.78,23.2-2.87c27.5-3.87,53.92-11.04,78.11-25.13c30.67-17.87,51.4-43.93,61.84-77.56
			c14.39-46.31,14.32-92.88-0.62-139.17c-11.75-36.42-35.44-62.78-69.2-80.32c-24.66-12.81-51.26-18.77-78.71-21.6
			c-34.29-3.54-68.69-1.26-103.04-1.96c-4.02-0.08-5.73,1.45-5.42,5.43c0.13,1.62,0.02,3.25,0.02,4.88
			c0,110.28,0.01,220.56-0.03,330.84c0,3.02,0.76,6.23-1.39,8.95c-57.38,0-114.77,0-172.15,0c0.67-2.94,3.21-2.24,5.12-2.46
			c18.19-2.04,36.08-5.18,53.3-11.78c33.11-12.69,52.97-36.75,61.37-70.64c2.9-11.7,4.04-23.66,4.01-35.79
			c-0.14-73.53-0.07-147.07-0.07-220.6c0-8.73-0.01-8.73-8.94-8.73c-10.76,0-21.52-0.04-32.27,0.02c-5.13,0.03-5.78,0.54-5.69,5.57
			c0.61,32.04-2.21,64.08-0.85,96.09c1.3,30.42,0.49,60.82,0.73,91.22c0.16,19.49,0.03,39-2.65,58.39
			c-2.99,21.63-15.26,36.05-34.76,44.95c-14.45,6.59-29.7,9.62-45.47,10.33c-4.4,0.2-8.73,1.23-13.15,1
			c-3.73-0.19-4.69,1.89-4.67,5.19c0.06,10.09,0.05,20.17,0,30.26c-0.01,2.41,0.32,4.93-1.46,6.98c-2.02-0.88-0.92-2.64-0.92-3.91
			c-0.07-65.09-0.06-130.17-0.06-195.26c0-54.35,0.04-108.7-0.1-163.04c-0.01-3.34,0.66-4,4.01-4c330.61,0.1,661.23,0.1,991.84,0
			c3.35,0,4.01,0.65,4.01,4c-0.11,119.44-0.11,238.87,0,358.31c0,3.34-0.65,4.03-4.01,4c-25.43-0.18-50.86-0.1-76.29-0.1
			c-0.97-1.65-0.3-3.18,0.52-4.58c18.39-31.67,33.86-64.91,52.03-96.7c1.15-2.01,1.95-5.51,4.71-4.79c2.69,0.7,1.79,4.15,1.79,6.46
			c0.06,29.93,0.03,59.86,0.05,89.79c0,7.15,0.28,7.47,7.4,7.44c12.99-0.06,11.3,1.32,11.32-11.04
			c0.06-42.78,0.02-85.57,0.02-128.35c0-1.79,0.02-3.58-0.08-5.37c-0.16-2.68-1.59-3.84-4.19-3.4c-3.57,0.61-7.13,0.67-10.7,0.11
			c-3.05-0.47-4.31,1.67-5.56,3.84c-6.71,11.73-13.03,23.66-19.23,35.65c-10.97,21.25-21.9,42.52-33.7,63.34
			c-0.24,0.42-0.44,0.88-0.71,1.28c-1.15,1.71-1.86,4.32-4.27,4.2c-2.13-0.1-2.7-2.58-3.58-4.26
			c-17.07-32.75-34.64-65.23-51.52-98.08c-2.07-4.04-4.67-5.89-9.18-5.54c-3.4,0.26-6.84,0.03-10.26,0.08
			c-2.41,0.04-3.57,1.23-3.62,3.61c-0.03,1.3-0.05,2.6-0.05,3.9c0,43.92,0,87.84,0,131.76c0,8.18,0.09,8.26,8.06,8.27
			c11.59,0.01,11.66-0.05,11.66-11.54c0-28.63-0.02-57.26,0.03-85.89c0-2.52-0.96-6.35,1.58-7.11c2.74-0.82,3.66,3.06,4.82,5.18
			c10.15,18.55,19.9,37.32,29.8,56.01c7.01,13.22,13.77,26.58,20.79,39.8c0.98,1.84,2.25,3.66,1.09,5.91c-53.15,0-106.29,0-159.44,0
			c0.39-2.73,2.84-2.29,4.5-2.65c15.44-3.26,28.48-10.49,39.48-21.92c11.4-11.85,17.92-25.8,20.2-41.86
			c5.99-42.3-26.15-78.6-65.39-83.71c-38.63-5.03-77.87,24.5-82.83,63.82c-3.88,30.76,10.89,61.44,38.83,76.37
			c6.21,3.32,12.94,5.26,19.76,6.97C735.16,680.55,737.77,680.18,738.24,683.06z"/>
		<path class="st1" d="M198.3,683.06c0-4.39,0-8.77,0-13.16c-0.05-75.96-0.15-151.91-0.14-227.87c0-35.29,0.26-70.58,0.22-105.87
			c0-3.82,0.89-4.75,4.84-4.7c26.23,0.29,52.47-0.21,78.68,0.4c31.73,0.73,62.92,5.09,92.52,17.36
			c44.55,18.46,73.7,50.64,86.17,97.33c10.8,40.42,10.83,81.09,0.08,121.42c-13.69,51.32-47.21,84.34-97.12,101.42
			c-22.8,7.8-46.35,11.48-70.33,12.83c-1.62,0.68-3.33,0.21-4.99,0.35c-2.24,0-4.47,0-6.71,0c-3.28,0.28-6.62-0.6-9.86,0.5
			c-13.69,0-27.39,0-41.08,0c-5.87-0.81-11.74-0.81-17.61,0C208.09,683.06,203.2,683.06,198.3,683.06z"/>
		<path class="st2" d="M0.72,683.06c0-13.18,0.16-26.36-0.1-39.53c-0.07-3.74,1.03-4.51,4.57-4.54c15.49-0.17,30.95-1.23,45.85-5.84
			c17.15-5.31,32.71-13.03,41.73-29.78c5.63-10.44,7.04-21.93,7.65-33.45c1.69-32.16,0.73-64.36,0.84-96.54
			c0.09-24.88-0.28-49.77-0.29-74.65c-0.01-20.98,0.3-41.96,0.25-62.94c-0.01-3.42,0.87-4.34,4.3-4.29
			c13.69,0.2,27.39,0.28,41.07-0.04c4.13-0.1,4.68,1.32,4.67,4.9c-0.09,66.37-0.02,132.74-0.1,199.11
			c-0.02,15.27,1.03,30.56-0.77,45.8c-4.07,34.41-18.12,63-48.96,81.1c-19.38,11.38-40.97,16.22-63.13,18.8
			c-4.05,0.47-8.3-0.05-12.15,1.87c-0.98,0-1.96,0-2.93,0c-1.61-1.02-3.4-0.27-5.09-0.5c-2.21,0.24-4.5-0.52-6.65,0.5
			C7.89,683.06,4.31,683.06,0.72,683.06z"/>
		<path class="st3" d="M918.22,683.06c-6.81-15.06-14.98-29.42-22.59-44.06c-10.33-19.88-20.93-39.62-31.42-59.41
			c-0.52-0.99-1.2-1.9-2.87-2.8c0,7.97-0.01,15.95,0,23.92c0.05,25.21-0.03,50.43,0.29,75.64c0.05,4.2-1.23,5.28-5.01,5.17
			c-4.55-0.13-9.13-0.06-13.68,0.17c-2.9,0.15-3.56-1.08-3.53-3.73c0.11-10.57,0.05-21.15,0.05-31.72c0-36.6,0.05-73.2-0.07-109.8
			c-0.01-3.65,0.68-5.61,4.74-4.87c0.63,0.12,1.3,0,1.95,0.02c5.03,0.12,11.1-1.45,14.79,0.83c3.7,2.28,5.07,8.38,7.41,12.84
			c16.36,31.19,32.71,62.39,49.07,93.58c0.36,0.69,0.83,1.32,1.43,2.26c9.48-16.04,17.98-32.29,26.47-48.55
			c10.07-19.28,19.97-38.65,30.51-57.68c1.59-2.88,3.3-4.17,6.47-3.6c3.73,0.67,7.48,0.36,11.2-0.07c3.72-0.43,4.97,0.72,4.95,4.73
			c-0.13,30.9,0.02,61.81,0.06,92.72c0.02,16.27-0.1,32.54,0.09,48.8c0.04,3.49-1.01,4.5-4.38,4.26c-3.89-0.28-7.84-0.34-11.72,0.01
			c-4.19,0.38-5.49-0.79-5.46-5.27c0.23-31.39,0.12-62.79,0.12-94.19c0-1.74,0-3.48,0-5.79c-2.11,1.3-2.61,3.03-3.39,4.49
			c-16.56,30.91-33.12,61.83-49.61,92.77c-1.65,3.1-4.13,5.77-4.87,9.34C918.87,683.06,918.55,683.06,918.22,683.06z"/>
		<path class="st4" d="M738.24,683.06c-2.62-2.18-6.01-1.87-9.03-2.67c-34.81-9.22-57.8-40.57-56.34-77.07
			c1.37-34.39,27.74-64.48,61.94-70.69c41.85-7.6,81.88,20.28,89.13,62.07c7.09,40.86-21.21,80.22-62.75,87.32
			c-0.88,0.15-2.03-0.29-2.4,1.04c-1.3,0-2.61,0-3.91,0c-4.24-0.81-8.48-0.81-12.72,0C740.85,683.06,739.55,683.06,738.24,683.06z"
			/>
		<path class="st5" d="M609.13,683.06c-4.13-2.26-8.86-2.51-13.26-3.9c-32.64-10.31-54.72-43.12-52.21-77.78
			c2.46-33.9,28.57-62.92,61.84-68.82c23.55-4.18,44.45,1.57,63.09,16.31c2.42,1.92,3.46,3.19,0.44,5.6
			c-3.16,2.52-5.88,5.61-8.8,8.43c-1.86,1.79-3.45,1.94-5.88,0.32c-10.12-6.75-20.93-11.59-33.5-11.95
			c-21.58-0.61-43.07,12.96-52.38,33.57c-9.04,20.01-4.94,43.79,10.31,59.73c20.96,21.92,51.28,24.45,75.4,6.02
			c2.89-2.21,4.29-2.15,6.54,0.48c2.74,3.21,5.8,6.17,8.97,8.97c2.24,1.99,1.79,3.08-0.33,4.79c-11.26,9.09-24.03,14.74-38.27,17.18
			c-0.88,0.15-2.03-0.29-2.41,1.04c-1.3,0-2.61,0-3.91,0c-3.91-0.83-7.83-0.83-11.74,0C611.73,683.06,610.43,683.06,609.13,683.06z"
			/>
		<path class="st6" d="M212.98,683.06c5.87-1.6,11.74-1.62,17.61,0C224.71,683.06,218.85,683.06,212.98,683.06z"/>
		<path class="st7" d="M742.15,683.06c4.24-1.62,8.48-1.57,12.72,0C750.63,683.06,746.39,683.06,742.15,683.06z"/>
		<path class="st8" d="M613.04,683.06c3.91-1.56,7.83-1.56,11.74,0C620.86,683.06,616.95,683.06,613.04,683.06z"/>
		<path class="st9" d="M271.67,683.06c3.16-1.97,6.59-0.65,9.9-0.82c0.23,0.22,0.29,0.41,0.18,0.58c-0.1,0.16-0.2,0.24-0.29,0.24
			C278.19,683.06,274.93,683.06,271.67,683.06z"/>
		<path class="st6" d="M11.48,683.06c2.12-1.87,4.62-0.68,6.94-0.86c0.25,0.22,0.32,0.42,0.21,0.61c-0.11,0.17-0.21,0.26-0.3,0.26
			C16.04,683.06,13.76,683.06,11.48,683.06z"/>
		<path class="st10" d="M281.45,683.06c0.03-0.28,0.07-0.55,0.11-0.82c2.26-0.01,4.53-0.02,6.79-0.03c0.27,0.21,0.36,0.41,0.25,0.59
			c-0.11,0.18-0.21,0.26-0.31,0.26C286.01,683.06,283.73,683.06,281.45,683.06z"/>
		<path class="st11" d="M18.33,683.06c0.01-0.29,0.04-0.58,0.1-0.86c1.61,0.21,3.48-0.97,4.8,0.86
			C21.59,683.06,19.96,683.06,18.33,683.06z"/>
		<path class="st12" d="M288.29,683.06c-0.02-0.29,0-0.57,0.06-0.85c1.62,0,3.24,0,4.87,0c-0.05,0.28-0.06,0.57-0.04,0.85
			C291.55,683.06,289.92,683.06,288.29,683.06z"/>
		<path class="st4" d="M792.72,406.6c4.25-8.35,8.04-15.66,11.71-23.02c5.64-11.33,11.16-22.73,16.84-34.05
			c1.46-2.92,1.09-3.89-2.41-3.83c-9.61,0.18-19.23-0.04-28.85,0.12c-2.87,0.05-3.91-0.57-3.93-3.72
			c-0.06-11.04-0.2-11.04,10.72-11.04c9.62,0,19.24-0.11,28.85,0.05c3.66,0.06,6.31-0.88,7.43-4.6c1.92-6.4,6.13-8.4,12.75-7.78
			c6.94,0.65,14,0.15,21.41,0.15c-0.84,4.36-3.98,7.47-5.18,11.42c1.24,1.33,2.78,0.73,4.11,0.73c40.91,0.04,81.83,0.04,122.74,0.03
			c9.5,0,9.19-0.02,9.65,9.62c0.22,4.65-1.49,5.18-5.49,5.17c-37.65-0.14-75.31-0.1-112.96-0.07c-7.49,0.01-14.98,0.21-22.48,0.27
			c-1.83,0.02-3.41-0.01-4.45,2.06c-7.14,14.18-14.39,28.3-21.92,43.06c11.19,0.07,21.68,0.79,32.2,0.16
			c4.36-0.26,10.24,1.45,12.73-0.76c2.91-2.58,0.78-8.56,0.91-13.06c0.16-5.69,0.14-11.39-0.01-17.08
			c-0.06-2.39,0.78-3.07,3.08-3.04c7.99,0.11,15.98,0.12,23.96,0c2.68-0.04,3.24,1.09,3.21,3.5c-0.12,8.3,0.23,16.61-0.15,24.89
			c-0.21,4.55,0.81,6.02,5.73,5.96c23.95-0.31,47.9-0.67,71.85-0.23c5.77,0.11,6.96,0.78,7.31,7.51c0.23,4.41-0.08,7.14-6.39,7.3
			c-24.12,0.6-48.22-0.05-72.32-0.12c-4.71-0.01-6.36,0.82-6.21,5.99c0.43,14.14,0.15,28.31,0.15,42.46
			c0,22.8-10.69,35.7-33.21,39.89c-4.15,0.77-8.39,1.07-12.59,1.55c-0.8,0.09-1.96,0.35-2.39-0.06c-3.29-3.14-0.84-7.19-1.48-10.79
			c-0.28-1.55-0.34-3.18,2.22-3.37c2.4-0.19,4.79-0.89,7.1-1.62c6.52-2.06,9.95-6.61,10-13.41c0.13-19.19,0.07-38.39,0.27-57.58
			c0.03-3.07-1.53-2.98-3.63-2.96c-10.92,0.13-21.83,0.26-32.75,0.3C825.2,406.63,809.56,406.6,792.72,406.6z"/>
		<path class="st13" d="M649.7,355.83c31.45,0,62.89,0.06,94.33-0.08c3.73-0.02,4.99,0.8,4.91,4.77
			c-0.26,13.66-0.24,27.32-0.01,40.98c0.07,3.82-0.96,4.9-4.84,4.89c-24.92-0.08-49.85,0.22-74.77,0.1c-4.23-0.02-5.03,1.25-5,5.18
			c0.12,15.93-0.04,31.86-0.28,47.79c-0.25,16.38-8.14,27.12-23.62,32.62c-7.28,2.59-14.89,3.29-22.48,4.18
			c-2.31,0.27-2.92-0.61-2.79-2.65c0.07-1.13,0.01-2.28,0.01-3.41c0-7.34,0-7.34,7.05-9.13c7.46-1.9,10.42-5.32,11.55-13.06
			c2.89-19.75,0.87-39.6,1.3-59.4c0.07-3.27-2.44-1.92-3.8-1.93c-17.92-0.19-35.83-0.27-53.75-0.36c-7.5-0.03-15-0.22-22.48,0.08
			c-3.82,0.15-4.56-1.2-4.51-4.73c0.2-13.82,0.2-27.65,0-41.47c-0.05-3.47,0.97-4.29,4.35-4.28c31.61,0.13,63.22,0.08,94.83,0.08
			C649.7,355.94,649.7,355.88,649.7,355.83z"/>
		<path class="st3" d="M649.73,345.77c-33.57,0-67.14-0.07-100.7,0.09c-4.27,0.02-5.92-0.78-5.72-5.48
			c0.41-9.31,0.11-9.29,9.59-9.32c25.9-0.09,51.8-0.32,77.7-0.18c4.41,0.02,5.16-1.52,4.81-5.31c-0.58-6.37-0.44-6.47,6.02-6.6
			c6.19-0.13,12.39,0.15,18.57-0.17c3.31-0.17,4.06,1.07,4.12,4.06c0.16,7.86,0.28,7.86,8.12,7.89c26.39,0.1,52.79,0.27,79.18,0.22
			c3.51-0.01,4.78,0.68,4.7,4.51c-0.21,10.27-0.01,10.28-10.08,10.28C713.93,345.77,681.83,345.77,649.73,345.77z"/>
		<path class="st14" d="M785.92,495.6c11.35-15.64,19.04-32.14,24.1-49.88c2.41-8.43,4.51-16.94,5.61-25.64
			c0.4-3.23,1.71-4.27,4.99-4.16c7.95,0.27,15.92,0.07,23.88,0.16c2.76,0.03,4.8,0.72,3.64,4.4c-8.54,26.85-21.78,50.9-41.77,71.06
			c-3.1,3.13-6.26,4.71-10.71,4.13C792.77,495.3,789.8,495.6,785.92,495.6z"/>
		<path class="st5" d="M755.27,495.6c-4.45,0-8.5-0.1-12.53,0.04c-1.87,0.06-2.97-0.91-4.18-2.03
			c-22.24-20.51-35.94-46.14-44.97-74.58c-0.66-2.08-0.34-2.91,2.06-2.9c9.1,0.04,18.21-0.07,27.31-0.12
			c1.78-0.01,3.39-0.27,3.71,2.47c3.1,27.09,12.52,51.87,27.6,74.56C754.68,493.67,754.83,494.47,755.27,495.6z"/>
		<path class="st4" d="M543.74,495.78c4.51-7.73,8.6-14.32,12.28-21.13c9.22-17.08,14.03-35.55,16.62-54.63
			c0.39-2.85,1.14-3.69,4.09-3.75c8.95-0.19,17.88-0.39,26.83,0.04c2.53,0.12,3.04,0.72,2.25,3.13
			c-9.06,27.69-22.04,52.98-43.82,73.12C556.67,497.47,550.66,495.04,543.74,495.78z"/>
		<path class="st4" d="M998.66,495.6c-5.04,0-9.23-0.11-13.41,0.05c-1.9,0.07-2.95-0.98-4.17-2.06
			c-19.56-17.18-39.59-51.46-44.88-77c10.24-0.58,20.45-0.38,30.65-0.26c3.61,0.05,2.51,2.98,2.73,4.62
			c2.29,17.7,7.45,34.53,15.12,50.61C988.56,479.64,993.06,487.34,998.66,495.6z"/>
		<path class="st15" d="M497.15,660.59c-10.63-0.07-19.14-8.63-19.1-19.21c0.05-11.41,8.65-19.99,20.03-19.99
			c10.33,0,19.38,9.33,19.26,19.84C517.21,652.19,508.37,660.67,497.15,660.59z"/>
		<path class="st0" d="M246.23,507.44c0-42.3,0.01-84.6-0.03-126.9c0-2.56-0.34-4.51,3.51-4.6c22-0.49,43.97-0.77,65.82,2.48
			c20.53,3.05,39.88,9.32,57.26,20.89c21.06,14.02,33.77,34.18,40.41,57.97c8.99,32.23,9.4,64.88,0.83,97.33
			c-11.37,43.05-40.21,68.06-82.73,78.65c-15.57,3.88-31.38,5.58-47.39,5.69c-11.08,0.08-22.17-0.11-33.24,0.31
			c-3.82,0.14-4.54-0.85-4.53-4.44C246.28,592.36,246.23,549.9,246.23,507.44z"/>
		<path class="st0" d="M804.76,607.6c-0.13,29.56-26.17,56.07-55.48,55.63c-34.11-0.51-57.19-28.84-56.34-57.63
			c0.87-29.4,26.37-54.56,56.63-54.34C779.32,551.46,804.88,577.56,804.76,607.6z"/>
		<path class="st0" d="M649.72,391.3c-21.67,0-43.33-0.1-65,0.09c-3.75,0.03-4.89-1.05-4.52-4.65c0.54-5.29-2.26-12.41,1.11-15.42
			c2.95-2.63,9.93-0.84,15.12-0.84c39.27-0.03,78.55,0.05,117.82-0.11c4.12-0.02,5.45,1.13,5,5.16c-0.58,5.12,2.18,12.02-1.12,14.93
			c-2.87,2.54-9.62,0.8-14.66,0.82C685.55,391.32,667.64,391.3,649.72,391.3z"/>
	</g>
</g>
</svg>
