<?xml version="1.0" standalone="no"?>
<!DOCTYPE svg PUBLIC "-//W3C//DTD SVG 20010904//EN"
 "http://www.w3.org/TR/2001/REC-SVG-20010904/DTD/svg10.dtd">
<svg version="1.0" xmlns="http://www.w3.org/2000/svg"
 width="534.000000pt" height="124.000000pt" viewBox="0 0 534.000000 124.000000"
 preserveAspectRatio="xMidYMid meet">

<g transform="translate(0.000000,124.000000) scale(0.100000,-0.100000)"
fill="#000000" stroke="none">
<path d="M2576 1216 c-96 -36 -165 -127 -173 -228 -7 -79 8 -135 50 -190 68
-88 186 -128 294 -99 101 27 182 127 190 233 7 79 -8 135 -50 190 -52 68 -113
100 -200 105 -46 2 -86 -2 -111 -11z m189 -64 c75 -37 117 -105 117 -192 0
-124 -88 -212 -212 -212 -124 0 -212 88 -212 212 0 161 163 263 307 192z"/>
<path d="M2635 1077 c-3 -7 -5 -49 -3 -93 l3 -79 58 -3 c35 -2 64 2 73 9 23
19 -3 39 -52 39 l-43 0 -3 67 c-2 42 -8 68 -15 71 -7 2 -15 -3 -18 -11z"/>
<path d="M725 506 c-61 -29 -87 -56 -116 -121 -42 -95 -22 -232 44 -304 58
-63 192 -90 275 -55 47 19 98 67 125 119 31 57 31 193 0 250 -27 52 -78 100
-125 119 -56 24 -143 20 -203 -8z m216 -51 c58 -38 84 -94 84 -185 0 -58 -5
-84 -23 -117 -56 -106 -201 -133 -293 -56 -90 76 -93 261 -6 341 61 57 167 64
238 17z"/>
<path d="M2925 516 c-46 -20 -85 -71 -85 -112 0 -78 39 -111 179 -153 86 -26
121 -56 121 -104 0 -94 -136 -125 -245 -56 -38 24 -50 28 -56 17 -13 -20 -11
-24 21 -52 37 -31 88 -46 158 -46 104 0 163 46 170 135 4 53 3 56 -34 93 -30
30 -59 44 -129 66 -102 32 -135 56 -135 98 0 84 134 114 226 51 34 -22 38 -23
53 -8 15 15 14 18 -13 38 -16 12 -43 27 -60 34 -42 16 -134 15 -171 -1z"/>
<path d="M4350 514 c-45 -20 -96 -69 -123 -119 -17 -32 -22 -57 -22 -125 0
-96 17 -140 77 -197 70 -67 180 -83 273 -39 61 28 87 56 116 121 43 95 23 231
-44 304 -58 63 -195 90 -277 55z m152 -34 c153 -43 194 -277 68 -383 -89 -75
-223 -52 -285 48 -27 43 -30 57 -30 124 0 59 5 85 23 118 43 83 130 119 224
93z"/>
<path d="M240 335 c0 -210 -7 -243 -61 -270 -40 -21 -93 -14 -126 17 -22 20
-25 21 -40 5 -14 -14 -14 -18 -2 -33 36 -44 138 -57 199 -26 67 33 75 61 78
290 l4 202 -26 0 -26 0 0 -185z"/>
<path d="M1380 271 l0 -251 25 0 25 0 2 210 3 209 85 -207 c52 -126 91 -207
99 -207 8 0 47 82 100 210 l86 210 3 -212 2 -213 25 0 25 0 0 250 0 250 -37 0
-38 0 -80 -200 c-44 -110 -82 -200 -85 -200 -3 0 -42 89 -86 198 l-81 197 -37
3 -36 3 0 -250z"/>
<path d="M2321 498 c-5 -13 -50 -122 -100 -244 -50 -121 -91 -223 -91 -228 0
-4 12 -6 26 -4 21 2 30 13 48 58 l22 55 135 3 134 3 23 -61 c21 -54 27 -60 52
-60 l28 0 -102 247 c-102 246 -103 248 -134 251 -26 3 -34 -1 -41 -20z m98
-171 c28 -70 51 -132 51 -137 0 -6 -45 -10 -110 -10 -60 0 -110 4 -110 9 0 8
97 248 107 264 7 12 7 14 62 -126z"/>
<path d="M3490 270 l0 -250 25 0 25 0 0 120 0 120 155 0 155 0 0 -120 0 -120
25 0 25 0 0 250 0 250 -25 0 -25 0 0 -110 0 -110 -155 0 -155 0 0 110 0 110
-25 0 -25 0 0 -250z"/>
<path d="M5000 270 c0 -242 1 -250 20 -250 18 0 20 8 22 103 l3 102 105 5
c118 6 147 18 174 75 33 69 11 158 -49 195 -28 17 -49 20 -154 20 l-121 0 0
-250z m247 190 c58 -35 57 -135 0 -171 -25 -15 -51 -19 -119 -19 l-88 0 0 105
0 105 88 0 c69 0 94 -4 119 -20z"/>
</g>
</svg>
