<?xml version="1.0" encoding="utf-8"?>
<!-- Generator: Adobe Illustrator 24.0.1, SVG Export Plug-In . SVG Version: 6.00 Build 0)  -->
<svg version="1.1" id="Layer_1" xmlns="http://www.w3.org/2000/svg" xmlns:xlink="http://www.w3.org/1999/xlink" x="0px" y="0px"
	 viewBox="0 0 700 700" style="enable-background:new 0 0 700 700;" width="700" height="700" xml:space="preserve">
<style type="text/css">
	.st0{fill:#FEFEFE;}
	.st1{fill:#004683;}
	.st2{fill:#004684;}
	.st3{fill:#034581;}
	.st4{fill:#064983;}
	.st5{fill:#004788;}
	.st6{fill:#08457B;}
	.st7{fill:#BAC7D1;}
	.st8{fill:#07447A;}
	.st9{fill:#034582;}
	.st10{fill:#014581;}
	.st11{fill:#00477F;}
	.st12{fill:#024480;}
	.st13{fill:#03457E;}
	.st14{fill:#034588;}
	.st15{fill:#034379;}
	.st16{fill:#06447B;}
	.st17{fill:#07457D;}
	.st18{fill:#09447A;}
	.st19{fill:#03498A;}
	.st20{fill:#00457D;}
	.st21{fill:#04447C;}
	.st22{fill:#00457E;}
	.st23{fill:#07467A;}
	.st24{fill:#01498C;}
	.st25{fill:#01498B;}
	.st26{fill:#004989;}
	.st27{fill:#6991B5;}
	.st28{fill:#034A8C;}
	.st29{fill:#054379;}
	.st30{fill:#05447A;}
	.st31{fill:#004587;}
	.st32{fill:#064479;}
	.st33{fill:#0D4272;}
	.st34{fill:#02437B;}
	.st35{fill:#034681;}
	.st36{fill:#004688;}
	.st37{fill:#03457F;}
	.st38{fill:#004988;}
	.st39{fill:#09447D;}
	.st40{fill:#00458C;}
	.st41{fill:#01467D;}
	.st42{fill:#01458A;}
	.st43{fill:#00478A;}
	.st44{fill:#02457C;}
	.st45{fill:#04457C;}
	.st46{fill:#00478B;}
	.st47{fill:#004A8F;}
	.st48{fill:#00498C;}
	.st49{fill:#06437C;}
	.st50{fill:#01498E;}
	.st51{fill:#07427A;}
	.st52{fill:#084378;}
	.st53{fill:#05437A;}
	.st54{fill:#00498D;}
	.st55{fill:#00488C;}
	.st56{fill:#02457F;}
	.st57{fill:#004787;}
	.st58{fill:#094679;}
	.st59{fill:#02457E;}
</style>
<g>
	<g>
		<path class="st0" d="M349.54,699.91c-115.11,0-230.21-0.02-345.32,0.09C0.78,700,0,699.22,0,695.77
			C0.09,465.26,0.09,234.74,0,4.22C0,0.78,0.78,0,4.22,0c230.52,0.09,461.03,0.09,691.55,0c3.45,0,4.23,0.78,4.22,4.22
			c-0.09,230.52-0.09,461.03,0,691.55c0,3.45-0.78,4.23-4.22,4.23C580.36,699.9,464.95,699.91,349.54,699.91z"/>
		<path class="st1" d="M533.31,478.23c-8.65,9.07-17.33,18.13-25.93,27.24c-1.33,1.4-2.84,1.58-4.56,1.57
			c-17.01-0.06-34.02,0.2-51.02-0.19c-47.36-1.07-87.96-34.58-98.32-80.88c-1.14-5.09-1.48-10.27-1.47-15.5
			c0.02-114.31,0-228.62-0.01-342.93c0-0.3,0.08-0.6,0.13-0.91c0.96-0.44,1.35,0.44,1.82,0.89c9.04,8.71,17.99,17.53,27.12,26.14
			c2.52,2.38,3.51,4.83,3.51,8.33c-0.09,97-0.05,193.99-0.09,290.99c-0.01,12.66,1.59,25.04,6.15,36.88
			c9.54,24.76,28.52,37.23,54.04,41.06c7.61,1.14,15.25,1.23,22.91,1.23c22.22,0,44.44-0.03,66.65,0.09c1,0.01,3.58-1.75,3.24,1.58
			C534.16,473.48,534.98,477.03,533.31,478.23z"/>
		<path class="st1" d="M344.06,423.2c-2.24,15.35-8.92,28.85-17.95,41.15c-20.37,27.7-47.91,41.99-82.33,42.57
			c-16.39,0.28-32.79,0.07-49.18,0.13c-1.91,0.01-3.48-0.3-4.92-1.81c-10.31-10.85-20.71-21.62-31.73-33.1c3.57,0,6.39,0,9.21,0
			c22.98,0,45.96,0.04,68.94-0.02c12.95-0.03,25.64-1.73,37.6-7.04c21.62-9.6,32.64-27.2,37.18-49.62c1.8-8.9,2.06-17.91,2.05-26.96
			c-0.04-95.91-0.02-191.83-0.07-287.74c0-2.44,0.5-4.23,2.37-5.98c8.74-8.19,17.32-16.55,25.96-24.85c2.84-1.1,4.39-0.6,4.13,2.92
			c-0.16,2.12,0.08,4.28,0.08,6.42c0,110.08,0,220.15-0.02,330.23c0,1.82,0.33,3.67-0.32,5.46l0.07-0.1
			C343.44,417.48,345.34,420.54,344.06,423.2z"/>
		<path class="st1" d="M392.66,105.87c10.3,8.79,19.63,18.61,29.4,27.95c1.69,1.62,1.1,3.72,1.1,5.65
			c0.02,83.94,0.03,167.88,0.03,251.82c0,6.3,0.63,12.48,2.34,18.59c3.73,13.32,12.9,19.86,26.17,21.41
			c3.95,0.46,7.92,0.7,11.88,1.04c0.97,0.66,2.06,0.44,3.11,0.44c24.58,0.01,49.16,0.01,73.74,0c1.05,0,2.15,0.2,3.13-0.4
			c6.46,4.17,11.03,10.38,16.66,15.44c1.47,1.32,0.31,2.1-0.52,2.96c-4.12,4.31-8.29,8.57-12.35,12.94
			c-1.26,1.36-2.64,1.8-4.44,1.79c-29.22-0.06-58.46,0.51-87.66-0.28c-22.07-0.6-41.24-8.41-53.57-28.19
			c-6.07-9.75-9.28-20.5-9.95-31.99c-0.39-0.87-0.36-1.78-0.3-2.7c0.15-0.43,0.34-0.83,0.59-1.2c0.62-0.79,0.94-2.02,2.24-1.89
			c0.83,0.08,1.14,0.87,1.78,3.58c-0.54-1.71-0.68-3.84-0.88-5.97c-0.04-16.38-0.02-32.74-0.01-49.1c0-2.3,0.06-4.6-1.33-6.61
			c-0.71-2.23-0.5-4.53-0.51-6.8c-0.02-18.12,0-36.24-0.02-54.36c0-2.28,0.18-4.58-0.62-6.78c-0.58-5.19-0.27-10.4-0.28-15.59
			c-0.04-23.57-0.01-47.14-0.04-70.71c0-2.27,0.4-4.62-0.86-6.73c-0.5-1.08-0.56-2.19-0.2-3.32c1.06-1.61,1.1-3.41,1.11-5.26
			c0.08-10.79-0.65-21.58-0.6-32.34c0.03-7.42-0.32-14.82-0.34-22.23c-0.01-2.13,0.16-4.27-0.4-6.37
			C391.29,108.95,389.84,106.69,392.66,105.87z"/>
		<path class="st1" d="M276.89,132.57c9.33-9.69,18.67-19.39,27.62-28.69c2.71,0.91,2.05,2.21,2.06,3.1
			c0.83,86.54,0.05,173.07,0,259.61c0,0.76-0.15,1.52-0.23,2.27c-3.03-1.01-2.18-3.64-2.2-5.71c-0.1-15.56-0.05-31.12-0.05-46.68
			c0-7.32,0.01-14.65-0.01-21.97c1.19-59.89-0.48-119.79,0.94-179.68c-0.18,6.14,0.01,12.29-0.16,18.43
			c-0.6,2.1-0.37,4.26-0.37,6.39c-0.01,46.82-0.01,93.64-0.01,140.47c0,2.14,0.09,4.28-0.12,6.42c-0.11,0.61-0.38,1.12-0.81,1.55
			c-0.67,0.17-1.1-0.09-1.29-0.75c-0.18-7.79,0.03-15.59-0.26-23.38c1.43,32.76,0.95,65.55,1.03,98.32c0.01,2.14-0.21,4.3,0.55,6.37
			c0.94,7.12-0.27,14.31,0.72,21.42c0.49,2.11-0.45,4.14-0.35,6.23c0,0.61,1.03-0.06,0.44,0.12c-0.16,0.05-0.26-0.06-0.23-0.33
			c0.19-1.94-0.66-4.3,2.13-5.16c0.4,2.46,0.25,4.92-0.09,7.38c-0.75,1.76-0.21,3.6-0.33,5.39c-3.07,36.73-24.63,59.6-62.08,61.37
			c-29.8,1.41-59.72,0.36-89.58,0.45c-1.68,0.01-2.86-0.51-3.99-1.73c-3.97-4.25-7.98-8.47-12.12-12.56
			c-1.57-1.56-2.11-2.5-0.1-4.24c5.39-4.66,9.63-10.58,15.68-14.55c0.85,0.45,1.78,0.35,2.69,0.35c25.33,0,50.67,0.01,76,0
			c1.05,0,2.15,0.22,3.12-0.43c4.08-0.42,8.2-0.61,12.24-1.3c15.08-2.59,23.88-12.27,25.56-27.85c0.18-1.65,0.58-3.28,0.87-4.91
			c0.35-0.31,0.75-0.44,1.21-0.38c1.87,0.85,1.54,2.77,2.06,4.23c0.38-1.87,0.19-3.77,0.79-5.58c0.18-2.77,0.1-5.53,0.1-8.28
			c0.01-81.76,0-163.52,0-245.27c-0.02-1.16,0.04-2.36-0.96-3.25C276.53,137.41,275.91,135.04,276.89,132.57z"/>
		<path class="st1" d="M183.06,400.11c0.58-0.63,1.17-1.25,1.75-1.88c0.41-0.21,0.95-0.32,1.2-0.65c3.93-5.33,9.56-4.93,15.29-4.87
			c8.87,0.09,17.76,0.38,26.63-0.2c2.43-0.8,5.19,0.79,7.48-1.03c0-71.25,0.01-142.51-0.07-213.76c0-3.47,1.07-5.8,3.52-8.31
			c9.09-9.32,17.81-18.99,27.15-28.06c2.31,1.3,1.7,2.42,1.7,3.18c0.05,57,0.06,114,0.07,171.01c0,0.61-0.12,1.21-0.19,1.82
			c-0.62,0.28-1.05,0.1-1.29-0.54c-0.94-4.53-0.36-9.11-0.43-13.66c-0.17-11.44,0.15-22.88-0.16-34.31
			c0.3,14.34,0.04,28.69,0.14,43.03c0.01,1.97-0.27,3.98,0.55,5.88c0.6,1.94,0.35,3.94,0.35,5.91c0.05,23.49-0.05,46.99,0.06,70.48
			c0.3,1.34,0.42,2.7,0.49,4.07c-1.06,9.61-3.34,18.53-13.17,23.15c-5.12,2.98-10.47,0.48-15.71,0.36c1.54,0.56,3.68-1.37,4.53,1.48
			c-2.17,1.42-4.53,0.7-6.84,0.64c-0.51-0.16-0.97-0.43-1.37-0.78c-0.38-0.38-0.79-0.72-1.25-1c-2.55-0.78-5.17-0.4-7.75-0.4
			c-15.28-0.04-30.56,0-45.84-0.04c-2.25-0.01-4.64,0.37-6.51-1.43c-1.3-3.74-0.83-7.28,2.15-9.94
			C178.8,407.36,180.61,403.52,183.06,400.11z"/>
		<path class="st1" d="M451.36,424.11c-12.25-1.38-20.44-10.98-21-24.61c-0.31-0.53-0.29-1.05,0.05-1.56
			c0.3-0.49,0.61-0.96,0.92-1.44c0.85-1.91,0.57-3.92,0.57-5.9c0.01-79.77,0.02-159.53,0.05-239.3c0-1.83-1.32-4.58,2.2-5
			c8.86,8.44,17.71,16.88,26.59,25.29c1.13,1.07,1.25,2.31,1.25,3.73c-0.05,71.7-0.07,143.41-0.1,215.11c0,0.15-0.04,0.3-0.06,0.45
			c0.22,2.65,2.31,1.59,3.73,1.87c12.98-0.04,25.95,0.07,38.92-0.06c0.8-0.09,1.54-0.39,2.29-0.69c8.63,9.08,17.68,17.8,24.96,28.08
			c0.3,1.16-0.41,1.46-1.34,1.58c-16.34-0.14-32.69-0.04-49.03-0.02c-5.64,0.01-11.3-0.41-16.93,0.31
			c-1.39,0.45-2.88,0.49-4.28,0.93c-1.33,0.22-2.88,0.58-3.7-0.7c-0.44-0.69-0.67-1.71-1.08-0.43
			C454.53,424.47,454.75,424.54,451.36,424.11z"/>
		<path class="st2" d="M298.89,635.44c-0.6-0.01-1.2-0.03-1.79-0.04c-2.67-1.02-5.42,0-8.12-0.34c-1.25-0.16-2.86,0.61-3.45-1.31
			c-0.05-31.23-0.07-62.46-0.2-93.69c-0.01-2.52,0.9-2.96,3.18-3.04c14.35-0.51,14.32-0.55,19.59,12.92
			c7.95,20.3,15.94,40.57,23.91,60.86c0.28,0.71,0.42,1.48,1.81,1.91c2.8-7.1,5.63-14.26,8.45-21.41
			c6.65-16.87,13.37-33.71,19.87-50.64c1.06-2.76,2.34-3.88,5.28-3.63c4.39,0.38,10.16-1.76,12.84,0.81
			c2.69,2.58,0.76,8.38,0.77,12.76c0.07,26.33,0.04,52.67,0.03,79c0,1.68-0.14,3.35-0.21,5.03c-1.41,1.01-3.17-0.05-4.61,0.78
			c-9.27,0.53-9.27,0.53-9.27-8.66c0-17.92,0.02-35.84-0.02-53.75c0-1.28,0.53-2.69-0.64-4.22c-1.61,1.61-2.08,3.66-2.82,5.51
			c-7.6,19.13-15.21,38.24-22.64,57.44c-1.11,2.87-2.43,4.02-5.61,3.94c-7.77-0.19-7.78-0.01-10.65-7.22
			c-7.95-19.98-15.89-39.95-23.84-59.93c-2.54,0.68-1.26,2.75-1.27,4.08c-0.1,19.31-0.05,38.62-0.09,57.93
			C299.38,632.15,299.89,633.88,298.89,635.44z"/>
		<path class="st2" d="M517.85,635.76c-27.31,0-43.73-15.41-46.2-42.94c-0.99-11.05,0.15-21.66,4.78-31.74
			c8.46-18.41,25.21-27.55,46.82-25.8c18.31,1.49,33.79,14.9,38.74,33.37c3.24,12.12,3.18,24.19-0.29,36.22
			C555.8,625.3,540.91,635.76,517.85,635.76z"/>
		<path class="st2" d="M394.62,537.26c16.06,0.11,32.15-1.31,48.16,0.8c10.32,1.36,18.45,6.45,21.26,16.86
			c2.94,10.89,0.09,20.56-9.48,27.97c13.86,8.08,16.67,20.27,12.01,34.53c-3.47,10.62-14.39,17.26-26.67,17.28
			c-8.5,0.86-17.02,0.25-25.54,0.34c-6.54,0.06-13.1,0.29-19.64-0.16c-0.67-0.77-0.54-1.71-0.54-2.62
			c0.09-30.61,0.03-61.23,0.04-91.84C394.21,539.34,394.1,538.26,394.62,537.26z"/>
		<path class="st2" d="M275.89,607.95c-1.24,15.36-14.6,27.8-29.85,27.81c-5.36,0-10.71,0-16.07,0c-11.28,0-19.38-5.37-25.06-14.82
			c0.26-1.37-0.82-2.02-1.52-2.87c-0.14-0.26-0.27-0.52-0.41-0.78c1.49-2.48-0.14-4.75-0.47-7.11c2.41-22.55,0.86-45.16,1.31-67.73
			c0.04-1.84-0.06-3.71,1.35-5.18c8.29-0.51,8.29-0.51,8.29,7.73c0,16.98,0,33.96,0,50.94c0,0.76,0,1.53,0,2.29
			c0.18,21.7,16.05,32.35,36.48,24.43c8.11-3.14,11.22-9.85,12.29-17.87c1.19-8.83,0.56-17.72,0.63-26.58
			c0.09-12.09,0.21-24.18-0.08-36.25c-0.1-4.03,0.91-5.61,4.97-4.91c1.49,0.26,3.04,0.15,4.57,0.21c2.75,1.49,2.16,4.17,2.17,6.52
			c0.06,17.41,0.02,34.82,0.03,52.23c0,2.29-0.07,4.58,0.14,6.86C275.42,604.47,274.71,606.44,275.89,607.95z"/>
		<path class="st2" d="M189.63,614.82c0.15,11.68-10.09,22.08-21.17,21.01c-4.85-0.47-9.83-0.49-14.68-0.01
			c-9.66,0.94-19.22-10.3-20.43-20.04c-0.2-1.58,0.43-2.6,1.43-3.64c3.49-3.63,6.94-7.29,11.2-11.79c0.65,5.06,0.3,8.98,1.14,12.8
			c1.81,8.29,6.8,11.82,16.58,11.31c7.68-0.4,11.52-4.36,12.07-12.71c1.52-23.09,0.45-46.21,0.57-69.32
			c0.02-4.37,0.95-6.27,5.42-5.35c2,0.41,4.25-0.97,6.03,0.88c-1.1,1.35-0.54,2.95-0.55,4.42c-0.04,18.22-0.02,36.44-0.04,54.66
			c0,1.6,0.26,3.22,0.04,3.93c0-18.79-0.02-38.45,0.03-58.11c0-1.63-0.52-3.37,0.5-4.91c0.26,0.06,0.53,0.05,0.78-0.03
			c1.54,1.69,0.93,3.78,0.94,5.7c0.05,20.16,0.02,40.33,0.04,60.49c0,1.83-0.16,3.67,0.25,5.48
			C190.04,611.33,190.17,613.09,189.63,614.82z"/>
		<path class="st3" d="M434.16,146.3c-0.88,0.43-1.31,0.99-1.3,2.12c0.15,81.94,0.26,163.89,0.34,245.83c0,1.52,0.75,3.57-1.81,4.02
			c-1.19-1.45-0.91-3.19-0.91-4.84c0-39.6-0.05-79.21,0.01-118.81c0.25-2.4,0.88-4.8,0.11-7.22c-0.07-0.85-0.02-1.68,0.21-2.51
			c0.44-25.29,0.09-50.58,0.17-75.87c-1.1-13.12-0.16-26.27-0.62-39.39c-0.13-0.54-0.35-1.04-0.67-1.5c-0.03-1.75-0.57-3.7,0.02-5.2
			c0.76-1.93,1.18,0.14,1.71,0.58c-0.06,0.65-0.26,1.44,0.89,0.92C433.19,144.8,433.86,145.37,434.16,146.3z"/>
		<path class="st4" d="M345.05,414.97c-0.04-2.14-0.12-4.29-0.12-6.43c-0.01-108.95,0-217.89-0.02-326.84
			c0-2.59-0.66-5.28-0.19-7.76c0.64-3.35-1.07-3.83-3.55-4.01c1.24-1.33,2.48-2.66,4.47-4.78c0,3.09,0,5.25,0,7.42
			c0.01,112.03,0.02,224.06,0.01,336.09C345.66,410.77,346.17,412.96,345.05,414.97z"/>
		<path class="st5" d="M391.85,179.41c3.01,0.75,1.78,3.21,1.78,4.92c0.08,29.63,0.06,59.25,0.06,88.88
			c-0.01,21.11-0.3,42.23,0.09,63.33c0.34,18.51,0.12,37.01,0.31,55.51c0.04,3.38-0.23,6.69-1.32,9.91c-0.29,0-0.58,0-0.87,0.01
			c-0.72-0.41-0.33-1.32-0.84-1.83c0-0.63-0.01-1.25-0.01-1.88c0.81-2.89-0.18-5.75-0.17-8.63c0.07-68,0.05-136.01,0.09-204.01
			C390.96,183.53,390.32,181.3,391.85,179.41z"/>
		<path class="st6" d="M391.85,179.41c0,71.03,0,142.07-0.04,213.1c0,1.91,0.7,4-0.77,5.74c-0.09-0.9-0.18-1.81-0.27-2.71
			c-0.55-1.65-0.28-3.35-0.28-5.02c-0.01-93.8-0.02-187.59,0.07-281.39c0-1.62-1.57-3.98,1.23-5.04c0.29,0.59,0.58,1.18,0.87,1.77
			c-1.4,1.33-0.62,3.04-0.81,4.58c1.07,6.36,0.89,12.85,0.69,19.17c-0.43,13.93,0.75,27.82,0.21,41.72c-0.07,1.8,0.41,3.71-0.9,5.31
			C391.85,177.57,391.85,178.49,391.85,179.41z"/>
		<path class="st7" d="M391.79,104.1c-1.58,1.35-0.76,3.15-0.76,4.71c-0.05,93.9-0.05,187.8-0.06,281.7c0,1.68-0.13,3.36-0.2,5.03
			c-1.12-1.5-0.67-3.25-0.67-4.89c-0.02-94.3-0.03-188.6,0.08-282.89C390.18,106.63,388.39,104,391.79,104.1z"/>
		<path class="st8" d="M275.04,398.28c-0.29,0-0.58,0-0.87,0c-0.02-26.2-0.05-52.39-0.06-78.59c-0.01-60.06-0.01-120.12,0.04-180.18
			c0-1.72-0.85-3.71,0.93-5.15c2.79,1.78,0.16,4.56,1.25,6.66c0.05,83.74,0.02,167.48,0.03,251.22
			C276.21,394.32,276.72,396.54,275.04,398.28z"/>
		<path class="st9" d="M235.51,422.19c0,0.31,0,0.62,0,0.92c2.45,0.77,4.9,0.77,7.35,0c-1.43-1.85-3.79-0.18-5.77-1.59
			c5.92-0.89,11.52,0.83,17.06-0.17c-3.63,2.52-7.81,3.55-12.08,3.58c-26.76,0.19-53.52,0.23-80.29,0.3c-0.4,0-0.8-0.2-1.79-0.47
			c1.47-1.35,2.64-2.42,3.82-3.49c1.95,0.28,3.86,0.15,5.73-0.59c0.51,0.04,1.01,0.09,1.51,0.15c17.73,0.98,35.47,0.12,53.19,0.49
			C228,421.4,231.88,420.36,235.51,422.19z"/>
		<path class="st9" d="M451.36,424.11c1.31-0.07,2.62-0.14,4.46-0.23c-1.12-0.93-1.86-1.54-2.58-2.13c2.49-2.41,4.46,0.21,6.65,0.44
			c3.12-0.78,6.3-0.92,9.51-0.92c18.82-0.03,37.64,0.07,56.45-0.04c2.87-0.02,5.77,0.02,8.55,0.92c1.01,0.63,1.94,1.35,2.46,2.7
			c-0.46,0.15-0.85,0.38-1.24,0.38c-26.47-0.06-52.95-0.12-79.42-0.23C454.57,424.99,452.82,425.3,451.36,424.11z"/>
		<path class="st10" d="M305.4,294.36c0,23.1-0.01,46.2,0.04,69.29c0,1.75-0.71,3.71,0.91,5.21c-0.02,7.36-0.03,14.71-0.05,22.07
			c-1.53,1.8-1.74,4.06-2.74,6.3c0-2.1,0-4.2,0-6.3c-0.46-0.67-0.43-1.44-0.45-2.21c-0.62-32.13-0.47-64.26-0.46-96.4
			c0-1.52-0.18-3.09,0.91-4.39c0.46-0.33,0.86-0.28,1.22,0.16C305.33,290.14,304.32,292.35,305.4,294.36z"/>
		<path class="st11" d="M205.16,537.25c0,18.16,0.1,36.32-0.05,54.48c-0.06,6.65-0.45,13.33-1.79,19.89
			c-1.51,0.03-1.63-1.09-1.76-2.16c-0.3-2.42-0.47-4.84-0.47-7.28c0.03-18.89,0.02-37.78,0-56.66c0-1.96,0.27-3.97-0.58-5.85
			c-0.44-0.71-0.92-1.4-0.84-2.3C201.5,537.33,203.33,537.29,205.16,537.25z"/>
		<path class="st12" d="M394.62,537.26c1.1,1.64,0.91,3.5,0.91,5.33c0,28.9,0,57.8,0.01,86.7c0,1.84,0.1,3.68-0.92,5.33
			c-0.63,0.28-1.13,0.12-1.49-0.47c-1.07-2.17-0.71-4.5-0.71-6.77c-0.03-27.06-0.01-54.11-0.03-81.17c0-2.28,0.28-4.59-0.45-6.82
			c-0.31-0.48-0.68-0.9-1.12-1.28C391.65,535.95,393.31,537.41,394.62,537.26z"/>
		<path class="st13" d="M274.13,604.27c-1.5-1.36-0.89-3.16-0.89-4.76c-0.04-18.82-0.02-37.64-0.03-56.46c0-1.97,0.3-4-0.9-5.79
			c3.28-0.77,4.82-0.2,4.76,3.89c-0.3,20.72-0.27,41.45-0.35,62.17c-2.75-1.01-1.61-3.33-1.53-5.09c0.83-19.18,0.02-38.36,0.3-52.35
			c0.05,13.15-0.01,31.48,0.01,49.81c-0.75,2.61-0.09,5.37-0.83,7.98C274.49,603.88,274.31,604.08,274.13,604.27z"/>
		<path class="st14" d="M200.56,538.06c2.81,0.59,1.79,2.87,1.8,4.48c0.06,21.29,0.02,42.57,0.07,63.86c0,1.75-0.7,3.71,0.89,5.23
			c2.77,2.06,2.57,3.94-0.35,5.66c-1.54-2.78-2.62-5.7-2.51-8.95c-0.5-7.45-0.85-14.9-0.83-22.37c0.05-14.21,0-28.41,0.03-42.62
			C199.67,541.56,199.25,539.65,200.56,538.06z"/>
		<path class="st15" d="M429.69,148.15c0.26,0,0.52,0,0.78,0c0.65,0.97,0.43,2.07,0.44,3.13c0.27,36.58,0.78,73.16,0.41,109.74
			c-0.11,11.14-0.39,22.27-0.43,33.41c-0.07,0.75-0.47,1.03-1.2,0.85c-0.06-12.22-0.19-24.44-0.18-36.66
			C429.54,221.79,429.62,184.97,429.69,148.15z"/>
		<path class="st16" d="M393.68,634.62c0.31,0,0.61,0,0.92,0c15.1,0.03,30.19,0.05,45.29,0.08c-1.82,1.08-3.85,0.85-5.82,0.85
			c-13.17,0.02-26.33-0.08-39.5,0.07c-2.97,0.03-4.08-0.34-4.05-3.83c0.24-31.22,0.21-62.45,0.27-93.68
			c0.35-0.02,0.7-0.03,1.04-0.05c1.36,1.76,0.89,3.82,0.9,5.77c0.03,28.18,0.01,56.35,0.03,84.53
			C392.78,630.47,392.38,632.68,393.68,634.62z"/>
		<path class="st17" d="M200.56,538.06c-0.03,23.43-0.07,46.85-0.1,70.28c-1.54-3.78-1.26-7.8-1.28-11.72
			c-0.1-19.25-0.06-38.5-0.07-57.75c0-0.59-0.17-1.21,0.57-1.5C199.97,537.6,200.27,537.83,200.56,538.06z"/>
		<path class="st18" d="M429.69,295.28c0.26,0,0.52,0,0.77,0c0.67,0.96,0.44,2.06,0.44,3.12c0.01,32.4,0.01,64.79,0.01,97.19
			c0,0.91,0.1,1.84-0.31,2.71c-0.08,0.4-0.15,0.81-0.23,1.21c-0.78-1.05-0.78-2.3-0.78-3.51
			C429.61,362.42,429.65,328.85,429.69,295.28z"/>
		<path class="st19" d="M168.37,421.27c-1.52,3.71-3.04,1.17-4.56,0c6.09-7.35,12.57-14.34,19.25-21.16
			c-0.67,3.57-1.93,7.2-4.97,9.03c-3.79,2.3-3.08,6.46-5.12,9.36C171.91,420.22,169.96,420.44,168.37,421.27z"/>
		<path class="st20" d="M235.5,432.34c-1.06,1.25-2.52,0.87-3.84,0.87c-24.69,0.02-49.38,0.02-74.08,0c-1.33,0-2.78,0.37-3.89-0.78
			c6.39-0.1,12.78-0.3,19.17-0.29C193.74,432.17,214.62,432.27,235.5,432.34z"/>
		<path class="st21" d="M266.78,317.35c0.27,0,0.55,0,0.82,0c0.03,26.36,0.06,52.71,0.07,79.07c0,0.6-0.23,1.19-0.36,1.79
			c-0.18-0.9-0.36-1.8-0.55-2.7c-0.65-0.97-0.43-2.07-0.43-3.12c-0.01-23.97-0.01-47.95,0-71.92
			C266.34,319.42,266.11,318.32,266.78,317.35z"/>
		<path class="st22" d="M543.57,432.37c-1.24,1.32-2.86,0.83-4.32,0.83c-23.79,0.03-47.58,0.03-71.36,0c-1.46,0-3.09,0.5-4.3-0.87
			C490.24,432.01,516.9,431.93,543.57,432.37z"/>
		<path class="st23" d="M189.63,614.82c-0.04-1.68-0.07-3.36-0.11-5.03c-0.65-0.97-0.43-2.06-0.43-3.11c-0.01-22.1-0.01-44.2,0-66.3
			c0-1.05-0.23-2.15,0.44-3.11c1.83,0.52,0.95,2.03,0.95,3.04c0.05,23.21,0.03,46.43,0,69.64
			C190.48,611.61,190.71,613.34,189.63,614.82z"/>
		<path class="st24" d="M534.41,422.15c-24.84,0.01-49.68,0.02-74.52,0.04c0.97-1.35,2.41-0.79,3.68-0.92
			c0.97-0.66,2.07-0.43,3.12-0.44c20.15-0.02,40.3,0.03,60.45-0.05c1.22,0,2.44-0.19,3.56,0.48c0.35-0.39,0.69-0.78,1.04-1.17
			C533.12,420.14,533.91,420.96,534.41,422.15z"/>
		<path class="st25" d="M275.05,596.92c0-19.27,0-38.53,0-58.48c1.4,1.98,0.89,3.5,0.89,4.9c0.04,18.38,0.01,36.76,0.05,55.14
			c0,1.63-0.55,3.39,0.73,4.85c0.28,1.64-0.34,3.12-0.83,4.62c-2.41-0.35-1.57-2.26-1.76-3.68v0
			C275.4,601.94,273.83,599.25,275.05,596.92z"/>
		<path class="st26" d="M189.53,537.27c0,24.17,0,48.34-0.01,72.52c-1.58-1.52-0.88-3.48-0.88-5.23
			c-0.07-22.22-0.07-44.43-0.08-66.65C188.68,537.39,188.92,537.05,189.53,537.27z"/>
		<path class="st27" d="M298.89,635.44c0.04-21.41,0.07-42.82,0.2-64.23c0.01-0.9-1.59-3.5,1.65-2.71c-1.69,1.3-0.76,3.12-0.76,4.64
			c-0.08,19.42-0.02,38.84-0.08,58.26C299.89,632.74,300.84,634.51,298.89,635.44z"/>
		<path class="st28" d="M228.15,392.76c-1.35,1.5-3.14,0.88-4.74,0.89c-8.52,0.06-17.05,0.12-25.57-0.01
			c-3.6-0.06-6.99-0.05-9.34,3.31c-0.87,1.24-2.26,1.44-3.7,1.28c2.19-2.11,2.97-5.69,6.57-6.32c10.45,0.93,20.93,0.13,31.39,0.43
			C224.56,392.39,226.42,391.88,228.15,392.76z"/>
		<path class="st29" d="M506.78,392.02c-0.3,0.25-0.61,0.5-0.91,0.75c-8.94,0.98-17.91,0.13-26.86,0.46
			c-5.14,0.19-10.31-0.62-15.43,0.46c-1.43-0.06-2.59-0.68-3-2.05c-0.19-0.62,0.72-0.67,1.26-0.74c1.57,1.4,3.49,0.8,5.25,0.82
			C480.32,391.85,493.55,391.92,506.78,392.02z"/>
		<path class="st30" d="M228.15,392.76c-10.66,0-21.33,0.02-31.99-0.03c-1.61-0.01-3.38,0.59-4.77-0.83
			c12.85-0.06,25.69-0.1,38.54-0.18c1.83-0.01,3.66-0.16,5.49-0.25C233.36,394.03,230.55,392.2,228.15,392.76z"/>
		<path class="st31" d="M275.07,139.87c0-1.84,0.01-3.68,0.01-5.51c0.3-0.9,0.97-1.43,1.81-1.79c-0.14,2.19,1.75,4.09,0.92,6.38
			c0.28,0.84-0.22,1.21-0.89,1.49C276.21,140.56,275.59,140.37,275.07,139.87z"/>
		<path class="st21" d="M533.31,478.23c0.46-5.8,0.46-5.8,4.16-4.41C536.41,475.61,534.96,477.02,533.31,478.23z"/>
		<path class="st32" d="M285.53,633.75c2.35,1.55,4.99,0.89,7.47,0.75c1.55-0.09,2.95-0.45,4.09,0.9c-3.14,0.05-6.29,0.13-9.43,0.15
			C286.51,635.55,285.06,635.75,285.53,633.75z"/>
		<path class="st4" d="M344.06,423.2c0.42-2.77-1.13-5.78,1.06-8.33C345.01,417.68,345.41,420.55,344.06,423.2z"/>
		<path class="st14" d="M203.38,618.07c1.36,0.5,3.76,0.46,1.52,2.87C204,620.19,203.34,619.32,203.38,618.07z"/>
		<path class="st10" d="M305.88,403.69c-0.64-1.84-1-3.67,0.33-5.39C306.46,400.12,306.36,401.92,305.88,403.69z"/>
		<path class="st1" d="M432.31,144.45c-0.4,0.71-0.79,1.43-1.31,2.37c-0.8-1.51-0.64-2.48,0.42-3.28
			C431.72,143.84,432.02,144.14,432.31,144.45z"/>
		<path class="st6" d="M391.05,400.13c0.28,0.61,0.56,1.22,0.84,1.83c-0.05,1.03-0.1,2.05-0.15,3.08
			C390.88,403.49,390.93,401.82,391.05,400.13z"/>
		<path class="st33" d="M376.23,635.39c1.36-1.33,3.07-0.55,4.61-0.78C379.57,636.48,377.78,635.23,376.23,635.39z"/>
		<path class="st21" d="M530.44,476.53c-0.73-3.47-3.2-2.84-5.4-2.84c-21.14,0-42.28,0-63.42,0c-1.49,0-2.99,0-4.48,0
			c0-0.23,0-0.46,0-0.69c0.73-0.07,1.45-0.21,2.18-0.21c22.82-0.01,45.65-0.01,68.47-0.01
			C529.98,472.77,532.48,472.46,530.44,476.53z"/>
		<path class="st34" d="M170.52,472.91c21.25,0,42.5,0,63.76,0c0,0.15,0,0.3,0,0.45c-21.31,0-42.62,0-63.93,0
			C170.4,473.21,170.46,473.06,170.52,472.91z"/>
		<path class="st4" d="M341.43,413.51c-0.09,1.31-0.18,2.62-0.27,3.94C340.29,416.1,340.14,414.78,341.43,413.51z"/>
		<path class="st35" d="M392.76,401.96c0-41.17-0.01-82.35,0.03-123.52c0-1.75-0.7-3.71,0.89-5.22c1.59,1.51,0.88,3.47,0.89,5.22
			c0.05,20.95,0.03,41.89,0.03,62.84c1.36,1.75,0.89,3.82,0.89,5.77c0.04,15.31,0.01,30.63,0.04,45.94c0,1.8-0.4,3.71,0.91,5.3
			c0,2.09,0,4.19,0,6.28c-0.16,0.04-0.31,0.08-0.47,0.12c-0.53-1.55-1.07-3.1-1.63-4.74C393.8,400.64,393.28,401.3,392.76,401.96z"
			/>
		<path class="st36" d="M396.44,398.28c-2.8-0.58-1.79-2.84-1.8-4.45c-0.07-17.52-0.04-35.04-0.04-52.56
			c2.8,0.58,1.79,2.84,1.8,4.45C396.46,363.24,396.44,380.76,396.44,398.28z"/>
		<path class="st5" d="M391.85,176.65c0-22.07,0-44.14,0-66.21c1.15,0.9,0.89,2.19,0.91,3.39c0.12,10.42-0.03,20.87,0.32,31.24
			c0.32,9.6,0.3,19.2,0.53,28.8C393.63,174.82,395.07,177.45,391.85,176.65z"/>
		<path class="st37" d="M276.89,139.87c0.31-0.31,0.61-0.61,0.92-0.92c1.2,0.03,1.81,0.64,1.84,1.84c-0.92,1.74-0.45,3.61-0.45,5.41
			c-0.03,82.22-0.02,164.44-0.05,246.66c0,1.8,0.45,3.67-0.42,5.42c0,2.53,0,5.07,0,7.91c-2.53-0.57-1.53-2.24-1.84-3.31
			c0.15-3.63-1.17-7.07-1.36-10.66c-0.02-0.83,0.21-1.61,0.36-2.42c0.18-26.78,0.06-53.56,0.07-80.33
			c0.02-53.85,0.01-107.71,0.01-161.56c0-2.14-0.1-4.28,0.13-6.42C276.25,140.89,276.51,140.35,276.89,139.87z"/>
		<path class="st38" d="M278.73,398.28c0-83.94-0.01-167.87,0.04-251.81c0-1.9-0.77-4.01,0.88-5.69c0,83.94,0.01,167.87-0.04,251.81
			C279.61,394.49,280.39,396.6,278.73,398.28z"/>
		<path class="st39" d="M305.4,294.36c-1.76-1.94-0.56-4.3-0.92-6.43c-0.77-1.28-0.43-2.69-0.43-4.04c-0.02-48.8-0.02-97.6,0-146.41
			c0-1.35-0.34-2.76,0.43-4.04c0-7.62,0-15.24,0-22.86c0.31,0,0.61,0,0.92,0C305.4,171.84,305.4,233.1,305.4,294.36z"/>
		<path class="st40" d="M304.48,133.43c0,51.5,0,102.99,0,154.49c-0.31,0-0.61,0-0.92,0c0-49.76-0.01-99.51,0.03-149.27
			C303.59,136.91,302.89,134.95,304.48,133.43z"/>
		<path class="st41" d="M302.64,368.85c-1.29-1.04-0.9-2.51-0.9-3.84c-0.02-34.53-0.01-69.07-0.01-103.6c0-0.59,0.08-1.18,0.92-1.76
			c0,9.43,0,18.85,0,28.28c0.66,0.97,0.43,2.07,0.44,3.12c0.01,24.9,0.01,49.79,0,74.69C303.08,366.78,303.3,367.89,302.64,368.85z"
			/>
		<path class="st42" d="M302.64,368.85c0-26.97,0-53.95,0-80.92c0.31,0,0.61,0,0.92,0c0,34.33,0,68.66,0,102.99
			c-1.96-3.73-0.61-7.72-0.87-11.58C302.45,375.86,302.64,372.35,302.64,368.85z"/>
		<path class="st31" d="M275.97,392.76c0.82,3.33,2.77,6.55,0.92,10.12c-1.75-1.08-0.09-3.53-1.85-4.6c0-1.84,0.01-3.68,0.01-5.52
			C275.36,392.35,275.67,392.34,275.97,392.76z"/>
		<path class="st43" d="M266.78,317.35c0,26.05-0.01,52.1-0.01,78.16c-1.58-1.52-0.88-3.47-0.88-5.22
			c-0.05-24.31-0.03-48.63-0.03-72.94c-0.92-2.36-0.4-4.82-0.42-7.23c-0.06-13.26-0.04-26.52-0.01-39.79c0-1.49-0.38-3.05,0.42-4.48
			c1.51,1.35,0.89,3.15,0.9,4.75C266.79,286.19,266.78,301.77,266.78,317.35z"/>
		<path class="st44" d="M168.37,421.27c1.08-1.68,2.49-2.8,4.6-2.76c1.43,2.12,3.6,1.85,5.73,1.85c17.36-0.01,34.71-0.02,52.07,0.02
			c1.6,0,3.39-0.6,4.74,0.89c-0.96,0.66-2.06,0.44-3.11,0.44c-19.99,0.01-39.99,0.01-59.98,0c-1.05,0-2.15,0.22-3.11-0.44
			C168.99,421.27,168.68,421.27,168.37,421.27z"/>
		<path class="st19" d="M169.3,421.27c22.07,0,44.14,0,66.21,0c0,0.31,0,0.61,0,0.92c-20.33,0-40.66,0.02-60.99-0.03
			C172.77,422.15,170.81,422.86,169.3,421.27z"/>
		<path class="st45" d="M265.85,265.86c0,17.17,0,34.33,0,51.5c-1.15-0.89-0.91-2.17-0.91-3.37c-0.01-14.92-0.01-29.84,0-44.76
			C264.94,268.03,264.71,266.75,265.85,265.86z"/>
		<path class="st46" d="M265.86,155.5c0-2.09,0-4.17,0-6.26c0.31,0,0.61,0,0.92-0.01c0,6.84,0,13.68,0,20.53
			c0,6.08,0.03,12.17-0.02,18.25c-0.01,1.46,0.5,3.09-0.9,4.27c-1.02-10.45-0.2-20.93-0.41-31.4
			C265.4,159.1,264.98,157.24,265.86,155.5z"/>
		<path class="st45" d="M265.86,155.5c0,12.26,0,24.52,0,36.78c-0.26-0.37-0.74-0.73-0.74-1.1c-0.04-11.53-0.04-23.06,0-34.59
			C265.12,156.23,265.6,155.87,265.86,155.5z"/>
		<path class="st47" d="M242.86,423.11c-2.45,1.41-4.9,1.42-7.35,0C237.96,423.11,240.41,423.11,242.86,423.11z"/>
		<path class="st43" d="M430.6,398.3c-0.04-34.34-0.09-68.68-0.13-103.01c0-49.05,0.01-98.09,0.01-147.14
			c1.41,1.2,0.89,2.84,0.9,4.31c0.05,7.65,0.12,15.31-0.02,22.96c-0.08,4.44,0.31,8.82,0.95,13.2c-0.89,1.58-0.45,3.29-0.45,4.94
			c-0.03,22.45-0.01,44.91-0.04,67.36c0,1.65,0.42,3.36-0.42,4.95c0,0.61,0,1.23,0,1.84c0.7,1.84,0.7,3.68,0,5.52
			c0,41.69,0,83.38,0,125.07C431.13,398.28,430.86,398.29,430.6,398.3z"/>
		<path class="st44" d="M530.7,421.26c-22.37,0-44.75,0-67.12,0c1.2-1.41,2.84-0.89,4.31-0.9c19.58-0.11,39.15-0.17,58.73-0.29
			C528.13,420.07,529.69,419.65,530.7,421.26z"/>
		<path class="st48" d="M463.58,393.68c1.35-1.51,3.14-0.89,4.75-0.89c12.51-0.05,25.03-0.02,37.54-0.02
			c-1.35,1.5-3.15,0.88-4.75,0.89C488.6,393.7,476.09,393.68,463.58,393.68z"/>
		<path class="st49" d="M297.91,576.07c0,18.8,0,37.6,0,56.4c-0.15,0-0.3,0-0.46,0c0-18.86,0-37.72,0-56.58
			C297.61,575.95,297.76,576.01,297.91,576.07z"/>
		<path class="st0" d="M485.65,586.67c-0.36-10.12,1.86-19.42,7.96-27.34c12.63-16.39,39.19-15.36,49.78,2.37
			c9.5,15.9,9.31,32.68,0.23,48.81c-6.21,11.04-16.64,14.82-28.88,13.89c-11.27-0.87-19.46-6.56-24.52-16.67
			C486.9,601.05,485.33,593.96,485.65,586.67z"/>
		<path class="st0" d="M404.8,622.45c-0.02-9.33,0.07-18.66-0.11-27.99c-0.05-2.75,0.67-3.83,3.54-3.73
			c10.53,0.35,21.11-0.69,31.61,0.73c6.32,0.85,11.8,3.26,13.9,10.08c1.92,6.26-0.13,13.2-4.86,17.05
			c-3.51,2.85-7.96,2.78-11.97,4.08c-1.49,1.02-3.2,0.93-4.88,0.91c-8.4-0.1-16.8,0.28-25.19-0.29
			C406.01,623.23,405.35,623.04,404.8,622.45z"/>
		<path class="st0" d="M437.81,549.97c0.85,0.32,1.68,0.72,2.56,0.93c6.02,1.46,9.66,5.28,10.27,10.81
			c0.77,7.04-1.5,11.31-7.54,14.15c-0.83,0.39-1.69,0.72-2.54,1.07c-0.73,0.91-1.61,1.55-2.84,1.57c-9.9,0.78-19.81,0.3-29.72,0.29
			c-0.9-0.07-1.65-0.47-2.36-0.99c-1.71-1.47-0.82-3.43-0.84-5.14c-0.1-7.49-0.03-14.98-0.03-22.48
			C415.78,548.74,426.79,548.47,437.81,549.97z"/>
		<path class="st50" d="M438.76,577.56c0.6-0.21,1.2-0.41,1.8-0.62c-0.04,0.99,1.21,2.42-1.12,2.55c-1.78,0.09-3.53,0.57-5.3,0.88
			c-9.81,0.73-19.61,0.74-29.42,0c0.31-0.85,0.61-1.71,0.92-2.56c0.62,0.01,1.24,0.03,1.86,0.04c0.73,0.22,1.43,0.51,2.19,0.62
			c8.01,0.02,16.01,0.26,24.01-0.13C435.32,577.62,437.21,578.7,438.76,577.56z"/>
		<path class="st51" d="M404.8,622.45c10.7,0.07,21.4,0.14,32.1,0.21c-0.51,1.23-1.43,1.84-2.76,1.84
			c-7.1-1.05-14.23-0.26-21.35-0.4c-1.2-0.02-2.41,0.4-3.47-0.51c-0.62,0-1.24,0-1.86,0c-0.92,0.65-1.83,0.76-2.75,0
			C404.75,623.21,404.77,622.83,404.8,622.45z"/>
		<path class="st52" d="M437.81,549.97c-11.01,0.07-22.02,0.15-33.03,0.22c2.16-2.2,4.89-0.6,7.31-1.1c7.35-0.72,14.7-0.72,22.05,0
			C435.4,549.22,436.83,548.67,437.81,549.97z"/>
		<path class="st53" d="M404.72,580.37c9.81,0,19.61,0,29.42,0c-1.19,1.39-2.81,0.88-4.26,0.89c-6.97,0.05-13.94,0.05-20.91,0
			C407.52,581.25,405.9,581.76,404.72,580.37z"/>
		<path class="st54" d="M409.32,623.6c6.85,0,13.7-0.04,20.54,0.01c1.46,0.01,3.09-0.51,4.27,0.9c-7.7,0.42-15.46-0.88-23.13,0.75
			C409.86,625.5,409.45,624.6,409.32,623.6z"/>
		<path class="st55" d="M434.14,549.09c-7.35,0-14.7,0-22.05,0C419.43,547.58,426.79,547.58,434.14,549.09z"/>
		<path class="st54" d="M404.72,623.59c0.92,0,1.83,0,2.75,0C406.55,625.03,405.63,626.46,404.72,623.59z"/>
		<path class="st56" d="M187.77,537.94c0,21.71,0,43.42,0,65.35c-1.6-0.8-0.97-1.91-0.97-2.74c-0.04-19.44-0.04-38.88-0.02-58.32
			c0-1.47-0.46-3.11,1.01-4.27L187.77,537.94z"/>
		<path class="st56" d="M187.54,606.2c0,3.32,0,6.64,0,10.34C185.11,613,187.33,609.63,187.54,606.2z"/>
		<path class="st1" d="M431.39,265.85c0-24.01-0.02-48.02,0.03-72.03c0-1.75-0.7-3.7,0.89-5.22c0,24.01,0.02,48.02-0.03,72.03
			C432.27,262.39,432.97,264.34,431.39,265.85z"/>
		<path class="st1" d="M431.39,273.21c0-1.84,0-3.68,0-5.52C432.78,269.53,432.78,271.37,431.39,273.21z"/>
		<path class="st48" d="M275.97,392.76l-0.46,0c0,0-0.46,0-0.46,0c0-84.3,0.01-168.59,0.01-252.89c0.61,0,1.22,0,1.82-0.01
			c0,0.31,0,0.61-0.01,0.92c-0.92,1.74-0.45,3.61-0.45,5.41c-0.03,79.77-0.02,159.54-0.05,239.3c0,1.8,0.44,3.67-0.42,5.42
			C275.97,391.54,275.97,392.15,275.97,392.76z"/>
		<path class="st57" d="M393.68,634.62c-2.58-1.26-1.81-3.64-1.81-5.67c-0.03-30.29-0.02-60.59-0.02-90.88
			c3.02,0.74,1.78,3.21,1.78,4.92C393.7,573.53,393.68,604.07,393.68,634.62z"/>
		<path class="st2" d="M275.05,596.92c-0.4,2.44,0.92,5.1-0.92,7.36C274.54,601.83,273.21,599.18,275.05,596.92z"/>
		<path class="st31" d="M275.97,390.92c0-81.64-0.01-163.27,0.03-244.91c0-1.75-0.7-3.71,0.89-5.23c0,81.64,0.01,163.27-0.03,244.91
			C276.86,387.45,277.56,389.4,275.97,390.92z"/>
		<path class="st58" d="M438.76,577.56c-1.28,1.59-3.07,0.73-4.63,0.97c-8.57,0.73-17.13,0.7-25.7,0.02
			c-0.31-0.24-0.62-0.47-0.94-0.71C417.92,577.75,428.34,577.66,438.76,577.56z"/>
		<path class="st59" d="M408.44,578.55c8.57-0.01,17.13-0.01,25.7-0.02c-2.61,1.83-5.57,0.92-8.31,0.82
			C420.03,579.14,414.15,580.5,408.44,578.55z"/>
	</g>
</g>
</svg>
