<?xml version="1.0" encoding="utf-8"?>
<!-- Generator: Adobe Illustrator 24.0.1, SVG Export Plug-In . SVG Version: 6.00 Build 0)  -->
<svg version="1.1" id="Layer_1" xmlns="http://www.w3.org/2000/svg" xmlns:xlink="http://www.w3.org/1999/xlink" x="0px" y="0px"
	 viewBox="0 0 500 500" style="enable-background:new 0 0 500 500;" width="500" height="500" xml:space="preserve">
<style type="text/css">
	.st0{fill:#FE3D00;}
	.st1{fill:#FDF9F2;}
</style>
<g>
	<g>
		<path class="st0" d="M0.14,250C0.14,168.57,0.19,87.14,0,5.72C-0.01,0.94,0.94,0,5.72,0c162.85,0.16,325.71,0.16,488.56,0
			c4.78,0,5.72,0.94,5.72,5.72c-0.16,162.86-0.16,325.71,0,488.57c0,4.78-0.94,5.72-5.72,5.72c-162.85-0.16-325.71-0.16-488.56,0
			c-4.78,0-5.73-0.94-5.72-5.72C0.19,412.86,0.14,331.43,0.14,250z M113.24,201.39c-2.59,0.68-4.78,2-6.48,4.1l-0.34-0.1l-0.11,0.34
			c-8.5,4.49-16.36,9.91-23.49,16.38l-0.34,0.25c-2.14,0.82-3.98,2.05-5.26,4.01l-0.25,0.17c-11.26,8.66-21.89,17.93-29.1,30.47
			l-0.21,0.35c-11.2,15.1-10.16,30.89,3.2,43.59c3.5,3.33,7.47,6.32,11.64,8.75c21.74,12.69,45.57,19.13,70.22,22.99l0.42-0.03
			c0.77,0.21,1.54,0.43,2.31,0.64c1.41,0.18,2.82,0.37,4.23,0.55c4.55,1.52,9.19,2.48,14.01,2.34c1.84,0.16,3.67,0.32,5.51,0.47
			c14.62,3.96,29.6,3.25,44.53,3.64c-11.81-1.73-23.09-5.56-34.73-7.73c-0.74-0.13-1.48-0.27-2.22-0.4
			c-5.61-5.4-13.35-5.61-20.1-8.25l-0.46-0.2c-1.82-1.77-3.96-2.67-6.53-2.37l-0.15-0.09c-10.39-5.98-21.49-10.72-31.05-18.14
			C96,293.38,86.44,281.89,84.9,265.34c0-0.92,0-1.84,0-2.76c1.13-9.64,4.89-18.34,9.6-26.69l0.39-0.24l-0.03-0.46
			c1.9-1.7,3.37-3.7,4.22-6.12c0.49-0.6,0.99-1.2,1.48-1.81c3.21-3.59,6.43-7.18,9.64-10.77l0.2-0.2c2.29-1.29,4.14-3.04,5.41-5.37
			l0.2-0.18c16.74-13.18,32.79-27.28,51.25-38.3c-12.49,4.21-23.39,11.27-34.76,17.41c-0.59,0.55-1.18,1.11-1.76,1.66
			c-1.6,0.87-3.2,1.73-4.79,2.6c-0.52,0.14-1.03,0.27-1.55,0.41c-3.93,1.73-7.73,3.69-10.87,6.71L113.24,201.39z M348.71,238.48
			l0.07-0.07c-3.49,0.01-6.98-0.09-10.46,0.04c-4.1,0.15-4.7-1.56-3.29-5.08c1.82-4.52,3.22-9.21,4.95-13.76
			c1.24-3.27,0.47-4.76-3.2-4.71c-7.21,0.11-14.43,0.15-21.63,0c-3.07-0.06-4.63,1.26-5.64,4.02c-4.63,12.64-9.36,25.24-14.06,37.86
			c-0.31,0.97-0.62,1.94-0.93,2.92c-2.65,6.38-5.31,12.75-7.95,19.14c-1.37,3.32-0.21,4.59,3.33,4.52
			c7.42-0.14,14.85-0.19,22.27,0.02c3.23,0.09,4.41-1.49,5.38-4.18c2.52-6.94,5.27-13.8,7.93-20.69c0.43-0.17,0.85-0.34,1.28-0.51
			c2.77,0.08,5.58,0.49,8.3,0.16c5.59-0.66,5.39,2.03,4,5.97c-1.76,4.98-3.3,10.04-4.94,15.07c-0.4,0.3-0.49,0.67-0.28,1.12
			c-2.03,2.94,0.28,2.96,2.13,2.98c7.66,0.07,15.33-0.03,22.99,0.08c2.49,0.04,3.83-1,4.64-3.25c5.11-14.17,10.28-28.31,15.42-42.47
			c0.36-0.96,0.72-1.92,1.08-2.88c2.07-5.11,4.16-10.22,6.22-15.34c1.33-3.3,0.18-4.62-3.36-4.53c-5.78,0.14-11.6,0.45-17.33-0.09
			c-6.76-0.64-10.66,1.47-10.96,8.62c-1.46,1.5-1.67,3.49-2.09,5.4C351.29,232.04,350,235.26,348.71,238.48z M214,216.69
			c-0.22-0.58-0.43-1.15-0.65-1.73c-8.01,0-16.03,0.27-24.02-0.1c-5.07-0.23-8.81,1.37-12.3,4.97c-4.52,4.65-9.48,8.88-14.36,13.17
			c-1.11,0.98-2.57,2.59-4.21,1.21c-1.49-1.26,0.3-2.4,0.76-3.59c1.43-3.67,2.73-7.39,4.19-11.06c1.3-3.27,0.41-4.74-3.23-4.68
			c-7.43,0.12-14.86,0.16-22.29,0.08c-2.8-0.03-4.08,1.34-5.04,3.78c-7.78,19.86-15.59,39.71-23.53,59.51
			c-1.74,4.34-0.09,5.21,3.9,5.1c6.96-0.18,13.94-0.25,20.9,0.03c3.94,0.16,5.84-1.29,6.97-5.04c1.32-4.42,3.32-8.64,5.04-12.94
			c0.49-1.22,0.55-3.11,2.4-2.75c0.74,0.14,1.24,1.65,1.81,2.56c2.55,4.02,2.76,8.79,3.99,13.21c0.92,3.33,2.16,5.1,6.05,4.97
			c8.58-0.29,17.18-0.18,25.78-0.03c3.85,0.07,5.03-1.09,3.49-4.86c-2.36-5.78-4.47-11.67-6.68-17.51
			c-5.24-13.85-5.18-13.78,6.5-23.44C197.74,230.74,205.83,223.66,214,216.69z M192.65,283.32c11.29,0,20.52-0.01,29.75,0.01
			c1.74,0,3.46-0.37,4.04-2.11c3.21-9.6,11.15-7.75,18.42-7.94c4-0.1,6.3,0.83,5.5,5.36c-0.66,3.75,1.15,4.83,4.7,4.74
			c7.2-0.19,14.41-0.26,21.6,0.01c4.26,0.16,5.6-1.22,5.44-5.57c-0.71-19.03-1.24-38.07-1.49-57.11c-0.06-4.73-1.83-6-6.19-5.86
			c-7.43,0.24-14.87,0.26-22.3-0.01c-4.43-0.16-7.29,1.55-9.9,5.03c-6.97,9.27-14.29,18.29-21.44,27.43
			C211.8,258.77,202.84,270.27,192.65,283.32z M428.35,214.93c-3.02,0-6.04,0-9.06,0c-3.25,0-6.5-0.04-9.75,0
			c-15.44,0.21-11.49-2-17.26,11.52c-3.44,8.08-3.28,8.46,5.5,8.29c6.41-0.12,6.8,2.15,4.66,7.39c-4.91,12.02-9.3,24.24-14.06,36.32
			c-1.38,3.49-1.11,5.07,3.17,4.93c6.73-0.23,13.48-0.33,20.19,0.04c4.47,0.25,6.64-1.46,8.13-5.57
			c4.58-12.64,9.59-25.13,14.21-37.76c1.39-3.78,3.35-6.06,7.59-5.18c8.81,1.81,13.45-2.06,14.92-10.59
			c0.27-1.58,0.96-3.11,1.65-4.58c1.76-3.73,0.37-4.92-3.43-4.87C445.99,215,437.17,214.92,428.35,214.93z"/>
		<path class="st1" d="M214,216.69c-8.17,6.97-16.26,14.04-24.53,20.88c-11.68,9.66-11.74,9.58-6.5,23.44
			c2.21,5.84,4.32,11.73,6.68,17.51c1.54,3.77,0.36,4.92-3.49,4.86c-8.59-0.15-17.19-0.26-25.78,0.03
			c-3.89,0.13-5.13-1.64-6.05-4.97c-1.23-4.42-1.43-9.19-3.99-13.21c-0.58-0.91-1.07-2.42-1.81-2.56c-1.85-0.36-1.92,1.53-2.4,2.75
			c-1.72,4.3-3.72,8.52-5.04,12.94c-1.12,3.75-3.03,5.2-6.97,5.04c-6.96-0.28-13.94-0.21-20.9-0.03c-3.99,0.11-5.64-0.76-3.9-5.1
			c7.94-19.8,15.75-39.65,23.53-59.51c0.95-2.44,2.23-3.81,5.04-3.78c7.43,0.08,14.86,0.05,22.29-0.08
			c3.64-0.06,4.53,1.41,3.23,4.68c-1.46,3.66-2.76,7.38-4.19,11.06c-0.46,1.19-2.25,2.33-0.76,3.59c1.63,1.38,3.09-0.23,4.21-1.21
			c4.88-4.29,9.84-8.52,14.36-13.17c3.5-3.6,7.23-5.21,12.3-4.97c7.99,0.37,16.01,0.1,24.02,0.1
			C213.57,215.54,213.78,216.12,214,216.69z"/>
		<path class="st1" d="M192.65,283.32c10.19-13.05,19.15-24.55,28.13-36.02c7.15-9.14,14.46-18.16,21.44-27.43
			c2.61-3.47,5.48-5.19,9.9-5.03c7.42,0.27,14.87,0.25,22.3,0.01c4.36-0.14,6.13,1.14,6.19,5.86c0.25,19.04,0.78,38.08,1.49,57.11
			c0.16,4.34-1.17,5.73-5.44,5.57c-7.19-0.27-14.4-0.2-21.6-0.01c-3.54,0.09-5.36-0.99-4.7-4.74c0.8-4.54-1.5-5.46-5.5-5.36
			c-7.27,0.18-15.21-1.66-18.42,7.94c-0.58,1.73-2.3,2.11-4.04,2.11C213.17,283.31,203.94,283.32,192.65,283.32z M243.53,255.07
			c10.56,1.93,11.87,0.01,9.69-13.18C249.02,245.43,246.94,250.32,243.53,255.07z"/>
		<path class="st1" d="M428.35,214.92c8.82-0.01,17.65,0.07,26.47-0.05c3.8-0.05,5.19,1.14,3.43,4.87c-0.69,1.46-1.37,3-1.65,4.58
			c-1.47,8.53-6.11,12.4-14.92,10.59c-4.23-0.87-6.2,1.4-7.59,5.18c-4.62,12.63-9.63,25.11-14.21,37.76
			c-1.49,4.1-3.66,5.81-8.13,5.57c-6.71-0.37-13.47-0.27-20.19-0.04c-4.29,0.14-4.55-1.43-3.17-4.93
			c4.77-12.08,9.16-24.3,14.06-36.32c2.14-5.24,1.75-7.51-4.66-7.39c-8.78,0.17-8.95-0.22-5.5-8.29
			c5.76-13.51,1.82-11.31,17.26-11.52c3.25-0.04,6.5,0,9.75,0C422.31,214.93,425.33,214.93,428.35,214.92z"/>
		<path class="st1" d="M133.14,332.65c0.77,0.21,1.54,0.43,2.31,0.64C134.68,333.07,133.91,332.86,133.14,332.65z"/>
		<path class="st0" d="M243.53,255.07c3.41-4.75,5.49-9.64,9.69-13.18C255.41,255.08,254.1,257,243.53,255.07z"/>
	</g>
</g>
</svg>
