<?xml version="1.0" encoding="UTF-8" standalone="no"?><!-- Generator: Gravit.io --><svg xmlns="http://www.w3.org/2000/svg" xmlns:xlink="http://www.w3.org/1999/xlink" style="isolation:isolate" viewBox="0 0 150 150" width="150pt" height="150pt"><defs><clipPath id="_clipPath_63qP3YNljL2BTC7UcNnLs2yz5Yjj9QoV"><rect width="150" height="150"/></clipPath></defs><g clip-path="url(#_clipPath_63qP3YNljL2BTC7UcNnLs2yz5Yjj9QoV)"><path d=" M 0 56.25 L 150 56.25 L 150 93.75 L 0 93.75 L 0 56.25 Z " fill="none"/><path d=" M 69.166 84.334 L 73.655 84.334 L 73.655 75.047 C 73.655 70.141 70.525 67.536 66.759 67.536 C 64.267 67.536 62.384 68.617 61.028 70.114 L 60.419 70.114 C 59.395 68.783 57.623 67.536 54.994 67.536 C 52.608 67.536 50.702 68.589 49.705 69.809 L 49.095 69.809 L 49.095 68.008 L 44.914 68.008 L 44.914 84.334 L 49.375 84.334 L 49.375 75.797 C 49.375 72.884 50.234 71.888 53.223 71.888 C 56.213 71.888 57.042 72.884 57.042 75.797 L 57.042 84.333 L 61.533 84.333 L 61.533 75.797 C 61.533 72.884 62.363 71.888 65.353 71.888 C 68.345 71.888 69.173 72.884 69.173 75.797 L 69.167 84.333 L 69.166 84.334 Z  M 27.031 81.997 C 26.23 81.416 25.869 80.556 25.869 79.255 C 25.869 77.619 26.369 75.603 27.198 74.736 C 27.78 74.153 28.609 73.877 29.745 73.877 C 31.352 73.877 33.317 74.298 34.147 75.152 C 34.702 75.706 34.952 76.481 34.952 77.563 C 34.952 79.116 34.508 81.305 33.538 82.219 C 32.984 82.719 32.237 82.939 31.186 82.939 C 29.748 82.939 27.942 82.605 27.031 81.997 Z  M 34.094 85.434 L 33.898 86.931 L 38.077 87.447 L 40.056 71.27 L 35.88 70.756 L 35.684 72.325 L 35.202 72.325 C 34.577 71.217 32.902 69.719 29.745 69.719 C 25.344 69.719 22.105 72.963 21.522 77.395 C 21.468 77.828 21.44 78.264 21.439 78.7 C 21.439 82.939 24.319 86.433 28.803 86.931 C 29.053 86.955 29.302 86.963 29.552 86.959 C 31.434 86.959 32.847 86.156 33.567 85.436 L 34.092 85.436 L 34.094 85.434 Z  M 128.609 80.647 C 125.259 80.647 124.152 79.539 124.152 76.186 C 124.152 72.831 125.261 71.691 128.609 71.691 C 131.959 71.691 133.067 72.827 133.067 76.186 C 133.067 79.544 131.959 80.647 128.609 80.647 Z  M 107.125 80.647 C 103.773 80.647 102.667 79.539 102.667 76.186 C 102.667 72.831 103.773 71.691 107.123 71.691 C 110.473 71.691 111.583 72.827 111.583 76.186 C 111.583 79.544 110.473 80.647 107.123 80.647 L 107.125 80.647 Z  M 86.192 80.647 C 82.844 80.647 81.736 79.539 81.736 76.186 C 81.736 72.831 82.844 71.691 86.192 71.691 C 89.541 71.691 90.652 72.827 90.652 76.186 C 90.652 79.544 89.542 80.647 86.192 80.647 Z  M 15.222 62.5 L 12.5 84.302 L 16.944 84.844 L 19.622 63.041 L 15.222 62.5 Z  M 133.261 82.755 L 133.261 84.333 L 137.441 84.333 L 137.441 68.009 L 133.261 68.009 L 133.261 69.591 L 132.652 69.591 C 131.986 68.703 130.298 67.539 128.022 67.539 C 123.038 67.539 119.634 71.331 119.634 76.188 C 119.634 81.042 123.039 84.808 128.022 84.808 C 130.294 84.808 131.981 83.644 132.652 82.756 L 133.261 82.756 L 133.261 82.755 Z  M 86.192 67.538 C 80.655 67.538 77.223 71.33 77.223 76.186 C 77.223 81.041 80.655 84.806 86.192 84.806 C 91.73 84.806 95.172 81.036 95.172 76.186 C 95.172 71.334 91.738 67.538 86.192 67.538 Z  M 111.831 82.755 L 111.831 84.333 L 116.011 84.333 L 116.011 62.688 L 111.583 62.688 L 111.583 69.589 L 110.973 69.589 C 110.309 68.702 108.812 67.538 106.544 67.538 C 101.559 67.538 98.153 71.33 98.153 76.186 C 98.153 81.041 101.559 84.806 106.544 84.806 C 108.812 84.806 110.584 83.642 111.222 82.755 L 111.831 82.755 Z " fill="rgb(0,0,0)"/></g></svg>