<?xml version="1.0" encoding="utf-8"?>
<!-- Generator: Adobe Illustrator 22.1.0, SVG Export Plug-In . SVG Version: 6.00 Build 0)  -->
<svg version="1.1"
	 id="svg2" inkscape:version="0.48.2 r9819" sodipodi:docname="Aeropostale_logo2.svg" xmlns:cc="http://creativecommons.org/ns#" xmlns:dc="http://purl.org/dc/elements/1.1/" xmlns:inkscape="http://www.inkscape.org/namespaces/inkscape" xmlns:rdf="http://www.w3.org/1999/02/22-rdf-syntax-ns#" xmlns:sodipodi="http://sodipodi.sourceforge.net/DTD/sodipodi-0.dtd" xmlns:svg="http://www.w3.org/2000/svg"
	 xmlns="http://www.w3.org/2000/svg" xmlns:xlink="http://www.w3.org/1999/xlink" x="0px" y="0px" viewBox="0 0 500 500"
	 style="enable-background:new 0 0 500 500;" xml:space="preserve">
<style type="text/css">
	.st0{fill:#FF3EB5;}
</style>
<sodipodi:namedview  bordercolor="#666666" borderopacity="1" gridtolerance="10" guidetolerance="10" id="namedview35" inkscape:current-layer="svg2" inkscape:cx="305.96738" inkscape:cy="101.65201" inkscape:pageopacity="0" inkscape:pageshadow="2" inkscape:window-height="1003" inkscape:window-maximized="1" inkscape:window-width="1680" inkscape:window-x="-4" inkscape:window-y="-4" inkscape:zoom="1.2764184" objecttolerance="10" pagecolor="#ffffff" showgrid="false">
	</sodipodi:namedview>
<sodipodi:namedview  bordercolor="#666666" borderopacity="1" fit-margin-bottom="0" fit-margin-left="0" fit-margin-right="0" fit-margin-top="0" gridtolerance="10" guidetolerance="10" id="namedview3875" inkscape:current-layer="g3881" inkscape:cx="836.55822" inkscape:cy="-249.2839" inkscape:pageopacity="0" inkscape:pageshadow="2" inkscape:window-height="1028" inkscape:window-maximized="1" inkscape:window-width="1920" inkscape:window-x="-8" inkscape:window-y="-8" inkscape:zoom="0.47532087" objecttolerance="10" pagecolor="#ffffff" showgrid="false">
	</sodipodi:namedview>
<path class="st0" d="M117.8,299.1c-5.3-1.1-9.6-4.9-11.8-14c-2.2-9-1.1-19.2,0.4-27.8c0,0,1.3-7.4,4.4-15.7
	c1.3-3.4,3.4-7.8,2.9-10.1c-0.9-4.6-8.7-5.6-12.1-4.8c-2.7,0.6-7,4.9-9.1,7.9c-2.7,3.8-5,7.8-7,12l-1.9,4c0,0-5.2,10.7-6.4,21.2
	c-0.1,1.1-0.1,2.2-0.1,3.3c-26,27.2-49.7,39.2-57.4,30.3c-9.1-10.6,11.6-54.5,11.6-54.5c16.6-36.2,38.2-53.1,38.2-53.1
	c2.7-2.2,3.6-4.5,3.6-7.6c0-5.3-4.2-9.6-9.4-9.6c-2.4,0-4.7,0.9-6.4,2.5c0,0-1.4,1-3.4,3.7c0,0-19.3,26.7-32.8,61.6
	c0,0-19.4,44.6-8.1,59.4c14.8,19.4,51.3-14.8,65-28.8c1.8,3.9,5.6,4,5.6,4s5,1,9.5-2.4c0,0,0.1,7.2,4.6,15.3
	c5.2,9.3,21,9.8,22.8,6.1C120.5,302.1,121.5,299.9,117.8,299.1 M94.2,254.1c-0.4,2.1-1.1,4.7-1.9,7.7c-1.5,5.6-5.7,14.4-7.2,14.1
	c-1.2-0.2,1.6-11,1.6-11s1-4.1,2.5-7.7c3.1-7.5,4.8-8.8,5.3-8.7C95,248.7,94.7,251.3,94.2,254.1 M321.4,241.6
	c2.9-9.4,9.6-19.4,9.6-19.4s3.6-6.4-0.9-9.2c-6.8-4.3-17.8,11.7-17.8,11.7s-5.9,8.5-21.7,28.2c-15.7,19.8-11.1,4.7-9.1-0.2
	c2-4.9,5.6-13.2,5.6-13.2c2.2-5.4-1.6-7.3-1.6-7.3c-6.6-4.1-13.4,8.1-16.5,12.5c-3.1,4.4-8.3,11.9-8.3,11.9
	c-7.6,10.6-16.9,22.4-21.9,19.7c-4.1-2.2-1.3-13-1.3-13c0.5-2.3,1-4.5,1.6-6.6c1.4-0.5,2.9-1,4.5-1.6c17.4-6.2,23.4-17.5,25.5-24.3
	c2-6.8,2.6-13.1-2.6-16.6c-6.9-4.6-17.8,2.2-26.4,14.2c0,0-7.6,10.2-12,25.2c-8.8,2.3-9.8,2.4-13.9,3.4c-2.5,0.6-9.7,2.2-14.7,3.3
	c-2-4.7-4.7-9.4-8-14.3c0,0-4.7-6.8-11.7-16.7c-7-9.9-8-20.8,0.7-29.6c2.9-3,7.2-6.2,12.2-8.8c4-2.1,4.7-2.5,9.2-3.9
	c4.4-1.4,9.1-0.3,9.1-0.3c2.1,0.4,2.2,0.9,3.8,1c3.2,0.3,5.8-2.6,5.8-5.9c0-1.7-0.8-3.3-1.9-4.4c0,0-5.1-6.2-19.5-2.9
	c-4.5,1-28.4,9.4-36.8,29.4c-6.7,15.8,1.1,23.5,11.4,38.2c3.7,5.3,7.5,10.5,11.3,15.7c1.2,1.7,2.1,3.4,3,5
	c-22.6,5.3-38.4,12.6-41.3,20.8c-4.1,11.6,8.1,18.1,8.1,18.1s12.5,7.1,27.9,1.1c0,0,15.6-5.2,18.8-16c2-6.9,2-13.3,0.5-19.7
	c3.8-1,8.9-2.3,13.1-3.3c3.8-1,7.7-2,11.5-3c-0.3,1.5-0.5,3-0.7,4.5c-2.2,17,8.2,19.5,8.2,19.5s11.3,3.9,20.1-6.1
	c8.2-9.2,16.2-20,16.2-20s-6.4,18.7,1.9,18.5c10.1-0.3,22.9-15.6,22.9-15.6l12.9-15.9c0,0-0.9,5-0.4,11.9c0,0,0.7,14.3,4.4,20.1
	c3.7,5.7,9.5,3.7,9.5,3.7s5.3-2.5,2-8.1C318.1,265.1,318.5,251,321.4,241.6 M256.9,226.9c0,0,2-0.7,2,1.8c0,6-6.4,13.1-6.4,13.1
	c-2.9,2.9-6.9,5.3-11.3,7.3C248.2,229.1,256.9,226.9,256.9,226.9 M157.2,295.7c-3.3-2.2-7.2-11.3,7.9-17.8c6.9-3,16.2-5.7,25.2-7.9
	C197.2,294.1,165.8,301.5,157.2,295.7 M390.5,250.2c0.1,1.9-0.8,4.1-2.5,5c-0.7,0.4-1.4,0.6-2.2,0.7c-10.6,1.1-16.9,2.8-16.9,2.8
	c-8.8,2.1-15,4.2-21.3,6.3c-21.7,7.1-22.8-0.6-22.8-0.6c-0.8-3.3,0.1-5.7,5.1-9.5c0,0,11.7-8.9,25.1-18.6c10.2-7.3,13.4-9.5,17-12.3
	c7.7-6.2,8.8-9.4,8.8-9.4c-10.6,1.1-29.5,7.1-29.5,7.1c-4.3,1.4-6.7,0.3-7.9-1.5c-1.7-2.3-0.9-5.5,2.3-6.7
	c19.7-7.5,37.6-10.1,37.6-10.1c4.9-0.6,9.8,0.7,11.3,4.5c1.6,3.9-0.8,8.5-4.6,12.7c-3.8,4.3-13.1,10.6-25.7,19.4
	c0,0-9.3,6.7-19.1,14.6c0,0,8.6-2.1,21.1-4.6c10.9-2.2,19.9-2.7,19.9-2.7C388.5,247.2,390.3,247.4,390.5,250.2 M490.8,272.7
	c0,0-16.6-4.2-28.7-13.6c-11.1-8.6-11.1-18.4-11.1-19.8c0,0,0.1-9.4,17.6-26.1c0,0,1.7-1.4,3.9-3.8c1.6-1.7,0.4-3.9,0.4-3.9
	c-4.8-8.9-16.8-6.4-16.8-6.4c-2,0.4-17.4,3.3-34.7,17.1c0,0-13.7,10.7-21.2,20.2c0,0-8.3,9.1-4.2,13.2c4.5,4.5,17.2-1.2,25.3-5.6
	c8.2-4.4,17.8-10.6,17.8-10.6s-6.3,17.8,16.8,35.4c8.8,6.7,24.5,10.9,24.5,10.9s14.1,4.1,15.9-1
	C497.8,274.6,490.8,272.7,490.8,272.7 M434.3,225.3c-12.5,9.7-21.3,12.8-21.9,11.9c-0.7-1.1,7.2-9.1,18.3-17.1
	c14.7-10.6,21.2-12.9,21.7-12.1C452.9,208.8,445.1,216.9,434.3,225.3"/>
</svg>
