<?xml version="1.0" encoding="utf-8"?>
<!-- Generator: Adobe Illustrator 22.1.0, SVG Export Plug-In . SVG Version: 6.00 Build 0)  -->
<svg version="1.1"
	 id="svg2" inkscape:version="0.48.2 r9819" sodipodi:docname="Aeropostale_logo2.svg" xmlns:cc="http://creativecommons.org/ns#" xmlns:dc="http://purl.org/dc/elements/1.1/" xmlns:inkscape="http://www.inkscape.org/namespaces/inkscape" xmlns:rdf="http://www.w3.org/1999/02/22-rdf-syntax-ns#" xmlns:sodipodi="http://sodipodi.sourceforge.net/DTD/sodipodi-0.dtd" xmlns:svg="http://www.w3.org/2000/svg"
	 xmlns="http://www.w3.org/2000/svg" xmlns:xlink="http://www.w3.org/1999/xlink" x="0px" y="0px" viewBox="0 0 500 500"
	 style="enable-background:new 0 0 500 500;" xml:space="preserve">
<style type="text/css">
	.st0{fill:#FCA34C;}
	.st1{fill:#FB4242;}
	.st2{fill:#483D08;}
</style>
<sodipodi:namedview  bordercolor="#666666" borderopacity="1" gridtolerance="10" guidetolerance="10" id="namedview35" inkscape:current-layer="svg2" inkscape:cx="305.96738" inkscape:cy="101.65201" inkscape:pageopacity="0" inkscape:pageshadow="2" inkscape:window-height="1003" inkscape:window-maximized="1" inkscape:window-width="1680" inkscape:window-x="-4" inkscape:window-y="-4" inkscape:zoom="1.2764184" objecttolerance="10" pagecolor="#ffffff" showgrid="false">
	</sodipodi:namedview>
<sodipodi:namedview  bordercolor="#666666" borderopacity="1" fit-margin-bottom="0" fit-margin-left="0" fit-margin-right="0" fit-margin-top="0" gridtolerance="10" guidetolerance="10" id="namedview3875" inkscape:current-layer="g3881" inkscape:cx="836.55822" inkscape:cy="-249.2839" inkscape:pageopacity="0" inkscape:pageshadow="2" inkscape:window-height="1028" inkscape:window-maximized="1" inkscape:window-width="1920" inkscape:window-x="-8" inkscape:window-y="-8" inkscape:zoom="0.47532087" objecttolerance="10" pagecolor="#ffffff" showgrid="false">
	</sodipodi:namedview>
<path class="st0" d="M297.1,285.1c-11.8-1.6-20.3-5.7-26.7-13c-7.3-8.3-10.9-19.5-10.8-33.5c0-25.1,11.4-42.4,31.3-47.7
	c7.2-2,20.3-1.8,28.2,0.2c9.6,2.5,17.8,8.9,22,17.3c1.6,3.3,3.5,9.6,3.5,11.7v1.1l-8-0.1l-8-0.1l-1.2-3.5
	c-3.7-10.7-12.9-15.8-26-14.4c-4.8,0.5-6.9,1.1-10.4,2.9c-9.7,5-14.8,16-14.8,32c0,9.6,1.6,16.5,5.2,22.4c4.8,7.7,12,11.6,21.5,11.7
	c8.6,0,14.6-1.9,19-6.4c3.7-3.7,5.8-7.9,7.2-14.8l0.2-1.3h7.9c9.2,0,8.5-0.6,6.9,5.9c-3.9,15.4-13.2,25-27.6,28.5
	C312.5,285,300.9,285.6,297.1,285.1L297.1,285.1z M373.8,284.9c-13.6-1.9-21.8-9.3-23.4-21.1c-1.6-11.6,3-21.5,12.5-26.8
	c4.9-2.7,16.6-5.6,29.7-7.3c13.8-1.8,18.4-3.6,20.4-8.1c0.8-1.7,0.9-2.7,0.7-4.9c-0.4-4.2-1.1-6-3.2-8.4c-3.6-4-8.4-5.5-17.4-5.5
	c-14.3,0-21.5,4.3-23.3,13.9l-0.6,3.2h-15.3l0.1-2.5c0.5-10.3,7-19.5,17.1-24.1c6.9-3.1,14.2-4.2,26.3-3.8c6.4,0.2,9.5,0.5,12.2,1.2
	c9.8,2.6,15.8,7.4,18.4,15c0.8,2.3,0.9,5.3,1.1,32.8c0.2,32.6,0.2,32.5,2.7,33.1c0.6,0.2,2.4,0.2,4,0.1l2.9-0.2v11.8l-2.5,0.8
	c-1.8,0.6-4,0.8-7.8,0.9c-4.7,0-5.5-0.1-7.6-1.2c-2.9-1.4-5.3-4.6-5.7-7.5c-0.1-1.1-0.4-2.6-0.5-3.3l-0.3-1.3l-2.4,2.4
	c-7.3,7-16.5,10.5-28.5,10.8C379.7,285.2,375.4,285.1,373.8,284.9L373.8,284.9z M393.1,271.3c9.5-1.8,16.9-7.4,19.5-14.9
	c0.5-1.6,0.7-4.4,0.8-10.8c0-4.8,0-8.8-0.1-8.9c-0.1-0.1-1.1,0.2-2.2,0.7c-2.7,1.3-6.5,2-18.7,3.7c-13,1.8-17.7,3.4-21.4,7
	c-3.2,3.1-4,5.2-4,10c0,4.8,0.6,6.6,3.6,9.5C374.5,271.7,383.5,273.1,393.1,271.3L393.1,271.3z M446.8,220.1l0.1-63.4h15.3v126.6
	l-7.8,0.1l-7.7,0.1L446.8,220.1L446.8,220.1z M479.9,282.5c-0.1-0.6-0.2-29.1-0.1-63.4l0.1-62.4l7.8-0.1l7.7-0.1v127h-7.6
	C480.3,283.5,480.2,283.5,479.9,282.5z"/>
<path class="st1" d="M416.3,318.1c0.4-0.1,1.1-0.1,1.4,0c0.3,0.1,0,0.2-0.9,0.2C416.2,318.3,415.9,318.2,416.3,318.1z M420.6,318.1
	c0.4-0.1,1.1-0.1,1.4,0c0.3,0.1,0,0.2-0.9,0.2C420.5,318.3,420.2,318.2,420.6,318.1z M449.5,318.1c0.6-0.1,1.4-0.1,1.9,0
	c0.4,0.1,0,0.2-1.1,0.2C449.3,318.3,448.9,318.2,449.5,318.1L449.5,318.1z M454.1,318.1c0.4-0.1,1.1-0.1,1.4,0
	c0.3,0.1,0,0.2-0.9,0.2C453.9,318.3,453.6,318.2,454.1,318.1z M482.2,318.1c0.4-0.1,1.2-0.1,1.7,0c0.4,0.1,0,0.2-0.9,0.2
	S481.7,318.2,482.2,318.1z M486.8,318.1c0.6-0.1,1.4-0.1,1.9,0c0.4,0.1,0,0.2-1.1,0.2C486.5,318.3,486.1,318.2,486.8,318.1
	L486.8,318.1z M495.5,312.4c0-0.7,0.1-0.9,0.2-0.6c0.1,0.3,0.1,0.8,0,1.2C495.6,313.3,495.5,313,495.5,312.4z M495.5,308.4
	c0-0.5,0.1-0.7,0.3-0.3c0.1,0.3,0.1,0.7,0,0.9C495.6,309.2,495.4,308.9,495.5,308.4L495.5,308.4z M58,284.9
	c-11.9-1.7-19.8-7.9-22.4-17.7c-1-3.7-0.9-12.1,0.1-15.8c3.5-12.3,13.9-17.8,40-21.4c8.6-1.2,13.6-2.1,16.2-3.3
	c4.8-2,6.8-5.3,6.3-10.5c-0.5-5.4-2.9-8.9-7.4-11.1c-6.7-3.3-21.4-3-28.7,0.7c-4.3,2.2-7.2,6.4-7.9,12.1l-0.3,2.4l-7.7-0.1l-7.7-0.1
	l0.1-2.3c0.5-7.4,3.1-12.9,8.4-18.1c4.5-4.4,8.5-6.6,15.8-8.5c4.5-1.2,5.3-1.3,15.9-1.3c12.7,0,15.9,0.5,21.7,3.1
	c4,1.9,8.6,5.9,10.4,9c2.7,4.8,2.7,5.4,2.8,34.8c0,14.8,0.1,28.4,0.4,30.2c0.5,4.9,1.4,5.4,8.2,4.8l1.2-0.1v11.6l-2.4,0.9
	c-1.9,0.7-3.6,0.9-7.9,0.9c-4.9,0-5.7-0.1-7.6-1c-3.9-2-6.3-5.9-6.3-10.2c0-1.6-1.1-2.2-1.6-0.9c-0.4,1.1-7.4,6.2-10.3,7.7
	C79.3,284.6,67.9,286.3,58,284.9L58,284.9z M78.6,271.1c7.5-1.5,14.8-6.7,17.7-12.6c1.2-2.6,1.3-3,1.4-12.3c0.1-5.4,0-9.7,0-9.7
	c-0.1,0-1.1,0.4-2.2,1c-2.4,1.1-8.6,2.5-14.8,3.2c-15.6,1.9-21.1,3.4-25.3,7.4c-3.1,2.9-4.1,5.4-4.1,10.2c0,4.6,0.9,6.7,4,9.4
	c2.5,2.2,4,2.9,7.4,3.5C68.5,272.4,72.6,272.4,78.6,271.1L78.6,271.1z M155.6,284.9c-6.9-0.8-13.4-2.9-17.9-5.7
	c-7.4-4.6-12.6-13.4-12.8-21.5l-0.1-3.2l7-0.1c7.6-0.1,8.5,0.1,8.5,2.5c0,2.5,2.1,6.5,4.5,8.8c4.5,4.4,10.8,6.3,20.6,6.3
	c9.4,0,15.7-1.7,19.3-5.2c2.1-2,3-3.9,3.2-6.9c0.5-5.4-1.7-8.9-7.4-11.8c-4.9-2.5-10.9-4.2-24.3-6.8c-6.1-1.2-14.6-4-18.1-6.1
	c-3.6-2-8.3-6.6-9.5-9.2c-2.4-5.1-2.7-13.5-0.6-18.8c1.3-3.4,4.8-7.9,7.9-10.2c3.2-2.4,8.5-4.8,13.3-6.1c3.5-0.9,5.1-1,13.7-1
	c7.5,0,10.6,0.2,13.5,0.8c12.4,2.7,19.9,9.1,22.7,19.5c0.5,1.9,1,4.6,1.1,5.8l0.1,2.3H185l-0.8-2.9c-2.3-8.1-9.4-12.2-21.3-12.3
	c-8.1,0-13.1,1.3-16.6,4.3c-2.4,2.1-3.2,3.9-3.3,6.9c0,3.1,0.8,4.8,3.4,7.2c3.8,3.4,8,4.8,22.2,8c12.2,2.7,17.3,4.1,21.5,6.1
	c6.8,3.2,11.7,8.4,13.5,14.1c1.1,3.4,1.1,10.9,0,14.9c-3,11.2-14.2,18.7-30.6,20.4C167.8,285.4,160.2,285.4,155.6,284.9L155.6,284.9
	z M7.1,220v-63.5h16L23,220l-0.1,63.5H7.1V220z M235.5,283.1c-8-0.9-11.5-3.3-13.9-9.3c-0.8-1.9-0.9-4.7-1-35.5l-0.1-33.4h-16.2
	v-13.5h16.2v-27.5h15.3l0.1,13.6l0.1,13.6l9.5,0.1l9.4,0.1v13.5l-9.4,0.1l-9.5,0.1v30c0,24.6,0.1,30.3,0.7,31.6
	c1.1,2.6,2.7,3.1,10.9,3.3l7.3,0.2v13.4l-8.2,0C242.1,283.4,237.1,283.2,235.5,283.1L235.5,283.1z M495.7,220c0-35,0-49.3,0.1-31.7
	c0.1,17.6,0.1,46.3,0,63.8C495.7,269.5,495.7,255.1,495.7,220z"/>
<path class="st2" d="M416.4,318c-7.6-1.3-11.9-9.8-9-18.1c2.3-6.8,10.8-10,17.8-6.5c2.4,1.2,4.7,4.2,5,6.5c0.1,1.1,0,1.2-2.5,1.3
	c-2.5,0.1-2.7,0-3.4-1.3c-1.1-2-3.1-3.1-5.4-3c-4,0.1-6.4,3.3-6.4,8.5c0,5.1,2.5,8.1,6.7,8.1c2.4,0,4.2-1.2,5.3-3.7l1-2h2.6
	c2.9,0,3.1,0.2,2.1,3.3c-0.7,2.3-3,4.9-5.1,6C422.8,318,419.1,318.4,416.4,318L416.4,318z M449.9,318c-4.4-0.6-6.9-2.6-7.9-6.1
	c-0.3-1-0.4-5.5-0.4-10.5l0.1-8.7l2.7-0.1l2.7-0.1l0.1,9.3c0.1,8.4,0.2,9.4,1.1,10.3c1.9,2,6.8,2.1,8.4,0.2
	c0.5-0.6,0.7-3.2,0.9-10.1l0.2-9.4l2.8-0.1l2.7-0.1v9.5c0,5.6-0.2,10.1-0.5,10.8C461.4,316.7,456.3,318.8,449.9,318L449.9,318z
	 M482.1,317.9c-3.5-0.5-6.2-2.4-7.4-5.2c-1.3-3-0.9-3.6,2.3-3.6c2.5,0,2.6,0,2.9,1.3c0.4,1.9,1.8,2.9,4.2,3.2c3.6,0.4,6-0.7,6-2.7
	c0-1.5-1.6-2.6-5.8-3.7c-5.2-1.3-7.4-2.5-8.5-4.3c-2.7-4.3,0.7-10,6.5-10.8c3.1-0.4,7.1,0.2,8.9,1.3c2.1,1.3,3.7,3.9,3.7,5.5
	c0,1.3,0,1.3-2.6,1.3c-2.3,0-2.7-0.1-3.1-1c-0.8-1.9-2.3-2.8-4.6-2.8c-2.4,0-4.1,1.1-4.1,2.7c0,1.3,1.5,2.1,5.7,3.2
	c1.7,0.4,3.8,1,4.5,1.3c4.6,1.7,6.2,6.7,3.5,11.1C492.8,317.3,487.7,318.7,482.1,317.9L482.1,317.9z M7.8,317.4
	c-0.1-0.4-0.2-6.1-0.1-12.8l0.1-12.1h7.9c8.8,0,10.3,0.4,11.7,3.1c1.1,2.1,0.7,5.8-0.9,7.1l-1.1,1l1.8,1.6c3.7,3.4,2.7,9.1-1.9,11.3
	c-2,0.9-3.2,1.1-9.7,1.2C9.5,318,8,318,7.8,317.4z M22.3,312.6c1.4-1,1.5-3.9,0-5.1c-0.8-0.7-1.8-0.8-4.9-0.9h-3.9l-0.1,3.4
	l-0.1,3.4h4C20.1,313.3,21.5,313.1,22.3,312.6L22.3,312.6z M21.5,301.8c1.1-0.9,1.1-3.1,0.1-4c-0.5-0.6-1.7-0.7-4.5-0.7h-3.8v5.6H17
	C19.7,302.6,20.9,302.4,21.5,301.8z M47.5,317.7c-0.2-0.2-0.3-2.4-0.3-4.9v-4.6l-4.8-7.7c-2.6-4.3-4.8-7.9-4.8-8
	c0-0.1,1.4-0.2,3.2-0.1l3.2,0.1l2.8,4.4c1.5,2.4,2.9,4.5,3.2,4.6s1.1-1.1,2-2.6c0.9-1.5,2.1-3.6,2.9-4.7c1.4-2,1.4-2,4.2-2
	c1.8,0,2.9,0.2,2.9,0.5c0,0.3-2,3.7-4.4,7.6l-4.4,7l-0.2,5.1l-0.2,5.1l-2.4,0.1C49,318,47.7,317.9,47.5,317.7L47.5,317.7z
	 M92.9,317.6c-0.2-0.1-0.3-5.9-0.3-12.8v-12.5h5.7l5.2,8.1l5.2,8.1l0.2-8l0.2-8h5.3v25.1h-5.7l-4.8-7.5c-2.7-4.2-5.1-7.8-5.4-8.1
	c-0.4-0.4-0.6,1.3-0.6,7.7v8.2h-2.3C94.2,318,93,317.8,92.9,317.6L92.9,317.6z M126.8,317.7c-0.2-0.2-0.3-6-0.3-12.8v-12.5H146v5.1
	h-13.4l0,1.3c0,0.7-0.1,1.8-0.1,2.4l0,1.2l6.3,0.1l6.3,0.1v4.1h-6.2c-6.9,0-6.6-0.2-6.5,3.7l0,2.1l6.9,0.2l6.9,0.2v2.3l0,2.3
	l-9.5,0.1C131.4,317.9,127,317.8,126.8,317.7L126.8,317.7z M157.5,305.2v-12.8l2.8,0.1l2.7,0.1v25.1l-2.7,0.1l-2.8,0.1V305.2z
	 M175.4,317.4c-0.1-0.3-0.2-6-0.1-12.7l0.1-12.1h8l2.8,7.8c2.7,7.5,3.2,8.6,3.5,8.2c0.1-0.1,1.3-3.7,2.7-8.1l2.6-7.9h8.1v25.1h-5.3
	l-0.2-8.1l-0.2-8.1l-2,5.4c-1.1,2.9-2.3,6.5-2.8,7.9c-1,2.9-1.3,3.3-3.3,3.3c-0.8,0-1.7-0.2-2-0.4c-0.3-0.2-1.8-3.9-3.3-8.2
	l-2.8-7.9l-0.2,8.1l-0.2,8.1l-2.5,0.1C176.4,318,175.5,317.8,175.4,317.4L175.4,317.4z M212.9,317.4c0-0.3,2.1-6,4.7-12.7l4.7-12.1
	h6l4.7,12.1c2.6,6.7,4.7,12.4,4.7,12.7c0,0.4-0.9,0.6-2.8,0.6H232l-0.8-2.2c-0.5-1.3-0.9-2.5-1-2.8c-0.1-0.4-1.4-0.6-5-0.5l-4.8,0.1
	l-1.1,2.6l-1.1,2.6l-2.7,0.1C213.6,318,212.9,317.9,212.9,317.4L212.9,317.4z M228.1,307.3c0-0.5-2.4-7.1-2.7-7.4
	c-0.3-0.4-0.5,0.1-2,4l-1.4,3.8h3.1C226.7,307.7,228.1,307.5,228.1,307.3z M247.5,317.4c-0.1-0.3-0.2-6-0.1-12.7l0.1-12.1h5.7
	l4.9,7.7c2.7,4.2,5.2,7.8,5.4,7.8c0.3,0.1,0.5-2.8,0.5-7.8v-8h5.3l-0.1,12.7l-0.1,12.7l-1.9,0.1c-3.4,0.3-3.6,0.1-8.9-8.2l-5-7.9
	l-0.2,8l-0.2,8l-2.5,0.1C248.5,318,247.6,317.8,247.5,317.4z M302.4,317.6c-0.2-0.1-0.3-5.9-0.3-12.8v-12.5h8l2,5.7
	c3.2,9.3,4,11.3,4.3,10.5c0.1-0.4,1.4-4.1,2.9-8.3l2.6-7.7l4-0.1l3.9-0.1V318l-2.5-0.1l-2.5-0.1l-0.1-7.8c0-4.3-0.3-7.8-0.5-7.8
	c-0.2,0-1.5,3.3-2.9,7.4c-1.4,4-2.8,7.6-3.1,7.9c-0.3,0.4-1.2,0.6-2.4,0.5c-2.1-0.1-2,0.1-5.8-10.7c-1-2.8-1.9-5-2.1-5
	s-0.4,3.6-0.4,7.9v7.9h-2.3C303.8,318,302.6,317.8,302.4,317.6L302.4,317.6z M339.7,317.7c-0.2-0.2,8.6-23.6,9.4-24.9
	c0.1-0.3,1.5-0.5,3.1-0.5c2.2,0,2.8,0.2,3.1,0.8c1.9,4.7,9.3,24.2,9.3,24.4c0,0.1-1.3,0.2-2.9,0.2l-3,0l-1-2.7l-1-2.7h-9.6l-1,2.7
	l-1,2.7l-2.6,0.1C341.2,318,339.9,317.9,339.7,317.7L339.7,317.7z M355.1,307.5c0-0.3-2.9-7.9-3.1-8.1c-0.1-0.1-0.8,1.8-1.6,4
	l-1.5,4.2h3.1C353.7,307.7,355.1,307.6,355.1,307.5z M374.2,305.2v-12.9l8.3,0.2c9.3,0.1,10.6,0.6,12.3,3.6c1.6,2.9,0.9,7.4-1.5,9
	c-1.1,0.7-1.1,0.8-0.3,1.3c1.2,0.7,2.1,2.7,2.4,5.8c0.2,1.5,0.5,3.5,0.6,4.3l0.2,1.5h-2.6c-1.5,0-2.8-0.2-3-0.5
	c-0.1-0.3-0.5-2-0.7-3.7c-0.2-1.8-0.7-3.7-1.1-4.4c-0.7-1.1-1.1-1.2-4.8-1.2h-4l-0.1,4.8l-0.1,4.7l-2.7,0.1l-2.8,0.1V305.2
	L374.2,305.2z M389,302.6c1.2-1.4,1.1-3.5,0-4.7c-0.8-0.8-1.6-0.9-5-0.9h-4.1v3.2c0,1.8,0.1,3.4,0.4,3.5c0.2,0.2,2,0.3,4.1,0.2
	C387.6,303.8,388.3,303.6,389,302.6L389,302.6z"/>
</svg>
