<?xml version="1.0" encoding="UTF-8" standalone="no"?><!-- Generator: Gravit.io --><svg xmlns="http://www.w3.org/2000/svg" xmlns:xlink="http://www.w3.org/1999/xlink" style="isolation:isolate" viewBox="0 0 150 150" width="150pt" height="150pt"><defs><clipPath id="_clipPath_7GdXMCty514ZT094E6A34GDRoqNEAfFO"><rect width="150" height="150"/></clipPath></defs><g clip-path="url(#_clipPath_7GdXMCty514ZT094E6A34GDRoqNEAfFO)"><path d=" M 119.309 64.505 C 112.808 64.505 107.192 70.815 105.29 80.193 C 105.29 80.236 105.29 80.324 105.246 80.412 C 105.246 80.499 105.246 80.543 105.202 80.587 L 105.202 80.85 L 105.467 80.85 C 105.688 80.85 106.307 80.85 106.529 80.28 C 110.199 72.656 114.488 68.756 119.264 68.756 C 123.996 68.756 128.551 73.225 131.513 80.718 L 131.647 81.025 L 131.867 80.806 C 132.398 80.28 133.327 79.404 133.327 78.484 L 133.327 78.44 C 131.071 70.07 125.455 64.505 119.309 64.505 Z " fill="rgb(0,0,0)"/><path d=" M 30.203 64.505 C 29.363 64.505 28.522 64.987 28.522 65.995 C 28.522 66.302 28.788 66.784 29.23 67.748 C 29.495 68.274 29.805 68.887 30.07 69.501 L 30.247 69.939 L 30.424 69.501 C 30.689 68.931 30.954 68.317 31.22 67.835 C 31.662 66.959 31.927 66.346 31.927 65.995 C 31.972 65.075 31.308 64.505 30.203 64.505 Z " fill="rgb(0,0,0)"/><path d=" M 42.322 64.899 C 38.386 64.899 35.158 65.688 32.814 67.222 L 32.505 67.441 L 34.804 68.58 L 34.893 68.449 C 36.396 67.485 38.165 66.521 41.703 66.521 C 48.248 66.521 49.707 70.158 50.017 71.954 L 49.972 71.954 C 49.221 72.174 48.248 72.48 46.656 72.48 C 45.992 72.48 45.55 72.305 44.975 72.086 C 44.224 71.823 43.295 71.472 41.703 71.472 C 40.332 71.472 39.227 71.735 38.386 71.998 L 38.254 72.042 L 38.254 74.145 L 38.519 74.058 C 39.271 73.839 40.421 73.488 41.747 73.488 C 42.941 73.488 43.604 73.707 44.312 73.97 C 44.975 74.233 45.683 74.496 46.7 74.496 C 48.159 74.496 49.221 74.277 50.105 74.014 C 50.105 74.189 50.105 74.277 50.105 74.321 C 49.928 75.898 48.778 79.491 41.747 79.491 C 37.635 79.491 36.175 78.659 34.804 77.651 L 34.628 77.651 L 32.461 78.966 L 32.77 79.141 C 34.849 80.412 37.148 81.2 42.322 81.2 C 49.442 81.2 54.439 78.002 54.439 73.444 C 54.439 68.624 49.132 64.899 42.322 64.899 Z " fill="rgb(0,0,0)"/><path d=" M 54.967 70.333 L 59.566 70.333 L 59.566 80.85 L 63.281 80.85 L 63.281 70.333 L 67.747 70.333 L 67.747 68.493 L 54.967 68.493 L 54.967 70.333 Z " fill="rgb(0,0,0)"/><path d=" M 96.05 68.274 C 91.363 68.274 88.709 69.325 88.444 71.21 L 88.4 71.21 L 88.4 72.042 L 92.248 72.042 L 92.248 71.823 C 92.248 70.947 92.557 70.114 96.272 70.114 C 100.119 70.114 100.119 70.947 100.119 71.823 L 100.119 73.313 L 95.078 73.313 C 88.135 73.313 87.604 76.38 87.604 77.301 C 87.604 79.448 89.992 80.806 93.795 80.806 L 103.789 80.806 L 103.789 71.735 C 103.789 68.8 101.18 68.274 96.05 68.274 Z  M 100.119 75.197 L 100.119 78.966 L 94.636 78.966 C 91.849 78.966 91.54 77.914 91.54 77.169 C 91.54 75.898 92.778 75.197 94.945 75.197 L 100.119 75.197 Z " fill="rgb(0,0,0)"/><path d=" M 143.19 73.313 L 138.458 73.313 L 138.458 68.493 L 134.699 68.493 L 134.699 80.85 L 144.119 80.85 C 147.745 80.85 150 79.36 150 76.994 C 150 74.671 147.524 73.313 143.19 73.313 Z  M 146.241 77.038 C 146.241 78.002 145.888 79.01 143.323 79.01 L 138.458 79.01 L 138.458 75.241 L 143.102 75.241 C 145.18 75.197 146.241 75.811 146.241 77.038 Z " fill="rgb(0,0,0)"/><path d=" M 14.107 64.505 C 7.606 64.505 1.99 70.815 0.088 80.193 C 0.088 80.236 0.088 80.324 0.044 80.412 C 0.044 80.499 0.044 80.543 0 80.587 L 0 80.85 L 0.265 80.85 C 0.486 80.85 1.106 80.85 1.327 80.28 C 5.041 72.612 9.331 68.756 14.107 68.756 C 18.794 68.756 23.393 73.225 26.356 80.718 L 26.489 81.025 L 26.71 80.806 C 27.24 80.28 28.169 79.404 28.169 78.484 L 28.169 78.44 C 25.87 70.07 20.209 64.505 14.107 64.505 Z " fill="rgb(0,0,0)"/><path d=" M 85.789 68.493 L 79.111 77.695 L 73.009 68.493 L 68.984 68.493 L 77.033 80.587 L 73.495 85.495 L 76.193 85.495 L 88.486 68.493 L 85.789 68.493 Z " fill="rgb(0,0,0)"/></g></svg>