<?xml version="1.0" encoding="utf-8"?>
<!-- Generator: Adobe Illustrator 24.0.1, SVG Export Plug-In . SVG Version: 6.00 Build 0)  -->
<svg version="1.1" id="Layer_1" xmlns="http://www.w3.org/2000/svg" xmlns:xlink="http://www.w3.org/1999/xlink" x="0px" y="0px"
	 viewBox="0 0 500 500" style="enable-background:new 0 0 500 500;" width="500" height="500" xml:space="preserve">
<style type="text/css">
	.st0{fill:#FDFDFD;}
	.st1{fill:#C7262D;}
	.st2{fill:#211D1D;}
	.st3{fill:#F8F8F8;}
	.st4{fill:#8D1E23;}
	.st5{fill:#393636;}
</style>
<g>
	<g>
		<path class="st0" d="M8.87,8.26c158.49,0,316.97,0.06,475.46-0.19c6.87-0.01,8.23,1.35,8.22,8.25
			c-0.25,155.79-0.25,311.58,0,467.37c0.01,6.9-1.35,8.26-8.22,8.25c-155.81-0.25-311.62-0.25-467.43,0
			c-6.87,0.01-8.23-1.35-8.22-8.25C8.93,325.21,8.87,166.73,8.87,8.26z M355.97,243.88c0.6-1.39,0.32-2.6-1.01-3.3
			c-1.4-0.73-2.44-0.13-3.06,1.28c0,0,0.08,0.03,0.08,0.04c0.74-5.92-3.33-3.53-6.02-3.52c-4.61,0.74-9.69-2.84-13.92,1.5
			c-3.81,0.1-4.37,2.58-4.1,5.66c-8.62,9.33-8.07,20.29,1.28,25.91c1.07-1.63,0.54-3.13-0.27-4.68c-3.93-7.51-0.47-8.99,6.52-8.68
			c9.27,0.41,18.58,0.1,28.87,0.1c-2.25-4.29,0.22-9.88-6.39-10.29l0.07,0.11c1.41-0.61,2.02-1.67,1.29-3.08
			c-0.69-1.34-1.92-1.61-3.31-1.02L355.97,243.88z M482.08,275.47c1.33,0.75,2.81,3.42,3.86,2c1.97-2.68-0.79-4.77-2.42-6.78
			c-1.32-1.89-2.64-3.78-3.96-5.67c-6.97-5.61-2.73-11.93-0.52-19.03c-6.03,7.5-10.73,3.39-15.56-1.54
			c-1.74,6.93,8.18,10.27,2.79,16.37c-4.07,4.6-6.12,10.17-7.69,15.76c-0.22-5.28,6.32-4.4,7.91-8.2c3.37-8.08,6.92-5.59,10.46-0.1
			C478.66,270.67,480.37,273.07,482.08,275.47z M449.14,269.57c4.62,1.07,5.14-1.94,5.27-5.34c0.23-0.33,0.46-0.66,0.69-0.99
			c-0.33,0.23-0.66,0.47-0.99,0.7c-3.63-0.28-5.62,0.86-4.22,4.93C449.65,269.1,449.39,269.34,449.14,269.57z M426.17,242.62
			c8.42-1.36,16.64-2.1,22.13,6.57c0.76,1.2,2.29,1.82,3.28,0.66c0.68-0.8,1-2.63,0.56-3.55c-2.1-4.44-6.09-8.55-10.44-8.01
			c-6,0.75-13.81-5.12-18.1,3.81c-0.46,0.52-0.92,1.03-1.38,1.55c-8.04,1.01-6.16,9.5-10.34,14.52c-3.8-4.93-1.67-13.67-10.04-14.25
			l0.25,0.25c-8.57-13.03-18.68-5.61-29.34-1.26c0-6.23,0.02-11.55-0.01-16.87c-0.01-1.94,0.36-4.5-2.6-4.34
			c-3.04,0.16-2.09,2.89-2.09,4.66c-0.07,15.1-0.1,30.2,0.03,45.3c0.02,2.49-1.51,6.24,1.31,7.28c4.72,1.74,2.1-4.78,5.56-5.71
			c6.28,6.24,14.14,8.07,22.48,4.53c8.16-3.46,11.76-11.21,14.48-20.67c8.5,22.82,23.2,29.29,34.84,15.22
			c-4.45,0.71-7.78,1.94-11.27,1.89c-10.68-0.15-17.93-7.18-16.93-17.18c0.41-4.1,2.53-7.56,4.55-11.03
			C425.18,245.86,426.1,244.63,426.17,242.62z M131.13,246c3.59,10.82,0.03,22.54,4.53,33.36c1.25-11.18,3.35-22.28-0.45-33.37
			c-6.1-11.54-15.68-12.39-26.09-2.29c-4.44-5.18-0.86-11.31-2-16.88c-0.36-1.76,0.94-4.63-1.9-4.83c-3.83-0.27-2.58,3.14-2.59,5.11
			c-0.11,16.06-0.07,32.12-0.04,48.18c0,2.01,0.08,4.15,3.7,3.91c2.63-10.13-1.47-21.1,2.95-31.07
			C115.91,240.92,123.05,238.52,131.13,246z M56.55,247.74c-8.97,15.69-1.02,28.58,19.82,32.13c4.11,0.33,6.63-2.06,8.75-5.14
			c4.01-1.27,6.63-0.86,5.47,4.4c-1.14,5.17-3.41,9.42-8.82,11.13c-6.76,2.13-13.32,3.07-19.62-1.72c-2-1.52-2.51-6-7-3.97
			c3.19,9.97,11.67,11.32,19.75,11.47c7.83,0.14,15.76-2.48,18.25-11.17c4.53-15.78,1.66-31.81,1.75-47.56
			c-6.27-0.6-1.5,8.1-7.69,6.29C75.69,232.88,64.76,234.35,56.55,247.74z M167.65,213.62c-0.17,16.4-0.07,32.8-0.61,49.19
			c-0.29,8.73,1.7,16.48,6.57,23.59c0.94,6.02,4.46,8.1,10.4,7.63c19.61-1.55,39.24-2.92,58.87-4.17c5.17-0.33,7.57-1.89,7.45-7.8
			c-0.38-19.43-0.2-38.87-0.09-58.31c0.02-3.62-0.26-6.26-4.51-7.54c-9.85-2.96-19.34-6.83-30.08-6.05
			c-13.3,0.96-26.68,0.88-40.01,1.5C172.97,211.77,169.55,209.94,167.65,213.62z M281.78,280.23c6.23-2.36,4.28-6.25,4.46-9.12
			c0.38-5.99-0.24-12.01,1.2-17.98c1.94-8.01,6.84-12.29,14.96-11.66c8.27,0.65,9.4,7.04,9.43,13.76
			c0.03,6.36-0.08,12.72-0.13,19.08c-0.01,2.04-0.15,4.37,2.83,4.08c2.75-0.26,1.32-2.49,1.35-3.89c0.18-7.67,0.83-15.39,0.26-23.01
			c-0.88-11.79-11.16-17.56-21.81-12.89c-2.47,1.08-3.72,4.91-8.06,3.2c0-5.52,0.02-11.18-0.01-16.84c-0.01-1.77-0.41-3.37-2.7-3.12
			c-1.78,0.2-1.78,1.7-1.78,2.99C281.77,243,281.78,261.15,281.78,280.23z M10.81,249.99c0,5.37,0,10.74,0,16.1
			c0,13.68,0,13.96,13.79,13.51c4.15-0.13,11.75,2.94,11.87-2.64c0.12-5.47-7.54-2.78-11.48-2.62c-6.82,0.28-9.35-1.44-8.96-8.77
			c0.65-12.04,0.28-24.15,0.09-36.22c-0.04-2.67,1.71-7.24-2.52-7.44c-4.62-0.23-2.59,4.45-2.69,6.95
			C10.61,235.9,10.81,242.95,10.81,249.99z M140.12,238.63c8.31,0.86,8.66,5.46,8.47,10.94c-0.29,8.34-0.08,16.7-0.07,25.06
			c0,2-0.11,4.59,2.46,4.66c2.9,0.08,2.23-2.72,2.25-4.53c0.08-7.68,0.38-15.39-0.07-23.05c-0.38-6.45-0.43-12.13,9.39-13.56
			c-11.79,0.77-9-6.64-9.31-12.19c-0.08-1.49,0.65-3.69-1.71-4.02c-3.07-0.43-2.71,2.06-2.81,3.96
			C148.44,231.22,150.88,238.09,140.12,238.63z M263.38,279.42c1.47-0.02,2.94-0.05,4.41-0.07c0-8.92,0.28-17.86-0.09-26.77
			c-0.27-6.56-0.53-12.62,9.25-14.55c-15.8,1.79-4.76-13.38-12.28-16.67c-3.7,5.86,3.58,16.65-10.02,17.98
			c8.43-0.08,9.03,4.24,8.83,9.93C263.12,259.3,263.38,269.36,263.38,279.42z M46.38,237.1c-1.19,0.03-2.38,0.05-3.57,0.08
			c0.28,14.06-0.55,28.15,0.44,42.19c1.04-0.03,2.09-0.07,3.13-0.1C46.38,265.21,46.38,251.15,46.38,237.1z M360.29,265.76
			c-6.87,11.61-18.67,7.31-29.89,9.1C344.6,282.99,355.4,279.75,360.29,265.76z M460.11,238.19c-1.64,0.5-2.13,1.78-1.78,3.06
			c0.43,1.57,1.26,3.17,3.16,3.41c1.63,0.2,2.42-0.84,1.99-2.32C462.96,240.52,462.42,238.5,460.11,238.19z M483.14,242.96
			c0.16-1.26-0.69-2.39-1.95-1.86c-1.32,0.55-2.4,1.91-3.32,3.12c-1.07,1.41,0.22,2.66,1.22,2.66
			C481.26,246.89,482.29,245.06,483.14,242.96z M484.88,242.01c0.47-1.19,1.15-2.12,1.07-2.99c-0.06-0.61-1.1-1.49-1.79-1.6
			c-1.33-0.2-2.4,0.62-2.17,2.07C482.07,240.08,483.1,240.52,484.88,242.01z"/>
		<path class="st1" d="M167.65,213.62c1.9-3.68,5.31-1.85,7.99-1.97c13.33-0.62,26.71-0.54,40.01-1.5
			c10.74-0.78,20.23,3.09,30.08,6.05c4.25,1.28,4.53,3.92,4.51,7.54c-0.11,19.44-0.29,38.88,0.09,58.31c0.11,5.9-2.28,7.47-7.45,7.8
			c-19.63,1.25-39.26,2.62-58.87,4.17c-5.94,0.47-9.46-1.6-10.4-7.63c2.68-2.81,1.68-6.33,1.69-9.57
			c0.09-15.74-0.28-31.49,0.19-47.21C175.71,222.5,173.76,217.23,167.65,213.62z M205.24,257.96c0,3.35-0.21,6.73,0.05,10.06
			c0.34,4.33-1.89,11.23,4.75,11.26c7.33,0.03,5.04-7.18,5.35-11.83c0.31-4.68-0.09-9.42,0.37-14.07c0.49-4.89,3.4-8.15,8.49-8.24
			c5.42-0.1,6.39,4.28,6.64,8.35c0.39,6.35,0.18,12.74,0.26,19.11c0.04,3.15,0.53,6.52,4.3,6.86c4.34,0.39,5.64-3,5.72-6.61
			c0.15-7.04,0.31-14.1-0.05-21.13c-0.69-13.28-9.2-18.43-21.22-13.16c-1.65,0.72-2.83,3.42-5.13,1.6
			c-10.75-8.51-9.12,0.69-9.49,6.73C205.06,250.57,205.25,254.27,205.24,257.96z M195.27,258.07c0-4.99,0.01-9.98,0-14.97
			c-0.01-3.42-1.55-6.14-4.95-6.39c-3.67-0.27-5.06,2.5-5.07,5.92c-0.01,10.31-0.03,20.62,0.01,30.93c0.01,3.38,1.43,6.2,5.09,5.92
			c3.41-0.27,4.89-3.07,4.91-6.45C195.29,268.05,195.27,263.06,195.27,258.07z M189.87,221.83c-2.98,0.35-4.61,2.12-4.52,5.2
			c0.1,3.16,2.02,4.83,5.06,4.68c3.05-0.15,4.82-2.17,4.7-5.16C194.99,223.54,193.08,221.89,189.87,221.83z"/>
		<path class="st2" d="M401.85,243.92c8.38,0.58,6.25,9.32,10.04,14.25c4.17-5.02,2.29-13.51,10.34-14.52
			c0.28,0.78,0.57,1.57,0.85,2.35c-2.01,3.47-4.14,6.93-4.55,11.03c-1,10,6.26,17.03,16.93,17.18c3.5,0.05,6.82-1.18,11.27-1.89
			c-11.63,14.07-26.33,7.61-34.84-15.22c-2.73,9.45-6.33,17.21-14.48,20.67c-8.34,3.54-16.2,1.71-22.48-4.53
			c-3.45,0.93-0.84,7.45-5.56,5.71c-2.82-1.04-1.29-4.79-1.31-7.28c-0.13-15.1-0.09-30.2-0.03-45.3c0.01-1.77-0.95-4.49,2.09-4.66
			c2.95-0.16,2.58,2.4,2.6,4.34c0.04,5.32,0.01,10.64,0.01,16.87c10.66-4.34,20.77-11.77,29.34,1.26c-2.23-0.23-4.37-0.65-6.58-1.25
			c-6.38-1.73-13.1-2.48-18.44,3.19c-5.73,6.08-6.01,15.69-0.69,22.99c5.68,7.8,13.43,6.15,20.46,3.55
			c7.44-2.75,10.33-12.16,7.65-20.32C403.59,249.54,401.18,247.21,401.85,243.92z"/>
		<path class="st3" d="M85.11,274.72c-2.12,3.09-4.64,5.47-8.75,5.14c-0.09-4.49-4.77-3.89-6.95-5.26
			c-13.09-8.26-14.64-11.83-8.64-26.04l-0.02,0.01l0.3-0.51c8.1-8.39,16.81-7.86,25.89-1.77c5.74,9.56,6.25,18.39-3.19,26.17
			C81.85,274.04,84.36,274.13,85.11,274.72z"/>
		<path class="st2" d="M281.78,280.23c0-19.08-0.01-37.23,0.02-55.38c0-1.29,0-2.79,1.78-2.99c2.29-0.25,2.69,1.35,2.7,3.12
			c0.03,5.66,0.01,11.32,0.01,16.84c4.34,1.71,5.59-2.12,8.06-3.2c10.65-4.67,20.94,1.1,21.81,12.89
			c0.57,7.62-0.08,15.34-0.26,23.01c-0.03,1.4,1.39,3.63-1.35,3.89c-2.99,0.29-2.85-2.05-2.83-4.08c0.04-6.36,0.15-12.72,0.13-19.08
			c-0.03-6.71-1.17-13.11-9.43-13.76c-8.12-0.64-13.02,3.64-14.96,11.66c-1.45,5.97-0.83,11.99-1.2,17.98
			C286.06,273.98,288.01,277.87,281.78,280.23z"/>
		<path class="st4" d="M167.65,213.62c6.1,3.61,8.05,8.88,7.84,16c-0.46,15.72-0.09,31.47-0.19,47.21
			c-0.02,3.24,0.99,6.76-1.69,9.57c-4.87-7.11-6.85-14.87-6.57-23.59C167.59,246.42,167.49,230.02,167.65,213.62z"/>
		<path class="st2" d="M85.11,274.72c-0.76-0.6-3.26-0.69-1.36-2.26c9.45-7.78,8.93-16.61,3.19-26.17c0.09-0.9,0.17-1.8,0.26-2.7
			c6.19,1.82,1.41-6.89,7.69-6.29c-0.09,15.75,2.77,31.78-1.75,47.56c-2.49,8.68-10.42,11.31-18.25,11.17
			c-8.08-0.15-16.56-1.49-19.75-11.47c4.49-2.03,5,2.45,7,3.97c6.3,4.79,12.87,3.85,19.62,1.72c5.41-1.71,7.68-5.96,8.82-11.13
			C91.74,273.86,89.12,273.45,85.11,274.72z"/>
		<path class="st5" d="M10.81,249.99c0-7.05-0.2-14.1,0.1-21.13c0.11-2.5-1.93-7.18,2.69-6.95c4.22,0.21,2.47,4.78,2.52,7.44
			c0.19,12.07,0.55,24.18-0.09,36.22c-0.39,7.33,2.14,9.05,8.96,8.77c3.94-0.16,11.6-2.85,11.48,2.62
			c-0.12,5.58-7.72,2.51-11.87,2.64c-13.79,0.44-13.8,0.16-13.79-13.51C10.81,260.73,10.81,255.36,10.81,249.99z"/>
		<path class="st2" d="M140.12,238.63c10.75-0.53,8.31-7.4,8.6-12.73c0.1-1.9-0.25-4.38,2.81-3.96c2.36,0.33,1.62,2.52,1.71,4.02
			c0.31,5.55-2.48,12.96,9.31,12.19c-9.82,1.43-9.76,7.11-9.39,13.56c0.45,7.66,0.15,15.36,0.07,23.05
			c-0.02,1.81,0.65,4.61-2.25,4.53c-2.57-0.07-2.46-2.65-2.46-4.66c-0.01-8.35-0.22-16.71,0.07-25.06
			C148.78,244.09,148.43,239.49,140.12,238.63z"/>
		<path class="st2" d="M109.24,248.12c-4.43,9.97-0.32,20.94-2.95,31.07c-3.61,0.24-3.7-1.9-3.7-3.91
			c-0.03-16.06-0.06-32.12,0.04-48.18c0.01-1.97-1.24-5.38,2.59-5.11c2.84,0.2,1.54,3.07,1.9,4.83c1.13,5.57-2.45,11.71,2,16.88
			C109.16,245.17,109.2,246.64,109.24,248.12z"/>
		<path class="st3" d="M327.94,245.54c-0.27-3.08,0.29-5.56,4.1-5.66c4.26,3.89,9.26,1.25,13.92,1.59c2.04-0.31,3.84,2.76,6.02,0.43
			c0,0-0.08-0.03-0.08-0.03c0.35,2.72,1.32,4.18,4.07,2.02c0,0,0.04,0.04,0.04,0.04c-1.83,2.61-1.12,3.95,2.02,4.09
			c0,0-0.07-0.11-0.07-0.11c-0.91,2.93,0.47,7.32-5.61,6.37c-5.2-0.81-10.72-0.8-15.94-0.03
			C328.93,255.36,327.4,251.74,327.94,245.54z"/>
		<path class="st2" d="M263.38,279.42c0-10.05-0.26-20.12,0.1-30.16c0.21-5.69-0.4-10.01-8.83-9.93
			c13.6-1.34,6.32-12.12,10.02-17.98c7.52,3.29-3.52,18.46,12.28,16.67c-9.78,1.93-9.52,7.99-9.25,14.55
			c0.37,8.91,0.09,17.84,0.09,26.77C266.33,279.37,264.86,279.39,263.38,279.42z"/>
		<path class="st2" d="M327.94,245.54c-0.55,6.2,0.99,9.82,8.47,8.71c5.21-0.78,10.73-0.78,15.94,0.03c6.08,0.95,4.7-3.44,5.61-6.37
			c6.61,0.41,4.14,6,6.39,10.29c-10.3,0-19.6,0.31-28.87-0.1c-6.99-0.31-10.45,1.17-6.52,8.68c0.81,1.55,1.34,3.05,0.27,4.68
			C319.87,265.83,319.33,254.87,327.94,245.54z"/>
		<path class="st2" d="M476.94,268.27c-3.54-5.49-7.09-7.97-10.46,0.1c-1.59,3.81-8.13,2.93-7.91,8.2
			c1.57-5.59,3.61-11.15,7.69-15.76c5.4-6.1-4.53-9.44-2.79-16.37c4.84,4.93,9.53,9.04,15.56,1.54c-2.22,7.1-6.45,13.41,0.52,19.03
			C478.69,266.1,477.81,267.19,476.94,268.27z"/>
		<path class="st2" d="M60.78,248.56c-6.01,14.21-4.45,17.78,8.64,26.04c2.19,1.38,6.86,0.78,6.95,5.26
			c-20.83-3.54-28.79-16.44-19.82-32.13C57.96,248.01,59.37,248.29,60.78,248.56z"/>
		<path class="st2" d="M46.38,237.1c0,14.06,0,28.11,0,42.17c-1.04,0.03-2.09,0.07-3.13,0.1c-1-14.04-0.17-28.13-0.44-42.19
			C44,237.15,45.19,237.12,46.38,237.1z"/>
		<path class="st2" d="M360.29,265.76c-4.89,13.99-15.69,17.24-29.89,9.1C341.63,273.06,353.43,277.37,360.29,265.76z"/>
		<path class="st5" d="M60.78,248.56c-1.41-0.27-2.82-0.55-4.23-0.82c8.21-13.39,19.14-14.86,30.65-4.14
			c-0.09,0.9-0.17,1.8-0.26,2.7c-9.08-6.09-17.79-6.62-25.89,1.77c-0.43-0.23-0.86-0.46-1.3-0.69c0.33,0.4,0.67,0.8,1,1.2
			L60.78,248.56z"/>
		<path class="st5" d="M109.24,248.12c-0.04-1.47-0.08-2.95-0.13-4.42c10.41-10.09,19.99-9.25,26.09,2.29
			c-1.36,0-2.72,0.01-4.07,0.01C123.05,238.52,115.91,240.92,109.24,248.12z"/>
		<path class="st2" d="M131.13,246c1.36,0,2.72-0.01,4.07-0.01c3.8,11.09,1.7,22.2,0.45,33.37
			C131.16,268.54,134.72,256.82,131.13,246z"/>
		<path class="st5" d="M423.61,242.1c4.28-8.93,12.09-3.06,18.1-3.81c4.35-0.54,8.34,3.57,10.44,8.01c0.44,0.93,0.12,2.75-0.56,3.55
			c-0.99,1.16-2.52,0.55-3.28-0.66c-5.49-8.68-13.71-7.93-22.13-6.57C425.32,242.45,424.46,242.27,423.61,242.1z"/>
		<path class="st5" d="M345.97,241.46c-4.66-0.34-9.66,2.31-13.92-1.59c4.23-4.34,9.31-0.76,13.92-1.5
			C345.97,239.4,345.97,240.43,345.97,241.46z"/>
		<path class="st3" d="M449.9,268.87c-1.4-4.07,0.59-5.21,4.22-4.93l0.3,0.29c-0.13,3.4-0.65,6.41-5.27,5.34
			C449.14,269.06,449.39,268.83,449.9,268.87z"/>
		<path class="st2" d="M345.97,241.46c0-1.03,0-2.06,0-3.09c2.7-0.02,6.77-2.4,6.02,3.52C349.81,244.23,348.01,241.15,345.97,241.46
			z"/>
		<path class="st2" d="M482.08,275.47c-1.71-2.4-3.42-4.8-5.14-7.2c0.87-1.08,1.74-2.17,2.61-3.26c1.32,1.89,2.64,3.78,3.96,5.67
			C483.03,272.29,482.56,273.88,482.08,275.47z"/>
		<path class="st2" d="M460.11,238.19c2.31,0.31,2.84,2.33,3.37,4.15c0.43,1.48-0.37,2.52-1.99,2.32c-1.9-0.24-2.73-1.84-3.16-3.41
			C457.98,239.97,458.47,238.7,460.11,238.19z"/>
		<path class="st5" d="M482.08,275.47c0.48-1.59,0.95-3.18,1.43-4.78c1.64,2.01,4.39,4.1,2.42,6.78
			C484.89,278.89,483.41,276.22,482.08,275.47z"/>
		<path class="st2" d="M483.14,242.96c-0.85,2.1-1.87,3.93-4.05,3.93c-1.01,0-2.3-1.25-1.22-2.66c0.92-1.21,2-2.57,3.32-3.12
			C482.45,240.58,483.29,241.7,483.14,242.96z"/>
		<path class="st3" d="M423.61,242.1c0.86,0.17,1.71,0.35,2.57,0.52c-0.07,2.01-0.99,3.24-3.09,3.37c-0.28-0.78-0.57-1.57-0.85-2.35
			C422.69,243.13,423.15,242.62,423.61,242.1z"/>
		<path class="st2" d="M484.88,242.01c-1.78-1.49-2.8-1.93-2.89-2.52c-0.23-1.45,0.84-2.27,2.17-2.07c0.7,0.11,1.74,0.99,1.79,1.6
			C486.03,239.89,485.34,240.83,484.88,242.01z"/>
		<path class="st2" d="M358.03,248.02c-3.14-0.14-3.85-1.49-2.02-4.09c1.39-0.6,2.61-0.32,3.31,1.02
			C360.05,246.34,359.44,247.4,358.03,248.02z"/>
		<path class="st2" d="M449.9,268.87c-0.5-0.04-0.76,0.19-0.76,0.7C449.39,269.34,449.65,269.1,449.9,268.87z"/>
		<path class="st2" d="M355.97,243.88c-2.75,2.15-3.72,0.69-4.07-2.02c0.61-1.41,1.66-2.01,3.06-1.28
			C356.29,241.28,356.57,242.49,355.97,243.88z"/>
		<path class="st3" d="M454.12,263.94c0.33-0.23,0.66-0.47,0.99-0.7c-0.23,0.33-0.46,0.66-0.69,0.99
			C454.42,264.23,454.12,263.94,454.12,263.94z"/>
		<path class="st3" d="M205.25,257.96c0-3.69-0.18-7.39,0.04-11.07c0.37-6.04-1.26-15.24,9.49-6.73c2.29,1.82,3.48-0.88,5.13-1.6
			c12.02-5.27,20.53-0.12,21.22,13.16c0.36,7.03,0.2,14.09,0.05,21.13c-0.08,3.61-1.37,7.01-5.72,6.61
			c-3.77-0.34-4.25-3.71-4.3-6.86c-0.09-6.37,0.12-12.76-0.26-19.11c-0.25-4.07-1.22-8.44-6.64-8.35c-5.09,0.09-8,3.35-8.49,8.24
			c-0.46,4.66-0.06,9.39-0.37,14.07c-0.31,4.64,1.98,11.86-5.35,11.83c-6.64-0.03-4.41-6.93-4.75-11.26
			C205.03,264.69,205.24,261.31,205.25,257.96z"/>
		<path class="st3" d="M195.27,258.07c0,4.99,0.02,9.98-0.01,14.97c-0.02,3.37-1.5,6.18-4.91,6.45c-3.67,0.29-5.08-2.54-5.09-5.92
			c-0.04-10.31-0.03-20.62-0.01-30.93c0-3.42,1.4-6.19,5.07-5.92c3.41,0.25,4.95,2.97,4.95,6.39
			C195.28,248.09,195.27,253.08,195.27,258.07z"/>
		<path class="st3" d="M189.87,221.83c3.21,0.06,5.12,1.71,5.24,4.72c0.12,2.99-1.64,5.01-4.7,5.16c-3.04,0.14-4.97-1.52-5.06-4.68
			C185.26,223.95,186.89,222.18,189.87,221.83z"/>
		<path class="st3" d="M401.85,243.92c-0.67,3.29,1.74,5.63,2.66,8.42c2.68,8.16-0.21,17.56-7.65,20.32
			c-7.04,2.6-14.79,4.25-20.46-3.55c-5.31-7.3-5.04-16.91,0.69-22.99c5.34-5.67,12.06-4.92,18.44-3.19c2.21,0.6,4.35,1.01,6.58,1.25
			C402.1,244.17,401.85,243.92,401.85,243.92z"/>
		<path class="st2" d="M60.76,248.57c-0.33-0.4-0.67-0.8-1-1.2c0.43,0.23,0.86,0.46,1.3,0.69
			C61.06,248.07,60.76,248.57,60.76,248.57z"/>
	</g>
</g>
<rect x="-1" y="188.71" class="st0" width="164.52" height="132.26"/>
<rect x="253.84" y="188.71" class="st0" width="245.16" height="132.26"/>
<g>
	<path d="M11.56,220.97h5.02v52.08H35.9v5.56H11.56V220.97z"/>
	<path d="M44.73,218.42c1.09,0,2.02,0.44,2.79,1.33c0.77,0.89,1.16,1.96,1.16,3.21c0,1.23-0.39,2.29-1.16,3.17
		c-0.77,0.89-1.7,1.33-2.79,1.33c-1.07,0-1.98-0.44-2.75-1.33c-0.77-0.89-1.16-1.95-1.16-3.17c0-1.25,0.39-2.32,1.16-3.21
		C42.75,218.87,43.66,218.42,44.73,218.42z M42.36,235.98h4.78v42.64h-4.78V235.98z"/>
	<path d="M89.1,235.98h4.78v33.98c0,5.98-0.46,10.36-1.37,13.13c-1.25,3.92-3.43,6.94-6.52,9.05c-3.1,2.12-6.82,3.17-11.16,3.17
		c-3.19,0-6.05-0.52-8.59-1.55c-2.54-1.04-4.6-2.42-6.2-4.17c-1.59-1.74-3.06-4.29-4.4-7.64h5.19c1.41,2.82,3.24,4.91,5.47,6.27
		c2.23,1.36,5,2.04,8.31,2.04c3.26,0,6.01-0.7,8.26-2.09c2.24-1.39,3.85-3.15,4.8-5.25c0.96-2.11,1.44-5.51,1.44-10.21v-2.2
		c-1.8,2.61-4,4.62-6.6,6.02c-2.6,1.4-5.35,2.1-8.27,2.1c-3.42,0-6.63-0.97-9.64-2.92c-3.01-1.95-5.33-4.56-6.97-7.86
		c-1.64-3.29-2.46-6.91-2.46-10.86c0-3.94,0.85-7.62,2.56-11.03c1.71-3.41,4.07-6.11,7.09-8.09c3.02-1.98,6.2-2.98,9.55-2.98
		c2.78,0,5.37,0.66,7.77,1.98c2.4,1.32,4.72,3.49,6.96,6.52V235.98z M75,240.17c-2.71,0-5.22,0.75-7.54,2.25
		c-2.32,1.5-4.14,3.58-5.46,6.23c-1.32,2.65-1.98,5.52-1.98,8.6c0,4.68,1.37,8.54,4.1,11.6c2.73,3.06,6.27,4.58,10.62,4.58
		c4.39,0,7.93-1.51,10.6-4.55c2.67-3.03,4.01-7.01,4.01-11.95c0-3.21-0.61-6.08-1.84-8.6c-1.23-2.52-2.97-4.51-5.22-5.98
		C80.02,240.9,77.59,240.17,75,240.17z"/>
	<path d="M104.12,219.52h4.78v24.1c1.93-2.93,4.06-5.11,6.38-6.56c2.32-1.45,4.84-2.17,7.54-2.17c2.78,0,5.24,0.81,7.39,2.43
		c2.15,1.62,3.74,3.79,4.76,6.52c1.02,2.73,1.54,7.01,1.54,12.83v21.95h-4.78v-20.34c0-4.91-0.17-8.19-0.51-9.84
		c-0.59-2.82-1.67-4.94-3.23-6.37c-1.56-1.42-3.6-2.14-6.13-2.14c-2.89,0-5.48,1.1-7.77,3.29c-2.29,2.19-3.8,4.91-4.52,8.15
		c-0.46,2.09-0.68,5.96-0.68,11.6v15.64h-4.78V219.52z"/>
	<path d="M150.93,220.15h4.78v15.83h7.58v4.74h-7.58v37.89h-4.78v-37.89h-6.52v-4.74h6.52V220.15z"/>
</g>
<g>
	<path d="M264.86,220.15h4.74v15.83h7.52v4.74h-7.52v37.89h-4.74v-37.89h-6.47v-4.74h6.47V220.15z"/>
	<path d="M284.23,219.52h4.74v24.1c1.92-2.93,4.03-5.11,6.33-6.56c2.3-1.45,4.8-2.17,7.48-2.17c2.75,0,5.2,0.81,7.33,2.43
		c2.13,1.62,3.71,3.79,4.72,6.52s1.52,7.01,1.52,12.83v21.95h-4.74v-20.34c0-4.91-0.17-8.19-0.51-9.84
		c-0.59-2.82-1.65-4.94-3.2-6.37c-1.55-1.42-3.57-2.14-6.08-2.14c-2.87,0-5.43,1.1-7.7,3.29c-2.27,2.19-3.76,4.91-4.49,8.15
		c-0.45,2.09-0.68,5.96-0.68,11.6v15.64h-4.74V219.52z"/>
	<path d="M357.52,264.47l4,2.43c-1.31,2.98-2.82,5.38-4.54,7.21c-1.72,1.83-3.65,3.22-5.79,4.17c-2.15,0.95-4.58,1.43-7.29,1.43
		c-6.01,0-10.71-2.28-14.1-6.84c-3.39-4.56-5.08-9.71-5.08-15.46c0-5.41,1.43-10.23,4.3-14.46c3.64-5.38,8.51-8.07,14.61-8.07
		c6.28,0,11.29,2.76,15.04,8.27c2.67,3.89,4.02,8.75,4.07,14.58h-33.14c0.09,4.95,1.46,9.01,4.1,12.18c2.64,3.17,5.91,4.75,9.8,4.75
		c1.88,0,3.7-0.38,5.47-1.13c1.77-0.75,3.28-1.76,4.52-3.01S356.08,267.25,357.52,264.47z M357.52,252.99
		c-0.63-2.92-1.55-5.26-2.76-7.01c-1.21-1.75-2.81-3.16-4.8-4.23c-1.99-1.07-4.08-1.61-6.27-1.61c-3.62,0-6.72,1.35-9.32,4.04
		c-1.9,1.96-3.33,4.9-4.31,8.82H357.52z"/>
	<path d="M371.88,278.62v-59.09h4.74v23.79c1.98-2.82,4.21-4.93,6.66-6.33c2.46-1.4,5.15-2.1,8.08-2.1c5.21,0,9.66,2.19,13.34,6.56
		c3.69,4.38,5.53,9.69,5.53,15.93c0,6.17-1.86,11.43-5.58,15.79c-3.72,4.36-8.2,6.54-13.43,6.54c-3,0-5.72-0.75-8.15-2.23
		c-2.44-1.49-4.59-3.72-6.46-6.7v7.84H371.88z M390.84,274.42c2.63,0,5.07-0.75,7.3-2.25c2.23-1.5,4-3.61,5.32-6.33
		c1.32-2.72,1.98-5.59,1.98-8.62c0-3.03-0.66-5.92-1.99-8.66c-1.33-2.74-3.11-4.88-5.35-6.41c-2.24-1.53-4.63-2.29-7.18-2.29
		c-2.59,0-5.05,0.76-7.38,2.29s-4.12,3.59-5.37,6.17c-1.25,2.59-1.88,5.5-1.88,8.74c0,4.94,1.4,9.07,4.21,12.38
		C383.29,272.76,386.74,274.42,390.84,274.42z"/>
	<path d="M436.31,234.88c5.68,0,10.38,2.38,14.11,7.13c3.39,4.34,5.09,9.47,5.09,15.4c0,5.96-1.79,11.16-5.38,15.62
		c-3.58,4.45-8.19,6.68-13.82,6.68c-5.65,0-10.27-2.23-13.85-6.68c-3.58-4.45-5.38-9.66-5.38-15.62c0-5.9,1.7-11.02,5.09-15.36
		C425.89,237.27,430.61,234.88,436.31,234.88z M436.29,240.25c-3.94,0-7.33,1.69-10.16,5.06c-2.83,3.37-4.25,7.45-4.25,12.23
		c0,3.08,0.65,5.96,1.94,8.62c1.29,2.67,3.04,4.72,5.23,6.17c2.2,1.45,4.61,2.18,7.24,2.18c2.63,0,5.04-0.73,7.24-2.18
		c2.2-1.45,3.94-3.51,5.23-6.17c1.29-2.66,1.94-5.54,1.94-8.62c0-4.78-1.42-8.86-4.26-12.23S440.21,240.25,436.29,240.25z"/>
	<path d="M460.07,235.98h5.69l9.8,15.6l9.69-15.6h5.7l-12.54,20.14l14.13,22.5h-5.77l-11.21-17.91l-11.15,17.91h-5.66l13.96-22.46
		L460.07,235.98z"/>
</g>
</svg>
