<?xml version="1.0" encoding="UTF-8"?> <svg xmlns="http://www.w3.org/2000/svg" width="68" height="32" viewBox="0 0 68 32" fill="none"> <g clip-path="url(#clip0)"> <path d="M66.1922 31.9044V30.9724H64.1571V26.6404H62.9577V31.9044H66.1922ZM59.5713 30.0444H58.1919L58.8836 27.7524L59.5713 30.0444ZM61.4144 31.9044L59.6113 26.6404H58.14L56.3448 31.9044H57.6602L57.9401 30.9724H59.7992L60.0831 31.9044H61.4144ZM54.8215 31.9044V26.6404H53.5741V29.6404L51.599 26.6404H50.3756V31.9044H51.5751V28.8004L53.6341 31.9084L54.8215 31.9044ZM45.9777 31.0604C45.7865 31.0629 45.5978 31.0161 45.4299 30.9244C45.2656 30.8262 45.1282 30.6888 45.0301 30.5244C44.9173 30.3502 44.8348 30.1582 44.7863 29.9564C44.7286 29.7276 44.7004 29.4923 44.7023 29.2564C44.7 29.0178 44.7282 28.7798 44.7863 28.5484C44.8348 28.3478 44.9173 28.1571 45.0301 27.9844C45.1298 27.8275 45.2673 27.6982 45.4299 27.6084C45.5971 27.5149 45.7862 27.4679 45.9777 27.4724C46.1704 27.468 46.3608 27.5149 46.5294 27.6084C46.6923 27.6979 46.8299 27.8272 46.9292 27.9844C47.045 28.156 47.1289 28.347 47.1771 28.5484C47.2352 28.7798 47.2634 29.0178 47.2611 29.2564C47.263 29.4923 47.2347 29.7276 47.1771 29.9564C47.129 30.159 47.045 30.3513 46.9292 30.5244C46.8315 30.6891 46.6941 30.8266 46.5294 30.9244C46.3601 31.0161 46.1702 31.0629 45.9777 31.0604ZM45.9777 32.0004C46.3436 32.0042 46.7065 31.9348 47.0452 31.7964C47.3506 31.6688 47.6238 31.4748 47.8448 31.2284C48.0678 30.9769 48.2377 30.6831 48.3446 30.3644C48.5737 29.6585 48.5737 28.8982 48.3446 28.1924C48.2377 27.8737 48.0678 27.5798 47.8448 27.3284C47.6239 27.0808 47.3508 26.8854 47.0452 26.7564C46.7059 26.6198 46.3434 26.5506 45.9777 26.5524C45.6146 26.55 45.2545 26.6194 44.9182 26.7564C44.6126 26.8854 44.3395 27.0808 44.1186 27.3284C43.8956 27.5798 43.7256 27.8737 43.6188 28.1924C43.3897 28.8982 43.3897 29.6585 43.6188 30.3644C43.7256 30.6831 43.8956 30.9769 44.1186 31.2284C44.3396 31.4748 44.6128 31.6688 44.9182 31.7964C45.254 31.9352 45.6144 32.0046 45.9777 32.0004ZM41.6117 31.9044V26.6404H40.3923V31.9044H41.6117ZM36.5501 32.0004C36.8477 32.0051 37.1443 31.9646 37.4297 31.8804C37.664 31.811 37.8825 31.6969 38.0734 31.5444C38.2441 31.4082 38.3809 31.2343 38.4732 31.0364C38.5661 30.836 38.6125 30.6172 38.6092 30.3964C38.6111 30.1984 38.5716 30.0022 38.4932 29.8204C38.4216 29.6588 38.3183 29.5132 38.1894 29.3924C38.0591 29.2707 37.914 29.1659 37.7576 29.0804C37.5981 28.9923 37.4324 28.9161 37.2618 28.8524L36.766 28.6644C36.6192 28.6131 36.4751 28.5543 36.3342 28.4884C36.2219 28.4385 36.1191 28.3695 36.0304 28.2844C35.9935 28.2511 35.9641 28.2103 35.9441 28.1648C35.9242 28.1193 35.914 28.0701 35.9144 28.0204C35.9101 27.9429 35.9254 27.8656 35.959 27.7957C35.9925 27.7258 36.0432 27.6655 36.1063 27.6204C36.2569 27.5148 36.4385 27.4627 36.6221 27.4724C36.8569 27.4721 37.0902 27.5085 37.3138 27.5804C37.5348 27.6523 37.7398 27.7664 37.9175 27.9164L38.5012 27.1164C38.2639 26.9238 37.9927 26.7772 37.7016 26.6844C37.3719 26.5804 37.0278 26.5291 36.6821 26.5324C36.3976 26.5316 36.1146 26.5734 35.8425 26.6564C35.6146 26.7266 35.4028 26.8407 35.2188 26.9924C35.052 27.1244 34.9156 27.2908 34.8189 27.4804C34.7275 27.664 34.6769 27.8653 34.6707 28.0704C34.6645 28.2755 34.7028 28.4795 34.783 28.6684C34.8585 28.8206 34.9631 28.9564 35.0908 29.0684C35.2215 29.1862 35.3666 29.2871 35.5226 29.3684C35.6829 29.4535 35.8485 29.5283 36.0184 29.5924L36.5141 29.7724C36.663 29.8232 36.8086 29.8834 36.9499 29.9524C37.063 30.0061 37.1658 30.0792 37.2538 30.1684C37.3286 30.2487 37.3701 30.3545 37.3697 30.4644C37.3706 30.5708 37.3369 30.6747 37.2738 30.7604C37.2032 30.8543 37.1076 30.9264 36.9979 30.9684C36.8541 31.0246 36.7005 31.0518 36.5461 31.0484C36.3568 31.0552 36.1673 31.0377 35.9824 30.9964C35.8096 30.9503 35.6431 30.8831 35.4866 30.7964C35.3417 30.7177 35.2074 30.6209 35.0868 30.5084L34.4871 31.3084C34.7423 31.5293 35.0385 31.6978 35.3587 31.8044C35.7424 31.9346 36.1449 32.0008 36.5501 32.0004ZM31.0127 32.0004C31.3103 32.0051 31.6069 31.9646 31.8923 31.8804C32.1262 31.8102 32.3447 31.6962 32.536 31.5444C32.7067 31.4082 32.8435 31.2343 32.9358 31.0364C33.0235 30.836 33.0671 30.6191 33.0638 30.4004C33.0657 30.2024 33.0262 30.0062 32.9478 29.8244C32.8748 29.6636 32.7716 29.5183 32.644 29.3964C32.513 29.2737 32.3665 29.1688 32.2082 29.0844C32.0505 28.9956 31.8861 28.9193 31.7164 28.8564L31.2206 28.6684C31.0724 28.6159 30.9269 28.5558 30.7848 28.4884C30.6725 28.4385 30.5697 28.3695 30.481 28.2844C30.4441 28.2511 30.4147 28.2103 30.3947 28.1648C30.3748 28.1193 30.3646 28.0701 30.365 28.0204C30.3607 27.9429 30.376 27.8656 30.4096 27.7957C30.4432 27.7258 30.4938 27.6655 30.5569 27.6204C30.7075 27.5148 30.8891 27.4627 31.0727 27.4724C31.3062 27.4718 31.5383 27.5083 31.7604 27.5804C31.983 27.6514 32.1895 27.7655 32.3681 27.9164L32.9518 27.1164C32.7145 26.9238 32.4433 26.7772 32.1522 26.6844C31.8225 26.5804 31.4784 26.5291 31.1327 26.5324C30.8482 26.5316 30.5652 26.5734 30.2931 26.6564C30.0652 26.7266 29.8534 26.8407 29.6694 26.9924C29.5015 27.1233 29.3649 27.29 29.2696 27.4804C29.179 27.6645 29.1325 27.8672 29.1336 28.0724C29.1309 28.2704 29.1704 28.4668 29.2496 28.6484C29.3238 28.8014 29.4285 28.9375 29.5574 29.0484C29.6881 29.1663 29.8332 29.2671 29.9892 29.3484C30.1495 29.4335 30.3151 29.5083 30.485 29.5724L30.9807 29.7524C31.1296 29.8032 31.2752 29.8634 31.4165 29.9324C31.5296 29.9861 31.6324 30.0592 31.7204 30.1484C31.7952 30.2287 31.8367 30.3345 31.8363 30.4444C31.8372 30.5508 31.8035 30.6547 31.7404 30.7404C31.6689 30.8334 31.5736 30.9053 31.4645 30.9484C31.3207 31.0046 31.1671 31.0318 31.0127 31.0284C30.8198 31.0293 30.6276 31.0051 30.441 30.9564C30.2682 30.9103 30.1017 30.8431 29.9452 30.7564C29.8003 30.6777 29.666 30.5809 29.5454 30.4684L28.9457 31.2684C29.1994 31.4892 29.4943 31.6578 29.8133 31.7644C30.1975 31.9083 30.6027 31.988 31.0127 32.0004ZM27.4144 31.9044V30.9724H25.1875V29.6964H27.3744V28.7644H25.1875V27.5644H27.4384V26.6404H23.9521V31.9044H27.4144ZM19.85 31.9044V29.6964H22.037V28.7644H19.854V27.5644H22.1049V26.6404H18.6386V31.9044H19.85ZM14.2526 31.0604C14.0614 31.0624 13.8729 31.0156 13.7049 30.9244C13.5416 30.8248 13.4046 30.6877 13.3051 30.5244C13.1922 30.3502 13.1097 30.1582 13.0612 29.9564C13.0052 29.7273 12.9783 29.4921 12.9812 29.2564C12.9778 29.0179 13.0047 28.78 13.0612 28.5484C13.1126 28.3531 13.1964 28.1679 13.3091 28.0004C13.4099 27.8444 13.5471 27.7154 13.7089 27.6244C13.8762 27.5312 14.0652 27.4843 14.2566 27.4884C14.4506 27.4838 14.6423 27.5308 14.8124 27.6244C14.9737 27.716 15.1108 27.8449 15.2122 28.0004C15.3263 28.1729 15.4101 28.3636 15.46 28.5644C15.5181 28.7958 15.5463 29.0338 15.544 29.2724C15.5459 29.5083 15.5177 29.7436 15.46 29.9724C15.4101 30.1744 15.3263 30.3664 15.2122 30.5404C15.1127 30.7037 14.9756 30.8408 14.8124 30.9404C14.639 31.0272 14.4463 31.0685 14.2526 31.0604ZM14.2526 32.0004C14.6185 32.0049 14.9816 31.9356 15.3201 31.7964C15.6247 31.6673 15.8976 31.4735 16.1197 31.2284C16.3414 30.9767 16.5101 30.6828 16.6155 30.3644C16.8446 29.6585 16.8446 28.8982 16.6155 28.1924C16.5101 27.8739 16.3414 27.5801 16.1197 27.3284C15.8977 27.0821 15.6249 26.8869 15.3201 26.7564C14.6372 26.4843 13.876 26.4843 13.1931 26.7564C12.8875 26.8854 12.6144 27.0808 12.3935 27.3284C12.1718 27.5801 12.0032 27.8739 11.8977 28.1924C11.6686 28.8982 11.6686 29.6585 11.8977 30.3644C12.0032 30.6828 12.1718 30.9767 12.3935 31.2284C12.6145 31.4748 12.8877 31.6688 13.1931 31.7964C13.529 31.9348 13.8893 32.0042 14.2526 32.0004ZM8.03554 29.0724H7.17195V27.5724H8.03554C8.17418 27.5712 8.31114 27.6028 8.43535 27.6644C8.54941 27.7226 8.64392 27.813 8.70722 27.9244C8.77104 28.048 8.80433 28.1852 8.80433 28.3244C8.80433 28.4635 8.77104 28.6007 8.70722 28.7244C8.64285 28.8349 8.54862 28.925 8.43535 28.9844C8.31021 29.0429 8.17367 29.0729 8.03554 29.0724ZM10.1026 31.9044L9.00708 29.8124C9.1386 29.775 9.26389 29.7183 9.37891 29.6444C9.50671 29.5637 9.62133 29.4639 9.71875 29.3484C9.82643 29.2165 9.90909 29.066 9.96263 28.9044C10.0281 28.7112 10.0605 28.5083 10.0586 28.3044C10.0589 28.0752 10.0141 27.8482 9.92665 27.6364C9.84134 27.4351 9.71307 27.2549 9.55083 27.1084C9.38281 26.9557 9.1856 26.8387 8.9711 26.7644C8.72872 26.6779 8.47274 26.6359 8.21546 26.6404H5.95652V31.9044H7.15595V30.0004H7.81165L8.73521 31.9004L10.1026 31.9044ZM2.19029 29.0724H1.3187V27.5724H2.19029C2.32903 27.5703 2.46621 27.6019 2.5901 27.6644C2.7031 27.7227 2.79631 27.8131 2.85798 27.9244C2.92411 28.0473 2.95874 28.1848 2.95874 28.3244C2.95874 28.464 2.92411 28.6014 2.85798 28.7244C2.79503 28.8346 2.70215 28.9248 2.5901 28.9844C2.46522 29.0437 2.32851 29.0737 2.19029 29.0724ZM1.3187 31.9044V30.0004H2.33422C2.60697 30.0017 2.87776 29.9543 3.13385 29.8604C3.35212 29.782 3.55114 29.6579 3.71757 29.4964C3.87152 29.3447 3.99145 29.162 4.06941 28.9604C4.14663 28.7545 4.18591 28.5363 4.18535 28.3164C4.18587 28.0978 4.14658 27.8809 4.06941 27.6764C3.99152 27.4736 3.87161 27.2895 3.71757 27.1364C3.55004 26.9762 3.35134 26.8523 3.13385 26.7724C2.87751 26.6798 2.60673 26.6338 2.33422 26.6364H0.103271V31.9044H1.3187Z" fill="#2C3D63"></path> <path d="M9.73942 0C10.2716 0 10.7918 0.157883 11.2343 0.453684C11.6768 0.749485 12.0217 1.16992 12.2253 1.66182C12.429 2.15371 12.4823 2.69499 12.3784 3.21718C12.2746 3.73938 12.0184 4.21905 11.6421 4.59553C11.2657 4.97201 10.7863 5.2284 10.2644 5.33227C9.7424 5.43615 9.20138 5.38283 8.70972 5.17908C8.21805 4.97533 7.79781 4.63029 7.50215 4.18759C7.20649 3.7449 7.04868 3.22443 7.04868 2.692C7.04868 1.97804 7.33217 1.29332 7.83678 0.788469C8.34139 0.283621 9.02579 0 9.73942 0V0ZM52.9711 18L52.1235 14.488C51.4958 15.096 50.1244 14.912 50.1244 13.664V9.516H52.7192V5.148H50.1244V1.456H45.3347V5.148H43.2157V9.516H45.3347V13.236C45.3347 15.74 45.3107 18.008 48.3452 18.78C49.1291 18.9677 49.9428 18.9953 50.7375 18.8613C51.5323 18.7273 52.292 18.4343 52.9711 18ZM60.8034 9.2C61.3356 9.2 61.8558 9.35788 62.2983 9.65368C62.7408 9.94948 63.0856 10.3699 63.2893 10.8618C63.493 11.3537 63.5462 11.895 63.4424 12.4172C63.3386 12.9394 63.0823 13.419 62.706 13.7955C62.3297 14.172 61.8503 14.4284 61.3283 14.5323C60.8064 14.6361 60.2654 14.5828 59.7737 14.3791C59.282 14.1753 58.8618 13.8303 58.5661 13.3876C58.2705 12.9449 58.1127 12.4244 58.1127 11.892C58.1127 11.178 58.3961 10.4933 58.9007 9.98847C59.4054 9.48362 60.0898 9.2 60.8034 9.2ZM60.8034 18.984C61.847 18.9953 62.8825 18.7995 63.8499 18.408C64.7063 18.0523 65.4786 17.5209 66.1169 16.848C66.7316 16.1943 67.21 15.4247 67.5242 14.584C68.1745 12.84 68.1745 10.92 67.5242 9.176C67.2109 8.33728 66.7323 7.5701 66.1169 6.92C65.478 6.25079 64.7057 5.72339 63.8499 5.372C61.8942 4.60406 59.7206 4.60406 57.7648 5.372C56.9127 5.72359 56.1443 6.25108 55.5099 6.92C54.8901 7.57739 54.4088 8.35276 54.0945 9.2C53.4442 10.944 53.4442 12.864 54.0945 14.608C54.4085 15.4479 54.8855 16.2173 55.4979 16.872C56.1317 17.5446 56.9 18.0761 57.7528 18.432C58.7184 18.8197 59.751 19.0127 60.7914 19L60.8034 18.984ZM36.9346 13.028C36.8427 14.52 36.2869 15.3 35.4593 15.616C33.7161 16.184 32.9365 14.332 34.04 13.312C34.6597 12.736 36.0111 12.8 36.9346 13.028ZM41.7044 18.668V10.496C41.6764 4 33.984 2.8 29.6101 6L30.9734 9.3C32.5047 8.08 36.9346 7.516 36.9346 10.584C35.1275 10.236 32.5367 9.86 30.6936 10.8C29.8731 11.2159 29.2444 11.9322 28.9384 12.8C28.7504 13.3605 28.6584 13.9488 28.6665 14.54C28.6623 15.1008 28.7543 15.6582 28.9384 16.188C29.1035 16.6437 29.3486 17.0664 29.662 17.436C29.9562 17.7808 30.3046 18.0753 30.6936 18.308C32.2048 19.22 35.4673 19.06 36.9346 17.94V18.656L41.7044 18.668ZM28.5306 18.668L23.8408 11.304L28.2387 5.148H22.4894L19.5468 9.948V0H14.793V18.668H19.5468V15.6L20.4744 14.284L22.6733 18.652L28.5306 18.668ZM12.1383 18.668V6.736H7.35254V18.668H12.1383ZM4.79774 0H0V18.668H4.79774V0Z" fill="#2C3D63"></path> </g> <defs> <clipPath id="clip0"> <rect width="68" height="32" fill="white"></rect> </clipPath> </defs> </svg> 