<?xml version="1.0" encoding="UTF-8" standalone="no"?><!-- Generator: Gravit.io --><svg xmlns="http://www.w3.org/2000/svg" xmlns:xlink="http://www.w3.org/1999/xlink" style="isolation:isolate" viewBox="0 0 150 150" width="150pt" height="150pt"><defs><clipPath id="_clipPath_ek8eD6zAMrtyrIikSP5sUJDAHwFF89cU"><rect width="150" height="150"/></clipPath></defs><g clip-path="url(#_clipPath_ek8eD6zAMrtyrIikSP5sUJDAHwFF89cU)"><path d=" M 150 79.991 C 150 78.146 149.219 76.114 148.438 74.077 C 147.821 72.485 146.875 70.794 144.598 70.794 C 142.448 70.794 141.407 72.547 140.494 74.019 L 135.51 81.809 C 135.152 82.371 134.828 82.622 134.501 82.622 C 134.279 82.625 134.066 82.535 133.912 82.375 C 133.757 82.214 133.677 81.998 133.688 81.776 L 133.688 65.159 C 133.69 64.962 133.614 64.772 133.476 64.632 C 133.338 64.491 133.15 64.411 132.953 64.409 L 131.362 64.409 C 130.952 64.413 130.624 64.749 130.628 65.159 L 130.628 71.487 C 129.552 70.879 128.338 70.56 127.103 70.56 C 124.813 70.568 122.661 71.657 121.301 73.498 L 118.062 76.865 C 117.52 73.292 114.465 70.641 110.851 70.606 C 109.069 70.609 107.35 71.271 106.026 72.465 L 105.951 72.543 C 105.729 72.749 105.518 72.968 105.321 73.199 L 101.502 77.174 C 101.091 73.465 97.976 70.647 94.245 70.608 C 92.542 70.608 90.895 71.211 89.595 72.311 C 88.732 71.19 87.403 70.528 85.99 70.517 C 83.906 70.517 82.309 71.704 81.856 74.457 L 80.487 82.372 C 80.455 82.652 80.292 82.717 80.187 82.717 C 80.024 82.717 79.962 82.591 79.894 82.372 L 76.769 72.268 C 76.598 71.482 75.913 70.914 75.109 70.89 C 74.284 70.851 73.547 71.403 73.352 72.205 L 70.202 82.37 C 70.104 82.65 70.007 82.715 69.909 82.715 C 69.746 82.715 69.65 82.589 69.609 82.37 L 67.865 72.231 L 67.715 71.406 L 67.67 71.19 C 67.586 70.873 67.303 70.65 66.974 70.646 L 65.369 70.646 C 65.165 70.649 64.97 70.736 64.832 70.888 C 64.694 71.04 64.625 71.242 64.642 71.446 L 64.646 71.481 L 64.766 72.238 L 65.729 77.927 L 63.779 79.721 C 61.694 81.627 60.587 82.631 58.242 82.631 C 56.821 82.686 55.55 81.75 55.182 80.375 C 56.637 79.919 58.043 79.323 59.382 78.594 C 60.98 77.619 61.955 76.592 61.955 74.558 C 61.955 72.149 59.793 70.618 57.384 70.618 C 53.801 70.618 51.759 73.533 51.759 76.757 L 51.768 77.825 C 51.768 78.029 51.813 79.482 51.822 79.76 L 49.06 82.1 C 48.441 82.601 48.246 82.726 47.92 82.726 C 47.734 82.729 47.556 82.652 47.431 82.514 C 47.307 82.376 47.247 82.191 47.269 82.006 L 47.269 65.159 C 47.273 64.749 46.945 64.413 46.535 64.409 L 44.949 64.409 C 44.539 64.413 44.21 64.749 44.214 65.159 L 44.214 77.258 L 38.514 82.088 C 37.896 82.589 37.701 82.714 37.374 82.714 C 37.188 82.716 37.011 82.639 36.887 82.501 C 36.763 82.363 36.702 82.178 36.723 81.994 L 36.723 73.369 L 40.361 73.369 C 40.64 73.366 40.863 73.137 40.86 72.859 L 40.86 71.159 C 40.862 71.025 40.81 70.896 40.716 70.8 C 40.623 70.704 40.495 70.65 40.361 70.649 L 36.723 70.649 L 36.723 66.861 C 36.728 66.452 36.399 66.116 35.989 66.111 L 34.399 66.111 C 34.202 66.113 34.014 66.193 33.876 66.334 C 33.739 66.475 33.662 66.664 33.664 66.861 L 33.664 70.649 L 26.014 70.649 L 26.014 66.861 C 26.018 66.452 25.69 66.116 25.28 66.111 L 23.686 66.111 C 23.277 66.116 22.948 66.452 22.952 66.861 L 22.952 70.649 L 21.076 70.649 C 20.942 70.65 20.814 70.704 20.721 70.8 C 20.627 70.896 20.576 71.025 20.578 71.159 L 20.578 72.86 C 20.577 72.995 20.63 73.126 20.728 73.222 C 20.825 73.318 20.955 73.372 21.091 73.371 L 22.951 73.371 L 22.951 77.438 L 17.476 82.086 C 16.858 82.587 16.663 82.712 16.338 82.712 C 16.152 82.715 15.974 82.637 15.849 82.5 C 15.724 82.363 15.664 82.178 15.685 81.992 L 15.685 72.672 C 15.69 72.262 15.361 71.926 14.951 71.922 L 13.366 71.922 C 12.957 71.926 12.628 72.262 12.632 72.672 L 12.632 81.994 C 12.557 82.926 12.885 83.846 13.531 84.522 C 14.178 85.198 15.083 85.565 16.018 85.531 C 16.134 85.531 16.251 85.525 16.367 85.514 C 16.405 85.51 16.442 85.503 16.485 85.499 C 16.565 85.49 16.646 85.478 16.728 85.463 C 16.777 85.454 16.825 85.441 16.874 85.431 C 16.949 85.415 17.024 85.397 17.099 85.376 C 17.152 85.361 17.206 85.343 17.259 85.325 C 17.334 85.302 17.409 85.277 17.484 85.25 C 17.541 85.229 17.598 85.205 17.654 85.183 C 17.729 85.151 17.804 85.118 17.879 85.083 C 17.938 85.055 17.997 85.026 18.056 84.995 L 18.281 84.87 C 18.343 84.836 18.403 84.801 18.463 84.764 L 18.703 84.614 L 18.888 84.488 C 18.916 84.468 18.942 84.452 18.963 84.433 C 18.973 84.425 18.979 84.416 18.988 84.409 C 19.078 84.343 19.168 84.281 19.26 84.206 C 19.335 84.148 19.41 84.094 19.485 84.031 L 22.935 81.106 L 22.935 82.001 C 22.86 82.933 23.187 83.853 23.834 84.529 C 24.481 85.205 25.386 85.572 26.321 85.538 C 27.625 85.463 28.86 84.936 29.804 84.034 L 33.647 80.788 L 33.647 82.001 C 33.572 82.934 33.9 83.854 34.547 84.53 C 35.194 85.206 36.099 85.573 37.034 85.538 C 38.338 85.471 39.574 84.937 40.518 84.035 L 44.193 80.927 L 44.193 82.002 C 44.119 82.935 44.446 83.855 45.093 84.531 C 45.74 85.206 46.645 85.573 47.58 85.539 C 48.884 85.464 50.12 84.938 51.063 84.035 L 52.777 82.593 C 53.975 84.433 56.032 85.533 58.226 85.508 C 61.418 85.508 63.535 83.882 65.978 81.438 L 66.263 81.152 L 66.498 82.535 C 66.659 84.246 68.102 85.551 69.821 85.539 C 71.291 85.503 72.556 84.491 72.914 83.064 L 74.999 76.211 L 76.876 82.634 C 77.33 84.261 78.209 85.544 80.131 85.544 C 81.809 85.597 83.25 84.36 83.451 82.694 L 84.852 74.62 C 85.015 73.746 85.372 73.401 85.958 73.401 C 86.906 73.401 87.418 73.989 87.477 75.253 C 87.112 76.159 86.924 77.126 86.925 78.103 C 86.878 82.19 90.155 85.543 94.243 85.59 C 95.26 85.587 96.265 85.37 97.191 84.953 C 98.154 84.488 99.021 83.848 99.748 83.063 L 100.855 81.903 L 103.422 79.222 C 103.476 79.158 103.534 79.097 103.596 79.04 C 103.874 81.85 105.753 84.245 108.419 85.181 C 111.084 86.117 114.048 85.422 116.021 83.402 C 116.883 82.533 117.636 81.611 118.448 80.697 L 119.864 79.091 C 120.325 82.749 123.417 85.504 127.104 85.541 C 128.715 85.54 130.279 84.996 131.543 83.998 C 132.2 84.969 133.3 85.548 134.473 85.54 C 135.786 85.551 137.009 84.874 137.698 83.756 L 143.428 74.775 C 143.818 74.15 144.144 73.743 144.568 73.743 C 144.992 73.743 145.184 74.025 145.511 74.868 C 146.294 76.901 146.879 78.371 146.879 79.843 C 146.883 80.602 146.582 81.331 146.043 81.866 C 145.505 82.4 144.773 82.697 144.014 82.688 C 143.273 82.662 142.552 82.444 141.921 82.055 C 141.75 81.957 141.586 81.845 141.416 81.723 L 141.388 81.702 C 141.251 81.603 141.078 81.565 140.912 81.6 C 140.746 81.635 140.603 81.738 140.517 81.884 L 139.704 83.204 C 139.535 83.477 139.594 83.832 139.841 84.037 C 139.853 84.044 139.864 84.053 139.874 84.062 C 140.043 84.198 140.218 84.324 140.399 84.442 C 141.5 85.138 142.772 85.517 144.074 85.538 C 147.82 85.538 149.999 83.002 149.999 79.997 L 150 79.991 Z  M 33.665 77.121 L 27.804 82.088 C 27.185 82.589 26.991 82.714 26.665 82.714 C 26.479 82.716 26.302 82.639 26.178 82.501 C 26.054 82.363 25.994 82.178 26.015 81.994 L 26.015 73.369 L 33.665 73.369 L 33.665 77.119 L 33.665 77.121 Z  M 54.861 77.646 L 54.861 76.427 C 54.861 74.424 55.707 73.352 57.27 73.352 C 58.215 73.352 58.866 73.877 58.866 74.697 C 58.866 75.481 58.341 76.169 56.847 76.857 C 56.327 77.109 55.643 77.36 54.861 77.64 L 54.861 77.646 Z  M 98.811 78.096 C 98.748 80.6 96.68 82.586 94.176 82.548 C 91.671 82.511 89.665 80.463 89.677 77.958 C 89.696 75.449 91.735 73.426 94.244 73.425 C 96.795 73.455 98.839 75.545 98.811 78.096 Z  M 115.417 78.096 C 115.354 80.6 113.286 82.587 110.782 82.549 C 108.277 82.511 106.27 80.462 106.284 77.957 C 106.303 75.448 108.343 73.425 110.852 73.425 C 113.402 73.455 115.445 75.546 115.417 78.096 Z  M 130.63 80.984 C 129.783 82.073 128.484 82.713 127.105 82.721 C 124.571 82.657 122.551 80.585 122.551 78.05 C 122.551 75.516 124.571 73.444 127.105 73.38 C 128.534 73.38 130.546 74.415 130.63 75.118 L 130.63 80.984 L 130.63 80.984 Z  M 15.952 66.284 C 15.924 65.298 15.116 64.512 14.129 64.512 C 13.142 64.512 12.334 65.298 12.307 66.284 C 12.346 67.262 13.151 68.034 14.129 68.034 C 15.107 68.034 15.913 67.262 15.952 66.284 L 15.952 66.284 Z  M 11.461 84.854 L 11.461 83.384 C 11.464 83.195 11.391 83.012 11.258 82.877 C 11.126 82.742 10.946 82.665 10.756 82.663 L 3.809 82.663 C 3.633 82.67 3.462 82.603 3.338 82.477 C 3.215 82.351 3.149 82.18 3.158 82.004 L 3.158 65.154 C 3.16 64.965 3.087 64.783 2.955 64.648 C 2.823 64.513 2.642 64.436 2.453 64.434 L 0.704 64.434 C 0.311 64.439 -0.004 64.761 0 65.154 L 0 81.917 C 0 84.514 1.661 85.578 3.68 85.578 L 10.756 85.578 C 10.946 85.576 11.126 85.499 11.258 85.364 C 11.391 85.229 11.464 85.046 11.461 84.857 L 11.461 84.854 Z " fill="rgb(255,255,255)"/><path d=" M 150 79.991 C 150 78.146 149.219 76.114 148.438 74.077 C 147.821 72.485 146.875 70.794 144.598 70.794 C 142.448 70.794 141.407 72.547 140.494 74.019 L 135.51 81.809 C 135.152 82.371 134.828 82.622 134.501 82.622 C 134.279 82.625 134.066 82.535 133.912 82.375 C 133.757 82.214 133.677 81.998 133.688 81.776 L 133.688 65.159 C 133.69 64.962 133.614 64.772 133.476 64.632 C 133.338 64.491 133.15 64.411 132.953 64.409 L 131.362 64.409 C 130.952 64.413 130.624 64.749 130.628 65.159 L 130.628 71.487 C 129.552 70.879 128.338 70.56 127.103 70.56 C 124.813 70.568 122.661 71.657 121.301 73.498 L 118.062 76.865 C 117.52 73.292 114.465 70.641 110.851 70.606 C 109.069 70.609 107.35 71.271 106.026 72.465 L 105.951 72.543 C 105.729 72.749 105.518 72.968 105.321 73.199 L 101.502 77.174 C 101.091 73.465 97.976 70.647 94.245 70.608 C 92.542 70.608 90.895 71.211 89.595 72.311 C 88.732 71.19 87.403 70.528 85.99 70.517 C 83.906 70.517 82.309 71.704 81.856 74.457 L 80.487 82.372 C 80.455 82.652 80.292 82.717 80.187 82.717 C 80.024 82.717 79.962 82.591 79.894 82.372 L 76.769 72.268 C 76.598 71.482 75.913 70.914 75.109 70.89 C 74.284 70.851 73.547 71.403 73.352 72.205 L 70.202 82.37 C 70.104 82.65 70.007 82.715 69.909 82.715 C 69.746 82.715 69.65 82.589 69.609 82.37 L 67.865 72.231 L 67.715 71.406 L 67.67 71.19 C 67.586 70.873 67.303 70.65 66.974 70.646 L 65.369 70.646 C 65.165 70.649 64.97 70.736 64.832 70.888 C 64.694 71.04 64.625 71.242 64.642 71.446 L 64.646 71.481 L 64.766 72.238 L 65.729 77.927 L 63.779 79.721 C 61.694 81.627 60.587 82.631 58.242 82.631 C 56.821 82.686 55.55 81.75 55.182 80.375 C 56.637 79.919 58.043 79.323 59.382 78.594 C 60.98 77.619 61.955 76.592 61.955 74.558 C 61.955 72.149 59.793 70.618 57.384 70.618 C 53.801 70.618 51.759 73.533 51.759 76.757 L 51.768 77.825 C 51.768 78.029 51.813 79.482 51.822 79.76 L 49.06 82.1 C 48.441 82.601 48.246 82.726 47.92 82.726 C 47.734 82.729 47.556 82.652 47.431 82.514 C 47.307 82.376 47.247 82.191 47.269 82.006 L 47.269 65.159 C 47.273 64.749 46.945 64.413 46.535 64.409 L 44.949 64.409 C 44.539 64.413 44.21 64.749 44.214 65.159 L 44.214 77.258 L 38.514 82.088 C 37.896 82.589 37.701 82.714 37.374 82.714 C 37.188 82.716 37.011 82.639 36.887 82.501 C 36.763 82.363 36.702 82.178 36.723 81.994 L 36.723 73.369 L 40.361 73.369 C 40.64 73.366 40.863 73.137 40.86 72.859 L 40.86 71.159 C 40.862 71.025 40.81 70.896 40.716 70.8 C 40.623 70.704 40.495 70.65 40.361 70.649 L 36.723 70.649 L 36.723 66.861 C 36.728 66.452 36.399 66.116 35.989 66.111 L 34.399 66.111 C 34.202 66.113 34.014 66.193 33.876 66.334 C 33.739 66.475 33.662 66.664 33.664 66.861 L 33.664 70.649 L 26.014 70.649 L 26.014 66.861 C 26.018 66.452 25.69 66.116 25.28 66.111 L 23.686 66.111 C 23.277 66.116 22.948 66.452 22.952 66.861 L 22.952 70.649 L 21.076 70.649 C 20.942 70.65 20.814 70.704 20.721 70.8 C 20.627 70.896 20.576 71.025 20.578 71.159 L 20.578 72.86 C 20.577 72.995 20.63 73.126 20.728 73.222 C 20.825 73.318 20.955 73.372 21.091 73.371 L 22.951 73.371 L 22.951 77.438 L 17.476 82.086 C 16.858 82.587 16.663 82.712 16.338 82.712 C 16.152 82.715 15.974 82.637 15.849 82.5 C 15.724 82.363 15.664 82.178 15.685 81.992 L 15.685 72.672 C 15.69 72.262 15.361 71.926 14.951 71.922 L 13.366 71.922 C 12.957 71.926 12.628 72.262 12.632 72.672 L 12.632 81.994 C 12.557 82.926 12.885 83.846 13.531 84.522 C 14.178 85.198 15.083 85.565 16.018 85.531 C 16.134 85.531 16.251 85.525 16.367 85.514 C 16.405 85.51 16.442 85.503 16.485 85.499 C 16.565 85.49 16.646 85.478 16.728 85.463 C 16.777 85.454 16.825 85.441 16.874 85.431 C 16.949 85.415 17.024 85.397 17.099 85.376 C 17.152 85.361 17.206 85.343 17.259 85.325 C 17.334 85.302 17.409 85.277 17.484 85.25 C 17.541 85.229 17.598 85.205 17.654 85.183 C 17.729 85.151 17.804 85.118 17.879 85.083 C 17.938 85.055 17.997 85.026 18.056 84.995 L 18.281 84.87 C 18.343 84.836 18.403 84.801 18.463 84.764 L 18.703 84.614 L 18.888 84.488 C 18.916 84.468 18.942 84.452 18.963 84.433 C 18.973 84.425 18.979 84.416 18.988 84.409 C 19.078 84.343 19.168 84.281 19.26 84.206 C 19.335 84.148 19.41 84.094 19.485 84.031 L 22.935 81.106 L 22.935 82.001 C 22.86 82.933 23.187 83.853 23.834 84.529 C 24.481 85.205 25.386 85.572 26.321 85.538 C 27.625 85.463 28.86 84.936 29.804 84.034 L 33.647 80.788 L 33.647 82.001 C 33.572 82.934 33.9 83.854 34.547 84.53 C 35.194 85.206 36.099 85.573 37.034 85.538 C 38.338 85.471 39.574 84.937 40.518 84.035 L 44.193 80.927 L 44.193 82.002 C 44.119 82.935 44.446 83.855 45.093 84.531 C 45.74 85.206 46.645 85.573 47.58 85.539 C 48.884 85.464 50.12 84.938 51.063 84.035 L 52.777 82.593 C 53.975 84.433 56.032 85.533 58.226 85.508 C 61.418 85.508 63.535 83.882 65.978 81.438 L 66.263 81.152 L 66.498 82.535 C 66.659 84.246 68.102 85.551 69.821 85.539 C 71.291 85.503 72.556 84.491 72.914 83.064 L 74.999 76.211 L 76.876 82.634 C 77.33 84.261 78.209 85.544 80.131 85.544 C 81.809 85.597 83.25 84.36 83.451 82.694 L 84.852 74.62 C 85.015 73.746 85.372 73.401 85.958 73.401 C 86.906 73.401 87.418 73.989 87.477 75.253 C 87.112 76.159 86.924 77.126 86.925 78.103 C 86.878 82.19 90.155 85.543 94.243 85.59 C 95.26 85.587 96.265 85.37 97.191 84.953 C 98.154 84.488 99.021 83.848 99.748 83.063 L 100.855 81.903 L 103.422 79.222 C 103.476 79.158 103.534 79.097 103.596 79.04 C 103.874 81.85 105.753 84.245 108.419 85.181 C 111.084 86.117 114.048 85.422 116.021 83.402 C 116.883 82.533 117.636 81.611 118.448 80.697 L 119.864 79.091 C 120.325 82.749 123.417 85.504 127.104 85.541 C 128.715 85.54 130.279 84.996 131.543 83.998 C 132.2 84.969 133.3 85.548 134.473 85.54 C 135.786 85.551 137.009 84.874 137.698 83.756 L 143.428 74.775 C 143.818 74.15 144.144 73.743 144.568 73.743 C 144.992 73.743 145.184 74.025 145.511 74.868 C 146.294 76.901 146.879 78.371 146.879 79.843 C 146.883 80.602 146.582 81.331 146.043 81.866 C 145.505 82.4 144.773 82.697 144.014 82.688 C 143.273 82.662 142.552 82.444 141.921 82.055 C 141.75 81.957 141.586 81.845 141.416 81.723 L 141.388 81.702 C 141.251 81.603 141.078 81.565 140.912 81.6 C 140.746 81.635 140.603 81.738 140.517 81.884 L 139.704 83.204 C 139.535 83.477 139.594 83.832 139.841 84.037 C 139.853 84.044 139.864 84.053 139.874 84.062 C 140.043 84.198 140.218 84.324 140.399 84.442 C 141.5 85.138 142.772 85.517 144.074 85.538 C 147.82 85.538 149.999 83.002 149.999 79.997 L 150 79.991 Z  M 33.665 77.121 L 27.804 82.088 C 27.185 82.589 26.991 82.714 26.665 82.714 C 26.479 82.716 26.302 82.639 26.178 82.501 C 26.054 82.363 25.994 82.178 26.015 81.994 L 26.015 73.369 L 33.665 73.369 L 33.665 77.119 L 33.665 77.121 Z  M 54.861 77.646 L 54.861 76.427 C 54.861 74.424 55.707 73.352 57.27 73.352 C 58.215 73.352 58.866 73.877 58.866 74.697 C 58.866 75.481 58.341 76.169 56.847 76.857 C 56.327 77.109 55.643 77.36 54.861 77.64 L 54.861 77.646 Z  M 98.811 78.096 C 98.748 80.6 96.68 82.586 94.176 82.548 C 91.671 82.511 89.665 80.463 89.677 77.958 C 89.696 75.449 91.735 73.426 94.244 73.425 C 96.795 73.455 98.839 75.545 98.811 78.096 Z  M 115.417 78.096 C 115.354 80.6 113.286 82.587 110.782 82.549 C 108.277 82.511 106.27 80.462 106.284 77.957 C 106.303 75.448 108.343 73.425 110.852 73.425 C 113.402 73.455 115.445 75.546 115.417 78.096 Z  M 130.63 80.984 C 129.783 82.073 128.484 82.713 127.105 82.721 C 124.571 82.657 122.551 80.585 122.551 78.05 C 122.551 75.516 124.571 73.444 127.105 73.38 C 128.534 73.38 130.546 74.415 130.63 75.118 L 130.63 80.984 L 130.63 80.984 Z  M 15.952 66.284 C 15.924 65.298 15.116 64.512 14.129 64.512 C 13.142 64.512 12.334 65.298 12.307 66.284 C 12.346 67.262 13.151 68.034 14.129 68.034 C 15.107 68.034 15.913 67.262 15.952 66.284 L 15.952 66.284 Z  M 11.461 84.854 L 11.461 83.384 C 11.464 83.195 11.391 83.012 11.258 82.877 C 11.126 82.742 10.946 82.665 10.756 82.663 L 3.809 82.663 C 3.633 82.67 3.462 82.603 3.338 82.477 C 3.215 82.351 3.149 82.18 3.158 82.004 L 3.158 65.154 C 3.16 64.965 3.087 64.783 2.955 64.648 C 2.823 64.513 2.642 64.436 2.453 64.434 L 0.704 64.434 C 0.311 64.439 -0.004 64.761 0 65.154 L 0 81.917 C 0 84.514 1.661 85.578 3.68 85.578 L 10.756 85.578 C 10.946 85.576 11.126 85.499 11.258 85.364 C 11.391 85.229 11.464 85.046 11.461 84.857 L 11.461 84.854 Z " fill="rgb(125,39,123)"/></g></svg>