<?xml version="1.0" encoding="UTF-8" standalone="no"?><!-- Generator: Gravit.io --><svg xmlns="http://www.w3.org/2000/svg" xmlns:xlink="http://www.w3.org/1999/xlink" style="isolation:isolate" viewBox="0 0 150 150" width="150pt" height="150pt"><defs><clipPath id="_clipPath_pJcjyMS6qHVaaxyPblRmLgbwEd7oIjNi"><rect width="150" height="150"/></clipPath></defs><g clip-path="url(#_clipPath_pJcjyMS6qHVaaxyPblRmLgbwEd7oIjNi)"><path d=" M 0 63.886 L 6.07 66.247 L 11.803 67.596 L 11.803 73.554 L 9.555 73.104 L 9.555 123.913 C 9.555 123.913 38.668 114.247 73.965 114.247 C 109.263 114.247 141.524 125.713 141.524 125.713 L 141.524 114.359 C 141.524 114.359 142.734 113.949 144.335 114.585 C 145.935 115.22 146.695 116.27 146.695 116.27 L 146.695 133.582 C 146.695 133.582 119.153 119.305 73.966 119.305 C 28.778 119.305 0.113 133.582 0.113 133.582 L 0.113 127.062 L 2.136 125.6 L 2.136 71.531 L 0.001 70.407 L 0.001 63.886 L 0 63.886 L 0 63.886 Z " fill-rule="evenodd" fill="rgb(45,57,115)"/><path d=" M 19.559 70.294 C 12.927 70.406 13.264 75.352 13.264 75.352 L 13.264 114.808 C 13.264 114.808 13.151 119.416 20.908 118.742 C 28.664 118.067 29.114 111.885 29.114 111.885 L 29.114 78.387 C 29.114 75.689 26.191 70.181 19.559 70.294 L 19.559 70.294 Z  M 21.133 112.448 C 19.279 112.714 18.884 109.975 18.884 109.975 L 18.884 78.612 C 18.884 78.612 18.941 77.263 20.289 76.814 C 21.639 76.364 22.931 77.826 22.931 78.612 L 22.931 110.874 C 22.931 110.874 22.988 112.18 21.133 112.448 L 21.133 112.448 Z " fill-rule="evenodd" fill="rgb(168,37,42)"/><path d=" M 42.048 132.694 L 42.048 125.509 L 43.513 125.509 L 43.513 131.845 L 48.959 131.845 L 48.959 132.694 L 42.048 132.694 Z  M 50.257 129.194 C 50.257 128.002 50.749 127.068 51.735 126.394 C 52.721 125.719 53.993 125.381 55.554 125.381 C 56.574 125.381 57.495 125.54 58.314 125.856 C 59.132 126.174 59.759 126.616 60.188 127.183 C 60.618 127.749 60.832 128.393 60.832 129.11 C 60.84 129.821 60.6 130.513 60.155 131.067 C 59.702 131.643 59.061 132.077 58.232 132.373 C 57.4 132.669 56.506 132.816 55.546 132.816 C 54.503 132.816 53.573 132.655 52.754 132.326 C 51.932 132 51.312 131.554 50.889 130.988 C 50.468 130.423 50.257 129.825 50.257 129.194 L 50.257 129.194 Z  M 51.766 129.209 C 51.766 130.076 52.123 130.757 52.84 131.255 C 53.557 131.754 54.457 132.003 55.538 132.003 C 56.641 132.003 57.547 131.752 58.258 131.248 C 58.968 130.745 59.326 130.03 59.326 129.104 C 59.326 128.521 59.171 128.011 58.867 127.574 C 58.563 127.137 58.118 126.799 57.534 126.559 C 56.947 126.319 56.29 126.199 55.56 126.199 C 54.523 126.199 53.632 126.43 52.885 126.893 C 52.139 127.356 51.766 128.128 51.766 129.209 Z  M 62.705 132.694 L 62.705 125.509 L 64.206 125.509 L 70.016 131.149 L 70.016 125.509 L 71.419 125.509 L 71.419 132.694 L 69.918 132.694 L 64.108 127.047 L 64.108 132.694 L 62.705 132.694 Z  M 73.878 132.694 L 73.878 125.509 L 77.687 125.509 C 78.548 125.509 79.204 125.544 79.656 125.612 C 80.29 125.706 80.831 125.878 81.28 126.127 C 81.862 126.447 82.298 126.855 82.586 127.354 C 82.878 127.852 83.022 128.422 83.022 129.062 C 83.022 129.608 82.925 130.091 82.726 130.512 C 82.53 130.933 82.282 131.283 81.971 131.56 C 81.673 131.831 81.333 132.051 80.964 132.211 C 80.6 132.37 80.161 132.49 79.645 132.572 C 79.129 132.655 78.536 132.695 77.868 132.695 L 73.878 132.695 L 73.878 132.694 L 73.878 132.694 Z  M 75.341 131.845 L 77.703 131.845 C 78.431 131.845 79.006 131.801 79.42 131.713 C 79.835 131.625 80.165 131.501 80.412 131.34 C 80.759 131.116 81.039 130.802 81.223 130.432 C 81.417 130.051 81.513 129.591 81.513 129.046 C 81.513 128.295 81.323 127.718 80.945 127.315 C 80.572 126.916 80.091 126.634 79.56 126.505 C 79.168 126.406 78.535 126.357 77.666 126.357 L 75.341 126.357 L 75.341 131.845 L 75.341 131.845 Z  M 84.59 129.194 C 84.59 128.002 85.082 127.068 86.068 126.394 C 87.055 125.719 88.327 125.381 89.888 125.381 C 90.908 125.381 91.83 125.54 92.648 125.856 C 93.467 126.174 94.093 126.616 94.521 127.183 C 94.952 127.749 95.167 128.393 95.167 129.11 C 95.174 129.821 94.934 130.513 94.488 131.067 C 94.035 131.643 93.395 132.077 92.566 132.373 C 91.703 132.674 90.794 132.824 89.879 132.816 C 88.837 132.816 87.907 132.655 87.088 132.326 C 86.266 132 85.647 131.554 85.223 130.988 C 84.802 130.423 84.59 129.825 84.59 129.194 L 84.59 129.194 Z  M 86.101 129.209 C 86.101 130.076 86.458 130.757 87.175 131.255 C 87.893 131.754 88.792 132.003 89.873 132.003 C 90.975 132.003 91.882 131.752 92.593 131.248 C 93.303 130.745 93.661 130.03 93.661 129.104 C 93.661 128.521 93.506 128.011 93.203 127.574 C 92.9 127.137 92.453 126.799 91.87 126.559 C 91.282 126.319 90.626 126.199 89.896 126.199 C 88.859 126.199 87.969 126.43 87.221 126.893 C 86.472 127.356 86.101 128.128 86.101 129.209 L 86.101 129.209 Z  M 97.039 132.694 L 97.039 125.509 L 98.54 125.509 L 104.349 131.149 L 104.349 125.509 L 105.753 125.509 L 105.753 132.694 L 104.252 132.694 L 98.443 127.047 L 98.443 132.694 L 97.039 132.694 Z " fill-rule="evenodd" fill="rgb(45,57,115)"/><path d=" M 30.464 73.237 L 37.686 74.901 L 44.681 92.444 L 44.681 81.442 L 42.374 80.61 L 42.374 75.846 L 50.277 77.433 L 50.277 81.895 L 49.143 81.706 L 49.143 108.514 L 50.725 108.091 L 50.725 112.897 L 44.486 114.077 L 37.91 94.518 L 37.91 109.693 L 40.524 109.44 L 40.524 114.837 L 30.66 116.185 L 30.66 111.126 L 32.346 110.537 L 32.346 79.596 L 30.406 78.669 L 30.464 73.237 L 30.464 73.237 Z  M 52.496 99.745 L 52.496 112.644 L 56.71 112.39 C 56.71 112.39 56.71 110.789 57.806 110.704 C 58.902 110.62 59.914 112.053 62.106 111.885 C 64.298 111.716 68.176 109.946 67.754 104.129 C 67.333 98.311 65.815 96.71 65.815 96.71 L 58.311 87.605 C 58.311 87.605 56.541 83.811 58.059 82.124 C 59.576 80.438 62.443 83.558 62.78 84.654 C 63.118 85.75 62.949 87.858 62.949 87.858 L 66.49 87.858 L 66.49 77.909 L 63.202 77.488 C 63.202 77.488 63.034 78.584 62.106 78.669 C 61.178 78.753 61.937 76.898 58.143 76.898 C 56.794 76.983 51.82 78.922 51.904 84.823 C 51.989 90.725 54.265 91.989 54.265 91.989 C 54.265 91.989 60.841 99.407 61.515 100.841 C 62.19 102.275 63.285 106.658 60.503 107.164 C 57.721 107.67 56.877 103.454 56.877 103.454 L 56.793 99.829 L 52.496 99.745 L 52.496 99.745 Z  M 78.041 77.488 Q 78.041 77.488 68.345 77.741 L 68.345 82.125 L 69.778 82.294 L 69.778 106.658 L 68.851 106.658 L 68.851 111.548 L 78.63 111.38 C 78.63 111.38 86.892 108.767 86.892 93.169 C 86.892 93.169 78.041 77.488 78.041 77.488 Q 78.041 77.488 78.041 77.488 Z  M 75.932 106.912 L 75.932 81.872 C 75.932 81.872 80.485 83.305 80.485 94.013 C 80.485 104.719 75.932 106.912 75.932 106.912 Z " fill-rule="evenodd" fill="rgb(168,37,42)"/><path d=" M 104.682 108.682 L 100.635 79.849 L 102.827 79.174 L 102.827 73.948 L 89.169 76.477 L 89.169 81.367 L 91.445 80.777 L 86.977 107.334 L 85.797 107.165 L 85.797 111.465 L 93.807 112.392 L 93.807 108.261 L 91.952 107.755 L 93.132 102.359 L 97.768 102.359 L 98.949 108.177 L 96.588 108.092 L 96.588 113.066 L 106.2 114.415 L 106.2 109.273 L 104.682 108.682 L 104.682 108.682 Z  M 93.722 97.469 L 95.576 89.291 L 97.263 97.469 L 93.722 97.469 Z  M 107.351 72.88 L 116.681 70.518 L 116.681 77.375 L 115.557 77.825 L 115.557 110.312 L 117.019 110.312 L 117.019 101.094 L 121.404 101.544 L 121.404 117.281 L 108.026 114.47 L 108.026 109.188 L 109.038 108.963 L 109.038 78.163 L 107.239 78.5 L 107.351 72.88 L 107.351 72.88 Z  M 140.513 64.56 L 122.752 69.732 L 122.752 75.69 L 124.888 76.027 L 124.888 112.335 L 123.539 111.773 L 123.539 117.281 L 139.389 122.564 L 139.389 105.478 L 134.33 103.792 L 134.33 114.808 L 131.744 113.684 L 131.744 95.249 L 134.218 95.585 L 134.443 98.846 L 139.951 99.97 L 139.951 85.357 L 134.443 85.244 L 134.443 89.852 L 131.744 89.629 L 131.744 73.779 L 134.33 73.441 L 134.33 81.085 L 140.175 79.624 L 140.513 64.56 L 140.513 64.56 Z " fill-rule="evenodd" fill="rgb(168,37,42)"/><path d=" M 142.493 113.305 L 142.493 110.282 L 140.896 110.282 L 140.896 109.877 L 144.737 109.877 L 144.737 110.282 L 143.135 110.282 L 143.135 113.305 L 142.493 113.305 L 142.493 113.305 Z  M 145.375 113.305 L 145.375 109.877 L 146.34 109.877 L 147.487 112.303 C 147.592 112.53 147.671 112.699 147.718 112.811 C 147.774 112.687 147.859 112.504 147.978 112.262 L 149.136 109.877 L 150 109.877 L 150 113.305 L 149.381 113.305 L 149.381 110.436 L 147.973 113.305 L 147.394 113.305 L 145.994 110.387 L 145.994 113.305 L 145.375 113.305 L 145.375 113.305 Z  M 100.632 28.678 C 99.386 30.337 101.875 32.353 102.409 32.709 C 102.942 33.065 105.373 32.827 105.906 33.361 C 106.44 33.894 109.049 37.686 113.316 40.888 C 117.584 44.089 119.954 46.282 120.132 47.763 C 120.309 49.245 118.829 49.897 118.413 50.489 C 117.998 51.082 117.168 52.801 117.168 52.801 C 117.168 52.801 116.398 54.578 117.761 55.052 C 119.123 55.527 120.308 54.875 120.724 54.164 C 121.138 53.453 123.095 51.734 122.681 49.244 C 122.266 46.755 121.672 44.266 120.783 43.317 C 119.893 42.368 106.143 29.744 106.143 29.744 C 106.143 29.744 101.875 27.018 100.632 28.678 L 100.632 28.678 Z  M 117.275 60.381 C 116.85 58.941 117.765 56.509 116.998 56.151 C 116.232 55.792 113.133 56.396 113.136 55.138 C 113.141 53.881 114.603 53.437 113.873 52.563 C 113.141 51.689 107.94 50.412 105.595 46.217 C 103.249 42.021 99.442 30.991 97.777 29.846 C 96.111 28.702 92.566 26.239 87.199 26.628 C 81.835 27.016 75.919 29.137 71.289 29.846 C 66.659 30.556 62.276 29.11 62.276 29.11 L 64.299 34.26 C 64.299 34.26 64.871 37.071 63.011 36.652 C 61.151 36.232 58.255 32.805 55.01 32.973 C 51.765 33.141 50.724 34.803 49.951 34.169 C 49.18 33.535 48.373 31.998 49.676 31.502 C 50.978 31.006 56.416 31.543 58.137 32.145 C 59.859 32.748 63.196 34.537 63.196 34.537 C 63.196 34.537 57.606 26.592 54.351 25.273 C 51.096 23.955 49.197 24.338 46.181 23.317 C 43.167 22.294 43.06 19.714 41.368 18.866 C 39.676 18.018 36.34 17.339 36.34 17.339 C 36.34 17.339 34.926 16.388 34.408 16.419 C 33.891 16.45 33.029 17.247 33.029 17.247 C 33.029 17.247 29.765 17.64 29.074 18.535 C 28.385 19.428 28.196 20.666 26.407 21.845 C 24.618 23.025 18.682 22.673 18.682 22.673 C 18.682 22.673 16.521 23.016 16.383 24.146 C 16.244 25.274 17.293 26.016 17.303 26.628 C 17.313 27.241 16.659 27.809 16.199 28.283 C 15.739 28.759 15.924 31.135 15.924 31.135 C 15.924 31.135 16.205 32.121 16.844 32.238 C 17.482 32.355 18.055 31.008 19.511 30.95 C 20.967 30.894 21.883 31.591 21.902 32.423 C 21.922 33.255 15.072 34.222 16.108 36.745 C 17.145 39.269 17.008 39.673 17.947 39.78 C 18.886 39.887 19.95 38.339 21.135 38.2 C 22.32 38.062 24.309 38.629 24.661 38.583 C 25.012 38.537 27.435 37.312 27.373 34.434 C 27.311 31.557 25.918 31.722 26.224 30.858 C 26.53 29.995 28.984 29.975 29.443 29.479 C 29.903 28.982 31.227 26.475 29.075 26.352 C 26.923 26.228 26.143 26.439 25.213 26.811 C 24.283 27.184 24.053 28.636 23.465 28.191 C 22.878 27.746 23.097 25.984 23.097 25.984 C 23.097 25.984 23.072 24.492 24.662 24.237 C 26.25 23.981 26.543 24.257 26.593 24.513 C 26.643 24.768 25.786 25.156 25.764 25.524 C 25.744 25.892 27.088 25.806 27.512 25.708 C 27.936 25.611 28.877 25.131 28.799 24.697 C 28.722 24.263 26.097 24.472 26.96 23.777 C 27.823 23.081 28.6 23.159 29.167 23.317 C 29.734 23.475 29.546 24.083 30.455 24.145 C 31.364 24.205 31.483 23.511 32.294 23.409 C 33.106 23.307 32.275 24.115 35.697 24.329 C 39.12 24.543 39.325 22.858 40.571 22.857 C 41.818 22.857 41.436 24.088 41.767 24.513 C 42.098 24.937 42.744 25.106 42.871 25.892 C 42.998 26.679 40.904 26.878 40.938 28.099 C 40.974 29.32 44.444 29.423 44.627 33.536 C 44.811 37.649 39.007 43.642 39.007 43.642 C 39.007 43.642 41.761 36.167 41.761 34.491 C 41.761 32.814 39.171 31.614 39.651 30.215 C 40.131 28.814 40.117 26.326 39.928 25.801 C 39.738 25.274 39.243 25.009 35.697 24.973 C 32.151 24.936 31.558 25.433 31.558 25.433 C 31.558 25.433 30.205 31.406 29.351 33.342 C 28.497 35.278 25.406 40.578 24.843 45.206 C 24.281 49.836 28.431 53.852 28.431 53.852 C 28.431 53.852 34.803 57.608 34.685 58.359 C 34.566 59.109 31.548 59.125 29.958 59.897 C 28.369 60.667 26.648 62.262 25.211 62.682 C 23.775 63.101 19.53 62.478 18.589 62.957 C 17.648 63.437 17.102 63.882 16.842 64.981 C 16.581 66.079 21.261 66.279 22.912 66.544 C 24.563 66.81 26.959 68.072 28.431 68.199 C 29.902 68.327 30.781 65.472 33.489 64.061 C 36.197 62.65 42.074 61.046 42.226 60.106 C 42.379 59.165 39.641 58.814 40.111 58.174 C 40.58 57.535 43.999 58.695 45.353 58.818 C 46.706 58.941 48.358 59.12 48.572 57.991 C 48.785 56.862 42.865 50.684 42.593 49.528 C 42.322 48.373 42.523 45.84 43.237 44.746 C 43.951 43.652 46.027 40.127 46.732 41.159 C 47.437 42.191 46.732 46.953 46.732 46.953 C 46.732 46.953 45.215 50.72 45.904 52.104 C 46.594 53.489 56.343 61.114 55.009 61.854 C 53.675 62.594 53.431 61.195 49.675 62.681 C 45.919 64.167 46.915 66.176 46.915 66.176 C 46.915 66.176 48.867 65.635 50.962 65.716 C 53.056 65.798 56.665 66.728 56.665 66.728 C 56.665 66.728 60.364 66.146 60.251 63.049 C 60.139 59.953 57.676 58.895 56.941 56.979 C 56.205 55.062 56.834 51.762 55.928 49.254 C 55.024 46.744 49.194 43.475 50.226 42.355 C 51.258 41.236 57.768 48.885 57.768 48.885 C 57.768 48.885 58.835 53.477 61.538 54.495 C 64.241 55.511 70.056 51.205 73.219 48.609 C 76.381 46.013 84.117 44.326 84.07 43.091 C 84.025 41.855 78.11 42.978 78.369 42.079 C 78.629 41.18 81.629 41.962 80.945 39.688 C 80.26 37.415 74.777 38.713 76.254 37.389 C 78.629 36.403 78.012 36.683 79.565 36.47 C 83.294 36.178 90.443 46.321 90.327 46.954 C 90.208 47.588 88.761 46.862 88.761 46.862 C 88.761 46.862 88.394 46.102 87.474 45.974 C 86.554 45.846 86.579 46.357 85.358 46.494 C 84.136 46.632 83.575 45.074 82.506 45.206 C 81.439 45.339 79.032 45.283 78.184 47.138 C 77.336 48.992 81.863 50.265 81.863 50.265 C 81.863 50.265 85.456 52.048 85.359 54.679 C 85.261 57.311 82.855 58.196 82.232 59.186 C 81.609 60.177 82.064 61.338 80.852 61.854 C 79.642 62.368 77.726 62.109 76.069 62.773 C 74.414 63.437 73.678 65.9 73.678 65.9 C 73.678 65.9 76.049 65.451 78.829 65.624 C 81.608 65.798 84.53 66.36 84.53 66.36 C 84.53 66.36 86.192 62.733 87.749 61.117 C 89.307 59.501 93.37 58.236 92.716 56.058 C 92.061 53.881 90.387 52.994 90.326 51.92 C 90.263 50.846 90.049 48.022 91.336 48.057 C 92.623 48.092 94.894 51.497 99.154 53.391 C 103.415 55.286 110.374 56.702 110.374 56.702 C 110.374 56.702 113.333 58.281 112.673 60.381 C 112.015 62.48 110.839 62.272 110.191 62.404 C 109.54 62.536 107.922 62.006 106.511 62.496 C 105.101 62.986 104.211 66.267 104.211 66.267 C 104.211 66.267 106.405 65.676 108.535 65.623 C 110.664 65.571 111.707 66.543 114.053 66.451 C 116.398 66.358 118.724 64.336 118.714 63.324 C 118.705 62.313 117.698 61.822 117.275 60.381 L 117.275 60.381 Z  M 30.687 42.36 C 30.687 42.36 29.732 40.505 31.025 38.201 C 31.025 38.201 34.566 35.053 35.184 33.199 C 35.803 31.344 35.859 29.658 35.859 29.658 C 35.859 29.658 37.152 31.457 36.703 33.312 C 36.253 35.166 34.622 36.066 33.049 38.145 C 31.475 40.224 30.687 42.36 30.687 42.36 Z  M 37.152 54.388 C 36.421 54.164 32.712 48.262 33.667 47.419 C 34.622 46.575 40.411 52.646 40.355 53.263 C 40.298 53.88 37.882 54.613 37.152 54.388 Z  M 58.116 45.17 C 57.666 45.058 57.16 44.271 57.048 44.102 C 56.935 43.933 57.048 42.809 57.835 42.641 C 58.622 42.473 59.578 43.484 59.578 44.046 C 59.578 44.608 58.566 45.282 58.116 45.17 Z  M 95.997 38.314 C 95.547 38.539 95.38 38.594 94.087 37.751 C 92.795 36.908 93.075 36.065 93.357 35.785 C 93.637 35.503 93.401 35.797 93.401 35.797 C 93.401 35.797 94.481 35.559 95.156 36.29 C 95.829 37.02 96.448 38.088 95.997 38.314 Z " fill-rule="evenodd" fill="rgb(45,57,115)"/><path d=" M 78.041 77.488 Q 86.369 81.681 86.892 93.169 Q 78.713 80.371 78.041 77.488 Z " fill="rgb(168,37,42)"/></g></svg>