<?xml version="1.0" encoding="utf-8"?>
<!-- Generator: Adobe Illustrator 24.0.1, SVG Export Plug-In . SVG Version: 6.00 Build 0)  -->
<svg version="1.1" id="Layer_1" xmlns="http://www.w3.org/2000/svg" xmlns:xlink="http://www.w3.org/1999/xlink" x="0px" y="0px"
	 viewBox="0 0 500 500" style="enable-background:new 0 0 500 500;" width="500" height="500" xml:space="preserve">
<style type="text/css">
	.st0{fill:#FFFFFF;}
</style>
<g>
	<g>
		<path class="st0" d="M0,273.35c0-15.9,0-31.8,0-47.71c166.67,0,333.33,0,500,0c0,15.9,0,31.8,0,47.71
			C333.33,273.35,166.67,273.35,0,273.35z M69.33,250.35c0,11.02,8.49,19.32,19.74,19.31c10.99-0.01,19.5-8.4,19.52-19.25
			c0.02-11.04-8.49-19.49-19.61-19.49C77.8,230.93,69.33,239.3,69.33,250.35z M364.85,248.73c5.47-7.52,1.24-15.36-5.03-16.51
			c-3.67-0.68-7.51-0.46-11.37-0.65c0,12.72,0,24.86,0,37.07c4.53,0,8.87,0.34,13.12-0.1c4.02-0.42,7.01-2.75,8.39-6.75
			C371.79,256.49,370.37,252.69,364.85,248.73z M236.32,268.3c-3.72-5.06-7.35-10-11.07-15.06c1.06-0.55,1.5-0.79,1.95-1.01
			c4.54-2.23,6.42-5.65,6.04-10.94c-0.32-4.38-2.89-7.78-7.69-8.78c-3.78-0.78-7.77-0.67-11.67-0.71c-0.56-0.01-1.61,1.38-1.62,2.13
			c-0.11,10.93-0.09,21.85-0.02,32.78c0,0.69,0.59,1.79,1.17,2c3.04,1.14,4.66-0.06,4.67-3.27c0.01-1.49,0-2.98,0-4.47
			c0-2.28,0-4.56,0-6.84c0.34-0.07,0.67-0.14,1.01-0.21c2.75,3.86,5.52,7.72,8.26,11.6C229.97,269.26,231,269.63,236.32,268.3z
			 M314.67,231.69c-1.46,0-2.54,0.05-3.61-0.01c-1.51-0.1-2.19,0.46-2.18,2.03c0.07,8.04-0.1,16.08,0.18,24.11
			c0.16,4.43,2.65,7.86,6.59,10.05c9.77,5.41,20.7-0.83,21.16-12.22c0.27-6.84,0.02-13.69,0.11-20.54c0.03-2.14-0.1-3.49-2.95-3.52
			c-3.01-0.04-3.16,1.42-3.13,3.67c0.08,6.65,0.11,13.3-0.01,19.94c-0.1,6.02-2.89,9.04-8.02,9.03c-5.1-0.01-7.98-3.17-8.1-9.05
			c-0.09-4.36-0.03-8.73-0.04-13.1C314.67,238.74,314.67,235.4,314.67,231.69z M151.03,231.7c-0.25,0.72-0.42,1-0.42,1.27
			c-0.03,11.31-0.03,22.62-0.08,33.93c-0.01,1.9,1.14,1.98,2.57,1.97c5.23-0.03,10.45-0.07,15.68,0.02
			c1.91,0.03,2.69-0.52,2.64-2.53c-0.05-1.91-0.42-2.99-2.67-2.91c-3.31,0.12-6.63-0.04-9.95,0.05c-1.82,0.05-2.52-0.63-2.45-2.44
			c0.11-2.58,0.08-5.16,0.01-7.74c-0.04-1.54,0.58-2.12,2.13-2.09c3.42,0.07,6.83-0.06,10.25,0.04c2.12,0.06,2.18-1.22,2.17-2.72
			c-0.01-1.5-0.12-2.81-2.21-2.73c-2.11,0.08-4.22,0.05-6.33,0c-6.97-0.15-5.83,1.29-6.03-6.28c-0.05-2.01,0.74-2.59,2.64-2.54
			c3.41,0.09,6.83-0.03,10.25,0.03c2.1,0.04,2.16-1.26,2.14-2.76c-0.02-1.33,0.12-2.62-1.9-2.61
			C163.34,231.73,157.22,231.7,151.03,231.7z M245.84,250.22c0,5.36,0.06,10.73-0.03,16.09c-0.03,1.94,0.68,2.62,2.64,2.59
			c5.23-0.09,10.46-0.08,15.69,0c1.91,0.03,2.67-0.56,2.65-2.56c-0.02-2.01-0.64-3.01-2.77-2.86c-0.9,0.07-1.81,0.01-2.71,0.01
			c-10.13,0-10.09,0-9.54-10.04c0.09-1.69,0.68-2.25,2.34-2.21c3.32,0.08,6.64-0.06,9.96,0.05c2.16,0.07,2.16-1.22,2.14-2.71
			c-0.02-1.47-0.01-2.84-2.15-2.74c-2.01,0.09-4.02,0.05-6.03,0.01c-7.22-0.17-6.07,1.39-6.24-6.37c-0.04-1.81,0.62-2.49,2.44-2.45
			c3.32,0.08,6.64-0.05,9.96,0.04c2,0.05,2.6-0.82,2.61-2.69c0.01-1.82-0.42-2.75-2.51-2.71c-5.23,0.1-10.46,0.11-15.69-0.01
			c-2.14-0.05-2.81,0.74-2.77,2.78C245.9,239.69,245.84,244.96,245.84,250.22z M279.26,250.36c0,5.26,0,10.53,0,15.79
			c0,0.1,0.01,0.2,0,0.3c-0.25,2.11,0.97,2.49,2.76,2.43c1.66-0.06,3.31,0.15,3.21-2.32c-0.1-2.38-0.01-4.77-0.01-7.15
			c0-5.02,0-5.02,4.99-5.72c6.62-0.93,10.65-5.48,10.38-11.71c-0.26-5.9-4.84-10-11.5-10.23c-2.41-0.08-4.83,0.04-7.24-0.08
			c-1.98-0.1-2.65,0.69-2.62,2.61C279.32,239.64,279.26,245,279.26,250.36z M451.02,261.76c-9.19,3.73-15.22,2.97-19.34-2.29
			c-3.88-4.96-4.04-12.7-0.35-17.83c4.01-5.59,9.6-6.44,19.77-2.84c0.9-1.24,1.85-2.55,2.78-3.83c-5.79-5.43-19.17-6.03-26.61,2.49
			c-7,8.03-6.13,20.73,1.97,27.61c6.99,5.94,19.57,6.18,24.6,0.32C452.89,264.18,451.94,262.94,451.02,261.76z M114.28,232.17
			c3.49,11.81,6.85,23.4,10.43,34.93c0.26,0.83,2.02,1.47,3.18,1.7c1.42,0.27,2.82,0.28,3.41-1.84c1.93-6.97,4.14-13.86,6.2-20.8
			c1.37-4.62,2.66-9.27,3.99-13.91c-5.04-1.37-5.66-1.06-6.89,3.28c-1.51,5.34-2.99,10.69-4.53,16.02c-0.53,1.84-1.2,3.64-1.81,5.45
			c-2.62-7.01-4.62-13.92-6.54-20.85C120.34,231.17,119.96,230.92,114.28,232.17z M379.79,250.29c0,5.26,0.06,10.53-0.03,15.79
			c-0.03,1.98,0.52,2.87,2.71,2.82c5.23-0.12,10.46-0.1,15.69-0.01c1.97,0.04,2.62-0.64,2.61-2.58c-0.01-2.02-0.65-2.92-2.77-2.85
			c-3.11,0.1-6.24-0.09-9.35,0.06c-2.23,0.11-2.97-0.64-2.94-2.88c0.11-8.74-0.03-17.48,0.09-26.22c0.04-2.38-0.95-2.77-3.04-2.8
			c-2.19-0.03-3.06,0.62-3.01,2.88C379.87,239.76,379.79,245.03,379.79,250.29z M46.07,231.86c0,12.45,0,24.52,0,36.72
			c6.92,0,13.66,0,20.37,0c0.48-5.09,0.48-5.09-4.34-5.1c-2.41,0-4.83-0.14-7.23,0.04c-2.57,0.18-3.27-0.89-3.24-3.28
			c0.11-7.54,0.04-15.08,0.04-22.62c0-1.86,0-3.71,0-5.75C49.61,231.86,47.96,231.86,46.07,231.86z M413.69,268.69
			c0.07-0.95,0.18-1.72,0.18-2.49c0.01-10.53-0.04-21.07,0.05-31.6c0.02-2.1-0.42-3-2.8-2.99c-2.39,0.01-3.12,0.72-3.1,3.07
			c0.11,10.13,0.04,20.27,0.05,30.41c0,3.89,0.01,3.9,4.05,3.77C412.51,268.84,412.91,268.77,413.69,268.69z"/>
		<path d="M69.33,250.35c0-11.05,8.46-19.42,19.65-19.43c11.12-0.01,19.63,8.45,19.61,19.49c-0.02,10.85-8.53,19.24-19.52,19.25
			C77.82,269.67,69.33,261.37,69.33,250.35z M88.74,264.24c8.07,0.08,13.61-5.51,13.66-13.8c0.05-8.32-5.37-14.02-13.39-14.07
			c-7.98-0.04-13.52,5.66-13.56,13.95C75.41,258.39,80.92,264.16,88.74,264.24z"/>
		<path d="M364.85,248.73c5.52,3.96,6.94,7.77,5.11,13.06c-1.38,4-4.38,6.33-8.39,6.75c-4.25,0.44-8.58,0.1-13.12,0.1
			c0-12.22,0-24.36,0-37.07c3.86,0.19,7.7-0.03,11.37,0.65C366.09,233.37,370.32,241.21,364.85,248.73z M357.41,263.51
			c1.19-0.16,2.42-0.18,3.56-0.5c2.81-0.8,4.29-3.49,3.62-6.29c-0.75-3.11-4.42-4.96-8.83-4.38c-3.19,0.42-1.41,2.91-1.78,4.46
			c-0.25,1.03,0.07,2.18-0.07,3.25C353.57,262.75,354.48,264.08,357.41,263.51z M353.94,247.31c5.17,0.6,7.58-0.98,7.74-4.68
			c0.15-3.59-2.01-5.76-5.74-5.47c-0.71,0.06-1.85,1.12-1.9,1.78C353.82,241.66,353.94,244.41,353.94,247.31z"/>
		<path d="M236.32,268.3c-5.32,1.33-6.36,0.96-8.99-2.77c-2.74-3.88-5.5-7.73-8.26-11.6c-0.34,0.07-0.67,0.14-1.01,0.21
			c0,2.28,0,4.56,0,6.84c0,1.49,0,2.98,0,4.47c-0.01,3.21-1.63,4.41-4.67,3.27c-0.58-0.22-1.16-1.31-1.17-2
			c-0.07-10.93-0.09-21.85,0.02-32.78c0.01-0.75,1.06-2.14,1.62-2.13c3.9,0.04,7.89-0.08,11.67,0.71c4.8,1,7.37,4.4,7.69,8.78
			c0.39,5.29-1.5,8.71-6.04,10.94c-0.44,0.22-0.88,0.45-1.95,1.01C228.97,258.31,232.6,263.24,236.32,268.3z M220.69,237.1
			c-1.79-0.35-2.77,0.31-2.64,2.51c0.14,2.36-0.08,4.75,0.11,7.1c0.06,0.68,0.93,1.75,1.55,1.84c4.19,0.62,7.58-1.85,7.78-5.47
			C227.7,239.43,225.36,237.3,220.69,237.1z"/>
		<path d="M314.67,231.69c0,3.71,0,7.05,0,10.39c0,4.37-0.05,8.73,0.04,13.1c0.12,5.88,3.01,9.03,8.1,9.05
			c5.13,0.01,7.92-3,8.02-9.03c0.11-6.65,0.09-13.3,0.01-19.94c-0.03-2.25,0.12-3.71,3.13-3.67c2.85,0.04,2.98,1.38,2.95,3.52
			c-0.09,6.85,0.16,13.7-0.11,20.54c-0.46,11.38-11.39,17.63-21.16,12.22c-3.94-2.18-6.43-5.61-6.59-10.05
			c-0.29-8.03-0.11-16.07-0.18-24.11c-0.01-1.57,0.67-2.13,2.18-2.03C312.13,231.74,313.21,231.69,314.67,231.69z"/>
		<path d="M151.03,231.7c6.2,0,12.32,0.03,18.44-0.02c2.02-0.02,1.88,1.27,1.9,2.61c0.02,1.5-0.04,2.8-2.14,2.76
			c-3.42-0.06-6.83,0.06-10.25-0.03c-1.9-0.05-2.69,0.54-2.64,2.54c0.2,7.57-0.94,6.13,6.03,6.28c2.11,0.05,4.22,0.08,6.33,0
			c2.08-0.08,2.2,1.23,2.21,2.73c0.01,1.5-0.05,2.78-2.17,2.72c-3.41-0.09-6.83,0.03-10.25-0.04c-1.55-0.03-2.17,0.55-2.13,2.09
			c0.07,2.58,0.09,5.16-0.01,7.74c-0.07,1.8,0.63,2.48,2.45,2.44c3.31-0.08,6.64,0.08,9.95-0.05c2.25-0.08,2.62,1,2.67,2.91
			c0.05,2.01-0.74,2.56-2.64,2.53c-5.22-0.09-10.45-0.05-15.68-0.02c-1.43,0.01-2.58-0.07-2.57-1.97
			c0.05-11.31,0.05-22.62,0.08-33.93C150.61,232.69,150.78,232.42,151.03,231.7z"/>
		<path d="M245.84,250.22c0-5.26,0.06-10.53-0.03-15.79c-0.04-2.03,0.63-2.83,2.77-2.78c5.23,0.12,10.46,0.11,15.69,0.01
			c2.09-0.04,2.51,0.89,2.51,2.71c-0.01,1.87-0.61,2.74-2.61,2.69c-3.32-0.08-6.64,0.04-9.96-0.04c-1.82-0.04-2.48,0.64-2.44,2.45
			c0.18,7.77-0.98,6.2,6.24,6.37c2.01,0.05,4.03,0.08,6.03-0.01c2.14-0.1,2.13,1.28,2.15,2.74c0.02,1.48,0.01,2.78-2.14,2.71
			c-3.32-0.11-6.64,0.03-9.96-0.05c-1.65-0.04-2.25,0.52-2.34,2.21c-0.54,10.04-0.58,10.04,9.54,10.04c0.91,0,1.81,0.06,2.71-0.01
			c2.13-0.16,2.75,0.85,2.77,2.86c0.02,2-0.74,2.59-2.65,2.56c-5.23-0.08-10.46-0.09-15.69,0c-1.96,0.03-2.67-0.65-2.64-2.59
			C245.9,260.95,245.84,255.58,245.84,250.22z"/>
		<path d="M279.26,250.36c0-5.36,0.06-10.73-0.03-16.09c-0.03-1.92,0.64-2.71,2.62-2.61c2.41,0.12,4.83,0,7.24,0.08
			c6.67,0.23,11.25,4.33,11.5,10.23c0.27,6.23-3.76,10.78-10.38,11.71c-4.99,0.7-4.99,0.7-4.99,5.72c0,2.38-0.09,4.77,0.01,7.15
			c0.1,2.48-1.55,2.27-3.21,2.32c-1.78,0.06-3.01-0.32-2.76-2.43c0.01-0.1,0-0.2,0-0.3C279.26,260.89,279.26,255.63,279.26,250.36z
			 M285.23,242.63c0,5.96,1.62,7.24,6.37,5.06c2.57-1.18,3.76-3.94,2.88-6.71c-0.9-2.82-4.17-4.62-7.56-3.87
			c-3.01,0.67-1.19,3.24-1.67,4.92C285.18,242.22,285.23,242.43,285.23,242.63z"/>
		<path d="M451.02,261.76c0.92,1.19,1.87,2.42,2.8,3.63c-5.03,5.86-17.6,5.62-24.6-0.32c-8.1-6.88-8.97-19.58-1.97-27.61
			c7.44-8.53,20.83-7.93,26.61-2.49c-0.92,1.27-1.88,2.58-2.78,3.83c-10.17-3.59-15.76-2.75-19.77,2.84
			c-3.68,5.13-3.53,12.87,0.35,17.83C435.8,264.73,441.83,265.48,451.02,261.76z"/>
		<path d="M114.28,232.17c5.68-1.25,6.06-0.99,7.44,3.99c1.92,6.93,3.92,13.84,6.54,20.85c0.61-1.82,1.28-3.61,1.81-5.45
			c1.54-5.33,3.02-10.68,4.53-16.02c1.23-4.34,1.85-4.65,6.89-3.28c-1.33,4.64-2.62,9.28-3.99,13.91c-2.06,6.94-4.27,13.83-6.2,20.8
			c-0.58,2.11-1.98,2.11-3.41,1.84c-1.16-0.22-2.93-0.86-3.18-1.7C121.14,255.57,117.77,243.97,114.28,232.17z"/>
		<path d="M379.79,250.29c0-5.26,0.08-10.53-0.04-15.79c-0.05-2.26,0.81-2.9,3.01-2.88c2.09,0.02,3.07,0.42,3.04,2.8
			c-0.13,8.74,0.02,17.48-0.09,26.22c-0.03,2.24,0.71,2.98,2.94,2.88c3.11-0.15,6.24,0.04,9.35-0.06c2.13-0.07,2.76,0.83,2.77,2.85
			c0.01,1.95-0.64,2.62-2.61,2.58c-5.23-0.1-10.46-0.12-15.69,0.01c-2.19,0.05-2.75-0.84-2.71-2.82
			C379.85,260.82,379.79,255.56,379.79,250.29z"/>
		<path d="M46.07,231.86c1.89,0,3.54,0,5.6,0c0,2.03,0,3.89,0,5.75c0,7.54,0.07,15.08-0.04,22.62c-0.04,2.4,0.67,3.47,3.24,3.28
			c2.4-0.17,4.82-0.04,7.23-0.04c4.82,0,4.82,0,4.34,5.1c-6.71,0-13.45,0-20.37,0C46.07,256.39,46.07,244.32,46.07,231.86z"/>
		<path d="M413.69,268.69c-0.78,0.08-1.18,0.15-1.57,0.17c-4.04,0.13-4.05,0.13-4.05-3.77c0-10.14,0.06-20.27-0.05-30.41
			c-0.03-2.35,0.71-3.06,3.1-3.07c2.39-0.01,2.82,0.9,2.8,2.99c-0.09,10.53-0.04,21.07-0.05,31.6
			C413.87,266.96,413.76,267.73,413.69,268.69z"/>
		<path class="st0" d="M88.74,264.24c-7.82-0.08-13.33-5.85-13.29-13.92c0.04-8.28,5.58-13.99,13.56-13.95
			c8.02,0.04,13.45,5.74,13.39,14.07C102.35,258.72,96.81,264.32,88.74,264.24z"/>
		<path class="st0" d="M357.41,263.51c-2.93,0.56-3.84-0.76-3.5-3.46c0.14-1.07-0.18-2.22,0.07-3.25c0.37-1.55-1.41-4.04,1.78-4.46
			c4.41-0.58,8.09,1.27,8.83,4.38c0.67,2.81-0.81,5.49-3.62,6.29C359.83,263.34,358.6,263.36,357.41,263.51z"/>
		<path class="st0" d="M353.94,247.31c0-2.9-0.13-5.65,0.09-8.37c0.05-0.67,1.2-1.73,1.9-1.78c3.73-0.29,5.9,1.89,5.74,5.47
			C361.52,246.33,359.12,247.91,353.94,247.31z"/>
		<path class="st0" d="M220.69,237.1c4.67,0.2,7.01,2.33,6.8,5.99c-0.21,3.62-3.59,6.09-7.78,5.47c-0.62-0.09-1.5-1.17-1.55-1.84
			c-0.19-2.36,0.03-4.74-0.11-7.1C217.91,237.41,218.9,236.75,220.69,237.1z"/>
		<path class="st0" d="M285.23,242.63c0-0.2-0.05-0.41,0.01-0.59c0.48-1.68-1.33-4.25,1.67-4.92c3.39-0.76,6.66,1.05,7.56,3.87
			c0.88,2.76-0.3,5.52-2.88,6.71C286.84,249.87,285.23,248.59,285.23,242.63z"/>
	</g>
</g>
</svg>
