<?xml version="1.0" encoding="UTF-8" standalone="no"?><!-- Generator: Gravit.io --><svg xmlns="http://www.w3.org/2000/svg" xmlns:xlink="http://www.w3.org/1999/xlink" style="isolation:isolate" viewBox="0 0 150 150" width="150pt" height="150pt"><defs><clipPath id="_clipPath_TCcgQQkpZDM5gMvQb4EdgSql2Orr1H5O"><rect width="150" height="150"/></clipPath></defs><g clip-path="url(#_clipPath_TCcgQQkpZDM5gMvQb4EdgSql2Orr1H5O)"><path d=" M 46.417 69.138 L 46.417 55.341 C 46.417 52.066 44.393 46.742 38.619 46.742 C 32.845 46.742 31.32 51.441 31.32 51.441 C 31.32 51.441 30.245 46.917 24.821 46.917 C 19.397 46.917 17.797 50.417 17.797 50.417 L 17.797 46.792 L 14.298 46.792 L 14.298 69.288 L 18.372 69.288 L 18.372 55.716 C 18.372 52.991 20.572 50.792 23.296 50.792 C 26.021 50.792 28.22 52.991 28.22 55.716 L 28.22 69.288 L 32.57 69.288 L 32.57 55.716 C 32.57 52.991 34.769 50.792 37.494 50.792 C 40.218 50.792 42.418 52.991 42.418 55.716 L 42.418 69.163 L 46.417 69.138 Z " fill="rgb(61,61,61)"/><path d=" M 106.932 69.138 L 106.932 55.341 C 106.932 52.066 104.908 46.742 99.133 46.742 C 93.359 46.742 91.835 51.441 91.835 51.441 C 91.835 51.441 90.76 46.917 85.336 46.917 C 79.912 46.917 78.312 50.417 78.312 50.417 L 78.312 46.792 L 74.813 46.792 L 74.813 69.288 L 78.887 69.288 L 78.887 55.716 C 78.887 52.991 81.086 50.792 83.811 50.792 C 86.536 50.792 88.735 52.991 88.735 55.716 L 88.735 69.288 L 93.084 69.288 L 93.084 55.716 C 93.084 52.991 95.284 50.792 98.009 50.792 C 100.733 50.792 102.933 52.991 102.933 55.716 L 102.933 69.163 L 106.932 69.138 Z " fill="rgb(61,61,61)"/><path d=" M 71.813 69.263 L 67.789 69.263 L 67.789 65.139 C 65.864 67.789 62.865 69.488 59.54 69.488 C 53.766 69.488 49.067 64.389 49.067 58.115 C 49.067 51.841 53.766 46.742 59.54 46.742 C 62.94 46.742 65.939 48.492 67.864 51.141 L 67.864 46.617 L 71.763 46.617 L 71.813 69.263 Z  M 60.515 50.592 C 56.441 50.592 53.166 53.991 53.166 58.165 C 53.166 62.34 56.441 65.764 60.515 65.764 C 64.589 65.764 67.864 62.365 67.864 58.19 C 67.864 54.016 64.514 50.592 60.515 50.592 Z " fill="rgb(61,61,61)"/><path d=" M 74.038 95.159 L 70.013 95.159 L 70.013 91.035 C 68.089 93.684 65.089 95.384 61.765 95.384 C 55.991 95.384 51.291 90.285 51.291 84.011 C 51.291 77.737 55.991 72.638 61.765 72.638 C 65.164 72.638 68.164 74.388 70.088 77.037 L 70.088 72.513 L 73.988 72.513 L 74.038 95.159 Z  M 62.715 76.487 C 58.64 76.487 55.366 79.887 55.366 84.061 C 55.366 88.235 58.64 91.635 62.715 91.635 C 66.789 91.635 70.063 88.235 70.063 84.061 C 70.063 79.887 66.739 76.487 62.715 76.487 Z " fill="rgb(61,61,61)"/><path d=" M 122.48 95.159 L 118.455 95.159 L 118.455 91.035 C 116.531 93.684 113.531 95.384 110.207 95.384 C 104.433 95.384 99.733 90.285 99.733 84.011 C 99.733 77.737 104.433 72.638 110.207 72.638 C 113.606 72.638 116.606 74.388 118.53 77.037 L 118.53 72.513 L 122.43 72.513 L 122.48 95.159 Z  M 111.131 76.487 C 107.057 76.487 103.783 79.887 103.783 84.061 C 103.783 88.235 107.057 91.635 111.131 91.635 C 115.206 91.635 118.48 88.235 118.48 84.061 C 118.48 79.887 115.206 76.487 111.131 76.487 Z " fill="rgb(61,61,61)"/><path d=" M 132.278 69.263 L 128.254 69.263 L 128.254 65.139 C 126.329 67.789 123.329 69.488 120.005 69.488 C 114.231 69.488 109.532 64.389 109.532 58.115 C 109.532 51.841 114.231 46.742 120.005 46.742 C 123.404 46.742 126.404 48.492 128.329 51.141 L 128.329 46.617 L 132.228 46.617 L 132.278 69.263 Z  M 120.955 50.592 C 116.881 50.592 113.606 53.991 113.606 58.165 C 113.606 62.34 116.881 65.739 120.955 65.739 C 125.029 65.739 128.304 62.34 128.304 58.165 C 128.304 53.991 124.979 50.592 120.955 50.592 Z " fill="rgb(61,61,61)"/><path d=" M 149.25 52.791 L 145.626 52.791 C 145.626 52.791 145.451 50.017 142.301 50.017 C 139.202 50.017 139.252 52.741 139.252 52.741 C 139.252 52.741 138.977 55.241 144.051 56.241 C 149.15 57.265 150 60.315 150 62.74 C 150 65.164 147.8 69.138 142.826 69.138 C 137.802 69.138 134.853 66.089 134.853 62.465 L 138.652 62.465 C 138.652 62.465 139.002 65.964 142.776 65.964 C 146.351 65.964 146.101 62.465 146.101 62.465 C 146.101 62.465 146.376 60.365 141.801 59.015 C 136.877 57.54 135.177 56.366 135.177 52.466 C 135.177 48.517 139.352 46.642 142.701 46.642 C 146.026 46.692 149.25 49.117 149.25 52.791 Z " fill="rgb(61,61,61)"/><path d=" M 139.402 78.762 L 135.777 78.762 C 135.777 78.762 135.602 75.987 132.453 75.987 C 129.353 75.987 129.403 78.712 129.403 78.712 C 129.403 78.712 129.128 81.211 134.203 82.211 C 139.302 83.236 140.152 86.286 140.152 88.71 C 140.152 91.135 137.952 95.109 132.978 95.109 C 127.954 95.109 125.004 92.06 125.004 88.435 L 128.804 88.435 C 128.804 88.435 129.153 91.935 132.928 91.935 C 136.502 91.935 136.252 88.435 136.252 88.435 C 136.252 88.435 136.527 86.336 131.953 84.986 C 127.029 83.511 125.329 82.336 125.329 78.437 C 125.329 74.488 129.503 72.613 132.853 72.613 C 136.177 72.663 139.402 75.087 139.402 78.762 Z " fill="rgb(61,61,61)"/><g><path d=" M 146.876 75.487 C 146.876 77.137 145.626 78.362 143.926 78.362 C 142.276 78.362 140.977 77.112 140.977 75.487 C 140.977 73.913 142.276 72.613 143.926 72.613 C 145.576 72.663 146.876 73.888 146.876 75.487 Z  M 141.726 75.487 C 141.726 76.737 142.676 77.737 143.926 77.737 C 145.176 77.737 146.076 76.712 146.076 75.487 C 146.076 74.263 145.176 73.163 143.876 73.163 C 142.626 73.213 141.726 74.238 141.726 75.487 Z  M 143.476 77.012 L 142.801 77.012 L 142.801 74.138 C 143.076 74.088 143.426 74.013 143.876 74.013 C 144.451 74.013 144.676 74.138 144.901 74.238 C 145.076 74.363 145.176 74.588 145.176 74.863 C 145.176 75.212 144.951 75.437 144.601 75.537 L 144.601 75.587 C 144.876 75.712 145.051 75.937 145.101 76.262 C 145.226 76.712 145.226 76.887 145.326 76.987 L 144.601 76.987 C 144.476 76.862 144.476 76.637 144.376 76.312 C 144.326 75.962 144.151 75.862 143.801 75.862 L 143.451 75.862 L 143.451 77.012 L 143.476 77.012 Z  M 143.476 75.362 L 143.826 75.362 C 144.176 75.362 144.501 75.237 144.501 74.963 C 144.501 74.688 144.326 74.513 143.876 74.513 C 143.701 74.513 143.601 74.513 143.526 74.563 L 143.526 75.362 L 143.476 75.362 L 143.476 75.362 Z " fill="rgb(61,61,61)"/></g><path d=" M 37.994 72.763 C 37.994 72.763 41.443 72.638 43.468 74.238 C 45.442 75.812 48.492 78.587 48.492 84.136 C 48.492 89.685 44.643 95.059 38.944 95.059 L 32.22 95.059 L 32.22 103.383 L 28.37 103.383 L 28.37 72.663 L 37.994 72.763 Z  M 32.245 76.612 L 32.245 91.31 L 38.069 91.31 C 38.069 91.31 44.468 90.91 44.468 83.836 C 44.468 76.662 38.069 76.587 38.069 76.587 L 32.245 76.587 L 32.245 76.612 Z " fill="rgb(61,61,61)"/><path d=" M 86.586 72.763 C 86.586 72.763 90.035 72.638 92.06 74.238 C 94.034 75.812 97.084 78.587 97.084 84.136 C 97.084 89.685 93.234 95.059 87.535 95.059 L 80.812 95.059 L 80.812 103.383 L 76.962 103.383 L 76.962 72.663 L 86.586 72.763 Z  M 80.762 76.612 L 80.762 91.31 L 86.586 91.31 C 86.586 91.31 92.985 90.91 92.985 83.836 C 92.985 76.662 86.586 76.587 86.586 76.587 L 80.762 76.587 L 80.762 76.612 Z " fill="rgb(61,61,61)"/><path d=" M 19.747 81.986 C 19.747 81.986 22.796 75.987 23.196 74.913 C 23.596 73.838 24.096 72.713 24.771 72.713 C 25.346 72.713 25.396 73.338 25.396 73.338 L 25.396 79.387 L 22.621 84.711 L 25.271 87.36 L 25.271 91.885 L 24.371 91.885 L 20.422 87.86 C 20.422 87.86 17.547 95.034 11.198 95.034 C 4.024 95.059 0 90.76 0 84.761 C 0 78.762 7.299 75.087 7.299 75.087 C 7.299 75.087 3.224 72.538 3.224 67.389 C 3.274 60.44 11.148 59.815 11.148 59.815 L 11.148 63.314 C 11.148 63.314 7.024 63.989 7.024 67.439 C 7.024 70.213 10.023 72.588 10.023 72.588 L 19.747 81.986 Z  M 10.073 77.737 C 10.073 77.737 3.849 80.162 3.849 85.086 C 3.849 90.01 9.573 91.485 10.798 91.485 C 12.048 91.485 15.547 91.035 17.697 85.211 L 10.073 77.737 Z " fill="rgb(61,61,61)"/></g></svg>