<?xml version="1.0" encoding="utf-8"?>
<!-- Generator: Adobe Illustrator 24.0.1, SVG Export Plug-In . SVG Version: 6.00 Build 0)  -->
<svg version="1.1" id="Layer_1" xmlns="http://www.w3.org/2000/svg" xmlns:xlink="http://www.w3.org/1999/xlink" x="0px" y="0px"
	 viewBox="0 0 1700 1700" style="enable-background:new 0 0 1700 1700;" width="1700" height="1700" xml:space="preserve">
<style type="text/css">
	.st0{fill:#00ADEF;}
	.st1{fill:#FDFEFD;}
	.st2{fill:#FBFDFD;}
	.st3{fill:#00AEF0;}
	.st4{fill:#01AEF0;}
	.st5{fill:#02AFF0;}
</style>
<g>
	<g>
		<path class="st0" d="M1700,1700c-566.62,0-1133.24,0-1700,0C0,1133.44,0,566.84,0,0c566.57,0,1133.29,0,1700,0
			C1700,566.56,1700,1133.26,1700,1700z"/>
		<path class="st1" d="M765.77,688.63c-3.5,12.58-7.02,25.15-10.51,37.73c-22.87,82.58-45.74,165.17-68.6,247.76
			c-18.39,66.43-36.77,132.87-55.16,199.3c-2.1,7.59-2.14,7.62-10.03,7.63c-38.04,0.02-76.08,0.02-114.13,0
			c-7.76,0-7.76-0.06-9.9-7.79c-37.62-135.91-75.24-271.82-112.85-407.73c-6.71-24.25-13.33-48.53-20.04-72.79
			c-0.44-1.61-0.25-3.68-2.86-4.67c-1.01,3.1-0.57,6.2-0.57,9.21c-0.02,157.43-0.01,314.86-0.05,472.29
			c0,12.5,1.67,11.47-11.24,11.48c-45.91,0.04-91.83,0.02-137.74,0.02c-1.57,0-3.15,0.04-4.72-0.02c-5.9-0.23-5.91-0.24-6.06-6.4
			c-0.04-1.84-0.01-3.67-0.01-5.51c0-209.38-0.01-418.76,0.02-628.14c0-12.9-1.75-11.56,11.91-11.56
			c75.56-0.05,151.11-0.02,226.67-0.02c1.57,0,3.15-0.02,4.72,0.01c6.78,0.11,6.8,0.1,8.47,6.51c4.75,18.26,9.47,36.53,14.19,54.8
			c31.61,122.32,63.22,244.65,94.83,366.97c0.45,1.75,0.46,3.68,2.18,5.23c2.92-1.24,2.44-4.31,3.02-6.52
			c12.47-47.94,24.8-95.92,37.19-143.88c21.64-83.75,43.31-167.49,64.96-251.23c2.03-7.86,3.99-15.74,5.98-23.62
			c2.08-8.23,2.08-8.24,11.1-8.25c42.76,0,85.52,0,128.29,0c33.84,0,67.69-0.01,101.53-0.01c1.84,0,3.67-0.04,5.51,0.02
			c5.75,0.18,5.77,0.2,5.99,5.62c0.07,1.83,0.02,3.67,0.02,5.51c0,209.64,0.01,419.29-0.02,628.93c0,12.83,1.53,11.53-11.14,11.55
			c-45.91,0.05-91.83,0.02-137.74,0.02c-0.52,0-1.05,0-1.57,0c-10.96,0.06-9.37-0.34-9.37-9.41
			c-0.02-157.95-0.02-315.91-0.02-473.86c0-3,0-6,0-9.01C767.28,688.73,766.53,688.68,765.77,688.63z"/>
		<path class="st1" d="M1282.24,734.49c3.53-4.12,6.37-7.47,9.24-10.79c26.03-30.11,58.85-45.53,98.75-45.77
			c17.14-0.11,34.01,1.5,50.46,6.6c29.32,9.11,50.09,27.77,62.34,55.86c7.3,16.74,10.92,34.41,12.81,52.5
			c1.76,16.74,1.63,33.52,1.63,50.31c-0.02,63.23,0.01,126.46-0.02,189.69c0,8.45,1.8,8.86-9,8.85
			c-32.79-0.03-65.59-0.01-98.38-0.01c-1.31,0-2.63-0.08-3.93,0c-3.53,0.23-5.51-1.01-5.13-4.92c0.18-1.82,0.02-3.67,0.02-5.51
			c0-64.8-0.03-129.61,0.03-194.41c0.01-11.37-0.99-22.53-5.11-33.22c-7.4-19.2-21.42-29.18-41.98-29.92
			c-5.53-0.2-11.03,0.3-16.42,1.45c-14.36,3.06-24.49,11.37-30.38,24.87c-3.82,8.76-5.61,18.01-6.68,27.41
			c-1.46,12.78-1.92,25.62-1.91,38.48c0.04,55.1,0.02,110.19,0.02,165.29c0,2.1-0.09,4.2,0,6.3c0.13,3.05-1.38,4.25-4.28,4.16
			c-1.57-0.05-3.15,0.02-4.72,0.02c-32.79,0-65.59,0-98.38,0c-0.26,0-0.52,0-0.79,0c-8.3-0.05-8.3-0.05-8.36-8.01
			c-0.01-1.57,0-3.15,0-4.72c0-63.23,0-126.46,0-189.69c0-12.39-1.2-24.63-5.16-36.45c-2.35-7.02-5.68-13.52-11.11-18.78
			c-2.67-2.59-5.63-4.7-8.94-6.34c-23.98-11.88-57.16-0.21-68.55,23.99c-4.76,10.11-6.97,20.88-8.35,31.81
			c-1.44,11.45-2.02,22.97-2,34.54c0.09,54.05,0.04,108.09,0.04,162.14c0,1.84,0.05,3.67-0.01,5.51c-0.17,5.71-0.19,5.72-5.67,5.98
			c-1.31,0.06-2.62,0.02-3.93,0.02c-32.53,0-65.06,0-97.59,0c-2.1,0-4.2-0.03-6.29-0.12c-1.85-0.08-2.85-1.18-2.95-2.98
			c-0.11-2.09-0.1-4.2-0.1-6.29c-0.01-111.5-0.02-222.99,0.01-334.49c0-9.61-1.46-9.5,9.19-9.49c31.48,0.01,62.96,0,94.44,0
			c0.79,0,1.57-0.01,2.36,0c7.03,0.14,7.12,0.14,7.16,6.93c0.07,11.54,0,23.09,0.04,34.63c0.01,1.7-0.49,3.55,0.62,5.1
			c2.53-0.39,3.01-2.39,4-3.79c28.55-40.26,67.73-57.07,116.42-52.63c15.23,1.39,30.02,4.71,43.85,11.61
			c15.93,7.95,28.47,19.5,37.41,34.91C1278.52,727.81,1280.02,730.56,1282.24,734.49z"/>
		<path class="st1" d="M1270.85,644.82c-0.62,0.08-1.28-0.04-1.57,0.24c-25.44,24.56-65.57,14.63-76.48-19.01
			c-4.73-14.59-5-29.44-1.15-44.21c7.21-27.65,32.74-41.07,59.98-31.94c6.8,2.28,12.45,6.23,17.94,11.88
			c1.25-3.24,0.76-5.83,0.77-8.31c0.05-12.32-0.02-24.64,0.04-36.96c0.03-6.33,0.12-6.36,6.63-6.46c3.93-0.06,7.86,0.07,11.79-0.04
			c3.25-0.09,4.94,1.16,4.7,4.59c-0.11,1.56-0.01,3.14-0.01,4.72c0,42.2,0,84.41,0,126.61c0,1.57-0.08,3.15,0,4.72
			c0.14,2.97-1.2,4.37-4.19,4.26c-1.83-0.07-3.67,0.09-5.5-0.01c-3.63-0.21-7.66,1.17-10.79-0.82
			C1269.89,652.08,1272.99,647.6,1270.85,644.82z"/>
		<path class="st1" d="M961.44,1129.07c0-15.47-0.05-30.94,0.03-46.41c0.03-5.59,0.18-5.74,5.76-5.78
			c13.9-0.09,27.8-0.16,41.69,0.04c6.57,0.09,13.04,1.35,19.19,3.8c12.68,5.04,21.53,13.91,25.71,26.93
			c4.71,14.66,4.56,29.43-0.52,44.02c-5.17,14.87-15.93,23.63-30.9,27.49c-5.08,1.31-10.3,1.92-15.58,1.91
			c-12.59-0.03-25.17,0.02-37.76-0.02c-7.57-0.03-7.61-0.08-7.62-7.92C961.42,1158.44,961.44,1143.76,961.44,1129.07z"/>
		<path class="st1" d="M1192.78,1132.82c10.4,5.64,13.38,13.88,14.27,23.05c0.78,8.07,1.38,16.14,3.48,24.64
			c-7.59,0.94-14.89,0.47-22.17,0.45c-2.86-0.01-4.28-1.69-4.68-4.33c-0.58-3.88-1.2-7.77-1.54-11.68c-0.27-3.14-0.5-6.26-1.34-9.32
			c-2.26-8.24-6.06-11.33-14.52-11.51c-5.24-0.11-10.49,0.13-15.73-0.06c-3.66-0.13-5.2,1.21-5.13,4.96
			c0.15,7.86,0.05,15.73,0.03,23.6c-0.02,8.37-0.04,8.39-8.75,8.42c-4.72,0.01-9.44-0.08-14.16-0.07c-2.57,0.01-3.92-1.09-3.86-3.74
			c0.03-1.57-0.03-3.15-0.03-4.72c0-28.83-0.01-57.66-0.01-86.49c0-1.05-0.03-2.1,0.01-3.15c0.2-5.87,0.21-5.98,6.37-6.01
			c15.73-0.07,31.46-0.06,47.2,0c6.07,0.02,12,1.04,17.7,3.17c19.89,7.43,25.33,32.52,10.38,47.72
			C1198.47,1129.6,1196.62,1131.41,1192.78,1132.82z"/>
		<path class="st1" d="M1031.32,646.84c-11.21,8.58-23.61,11.85-37.11,11.43c-4.5-0.14-8.85-1.03-13.04-2.6
			c-13.07-4.88-19.92-15-19.71-28.99c0.21-14.23,7.1-23.89,20.57-28.31c9-2.96,18.46-3.62,27.76-5.11
			c4.14-0.66,8.33-1.12,12.37-2.16c5.97-1.53,8.86-4.96,9.36-10.24c0.52-5.57-1.87-10.35-7.26-12.75c-9.07-4.03-18.33-3.9-27.36,0.3
			c-4.28,2-6.84,5.66-8.05,10.15c-0.74,2.73-2.23,3.81-5.05,3.72c-4.71-0.15-9.43-0.12-14.15-0.02c-3.53,0.07-4.6-1.45-3.97-4.86
			c1.76-9.48,5.91-17.7,14.47-22.35c19.2-10.44,39.12-10.97,58.81-1.52c9.83,4.72,14.21,13.57,14.25,24.44
			c0.06,16.51,0.04,33.02,0.05,49.53c0,1.83-0.08,3.68,0.06,5.5c0.39,5.21,1.29,6.78,6.34,7.12c4.14,0.28,4.48,2.19,4.57,5.46
			c0.31,10.67-0.64,11.81-11.61,12.57C1041.83,658.89,1037.58,656.75,1031.32,646.84z"/>
		<path class="st1" d="M1222.78,1129.35c0-15.47-0.06-30.94,0.02-46.41c0.03-5.94,0.17-6.07,6.25-6.09
			c23.6-0.06,47.19-0.06,70.79,0.01c5.61,0.02,5.84,0.18,5.78,5.71c-0.05,4.93,2.08,10.94-1.03,14.51
			c-3.26,3.74-9.39,1.26-14.24,1.37c-11.27,0.26-22.55,0.03-33.82,0.11c-6.72,0.04-6.91,0.13-6.86,6.37
			c0.11,14.71-1.97,12.42,12.31,12.58c11.01,0.12,22.03-0.04,33.04,0.06c5.52,0.05,5.75,0.18,5.69,5.81
			c-0.19,18.49,2.48,14.95-14.39,15.27c-10.22,0.2-20.45-0.04-30.67,0.07c-5.79,0.06-5.99,0.2-5.97,5.57
			c0.08,15.57-1.96,13.27,13.23,13.42c12.58,0.13,25.17-0.04,37.75,0.07c6.14,0.05,6.2,0.2,6.36,6.13c0.11,3.93-0.17,7.88,0.06,11.8
			c0.26,4.24-1.78,5.38-5.62,5.37c-24.38-0.08-48.77,0.01-73.15-0.07c-5.34-0.02-5.48-0.24-5.51-6.03
			C1222.73,1159.77,1222.78,1144.56,1222.78,1129.35z"/>
		<path class="st1" d="M1406.77,1114.39c-1.84,0-3.68-0.13-5.5,0.03c-4.53,0.39-7.26-0.62-9.63-5.52
			c-6.59-13.64-29.39-14.26-37.67-1.01c-8.31,13.3-8.16,27.51-0.74,41.18c4.44,8.18,12.42,11.06,21.42,10.38
			c8.91-0.67,15.55-5.06,17.89-14c1.02-3.91,2.83-5.07,6.51-4.95c5.5,0.17,11.02-0.07,16.52,0.09c4.44,0.13,4.95,0.73,4.22,5.27
			c-2.17,13.45-8.69,24.06-20.9,30.65c-23.86,12.89-54.03,5.89-68.54-15.73c-14.96-22.29-12.31-61.27,14.93-78.11
			c20.11-12.43,49.21-9.11,65.19,7.92c4.61,4.91,7.65,10.61,9.09,17.16c1.27,5.78,0.78,6.43-4.93,6.61
			c-2.62,0.09-5.24,0.01-7.87,0.01C1406.77,1114.37,1406.77,1114.38,1406.77,1114.39z"/>
		<path class="st1" d="M1101.96,562.83c3.14-0.81,4.15-3.14,5.76-4.7c12.46-12.14,33.95-14.63,48.89-5.63
			c9.35,5.63,14.24,14.37,14.5,24.77c0.6,24.39,0.21,48.8,0.34,73.19c0.02,3.59-1.72,4.47-4.85,4.38
			c-4.19-0.12-8.41-0.23-12.59,0.04c-4.18,0.27-5.39-1.5-5.36-5.48c0.14-18.63,0.05-37.26,0.07-55.89c0-4.21-0.19-8.37-1.02-12.52
			c-2.07-10.32-8.2-16.56-21.81-15.49c-11.03,0.87-18.19,7.26-21.66,17.82c-1.42,4.32-1.58,8.74-1.58,13.21
			c0.01,17.32,0.04,34.63-0.02,51.95c-0.02,6.15-0.14,6.41-5.97,6.26c-5.4-0.14-12.19,2.42-15.82-1.36
			c-3.29-3.43-1-10.03-1.02-15.21c-0.11-26.24-0.07-52.48-0.04-78.72c0.01-9.31-1.04-8.71,9.05-8.73
			C1100.93,550.71,1100.93,550.71,1101.96,562.83z"/>
		<path class="st1" d="M1472.93,1076.84c12.85,0,25.7-0.07,38.55,0.04c5.55,0.04,5.6,0.2,5.73,5.81c0.1,4.19-0.12,8.4,0.05,12.59
			c0.15,3.8-1.6,5.07-5.2,4.99c-6.55-0.14-13.11-0.12-19.67,0c-6.05,0.11-6.21,0.22-6.23,6.25c-0.07,22.03-0.02,44.07-0.03,66.1
			c-0.01,8.36-0.04,8.37-8.7,8.43c-3.41,0.02-6.82,0.03-10.23,0c-7.86-0.09-7.91-0.1-7.93-7.66c-0.03-14.69-0.01-29.38-0.01-44.07
			c0-7.87-0.14-15.74,0.05-23.61c0.1-4.01-1.27-5.67-5.41-5.53c-6.81,0.23-13.64-0.07-20.45,0.09c-3.73,0.08-5.22-1.46-5.09-5.13
			c0.15-4.45,0.16-8.92,0-13.37c-0.14-3.81,1.63-5,5.23-4.97C1446.7,1076.91,1459.82,1076.84,1472.93,1076.84z"/>
		<path class="st2" d="M1099.61,1129.26c0,15.17,0.06,30.35-0.03,45.52c-0.03,6.03-0.18,6.12-6.18,6.24
			c-5.49,0.11-10.99-0.03-16.48,0.01c-2.9,0.02-4.37-1.22-4.27-4.21c0.05-1.57-0.03-3.14-0.03-4.71c0-28.78,0-57.56,0-86.34
			c0-1.31,0.1-2.62,0-3.92c-0.28-3.63,1.16-5.25,4.98-5.07c4.96,0.23,9.94,0.01,14.91,0.06c6.94,0.07,7.05,0.1,7.08,6.9
			C1099.66,1098.91,1099.61,1114.09,1099.61,1129.26z"/>
		<path class="st3" d="M1270.99,604.18c-0.08,6.17-1.18,14.12-5.25,21.44c-5.31,9.55-13.48,14.6-24.28,14.56
			c-10.75-0.04-19.4-4.76-24.17-14.63c-7.83-16.2-7.44-32.69,1.78-48.04c10.16-16.92,35.69-16.26,46.1,0.57
			C1269.74,585.48,1270.95,593.69,1270.99,604.18z"/>
		<path class="st4" d="M988.31,1128.56c0-7.59,0.14-15.19-0.05-22.78c-0.1-4,1.33-5.75,5.45-5.58c6,0.25,12.02-0.29,17.96,1.27
			c9.86,2.59,15.76,8.81,17.79,18.77c1.33,6.53,0.95,13.01-0.4,19.48c-1.92,9.23-7.74,14.62-16.68,16.75
			c-6.42,1.53-12.99,1.33-19.54,1.26c-3.31-0.03-4.63-1.51-4.58-4.82C988.39,1144.79,988.31,1136.68,988.31,1128.56z"/>
		<path class="st5" d="M1160.32,1122.72c-3.67,0-7.34,0-11.01,0c-2.56,0-3.85-1.23-3.83-3.85c0.03-5.51,0.01-11.01,0.02-16.52
			c0.01-2.6,1.37-3.79,3.93-3.76c7.08,0.07,14.19-0.32,21.21,0.31c7.23,0.65,11.26,5.52,11.06,11.94
			c-0.22,7.29-4.2,11.33-11.94,11.85C1166.63,1122.9,1163.47,1122.72,1160.32,1122.72z"/>
		<path class="st4" d="M1029.9,603.73c0.57,7.13,0.85,13.61-0.13,20c-0.74,4.82-3.51,8.73-7.75,11.36
			c-9.04,5.62-18.6,6.73-28.56,2.89c-4.91-1.9-8.67-5.05-8.94-10.82c-0.28-5.91,1.74-10.83,6.83-14.15
			c3.35-2.18,7.17-3.23,11.07-3.84C1011.38,607.78,1020.48,607.12,1029.9,603.73z"/>
	</g>
</g>
</svg>
