<?xml version="1.0" encoding="UTF-8" standalone="no"?><!-- Generator: Gravit.io --><svg xmlns="http://www.w3.org/2000/svg" xmlns:xlink="http://www.w3.org/1999/xlink" style="isolation:isolate" viewBox="0 0 150 150" width="150pt" height="150pt"><defs><clipPath id="_clipPath_Kpo2arVuydLY8AhAhRiqxUADosncvcbi"><rect width="150" height="150"/></clipPath></defs><g clip-path="url(#_clipPath_Kpo2arVuydLY8AhAhRiqxUADosncvcbi)"><path d=" M 49.827 30.893 L 49.827 85.853 L 44.776 85.853 L 44.776 40.967 L 26.702 76.078 L 23.153 76.078 L 5.051 41.049 L 5.051 85.853 L 0 85.853 L 0 30.893 L 5.269 30.893 L 24.954 68.843 L 44.64 30.893 L 49.827 30.893 Z  M 103.313 86.645 L 94.166 76.87 C 90.863 82.058 86.358 85.853 78.959 85.853 C 69.43 85.853 62.414 79.246 62.414 71.137 C 62.414 64.366 66.591 60.188 74.618 55.629 C 70.058 51.069 67.519 47.274 67.519 42.797 C 67.519 36.271 73.034 31.057 79.723 31.057 C 86.822 31.057 92.091 36.244 92.091 42.797 C 92.091 49.104 87.122 53.335 82.181 56.584 L 93.511 68.952 L 100.2 58.086 L 104.214 60.598 L 96.815 72.638 L 106.971 83.423 L 103.313 86.645 Z  M 77.785 59.069 C 70.632 63.001 67.465 66.168 67.465 71.027 C 67.465 76.624 72.515 81.266 78.959 81.266 C 84.774 81.266 87.778 78.59 90.999 73.403 L 77.785 59.069 Z  M 72.515 42.769 C 72.515 45.827 74.563 48.448 79.041 53.254 C 84.31 50.168 87.232 46.947 87.232 42.769 C 87.232 38.674 84.474 35.452 79.751 35.452 C 75.355 35.452 72.515 38.92 72.515 42.769 Z  M 149.59 42.633 L 145.031 44.298 C 143.229 38.537 138.096 34.824 131.161 34.824 C 123.598 34.824 118.657 38.592 118.657 44.981 C 118.657 58.687 150 51.424 150 70.727 C 150 79.928 142.601 86.399 131.571 86.399 C 121.332 86.399 115.189 81.512 110.957 73.73 L 115.217 71.137 C 118.056 77.116 123.244 81.757 131.134 81.757 C 140.253 81.757 145.004 77.58 145.004 70.645 C 145.004 56.857 113.66 63.629 113.66 44.899 C 113.66 33.787 123.653 30.183 131.052 30.183 C 139.352 30.183 146.915 33.951 149.59 42.633 Z " fill="rgb(29,29,27)"/><path d=" M 36.094 114.493 L 41.445 114.493 L 41.445 113.073 L 36.094 113.073 L 36.094 109.524 L 41.827 109.524 L 41.827 108.077 L 34.592 108.077 L 34.592 119.571 L 42.155 119.571 L 42.155 118.152 L 36.094 118.152 L 36.094 114.493 Z " fill="rgb(29,29,27)"/><path d=" M 49.854 113.019 L 49.8 112.991 C 48.162 112.527 47.261 112.2 47.261 111.135 C 47.261 110.07 48.162 109.388 49.554 109.388 C 50.701 109.388 51.574 109.852 51.957 110.725 L 52.12 111.08 L 53.349 110.37 L 53.24 110.097 C 52.421 108.132 50.264 107.995 49.609 107.995 C 48.189 107.995 45.814 108.678 45.814 111.189 C 45.814 113.401 47.779 113.974 49.527 114.493 C 51.247 114.985 52.202 115.339 52.202 116.459 C 52.202 117.633 51.192 118.397 49.609 118.397 C 48.162 118.397 47.097 117.769 46.523 116.568 L 46.36 116.213 L 45.104 116.95 L 45.24 117.251 C 46.059 118.889 47.588 119.817 49.554 119.817 C 51.957 119.817 53.649 118.397 53.649 116.377 C 53.622 114.111 51.547 113.51 49.854 113.019 Z " fill="rgb(29,29,27)"/><path d=" M 56.243 109.524 L 59.738 109.524 L 59.738 119.571 L 61.24 119.571 L 61.24 109.524 L 64.734 109.524 L 64.734 108.077 L 56.243 108.077 L 56.243 109.524 Z " fill="rgb(29,29,27)"/><path d=" M 68.666 117.797 C 68.147 117.797 67.683 118.234 67.683 118.752 C 67.683 119.271 68.12 119.735 68.666 119.735 C 69.185 119.735 69.649 119.298 69.649 118.752 C 69.621 118.234 69.185 117.797 68.666 117.797 Z " fill="rgb(29,29,27)"/><path d=" M 77.239 109.988 L 78.959 109.988 L 78.959 119.571 L 80.461 119.571 L 80.461 108.541 L 77.266 108.541 L 77.239 109.988 Z " fill="rgb(29,29,27)"/><path d=" M 113.524 108.541 L 112.677 108.541 L 107.299 115.995 L 107.299 117.005 L 112.896 117.005 L 112.896 119.599 L 114.343 119.599 L 114.343 117.005 L 115.763 117.005 L 115.763 115.749 L 114.343 115.612 L 114.343 108.541 L 113.578 108.541 M 109.319 115.558 L 112.923 110.589 L 112.923 115.558 L 109.319 115.558 Z " fill="rgb(29,29,27)"/><path d=" M 90.835 113.756 C 91.791 113.237 92.364 112.445 92.364 111.326 C 92.364 109.333 90.754 108.35 88.815 108.35 C 86.849 108.35 85.266 109.36 85.266 111.326 C 85.266 112.445 85.812 113.237 86.767 113.756 C 85.757 114.22 84.911 115.066 84.911 116.35 C 84.911 118.315 86.331 119.653 88.815 119.653 C 91.3 119.653 92.719 118.261 92.719 116.35 C 92.692 115.066 91.846 114.247 90.835 113.756 Z  M 86.631 111.408 C 86.631 110.234 87.395 109.551 88.815 109.551 C 90.207 109.551 90.999 110.234 90.999 111.408 C 90.999 112.582 89.907 113.183 88.815 113.183 C 87.614 113.183 86.631 112.5 86.631 111.408 Z  M 88.788 118.479 C 87.395 118.479 86.331 117.797 86.331 116.377 C 86.331 115.039 87.505 114.384 88.788 114.384 C 90.071 114.384 91.245 115.039 91.245 116.377 C 91.245 117.797 90.18 118.479 88.788 118.479 Z " fill="rgb(29,29,27)"/><path d=" M 101.811 113.756 C 102.767 113.237 103.34 112.445 103.34 111.326 C 103.34 109.333 101.729 108.35 99.791 108.35 C 97.825 108.35 96.241 109.36 96.241 111.326 C 96.241 112.445 96.787 113.237 97.743 113.756 C 96.733 114.22 95.886 115.066 95.886 116.35 C 95.886 118.315 97.306 119.653 99.791 119.653 C 102.275 119.653 103.695 118.261 103.695 116.35 C 103.668 115.066 102.849 114.247 101.811 113.756 Z  M 97.606 111.408 C 97.606 110.234 98.398 109.551 99.791 109.551 C 101.183 109.551 101.975 110.234 101.975 111.408 C 101.975 112.582 100.883 113.183 99.791 113.183 C 98.589 113.183 97.606 112.5 97.606 111.408 Z  M 99.763 118.479 C 98.371 118.479 97.306 117.797 97.306 116.377 C 97.306 115.039 98.48 114.384 99.763 114.384 C 101.047 114.384 102.221 115.039 102.221 116.377 C 102.248 117.797 101.156 118.479 99.763 118.479 Z " fill="rgb(29,29,27)"/></g></svg>