<?xml version="1.0" encoding="UTF-8" standalone="no"?><!-- Generator: Gravit.io --><svg xmlns="http://www.w3.org/2000/svg" xmlns:xlink="http://www.w3.org/1999/xlink" style="isolation:isolate" viewBox="0 0 150 150" width="150pt" height="150pt"><defs><clipPath id="_clipPath_cQZs9YxdsQY9nOPdWK7PnU3YYIM7woqj"><rect width="150" height="150"/></clipPath></defs><g clip-path="url(#_clipPath_cQZs9YxdsQY9nOPdWK7PnU3YYIM7woqj)"><path d=" M 0 106.025 L 150 106.025 L 150 43.975 L 0 43.975 L 0 106.025 Z " fill="rgb(173,30,31)"/><path d=" M 7.275 104.425 L 7.275 100.55 C 7.275 100.275 7.05 100.075 6.8 100.075 C 6.525 100.075 6.325 100.3 6.325 100.55 L 6.325 104.425 C 6.325 104.7 6.55 104.9 6.8 104.9 C 7.05 104.9 7.275 104.7 7.275 104.425 Z  M 7.275 96.65 L 7.275 92.775 C 7.275 92.5 7.05 92.3 6.8 92.3 C 6.525 92.3 6.325 92.525 6.325 92.775 L 6.325 96.65 C 6.325 96.925 6.55 97.125 6.8 97.125 C 7.05 97.15 7.275 96.925 7.275 96.65 Z  M 7.275 88.9 L 7.275 85.025 C 7.275 84.75 7.05 84.55 6.8 84.55 C 6.525 84.55 6.325 84.775 6.325 85.025 L 6.325 85.025 L 6.325 88.9 C 6.325 89.175 6.55 89.375 6.8 89.375 C 7.05 89.4 7.275 89.175 7.275 88.9 Z  M 7.275 81.15 L 7.275 77.275 C 7.275 77 7.05 76.8 6.8 76.8 C 6.525 76.8 6.325 77.025 6.325 77.275 L 6.325 81.15 C 6.325 81.425 6.55 81.625 6.8 81.625 C 7.05 81.625 7.275 81.4 7.275 81.15 L 7.275 81.15 Z  M 7.275 73.375 L 7.275 69.5 C 7.275 69.225 7.05 69.025 6.8 69.025 C 6.525 69.025 6.325 69.25 6.325 69.5 L 6.325 73.375 C 6.325 73.65 6.55 73.85 6.8 73.85 C 7.05 73.875 7.275 73.65 7.275 73.375 Z  M 7.275 65.625 L 7.275 61.75 C 7.275 61.475 7.05 61.275 6.8 61.275 C 6.525 61.275 6.325 61.5 6.325 61.75 L 6.325 61.75 L 6.325 65.625 C 6.325 65.9 6.55 66.1 6.8 66.1 C 7.05 66.1 7.275 65.9 7.275 65.625 Z  M 7.275 57.875 L 7.275 54 C 7.275 53.725 7.05 53.525 6.8 53.525 C 6.525 53.525 6.325 53.75 6.325 54 L 6.325 57.875 C 6.325 58.15 6.55 58.35 6.8 58.35 C 7.05 58.35 7.275 58.125 7.275 57.875 Z  M 7.275 50.1 L 7.275 46.225 C 7.275 45.95 7.05 45.75 6.8 45.75 C 6.525 45.75 6.325 45.975 6.325 46.225 L 6.325 46.225 L 6.325 50.1 C 6.325 50.375 6.55 50.575 6.8 50.575 C 7.05 50.6 7.275 50.375 7.275 50.1 Z " fill="rgb(255,255,255)"/><path d=" M 119.325 85.1 L 117.175 88.025 L 115.025 85.1 L 114.4 85.1 L 116.9 88.55 L 116.9 90.45 L 117.475 90.45 L 117.475 88.55 L 119.975 85.125 L 119.325 85.1 Z  M 113.1 87.725 C 113.1 89.025 112.175 89.875 110.8 89.875 L 109.2 89.875 L 109.2 85.65 L 110.8 85.65 C 112.175 85.65 113.1 86.475 113.1 87.725 Z  M 110.875 85.1 L 108.625 85.1 L 108.625 90.45 L 110.875 90.45 C 112.5 90.45 113.7 89.3 113.7 87.75 C 113.7 86.2 112.5 85.1 110.875 85.1 Z  M 105.225 88.225 L 102.875 88.225 L 104.05 85.9 L 105.225 88.225 Z  M 104.4 85.1 L 103.85 85.1 L 101.15 90.425 L 101.825 90.425 L 102.675 88.75 L 105.55 88.75 L 106.4 90.425 L 107.075 90.425 L 104.4 85.1 L 104.4 85.1 Z  M 99.975 85.625 L 99.975 85.1 L 95.925 85.1 L 95.925 90.425 L 99.975 90.425 L 99.975 89.9 L 96.5 89.9 L 96.5 88.025 L 99.6 88.025 L 99.6 87.5 L 96.5 87.5 L 96.5 85.625 L 99.975 85.625 Z  M 93.175 86.8 C 93.175 87.5 92.6 87.95 91.725 87.95 L 89.975 87.95 L 89.975 85.625 L 91.725 85.625 C 92.575 85.65 93.175 86.125 93.175 86.8 Z  M 92.375 88.45 L 92.375 88.45 C 93.25 88.25 93.75 87.625 93.75 86.8 C 93.75 85.75 92.95 85.1 91.7 85.1 L 89.35 85.1 L 89.35 90.45 L 89.925 90.45 L 89.925 88.525 L 91.675 88.525 L 93.375 90.45 L 94.125 90.45 L 92.375 88.45 Z  M 83.225 85.625 L 83.225 85.1 L 79.175 85.1 L 79.175 90.425 L 83.225 90.425 L 83.225 89.9 L 79.75 89.9 L 79.75 88.025 L 82.85 88.025 L 82.85 87.5 L 79.75 87.5 L 79.75 85.625 L 83.225 85.625 Z  M 73.525 85.1 L 73.525 90.425 L 74.1 90.425 L 74.1 88.125 L 77.25 88.125 L 77.25 87.6 L 74.1 87.6 L 74.1 85.6 L 77.575 85.6 L 77.575 85.075 L 73.525 85.1 Z  M 70.525 90.425 L 71.1 90.425 L 71.1 85.1 L 70.525 85.1 L 70.525 90.425 Z  M 65 85.1 L 65 90.425 L 68.825 90.425 L 68.825 89.9 L 65.575 89.9 L 65.575 85.1 L 65 85.1 Z  M 55.875 85.1 L 55.875 90.425 L 59.7 90.425 L 59.7 89.9 L 56.45 89.9 L 56.45 85.1 L 55.875 85.1 Z  M 51.075 85.1 L 48.375 90.425 L 49.05 90.425 L 49.9 88.75 L 52.775 88.75 L 53.625 90.425 L 54.3 90.425 L 51.6 85.1 L 51.075 85.1 L 51.075 85.1 Z  M 51.35 85.9 L 52.525 88.225 L 50.175 88.225 C 50.175 88.225 51.35 85.9 51.35 85.9 Z  M 43.125 85.1 L 43.125 90.425 L 47.175 90.425 L 47.175 89.9 L 43.7 89.9 L 43.7 88.025 L 46.8 88.025 L 46.8 87.5 L 43.7 87.5 L 43.7 85.625 L 47.175 85.625 L 47.175 85.1 L 43.125 85.1 Z  M 40.45 86.8 C 40.45 87.5 39.875 87.95 39 87.95 L 37.225 87.95 L 37.225 85.625 L 39 85.625 C 39.85 85.65 40.45 86.125 40.45 86.8 L 40.45 86.8 Z  M 39.65 88.45 L 39.65 88.45 C 40.525 88.25 41.025 87.625 41.025 86.8 C 41.025 85.75 40.225 85.1 38.975 85.1 L 36.625 85.1 L 36.625 90.45 L 37.2 90.45 L 37.2 88.525 L 38.95 88.525 L 40.65 90.45 L 41.4 90.45 L 39.65 88.45 L 39.65 88.45 Z  M 131.175 60.225 L 131.175 73.15 L 119.65 60.225 L 117.925 60.225 L 117.925 75.375 L 119.45 75.375 L 119.45 62.45 L 130.925 75.325 L 130.975 75.375 L 132.725 75.375 L 132.725 60.225 L 131.175 60.225 Z  M 111.3 69.175 L 104.4 69.175 L 107.85 62.325 L 111.3 69.175 L 111.3 69.175 Z  M 108.65 60.3 L 108.6 60.225 L 107.075 60.225 L 99.425 75.375 L 101.225 75.375 L 103.675 70.55 L 112 70.55 L 114.45 75.375 L 116.25 75.375 L 108.65 60.3 L 108.65 60.3 Z  M 88.5 74 L 88.5 60.225 L 86.975 60.225 L 86.975 75.375 L 97.775 75.375 L 97.775 74 L 88.5 74 Z  M 80.35 69.175 L 73.45 69.175 L 76.9 62.325 L 80.35 69.175 Z  M 77.7 60.3 L 77.65 60.225 L 76.125 60.225 L 68.475 75.375 L 70.275 75.375 L 72.725 70.55 L 81.025 70.55 L 83.475 75.375 L 85.275 75.375 C 85.325 75.375 77.7 60.3 77.7 60.3 Z  M 59.125 60.225 L 59.125 61.6 L 64.475 61.6 L 64.475 75.375 L 66 75.375 L 66 61.6 L 71.35 61.6 L 71.35 60.225 L 59.125 60.225 Z  M 57 69.175 L 50.1 69.175 L 53.55 62.325 L 57 69.175 L 57 69.175 Z  M 54.4 60.375 L 54.325 60.225 L 52.8 60.225 L 45.15 75.375 L 46.95 75.375 L 49.4 70.55 L 57.7 70.55 L 60.15 75.375 L 61.95 75.375 L 54.4 60.375 L 54.4 60.375 Z  M 41.45 60.225 L 39.575 60.225 L 33.725 73.1 L 27.875 60.225 L 26 60.225 L 23.95 75.375 L 25.575 75.375 L 27.275 62.7 L 33.025 75.375 L 34.45 75.375 L 40.2 62.7 L 41.9 75.375 L 43.525 75.375 L 41.45 60.225 Z " fill="rgb(254,254,254)"/></g></svg>