<?xml version="1.0" encoding="UTF-8" standalone="no"?><!-- Generator: Gravit.io --><svg xmlns="http://www.w3.org/2000/svg" xmlns:xlink="http://www.w3.org/1999/xlink" style="isolation:isolate" viewBox="0 0 173 173" width="173" height="173"><defs><clipPath id="_clipPath_Kq3eMYuDrZwEmgNOrVUkbcW4wHq1uk78"><rect width="173" height="173"/></clipPath></defs><g clip-path="url(#_clipPath_Kq3eMYuDrZwEmgNOrVUkbcW4wHq1uk78)"><g><path d=" M 19.24 63.004 L 14.724 76.88 L 0 76.88 L 11.886 85.462 L 7.422 99.407 L 19.24 90.825 L 31.109 99.407 L 26.593 85.462 L 38.41 76.88 L 23.755 76.88 L 19.24 63.004 Z " fill="rgb(226,33,48)"/><g><path d=" M 79.726 75.652 C 78.827 74.752 77.858 74.095 76.629 73.714 C 75.47 73.264 74.103 73.074 72.633 73.074 C 71.145 73.074 69.795 73.333 68.428 73.922 C 67.079 74.51 65.972 75.34 65.072 76.24 L 65.003 76.309 C 64.553 76.828 64.155 77.347 63.843 77.918 C 63.584 78.437 63.324 78.887 63.203 79.268 C 63.082 79.008 62.875 78.558 62.615 78.109 C 62.165 77.261 61.767 76.621 61.456 76.361 C 60.556 75.323 59.518 74.614 58.168 74.043 C 56.819 73.454 55.4 73.195 53.774 73.195 C 52.736 73.195 51.248 73.316 49.639 74.095 C 47.77 74.994 46.213 76.413 45.123 78.489 L 45.123 73.852 L 43.635 73.852 L 43.635 99.736 L 45.123 99.736 L 45.123 85.012 C 45.123 83.334 45.313 81.915 45.711 80.617 C 46.092 79.32 46.68 78.351 47.459 77.382 C 48.099 76.482 49.068 75.773 50.175 75.323 C 51.265 74.804 52.442 74.544 53.653 74.614 C 55.141 74.683 56.421 74.942 57.598 75.461 C 58.688 75.981 59.605 76.759 60.366 77.659 C 61.006 78.558 61.456 79.337 61.715 80.237 C 62.096 81.327 62.234 82.624 62.234 84.441 L 62.234 99.684 L 63.722 99.684 L 63.722 85.099 C 63.722 83.299 63.792 81.811 64.103 80.583 C 64.432 79.424 64.882 78.524 65.781 77.347 C 66.56 76.309 67.529 75.6 68.878 75.081 C 69.968 74.7 71.197 74.441 72.356 74.441 C 73.654 74.441 74.744 74.631 75.782 75.029 C 76.82 75.427 77.581 75.998 78.308 76.707 C 79.207 77.607 79.865 78.714 80.245 80.133 C 80.695 81.552 80.886 83.161 80.886 85.168 L 80.886 99.684 L 82.374 99.684 L 82.633 85.099 C 82.633 82.97 82.374 81.102 81.855 79.545 C 81.405 77.988 80.747 76.621 79.726 75.652 Z " fill="rgb(35,31,32)"/><path d=" M 109.088 80.427 C 108.309 78.628 106.821 76.811 104.883 75.513 C 102.617 73.956 99.918 73.195 97.08 73.195 C 91.924 73.195 88.758 75.513 86.941 77.52 C 84.744 79.977 83.464 83.334 83.464 86.76 C 83.464 90.185 84.761 93.542 86.941 95.999 C 88.689 97.936 91.907 100.324 97.08 100.324 C 99.727 100.324 102.115 99.684 104.243 98.456 C 106.25 97.158 107.859 95.48 109.088 93.23 L 109.088 99.753 L 110.575 99.753 L 110.575 73.922 L 109.088 73.922 L 109.088 80.427 Z  M 108.257 81.915 C 108.517 82.624 108.776 83.334 108.897 84.043 C 109.088 84.822 109.157 85.652 109.157 86.362 C 109.226 87.209 109.157 87.971 109.036 88.68 C 108.914 89.528 108.707 90.237 108.447 90.877 C 107.6 93.265 106.129 95.324 104.122 96.691 C 102.184 98.109 99.727 98.819 97.219 98.819 C 93.481 98.819 90.384 97.469 88.118 95.012 C 86.18 92.815 84.952 89.787 84.952 86.621 C 84.952 83.195 86.249 80.168 88.429 77.901 C 90.696 75.704 93.724 74.423 97.08 74.423 C 99.537 74.423 101.925 75.133 103.862 76.361 C 105.869 77.849 107.409 79.718 108.257 81.915 Z  M 109.295 81.396 L 109.295 81.396 L 109.295 81.396 L 109.295 81.396 Z " fill="rgb(35,31,32)"/><path d=" M 116.268 77.78 C 117.617 76.551 118.984 75.773 120.334 75.202 C 121.683 74.683 123.171 74.354 124.988 74.354 L 125.109 74.354 C 127.306 74.354 129.555 74.994 131.441 76.102 C 133.639 77.52 135.317 79.458 136.217 81.915 L 136.286 82.036 L 137.964 82.036 L 137.843 81.777 C 136.805 78.87 134.867 76.482 132.289 74.942 C 130.161 73.645 127.583 73.005 125.057 73.005 C 121.32 73.005 117.894 74.423 115.368 76.949 C 112.842 79.475 111.423 82.953 111.423 86.69 C 111.423 90.168 112.773 93.525 114.97 95.981 C 117.496 98.75 121.043 100.238 125.299 100.238 C 128.068 100.238 130.784 99.39 132.981 97.85 C 135.179 96.31 136.857 94.165 137.826 91.587 L 137.947 91.327 L 136.269 91.327 L 136.199 91.448 C 135.559 93.317 134.192 95.134 132.393 96.414 C 130.334 98.023 127.687 98.802 124.971 98.802 C 123.361 98.802 121.804 98.473 120.316 97.902 C 118.828 97.262 117.6 96.414 116.441 95.376 C 115.282 94.217 114.434 92.919 113.794 91.379 C 113.153 89.891 112.825 88.213 112.825 86.535 C 112.825 84.856 113.205 83.109 113.794 81.569 C 114.33 80.116 115.23 78.818 116.268 77.78 Z  M 133.691 77.659 C 134.85 78.749 135.819 80.185 136.459 81.863 L 136.459 81.863 C 135.819 80.237 134.85 78.887 133.691 77.659 Z " fill="rgb(35,31,32)"/><path d=" M 158.865 73.783 L 157.186 73.783 L 157.117 73.904 C 157.117 74.025 154.591 79.908 152.082 85.843 L 147.117 97.521 L 142.411 85.843 C 139.383 78.091 137.635 73.956 137.635 73.904 L 137.566 73.783 L 135.888 73.783 L 146.217 99.546 L 141.563 109.996 L 143.241 109.996 L 143.31 109.875 C 143.31 109.875 143.431 109.546 143.639 109.027 C 144.418 107.227 146.546 102.245 149.003 96.639 C 149.643 95.151 150.3 93.611 151.01 92.054 L 157.083 78.039 C 158.121 75.652 158.761 74.095 158.761 74.043 L 158.865 73.783 Z " fill="rgb(35,31,32)"/><path d=" M 170.491 87.14 C 169.073 86.102 167.325 85.583 165.578 85.202 L 165.387 85.133 C 163.38 84.545 162.1 83.974 161.252 83.334 C 160.283 82.486 159.764 81.465 159.695 79.908 C 159.695 79.199 159.764 78.489 160.024 77.901 C 160.214 77.261 160.612 76.742 161.062 76.223 C 161.581 75.635 162.221 75.254 162.861 74.925 C 163.64 74.596 164.418 74.475 165.249 74.475 L 165.37 74.475 C 166.149 74.475 166.858 74.596 167.429 74.856 C 168.069 75.115 168.657 75.496 169.107 75.946 C 169.557 76.396 169.955 76.984 170.197 77.624 C 170.457 78.264 170.578 78.974 170.578 79.752 L 170.578 79.943 L 172.066 79.943 L 172.066 79.787 C 172.066 77.918 171.356 76.24 170.197 75.012 C 168.969 73.783 167.291 73.212 165.232 73.212 C 163.432 73.212 161.685 73.801 160.387 74.821 C 158.899 76.05 158.19 77.797 158.19 79.925 C 158.259 81.932 158.968 83.403 160.249 84.51 C 161.598 85.6 163.415 86.189 165.214 86.638 C 167.412 87.157 168.952 87.867 169.92 88.767 C 170.959 89.805 171.408 91.033 171.478 92.763 L 171.478 92.954 C 171.478 93.801 171.356 94.632 171.028 95.272 C 170.699 95.981 170.318 96.622 169.73 97.141 C 169.211 97.729 168.502 98.179 167.792 98.49 C 167.014 98.819 166.183 98.94 165.335 98.94 C 163.467 98.94 161.789 98.352 160.629 97.262 C 159.47 96.102 158.882 94.545 158.83 92.677 L 158.83 92.486 L 157.342 92.556 L 157.342 92.884 C 157.342 92.954 157.342 93.005 157.342 93.075 C 157.342 93.974 157.532 94.822 157.861 95.653 C 158.19 96.5 158.64 97.262 159.28 97.85 C 160.058 98.629 160.958 99.269 161.996 99.649 C 163.034 100.03 164.124 100.289 165.353 100.289 C 166.443 100.289 167.481 100.03 168.45 99.649 C 169.419 99.199 170.249 98.611 170.976 97.902 C 171.616 97.192 172.204 96.345 172.533 95.445 C 172.914 94.545 173.052 93.576 172.983 92.538 C 172.879 90.047 172.031 88.317 170.491 87.14 Z " fill="rgb(35,31,32)"/><path d=" M 158.017 71.845 L 159.764 70.617 L 161.512 71.845 L 160.802 69.787 L 162.602 68.489 L 160.474 68.489 L 159.764 66.482 L 159.124 68.489 L 156.996 68.489 L 158.674 69.787 L 158.017 71.845 Z " fill="rgb(35,31,32)"/></g></g></g></svg>