<?xml version="1.0" encoding="UTF-8" standalone="no"?><!-- Generator: Gravit.io --><svg xmlns="http://www.w3.org/2000/svg" xmlns:xlink="http://www.w3.org/1999/xlink" style="isolation:isolate" viewBox="0 0 150 150" width="150pt" height="150pt"><defs><clipPath id="_clipPath_ruXhNaUDOUiUMgWcyrQ4OPk8Wi5eB4Pl"><rect width="150" height="150"/></clipPath></defs><g clip-path="url(#_clipPath_ruXhNaUDOUiUMgWcyrQ4OPk8Wi5eB4Pl)"><g><path d=" M 32.515 73.276 C 34.985 73.276 36.853 75.258 36.853 78.245 C 36.853 81.263 34.985 83.186 32.515 83.186 C 30.045 83.186 28.149 81.204 28.149 78.245 C 28.149 75.287 30.045 73.276 32.515 73.276 Z  M 32.515 86.288 C 34.698 86.288 36.652 85.484 38.145 83.99 C 39.61 82.496 40.414 80.543 40.414 78.245 C 40.414 73.678 37.139 70.174 32.515 70.174 C 27.919 70.174 24.616 73.708 24.616 78.245 C 24.616 82.784 27.947 86.288 32.515 86.288 Z " fill="rgb(14,55,108)"/><path d=" M 43.068 82.094 C 43.068 84.794 44.216 85.915 46.86 85.915 L 49.675 85.915 L 49.675 82.611 L 46.946 82.611 C 46.458 82.611 46.285 82.468 46.285 81.778 L 46.285 73.305 L 48.612 73.305 L 48.612 70.288 L 46.285 70.288 L 46.285 66.812 L 43.068 66.812 L 43.068 70.288 L 41.258 70.288 L 41.258 73.305 L 43.068 73.305 L 43.068 82.094 Z " fill="rgb(14,55,108)"/><path d=" M 61.053 77.182 L 61.053 85.915 L 64.5 85.915 L 64.5 76.953 C 64.5 72.616 62.259 70.031 58.726 70.031 C 57.29 70.031 56.054 70.491 54.992 71.409 L 54.992 63.712 L 51.546 63.712 L 51.546 85.915 L 54.992 85.915 L 54.992 77.298 C 54.992 74.396 56.083 73.132 58.295 73.132 C 60.22 73.132 61.053 74.253 61.053 77.182 Z " fill="rgb(14,55,108)"/><path d=" M 74.905 73.276 C 77.059 73.276 78.725 74.597 79.184 76.609 L 70.512 76.609 C 70.943 74.655 72.724 73.276 74.905 73.276 Z  M 82.545 82.669 L 80.045 80.63 C 78.495 82.439 76.944 83.157 75.22 83.157 C 72.666 83.157 70.828 81.693 70.484 79.509 L 82.976 79.509 L 82.976 78.877 C 82.976 73.65 79.672 70.174 74.934 70.174 C 70.282 70.174 67.036 73.449 67.036 78.331 C 67.036 82.984 70.541 86.288 75.164 86.288 C 78.035 86.288 80.334 85.254 82.545 82.669 Z " fill="rgb(14,55,108)"/><path d=" M 92.778 73.879 L 92.778 70.432 C 92.145 70.289 91.828 70.289 91.542 70.289 C 90.249 70.289 89.188 70.748 88.355 71.668 L 88.355 70.546 L 85.252 70.546 L 85.252 85.915 L 88.469 85.915 L 88.469 77.355 C 88.469 74.741 89.418 73.621 91.198 73.621 C 91.485 73.621 91.859 73.678 92.778 73.879" fill="rgb(14,55,108)"/><path d=" M 107.039 83.903 L 104.799 81.319 C 103.765 82.668 102.702 83.157 101.294 83.157 C 98.795 83.157 96.957 81.233 96.957 78.245 C 96.957 75.287 98.795 73.277 101.294 73.277 C 102.615 73.277 103.591 73.707 104.712 74.971 L 106.895 72.414 C 105.172 70.806 103.419 70.174 101.294 70.174 C 96.67 70.174 93.452 73.621 93.452 78.245 C 93.452 82.869 96.698 86.288 101.294 86.288 C 103.448 86.288 105.143 85.657 107.039 83.903" fill="rgb(14,55,108)"/><path d=" M 115.595 83.071 C 112.895 83.071 110.942 81.119 110.942 78.217 C 110.942 75.345 112.895 73.363 115.595 73.363 C 118.267 73.363 120.219 75.345 120.219 78.217 C 120.219 81.089 118.267 83.071 115.595 83.071 Z  M 120.076 85.915 L 123.494 85.915 L 123.494 70.547 L 120.277 70.547 L 120.277 72.242 C 118.955 70.949 117.233 70.26 115.222 70.26 C 110.54 70.26 107.438 73.477 107.438 78.188 C 107.438 82.611 110.77 86.116 115.222 86.116 C 117.204 86.116 118.841 85.513 120.076 84.249 L 120.076 85.915 Z " fill="rgb(14,55,108)"/><path d=" M 133.853 73.879 L 133.853 70.432 C 133.221 70.289 132.905 70.289 132.618 70.289 C 131.325 70.289 130.262 70.748 129.429 71.668 L 129.429 70.546 L 126.327 70.546 L 126.327 85.915 L 129.545 85.915 L 129.545 77.355 C 129.545 74.741 130.492 73.621 132.274 73.621 C 132.56 73.621 132.934 73.678 133.853 73.879" fill="rgb(14,55,108)"/><path d=" M 141.929 73.276 C 144.083 73.276 145.749 74.598 146.209 76.608 L 137.534 76.608 C 137.965 74.654 139.747 73.276 141.929 73.276 Z  M 142.187 86.288 C 145.06 86.288 147.358 85.254 149.569 82.669 L 147.07 80.629 C 145.519 82.439 143.969 83.156 142.245 83.156 C 139.689 83.156 137.85 81.693 137.505 79.508 L 150 79.508 L 150 78.878 C 150 73.649 146.697 70.174 141.958 70.174 C 137.304 70.174 134.06 73.449 134.06 78.331 C 134.06 82.984 137.563 86.288 142.187 86.288 Z " fill="rgb(14,55,108)"/><path d=" M 3.447 77.441 C 3.447 74.541 4.51 73.334 6.693 73.334 C 8.444 73.334 9.422 74.483 9.422 77.326 L 9.422 85.915 L 12.755 85.915 L 12.755 77.441 C 12.755 74.541 13.816 73.334 15.999 73.334 C 17.752 73.334 18.699 74.454 18.699 77.326 L 18.699 85.915 L 22.117 85.915 L 22.117 77.068 C 22.117 72.817 19.82 70.261 16.315 70.261 C 14.363 70.261 12.755 70.978 11.404 72.386 C 10.284 70.95 8.904 70.261 7.153 70.261 C 5.716 70.261 4.51 70.719 3.418 71.639 L 3.418 70.547 L 0 70.547 L 0 85.915 L 3.447 85.915 L 3.447 77.441 Z " fill="rgb(14,55,108)"/></g></g></svg>