<?xml version="1.0" encoding="utf-8"?>
<!-- Generator: Adobe Illustrator 24.0.1, SVG Export Plug-In . SVG Version: 6.00 Build 0)  -->
<svg version="1.1" id="Layer_1" xmlns="http://www.w3.org/2000/svg" xmlns:xlink="http://www.w3.org/1999/xlink" x="0px" y="0px"
	 viewBox="0 0 700 700" style="enable-background:new 0 0 700 700;" width="700" height="700" xml:space="preserve">
<style type="text/css">
	.st0{fill:#FEFEFE;}
	.st1{fill:#08426D;}
	.st2{fill:#CA0C4D;}
</style>
<g>
	<g>
		<path class="st0" d="M349.74,699.95c-115.79,0-231.58-0.01-347.37,0.05C0.44,700,0,699.56,0,697.63
			C0.05,465.88,0.05,234.12,0,2.37C0,0.44,0.44,0,2.37,0c231.75,0.05,463.51,0.05,695.26,0c1.93,0,2.37,0.44,2.37,2.37
			c-0.05,231.75-0.05,463.51,0,695.26c0,1.93-0.44,2.37-2.37,2.37C581.67,699.95,465.71,699.95,349.74,699.95z M193.04,304.05
			c0-2.62-0.12-4.46,0.03-6.29c0.15-1.78-0.4-2.31-2.22-2.31c-1.82,0-2.25,0.55-2.24,2.31c0.07,14.78,0.07,29.56,0.01,44.34
			c-0.01,1.75,0.21,2.53,2.31,2.57c2.35,0.05,2.13-1.18,2.13-2.69c-0.02-8.42-0.03-16.84,0-25.26c0.01-4.69,1.28-8.99,4.27-12.67
			c5.75-7.08,16.71-7.6,22.42-1.01c3.16,3.65,3.81,8.14,3.79,12.79c-0.02,8.76,0.04,17.53-0.04,26.29c-0.02,1.8,0.27,2.52,2.33,2.55
			c2.17,0.03,2.28-0.88,2.27-2.58c-0.07-8.94-0.1-17.87-0.01-26.81c0.1-10.93,8.24-18.15,18.57-16.61
			c7.01,1.05,11.7,6.9,11.77,14.99c0.09,9.71,0.09,19.42-0.02,29.13c-0.03,2.21,1.26,1.73,2.48,1.8c1.34,0.08,2.22,0.03,2.2-1.82
			c-0.1-9.79,0.13-19.59-0.12-29.38c-0.15-6.11-2.15-11.66-7.31-15.53c-8.51-6.38-21.46-4.12-27.8,4.91
			c-1.13,1.61-1.58,2.04-2.82,0.02c-6.26-10.19-20.4-11.53-28.53-2.79C195.48,301.09,194.55,302.28,193.04,304.05z M55.08,303.46
			c-0.17-0.07-0.34-0.14-0.51-0.22c0-1.88-0.16-3.78,0.04-5.64c0.23-2.08-0.83-2.13-2.4-2.12c-1.5,0.01-2.23,0.15-2.22,2.03
			c0.09,14.95,0.09,29.9,0.01,44.86c-0.01,1.83,0.51,2.29,2.29,2.28c1.76-0.01,2.34-0.45,2.31-2.29c-0.1-8.51-0.02-17.01-0.05-25.52
			c-0.02-3.68,0.68-7.17,2.5-10.39c3.03-5.36,9.12-8.59,14.8-7.97c6.34,0.69,10.38,4.13,12.23,10.16c0.79,2.56,0.99,5.22,0.99,7.89
			c-0.01,8.59,0.05,17.19-0.05,25.78c-0.02,1.74,0.35,2.36,2.21,2.35c1.83-0.01,2.28-0.57,2.27-2.34
			c-0.09-8.59-0.04-17.19-0.04-25.78c0-3.21,0.49-6.33,1.83-9.28c2.55-5.62,8.79-9.35,14.77-8.84c7.22,0.61,11.47,4.24,13.22,11.24
			c0.53,2.11,0.61,4.24,0.62,6.39c0.01,8.85,0.07,17.7-0.04,26.55c-0.02,1.95,0.88,2.04,2.33,2.01c1.26-0.03,2.27,0.13,2.25-1.79
			c-0.1-10.05,0.11-20.11-0.13-30.16c-0.13-5.58-2.2-10.54-6.6-14.31c-6.55-5.6-21.04-6.63-28.6,4.57
			c-0.89,1.32-1.31,2.04-2.52,0.12c-7.11-11.27-21.98-11.87-30.14-1.3C55.99,302.32,55.53,302.89,55.08,303.46z M558.05,334.38
			c0,2.72,0.12,5.44-0.04,8.15c-0.11,1.81,0.64,2.12,2.22,2.09c1.54-0.03,2.52-0.06,2.51-2.13c-0.07-22.07-0.07-44.14,0-66.21
			c0.01-2.23-1.23-1.89-2.62-2.01c-1.69-0.14-2.13,0.42-2.12,2.11c0.09,8.67,0.05,17.35,0.02,26.02c0,0.88,0.35,1.86-0.56,2.84
			c-0.9-1.08-1.74-2.11-2.61-3.11c-7.19-8.27-19.38-10.24-28.78-4.65c-13.37,7.96-16.64,27.53-6.61,39.53
			c7.58,9.07,20.66,11.25,30.18,5.02C552.78,340.01,555.21,337.26,558.05,334.38z M391.47,295.61c-4.82-0.22-4.81-0.21-6.27,4.03
			c-4.22,12.23-8.44,24.46-12.67,36.69c-0.2,0.57-0.1,1.42-1.18,1.51c-0.13-0.29-0.28-0.57-0.38-0.88
			c-4.52-13.21-9.05-26.42-13.55-39.64c-0.4-1.18-0.72-2.1-2.37-2.06c-1.57,0.03-2.22,0.58-2.7,2.01
			c-3.6,10.73-7.28,21.43-10.95,32.13c-0.99,2.87-2.05,5.72-3.21,8.94c-0.42-0.66-0.66-0.91-0.76-1.2
			c-1.91-5.51-3.8-11.02-5.7-16.54c-2.71-7.86-5.41-15.72-8.13-23.58c-0.44-1.28-3.19-2.23-4.73-1.43
			c-1.49,0.77-0.05,1.81,0.21,2.53c5.33,14.84,10.78,29.64,16.13,44.48c0.57,1.57,1.21,2.28,3.04,2.28c1.82,0,2.06-1.03,2.5-2.28
			c4.35-12.46,8.73-24.91,13.09-37.37c0.21-0.6,0.25-1.29,0.95-1.62c0.89,0.72,0.97,1.7,1.27,2.57c4.31,12.3,8.62,24.59,12.88,36.91
			c0.48,1.39,1.2,1.79,2.61,1.75c1.34-0.04,2.12-0.25,2.64-1.71C379.87,327.34,385.65,311.58,391.47,295.61z M422.22,345.17
			c24.59,0.05,38.43-18.69,31.38-38.79c-0.4-1.13-1.27-2.37-1.05-3.36c0.3-1.33,2.09-0.58,3.13-1.11c0.64-0.32,1.4-0.52,1.22-1.38
			c-0.18-0.81-0.95-0.91-1.67-0.83c-0.59,0.06-1.19,0.17-1.76,0.34c-1.74,0.53-2.92,0.16-4.11-1.44c-3.5-4.69-7.96-8.33-13.4-10.56
			c-4.55-1.86-9.23-2.21-13.63,0.43c-3.93,2.36-4.33,6.54-1.07,9.74c2.98,2.92,6.68,4.44,10.75,5.12c4.44,0.74,8.89,0.78,13.35,0.15
			c1.09-0.15,2.13-0.42,2.84,0.96c5.31,10.34,3.67,24.04-4.5,31.74c-7.72,7.28-20.07,8.78-30.3,3.7
			c-5.83-2.89-10.39-7.04-12.53-13.34c-3.36-9.9,0.98-21.8,10.19-28.34c0.58-0.41,1.78-0.64,1.44-1.52
			c-0.41-1.06-1.64-0.79-2.5-0.55c-0.8,0.22-1.55,0.72-2.24,1.21c-5.43,3.9-9.05,9.16-10.96,15.49c-2.27,7.49-1.55,14.66,3.34,21.02
			C406.38,342,415.08,344.93,422.22,345.17z M305.83,299.53c-5.86,6.96-11.26,13.39-16.67,19.81c-5.97,7.09-11.94,14.19-17.96,21.25
			c-0.86,1.01-1.33,2.05-0.97,3.27c0.38,1.29,1.59,0.69,2.41,0.69c12.54,0.04,25.08,0,37.62,0.06c1.67,0.01,2.43-0.25,2.43-2.2
			c0-1.93-0.89-2-2.35-1.99c-10.13,0.04-20.27,0.03-30.4,0c-0.78,0-1.9,0.54-2.29-0.42c-0.3-0.73,0.66-1.31,1.14-1.87
			c7.9-9.4,15.82-18.78,23.74-28.16c3.1-3.67,6.2-7.35,9.32-11.01c0.75-0.87,0.91-1.85,0.73-2.88c-0.16-0.88-0.97-0.53-1.49-0.53
			c-12.71-0.02-25.42,0.01-38.13-0.05c-1.55-0.01-1.62,0.76-1.59,1.92c0.03,1.17-0.08,2.24,1.67,2.16c2.4-0.11,4.81-0.04,7.21-0.04
			C288.56,299.53,296.87,299.53,305.83,299.53z M171.74,336.22c0,2.12,0.13,4.14-0.04,6.14c-0.15,1.86,0.53,2.26,2.3,2.28
			c1.92,0.02,2.22-0.71,2.22-2.4c-0.06-14.78-0.07-29.55,0.01-44.33c0.01-1.89-0.41-2.46-2.38-2.47c-1.99-0.01-2.15,0.78-2.14,2.41
			c0.07,8.68,0.14,17.36,0,26.03c-0.2,12.34-10.83,20.19-22.67,16.88c-5.85-1.64-10.13-7.25-10.24-13.95
			c-0.15-9.71-0.12-19.41-0.03-29.12c0.02-1.96-0.8-2.17-2.43-2.22c-1.79-0.06-2.29,0.43-2.27,2.26c0.1,9.53-0.01,19.07,0.06,28.61
			c0.06,8.54,4.84,15.62,12.03,18.09c8.77,3.01,17.93,0.58,23.35-6.16C170.07,337.58,170.32,336.55,171.74,336.22z M473.63,308.48
			c-0.18-0.03-0.36-0.07-0.54-0.1c0-3.55-0.11-7.1,0.04-10.65c0.08-1.82-0.51-2.24-2.27-2.27c-1.89-0.03-2.21,0.64-2.2,2.35
			c0.06,14.77,0.06,29.53,0.01,44.3c-0.01,1.73,0.16,2.55,2.3,2.57c2.34,0.02,2.11-1.19,2.14-2.7c0.15-7.38-0.4-14.76,0.38-22.13
			c1.2-11.41,9.42-19.74,20.11-20.12c2.8-0.1,1.05-2.32,1.41-3.52c0.42-1.43-0.53-1.7-1.78-1.57c-7.16,0.73-12.85,4-17.02,9.86
			C475.29,305.78,474.49,307.15,473.63,308.48z M502.49,309.54c0,10.9,0.03,21.81-0.04,32.71c-0.01,1.68,0.25,2.42,2.19,2.4
			c1.84-0.02,2.48-0.36,2.47-2.38c-0.08-21.89-0.07-43.79-0.01-65.68c0-1.72-0.31-2.4-2.19-2.33c-1.72,0.06-2.51,0.17-2.49,2.32
			C502.57,287.56,502.49,298.55,502.49,309.54z M619.56,330.21c0.08-2.29-1.52-1.84-2.78-1.75c-1.81,0.12-0.88,1.6-0.91,2.4
			c-0.11,3.69-0.07,7.39-0.04,11.08c0.01,1.25-0.57,2.75,1.82,2.71c2.25-0.03,1.65-1.44,1.69-2.59c0.07-2.49-0.01-4.98,0.15-7.47
			c0.14-2.21,1.42-3.48,3.71-3.38c2.26,0.11,3.08,1.56,3.08,3.64c0,2.75,0.04,5.5-0.01,8.25c-0.03,1.61,1.01,1.43,2.07,1.5
			c1.21,0.08,1.66-0.28,1.62-1.56c-0.08-2.66-0.12-5.33,0.05-7.99c0.17-2.67,1.63-3.99,3.86-3.86c2.08,0.12,3.13,1.47,3.16,4.16
			c0.03,2.58,0.09,5.16-0.02,7.73c-0.07,1.65,0.93,1.46,1.99,1.51c1.13,0.05,1.75-0.17,1.7-1.52c-0.09-2.75-0.02-5.5-0.03-8.25
			c-0.01-2.6-0.4-5.08-3.1-6.26c-2.59-1.13-5.03-0.66-7.17,1.22c-0.47,0.41-0.68,1.05-1.6,0.29
			C625.28,327.19,623.65,327.25,619.56,330.21z M603.17,328.05c-5.01-0.02-8.83,3.59-8.87,8.39c-0.04,4.63,3.77,8.38,8.56,8.45
			c4.85,0.07,8.85-3.72,8.89-8.43C611.8,331.82,607.97,328.07,603.17,328.05z M447.36,366.76c0.22,0.07,0.44,0.14,0.66,0.21
			c0,2.65-0.05,5.29,0.03,7.94c0.02,0.85-0.66,2.18,1.18,2.23c1.8,0.05,1.3-1.21,1.3-2.11c0.04-3.69,0.04-7.38-0.01-11.07
			c-0.01-0.74,0.54-1.87-0.81-2.07c-1.03-0.15-2-0.13-2.66,1.01c-0.99,1.7-2.16,3.3-3.2,4.97c-0.64,1.03-1.12,1.11-1.78,0.01
			c-1.06-1.76-2.23-3.46-3.3-5.22c-0.63-1.05-1.6-0.86-2.51-0.77c-1.17,0.11-0.86,1.09-0.86,1.8c-0.02,3.77-0.02,7.55,0,11.32
			c0,0.98-0.31,2.16,1.4,2.12c1.63-0.04,1.13-1.21,1.14-2.03c0.05-2.75,0.02-5.51,0.02-8.27c0.2-0.03,0.4-0.07,0.61-0.1
			c1.41,2.09,2.83,4.18,4.4,6.5C444.53,370.93,445.95,368.84,447.36,366.76z M427.78,333.73c6.42-0.17,11.82-3.99,15.75-10.13
			c0.66-1.02,2.63-2.51,0.75-3.62c-1.73-1.02-2.02,1.34-2.64,2.35c-6.4,10.5-18.78,11.67-27.18,4.31c-1.82-1.6-3.41-3.38-4.78-5.37
			c-0.49-0.71-0.99-1.61-2.02-0.95c-1.03,0.66-0.45,1.54,0.04,2.23C412.37,329.08,418.23,333.58,427.78,333.73z M585.45,344.89
			c1.84-0.02,3.62-0.36,5.04-1.6c0.52-0.46,1.84-0.78,0.84-1.93c-0.7-0.81-1.21-1.62-2.65-0.62c-2.51,1.75-5.29,1.29-6.95-0.71
			c-1.65-2-1.65-5.13,0.01-7.13c1.76-2.12,4.2-2.51,6.86-0.68c1.57,1.08,1.95-0.15,2.62-0.86c1.03-1.11-0.23-1.49-0.81-1.91
			c-2.71-1.98-7.13-1.89-9.94,0.12c-2.95,2.11-4.24,6.15-3.08,9.64C578.54,342.63,581.72,344.88,585.45,344.89z M82.07,371.3
			c0,1.2-0.05,2.41,0.02,3.61c0.05,0.91-0.49,2.16,1.26,2.24c1.83,0.08,1.27-1.2,1.3-2.1c0.06-1.46-0.01-2.92,0.02-4.38
			c0.04-1.64,0.64-2.89,2.51-2.93c1.91-0.05,2.49,1.24,2.55,2.86c0.06,1.72,0.04,3.43,0,5.15c-0.02,0.91,0.17,1.44,1.26,1.4
			c1.02-0.04,1.35-0.5,1.34-1.44c-0.02-1.63,0.03-3.26-0.01-4.89c-0.04-1.79,0.5-3.09,2.54-3.09c1.93-0.01,2.44,1.35,2.51,2.93
			c0.08,1.71,0.03,3.43,0.02,5.15c-0.01,0.74,0.03,1.32,1.05,1.35c1.05,0.03,1.32-0.41,1.3-1.37c-0.05-2.06,0.04-4.12-0.04-6.18
			c-0.16-3.81-3.21-5.44-6.46-3.37c-1.02,0.65-1.57,0.86-2.57-0.02c-1.26-1.12-2.87-1.23-4.29-0.25c-0.87,0.6-1.24,0.7-2.17-0.1
			c-0.72-0.61-2.23-0.52-2.14,1.33C82.13,368.55,82.07,369.92,82.07,371.3z M241.89,361.57c-3.39,0.04-5.22,2.51-4.1,5.4
			c0.48,1.24,0.5,1.88-0.7,2.69c-1.43,0.96-2.1,2.49-1.62,4.27c0.52,1.93,1.87,2.99,3.83,3.31c1.5,0.24,2.96,0.09,4.18-0.8
			c1.13-0.82,2.03-1.17,2.96,0.2c0.5,0.73,1.07,0.57,1.74,0.08c0.9-0.66,0.47-1.18-0.09-1.62c-1.44-1.11-1.13-2.21-0.21-3.49
			c0.35-0.48,1.23-1.18,0.11-1.91c-1.12-0.74-1.46,0.02-1.9,0.82c-0.27,0.49-0.58,1.4-1.18,1.1c-0.8-0.39-1.54-1.13-2-1.9
			c-0.58-0.97,0.61-1,1.07-1.31c1.68-1.14,2.1-2.73,1.51-4.5C244.88,362.14,243.33,361.59,241.89,361.57z M58.08,375.32
			c0.06,0.53-0.85,1.43,0.38,1.76c1.34,0.36,1.55-0.67,1.7-1.62c0.18-1.15,0.35-2.23,1.96-1.97c0.6,0.1,0.99-0.2,0.94-0.87
			c-0.03-0.48,0.12-1.14-0.62-1.18c-0.98-0.06-1.81-0.22-1.31-1.46c0.38-0.97-0.28-2.66,1.68-2.63c0.68,0.01,1.16-0.17,1.18-0.98
			c0.01-0.74-0.29-1.12-1.04-1.13c-0.82-0.01-0.87-0.48-0.85-1.19c0.02-0.75,1.14-1.94-0.61-2.17c-1.45-0.19-1.43,1.02-1.5,1.89
			c-0.16,2.16-1.75,1.41-2.87,1.46c-1.55,0.07-0.83-1.07-0.85-1.81c-0.01-0.6,0.51-1.44-0.67-1.56c-0.96-0.1-1.39,0.29-1.49,1.27
			c-0.12,1.21-0.27,2.46-2.06,2.15c-0.6-0.1-0.94,0.29-0.93,0.92c0.01,0.51-0.06,1.14,0.69,1.12c1.16-0.04,1.58,0.48,1.31,1.56
			c-0.27,1.05,0.16,2.49-1.75,2.58c-1.49,0.07-1.32,1.66-0.59,1.84c1.73,0.41,1.33,1.41,1.24,2.47c-0.05,0.55-0.4,1.25,0.58,1.35
			c0.62,0.06,1.24,0.04,1.41-0.75c0.12-0.59,0.14-1.19,0.29-1.77c0.45-1.83,1.93-0.96,2.98-1.02
			C58.54,373.48,58.14,374.49,58.08,375.32z M204.36,366.96c0-1.48,0.05-2.75-0.02-4.01c-0.04-0.74,0.45-1.77-1.05-1.82
			c-1.58-0.05-1.3,0.98-1.31,1.89c-0.01,3.95-0.01,7.91,0,11.86c0.01,2.56,0.04,2.59,2.47,1.35c0.62-0.32,0.96,0.04,1.36,0.3
			c2.09,1.33,4.1,1.12,5.95-0.38c2.14-1.73,2.34-4.12,1.83-6.58c-0.46-2.24-2-3.49-4.17-4.1
			C207.54,364.93,206.2,366.23,204.36,366.96z M517.32,369.46c0,2.06,0.05,4.12-0.02,6.18c-0.03,1.08,0.28,1.53,1.44,1.51
			c2.92-0.07,5.83-0.04,8.75-0.01c0.79,0.01,1.28-0.13,1.28-1.1c0-0.97-0.49-1.12-1.28-1.11c-1.89,0.03-3.78-0.05-5.66,0.03
			c-1.32,0.05-1.91-0.19-1.97-1.79c-0.09-2.14,0.5-2.95,2.67-2.67c1.27,0.16,2.57,0.02,3.86,0.03c0.76,0.01,1.32-0.1,1.3-1.1
			c-0.02-0.95-0.52-1.14-1.31-1.13c-1.46,0.02-2.92-0.09-4.37,0.03c-1.65,0.14-2.26-0.34-2.13-2.12c0.11-1.52,0.2-2.38,2.11-2.1
			c1.68,0.25,3.42,0.08,5.14,0.04c0.77-0.02,1.58-0.06,1.58-1.2c0-1.22-0.87-1.06-1.61-1.07c-2.57-0.01-5.15,0.11-7.72-0.04
			c-1.8-0.1-2.18,0.65-2.07,2.24C517.41,365.85,517.32,367.66,517.32,369.46z M176.46,366.98c0-1.64,0.01-2.98,0-4.31
			c0-0.76,0.13-1.54-1.11-1.53c-1.17,0.01-1.46,0.53-1.45,1.57c0.03,4.28,0.03,8.57,0,12.85c-0.01,2,1.57,2.04,2.3,1.23
			c0.78-0.88,1.03-0.67,1.73-0.23c2.07,1.3,4.1,1.09,5.94-0.43c2.11-1.75,2.31-4.16,1.79-6.58c-0.49-2.29-2.11-3.65-4.42-4.14
			C179.5,365.03,178.21,366.22,176.46,366.98z M306.37,366.91c-1.22-0.56-2.02-1.04-2.9-1.3c-2.37-0.72-4.23,0.26-5.59,2.12
			c-1.5,2.06-1.38,5.61,0.18,7.52c1.48,1.81,3.35,2.6,5.71,1.84c1.06-0.34,2.05-2.02,3.3-0.04c0.26,0.41,1.65,0.28,1.63-1.12
			c-0.04-4.46-0.03-8.93,0-13.39c0-0.92-0.2-1.42-1.28-1.4c-1.04,0.01-1.05,0.61-1.05,1.33
			C306.37,363.83,306.37,365.2,306.37,366.91z M472.02,369.33c0-2.32-0.02-4.64,0.01-6.96c0.01-0.83-0.23-1.24-1.16-1.23
			c-0.93,0-1.2,0.42-1.18,1.25c0.02,0.77-0.03,1.55,0.01,2.32c0.08,1.6,0.07,2.57-1.98,1.29c-2.14-1.34-4.91-0.49-6.39,1.52
			c-1.66,2.25-1.57,5.87,0.19,7.94c1.69,1.99,4.17,2.45,6.48,1.16c0.7-0.39,1.09-1.15,1.94,0.11c0.52,0.77,2.11,1.07,2.09-0.95
			C472,373.63,472.02,371.48,472.02,369.33z M484.47,366.56c-0.73,0.3-1-0.12-1.35-0.32c-2.5-1.37-5.04-0.97-6.68,1.05
			c-1.83,2.25-1.83,5.87,0.01,8.13c1.68,2.07,4.15,2.5,6.65,1.02c0.78-0.46,1.1-0.83,1.57,0.34c0.25,0.63,1.27,0.43,1.9,0.23
			c0.59-0.19,0.4-0.86,0.4-1.34c0.01-4.38-0.01-8.76,0.02-13.13c0-0.93-0.26-1.41-1.3-1.41c-1.11,0.01-1.23,0.61-1.21,1.49
			C484.5,363.97,484.47,365.32,484.47,366.56z M273.45,366.9c0-1.69,0-2.97,0-4.25c0-0.78,0.09-1.51-1.13-1.52
			c-1.26,0-1.36,0.65-1.35,1.62c0.02,4.28,0.04,8.57-0.01,12.85c-0.01,1.02,0.13,1.57,1.35,1.57c1.18-0.01,1.16-0.65,1.15-1.48
			c-0.02-1.71-0.04-3.43,0.01-5.14c0.05-1.69,0.86-2.74,2.65-2.83c1.88-0.09,2.63,1.07,2.74,2.7c0.11,1.79,0.09,3.6,0.03,5.39
			c-0.03,1,0.27,1.37,1.3,1.35c0.96-0.02,1.12-0.47,1.1-1.28c-0.05-2.31,0.08-4.63-0.09-6.94c-0.21-2.78-2.82-4.28-5.42-3.25
			C275.09,365.97,274.46,366.37,273.45,366.9z M129.51,366.85c0-1.57-0.03-2.84,0.01-4.11c0.03-0.97-0.09-1.66-1.36-1.6
			c-1.1,0.05-1.23,0.64-1.23,1.51c0.02,4.3,0.02,8.6,0,12.89c-0.01,1,0.17,1.62,1.39,1.61c1.4-0.01,1.17-0.93,1.18-1.76
			c0.02-1.72-0.05-3.44,0.03-5.16c0.08-1.62,1.01-2.51,2.66-2.51c1.72-0.01,2.48,0.93,2.48,2.59c-0.01,1.72,0.02,3.44,0,5.16
			c-0.01,0.93,0.03,1.65,1.32,1.69c1.29,0.03,1.36-0.62,1.33-1.59c-0.04-1.46-0.01-2.92-0.01-4.38
			C137.3,365.58,134.7,363.99,129.51,366.85z M421.2,372.3c0.69,0,1.39-0.08,2.06,0.01c2.3,0.32,2.65-0.73,2.07-2.67
			c-0.8-2.65-2.63-4.24-5.12-4.31c-2.34-0.07-4.7,1.64-5.47,3.96c-0.9,2.72-0.01,5.56,2.22,7.09c2.05,1.4,5.19,1.35,6.99-0.16
			c0.39-0.32,1.22-0.58,0.52-1.37c-0.43-0.48-0.85-0.82-1.53-0.34c-1.01,0.71-2.11,1.18-3.38,0.79c-1.22-0.37-2.48-1.09-2.32-2.38
			c0.16-1.21,1.58-0.44,2.42-0.62C420.16,372.21,420.69,372.29,421.2,372.3z M344.63,371.42c0.02,4.54,4.79,7.45,8.75,5.27
			c0.63-0.35,1.92-0.56,1.33-1.74c-0.52-1.06-1.27-0.55-2.1-0.08c-1.66,0.95-3.3,0.76-4.65-0.72c-0.34-0.37-0.7-0.82-0.53-1.36
			c0.2-0.65,0.83-0.48,1.3-0.49c1.8-0.03,3.6-0.07,5.4,0.01c1.36,0.06,1.83-0.36,1.61-1.79c-0.5-3.21-2.78-5.36-5.68-5.19
			C346.99,365.52,344.62,368.18,344.63,371.42z M146.78,372.29c0.6,0,1.2,0,1.8,0c2.89,0,3.18-0.39,2.27-3.07
			c-0.84-2.46-2.77-3.93-5.14-3.91c-2.46,0.02-4.83,1.94-5.4,4.37c-0.68,2.9,0.35,5.54,2.7,6.89c2.12,1.22,5.16,1.03,6.74-0.44
			c0.33-0.31,0.95-0.56,0.46-1.2c-0.46-0.6-0.92-0.91-1.71-0.37c-1.08,0.76-2.26,1.17-3.62,0.6c-1.02-0.42-2.04-1.09-1.94-2.14
			c0.14-1.4,1.5-0.53,2.3-0.72C145.73,372.2,146.26,372.3,146.78,372.29z M502.99,372.29c1.12,0,2.23-0.01,3.35,0
			c0.88,0.01,1.17-0.41,1.15-1.28c-0.04-2.26-1.68-4.64-3.78-5.34c-2.48-0.83-5.09,0.13-6.46,2.37c-1.53,2.51-1.23,5.59,0.74,7.6
			c1.92,1.96,5.01,2.36,7.33,0.88c0.55-0.35,1.66-0.57,1.03-1.63c-0.51-0.85-1.16-0.66-1.93-0.14c-1.11,0.75-2.37,0.94-3.65,0.28
			c-0.89-0.45-1.82-1.14-1.7-2.07c0.14-1.18,1.38-0.56,2.14-0.67C501.78,372.22,502.39,372.29,502.99,372.29z M114.88,371.43
			c0.04-3.33-2.6-6.02-6-6.1c-3.31-0.08-6.13,2.59-6.23,5.88c-0.1,3.43,2.67,6.25,6.12,6.21
			C112.14,377.39,114.84,374.74,114.88,371.43z M403.89,366.85c0-1.64-0.03-2.99,0.01-4.34c0.03-0.98-0.34-1.37-1.34-1.37
			c-1.06,0-1.29,0.51-1.29,1.43c0.02,4.38,0.02,8.76,0,13.14c0,0.9,0.14,1.42,1.24,1.43c1.22,0.02,1.43-0.57,1.4-1.58
			c-0.04-1.72-0.02-3.44,0-5.15c0.02-1.77,0.9-2.72,2.71-2.69c1.73,0.03,2.43,1.09,2.46,2.67c0.04,1.8,0.03,3.61,0.01,5.41
			c-0.01,0.76,0.05,1.35,1.07,1.33c0.89-0.02,1.5-0.17,1.48-1.25c-0.03-1.63,0-3.26,0-4.9
			C411.61,365.63,408.87,364.01,403.89,366.85z M371.79,371.13c0,1.55,0.04,3.09-0.01,4.64c-0.03,0.96,0.23,1.4,1.29,1.37
			c0.98-0.03,1.11-0.52,1.1-1.3c-0.01-1.8-0.06-3.61,0.07-5.41c0.12-1.63,0.93-2.75,2.78-2.72c1.91,0.04,2.48,1.29,2.53,2.91
			c0.06,1.63,0,3.26,0.02,4.9c0.01,0.71-0.27,1.61,1.01,1.62c1.03,0.01,1.65-0.24,1.61-1.42c-0.1-2.31,0.22-4.64-0.25-6.94
			c-0.6-2.94-3.15-4.23-5.84-2.92c-0.83,0.4-1.41,1.3-2.4-0.05c-0.38-0.51-2.06-0.59-1.94,1.21
			C371.86,368.38,371.78,369.76,371.79,371.13z M541.52,372.77c0-6.32-2.78-8.74-7.96-6.9c-0.6,0.21-1.42,0.32-1.08,1.36
			c0.27,0.82,0.68,0.97,1.53,0.7c1.05-0.35,2.19-0.44,3.3-0.13c0.97,0.28,1.84,0.87,1.66,1.96c-0.2,1.22-1.26,0.48-1.89,0.46
			c-1.3-0.06-2.57-0.08-3.79,0.41c-1.42,0.57-2.12,1.64-2.12,3.19c0.01,1.56,0.8,2.61,2.17,3.18c1.41,0.59,2.83,0.46,4.22-0.21
			c0.45-0.22,0.76-0.8,1.52-0.24c1.78,1.31,2.6,0.65,2.45-1.48C541.47,374.32,541.52,373.54,541.52,372.77z M198.6,373.29
			c0-0.68,0.02-1.37,0-2.05c-0.17-4.89-3.39-7.04-8.05-5.36c-0.61,0.22-1.42,0.35-1.1,1.36c0.26,0.84,0.73,0.9,1.55,0.69
			c1.32-0.33,2.71-0.56,4,0.19c0.61,0.36,1.13,0.9,0.99,1.66c-0.2,1.1-1.07,0.46-1.65,0.5c-0.68,0.05-1.37-0.12-2.04-0.07
			c-1.69,0.11-3.3,0.52-3.92,2.33c-0.43,1.24-0.43,2.56,0.65,3.58c1.37,1.3,2.98,1.56,4.75,0.98c0.97-0.31,1.74-1.27,2.99-0.08
			c0.66,0.62,2.01,0.17,1.86-1.41C198.54,374.83,198.6,374.06,198.6,373.29z M220.96,373.71c-0.97-2.53-1.9-4.83-2.72-7.16
			c-0.48-1.37-1.62-1.03-2.34-0.79c-1.01,0.34-0.14,1.14,0.07,1.67c1.05,2.62,2.18,5.22,3.27,7.82c1.15,2.75,1.14,2.82-1.9,3.24
			c-0.8,0.11-1.03,0.51-1.15,1.1c-0.16,0.73,0.51,0.8,0.96,0.92c2.08,0.55,3.82,0.07,4.69-2.03c1.73-4.16,3.34-8.38,5-12.57
			c-0.26-0.15-0.51-0.3-0.77-0.45C222.1,366.45,223.6,371.28,220.96,373.71z M322.92,377.34c1.87-0.11,3.6-0.55,4.12-2.7
			c0.54-2.23-0.81-3.2-2.66-4c-1.24-0.54-3.74-0.39-3.13-2.42c0.54-1.79,2.49-0.73,3.79-0.21c0.78,0.31,1.11,0.02,1.42-0.56
			c0.41-0.77-0.07-1.06-0.69-1.32c-1.54-0.64-3.08-1-4.72-0.4c-1.42,0.52-2.25,1.46-2.34,3.03c-0.08,1.52,0.76,2.4,2.02,2.95
			c0.94,0.41,1.93,0.69,2.88,1.06c0.65,0.25,1.35,0.56,1.21,1.42c-0.15,0.91-0.9,1.18-1.7,1.24c-0.97,0.08-1.86-0.26-2.68-0.72
			c-0.75-0.42-1.39-0.71-1.88,0.3c-0.58,1.2,0.57,1.21,1.12,1.54C320.66,377.16,321.78,377.25,322.92,377.34z M548.89,377.33
			c2.21-0.02,3.76-1.06,4.08-2.76c0.43-2.27-0.96-3.18-2.77-3.95c-1.22-0.52-3.62-0.5-3.11-2.25c0.58-1.99,2.58-0.85,3.96-0.32
			c0.84,0.33,1.09-0.15,1.35-0.69c0.28-0.59-0.01-0.94-0.57-1.17c-1.53-0.63-3.06-1.06-4.72-0.49c-1.43,0.49-2.33,1.36-2.47,2.92
			c-0.14,1.63,0.75,2.57,2.11,3.16c0.94,0.4,1.93,0.68,2.89,1.04c0.68,0.25,1.29,0.65,1.1,1.48c-0.17,0.75-0.83,1.06-1.54,1.13
			c-1.15,0.11-2.21-0.28-3.15-0.88c-0.85-0.54-1.25-0.11-1.62,0.55c-0.47,0.85,0.32,1.03,0.78,1.29
			C546.33,377.04,547.59,377.3,548.89,377.33z M121.82,377.32c0.66-0.29,1.89,0.25,2.12-1.13c0.3-1.78-1.08-1.02-1.82-1.16
			c-0.96-0.18-1.24-0.83-1.26-1.66c-0.03-1.11,0.05-2.23-0.04-3.34c-0.12-1.5,0.13-2.53,2-2.25c0.87,0.13,1.22-0.34,1.21-1.21
			c-0.01-0.89-0.57-0.98-1.2-0.9c-1.61,0.21-2.2-0.51-2-2.05c0.11-0.88-0.3-1.23-1.18-1.22c-0.82,0.01-1.33,0.23-1.28,1.16
			c0.11,1.83-2.45,3.63-0.04,5.55c0.29,0.23,0.04,1.15,0.04,1.75c0.01,1.2-0.04,2.4,0.05,3.6
			C118.59,376.42,119.77,377.31,121.82,377.32z M263.86,377.43c0.96-0.07,2.16-0.27,3.13-1.05c0.43-0.35,1.4-0.58,0.84-1.48
			c-0.44-0.7-0.96-1.05-1.89-0.43c-1.82,1.22-3.64,1.04-5.01-0.73c-1.17-1.52-1.15-3.27,0.02-4.78c1.3-1.67,3.05-1.87,4.79-0.71
			c0.89,0.59,1.41,0.34,1.91-0.38c0.77-1.11-0.34-1.32-0.89-1.66c-2.11-1.32-5.05-1.1-6.96,0.58c-1.99,1.75-2.62,3.96-1.83,6.51
			C258.7,375.7,261.04,377.38,263.86,377.43z M396.22,377.32c0.51-0.43,1.99,0.33,2.06-1.35c0.06-1.58-1.15-0.84-1.83-0.96
			c-0.96-0.17-1.27-0.75-1.27-1.62c0-1.11,0.05-2.23-0.02-3.34c-0.08-1.43-0.01-2.61,1.95-2.28c0.86,0.14,1.22-0.31,1.21-1.19
			c-0.01-0.87-0.51-1.01-1.17-0.92c-1.58,0.22-2.23-0.42-1.99-2.01c0.16-1.07-0.47-1.39-1.39-1.24c-2.18,0.36-0.25,3.54-2.6,3.87
			c-0.06,0.01-0.2,1.19,0.35,1.32c1.72,0.38,1.05,1.69,1.12,2.66c0.11,1.45,0.02,2.92,0.16,4.36
			C392.99,376.46,394.16,377.3,396.22,377.32z M337.11,371.61c0,0.94-0.04,1.71,0.01,2.48c0.16,2.62,1.93,3.8,4.43,3.07
			c0.68-0.2,1.03-0.45,1.05-1.18c0.02-0.83-0.37-1.01-1.1-0.94c-1.68,0.15-2.01-0.92-2-2.28c0.01-0.86,0.05-1.72-0.01-2.57
			c-0.1-1.5-0.09-2.83,2.07-2.41c0.73,0.14,1.09-0.24,1.1-1.02c0.01-0.74-0.23-1.19-1.02-1.08c-1.7,0.25-2.39-0.44-2.14-2.15
			c0.1-0.7-0.19-1.14-1-1.13c-0.75,0.01-1.38,0.07-1.38,1.06c0,0.99,0.24,2.1-1.21,2.46c-0.15,0.04-0.27,1.3-0.1,1.38
			C337.91,368.35,336.82,370.26,337.11,371.61z M559.72,377.33c0.79-0.25,2.15,0.24,2.27-1.31c0.11-1.55-1.14-0.85-1.84-0.97
			c-0.99-0.17-1.21-0.88-1.28-1.66c-0.08-0.85-0.04-1.71-0.03-2.57c0.02-1.55-0.53-3.49,2.25-3.06c0.8,0.12,0.93-0.55,0.93-1.21
			c0-0.69-0.45-0.93-1-0.85c-1.94,0.28-2.36-0.73-2.2-2.39c0.08-0.84-0.55-0.92-1.21-0.9c-0.55,0.02-1.07,0.08-1.07,0.78
			c-0.01,1.17,0.15,2.34-1.4,2.86c-0.32,0.11-0.47,1.46,0.39,1.65c1.33,0.3,0.95,1.23,0.97,2c0.05,1.54,0.01,3.09,0.02,4.63
			C556.52,376.39,557.73,377.21,559.72,377.33z M71.4,369.44c0-1.28,0-2.57,0-3.85c0-4.37-0.77-4.83-4.79-2.93
			c-0.61,0.29-1.06,0.47-0.79,1.27c0.23,0.68,0.59,1.02,1.31,0.78c1.82-0.62,1.95,0.42,1.92,1.82c-0.06,2.99-0.01,5.99-0.02,8.98
			c-0.01,0.91-0.05,1.68,1.28,1.63c1.22-0.04,1.1-0.78,1.1-1.55C71.4,373.54,71.4,371.49,71.4,369.44z M493.19,369.25
			c0-2.14,0-4.27,0-6.41c0-0.83,0.21-1.72-1.19-1.71c-1.31,0.01-1.29,0.76-1.29,1.67c0.01,4.27,0.03,8.55-0.01,12.82
			c-0.01,1.05,0.19,1.55,1.38,1.54c1.21,0,1.13-0.7,1.12-1.5C493.18,373.53,493.19,371.39,493.19,369.25z M291.28,369.28
			c0,2.14,0.02,4.29-0.01,6.43c-0.02,0.9,0.14,1.43,1.24,1.43c1.1,0,1.24-0.54,1.24-1.44c-0.02-4.37-0.02-8.75,0-13.12
			c0-0.89-0.14-1.45-1.24-1.45c-1.12,0-1.24,0.58-1.23,1.46C291.29,364.82,291.27,367.05,291.28,369.28z M154.2,371.35
			c0,1.2-0.08,2.41,0.03,3.6c0.07,0.85-0.68,2.21,1.19,2.18c1.7-0.02,1.3-1.22,1.35-2.18c0.03-0.6,0.03-1.2,0-1.8
			c-0.09-2.43,0.34-4.47,3.23-5.01c1.26-0.24,0.97-1.37,0.76-2.09c-0.37-1.27-1.35-0.44-1.86-0.15c-0.99,0.57-1.67,1.46-2.75-0.07
			c-0.36-0.5-2.06-0.68-1.97,1.15C154.26,368.43,154.2,369.89,154.2,371.35z M287.39,371.22c0-1.45-0.03-2.91,0.01-4.36
			c0.03-0.85-0.21-1.24-1.14-1.23c-0.95,0.01-1.37,0.24-1.35,1.3c0.07,2.99,0.06,5.98,0,8.97c-0.02,1.12,0.56,1.21,1.43,1.24
			c1.03,0.03,1.06-0.56,1.04-1.31C287.38,374.3,287.39,372.76,287.39,371.22z M332.76,371.15c0-1.37,0-2.75,0-4.12
			c0-0.7,0.1-1.41-0.98-1.38c-0.85,0.02-1.56,0.1-1.56,1.2c0.01,3.01,0.01,6.01,0,9.02c0,1.03,0.59,1.25,1.5,1.27
			c1.05,0.02,1.03-0.63,1.03-1.35C332.75,374.24,332.76,372.7,332.76,371.15z M454.52,371.17c0,1.37,0,2.74,0,4.12
			c0,0.94-0.2,1.89,1.34,1.86c1.39-0.03,1.18-0.9,1.19-1.73c0.01-2.74-0.03-5.49,0.02-8.23c0.02-1-0.1-1.57-1.34-1.56
			c-1.38,0.01-1.21,0.83-1.2,1.69C454.53,368.6,454.52,369.89,454.52,371.17z M367.97,371.48c0-1.46-0.03-2.92,0.01-4.38
			c0.02-0.9-0.14-1.45-1.24-1.44c-1.19,0.01-1.14,0.74-1.14,1.54c0.01,2.84,0.02,5.67-0.01,8.51c-0.01,0.89,0.11,1.46,1.24,1.44
			c1.18-0.02,1.15-0.74,1.14-1.54C367.96,374.22,367.97,372.85,367.97,371.48z M422.02,314.92c-0.08-1.38-0.83-2.17-2.24-2.19
			c-1.48-0.02-2.16,0.9-2.17,2.27c-0.01,1.32,0.84,2.07,2.09,2.1C421.04,317.14,421.93,316.44,422.02,314.92z M435.42,314.93
			c-0.22-1.33-0.92-2.22-2.35-2.2c-1.45,0.02-2.18,0.92-2.18,2.31c0.01,1.34,0.9,2.02,2.15,2.07
			C434.46,317.17,435.22,316.33,435.42,314.93z M160.41,379.8c2.78,0.16,3.62-0.89,3.49-3.9c-0.03-0.64,0.24-1.48-0.73-1.64
			c-0.56-0.09-1.24-0.27-1.7,0.21c-0.53,0.55-0.52,1.61-0.22,1.9C162.97,377.96,161.86,378.83,160.41,379.8z M569.97,342.33
			c-0.28,1.38-0.21,2.38,1.8,2.33c1.6-0.05,2.13-0.46,1.99-2.04c-0.11-1.22,0.19-2.42-1.78-2.22
			C570.68,340.52,569.44,340.35,569.97,342.33z M368.13,362.58c0.07-0.63-0.04-1.25-1.02-1.26c-0.78-0.01-1.61-0.11-1.77,0.97
			c-0.12,0.82,0.18,1.37,1.07,1.35C367.12,363.64,368.06,363.96,368.13,362.58z M331.55,361.33c-0.8,0-1.4,0.09-1.4,1.08
			c0,1.04,0.55,1.24,1.45,1.29c1.08,0.06,1.27-0.46,1.25-1.37C332.84,361.3,332.23,361.27,331.55,361.33z M287.43,362.84
			c0-0.77,0.11-1.54-0.94-1.5c-0.7,0.03-1.61-0.28-1.72,0.91c-0.08,0.93,0.25,1.46,1.27,1.42
			C286.7,363.64,287.49,363.83,287.43,362.84z M455.96,361.33c-0.8,0.02-1.5-0.06-1.54,0.99c-0.03,0.99,0.36,1.41,1.35,1.36
			c0.7-0.03,1.37,0.07,1.39-0.99C457.17,361.73,456.9,361.2,455.96,361.33z"/>
		<path class="st1" d="M193.04,304.05c1.51-1.78,2.44-2.96,3.46-4.06c8.13-8.74,22.27-7.4,28.53,2.79c1.24,2.02,1.69,1.59,2.82-0.02
			c6.34-9.03,19.29-11.3,27.8-4.91c5.16,3.87,7.16,9.42,7.31,15.53c0.25,9.79,0.02,19.59,0.12,29.38c0.02,1.85-0.86,1.9-2.2,1.82
			c-1.23-0.08-2.51,0.4-2.48-1.8c0.11-9.71,0.11-19.42,0.02-29.13c-0.08-8.09-4.76-13.95-11.77-14.99
			c-10.33-1.54-18.47,5.69-18.57,16.61c-0.08,8.94-0.05,17.87,0.01,26.81c0.01,1.71-0.1,2.61-2.27,2.58
			c-2.06-0.03-2.35-0.75-2.33-2.55c0.08-8.76,0.02-17.53,0.04-26.29c0.01-4.65-0.63-9.13-3.79-12.79
			c-5.71-6.6-16.67-6.08-22.42,1.01c-2.99,3.68-4.25,7.98-4.27,12.67c-0.03,8.42-0.02,16.84,0,25.26c0,1.51,0.22,2.74-2.13,2.69
			c-2.1-0.04-2.31-0.82-2.31-2.57c0.06-14.78,0.06-29.56-0.01-44.34c-0.01-1.77,0.43-2.31,2.24-2.31c1.82,0,2.38,0.53,2.22,2.31
			C192.92,299.59,193.04,301.44,193.04,304.05z"/>
		<path class="st1" d="M55.08,303.46c0.45-0.57,0.91-1.14,1.36-1.72c8.16-10.57,23.03-9.97,30.14,1.3c1.22,1.93,1.63,1.21,2.52-0.12
			c7.57-11.2,22.06-10.17,28.6-4.57c4.4,3.76,6.46,8.73,6.6,14.31c0.24,10.05,0.03,20.11,0.13,30.16c0.02,1.92-0.98,1.76-2.25,1.79
			c-1.45,0.03-2.36-0.06-2.33-2.01c0.11-8.85,0.06-17.7,0.04-26.55c0-2.15-0.09-4.28-0.62-6.39c-1.76-7-6-10.63-13.22-11.24
			c-5.98-0.5-12.22,3.22-14.77,8.84c-1.34,2.95-1.83,6.06-1.83,9.28c0,8.59-0.05,17.19,0.04,25.78c0.02,1.77-0.43,2.33-2.27,2.34
			c-1.86,0.01-2.23-0.6-2.21-2.35c0.09-8.59,0.04-17.19,0.05-25.78c0-2.68-0.2-5.33-0.99-7.89c-1.86-6.03-5.89-9.47-12.23-10.16
			c-5.68-0.62-11.77,2.61-14.8,7.97c-1.82,3.22-2.52,6.71-2.5,10.39c0.04,8.51-0.04,17.01,0.05,25.52c0.02,1.84-0.55,2.28-2.31,2.29
			c-1.78,0.01-2.3-0.45-2.29-2.28c0.08-14.95,0.08-29.9-0.01-44.86c-0.01-1.88,0.72-2.02,2.22-2.03c1.57-0.01,2.63,0.04,2.4,2.12
			c-0.21,1.86-0.04,3.76-0.04,5.64C54.74,303.32,54.91,303.39,55.08,303.46z"/>
		<path class="st1" d="M558.05,334.38c-2.84,2.88-5.27,5.63-8.39,7.67c-9.52,6.23-22.61,4.05-30.18-5.02
			c-10.03-12.01-6.76-31.57,6.61-39.53c9.39-5.59,21.59-3.63,28.78,4.65c0.87,1,1.7,2.03,2.61,3.11c0.91-0.98,0.56-1.96,0.56-2.84
			c0.03-8.67,0.07-17.35-0.02-26.02c-0.02-1.69,0.42-2.25,2.12-2.11c1.39,0.12,2.63-0.23,2.62,2.01c-0.07,22.07-0.07,44.14,0,66.21
			c0.01,2.07-0.97,2.1-2.51,2.13c-1.58,0.03-2.33-0.28-2.22-2.09C558.17,339.82,558.05,337.1,558.05,334.38z M538.12,298.69
			c-11.61-0.01-19.56,8.62-19.54,21.19c0.03,12.32,8.37,21.42,19.59,21.37c11.29-0.05,20.16-9.45,20.14-21.32
			C558.28,308.02,549.41,298.69,538.12,298.69z"/>
		<path class="st1" d="M391.47,295.61c-5.83,15.97-11.6,31.72-17.28,47.51c-0.53,1.47-1.3,1.67-2.64,1.71
			c-1.41,0.04-2.13-0.36-2.61-1.75c-4.25-12.32-8.57-24.61-12.88-36.91c-0.3-0.87-0.38-1.85-1.27-2.57
			c-0.7,0.32-0.74,1.02-0.95,1.62c-4.36,12.46-8.74,24.91-13.09,37.37c-0.43,1.24-0.67,2.27-2.5,2.28c-1.84,0-2.48-0.71-3.04-2.28
			c-5.35-14.83-10.8-29.64-16.13-44.48c-0.26-0.72-1.7-1.76-0.21-2.53c1.54-0.8,4.29,0.16,4.73,1.43
			c2.72,7.86,5.42,15.72,8.13,23.58c1.9,5.51,3.79,11.03,5.7,16.54c0.1,0.29,0.34,0.54,0.76,1.2c1.16-3.22,2.22-6.07,3.21-8.94
			c3.67-10.7,7.35-21.4,10.95-32.13c0.48-1.43,1.12-1.97,2.7-2.01c1.65-0.03,1.97,0.88,2.37,2.06c4.5,13.22,9.03,26.43,13.55,39.64
			c0.1,0.3,0.26,0.59,0.38,0.88c1.08-0.09,0.98-0.94,1.18-1.51c4.23-12.23,8.45-24.46,12.67-36.69
			C386.67,295.4,386.66,295.4,391.47,295.61z"/>
		<path class="st2" d="M422.22,345.17c-7.14-0.24-15.84-3.18-22.09-11.32c-4.89-6.36-5.61-13.54-3.34-21.02
			c1.92-6.33,5.54-11.59,10.96-15.49c0.69-0.49,1.44-0.99,2.24-1.21c0.86-0.24,2.09-0.52,2.5,0.55c0.34,0.88-0.86,1.11-1.44,1.52
			c-9.21,6.54-13.55,18.43-10.19,28.34c2.14,6.31,6.7,10.45,12.53,13.34c10.24,5.08,22.58,3.58,30.3-3.7
			c8.17-7.69,9.81-21.39,4.5-31.74c-0.71-1.38-1.76-1.11-2.84-0.96c-4.46,0.63-8.91,0.59-13.35-0.15
			c-4.07-0.67-7.77-2.19-10.75-5.12c-3.27-3.2-2.87-7.38,1.07-9.74c4.4-2.64,9.09-2.29,13.63-0.43c5.44,2.22,9.9,5.87,13.4,10.56
			c1.19,1.6,2.37,1.97,4.11,1.44c0.57-0.17,1.17-0.28,1.76-0.34c0.72-0.08,1.49,0.02,1.67,0.83c0.19,0.86-0.58,1.05-1.22,1.38
			c-1.04,0.53-2.83-0.22-3.13,1.11c-0.22,0.99,0.66,2.23,1.05,3.36C460.65,326.48,446.81,345.23,422.22,345.17z M446.01,300.98
			c-3.61-4.43-7.4-7.99-12.13-10.41c-2.24-1.15-4.64-1.86-7.21-1.15c-3.01,0.84-4.02,3.3-2.45,5.98c1.6,2.75,4.1,4.41,7.08,5.21
			C435.99,301.87,440.74,301.98,446.01,300.98z"/>
		<path class="st1" d="M305.83,299.53c-8.96,0-17.27,0-25.58,0c-2.4,0-4.81-0.08-7.21,0.04c-1.76,0.08-1.64-0.99-1.67-2.16
			c-0.03-1.15,0.04-1.92,1.59-1.92c12.71,0.05,25.42,0.03,38.13,0.05c0.52,0,1.33-0.35,1.49,0.53c0.19,1.04,0.02,2.01-0.73,2.88
			c-3.13,3.65-6.22,7.33-9.32,11.01c-7.92,9.38-15.84,18.76-23.74,28.16c-0.48,0.57-1.44,1.14-1.14,1.87
			c0.39,0.96,1.52,0.42,2.29,0.42c10.13,0.04,20.27,0.04,30.4,0c1.47-0.01,2.35,0.06,2.35,1.99c0,1.95-0.76,2.21-2.43,2.2
			c-12.54-0.06-25.08-0.02-37.62-0.06c-0.82,0-2.03,0.6-2.41-0.69c-0.36-1.22,0.11-2.27,0.97-3.27
			c6.02-7.05,11.98-14.16,17.96-21.25C294.57,312.92,299.97,306.49,305.83,299.53z"/>
		<path class="st1" d="M171.74,336.22c-1.42,0.33-1.68,1.35-2.23,2.04c-5.42,6.74-14.58,9.17-23.35,6.16
			c-7.19-2.47-11.97-9.55-12.03-18.09c-0.07-9.54,0.03-19.07-0.06-28.61c-0.02-1.83,0.48-2.32,2.27-2.26
			c1.64,0.06,2.45,0.27,2.43,2.22c-0.08,9.71-0.12,19.42,0.03,29.12c0.11,6.7,4.39,12.31,10.24,13.95
			c11.84,3.31,22.47-4.54,22.67-16.88c0.14-8.67,0.06-17.35,0-26.03c-0.01-1.63,0.14-2.42,2.14-2.41c1.97,0.01,2.4,0.58,2.38,2.47
			c-0.08,14.78-0.07,29.55-0.01,44.33c0.01,1.7-0.3,2.43-2.22,2.4c-1.77-0.02-2.45-0.43-2.3-2.28
			C171.87,340.37,171.74,338.35,171.74,336.22z"/>
		<path class="st1" d="M473.63,308.48c0.85-1.33,1.65-2.7,2.57-3.99c4.18-5.86,9.86-9.13,17.02-9.86c1.25-0.13,2.2,0.14,1.78,1.57
			c-0.36,1.2,1.39,3.42-1.41,3.52c-10.69,0.39-18.91,8.71-20.11,20.12c-0.77,7.37-0.23,14.75-0.38,22.13
			c-0.03,1.51,0.2,2.72-2.14,2.7c-2.14-0.02-2.3-0.84-2.3-2.57c0.05-14.77,0.06-29.53-0.01-44.3c-0.01-1.72,0.31-2.38,2.2-2.35
			c1.76,0.03,2.34,0.45,2.27,2.27c-0.15,3.54-0.04,7.1-0.04,10.65C473.27,308.41,473.45,308.44,473.63,308.48z"/>
		<path class="st1" d="M502.49,309.54c0-10.99,0.08-21.98-0.07-32.97c-0.03-2.15,0.77-2.26,2.49-2.32c1.89-0.07,2.2,0.61,2.19,2.33
			c-0.06,21.89-0.07,43.79,0.01,65.68c0.01,2.02-0.63,2.36-2.47,2.38c-1.94,0.02-2.2-0.71-2.19-2.4
			C502.53,331.35,502.49,320.44,502.49,309.54z"/>
		<path class="st1" d="M619.56,330.21c4.1-2.96,5.72-3.02,9.22-0.12c0.92,0.76,1.13,0.12,1.6-0.29c2.14-1.88,4.58-2.36,7.17-1.22
			c2.7,1.18,3.09,3.67,3.1,6.26c0.01,2.75-0.06,5.5,0.03,8.25c0.04,1.35-0.57,1.57-1.7,1.52c-1.06-0.05-2.06,0.14-1.99-1.51
			c0.11-2.57,0.05-5.15,0.02-7.73c-0.03-2.69-1.07-4.04-3.16-4.16c-2.23-0.13-3.69,1.19-3.86,3.86c-0.17,2.65-0.12,5.33-0.05,7.99
			c0.04,1.27-0.42,1.64-1.62,1.56c-1.06-0.07-2.1,0.11-2.07-1.5c0.06-2.75,0.01-5.5,0.01-8.25c0-2.09-0.82-3.54-3.08-3.64
			c-2.29-0.11-3.57,1.16-3.71,3.38c-0.16,2.48-0.08,4.98-0.15,7.47c-0.03,1.16,0.56,2.56-1.69,2.59c-2.38,0.03-1.81-1.46-1.82-2.71
			c-0.03-3.69-0.07-7.39,0.04-11.08c0.02-0.8-0.9-2.27,0.91-2.4C618.04,328.37,619.64,327.92,619.56,330.21z"/>
		<path class="st1" d="M603.17,328.05c4.8,0.02,8.63,3.77,8.59,8.41c-0.04,4.7-4.04,8.49-8.89,8.43c-4.79-0.07-8.59-3.82-8.56-8.45
			C594.35,331.64,598.17,328.02,603.17,328.05z M597.88,336.42c0.02,2.99,2.22,5.34,5.08,5.4c2.89,0.06,5.13-2.22,5.17-5.24
			c0.03-3.17-2.14-5.44-5.2-5.43C599.96,331.15,597.87,333.34,597.88,336.42z"/>
		<path class="st2" d="M447.36,366.76c-1.41,2.08-2.83,4.17-4.39,6.48c-1.57-2.32-2.98-4.41-4.4-6.5c-0.2,0.03-0.4,0.07-0.61,0.1
			c0,2.76,0.03,5.51-0.02,8.27c-0.01,0.82,0.48,1.99-1.14,2.03c-1.7,0.04-1.39-1.14-1.4-2.12c-0.02-3.77-0.02-7.55,0-11.32
			c0-0.71-0.31-1.69,0.86-1.8c0.91-0.09,1.88-0.28,2.51,0.77c1.07,1.76,2.24,3.45,3.3,5.22c0.66,1.1,1.14,1.02,1.78-0.01
			c1.04-1.67,2.21-3.27,3.2-4.97c0.66-1.14,1.63-1.16,2.66-1.01c1.35,0.2,0.8,1.33,0.81,2.07c0.05,3.69,0.05,7.38,0.01,11.07
			c-0.01,0.9,0.5,2.17-1.3,2.11c-1.84-0.05-1.16-1.38-1.18-2.23c-0.08-2.64-0.03-5.29-0.03-7.94
			C447.8,366.9,447.58,366.83,447.36,366.76z"/>
		<path class="st2" d="M427.78,333.73c-9.55-0.14-15.41-4.65-20.07-11.17c-0.49-0.69-1.07-1.57-0.04-2.23
			c1.03-0.66,1.53,0.24,2.02,0.95c1.37,1.99,2.96,3.77,4.78,5.37c8.4,7.36,20.78,6.19,27.18-4.31c0.61-1.01,0.91-3.37,2.64-2.35
			c1.88,1.11-0.09,2.6-0.75,3.62C439.6,329.73,434.2,333.56,427.78,333.73z"/>
		<path class="st1" d="M585.45,344.88c-3.74-0.01-6.92-2.25-8.05-5.68c-1.15-3.49,0.14-7.53,3.08-9.64c2.81-2.01,7.23-2.1,9.94-0.12
			c0.58,0.42,1.84,0.8,0.81,1.91c-0.67,0.71-1.04,1.95-2.62,0.86c-2.67-1.83-5.1-1.44-6.86,0.68c-1.66,2-1.67,5.13-0.01,7.13
			c1.65,2,4.44,2.46,6.95,0.71c1.44-1,1.94-0.19,2.65,0.62c1,1.15-0.32,1.48-0.84,1.93C589.07,344.53,587.3,344.87,585.45,344.88z"
			/>
		<path class="st2" d="M82.07,371.3c0-1.37,0.06-2.75-0.01-4.12c-0.09-1.85,1.43-1.94,2.14-1.33c0.93,0.8,1.3,0.7,2.17,0.1
			c1.42-0.98,3.03-0.87,4.29,0.25c0.99,0.88,1.55,0.68,2.57,0.02c3.24-2.07,6.3-0.44,6.46,3.37c0.09,2.06-0.01,4.12,0.04,6.18
			c0.02,0.96-0.24,1.4-1.3,1.37c-1.02-0.03-1.06-0.6-1.05-1.35c0.01-1.72,0.06-3.44-0.02-5.15c-0.07-1.58-0.58-2.94-2.51-2.93
			c-2.04,0.01-2.58,1.31-2.54,3.09c0.04,1.63-0.01,3.26,0.01,4.89c0.01,0.93-0.32,1.4-1.34,1.44c-1.09,0.04-1.28-0.49-1.26-1.4
			c0.04-1.72,0.05-3.44,0-5.15c-0.05-1.62-0.63-2.91-2.55-2.86c-1.87,0.05-2.47,1.29-2.51,2.93c-0.03,1.46,0.03,2.92-0.02,4.38
			c-0.04,0.9,0.52,2.18-1.3,2.1c-1.75-0.08-1.21-1.32-1.26-2.24C82.02,373.7,82.07,372.5,82.07,371.3z"/>
		<path class="st2" d="M241.89,361.57c1.44,0.02,2.99,0.57,3.59,2.34c0.59,1.77,0.17,3.36-1.51,4.5c-0.46,0.31-1.65,0.34-1.07,1.31
			c0.46,0.77,1.21,1.51,2,1.9c0.6,0.3,0.91-0.61,1.18-1.1c0.44-0.8,0.78-1.56,1.9-0.82c1.12,0.74,0.23,1.43-0.11,1.91
			c-0.92,1.28-1.23,2.37,0.21,3.49c0.57,0.44,0.99,0.96,0.09,1.62c-0.67,0.49-1.24,0.65-1.74-0.08c-0.93-1.37-1.83-1.03-2.96-0.2
			c-1.22,0.89-2.68,1.04-4.18,0.8c-1.96-0.32-3.31-1.38-3.83-3.31c-0.48-1.78,0.2-3.31,1.62-4.27c1.21-0.81,1.18-1.45,0.7-2.69
			C236.67,364.08,238.49,361.61,241.89,361.57z M240.72,375.1c0.93-0.15,2.51-0.35,2.25-1.37c-0.34-1.39-1.65-2.74-3.13-3.04
			c-0.96-0.2-1.76,1.03-1.75,2.15C238.11,374.41,239.16,375.04,240.72,375.1z M241.24,367.6c1.22-0.49,2.2-1.05,2.12-2.39
			c-0.06-0.99-0.75-1.53-1.73-1.49c-1.25,0.06-1.83,0.84-1.71,2.05C240.01,366.63,240.45,367.31,241.24,367.6z"/>
		<path class="st2" d="M58.08,375.32c0.06-0.84,0.46-1.84-0.82-1.76c-1.05,0.07-2.53-0.8-2.98,1.02c-0.14,0.58-0.16,1.19-0.29,1.77
			c-0.16,0.78-0.78,0.81-1.41,0.75c-0.99-0.1-0.63-0.8-0.58-1.35c0.1-1.07,0.49-2.06-1.24-2.47c-0.73-0.17-0.9-1.77,0.59-1.84
			c1.91-0.09,1.48-1.53,1.75-2.58c0.27-1.07-0.15-1.59-1.31-1.56c-0.74,0.02-0.67-0.61-0.69-1.12c-0.02-0.63,0.32-1.02,0.93-0.92
			c1.79,0.3,1.95-0.94,2.06-2.15c0.09-0.97,0.53-1.37,1.49-1.27c1.18,0.12,0.66,0.96,0.67,1.56c0.02,0.74-0.7,1.88,0.85,1.81
			c1.12-0.05,2.71,0.7,2.87-1.46c0.06-0.86,0.05-2.08,1.5-1.89c1.75,0.23,0.63,1.42,0.61,2.17c-0.02,0.71,0.03,1.18,0.85,1.19
			c0.75,0.01,1.05,0.39,1.04,1.13c-0.01,0.81-0.5,0.99-1.18,0.98c-1.96-0.03-1.29,1.66-1.68,2.63c-0.49,1.24,0.34,1.41,1.31,1.46
			c0.74,0.04,0.58,0.7,0.62,1.18c0.05,0.67-0.34,0.97-0.94,0.87c-1.61-0.27-1.79,0.82-1.96,1.97c-0.15,0.96-0.36,1.98-1.7,1.62
			C57.23,376.76,58.14,375.85,58.08,375.32z M57.16,371.38c2.2,0.35,1.58-1.68,1.87-2.91c0.32-1.35-0.8-0.92-1.47-1.03
			c-2.27-0.36-2.12,1.35-2.33,2.74C55,371.64,56.08,371.29,57.16,371.38z"/>
		<path class="st2" d="M204.36,366.96c1.84-0.73,3.18-2.03,5.06-1.5c2.17,0.61,3.71,1.86,4.17,4.1c0.51,2.47,0.31,4.85-1.83,6.58
			c-1.86,1.5-3.87,1.71-5.95,0.38c-0.4-0.25-0.73-0.61-1.36-0.3c-2.43,1.24-2.46,1.21-2.47-1.35c-0.01-3.95-0.01-7.91,0-11.86
			c0-0.9-0.27-1.94,1.31-1.89c1.51,0.05,1.02,1.09,1.05,1.82C204.41,364.21,204.36,365.48,204.36,366.96z M211.1,371.61
			c0.1-2.22-1.23-3.84-3.18-3.88c-1.83-0.03-3.37,1.47-3.49,3.42c-0.12,1.99,1.42,3.82,3.29,3.9
			C209.59,375.13,211.01,373.69,211.1,371.61z"/>
		<path class="st2" d="M517.32,369.46c0-1.8,0.09-3.61-0.03-5.4c-0.1-1.59,0.27-2.35,2.07-2.24c2.57,0.15,5.15,0.03,7.72,0.04
			c0.75,0,1.61-0.15,1.61,1.07c0,1.14-0.8,1.19-1.58,1.2c-1.72,0.04-3.46,0.2-5.14-0.04c-1.91-0.28-2,0.58-2.11,2.1
			c-0.13,1.78,0.47,2.26,2.13,2.12c1.45-0.12,2.92-0.01,4.37-0.03c0.79-0.01,1.29,0.18,1.31,1.13c0.02,1-0.54,1.11-1.3,1.1
			c-1.29-0.01-2.59,0.13-3.86-0.03c-2.17-0.28-2.76,0.53-2.67,2.67c0.07,1.6,0.65,1.84,1.97,1.79c1.88-0.07,3.77,0,5.66-0.03
			c0.8-0.01,1.28,0.13,1.28,1.11c0,0.97-0.48,1.11-1.28,1.1c-2.92-0.02-5.84-0.05-8.75,0.01c-1.16,0.03-1.47-0.42-1.44-1.51
			C517.37,373.58,517.32,371.52,517.32,369.46z"/>
		<path class="st2" d="M176.46,366.98c1.75-0.77,3.04-1.95,4.77-1.58c2.32,0.49,3.93,1.85,4.42,4.14c0.52,2.42,0.32,4.84-1.79,6.58
			c-1.84,1.52-3.87,1.73-5.94,0.43c-0.69-0.44-0.95-0.65-1.73,0.23c-0.72,0.81-2.31,0.77-2.3-1.23c0.03-4.28,0.02-8.57,0-12.85
			c-0.01-1.04,0.28-1.56,1.45-1.57c1.24-0.01,1.11,0.77,1.11,1.53C176.47,364,176.46,365.34,176.46,366.98z M179.98,367.73
			c-1.83-0.04-3.35,1.47-3.46,3.43c-0.11,2,1.44,3.83,3.3,3.89c1.85,0.06,3.29-1.42,3.39-3.46
			C183.31,369.42,181.93,367.77,179.98,367.73z"/>
		<path class="st2" d="M306.37,366.91c0-1.71,0-3.08,0-4.44c0-0.72,0.01-1.32,1.05-1.33c1.08-0.01,1.29,0.49,1.28,1.4
			c-0.02,4.46-0.04,8.93,0,13.39c0.01,1.39-1.38,1.52-1.63,1.12c-1.25-1.98-2.24-0.3-3.3,0.04c-2.36,0.76-4.23-0.03-5.71-1.84
			c-1.56-1.91-1.68-5.46-0.18-7.52c1.36-1.86,3.21-2.84,5.59-2.12C304.35,365.87,305.15,366.35,306.37,366.91z M302.85,375.05
			c1.87-0.01,3.45-1.77,3.39-3.79c-0.06-1.97-1.52-3.5-3.36-3.53c-2-0.03-3.35,1.51-3.29,3.75
			C299.64,373.56,301.01,375.06,302.85,375.05z"/>
		<path class="st2" d="M472.02,369.33c0,2.15-0.02,4.3,0.01,6.45c0.02,2.01-1.57,1.72-2.09,0.95c-0.85-1.27-1.24-0.5-1.94-0.11
			c-2.31,1.29-4.79,0.83-6.48-1.16c-1.76-2.07-1.85-5.69-0.19-7.94c1.48-2.01,4.25-2.86,6.39-1.52c2.05,1.29,2.07,0.31,1.98-1.29
			c-0.04-0.77,0.01-1.55-0.01-2.32c-0.02-0.82,0.24-1.24,1.18-1.25c0.93,0,1.17,0.4,1.16,1.23
			C472,364.69,472.02,367.01,472.02,369.33z M469.49,371.3c-0.03-2.06-1.36-3.53-3.25-3.58c-1.96-0.05-3.44,1.56-3.39,3.71
			c0.04,2,1.48,3.59,3.27,3.61C468.05,375.07,469.51,373.45,469.49,371.3z"/>
		<path class="st2" d="M484.47,366.56c0-1.25,0.02-2.59-0.01-3.94c-0.02-0.87,0.1-1.48,1.21-1.49c1.05-0.01,1.31,0.47,1.3,1.41
			c-0.02,4.38,0,8.76-0.02,13.13c0,0.48,0.19,1.15-0.4,1.34c-0.63,0.2-1.65,0.4-1.9-0.23c-0.46-1.17-0.79-0.8-1.57-0.34
			c-2.5,1.49-4.97,1.05-6.65-1.02c-1.84-2.26-1.84-5.88-0.01-8.13c1.64-2.02,4.18-2.42,6.68-1.05
			C483.48,366.44,483.74,366.86,484.47,366.56z M481,367.72c-1.86,0.02-3.27,1.54-3.29,3.56c-0.03,2.07,1.53,3.8,3.39,3.77
			c1.89-0.03,3.37-1.77,3.29-3.85C484.31,369.18,482.87,367.7,481,367.72z"/>
		<path class="st2" d="M273.45,366.9c1.01-0.53,1.64-0.93,2.33-1.2c2.6-1.03,5.21,0.47,5.42,3.25c0.17,2.3,0.04,4.62,0.09,6.94
			c0.02,0.81-0.14,1.26-1.1,1.28c-1.02,0.02-1.33-0.36-1.3-1.35c0.06-1.8,0.08-3.6-0.03-5.39c-0.1-1.63-0.86-2.79-2.74-2.7
			c-1.79,0.09-2.6,1.15-2.65,2.83c-0.05,1.71-0.03,3.43-0.01,5.14c0.01,0.83,0.02,1.47-1.15,1.48c-1.22,0.01-1.36-0.55-1.35-1.57
			c0.04-4.28,0.03-8.57,0.01-12.85c-0.01-0.97,0.09-1.62,1.35-1.62c1.23,0,1.13,0.74,1.13,1.52
			C273.45,363.93,273.45,365.21,273.45,366.9z"/>
		<path class="st2" d="M129.51,366.85c5.19-2.86,7.79-1.27,7.8,4.34c0,1.46-0.03,2.92,0.01,4.38c0.03,0.97-0.05,1.62-1.33,1.59
			c-1.29-0.03-1.33-0.76-1.32-1.69c0.02-1.72,0-3.44,0-5.16c0.01-1.67-0.76-2.6-2.48-2.59c-1.65,0.01-2.58,0.89-2.66,2.51
			c-0.08,1.72-0.02,3.44-0.03,5.16c-0.01,0.83,0.22,1.75-1.18,1.76c-1.23,0.01-1.4-0.61-1.39-1.61c0.03-4.3,0.02-8.59,0-12.89
			c0-0.87,0.13-1.46,1.23-1.51c1.27-0.06,1.39,0.62,1.36,1.6C129.49,364,129.51,365.28,129.51,366.85z"/>
		<path class="st2" d="M421.2,372.3c-0.52,0-1.05-0.09-1.54,0.02c-0.84,0.17-2.27-0.59-2.42,0.62c-0.17,1.29,1.1,2.01,2.32,2.38
			c1.27,0.38,2.37-0.08,3.38-0.79c0.68-0.48,1.1-0.14,1.53,0.34c0.7,0.78-0.13,1.04-0.52,1.37c-1.8,1.51-4.95,1.56-6.99,0.16
			c-2.23-1.53-3.12-4.37-2.22-7.09c0.77-2.32,3.13-4.03,5.47-3.96c2.5,0.08,4.32,1.67,5.12,4.31c0.59,1.94,0.23,2.99-2.07,2.67
			C422.59,372.22,421.89,372.3,421.2,372.3z M420.2,370.7c0.75-0.7,2.37,0.6,2.5-0.86c0.12-1.35-1.17-2.27-2.61-2.28
			c-1.43-0.02-2.79,0.81-2.69,2.18C417.53,371.43,419.24,370.07,420.2,370.7z"/>
		<path class="st2" d="M344.63,371.42c-0.01-3.24,2.36-5.9,5.42-6.09c2.9-0.17,5.18,1.98,5.68,5.19c0.22,1.43-0.25,1.85-1.61,1.79
			c-1.8-0.07-3.6-0.03-5.4-0.01c-0.47,0.01-1.1-0.17-1.3,0.49c-0.17,0.54,0.19,0.99,0.53,1.36c1.35,1.48,2.98,1.67,4.65,0.72
			c0.83-0.47,1.58-0.98,2.1,0.08c0.59,1.18-0.7,1.39-1.33,1.74C349.41,378.87,344.64,375.97,344.63,371.42z M350.28,370.74
			c0.66-0.89,2.41,0.76,2.57-1.03c0.11-1.31-1.14-2.09-2.47-2.13c-1.44-0.04-2.77,0.72-2.72,2.15
			C347.71,371.31,349.32,370.12,350.28,370.74z"/>
		<path class="st2" d="M146.78,372.3c-0.51,0-1.05-0.09-1.54,0.02c-0.8,0.2-2.16-0.68-2.3,0.72c-0.1,1.05,0.92,1.71,1.94,2.14
			c1.36,0.57,2.54,0.15,3.62-0.6c0.78-0.55,1.25-0.24,1.71,0.37c0.49,0.64-0.13,0.89-0.46,1.2c-1.58,1.47-4.62,1.66-6.74,0.44
			c-2.35-1.35-3.39-3.99-2.7-6.89c0.57-2.43,2.94-4.34,5.4-4.37c2.37-0.02,4.3,1.44,5.14,3.91c0.91,2.68,0.62,3.07-2.27,3.07
			C147.98,372.29,147.38,372.29,146.78,372.3z M145.61,370.63c0.91-0.53,2.6,0.71,2.76-0.83c0.14-1.32-1.22-2.25-2.65-2.24
			c-1.43,0.01-2.75,0.89-2.66,2.25C143.16,371.25,144.75,370.16,145.61,370.63z"/>
		<path class="st2" d="M502.99,372.29c-0.6,0-1.21-0.07-1.8,0.02c-0.76,0.12-2-0.51-2.14,0.67c-0.11,0.93,0.82,1.61,1.7,2.07
			c1.29,0.66,2.54,0.47,3.65-0.28c0.77-0.52,1.43-0.71,1.93,0.14c0.63,1.06-0.48,1.28-1.03,1.63c-2.31,1.48-5.4,1.07-7.33-0.88
			c-1.97-2.01-2.27-5.09-0.74-7.6c1.37-2.25,3.98-3.2,6.46-2.37c2.1,0.71,3.74,3.09,3.78,5.34c0.02,0.87-0.27,1.29-1.15,1.28
			C505.22,372.28,504.11,372.29,502.99,372.29z M499.18,369.75c-0.01,0.46,0.22,0.72,0.6,0.73c1.37,0.03,2.75,0.03,4.12,0.01
			c0.36,0,0.67-0.21,0.67-0.61c-0.01-0.74-0.41-1.31-0.97-1.73c-0.99-0.75-2.07-0.79-3.13-0.18
			C499.78,368.36,499.32,368.99,499.18,369.75z"/>
		<path class="st2" d="M114.88,371.43c-0.04,3.31-2.74,5.96-6.11,5.99c-3.45,0.04-6.22-2.78-6.12-6.21c0.1-3.3,2.93-5.96,6.23-5.88
			C112.28,365.41,114.93,368.1,114.88,371.43z M112.27,371.3c-0.07-2.04-1.67-3.61-3.63-3.57c-2,0.04-3.45,1.64-3.39,3.74
			c0.06,2.04,1.64,3.61,3.6,3.58C110.81,375.02,112.34,373.34,112.27,371.3z"/>
		<path class="st2" d="M403.89,366.85c4.98-2.84,7.72-1.23,7.74,4.13c0,1.63-0.03,3.26,0,4.9c0.02,1.08-0.59,1.23-1.48,1.25
			c-1.02,0.02-1.07-0.57-1.07-1.33c0.02-1.8,0.03-3.61-0.01-5.41c-0.04-1.58-0.73-2.64-2.46-2.67c-1.81-0.03-2.69,0.92-2.71,2.69
			c-0.02,1.72-0.04,3.44,0,5.15c0.03,1.02-0.18,1.6-1.4,1.58c-1.1-0.02-1.24-0.54-1.24-1.43c0.02-4.38,0.02-8.76,0-13.14
			c0-0.92,0.23-1.43,1.29-1.43c1.01,0,1.38,0.4,1.34,1.37C403.86,363.86,403.89,365.22,403.89,366.85z"/>
		<path class="st2" d="M371.79,371.13c0-1.37,0.07-2.75-0.02-4.12c-0.12-1.8,1.56-1.72,1.94-1.21c0.98,1.35,1.57,0.45,2.4,0.05
			c2.69-1.3,5.24-0.02,5.84,2.92c0.47,2.3,0.15,4.63,0.25,6.94c0.05,1.18-0.57,1.43-1.61,1.42c-1.28-0.01-1-0.9-1.01-1.62
			c-0.03-1.63,0.03-3.27-0.02-4.9c-0.06-1.61-0.62-2.87-2.53-2.91c-1.85-0.04-2.66,1.09-2.78,2.72c-0.13,1.79-0.08,3.6-0.07,5.41
			c0,0.79-0.12,1.28-1.1,1.3c-1.06,0.03-1.32-0.42-1.29-1.37C371.82,374.23,371.79,372.68,371.79,371.13z"/>
		<path class="st2" d="M541.52,372.77c0,0.77-0.04,1.55,0.01,2.31c0.14,2.13-0.67,2.79-2.45,1.48c-0.76-0.56-1.07,0.02-1.52,0.24
			c-1.39,0.67-2.81,0.8-4.22,0.21c-1.36-0.58-2.16-1.62-2.17-3.18c-0.01-1.55,0.7-2.62,2.12-3.19c1.22-0.49,2.49-0.47,3.79-0.41
			c0.63,0.03,1.69,0.77,1.89-0.46c0.18-1.09-0.69-1.68-1.66-1.96c-1.1-0.32-2.24-0.22-3.3,0.13c-0.84,0.28-1.25,0.12-1.53-0.7
			c-0.35-1.04,0.48-1.14,1.08-1.36C538.73,364.03,541.52,366.45,541.52,372.77z M536.85,371.8c-1.43,0.06-2.98,0-3.05,1.94
			c-0.04,1.29,1.01,1.72,2.13,1.72c1.49-0.01,2.78-0.56,3.02-2.2C539.19,371.57,537.7,372.06,536.85,371.8z"/>
		<path class="st2" d="M198.6,373.29c0,0.77-0.06,1.55,0.01,2.31c0.15,1.58-1.2,2.03-1.86,1.41c-1.25-1.18-2.02-0.23-2.99,0.08
			c-1.77,0.57-3.38,0.32-4.75-0.98c-1.08-1.03-1.07-2.35-0.65-3.58c0.62-1.8,2.24-2.21,3.92-2.33c0.68-0.05,1.37,0.12,2.04,0.07
			c0.58-0.04,1.45,0.59,1.65-0.5c0.14-0.76-0.38-1.3-0.99-1.66c-1.29-0.75-2.68-0.52-4-0.19c-0.82,0.21-1.29,0.15-1.55-0.69
			c-0.31-1.01,0.5-1.14,1.1-1.36c4.66-1.68,7.88,0.47,8.05,5.36C198.62,371.92,198.6,372.6,198.6,373.29z M193.9,371.81
			c-1.42,0.04-2.98-0.04-3.12,1.87c-0.09,1.28,0.94,1.78,2.07,1.78c1.61,0,2.97-0.62,3.11-2.4
			C196.08,371.58,194.68,372.07,193.9,371.81z"/>
		<path class="st2" d="M220.96,373.71c2.64-2.43,1.13-7.26,5.11-8.25c0.26,0.15,0.51,0.3,0.77,0.45c-1.66,4.19-3.27,8.41-5,12.57
			c-0.87,2.09-2.61,2.58-4.69,2.03c-0.45-0.12-1.11-0.19-0.96-0.92c0.12-0.58,0.35-0.99,1.15-1.1c3.04-0.42,3.05-0.49,1.9-3.24
			c-1.09-2.61-2.22-5.2-3.27-7.82c-0.21-0.52-1.08-1.32-0.07-1.67c0.72-0.24,1.86-0.58,2.34,0.79
			C219.06,368.88,219.99,371.18,220.96,373.71z"/>
		<path class="st2" d="M322.92,377.34c-1.14-0.1-2.26-0.19-3.24-0.78c-0.55-0.34-1.7-0.34-1.12-1.54c0.49-1.01,1.12-0.72,1.88-0.3
			c0.82,0.46,1.71,0.8,2.68,0.72c0.81-0.07,1.56-0.34,1.7-1.24c0.14-0.86-0.56-1.17-1.21-1.42c-0.96-0.37-1.95-0.65-2.88-1.06
			c-1.26-0.55-2.11-1.43-2.02-2.95c0.08-1.56,0.92-2.51,2.34-3.03c1.64-0.6,3.19-0.24,4.72,0.4c0.62,0.26,1.1,0.55,0.69,1.32
			c-0.31,0.58-0.64,0.87-1.42,0.56c-1.3-0.51-3.25-1.58-3.79,0.21c-0.62,2.03,1.89,1.89,3.13,2.42c1.84,0.8,3.19,1.76,2.66,4
			C326.52,376.8,324.79,377.23,322.92,377.34z"/>
		<path class="st2" d="M548.89,377.33c-1.3-0.03-2.55-0.29-3.68-0.94c-0.46-0.26-1.25-0.44-0.78-1.29c0.36-0.66,0.77-1.08,1.62-0.55
			c0.94,0.6,2,0.99,3.15,0.88c0.71-0.07,1.38-0.37,1.54-1.13c0.18-0.83-0.43-1.23-1.1-1.48c-0.96-0.36-1.95-0.64-2.89-1.04
			c-1.36-0.58-2.25-1.53-2.11-3.16c0.14-1.56,1.04-2.44,2.47-2.92c1.66-0.57,3.19-0.13,4.72,0.49c0.57,0.23,0.86,0.58,0.57,1.17
			c-0.26,0.54-0.52,1.01-1.35,0.69c-1.38-0.53-3.38-1.67-3.96,0.32c-0.51,1.75,1.89,1.73,3.11,2.25c1.81,0.77,3.2,1.68,2.77,3.95
			C552.65,376.27,551.09,377.31,548.89,377.33z"/>
		<path class="st2" d="M121.82,377.32c-2.05-0.01-3.23-0.9-3.39-2.87c-0.1-1.19-0.04-2.4-0.05-3.6c-0.01-0.6,0.25-1.52-0.04-1.75
			c-2.41-1.92,0.15-3.72,0.04-5.55c-0.06-0.93,0.46-1.15,1.28-1.16c0.88-0.01,1.3,0.34,1.18,1.22c-0.2,1.54,0.39,2.26,2,2.05
			c0.63-0.08,1.19,0.01,1.2,0.9c0.01,0.87-0.35,1.34-1.21,1.21c-1.87-0.29-2.12,0.75-2,2.25c0.09,1.11,0,2.23,0.04,3.34
			c0.03,0.83,0.3,1.49,1.26,1.66c0.74,0.14,2.12-0.62,1.82,1.16C123.71,377.57,122.48,377.03,121.82,377.32z"/>
		<path class="st2" d="M263.86,377.43c-2.81-0.04-5.15-1.72-5.9-4.12c-0.79-2.55-0.16-4.77,1.83-6.51c1.91-1.68,4.85-1.91,6.96-0.58
			c0.55,0.34,1.67,0.56,0.89,1.66c-0.5,0.72-1.02,0.97-1.91,0.38c-1.75-1.16-3.49-0.96-4.79,0.71c-1.18,1.51-1.2,3.25-0.02,4.78
			c1.37,1.77,3.19,1.95,5.01,0.73c0.93-0.62,1.45-0.26,1.89,0.43c0.57,0.89-0.4,1.13-0.84,1.48
			C266.02,377.16,264.82,377.36,263.86,377.43z"/>
		<path class="st2" d="M396.22,377.32c-2.06-0.03-3.24-0.86-3.42-2.7c-0.14-1.44-0.05-2.91-0.16-4.36c-0.08-0.97,0.6-2.28-1.12-2.66
			c-0.55-0.12-0.41-1.31-0.35-1.32c2.35-0.33,0.42-3.52,2.6-3.87c0.92-0.15,1.54,0.17,1.39,1.24c-0.24,1.59,0.41,2.23,1.99,2.01
			c0.66-0.09,1.16,0.05,1.17,0.92c0.01,0.88-0.36,1.33-1.21,1.19c-1.97-0.33-2.04,0.85-1.95,2.28c0.06,1.11,0.02,2.23,0.02,3.34
			c0,0.87,0.31,1.45,1.27,1.62c0.68,0.12,1.89-0.62,1.83,0.96C398.22,377.65,396.74,376.89,396.22,377.32z"/>
		<path class="st2" d="M337.11,371.61c-0.29-1.35,0.8-3.26-1.31-4.3c-0.17-0.08-0.05-1.35,0.1-1.38c1.45-0.36,1.2-1.47,1.21-2.46
			c0-0.99,0.63-1.05,1.38-1.06c0.81-0.01,1.1,0.43,1,1.13c-0.25,1.71,0.44,2.39,2.14,2.15c0.79-0.11,1.03,0.34,1.02,1.08
			c-0.01,0.78-0.37,1.16-1.1,1.02c-2.16-0.42-2.16,0.91-2.07,2.41c0.06,0.85,0.02,1.72,0.01,2.57c-0.01,1.36,0.32,2.43,2,2.28
			c0.73-0.07,1.13,0.11,1.1,0.94c-0.02,0.74-0.37,0.99-1.05,1.18c-2.5,0.73-4.27-0.45-4.43-3.07
			C337.07,373.33,337.11,372.55,337.11,371.61z"/>
		<path class="st2" d="M559.72,377.33c-1.99-0.12-3.2-0.93-3.22-2.99c-0.01-1.54,0.03-3.09-0.02-4.63c-0.02-0.77,0.36-1.71-0.97-2
			c-0.87-0.19-0.72-1.55-0.39-1.65c1.55-0.52,1.38-1.69,1.4-2.86c0.01-0.71,0.53-0.76,1.07-0.78c0.66-0.03,1.3,0.06,1.21,0.9
			c-0.16,1.66,0.26,2.67,2.2,2.39c0.55-0.08,1,0.16,1,0.85c0,0.66-0.12,1.33-0.93,1.21c-2.78-0.42-2.23,1.52-2.25,3.06
			c-0.01,0.86-0.04,1.72,0.03,2.57c0.07,0.78,0.29,1.49,1.28,1.66c0.69,0.12,1.95-0.58,1.84,0.97
			C561.87,377.56,560.51,377.07,559.72,377.33z"/>
		<path class="st2" d="M71.4,369.44c0,2.05,0,4.11,0,6.16c0,0.78,0.12,1.52-1.1,1.55c-1.33,0.04-1.29-0.72-1.28-1.63
			c0.02-2.99-0.03-5.99,0.02-8.98c0.03-1.4-0.1-2.45-1.92-1.82c-0.72,0.25-1.08-0.1-1.31-0.78c-0.27-0.81,0.18-0.99,0.79-1.27
			c4.03-1.9,4.79-1.44,4.79,2.93C71.4,366.87,71.4,368.15,71.4,369.44z"/>
		<path class="st2" d="M493.19,369.25c0,2.14-0.01,4.27,0.01,6.41c0.01,0.8,0.09,1.5-1.12,1.5c-1.18,0-1.39-0.5-1.38-1.54
			c0.05-4.27,0.03-8.55,0.01-12.82c0-0.91-0.02-1.66,1.29-1.67c1.4-0.01,1.19,0.88,1.19,1.71
			C493.19,364.98,493.19,367.12,493.19,369.25z"/>
		<path class="st2" d="M291.27,369.28c0-2.23,0.01-4.46-0.01-6.69c-0.01-0.88,0.11-1.46,1.23-1.46c1.11,0,1.25,0.57,1.24,1.45
			c-0.02,4.37-0.03,8.75,0,13.12c0,0.9-0.14,1.43-1.24,1.44c-1.1,0-1.25-0.53-1.24-1.43C291.3,373.57,291.28,371.43,291.27,369.28z"
			/>
		<path class="st2" d="M154.2,371.35c0-1.46,0.06-2.92-0.02-4.38c-0.09-1.82,1.61-1.65,1.97-1.15c1.08,1.53,1.76,0.64,2.75,0.07
			c0.5-0.29,1.49-1.12,1.86,0.15c0.21,0.72,0.5,1.86-0.76,2.09c-2.89,0.54-3.32,2.59-3.23,5.01c0.02,0.6,0.03,1.2,0,1.8
			c-0.05,0.96,0.35,2.16-1.35,2.18c-1.87,0.02-1.12-1.34-1.19-2.18C154.13,373.76,154.2,372.55,154.2,371.35z"/>
		<path class="st2" d="M287.39,371.22c0,1.54-0.02,3.08,0.01,4.62c0.01,0.75-0.02,1.35-1.04,1.31c-0.87-0.03-1.45-0.12-1.43-1.24
			c0.06-2.99,0.06-5.98,0-8.97c-0.02-1.06,0.4-1.3,1.35-1.3c0.93-0.01,1.16,0.38,1.14,1.23
			C287.36,368.32,287.39,369.77,287.39,371.22z"/>
		<path class="st2" d="M332.76,371.15c0,1.55,0,3.09,0,4.64c0,0.72,0.02,1.37-1.03,1.35c-0.91-0.02-1.5-0.24-1.5-1.27
			c0-3.01,0.01-6.01,0-9.02c0-1.1,0.7-1.18,1.56-1.2c1.08-0.02,0.98,0.68,0.98,1.38C332.75,368.4,332.76,369.78,332.76,371.15z"/>
		<path class="st2" d="M454.52,371.17c0-1.29,0.01-2.57,0-3.86c-0.01-0.86-0.18-1.68,1.2-1.69c1.25-0.01,1.36,0.56,1.34,1.56
			c-0.05,2.74-0.01,5.49-0.02,8.23c0,0.83,0.21,1.7-1.19,1.73c-1.54,0.03-1.34-0.92-1.34-1.86
			C454.53,373.92,454.52,372.55,454.52,371.17z"/>
		<path class="st2" d="M367.97,371.48c0,1.37-0.01,2.75,0,4.12c0,0.8,0.04,1.52-1.14,1.54c-1.12,0.02-1.24-0.56-1.24-1.44
			c0.03-2.84,0.01-5.67,0.01-8.51c0-0.8-0.06-1.53,1.14-1.54c1.11-0.01,1.27,0.54,1.24,1.44
			C367.94,368.55,367.97,370.01,367.97,371.48z"/>
		<path class="st2" d="M422.02,314.92c-0.09,1.52-0.98,2.22-2.33,2.19c-1.25-0.03-2.1-0.78-2.09-2.1c0.01-1.37,0.69-2.29,2.17-2.27
			C421.19,312.76,421.94,313.54,422.02,314.92z"/>
		<path class="st2" d="M435.42,314.93c-0.2,1.4-0.96,2.23-2.38,2.18c-1.25-0.05-2.14-0.73-2.15-2.07c-0.01-1.39,0.73-2.29,2.18-2.31
			C434.5,312.72,435.2,313.61,435.42,314.93z"/>
		<path class="st2" d="M160.41,379.8c1.46-0.97,2.56-1.84,0.84-3.44c-0.31-0.29-0.31-1.35,0.22-1.9c0.46-0.48,1.14-0.3,1.7-0.21
			c0.97,0.15,0.71,1,0.73,1.64C164.02,378.92,163.18,379.96,160.41,379.8z"/>
		<path class="st1" d="M569.97,342.33c-0.53-1.98,0.71-1.8,2.01-1.93c1.97-0.2,1.67,1,1.78,2.22c0.14,1.58-0.39,2-1.99,2.04
			C569.76,344.71,569.7,343.71,569.97,342.33z"/>
		<path class="st2" d="M368.13,362.58c-0.07,1.37-1.01,1.06-1.72,1.07c-0.9,0.01-1.19-0.53-1.07-1.35c0.16-1.09,0.99-0.98,1.77-0.97
			C368.09,361.34,368.2,361.95,368.13,362.58z"/>
		<path class="st2" d="M331.55,361.33c0.67-0.06,1.28-0.02,1.3,0.99c0.01,0.92-0.17,1.43-1.25,1.37c-0.9-0.05-1.45-0.24-1.45-1.29
			C330.16,361.42,330.76,361.33,331.55,361.33z"/>
		<path class="st2" d="M287.43,362.84c0.06,0.99-0.73,0.8-1.38,0.83c-1.01,0.05-1.34-0.49-1.27-1.42c0.1-1.19,1.01-0.88,1.72-0.91
			C287.54,361.3,287.42,362.07,287.43,362.84z"/>
		<path class="st2" d="M455.96,361.33c0.94-0.13,1.21,0.4,1.2,1.36c-0.02,1.06-0.69,0.96-1.39,0.99c-0.99,0.05-1.38-0.37-1.35-1.36
			C454.46,361.27,455.16,361.35,455.96,361.33z"/>
		<path class="st0" d="M538.12,298.69c11.29,0.01,20.16,9.33,20.19,21.23c0.03,11.87-8.84,21.27-20.14,21.32
			c-11.22,0.05-19.56-9.05-19.59-21.37C518.56,307.31,526.51,298.68,538.12,298.69z"/>
		<path class="st0" d="M446.01,300.98c-5.27,1-10.02,0.89-14.7-0.37c-2.98-0.8-5.48-2.46-7.08-5.21c-1.56-2.68-0.56-5.15,2.45-5.98
			c2.56-0.71,4.97,0,7.21,1.15C438.61,292.99,442.39,296.55,446.01,300.98z"/>
		<path class="st0" d="M597.88,336.42c-0.02-3.08,2.08-5.27,5.05-5.28c3.05-0.01,5.23,2.27,5.2,5.43c-0.03,3.02-2.28,5.3-5.17,5.24
			C600.11,341.76,597.9,339.41,597.88,336.42z"/>
		<path class="st0" d="M240.72,375.1c-1.55-0.06-2.6-0.69-2.62-2.27c-0.02-1.12,0.79-2.35,1.75-2.15c1.48,0.31,2.78,1.65,3.13,3.04
			C243.22,374.75,241.64,374.95,240.72,375.1z"/>
		<path class="st0" d="M241.24,367.6c-0.78-0.29-1.23-0.96-1.32-1.83c-0.12-1.21,0.46-1.98,1.71-2.05c0.98-0.05,1.67,0.5,1.73,1.49
			C243.44,366.54,242.46,367.11,241.24,367.6z"/>
		<path class="st0" d="M57.16,371.38c-1.07-0.08-2.15,0.26-1.94-1.2c0.21-1.39,0.06-3.1,2.33-2.74c0.67,0.1,1.79-0.32,1.47,1.03
			C58.74,369.7,59.36,371.72,57.16,371.38z"/>
		<path class="st0" d="M211.1,371.61c-0.1,2.08-1.52,3.52-3.38,3.44c-1.86-0.08-3.41-1.92-3.29-3.9c0.12-1.95,1.65-3.45,3.49-3.42
			C209.88,367.77,211.21,369.39,211.1,371.61z"/>
		<path class="st0" d="M179.98,367.73c1.95,0.04,3.32,1.69,3.23,3.86c-0.09,2.04-1.54,3.52-3.39,3.46c-1.86-0.06-3.41-1.89-3.3-3.89
			C176.63,369.2,178.15,367.69,179.98,367.73z"/>
		<path class="st0" d="M302.85,375.05c-1.84,0.01-3.21-1.49-3.26-3.57c-0.06-2.24,1.29-3.78,3.29-3.75c1.84,0.03,3.3,1.56,3.36,3.53
			C306.3,373.28,304.72,375.04,302.85,375.05z"/>
		<path class="st0" d="M469.49,371.3c0.03,2.14-1.44,3.77-3.38,3.74c-1.79-0.02-3.23-1.62-3.27-3.61c-0.04-2.14,1.43-3.75,3.39-3.71
			C468.12,367.77,469.46,369.24,469.49,371.3z"/>
		<path class="st0" d="M481,367.72c1.86-0.02,3.31,1.46,3.39,3.47c0.08,2.09-1.4,3.82-3.29,3.85c-1.87,0.03-3.42-1.69-3.39-3.77
			C477.74,369.26,479.14,367.75,481,367.72z"/>
		<path class="st0" d="M420.2,370.7c-0.96-0.64-2.67,0.72-2.79-0.96c-0.11-1.37,1.26-2.2,2.69-2.18c1.44,0.02,2.73,0.94,2.61,2.28
			C422.57,371.3,420.94,370.01,420.2,370.7z"/>
		<path class="st0" d="M350.28,370.74c-0.96-0.62-2.58,0.57-2.63-1.02c-0.04-1.43,1.28-2.19,2.72-2.15
			c1.33,0.04,2.58,0.82,2.47,2.13C352.69,371.5,350.95,369.84,350.28,370.74z"/>
		<path class="st0" d="M145.61,370.63c-0.86-0.47-2.45,0.61-2.55-0.82c-0.09-1.37,1.23-2.24,2.66-2.25c1.44-0.01,2.8,0.92,2.65,2.24
			C148.21,371.35,146.51,370.11,145.61,370.63z"/>
		<path class="st0" d="M499.18,369.75c0.13-0.76,0.6-1.39,1.29-1.78c1.06-0.61,2.14-0.57,3.13,0.18c0.56,0.43,0.96,0.99,0.97,1.73
			c0,0.4-0.31,0.6-0.67,0.61c-1.37,0.02-2.75,0.02-4.12-0.01C499.4,370.47,499.17,370.21,499.18,369.75z"/>
		<path class="st0" d="M112.27,371.3c0.07,2.04-1.46,3.72-3.42,3.75c-1.96,0.03-3.54-1.54-3.6-3.58c-0.06-2.11,1.38-3.7,3.39-3.74
			C110.61,367.69,112.2,369.26,112.27,371.3z"/>
		<path class="st0" d="M536.85,371.8c0.85,0.26,2.34-0.23,2.09,1.47c-0.24,1.64-1.53,2.19-3.02,2.2c-1.12,0.01-2.17-0.43-2.13-1.72
			C533.86,371.8,535.42,371.86,536.85,371.8z"/>
		<path class="st0" d="M193.9,371.81c0.78,0.27,2.18-0.22,2.06,1.26c-0.14,1.78-1.5,2.4-3.11,2.4c-1.13,0-2.16-0.5-2.07-1.78
			C190.92,371.77,192.48,371.85,193.9,371.81z"/>
	</g>
</g>
</svg>
