<?xml version="1.0" encoding="utf-8"?>
<!-- Generator: Adobe Illustrator 19.2.1, SVG Export Plug-In . SVG Version: 6.00 Build 0)  -->
<svg version="1.1" id="layer" xmlns="http://www.w3.org/2000/svg" xmlns:xlink="http://www.w3.org/1999/xlink" x="0px" y="0px"
	 viewBox="0 0 652 652" style="enable-background:new 0 0 652 652;" xml:space="preserve">
<path d="M429.4,271.3v14.5h36.9v93.4H484v-93.4h36.3v-14.5H429.4z M122.8,271.4l-35.3,83.2l-35.3-83.2H26V379h17l-1.2-93.4L81,379
	h12.5l39.5-93.4L132,379h16.6V271.4H122.8z M251.9,271.4l-33.6,80.2l-33.4-80.2h-18.6L213.2,379h10.4l46.7-107.6H251.9z
	 M384.6,271.4l-35.3,83.2L314,271.4h-26.2V379h17l-1.2-93.4l39.3,93.4h12.5l39.5-93.4l-1.2,93.4h16.6V271.4H384.6z M579.4,328.3
	c1.3-1.8,1.3-4.3,0-6.1L541,272.5c-1.3-1.7-2.4-1.2-2.4,1v103.4c0,2.2,1,2.6,2.4,1L579.4,328.3z M585.2,322.2
	c-1.3,1.8-1.3,4.3,0,6.1l38.4,49.7c1.3,1.7,2.4,1.2,2.4-1V273.5c0-2.2-1-2.6-2.4-1L585.2,322.2z"/>
</svg>
