<?xml version="1.0" encoding="utf-8"?>
<!-- Generator: Adobe Illustrator 23.0.0, SVG Export Plug-In . SVG Version: 6.00 Build 0)  -->
<svg version="1.1"
	 id="svg2" xmlns:cc="http://creativecommons.org/ns#" xmlns:dc="http://purl.org/dc/elements/1.1/" xmlns:inkscape="http://www.inkscape.org/namespaces/inkscape" xmlns:rdf="http://www.w3.org/1999/02/22-rdf-syntax-ns#" xmlns:sodipodi="http://sodipodi.sourceforge.net/DTD/sodipodi-0.dtd" xmlns:svg="http://www.w3.org/2000/svg"
	 xmlns="http://www.w3.org/2000/svg" xmlns:xlink="http://www.w3.org/1999/xlink" x="0px" y="0px" viewBox="0 0 500 240"
	 style="enable-background:new 0 0 500 240;" xml:space="preserve">
<style type="text/css">
	.st0{fill:#231F20;}
</style>
<sodipodi:namedview  bordercolor="#666666" borderopacity="1" gridtolerance="10" guidetolerance="10" id="namedview35" inkscape:current-layer="svg2" inkscape:cx="305.96738" inkscape:cy="101.65201" inkscape:pageopacity="0" inkscape:pageshadow="2" inkscape:window-height="1003" inkscape:window-maximized="1" inkscape:window-width="1680" inkscape:window-x="-4" inkscape:window-y="-4" inkscape:zoom="1.2764184" objecttolerance="10" pagecolor="#ffffff" showgrid="false">
	</sodipodi:namedview>
<sodipodi:namedview  bordercolor="#666666" borderopacity="1" fit-margin-bottom="0" fit-margin-left="0" fit-margin-right="0" fit-margin-top="0" gridtolerance="10" guidetolerance="10" id="namedview3875" inkscape:current-layer="g3881" inkscape:cx="836.55822" inkscape:cy="-249.2839" inkscape:pageopacity="0" inkscape:pageshadow="2" inkscape:window-height="1028" inkscape:window-maximized="1" inkscape:window-width="1920" inkscape:window-x="-8" inkscape:window-y="-8" inkscape:zoom="0.47532087" objecttolerance="10" pagecolor="#ffffff" showgrid="false">
	</sodipodi:namedview>
<path class="st0" d="M78.5,27c-1.8-0.3-2.1,0.2-2.8,1.1c-0.3,0.4-0.5,0.8-0.5,1.3c-7.3,34.9-10.7,70.2-12.7,105.7
	c-0.1,2.6-0.5,9.8-0.7,12.3c-0.1,0.6-0.1,1.2-0.3,1.8c-1.5-2.7-2-6.7-2.9-9.7c-1-3.6-1.9-7.1-2.8-10.7c-1.7-7-3.3-14-4.8-21.1
	c-4.8-23.3-8.3-47.1-11.1-70.6v-0.2c-0.3-2-0.9-3.7-2.7-4.4s-4.3-0.7-5,1.6c-1.1,3.5-1,7.3-1,10.9c0.1,6,0.4,12,0.8,18.1
	c0.5,6.7,0.6,13.4,0.3,20.1c-0.7,13.2-1.4,26.4-2.6,39.6c-0.4,4.2-0.8,8.3-1.2,12.5c-0.7,6.9-2,13.6-2.8,20.5l-0.5,3.7l-2.3,9.7
	l-2.5,11.9l-0.9,4.1l-0.3,1.7c-0.1,0.7-0.1,1.7-0.6,2.2c-0.3,0.3-0.8,0.5-1.2,0.4c-1.1-2.7-2.1-5.5-2.8-8.4
	c-0.4-1.6-0.8-6.1-3.5-5.6c-1.3,0.2-1.7,1.8-1.5,2.9c0.2,1.8,0.7,3.7,1,5.5c0.7,3.7,1.4,7.4,2.2,11.1c0.3,1.3,0.5,2.6,0.7,3.9
	c0.1,1.5,0.4,3.1,0.8,4.6c0.3,1.2,0.9,2.4,1.7,3.4c0.7,0.8,2.4,1.1,3.5,1c1.2,0,2.4-0.6,3.2-1.6c0.3-0.5,0.6-1,0.9-1.5
	c1.8-4.2,2.6-8.6,3.5-13.1c0.9-4.6,1.7-9.2,2.4-13.9c1.5-9.3,2.8-18.6,3.8-27.9c0.2-2.2,0.5-4.4,0.7-6.6c1.6-16.4,2.9-33,3-49.4h0
	c2.4,14.2,3.9,28.6,6.8,42.7c2.8,14.1,7.2,27.9,11.3,41.7c1.7,5.6,4.1,16.8,10.6,18.4c1.9,0.5,4.2,0,5.4-1.6
	c1.4-1.8,0.5-4.4-0.3-6.3s-1.7-3.9-1.5-5.9c0.5-4.7-0.2-9.4-0.5-14.1c0-13.3-0.4-26.6-0.1-39.9c0.4-21.3,3.2-42.3,5.8-63.4l0.7-5.8
	L79.3,39l1.4-6.4C81.2,30,80.2,27.3,78.5,27L78.5,27z"/>
<path class="st0" d="M252,145.5c-0.9-0.2-1.9,0.1-2.4,0.9c-1.5,2.1-1.3,5.9-2,8.3c-0.3,1-0.7,3.9-2.1,3.3c-1.5-0.5-1.9-6.8-2.1-8.2
	c-0.9-6.7-1.1-13.4-0.7-20.1c0.3-5.8,0.8-11.6,1.1-17.4c0.2-3.3,0.9-6.7,0.6-10c-0.1-1.2-0.2-3.5-1.2-4.4c-1.3-1.3-3,0.4-3.9,1.8
	c-0.7,1.3-1.2,2.8-1.4,4.2c-2,8.9-4.3,17.8-6.8,26.7c-1.3,4.5-2.6,8.9-3.9,13.4c-0.3,1-0.8,4.7-2.1,4.9c-1.4,0.2-1.2-2.6-1.2-3.7
	c-0.5-10.3-0.7-20.6-0.9-31c-0.1-5.9-0.1-11.9-1.2-17.7c-0.2-0.9-0.4-1.9-1.2-2.4c-1.5-1.1-2.3,0.9-2.8,1.9
	c-0.9,1.4-2.8,7.9-2.8,9.2c0.5,7.9,0.5,12.4,0,14.7l-2.3,9.2c-0.5,0.9-2.8,10.6-2.8,10.6l-0.5,1.8l-1.4,6.4
	c-0.4,1.4-0.9,2.8-1.4,4.1l-1.4,0.9c-2.1-6.3-2-13.9-2.2-20.5c-0.2-7.6,0.1-15.2,0.9-22.8c0.3-2.4,0.6-4.8,1-7.2c0.3-1,0.3-2,0-3
	c-0.5-1.3-1.7-1.6-2.9-1.2c-1.9,0.6-1.4,1.6-3.5,0.4c-1.1-0.7-2.4-0.3-3.6,0.2c-8,3.7-11.7,13.1-14.3,20.9c-3,9-4.4,18.5-5.1,28
	c-0.2,2.3-0.3,4.6-0.7,6.9c-0.2,1.4-0.7,6.4-2.1,7.2c-2,1-2.9-9-3.1-10.5c-0.5-3.9-0.7-7.9-0.8-11.9c-0.4-11.1-0.7-22.1-0.7-33.2
	c0-1.7,1.5-9.7,0-10.2c-1.7-0.6-3.1-0.3-3.8,1.6c-0.3,1-0.5,2.1-0.5,3.2c-0.3,2.5-1.3,4.9-2.1,7.4c-1.5,4.7-2.7,9.4-3.7,14.2
	c-0.8,4.1-1.8,8.2-2.7,12.3c-0.8,3.4-0.9,8.3-2.9,11.2c-1.2-1.9-1.1-4.3-1.1-6.4c-0.1-12.6-0.2-25.2,1.3-37.7
	c0.2-0.9,0.2-1.8-0.1-2.7c-0.4-1.4-1.8-2-2.8-0.9c-0.4,0.5-0.7,1.1-0.8,1.7l-3.1,9.9c-1,3.1-1.9,6.1-2.8,9.2c-0.5,1.9-1,3.8-1.5,5.6
	c-0.4,1.6-0.7,4.1-1.6,5.4c-0.3-1.1-0.5-2.3-0.4-3.4c-0.3-7.4,1.1-15,0-22.3c-0.3-2.2-0.9-4.3-1.1-6.5c-0.2-1.5-0.1-3-0.4-4.6
	c0-0.3-0.1-0.5-0.3-0.8c-0.2-0.2-0.4-0.3-0.6-0.4c-0.8-0.4-1.7-0.8-2.6-1.1c-0.4-0.2-2.4,3.6-2.7,4.5l-1.4,3.9l-3.3,9.5l-0.8,2.3
	l-3.2,15.2c-0.7,2.3-1.3,4.7-1.7,7.1c-0.6,3.2-1.3,6.3-2.1,9.4l-0.6,2c-0.5,1.8-1,3.6-1.5,5.3c-0.9,2.7-1.9,5.4-2.9,8.1
	c-0.3,0.7-0.8,3.1-1.7,3c-0.5-1.1-0.8-2.3-0.9-3.4c-0.1-5.4,0.7-10.6,1.2-16c0.5-5.6,1-11.3,1.3-17c0.1-1.4,0.1-2.7,0.3-4
	s0.5-2.5,0.7-3.7c0.8-4.4,1.1-9,0.8-13.5c-0.1-1.5,0.2-4.4-1-5.5s-2.9-0.1-3.8,0.9c-1.8,1.8-3.2,4-4.1,6.4c-0.9,2.7-1.4,5.4-1.6,8.2
	c-0.9,7.5-1.8,15.1-2.8,22.6c-0.4,3.4-0.9,6.8-1.7,10.1c-1.6,6.2-4.6,11.9-7.4,17.7l-3.3,6.5c-0.2,0.6-0.6,1-1.2,1.3
	c-2.4-2.4-4.1-5.4-5-8.7c-0.7-2.4-0.8-5,0-7.5c0.8-2.4,2.4-4.6,3.7-6.8c3.4-5.9,5.2-12.5,6.9-19.1c1.5-5.8,3-11.7,3.1-17.7
	c0.1-3.8-0.4-8.5-2.7-11.7c-2.2-3.1-6.7-2.4-9.5-0.5s-4.5,4.7-5.9,7.7c-3.3,7.2-4.6,15.3-5.6,23.2c-0.9,6.7-1.7,13.5-1.3,20.3
	c0.2,3.5,0.8,6.9,1.7,10.3c0.9,3.3-0.7,4.5-2.7,6.9c-1,1-1.8,2.2-2.6,3.4c-0.8,1.4-1.3,3-2.4,4.2c-0.5,0.4-0.9,0.9-1.2,1.5
	c-0.4,0.6-0.3,1.3,0.1,1.8l2.1,0.4c2.2-2.8,4.3-5.7,6.8-8.3c0.7-0.7,2.6-3,3.7-2.8c1.1,0.3,3.1,4.5,3.9,5.4c1,1.3,2.1,2.5,3.6,3.1
	c2.1,0.8,4.5-0.1,6.2-1.5c1.7-1.5,2.8-3.5,3.9-5.5c1.9-3.3,2.9-7.6,5.7-10.4c0.5,0.5,0.8,1.2,0.9,1.9c0,0.7,0,1.3,0,2
	c0.1,1.5,0.3,3,0.7,4.5c0.3,1.5,0.5,2.9,0.8,4.4c0.4,2.3,2.6,3.9,4.8,4h0.2c3.3,0,4.3-3.4,5.6-5.8c1.6-3.2,3-6.6,4.1-10
	c3.8-10.9,6.1-22.5,8.8-33.7c0.5-2.2,1-4.4,1.6-6.6c0.3-1.2,0.5-4.6,1.6-5.1c1.3,2.1,1.4,4.9,1.4,7.3c0,0.5-0.5,5.5-0.5,5.5
	c0,1.4-0.5,7.4-0.5,7.4l-0.9,7.4v6.4c-0.5,6-0.5,8.3-1.8,13.8c-1.1,4.3-1.7,8.7-2.5,13c-0.1,0.3-0.1,0.6-0.1,0.9
	c0.1,0.7,0.6,1.2,1.3,1.5c3,1.2,5.9-1.8,7.2-4.2c1.7-2.9,2-6.4,2.5-9.7c0.6-4.3,1.5-8.5,2.5-12.7c0.5-2.2,1.1-4.3,1.7-6.5
	c0.4-1.4,0.6-4.3,1.7-5.2c0.6,4.7,0.5,9.7,1.1,14.5c0.5,4.9,1.3,9.8,2.1,14.7c0.1,0.9,0.3,1.7,0.7,2.5c0.7,1.4,3.3,3.7,5,3.7
	c3.3,0,3-6.2,3.1-8.7c0.4-5,1-9.9,1.9-14.8c0.5-2.4,1-4.9,1.6-7.3c0.3-1.4,0.8-5.5,2.1-6.1c0,0.2,0,0.3,0,0.5c0,0,0.5,4.6,0.5,5.5
	l0.5,2.8v0.5c0,0,0.5,4.1,0.9,7.9c0,1.8,2.3,12.9,3.7,15.2c0,0,1.8,4.6,4.6,5.1l0.9-0.9l0.9-1.4l0.9-1.4c0-0.9,3.2-6,4.1-9.2
	c-0.3,1.2,1.5,4.7,2,5.9c0.9,2.3,2.3,4.4,4.1,6.1c2.7,2.3,4.4,1.1,6.3-1.4l0.5-0.5l1.8-3.2l3.7-6l1.4,0.5l0.9,6l1,2.7
	c0.9,1.4,1.4,1.8,2.8,1.8c4.4,0,5.8-12.4,6.6-15.4c1-3.9,2.1-7.8,3.1-11.7c0.5-1.8,2-10.6,3.6-10.8c0,0.3,0.1,0.7,0.1,1
	c-0.9,8.7-0.9,22.1-0.9,22.1c0.7,4.7,0.5,10.5,3.1,14.7c0.3,0.5,0.7,0.9,1.1,1.2c0.7,0.3,1.5,0.3,2.1,0s1.2-0.8,1.7-1.4
	c2.3-2.8,2.6-6.5,3.5-10c1.1-4,2.5-7.9,3.8-11.8c0.9-2.7,1.6-5.4,2.2-8.2c0.3-1.4,0.2-6.2,1.7-6.6c0.7,2.4,0.1,5.7,0.1,8.2
	c0,0,0,7.9,0.5,8.7c0,0.5,1.4,10.6,1.4,10.6l0.9,4.6l0.5,2.3c2,2.4,4,5.4,6.9,2c2.1-2.4,3.3-5.5,4.3-8.5c1.1-3.2,2.2-6.5,3.1-9.8
	c0.8-2.7,2.3-6.1,2.2-9c0-0.7-0.3-1.4-0.9-1.8C252.3,145.5,252.2,145.5,252,145.5L252,145.5z M83.6,147.7c-0.3-0.9-0.5-1.9-0.5-2.9
	c-0.1-1.8-0.1-3.7-0.1-5.5c0.2-11.3,2.6-22.4,7-32.8c0.6-1.3,1.4-2.8,2.9-2.8c1,7.3,0.2,14.9-1.5,22.1c-1.7,7.2-4.3,14.2-6.9,21.1
	C84.1,148,83.8,148.1,83.6,147.7L83.6,147.7z M197.6,107.9l-1.4,6.4c0,0.9-2.3,19.3-2.3,19.3v2.8c0,1.4,0.5,6,0.5,6v0.5
	c0,0,0.5,8.3,0.9,12.4v0.9c-0.2,0.8-0.5,1.6-0.9,2.3l-1.9,2.3l-0.9,0.9l-1.8,0.5c-1.4-1.8-2.8-8.7-2.8-8.7l-0.5-4.6
	c0,0-0.9-6-0.9-6.9c0-8.7,1.2-17.4,3.7-25.8l0.9-3.7l0.9-2.8c0.9-2.8,1.4-4.1,4.1-6.4l0.9-0.5h0.9l1.4,1.8L197.6,107.9z M115.3,89.5
	c0.6,0,1.3-0.2,1.8-0.5c1.2-0.7,2.2-1.6,2.9-2.7c1-1.3,2-2.8,2.1-4.4c0.1-1.8-0.6-3.6-2-4.9c-2-2-5.5-4.2-7.6-1.2
	c-0.6,1-1,2.1-1.1,3.3c-0.3,2.2-0.3,4.4,0.1,6.5c0.2,1.2,0.7,2.5,1.6,3.2C113.9,89.4,114.6,89.6,115.3,89.5z M492.7,147.5
	L492.7,147.5c-0.2-0.1-0.4-0.3-0.6-0.3c-0.3-0.1-0.5-0.1-0.8-0.1l-0.9-0.3c-0.9-0.5-1.8-0.6-2.3-0.9l-5.5-1.8l-0.9-0.5l-1.8-11.2
	c-0.1-0.7-0.2-1.4-0.4-2.1c0,0-1-8-1-9.8v-0.9l0.5-9.2l0.5-3.7l0.9-4.6c0,0,0.3-3.2,0-4.1c-0.4-0.4-0.9-0.7-1.4-0.9
	c-2.7,0-3.5,2.4-4.2,4.7c-2.8,10.2-6.6,20-10.2,30c-1.7,4.9-3.4,9.8-4.9,14.8c-0.7,2.6-1.4,5.1-2.1,7.7c-0.6,2.4-0.1,4.9-2.6,5.8
	c-0.7-0.5-0.8-1.5-0.9-2.4c-1.3-19.2-1.5-38.7,2.5-57.5c0.4-0.7,0.1-1.6-0.6-1.9c-0.3-0.1-0.6-0.2-0.9-0.1c-1.4-0.2-2.8-0.2-4.2,0
	c-1.4,0.2-2.7,1-3.5,2.2c-0.4,0.8-0.7,1.6-0.8,2.5c-2,12.2-1.2,24.9-4.2,36.9c-1.1,4.1-2.4,8.1-4,12c-0.9,2.5-2.2,4.9-3.6,7.1
	c-2.1-0.7-1.7-9.1-1.8-10.8c-0.4-5.6-0.2-11.2,0.4-16.8c0.6-5.8,1.5-11.5,2.4-17.2c0.5-2.9,0.9-5.7,1.3-8.6c0.1-0.9,1.5-7.4,1-7.9
	c-1.7-1.2-3.7-1.8-5.8-1.8c-0.8,0-1.5,0.2-2.2,0.5c-1.6,0.9-2.1,2.8-2.5,4.6c-2.3,10.4-2.7,20.9-6,31.1c-3.1,9.6-7.3,18.8-13.2,27
	c-0.7,1-1.9,2.1-3,1.7c-4.1-7.2-5.4-15.7-5.3-24.1c0.2-11,2.8-21.9,7.5-31.9c0.4-1,1-1.9,1.8-2.6c4.9-4.2,3.8,7.4,3.2,9.4
	c-0.9,2.9-2.4,5.7-3.5,8.6c-0.4,0.8-0.6,1.7-0.6,2.6c0,0.9,0.3,1.8,1,2.3c0.9,0.5,2,0.5,2.9,0s1.6-1.3,2.1-2.1
	c3.1-4.6,3.1-10.3,3.4-15.6c0.3-4.5-2.2-8.6-6.3-10.5c-0.7-0.3-1.5-0.5-2.4-0.5c-1.6,0-3.1,1.1-4.2,2.2c-2.1,2.1-3.8,4.6-5,7.3
	c-3.3,6.7-5.7,13.8-7.1,21.2c-0.9,4.7-1.1,9.5-2.6,14.1c-1.4,4.1-3.3,8.1-5.8,11.6c-1.4,2-3,5.6-5.3,6.6c-2.9,1.3-2.1-5.6-2-7.4
	c0.6-9,1.7-18,3.3-27c0.6-3.9,1.5-7.7,2.7-11.5c0.8-2.5,1.8-4.9,2.9-7.3c0.7-1.4,2.9-4,0.9-5.4c-1.3-1-2.7-2.3-4.2-3.1
	c-2.5-1.2-4.8,2-6.5,3.8s-3.5,3.5-5.9,3.8c-0.9-1.4-1.3-3-1.4-4.7c0-1.2,0.2-2.3,0.1-3.5c0-0.3-0.1-0.5-0.1-0.8
	c0-0.1,0.1-0.2,0.1-0.3c0.1-1.1,0.2-1.6,0-2c-0.4-0.7-1-1.1-1.8-1.1c-1.2-0.1-2.5-0.7-3.3,1.7c-0.1,0.2,0,0.5,0.2,0.7
	c-0.9,2.6-1,7-1.1,8.3c-0.8,5.7-1.7,11.5-2.6,17.2c-1.8,11.3-3.9,22.6-6.1,33.8c-0.2,1-0.3,3.8-1.9,3.2c-1.4-0.6-2-6.1-2.2-7.4
	c-2.4-13.3-2.3-27,0.2-40.3c0.4-2.2,1-4.3,1.4-6.4c0.1-0.3,0.1-0.7,0.2-1c0.2-0.1,0.3-0.3,0.4-0.6c0.2-0.6,0.2-1.2,0-1.7
	c-0.1-0.6-0.1-1.5-1.3-2c-1.2-0.5-1.6-0.7-3.8,1.4c-0.1,0.1-0.1,0.3-0.1,0.4c-2.4-1.4-4.7-3.6-7.3-3c-1,0.3-1.9,0.9-2.6,1.8
	c-4.1,4.4-6.8,9.9-8.6,15.6c-2,6.2-2.5,12.6-4.2,18.8c-1.5,5.5-1.5,11.5-1.5,17.1c0,3.9,2,31.9,11.6,23.9c1-0.9,1.8-1.9,2.5-3
	c0.9-1.3,4.1-7.1,5.6-6.7c1.2,0.3,1.9,3.4,2.4,4.4c1.1,2.1,2.3,4.2,3.7,6.1c0.7,1,1.7,2,2.9,2c4,0.2,6.1-7,7-9.9
	c1.2-4.1,1.7-8.3,2.2-12.5c1.4-12.1,3.2-24.1,5.2-36c0.7,1.9,3.1,2.6,5,2.1s3.3-1.8,4.9-2.8c1.1,2.9-2.2,8.3-3,11.2
	c-1.1,4.2-2,8.4-2.7,12.6c-1.4,7.7-3.6,15.4-2.5,23.3c0.6,4.7,2.5,9,5.5,12.6c4.1-0.9,6.8-4.7,8.9-8.3c1.7-2.9,3.2-5.8,4.6-8.8
	c0.8-1.7,2.1-7.1,3.6-7.8c0.3,5.2,1.1,10.4,2.6,15.4c0.9,3.1,2,6.4,4.4,8.5c0.9,0.9,2.1,1.4,3.4,1.3c1.3-0.2,2.3-1.1,3.2-2
	c1.3-1.2,2.6-2.5,3.9-3.8c3.8-4.4,6.3-9.7,8.3-15c1.9-5.1,3.1-11.4,6.1-15.9c0.9,2,0.2,6,0.2,8.3v8.9c0,3.8,0,7.6,1.3,11.2
	c0.7,1.8,1.7,3.6,3.4,4.5c4.2,2.2,6.7-2.8,8-5.9l5.2-12c0.4-1,1.5-5,2.7-3.8c0.8,0.7,0.3,3.2,0.3,4.1c0.1,4.2,0.6,8.3,1.5,12.3
	c0.6,2.7,1.6,5.6,4.2,7c0.6,0.4,1.4,0.5,2.1,0.5c1.2-0.2,2.1-1.3,2.8-2.3c3.1-4.4,4.5-9.3,7-14c0.7,0.7,0.9,2.8,1.3,3.9
	c0.5,1.4,1.1,2.7,1.9,4c1.5,2.4,3.4,4.6,5.7,6.3c2.2,1.6,5.4,3.1,8.1,1.6c2.1-1.2,3.5-4,4.3-6.2c1.9-4.9,1.7-10.2,1.1-15.3
	c-0.2-1.7-1.7-5.6,0.2-5.9c1.9-0.3,5,1.7,6.9,2.5c1,0.7,2.5-0.1,2.6-1.4C493.4,148.6,493.2,147.9,492.7,147.5L492.7,147.5z
	 M344.1,114.3l-0.9,6.9l-0.9,6.9v4.6l-0.5,8.7l-0.5,2.8v6.9c0,3.7-0.5,5.1-2.3,8.3c-0.9,2.3-1.8,2.8-3.7,3.7c0-0.9-1.1-3.1-1.4-4.1
	v-2.7l-0.5-3.7l-0.5-2.3v-12.4c0-0.5,0.5-3.2,0.5-3.2V131l0.5-7.4l0.5-2.8l1.4-7.4l0.5-1.8l1.4-3.2c1.8-5.5,2.3-6.4,5.1-6.4l0.5,0.9
	l1.4,2.8c0.3,0.7,0.5,1.5,0.5,2.3C345,108.3,344.1,112.5,344.1,114.3L344.1,114.3z M472.5,164.5L472,165h-0.5
	c-2.9-0.2-5.5-6.4-5.5-7.4c-0.1-1.8,0.4-3.6,1.4-5.1l0.4-0.7l2-1.7l1.4-0.5h0.5l0.5,0.5c0,0,1.1,4.1,1.1,4.6
	c0.3,1.8,0.4,3.7,0.5,5.5C473.7,162.3,473.4,162.5,472.5,164.5L472.5,164.5z M473.5,127v2.2v1.1v1.5l-0.2,2.5l-0.2,3.8
	c0,1.4,0.5,2-0.4,4.2c-1,2.6-1.7,2.2-3.1,2.5c-0.7,0.1-2.4,0.7-2.9,0.7l0.8-4.5l0.4-2.2l1-3.1l1.8-5.8l0.9-3.2l0.4-1.3l1.5-4.1
	L473.5,127z"/>
<path class="st0" d="M325.1,152c-0.2,0-0.3,0-0.5,0.1c-1.9,1.3-2.1,6.4-2.6,8.3c-0.2,0.7-0.3,2.1-0.7,2.6c-1.9,2.5-2.4-1.5-2.6-3.3
	c-4.3-35.4-6.4-70.7-4.2-106.3c0.2-3.4,0.5-6.8,0.7-10.3c0.1-1.3,0.2-2.8-0.5-3.9c-1.4-2.5-4.1-1.1-4.5,1.1
	c-5.6,27.9-11.8,55.7-17,83.6c-2.2-1.2-2.1-11.7-2.5-14.3l-2.2-16.8L286,73.3c-1.5-11.4-3-22.8-3.6-34.2c-0.2-2.6,1.1-10.6-2.4-11.6
	c-2.6-0.7-5.4,2.8-5.9,5c-0.7,2.6-0.2,5.3,0.1,7.9c2.3,17.6,0.4,35.3-1.8,52.7c-2.2,17.5-5.1,34.8-8.1,52.1
	c-1.4,7.6-2.8,15.2-4.2,22.8c-1.3,7-1.8,15.4-4.7,21.9c-0.4,0.9-1.2,1.8-2.2,1.8c-1.3,0-2.1-1.2-2.6-2.4c-0.8-2-0.7-4.4-1.9-6.2
	c-2-3-4.3,0.1-4.6,2.8c-0.2,1.9,0.3,3.7,0.8,5.5c1.6,5.9,3.3,11.8,5.2,17.6c0.2,1.1,0.8,2.1,1.6,3c1.4,1.2,3.7,0.9,5.2-0.2
	c5.5-3.9,6-15,7.1-21c1.6-8.8,3.1-17.6,4.5-26.4c2.8-17.7,5.2-35.4,7.2-53.2L277,99c0.3-2.7,0.2-6.3,0.7-9.4c0.4-2.2,1.1-1,1.4,0.8
	c0.3,2.3,0.2,4.7,0.3,7.1c0.4,9,0.8,18.1,1.4,27.1c1.1,18.1,2.6,36.1,4.4,54.1c0.3,2.6,0,4.7,3.2,4.7c2.9,0,2.6-3.4,2.9-5.4
	c0.5-3.9,1.2-7.9,1.8-11.8c1.2-7.9,2.4-15.7,3.7-23.6c1.3-8.2,2.6-16.3,4-24.5c0.7-4.1,1.4-8.2,2.1-12.2c0.4-2.4,0.5-4.8,1.2-8.5
	c0.5-2.5,1.4-0.5,1.4,1.4c0,2.3,0,4.6,0,7c0.1,15,0.2,30.1,1.5,45.1c0.4,4.6,0.9,9.2,1.4,13.7c0.4,3.7,2.5,25,8.6,22.7
	c1.3-0.5,2.1-1.9,2.6-3.3c2.5-5.4,4.4-11.1,5.6-16.9c0.6-3,0.9-6,1-9C325.9,157.6,326.3,152.2,325.1,152L325.1,152z"/>
</svg>
