<?xml version="1.0" encoding="UTF-8" standalone="no"?><!-- Generator: Gravit.io --><svg xmlns="http://www.w3.org/2000/svg" xmlns:xlink="http://www.w3.org/1999/xlink" style="isolation:isolate" viewBox="0 0 150 150" width="150pt" height="150pt"><defs><clipPath id="_clipPath_pUM7MTeDrVxwfUFkl5SD7ykFdpK8YyUP"><rect width="150" height="150"/></clipPath></defs><g clip-path="url(#_clipPath_pUM7MTeDrVxwfUFkl5SD7ykFdpK8YyUP)"><path d=" M 28.521 54.106 C 26.681 53.371 24.693 53.003 22.706 53.003 C 21.528 53.003 20.351 53.15 19.173 53.371 L 14.426 61.537 C 16.376 60.47 18.548 59.955 20.792 59.992 C 22.154 59.992 23.479 60.176 24.767 60.544 L 28.521 54.106 Z  M 0 76.067 C 0 87.838 10.01 96.997 21.676 96.997 C 33.893 96.997 43.756 87.139 43.756 75.147 C 43.756 68.121 40.37 61.941 35.329 57.822 L 31.649 64.185 C 34.887 66.944 36.764 70.99 36.764 75.257 C 36.764 83.424 29.993 90.118 21.676 90.118 C 13.359 90.118 6.624 83.387 6.624 75.074 C 6.624 75.074 6.624 75.074 6.624 75.037 C 6.624 74.043 6.698 73.05 6.882 72.094 L 0 76.067 Z  M 68.118 66.392 C 66.315 66.356 64.585 66.981 63.224 68.121 L 62.856 66.797 L 59.544 66.797 L 59.544 83.607 L 63.776 83.607 L 63.776 74.485 C 63.776 72.535 65.064 70.586 67.566 70.586 C 69.517 70.586 70.658 71.947 70.658 74.264 L 70.658 83.644 L 74.89 83.644 L 74.89 73.897 C 74.89 69.335 72.24 66.392 68.118 66.392 Z  M 117.247 66.392 C 112.5 66.392 108.783 70.255 108.783 75.184 C 108.783 80.113 112.5 83.975 117.247 83.975 C 121.995 83.975 125.712 80.113 125.712 75.184 C 125.712 70.255 121.995 66.392 117.247 66.392 Z  M 121.443 75.184 C 121.443 77.869 119.676 79.819 117.284 79.819 C 114.892 79.819 113.089 77.869 113.089 75.184 C 113.089 72.499 114.855 70.549 117.247 70.549 C 119.639 70.549 121.443 72.499 121.443 75.184 Z  M 92.223 66.392 C 87.475 66.392 83.759 70.255 83.759 75.184 C 83.759 80.113 87.475 83.975 92.223 83.975 C 96.97 83.975 100.687 80.113 100.687 75.184 C 100.687 70.255 96.97 66.392 92.223 66.392 Z  M 96.381 75.184 C 96.381 77.869 94.615 79.819 92.223 79.819 C 89.831 79.819 88.064 77.869 88.064 75.184 C 88.064 72.499 89.831 70.549 92.223 70.549 C 94.615 70.549 96.381 72.499 96.381 75.184 Z  M 143.229 66.392 C 141.425 66.356 139.696 66.981 138.334 68.121 L 137.966 66.797 L 134.654 66.797 L 134.654 83.607 L 138.849 83.607 L 138.849 74.485 C 138.849 72.535 140.137 70.586 142.64 70.586 C 144.59 70.586 145.768 71.947 145.768 74.264 L 145.768 83.644 L 150 83.644 L 150 73.897 C 149.963 69.335 147.314 66.392 143.229 66.392 Z " fill="rgb(0,0,0)"/></g></svg>