<?xml version="1.0" encoding="utf-8"?>
<!-- Generator: Adobe Illustrator 23.0.0, SVG Export Plug-In . SVG Version: 6.00 Build 0)  -->
<svg version="1.1" id="Layer_1" xmlns="http://www.w3.org/2000/svg" xmlns:xlink="http://www.w3.org/1999/xlink" x="0px" y="0px"
	 viewBox="0 0 1277.3 672.9" style="enable-background:new 0 0 1277.3 672.9;" xml:space="preserve">
<style type="text/css">
	.st0{fill:#53534C;}
</style>
<g id="layer2">
	<path class="st0" d="M365.2,622.7c-47.4-2.5-78.7-24.3-92.4-64.2c-3.8-11.2-3.8-48.9,0-60.1c8.7-25.4,24.9-41.9,52.3-53.1
		c20.3-8.2,45.3-13,100.9-19.4c37.3-4.3,43.5-5.9,51.4-13.3c7.3-6.6,10.2-22.6,7.4-39.4c-5.5-31.3-25.7-45.4-68.6-47.7
		c-40.1-2-68.9,10.9-80.9,36.4c-4.2,8.9-7.1,21.4-7.1,30.6v5.3H282v-3.6c0-2,0.7-8.1,1.5-13.6c5.7-38.2,23.5-63.8,55.1-79.4
		c24.2-11.9,48.4-16.2,84.6-14.8c16.5,0.6,24.9,1.7,35.1,4.2c29.1,7.5,50.3,23.1,61.2,44.7c10.9,21.8,10.5,16.4,11.3,128.5
		c0.7,99.1,0.7,100.2,3.6,104.2c4.3,5.7,11.9,8.2,20,6.4c3.5-0.7,7.5-1.8,8.9-2.5c2.2-1,2.4,0.6,2.4,19.3v20.4l-8,1.5
		c-4.3,1-14.4,1.4-22.6,1.1c-12.3-0.4-16.2-1.1-22.5-4.1c-13.4-6.3-19.4-15.1-22.5-32.9l-1.7-9.5l-3.6,4.8
		c-6.9,9.2-21.8,24-30.3,30.2C432,618.8,405.2,624.8,365.2,622.7L365.2,622.7z M412.7,580.2c21.7-6,43.5-19.9,54.5-34.7
		c15-19.9,17.6-29.4,18.5-67c0.4-16.1,0.6-29.1,0.3-29.1c-0.3,0-3.9,1.3-7.8,2.8c-7.8,2.9-26.1,6.4-59.1,11.2
		c-54.5,8-76.1,14.8-90.5,28.9c-11.5,11.2-15.8,25-13.1,41.9c3.5,22.9,20.1,39.8,46.1,47.4C370.2,584.3,401.4,583.3,412.7,580.2
		L412.7,580.2z M695.8,620.6c-60.1-13.1-100.7-56.2-114.9-122.6c-4.5-20.7-4.5-65.2,0-85.6c8-36.6,22-64.2,43.9-86.3
		c21.1-21,49.6-35,80.3-39c15.7-2.1,46.8-1,60,2.2c37.7,9.1,65,29.8,80.9,61.9c5.2,10.3,11,30.3,12.6,42.6l0.8,6.6l-22.5-0.3
		l-22.5-0.4l-4.8-14.5c-10.1-30.8-27.4-48.8-54.4-56.9c-6.2-1.8-13.3-2.5-26.6-2.5c-15.9-0.1-19.6,0.4-30.1,3.8
		c-15.5,4.9-24.3,10.2-36.5,21.7c-25.6,24-39,59.4-39,102.9c0,76.9,42.5,129.5,104.6,129.5c15.7,0,26.8-2.7,39.7-9.4
		c24.5-12.7,41.9-38.3,47.3-68.5l1.8-10.1l22.2-0.4c12.3-0.3,22.5-0.3,22.6,0c0.3,0.1-0.1,3.9-0.8,8.4
		c-9.1,59.8-45,102.5-97.3,115.8c-11.5,2.9-16.4,3.4-35.8,3.2C713.9,622.6,701.3,621.7,695.8,620.6L695.8,620.6z M94.7,454.4V294.3
		h41.9v62.2l5.9-9.6c11.7-19.9,33.3-38.3,54.5-47.1c14-5.7,35.2-9.8,48.5-9.4l10.6,0.4l0.4,22.8l0.3,22.6h-11.9
		c-49.6,0-87.9,29.9-101.6,79c-3.1,10.9-3.1,13.1-3.6,105.3l-0.4,94H94.7V454.4z M900,398.5v-216h46.1l0.3,129.2l0.4,129.3
		l25.2-21.8c13.8-12,37.5-32.6,52.4-45.9c15-13.1,41.5-36.4,59-51.5l31.7-27.5h30.2c16.6,0,30.1,0.6,29.8,1.3
		c-0.4,1-29.8,26.8-48.5,42.6c-3.5,2.9-9.6,8.2-13.6,11.9c-3.9,3.5-22.1,19.3-40.3,35s-33,29.2-33,29.9c0,0.7,7.4,11.5,16.4,23.9
		c17.3,24,38.9,53.8,72.4,100.1c11.5,15.8,25.4,35.2,31.2,43.3s12.2,16.9,14.3,19.6s4.9,6.6,6.3,8.8l2.4,3.8h-28.4l-28.5-0.1
		l-24-33.1c-13.1-18.2-37-51-53-73c-15.9-22-32-44.2-35.9-49.6c-3.8-5.3-7.4-10.3-8.1-11c-0.6-0.7-14,9.6-29.8,22.8l-28.8,24v120.1
		H900V398.5z M223.1,151.1c-22-7.8-34-29.8-31.3-57.2c1.3-11.5,8.2-26.8,15.1-32.6c18.6-15.8,46.7-15.1,63.3,1.4
		c10.3,10.5,13.7,19.7,13.7,38.6c0.1,17.5-2.9,26.7-12,37c-8.7,9.8-19.9,14.7-33.3,14.7C232.9,152.9,225.9,152.1,223.1,151.1
		L223.1,151.1z M251,143.2c11.7-5.7,17.2-18.9,17.3-41.8c0-11.9-0.7-16.4-3.2-23.1c-4.2-11.2-11-18-20.1-20
		c-14.4-3.1-25.7,2.5-32.3,15.9c-3.2,6.7-3.9,10.2-4.5,22.8c-0.7,17.6,1.1,28.2,6.6,36.8C222.2,145.4,237.8,149.5,251,143.2
		L251,143.2z M507.1,152c-2.9-1-3.6-2.1-3.9-7l-0.4-6l5.9,3.1c3.2,1.5,9.5,3.2,13.7,3.6c9.4,0.7,15.7-2.5,19.2-9.9
		c4.9-10.1-1.7-21-18.3-30.3c-23.6-13.3-29.2-31.9-14.1-46.8c7-7.1,14.8-9.6,26.7-8.5c13.7,1.3,16.1,2.7,16.1,9.4
		c0,3.1-0.3,5.6-0.7,5.6c-0.3,0-2.8-1.5-5.6-3.4c-9.9-6.9-24.7-6-29.8,1.7c-2.8,4.3-3.1,13-0.4,16.2c1.1,1.3,9.1,7,17.6,12.7
		c17.9,11.7,21.7,16.5,22.6,28.7c1,10.9-4.5,21.4-14.1,27.3c-6.2,3.8-8.2,4.2-18.9,4.5C516,152.8,509,152.5,507.1,152L507.1,152z
		 M764.5,150c-19.9-7.5-32-32.7-28.1-58c2.9-18.3,11.9-31.2,26.4-38c10.6-4.9,28.1-5,38.6-0.4c9.5,4.3,17.9,12.9,22.6,23.2
		c3.6,7.8,3.9,9.9,3.9,24.6c0,15.4-0.1,16.5-4.6,25.4c-5.5,11.2-15.1,20.4-24.9,23.9C789.1,154.1,774.1,153.8,764.5,150L764.5,150z
		 M798,141.3c11.3-7.5,17.3-29.4,14.1-51.2c-1.7-12-4.2-18-9.9-24.2c-5.6-6-10.3-8-19.9-8c-10.3,0-18.9,4.2-23.5,11.6
		c-11.2,18.2-8.8,56.8,4.3,69.1C772,147.1,787.5,148.2,798,141.3L798,141.3z M891.7,142.3c-2.5-6-9.5-21.5-15.4-34.7
		c-10.5-23.5-10.6-23.6-11.5-18.2c-0.6,3.1-1.4,18.3-2,34l-1,28.2h-11.2l0.8-6.6c1.3-10.8,3.8-48.4,4.8-71.7l1-21.7h9.5l16.5,36.1
		c8.9,19.9,16.6,36.5,17.1,36.8c0.6,0.7,8-16.2,23.8-54.7c7.1-17.3,7.7-18.2,11.7-18.6l4.3-0.4l0.8,10.2c0.3,5.6,1.4,23.8,2.2,40.3
		s1.8,34.7,2.4,40.3l0.8,10.1h-15.4l-1.1-27.5c-0.6-15.2-1.4-30.5-2-33.8l-0.8-6.2l-8,18.7c-4.3,10.3-10.8,25.9-14.4,34.5
		c-3.6,8.5-7,15.7-7.5,15.7S894.2,148.2,891.7,142.3L891.7,142.3z M94.7,101.4V51h3.9c3.4,0,5,1.5,10.8,10.1
		c18.5,26.8,43.1,61.1,44,61.2c0.4,0,0.6-16.1,0.3-35.8l-0.4-35.7l5.2,0.4l5,0.4L163,86c-0.3,18.9-0.3,41.4-0.1,50.1l0.4,15.7h-4.2
		c-3.6,0-5.2-1.4-12.2-11.5c-4.5-6.4-15.7-22.2-24.9-35.2l-16.9-23.6l-0.4,35.2l-0.3,35.1h-9.8V101.4z M312.3,101.8l0.1-50.1
		l18.7,0.1c16.5,0.1,19.7,0.4,25.3,3.2c4.8,2.4,7.1,4.6,9.2,9.1c6.9,13.8,1.3,27.5-14.3,35.4l-5.2,2.7l12.7,22.2
		c7,12.3,13.3,23.5,14,24.9c1.3,2.1,0.6,2.4-7,2.4h-8.2l-9.5-17.8c-5.2-9.9-11.7-22.2-14.8-27.4c-2.9-5.3-5.3-9.8-5.3-10.1
		c0-0.1,3.8-0.7,8.4-1c7.3-0.6,9.2-1.3,12.9-4.9c3.5-3.6,4.5-5.9,5-11.9c0.4-6.2,0-8.2-2.8-12.3c-3.8-5.5-11.5-8.8-19.2-8.1
		c-4.1,0.3-5,1.1-6,4.6c-0.7,2.4-1,23.2-0.6,46.6l0.6,42.2h-14.4L312.3,101.8L312.3,101.8z M399,101.8l0.1-50.1l22.9,0.1
		c28,0,34.7,1.8,44.5,11.7c9.2,9.1,11.9,17.5,11.9,37c0,14-0.4,16.2-4.1,24.2c-5.5,11.9-15,20.3-27,24c-7.3,2.2-13,2.8-28.9,2.8
		h-19.7L399,101.8z M440.1,142.6c12-4.3,19.6-14.7,22.4-30.8c2.9-16.8-1.1-35.1-9.4-43.5c-7.1-7-13.4-9.2-27.1-9.5l-11.9-0.1
		l-0.4,41.2c-0.1,22.6,0,41.9,0.4,42.9C415,145.5,432.6,145.3,440.1,142.6L440.1,142.6z M595.6,116.9c0.6-19,0.6-39.8,0-46.3
		L594.8,59l-10.2,0.8c-5.6,0.6-11,1.1-12,1.3c-1.3,0.3-1.8-1.3-1.8-4.5v-4.9H635v4.9c0,3.2-0.6,4.8-1.8,4.5c-1-0.1-6.4-0.7-12-1.3
		L610.8,59l-1,7.4c-0.6,3.9-0.6,24.7,0,46.3l1.1,39h-16.2L595.6,116.9z M658.6,101.2l0.1-50.5l18.9,0.6c21.1,0.7,26.6,2.4,32.6,9.4
		c4.8,5.6,6,13,3.9,21.1c-2,7.4-7,13-15.1,17.2l-5.9,3.1l9.8,17.5c5.5,9.6,11.7,20.8,14.1,24.9l4.1,7.3h-16.9l-5.5-10.8
		c-3.1-6-9.6-18.3-14.5-27.4c-5.7-10.3-8.5-16.6-7.5-17.1c1-0.3,4.8-0.8,8.7-1.1c5.5-0.6,7.7-1.5,10.8-5c4.9-5.5,6.3-13,3.8-20.3
		c-2.9-8.1-7.7-11-18.3-11.2l-8.8-0.1v46.6l0.1,46.4h-14.3L658.6,101.2L658.6,101.2z"/>
</g>
</svg>
