<?xml version="1.0" encoding="utf-8"?>
<!-- Generator: Adobe Illustrator 24.0.1, SVG Export Plug-In . SVG Version: 6.00 Build 0)  -->
<svg version="1.1" id="Layer_1" xmlns="http://www.w3.org/2000/svg" xmlns:xlink="http://www.w3.org/1999/xlink" x="0px" y="0px"
	 viewBox="0 0 1700 1700" style="enable-background:new 0 0 1700 1700;" width="1700" height="1700" xml:space="preserve">
<style type="text/css">
	.st0{fill:#FFFFFF;}
	.st1{fill:#FF8D33;}
	.st2{fill:#035EA2;}
</style>
<g>
	<path class="st0" d="M-0.5,1699.5c0-566.63,0-1133.27,0-1700c566.6,0,1133.2,0,1700,0c0,566.6,0,1133.3,0,1700
		C1132.85,1699.5,566.18,1699.5-0.5,1699.5z M1395.22,733.39l0.02,0.03c2.15,5.37,0.43,10.87,0.34,16.28
		c-0.74,48.72-0.3,97.44-0.43,146.16c0,0.75,0.04,1.51,0.01,2.26c-0.11,2.43,0.88,3.72,3.48,3.72c14.32-0.03,28.63-0.04,42.95,0.01
		c2.54,0.01,3.67-1.08,3.6-3.59c-0.05-1.76,0.01-3.52,0.01-5.27c0-28.88,0-57.76,0-86.64c0-41.44,0.01-82.88-0.01-124.31
		c0-6.06-0.08-6.13-6.14-6.14c-16.32-0.04-32.65,0.07-48.97-0.08c-3.38-0.03-5.48,0.98-7.25,3.98c-4.84,8.22-10.1,16.18-15.03,24.34
		c-27.88,46.18-58.7,90.58-83.68,138.51c-0.45,0.86-0.9,1.79-2.37,1.19c-0.07-0.87-0.23-1.86-0.2-2.84
		c1.07-40.93,0.81-81.86,0.83-122.8c0.01-12.56-0.12-25.12,0.07-37.67c0.05-3.64-1.15-4.75-4.74-4.71
		c-13.56,0.17-27.13,0.24-40.68-0.03c-4.41-0.09-4.8,1.97-4.77,5.44c0.11,13.06,0.04,26.12,0.04,39.18c0,58.01,0,116.03,0.01,174.04
		c0,7.36,0.04,7.39,7.32,7.4c15.07,0.02,30.15-0.26,45.2,0.15c5.54,0.15,8.46-1.87,11.31-6.44c20.88-33.42,41.94-66.73,63.19-99.91
		c12.06-18.82,23.79-37.79,32.98-58.23C1392.94,735.92,1393.14,733.91,1395.22,733.39z M222.06,638.21
		c-53.49,0-106.98,0.49-160.46-0.21c-26.13-0.34-50.61,24.5-50.49,50.3c0.49,107.22,0.46,214.44,0.01,321.66
		c-0.1,24.5,22.05,50.35,50.47,50.32c106.97-0.1,213.95-0.05,320.92-0.03c13.16,0,24.49-4.64,34.11-13.46
		c12.45-11.41,17.26-25.84,17.24-42.5c-0.11-103.45-0.05-206.91-0.08-310.36c0-3.01-0.17-6.02-0.42-9.02
		c-2.44-28.42-28.12-47.22-50.85-46.93C329.05,638.68,275.55,638.21,222.06,638.21z M882.35,903.94
		c12.09,0.56,25.25-1.22,38.11-4.82c38.64-10.82,65.25-34.38,76.27-73.66c5.2-18.55,6.14-37.56,3.43-56.68
		c-5.75-40.5-26.41-70.01-64.84-85.4c-35.47-14.2-71.62-14.23-107.22-0.57c-33.71,12.93-55.13,37.47-63.71,72.73
		c-4.44,18.23-4.94,36.74-2.11,55.25c5.67,37.06,24.55,64.69,58.9,80.86C840.11,900.55,860.16,904.4,882.35,903.94z M525.77,788.53
		c0,33.9,0,67.79,0,101.69c0,11.75,0,11.75,11.99,11.75c11.3,0,22.6-0.09,33.9,0.05c3.41,0.04,5.32-0.8,4.9-4.61
		c-0.16-1.49-0.02-3.01-0.02-4.52c0-27.37,0-54.74,0-82.11c0-7.45-0.4-6.78,7.02-6.78c25.61-0.01,51.23-0.08,76.84,0.06
		c4.67,0.03,10.57-2.14,13.69,1.13c2.77,2.9,0.86,8.62,0.87,13.08c0.07,25.86,0.01,51.72,0.05,77.59c0.01,5.95,0.1,6.05,5.57,6.08
		c13.31,0.07,26.62-0.07,39.92,0.08c3.7,0.04,5.78-0.83,5.29-4.99c-0.2-1.73-0.03-3.51-0.03-5.27c0-63.78,0-127.55,0-191.33
		c0-6.53-0.24-13.07,0.08-19.58c0.2-4.13-1.47-5.1-5.23-5.05c-13.06,0.16-26.11,0.03-39.17,0.07c-6.38,0.02-6.43,0.08-6.44,6.7
		c-0.02,25.86,0.01,51.72-0.02,77.59c-0.01,6.04-0.09,6.12-6.25,6.12c-28.63,0.03-57.25,0.01-85.88,0.01c-1,0-2.01-0.05-3.01-0.01
		c-2.14,0.08-3.28-0.85-3.27-3.07c0.01-1.76-0.03-3.51-0.03-5.27c0-24.86,0.01-49.72-0.01-74.57c-0.01-7.58,1-7.52-7.15-7.51
		c-9.04,0.01-18.08,0-27.12,0c-4.27,0-8.54,0.05-12.81,0c-2.4-0.03-3.82,0.77-3.69,3.44c0.09,1.75,0,3.51,0,5.27
		C525.77,719.23,525.77,753.88,525.77,788.53z M1542.8,771.26c-0.5-0.32-0.99-0.65-1.49-0.97c0-1.5,0-3,0-4.5
		c0-28.12,0.02-56.24-0.02-84.36c-0.01-5.37-0.12-5.49-5.31-5.52c-12.05-0.07-24.11-0.07-36.16-0.01c-9.51,0.05-8.36-1.12-8.36,8.43
		c-0.03,69.55-0.02,139.1-0.02,208.65c0,1.76,0.06,3.52,0,5.27c-0.08,2.48,0.98,3.69,3.55,3.61c2.76-0.09,5.52,0,8.29,0
		c11.05,0,22.1-0.09,33.14,0.05c3.4,0.04,5.28-0.86,4.91-4.63c-0.17-1.74-0.03-3.51-0.03-5.27c0-31.64-0.02-63.27,0.05-94.91
		c0-2.05-0.94-4.43,1.1-6.28c2.84,1.98,4.55,4.8,6.57,7.29c26.61,32.72,53.23,65.44,79.7,98.27c3.06,3.79,6.11,5.75,11.3,5.62
		c16.06-0.39,32.14-0.14,48.21-0.14c2.16,0,4.33,0,6.91,0c-0.57-3.53-2.77-4.99-4.32-6.76c-16.7-19.08-33.47-38.11-50.21-57.15
		c-15.92-18.1-31.87-36.17-47.75-54.3c-5.89-6.72-5.18-4.97,0.52-11.03c0.86-0.91,1.78-1.77,2.67-2.66
		c29.13-29.1,58.27-58.2,87.39-87.31c1.84-1.84,3.54-3.84,6.21-6.76c-3.64,0-5.84,0-8.03,0c-14.56,0-29.13,0.23-43.69-0.12
		c-5.24-0.13-8.8,1.45-12.32,5.32c-25.69,28.22-51.59,56.25-77.43,84.34C1546.4,767.35,1544.6,769.3,1542.8,771.26z M1109.48,675.87
		c-17.07,0-34.13,0-51.2,0c-13.3,0-26.61,0.1-39.91-0.06c-3.48-0.04-4.89,0.86-4.82,4.61c0.22,10.54,0.2,21.08,0.01,31.62
		c-0.07,3.74,1.42,4.65,4.89,4.61c13.3-0.15,26.6-0.06,39.91-0.06c7.28,0,14.56,0.11,21.83-0.04c3.26-0.07,4.54,1.16,4.31,4.4
		c-0.18,2.5-0.03,5.02-0.03,7.53c0,55.47,0,110.93,0,166.4c0,7.63-0.23,7.12,6.8,7.11c12.05-0.02,24.09,0.01,36.14-0.01
		c7.4-0.01,7.36,0.91,7.32-7.33c0-1,0-2.01,0-3.01c0-55.21,0-110.43,0-165.64c0-1.76,0.1-3.52-0.02-5.27
		c-0.18-2.75,0.74-4.31,3.77-4.13c1.75,0.1,3.51,0.01,5.27,0.01c18.57,0,37.15,0.02,55.72-0.01c6-0.01,6.06-0.08,6.09-6.28
		c0.05-9.29,0.02-18.57,0.01-27.86c0-6.94,0.49-6.57-6.48-6.57C1169.22,675.87,1139.35,675.87,1109.48,675.87z M1411.48,1018.96
		c0-17.3,0-34.84,0-52.39c0-1-0.03-2.01-0.11-3c-0.12-1.48-1.05-2.03-2.44-2.33c-6.71-1.42-10,0.05-13.28,6.18
		c-4.32,8.07-8.6,16.15-13.31,24.99c-5.73-8.62-9.88-16.9-13.87-25.18c-2.36-4.9-5.34-6.44-10.48-6.13
		c-3.56,0.21-5.39,0.61-5.32,4.91c0.24,16.56,0.16,33.12,0.04,49.69c-0.02,3.05,0.6,4.83,4.08,4.4c1.24-0.15,2.52-0.15,3.76,0
		c3.46,0.41,4.97-0.67,4.79-4.51c-0.31-6.76-0.12-13.55-0.06-20.32c0.01-1.58-0.54-3.48,1.4-4.43c0.57,0.3,1.15,0.4,1.35,0.74
		c2.45,4.08,4.83,8.2,7.25,12.3c3.72,6.31,9.99,6.21,13.7-0.25c2.68-4.66,5.29-9.36,7.67-13.58c1.59-0.03,1.84,0.29,1.84,0.94
		c0.05,6.27,0.15,12.54,0.17,18.81c0.03,11.48,0.01,11.48,11.75,9.8C1410.66,1019.54,1410.86,1019.33,1411.48,1018.96z M896.7,962.1
		c-2.19-1.15-3.99-0.64-5.67-0.92c-4.96-0.83-7.81,1.15-9.85,5.78c-2.72,6.17-6.1,12.07-9.44,17.95c-1.29,2.28-1.7,5.33-5.01,6.57
		c-4.38-8.18-9-16.21-13.01-24.52c-2.15-4.46-4.83-6.33-9.85-5.85c-5.71,0.54-5.85,0.2-5.87,5.89c-0.06,14.29-0.02,28.58-0.02,42.86
		c0,10.79,0,10.79,11.12,9.98c0.45-0.03,0.88-0.44,2.13-1.09c0-9.36,0-19.15,0-28.94c4.14,4.66,7.11,9.51,9.7,14.56
		c1.46,2.84,3.32,3.88,6.51,3.84c3.1-0.04,5.06-0.8,6.55-3.74c2.6-5.15,5.68-10.05,8.59-15.1c1.94,1.34,1.6,2.42,1.61,3.33
		c0.04,7.77,0.11,15.54-0.01,23.31c-0.04,2.76,0.67,4.33,3.73,4.06c1.24-0.11,2.52-0.14,3.76,0.02c3.81,0.5,5.28-0.81,5.14-4.91
		c-0.3-9.01-0.09-18.04-0.09-27.07C896.7,979.36,896.7,970.61,896.7,962.1z M1481.17,992.87c-5.2-9.72-9.78-17.77-13.85-26.07
		c-2.01-4.1-4.41-6.03-9.17-5.7c-6.2,0.44-6.3,0.12-6.32,6.13c-0.05,15.54-0.05,31.09,0,46.63c0.02,6.14,0.09,6.14,6.21,6.15
		c6.38,0.01,6.38,0.01,6.44-6.66c0.02-1.75,0-3.51,0-5.27c0-6.3,0-12.61,0-18.91c4.3,4.75,7.07,9.72,9.94,14.64
		c3.69,6.34,9.94,6.23,13.66-0.23c2.81-4.88,5.54-9.8,8.3-14.71c1.42,8.03,1.42,15.67,1.43,23.31c0.01,8.27,0.02,8.12,8.29,7.9
		c3.17-0.09,4.54-0.98,4.42-4.3c-0.18-5.26-0.04-10.53-0.04-15.79c0-11.28,0.04-22.56-0.04-33.85c-0.01-1.83,0.73-4.12-2.13-4.89
		c-5.99-1.62-10.4,0.28-13.39,5.9C1490.59,975.26,1486.25,983.36,1481.17,992.87z M621.35,992.85c-5.18-9.62-9.93-17.59-13.82-25.97
		c-2.19-4.71-5.03-6.16-9.92-5.74c-5.53,0.47-5.64,0.19-5.65,6.05c-0.05,15.55-0.04,31.1-0.01,46.65c0.01,6.18,0.07,6.22,6.04,6.22
		c7.15,0,6.61,0.42,6.59-6.41c-0.01-2.51,0-5.02,0-7.52c0-5.37,0-10.74,0-16.11c0.59-0.14,1.18-0.28,1.76-0.43
		c2.8,4.86,5.85,9.6,8.31,14.62c1.61,3.29,3.89,3.91,7.2,4.01c3.42,0.11,4.77-1.72,6.28-4.26c2.84-4.77,4.73-10.21,8.97-14.42
		c0.47,0.96,0.86,1.39,0.87,1.83c0.07,6.52,0.11,13.04,0.13,19.56c0.02,9.64,0.01,9.65,9.85,9.07c0.73-0.04,1.44-0.35,2.7-0.67
		c0-5.91,0-11.88,0-17.85c0-11.79,0.03-23.57-0.03-35.36c-0.01-1.84,0.71-4.07-2.21-4.81c-6.15-1.57-10.26,0.21-13.34,5.98
		C630.7,975.41,626.33,983.55,621.35,992.85z M1072.48,985.81c1.25,2.23,1.04,4.2,1.05,6.1c0.02,7.03-0.03,14.06,0.02,21.08
		c0.05,7.52-1.21,7.05,7.45,7.04c5.06-0.01,5.12-0.12,5.16-5.56c0.05-8.03,0.01-16.06,0.01-24.1c0-8.28,0.02-16.57-0.03-24.85
		c-0.01-1.66,0.4-3.52-2.05-4.21c-4.76-1.34-9.36,0.2-12.21,4.44c-5.61,8.32-11.13,16.71-16.77,25.01
		c-1.19,1.74-1.86,4.05-4.61,5.04c-1.02-1.96-0.63-3.96-0.64-5.83c-0.05-8.03-0.17-16.07,0.04-24.09c0.1-3.68-1.31-5.06-4.84-4.67
		c-0.99,0.11-2.02,0.13-3.01-0.01c-4.14-0.58-5.12,1.52-5.04,5.23c0.18,7.78,0.05,15.56,0.05,23.34c0,8.53-0.04,17.07,0.04,25.6
		c0.01,1.6-0.74,3.58,1.59,4.49c3.95,1.55,10.09-0.19,12.49-3.77c5.46-8.12,10.82-16.31,16.29-24.42
		C1068.81,989.71,1069.77,987.35,1072.48,985.81z M561.88,1020.06c3.21,0,5.19,0.02,7.17,0c5.76-0.07,5.83-0.07,5.86-5.65
		c0.05-9.78,0.02-19.57,0.01-29.35c0-6.52,0.02-13.04-0.02-19.57c-0.01-1.7,0.23-3.51-2.12-4.19c-4.97-1.44-9.12-0.03-12.18,4.51
		c-5.74,8.53-11.39,17.12-17.15,25.64c-1.04,1.54-1.83,3.42-3.81,4.32c-1.66-2.06-1.01-4.12-1.04-5.99
		c-0.09-7.27-0.01-14.55-0.05-21.82c-0.04-6.75-0.07-6.75-6.45-6.74c-6.21,0.01-6.29,0.01-6.31,6.09
		c-0.05,15.55-0.05,31.1,0.02,46.66c0.01,1.88-0.69,3.97,0.89,5.81c1,0.1,1.99,0.13,2.96,0.3c5.28,0.89,8.79-0.91,11.6-5.78
		c4.25-7.37,9.31-14.27,14.1-21.32c1.75-2.57,3.09-5.51,6.51-8.51C561.88,996.86,561.88,1008.01,561.88,1020.06z M1540.23,996.64
		c0-12.55,0-23.75,0-35.41c-3.43,0-6.17,0.08-8.9-0.02c-2.63-0.1-3.52,1.16-3.51,3.62c0.03,17.3,0.01,34.6,0.02,51.9
		c0,1.22-0.06,2.46,1.41,3.11c3.59,1.59,10.16-0.25,12.49-3.71c6.16-9.15,12.22-18.37,18.42-27.48c0.83-1.22,1.12-3.58,3.94-2.73
		c0,9.71,0.21,19.47-0.1,29.22c-0.13,4.16,1.47,5.36,5.19,4.94c0.74-0.08,1.5,0,2.26-0.01c5.17-0.11,5.26-0.11,5.27-5.46
		c0.05-15.8,0.02-31.59,0.01-47.39c0-1.25-0.04-2.51-0.13-3.75c-0.08-1.08-0.64-1.76-1.72-2.14c-4.19-1.47-9.61,0.36-12.26,4.3
		c-5.6,8.32-11.13,16.68-16.74,24.99C1544.68,992.39,1543.79,994.5,1540.23,996.64z M791.6,989.54c1.81-1.19,2.73-1.64,3.47-2.3
		c7.17-6.32,4.91-19.62-4.9-23.72c-3.52-1.47-7.16-2.3-10.96-2.32c-7.03-0.03-14.06,0.18-21.08-0.09c-3.98-0.15-5.19,1.29-5.13,5.17
		c0.19,12.29,0,24.59,0.1,36.89c0.04,5.46-0.48,10.95,0.46,16.79c9.97,0,19.74,0.26,29.49-0.08c8.31-0.29,14.41-4.61,16.22-11.19
		C801.32,1001.28,799.96,994.75,791.6,989.54z M989.35,983.44c-1.7-2.13-1.43-3.94-1.44-5.67c-0.04-6.02-0.02-6.07,6.32-6.12
		c6.77-0.06,13.55-0.15,20.32,0.02c3.82,0.1,3.85-2.2,3.75-4.89c-0.11-2.67,0.71-5.68-3.8-5.63c-11.79,0.14-23.58,0.09-35.37,0.01
		c-2.85-0.02-4.07,1.02-4.06,3.93c0.06,17.06,0.04,34.11,0,51.17c-0.01,2.31,0.47,3.88,3.22,3.84c9.28-0.14,18.59,0.26,27.82-0.48
		c7.5-0.6,13.12-4.77,15.4-12.4c3.59-12.02-3.92-22.68-16.96-23.71C999.34,983.1,994.07,983.44,989.35,983.44z M663.29,1020.06
		c4.03,0,6.55-0.27,8.99,0.06c4.78,0.65,7.27-1.44,8.94-5.79c1.79-4.66,4.16-9.11,6.48-13.55c1.4-2.66,5.44-3.65,9.26-2.7
		c3.29,0.82,2.13,3.5,2.23,5.5c0.18,3.75,0.28,7.53-0.01,11.27c-0.29,3.78,0.79,5.74,4.89,5.23c1.23-0.15,2.51-0.12,3.75-0.01
		c3.26,0.31,4.32-1.13,4.27-4.35c-0.15-10.02-0.05-20.05-0.05-30.07c0-6.77-0.01-13.53,0-20.3c0-2.13-0.16-4.17-3.02-4.12
		c-9.01,0.16-18.04-0.66-27.02,0.52c-2.48,0.32-4.87,1.09-7.12,2.3c-10.96,5.9-12.69,20.19-3.44,28.48
		c1.46,1.31,3.59,1.89,4.42,4.21C671.92,1004.04,667.91,1011.48,663.29,1020.06z M1110.92,961.2c-1.34,3.26-0.74,6.04-0.83,8.77
		c-0.28,9.01,0.63,18.06-0.66,27.04c-0.88,6.1-2.06,11.75-10.05,12.89c-4.13,0.59-1.87,5-2.19,7.69c-0.31,2.58,1.88,2.39,3.63,2.51
		c11.09,0.75,17.55-4.01,19.98-14.99c1.09-4.9,1.62-9.88,1.53-14.93c-0.09-5.01-0.2-10.04,0.06-15.04c0.33-6.23,5.28-3.18,8.1-3.3
		c2.56-0.11,7.13-2.49,7.29,3.34c0.05,1.75,0.03,3.51,0.03,5.26c0,11.78,0.09,23.57-0.06,35.35c-0.04,3.23,1.01,4.66,4.27,4.32
		c0.74-0.08,1.5-0.01,2.26-0.01c6.23-0.02,6.29-0.02,6.32-6.02c0.05-11.53,0.01-23.07,0.01-34.6c0-4.76-0.07-9.53,0.02-14.29
		c0.05-2.81-1.02-4.06-3.95-4.04C1134.69,961.25,1122.7,961.2,1110.92,961.2z M1274.5,1019.02c0-17.84-0.03-35.89,0.03-53.94
		c0.01-2.95-1.25-4.1-4.07-3.87c-0.75,0.06-1.5,0.01-2.26,0c-6.28-0.01-6.32-0.01-6.4,6.01c-0.06,4.52-0.13,9.04,0.01,13.55
		c0.1,3.23-1.2,4.47-4.42,4.35c-4.51-0.18-9.03-0.14-13.55-0.02c-2.84,0.08-4.1-0.99-4.04-3.91c0.11-5.02,0.04-10.04-0.01-15.05
		c-0.01-1.46,0.35-3.05-0.9-4.25c-0.75-0.72-9.15-1.04-10.32-0.37c-2.25,1.29-1.47,3.53-1.48,5.39c-0.07,14.3-0.04,28.6-0.04,42.9
		c0,10.8,0,10.81,11.1,10.04c0.44-0.03,0.86-0.44,1.65-0.86c0-6.32,0.14-12.84-0.06-19.34c-0.1-3.34,1.23-4.55,4.39-4.24
		c0.99,0.1,2.01-0.07,3.01,0.02c4.68,0.45,10.6-2.1,13.72,1.21c2.74,2.91,0.83,8.63,0.86,13.1c0.1,11.46,0.03,11.46,11.73,9.86
		C1273.72,1019.56,1273.92,1019.35,1274.5,1019.02z M1653.22,991.1c0,8.03,0.24,16.07-0.1,24.09c-0.18,4.2,1.51,5.03,5.22,4.97
		c11.04-0.17,22.09-0.2,33.13,0.01c3.78,0.07,4.75-1.37,4.63-4.86c-0.17-5.1-0.21-5.52-4.64-5.6c-6.52-0.12-13.05,0.02-19.58-0.05
		c-5.77-0.06-5.77-0.12-5.87-5.78c-0.02-1.25,0.09-2.51,0-3.76c-0.21-3.21,1.21-4.43,4.42-4.33c5.77,0.16,11.55-0.12,17.32,0.09
		c3.84,0.14,3.92-2.16,3.77-4.85c-0.14-2.61,0.82-5.86-3.72-5.72c-4.26,0.13-8.53,0.02-12.8,0.02c-9.76-0.01-9.63,0-9.04-9.39
		c0.2-3.21,1.34-4.35,4.52-4.29c7.28,0.15,14.56-0.09,21.84,0.09c3.88,0.1,3.81-2.28,3.72-4.92c-0.09-2.67,0.69-5.71-3.81-5.66
		c-11.55,0.13-23.09,0.11-34.64-0.01c-3.2-0.03-4.48,1.05-4.42,4.35C1653.33,974.03,1653.23,982.56,1653.22,991.1z M1289.98,990.13
		c-0.02,0-0.04,0-0.05,0c0,3.75-0.25,7.52,0.05,11.25c0.56,6.9,3.67,12.51,9.8,15.95c8.97,5.04,18.18,5.14,27.16,0.05
		c5.78-3.28,9.15-8.39,9.79-15.13c0.72-7.49,0.73-14.99,0.06-22.49c-0.77-8.62-5.55-14.29-13.41-17.39
		c-6.27-2.48-12.76-2.44-19.1-0.3c-8.36,2.82-13.27,8.74-14.24,17.56C1289.67,983.09,1289.98,986.63,1289.98,990.13z M912.14,990.8
		c0.14,0,0.29,0,0.43,0.01c0,3.25-0.22,6.52,0.04,9.75c0.98,12.53,9.98,20.39,23.24,20.47c13.4,0.08,22.98-8.25,23.67-20.94
		c0.34-6.23,0.22-12.51,0.01-18.76c-0.29-8.51-4.39-14.88-12.13-18.36c-7.65-3.44-15.61-3.41-23.25,0.22
		c-6.81,3.24-10.87,8.69-11.45,16.38C912.41,983.3,912.32,987.06,912.14,990.8z M1167.66,990.75c0,8.27,0.08,16.54-0.04,24.81
		c-0.04,2.95,0.46,4.69,4.01,4.59c8.26-0.23,16.56,0.2,24.8-0.33c10.51-0.67,17.6-8.16,17.75-17.86
		c0.15-10.01-7.1-17.58-17.94-18.49c-3.74-0.31-7.52-0.33-11.27-0.15c-3.69,0.18-4.85-1.52-4.75-4.93
		c0.13-4.51-0.02-9.02,0.02-13.53c0.02-2.38-0.72-3.86-3.42-3.66c-1.25,0.09-2.51-0.02-3.76,0.01c-5.25,0.12-5.34,0.13-5.39,5.47
		C1167.6,974.71,1167.66,982.73,1167.66,990.75z M1606.39,1019.55c0-5.3-0.06-10.52,0.02-15.73c0.08-5.39,0.13-5.48,5.34-5.55
		c5.02-0.06,10.05,0.15,14.95-1.22c8.13-2.27,13.45-8.9,13.65-16.9c0.2-8-4.82-15-12.84-17.49c-2.6-0.81-5.4-1.3-8.12-1.38
		c-6.77-0.2-13.56,0.12-20.32-0.16c-3.95-0.16-5.21,1.19-5.16,5.11c0.18,14.05,0.03,28.1,0.1,42.15c0.02,3.7-0.51,7.46,0.46,11.29
		C1598.35,1020.23,1602.04,1020.27,1606.39,1019.55z"/>
	<path class="st1" d="M222.06,638.21c53.49,0,106.98,0.47,160.46-0.22c22.73-0.29,48.41,18.51,50.85,46.93
		c0.26,3,0.42,6.01,0.42,9.02c0.02,103.45-0.04,206.91,0.08,310.36c0.02,16.65-4.79,31.09-17.24,42.5
		c-9.62,8.82-20.95,13.46-34.11,13.46c-106.97-0.01-213.95-0.07-320.92,0.03c-28.42,0.03-50.57-25.83-50.47-50.32
		c0.45-107.22,0.48-214.44-0.01-321.66C11,662.5,35.47,637.66,61.6,638C115.08,638.7,168.58,638.21,222.06,638.21z M51.61,870.39
		c-0.46,2.37-0.63,2.84-0.63,3.31c-0.02,44.95-0.04,89.91,0,134.86c0.01,8.84,2.74,11.38,11.9,11.4
		c24.11,0.03,48.22,0.01,72.33,0.01c82.13,0,164.25,0.01,246.38-0.01c9.8,0,11.49-1.68,11.5-11.4c0.03-43.2,0.02-86.39,0-129.59
		c0-6.6-0.08-6.6-6.56-6.69c-1.26-0.02-2.51,0-3.77,0c-42.19,0-84.39-0.14-126.58,0.15c-6.58,0.05-10.57-1.85-13.87-7.63
		c-22.72-39.87-45.75-79.55-68.61-119.34c-5.25-9.13-3.47-13.54,6.52-16.85c19.51-6.47,39.03-12.9,58.55-19.33
		c2.86-0.94,5.68-2.05,8.59-2.74c5.28-1.25,7.83-0.16,10.85,4.32c1.12,1.66,2.12,3.41,3.12,5.14c16.67,28.88,33.44,57.71,49.9,86.72
		c2.98,5.26,6.67,7.45,12.64,7.39c20.84-0.21,41.69-0.06,62.54-0.09c6.59-0.01,6.6-0.07,6.69-6.56c0.02-1.26,0-2.51,0-3.77
		c0-35.16,0-70.32,0-105.48c0-2.76,0-5.53-0.06-8.29c-0.07-3.35-1.75-5.61-4.75-7.06c-2.38-1.14-4.87-1.01-7.38-1.01
		c-105.99,0-211.97-0.01-317.96,0.02c-9.32,0-11.98,2.73-11.99,12.19c-0.04,24.86-0.03,49.72,0.02,74.59c0,1.86-0.72,3.99,1.32,5.92
		c1.99-0.64,4.11-1.3,6.22-2c20.72-6.8,41.42-13.67,62.17-20.37c9.95-3.21,16.37-0.66,21.59,8.21c5.21,8.86,10.35,17.76,15.48,26.67
		c19.41,33.67,38.9,67.3,58.15,101.06c4.26,7.48,9.57,11,18.67,10.91c43.19-0.43,86.39-0.19,129.59-0.19c2.01,0,4.1-0.35,6.01,0.08
		c4.3,0.98,9,0.41,12.74,3.73c6.38,5.64,7.77,12.82,3.66,21.81c-8.65,18.92-17.61,37.7-25.95,56.76
		c-3.83,8.76-9.65,12.3-19.21,12.27c-69.57-0.23-139.14-0.23-208.71,0.01c-8.6,0.03-14.09-3.15-18.26-10.46
		c-14.41-25.27-29.09-50.37-43.67-75.54C64.69,892.96,58.57,882.4,51.61,870.39z M189.59,889.7c0.32-3.39-1.78-5.76-3.25-8.33
		c-13.1-22.8-26.24-45.58-39.4-68.35c-6.39-11.06-12.75-22.14-19.32-33.09c-3.45-5.75-5.61-6.48-11.78-4.48
		c-21.9,7.13-43.8,14.27-65.64,21.57c-7.47,2.5-8.93,6.51-5.13,13.12c25.12,43.62,50.26,87.23,75.44,130.81
		c4.41,7.64,8.44,8.4,14.87,2.55c17.03-15.5,33.91-31.17,50.87-46.76C188.36,894.81,190.01,892.7,189.59,889.7z"/>
	<path class="st2" d="M1395.22,733.39c-2.08,0.52-2.28,2.53-2.94,4.01c-9.18,20.44-20.92,39.41-32.98,58.23
		c-21.25,33.18-42.31,66.49-63.19,99.91c-2.86,4.57-5.78,6.59-11.31,6.44c-15.06-0.4-30.13-0.12-45.2-0.15
		c-7.28-0.01-7.31-0.04-7.32-7.4c-0.01-58.01-0.01-116.03-0.01-174.04c0-13.06,0.07-26.12-0.04-39.18
		c-0.03-3.47,0.35-5.53,4.77-5.44c13.56,0.27,27.12,0.2,40.68,0.03c3.59-0.04,4.79,1.07,4.74,4.71
		c-0.18,12.55-0.06,25.11-0.07,37.67c-0.02,40.93,0.25,81.87-0.83,122.8c-0.03,0.98,0.14,1.97,0.2,2.84
		c1.47,0.6,1.92-0.33,2.37-1.19c24.98-47.93,55.81-92.33,83.68-138.51c4.93-8.16,10.2-16.13,15.03-24.34c1.76-3,3.86-4.01,7.25-3.98
		c16.32,0.14,32.65,0.04,48.97,0.08c6.07,0.01,6.14,0.08,6.14,6.14c0.02,41.44,0.01,82.88,0.01,124.31c0,28.88,0,57.76,0,86.64
		c0,1.76-0.06,3.52-0.01,5.27c0.08,2.51-1.06,3.6-3.6,3.59c-14.32-0.05-28.63-0.04-42.95-0.01c-2.6,0.01-3.58-1.28-3.48-3.72
		c0.03-0.75-0.01-1.51-0.01-2.26c0.13-48.72-0.31-97.44,0.43-146.16c0.08-5.41,1.8-10.9-0.35-16.28c0.57,0.46,0.93,0.34,0.98-0.39
		c0.01-0.2-0.2-0.6-0.31-0.61C1395.26,732.4,1395.03,732.76,1395.22,733.39z"/>
	<path class="st2" d="M882.35,903.94c-22.2,0.45-42.25-3.4-61.17-12.3c-34.36-16.17-53.23-43.79-58.9-80.86
		c-2.83-18.51-2.33-37.02,2.11-55.25c8.58-35.26,30-59.8,63.71-72.73c35.6-13.65,71.75-13.63,107.22,0.57
		c38.43,15.39,59.09,44.9,64.84,85.4c2.72,19.12,1.78,38.13-3.43,56.68c-11.02,39.29-37.63,62.85-76.27,73.66
		C907.6,902.73,894.45,904.5,882.35,903.94z M881.32,705.92c-32.26-0.06-55,17.15-63.4,48.3c-5.86,21.74-5.93,43.71-0.9,65.56
		c4.26,18.52,13.3,34.12,30.59,43.63c30.7,16.88,83.66,10.85,96.87-40.96c5.36-21.03,5.67-42.28,1.01-63.39
		C937.93,724.76,914.91,705.98,881.32,705.92z"/>
	<path class="st2" d="M525.77,788.53c0-34.65,0-69.3,0-103.95c0-1.76,0.08-3.52,0-5.27c-0.13-2.67,1.29-3.47,3.69-3.44
		c4.27,0.05,8.54,0,12.81,0c9.04,0,18.08,0.01,27.12,0c8.15-0.01,7.14-0.07,7.15,7.51c0.02,24.86,0.01,49.72,0.01,74.57
		c0,1.76,0.04,3.52,0.03,5.27c-0.02,2.22,1.12,3.15,3.27,3.07c1-0.04,2.01,0.01,3.01,0.01c28.63,0,57.25,0.02,85.88-0.01
		c6.15-0.01,6.24-0.08,6.25-6.12c0.03-25.86,0-51.72,0.02-77.59c0.01-6.62,0.05-6.68,6.44-6.7c13.06-0.04,26.12,0.09,39.17-0.07
		c3.77-0.05,5.44,0.92,5.23,5.05c-0.32,6.51-0.08,13.05-0.08,19.58c0,63.78,0,127.55,0,191.33c0,1.76-0.17,3.54,0.03,5.27
		c0.49,4.16-1.59,5.03-5.29,4.99c-13.31-0.15-26.62-0.02-39.92-0.08c-5.47-0.03-5.56-0.13-5.57-6.08
		c-0.04-25.86,0.02-51.72-0.05-77.59c-0.01-4.46,1.9-10.18-0.87-13.08c-3.12-3.27-9.03-1.1-13.69-1.13
		c-25.61-0.14-51.23-0.07-76.84-0.06c-7.41,0-7.02-0.66-7.02,6.78c0,27.37,0,54.74,0,82.11c0,1.51-0.14,3.03,0.02,4.52
		c0.42,3.8-1.49,4.65-4.9,4.61c-11.3-0.14-22.6-0.05-33.9-0.05c-11.99,0-11.99,0-11.99-11.75
		C525.77,856.32,525.77,822.43,525.77,788.53z"/>
	<path class="st2" d="M1542.8,771.26c1.8-1.95,3.6-3.9,5.39-5.85c25.84-28.09,51.74-56.11,77.43-84.34
		c3.52-3.87,7.08-5.44,12.32-5.32c14.56,0.35,29.12,0.12,43.69,0.12c2.2,0,4.39,0,8.03,0c-2.68,2.92-4.37,4.92-6.21,6.76
		c-29.12,29.12-58.26,58.21-87.39,87.31c-0.89,0.89-1.81,1.75-2.67,2.66c-5.7,6.06-6.41,4.3-0.52,11.03
		c15.88,18.13,31.83,36.2,47.75,54.3c16.75,19.04,33.51,38.07,50.21,57.15c1.55,1.77,3.76,3.23,4.32,6.76c-2.58,0-4.75,0-6.91,0
		c-16.07,0-32.15-0.25-48.21,0.14c-5.18,0.13-8.24-1.83-11.3-5.62c-26.48-32.83-53.09-65.55-79.7-98.27
		c-2.03-2.49-3.73-5.31-6.57-7.29c-2.04,1.86-1.1,4.23-1.1,6.28c-0.07,31.64-0.05,63.27-0.05,94.91c0,1.76-0.15,3.53,0.03,5.27
		c0.37,3.77-1.51,4.67-4.91,4.63c-11.05-0.13-22.1-0.05-33.14-0.05c-2.76,0-5.53-0.08-8.29,0c-2.58,0.08-3.63-1.13-3.55-3.61
		c0.05-1.76,0-3.51,0-5.27c0-69.55-0.02-139.1,0.02-208.65c0-9.54-1.14-8.38,8.36-8.43c12.05-0.06,24.11-0.06,36.16,0.01
		c5.19,0.03,5.31,0.15,5.31,5.52c0.04,28.12,0.02,56.24,0.02,84.36c0,1.5,0,3,0,4.5C1541.81,770.61,1542.3,770.93,1542.8,771.26z"/>
	<path class="st2" d="M1109.48,675.87c29.87,0,59.74,0,89.6,0c6.97,0,6.48-0.37,6.48,6.57c0,9.29,0.04,18.57-0.01,27.86
		c-0.03,6.19-0.08,6.27-6.09,6.28c-18.57,0.04-37.15,0.01-55.72,0.01c-1.76,0-3.52,0.09-5.27-0.01c-3.03-0.18-3.95,1.38-3.77,4.13
		c0.11,1.75,0.02,3.51,0.02,5.27c0,55.21,0,110.43,0,165.64c0,1,0,2.01,0,3.01c0.04,8.24,0.08,7.32-7.32,7.33
		c-12.05,0.02-24.09-0.01-36.14,0.01c-7.03,0.01-6.8,0.52-6.8-7.11c0.01-55.47,0-110.93,0-166.4c0-2.51-0.15-5.03,0.03-7.53
		c0.24-3.24-1.05-4.47-4.31-4.4c-7.28,0.15-14.56,0.04-21.83,0.04c-13.3,0-26.61-0.09-39.91,0.06c-3.47,0.04-4.96-0.87-4.89-4.61
		c0.19-10.54,0.21-21.08-0.01-31.62c-0.08-3.75,1.33-4.65,4.82-4.61c13.3,0.16,26.6,0.06,39.91,0.06
		C1075.35,675.86,1092.41,675.87,1109.48,675.87z"/>
	<path class="st2" d="M1411.48,1018.96c-0.62,0.37-0.82,0.58-1.05,0.62c-11.74,1.67-11.72,1.67-11.75-9.8
		c-0.02-6.27-0.12-12.54-0.17-18.81c-0.01-0.65-0.25-0.97-1.84-0.94c-2.38,4.22-4.99,8.92-7.67,13.58
		c-3.71,6.46-9.99,6.56-13.7,0.25c-2.41-4.1-4.8-8.22-7.25-12.3c-0.2-0.33-0.78-0.44-1.35-0.74c-1.95,0.96-1.39,2.86-1.4,4.43
		c-0.06,6.78-0.25,13.56,0.06,20.32c0.17,3.84-1.33,4.92-4.79,4.51c-1.24-0.15-2.52-0.15-3.76,0c-3.48,0.43-4.1-1.34-4.08-4.4
		c0.11-16.56,0.2-33.13-0.04-49.69c-0.06-4.3,1.76-4.69,5.32-4.91c5.14-0.31,8.12,1.23,10.48,6.13c3.99,8.28,8.14,16.56,13.87,25.18
		c4.7-8.83,8.99-16.92,13.31-24.99c3.28-6.12,6.56-7.6,13.28-6.18c1.39,0.29,2.32,0.85,2.44,2.33c0.08,1,0.11,2,0.11,3
		C1411.48,984.12,1411.48,1001.66,1411.48,1018.96z"/>
	<path class="st2" d="M896.7,962.1c0,8.51,0,17.26,0,26c0,9.02-0.21,18.05,0.09,27.07c0.14,4.1-1.33,5.41-5.14,4.91
		c-1.23-0.16-2.51-0.12-3.76-0.02c-3.06,0.27-3.78-1.3-3.73-4.06c0.12-7.77,0.05-15.54,0.01-23.31c0-0.91,0.33-1.99-1.61-3.33
		c-2.9,5.05-5.98,9.95-8.59,15.1c-1.49,2.94-3.44,3.7-6.55,3.74c-3.19,0.04-5.05-0.99-6.51-3.84c-2.59-5.04-5.56-9.89-9.7-14.56
		c0,9.79,0,19.57,0,28.94c-1.25,0.65-1.68,1.05-2.13,1.09c-11.12,0.82-11.12,0.81-11.12-9.98c0-14.29-0.04-28.58,0.02-42.86
		c0.02-5.69,0.16-5.34,5.87-5.89c5.03-0.48,7.7,1.4,9.85,5.85c4.01,8.32,8.62,16.34,13.01,24.52c3.31-1.24,3.72-4.3,5.01-6.57
		c3.33-5.88,6.72-11.78,9.44-17.95c2.04-4.63,4.89-6.61,9.85-5.78C892.72,961.46,894.52,960.95,896.7,962.1z"/>
	<path class="st2" d="M1481.17,992.87c5.09-9.51,9.42-17.61,13.75-25.72c3-5.62,7.4-7.52,13.39-5.9c2.86,0.77,2.12,3.07,2.13,4.89
		c0.07,11.28,0.04,22.56,0.04,33.85c0,5.27-0.14,10.53,0.04,15.79c0.12,3.32-1.25,4.21-4.42,4.3c-8.27,0.22-8.28,0.37-8.29-7.9
		c-0.01-7.64,0-15.27-1.43-23.31c-2.76,4.9-5.49,9.83-8.3,14.71c-3.72,6.46-9.97,6.57-13.66,0.23c-2.87-4.92-5.64-9.89-9.94-14.64
		c0,6.3,0,12.61,0,18.91c0,1.76,0.01,3.51,0,5.27c-0.06,6.67-0.06,6.67-6.44,6.66c-6.11-0.01-6.19-0.01-6.21-6.15
		c-0.05-15.54-0.05-31.09,0-46.63c0.02-6.01,0.13-5.69,6.32-6.13c4.76-0.34,7.16,1.6,9.17,5.7
		C1471.38,975.11,1475.96,983.16,1481.17,992.87z"/>
	<path class="st2" d="M621.35,992.85c4.98-9.3,9.35-17.44,13.71-25.58c3.08-5.77,7.19-7.54,13.34-5.98c2.91,0.74,2.2,2.98,2.21,4.81
		c0.06,11.79,0.03,23.57,0.03,35.36c0,5.97,0,11.95,0,17.85c-1.27,0.33-1.98,0.63-2.7,0.67c-9.84,0.58-9.83,0.57-9.85-9.07
		c-0.01-6.52-0.05-13.04-0.13-19.56c0-0.44-0.4-0.87-0.87-1.83c-4.24,4.21-6.13,9.65-8.97,14.42c-1.51,2.54-2.85,4.36-6.28,4.26
		c-3.31-0.1-5.59-0.72-7.2-4.01c-2.46-5.02-5.51-9.76-8.31-14.62c-0.59,0.14-1.18,0.28-1.76,0.43c0,5.37,0,10.74,0,16.11
		c0,2.51-0.01,5.02,0,7.52c0.02,6.83,0.56,6.41-6.59,6.41c-5.97,0-6.02-0.04-6.04-6.22c-0.03-15.55-0.04-31.1,0.01-46.65
		c0.02-5.86,0.13-5.58,5.65-6.05c4.89-0.42,7.74,1.03,9.92,5.74C611.41,975.25,616.17,983.23,621.35,992.85z"/>
	<path class="st2" d="M1072.48,985.81c-2.71,1.54-3.68,3.9-5,5.86c-5.47,8.11-10.83,16.3-16.29,24.42
		c-2.41,3.58-8.55,5.32-12.49,3.77c-2.33-0.91-1.58-2.89-1.59-4.49c-0.08-8.53-0.04-17.07-0.04-25.6c0-7.78,0.13-15.56-0.05-23.34
		c-0.09-3.72,0.9-5.81,5.04-5.23c0.98,0.14,2.02,0.12,3.01,0.01c3.53-0.39,4.94,0.99,4.84,4.67c-0.21,8.03-0.09,16.06-0.04,24.09
		c0.01,1.87-0.38,3.87,0.64,5.83c2.76-0.99,3.42-3.29,4.61-5.04c5.64-8.3,11.16-16.68,16.77-25.01c2.85-4.23,7.45-5.77,12.21-4.44
		c2.44,0.69,2.04,2.55,2.05,4.21c0.05,8.28,0.03,16.57,0.03,24.85c0,8.03,0.04,16.06-0.01,24.1c-0.04,5.44-0.09,5.55-5.16,5.56
		c-8.67,0.02-7.41,0.48-7.45-7.04c-0.05-7.03,0-14.06-0.02-21.08C1073.52,990.01,1073.74,988.05,1072.48,985.81z"/>
	<path class="st2" d="M561.88,1020.06c0-12.05,0-23.2,0-35.61c-3.43,3-4.77,5.94-6.51,8.51c-4.79,7.05-9.85,13.96-14.1,21.32
		c-2.81,4.87-6.32,6.67-11.6,5.78c-0.97-0.16-1.96-0.2-2.96-0.3c-1.58-1.84-0.88-3.93-0.89-5.81c-0.07-15.55-0.07-31.1-0.02-46.66
		c0.02-6.08,0.1-6.08,6.31-6.09c6.38-0.01,6.42-0.01,6.45,6.74c0.04,7.27-0.04,14.55,0.05,21.82c0.02,1.87-0.62,3.93,1.04,5.99
		c1.98-0.9,2.78-2.79,3.81-4.32c5.75-8.52,11.4-17.11,17.15-25.64c3.06-4.54,7.21-5.95,12.18-4.51c2.35,0.68,2.11,2.49,2.12,4.19
		c0.04,6.52,0.02,13.04,0.02,19.57c0,9.78,0.04,19.57-0.01,29.35c-0.03,5.58-0.09,5.58-5.86,5.65
		C567.07,1020.08,565.09,1020.06,561.88,1020.06z"/>
	<path class="st2" d="M1540.23,996.64c3.56-2.15,4.45-4.25,5.66-6.04c5.61-8.31,11.14-16.67,16.74-24.99
		c2.65-3.94,8.07-5.77,12.26-4.3c1.08,0.38,1.64,1.06,1.72,2.14c0.09,1.25,0.13,2.5,0.13,3.75c0.01,15.8,0.04,31.59-0.01,47.39
		c-0.02,5.35-0.1,5.35-5.27,5.46c-0.75,0.02-1.51-0.07-2.26,0.01c-3.72,0.42-5.32-0.78-5.19-4.94c0.31-9.74,0.1-19.5,0.1-29.22
		c-2.82-0.85-3.11,1.51-3.94,2.73c-6.21,9.12-12.26,18.33-18.42,27.48c-2.33,3.46-8.9,5.3-12.49,3.71
		c-1.47-0.65-1.41-1.89-1.41-3.11c-0.01-17.3,0.01-34.6-0.02-51.9c0-2.47,0.89-3.73,3.51-3.62c2.73,0.11,5.47,0.02,8.9,0.02
		C1540.23,972.89,1540.23,984.09,1540.23,996.64z"/>
	<path class="st2" d="M791.6,989.54c8.36,5.21,9.72,11.74,7.67,19.17c-1.82,6.58-7.91,10.9-16.22,11.19
		c-9.75,0.34-19.52,0.08-29.49,0.08c-0.94-5.84-0.42-11.34-0.46-16.79c-0.09-12.3,0.09-24.6-0.1-36.89
		c-0.06-3.88,1.15-5.32,5.13-5.17c7.02,0.27,14.05,0.06,21.08,0.09c3.8,0.02,7.44,0.84,10.96,2.32c9.8,4.1,12.07,17.39,4.9,23.72
		C794.33,987.9,793.41,988.35,791.6,989.54z M774.86,995.33c0,0.03,0,0.06,0,0.09c-1.75,0-3.51,0.07-5.26-0.02
		c-2.73-0.14-4.3,0.73-4.1,3.81c0.16,2.5,0.05,5.01,0.06,7.51c0.01,1.8,0.96,2.87,2.7,2.87c4.5-0.01,9.04,0.15,13.5-0.36
		c3.59-0.4,5.82-3.5,5.78-6.79c-0.03-3.3-2.33-6.1-5.93-6.74C779.4,995.32,777.11,995.44,774.86,995.33z M775.33,984.96
		c0.5-0.02,2.79,0.11,4.99-0.27c4.03-0.7,6.15-3.11,6.13-6.44c-0.03-3.32-2.17-5.85-6.22-6.33c-3.71-0.44-7.5-0.15-11.26-0.27
		c-2.64-0.08-3.29,1.29-3.5,3.69C764.67,984.48,765,984.96,775.33,984.96z"/>
	<path class="st2" d="M989.35,983.44c4.71,0,9.99-0.34,15.2,0.07c13.03,1.03,20.54,11.69,16.96,23.71c-2.28,7.63-7.9,11.8-15.4,12.4
		c-9.23,0.74-18.54,0.34-27.82,0.48c-2.75,0.04-3.23-1.53-3.22-3.84c0.05-17.06,0.06-34.11,0-51.17c-0.01-2.91,1.21-3.95,4.06-3.93
		c11.79,0.09,23.58,0.13,35.37-0.01c4.51-0.05,3.7,2.96,3.8,5.63c0.11,2.69,0.08,4.99-3.75,4.89c-6.77-0.17-13.55-0.08-20.32-0.02
		c-6.35,0.05-6.37,0.1-6.32,6.12C987.93,979.5,987.66,981.31,989.35,983.44z M996.35,993.63c0,0.04,0,0.08,0,0.13
		c-1.76,0-3.52,0-5.27,0c-4.12,0-3.47,3.24-3.05,5.38c0.7,3.51-3.01,8.77,2.56,10.26c3.96,1.06,8.51,0.38,12.72-0.14
		c4.03-0.49,6.14-3.39,6.24-7.28c0.12-4.2-2.16-7.17-6.45-7.95C1000.9,993.64,998.6,993.75,996.35,993.63z"/>
	<path class="st2" d="M663.29,1020.06c4.62-8.58,8.63-16.02,12.56-23.32c-0.83-2.32-2.96-2.9-4.42-4.21
		c-9.26-8.28-7.52-22.58,3.44-28.48c2.25-1.21,4.64-1.97,7.12-2.3c8.98-1.18,18.01-0.36,27.02-0.52c2.86-0.05,3.02,1.99,3.02,4.12
		c-0.01,6.77,0,13.53,0,20.3c0,10.02-0.1,20.05,0.05,30.07c0.05,3.22-1.01,4.65-4.27,4.35c-1.24-0.12-2.52-0.15-3.75,0.01
		c-4.1,0.51-5.18-1.45-4.89-5.23c0.29-3.74,0.19-7.52,0.01-11.27c-0.09-2,1.06-4.68-2.23-5.5c-3.81-0.95-7.86,0.03-9.26,2.7
		c-2.32,4.43-4.69,8.89-6.48,13.55c-1.67,4.35-4.16,6.44-8.94,5.79C669.84,1019.78,667.32,1020.06,663.29,1020.06z M689.98,971.5
		c-0.83,0.04-2.86-0.07-4.81,0.28c-4.26,0.78-7,3.84-7.09,7.56c-0.08,3.42,2.21,6.33,5.96,7.75c2.18,0.83,4.41,0.78,6.66,0.75
		c9.22-0.1,8.52,1.14,8.51-8.33C699.2,970.39,699.9,971.63,689.98,971.5z"/>
	<path class="st2" d="M1110.92,961.2c11.77,0,23.76,0.05,35.75-0.04c2.94-0.02,4.01,1.22,3.95,4.04c-0.09,4.76-0.02,9.53-0.02,14.29
		c0,11.53,0.03,23.07-0.01,34.6c-0.02,6-0.09,6-6.32,6.02c-0.75,0-1.51-0.07-2.26,0.01c-3.26,0.35-4.31-1.08-4.27-4.32
		c0.15-11.78,0.06-23.57,0.06-35.35c0-1.76,0.02-3.51-0.03-5.26c-0.17-5.83-4.74-3.45-7.29-3.34c-2.82,0.12-7.77-2.94-8.1,3.3
		c-0.26,5-0.15,10.03-0.06,15.04c0.09,5.05-0.45,10.03-1.53,14.93c-2.43,10.98-8.89,15.74-19.98,14.99
		c-1.75-0.12-3.93,0.07-3.63-2.51c0.32-2.69-1.94-7.1,2.19-7.69c7.99-1.15,9.17-6.79,10.05-12.89c1.3-8.97,0.38-18.03,0.66-27.04
		C1110.18,967.24,1109.59,964.45,1110.92,961.2z"/>
	<path class="st2" d="M1274.5,1019.02c-0.58,0.34-0.78,0.54-1.01,0.57c-11.7,1.61-11.63,1.6-11.73-9.86
		c-0.04-4.47,1.88-10.19-0.86-13.1c-3.12-3.31-9.04-0.76-13.72-1.21c-0.99-0.1-2.01,0.07-3.01-0.02c-3.16-0.31-4.5,0.9-4.39,4.24
		c0.2,6.5,0.06,13.02,0.06,19.34c-0.79,0.42-1.21,0.83-1.65,0.86c-11.1,0.77-11.1,0.76-11.1-10.04c0-14.3-0.03-28.6,0.04-42.9
		c0.01-1.87-0.77-4.11,1.48-5.39c1.17-0.67,9.56-0.35,10.32,0.37c1.25,1.2,0.88,2.79,0.9,4.25c0.05,5.02,0.11,10.04,0.01,15.05
		c-0.06,2.92,1.2,3.99,4.04,3.91c4.51-0.12,9.04-0.16,13.55,0.02c3.22,0.13,4.53-1.12,4.42-4.35c-0.14-4.51-0.08-9.03-0.01-13.55
		c0.09-6.03,0.12-6.03,6.4-6.01c0.75,0,1.51,0.06,2.26,0c2.82-0.23,4.08,0.92,4.07,3.87
		C1274.46,983.13,1274.5,1001.18,1274.5,1019.02z"/>
	<path class="st2" d="M1653.22,991.1c0-8.53,0.1-17.07-0.05-25.6c-0.06-3.3,1.22-4.38,4.42-4.35c11.55,0.12,23.09,0.13,34.64,0.01
		c4.5-0.05,3.71,2.99,3.81,5.66c0.09,2.63,0.16,5.01-3.72,4.92c-7.28-0.18-14.56,0.06-21.84-0.09c-3.17-0.06-4.32,1.07-4.52,4.29
		c-0.58,9.39-0.72,9.39,9.04,9.39c4.27,0,8.54,0.11,12.8-0.02c4.55-0.14,3.59,3.11,3.72,5.72c0.14,2.69,0.06,4.98-3.77,4.85
		c-5.77-0.21-11.55,0.08-17.32-0.09c-3.21-0.09-4.63,1.13-4.42,4.33c0.08,1.25-0.03,2.51,0,3.76c0.1,5.66,0.1,5.72,5.87,5.78
		c6.53,0.07,13.05-0.07,19.58,0.05c4.43,0.08,4.47,0.5,4.64,5.6c0.12,3.48-0.86,4.93-4.63,4.86c-11.04-0.21-22.09-0.18-33.13-0.01
		c-3.7,0.06-5.39-0.78-5.22-4.97C1653.46,1007.17,1653.22,999.13,1653.22,991.1z"/>
	<path class="st2" d="M1289.98,990.13c0-3.5-0.32-7.04,0.06-10.49c0.97-8.81,5.88-14.74,14.24-17.56c6.34-2.14,12.83-2.18,19.1,0.3
		c7.85,3.1,12.64,8.77,13.41,17.39c0.66,7.49,0.66,14.99-0.06,22.49c-0.65,6.74-4.01,11.85-9.79,15.13
		c-8.98,5.09-18.19,4.99-27.16-0.05c-6.13-3.44-9.24-9.05-9.8-15.95c-0.3-3.73-0.05-7.5-0.05-11.25
		C1289.95,990.13,1289.97,990.13,1289.98,990.13z M1324.69,990.73c-0.27-4,0.1-8.04-0.93-11.95c-1.36-5.2-4.99-7.75-10.53-7.66
		c-5.6,0.09-9.02,2.65-10.07,8.1c-1.43,7.42-1.41,14.92-0.11,22.36c1.01,5.75,4.74,8.87,10.23,8.97c5.39,0.1,9.6-3.09,10.6-8.64
		C1324.53,998.26,1324.45,994.46,1324.69,990.73z"/>
	<path class="st2" d="M912.14,990.8c0.18-3.75,0.27-7.5,0.55-11.24c0.58-7.69,4.63-13.14,11.45-16.38
		c7.64-3.63,15.6-3.66,23.25-0.22c7.74,3.48,11.84,9.84,12.13,18.36c0.21,6.25,0.33,12.52-0.01,18.76
		c-0.69,12.7-10.26,21.02-23.67,20.94c-13.26-0.08-22.26-7.93-23.24-20.47c-0.25-3.23-0.04-6.5-0.04-9.75
		C912.42,990.81,912.28,990.8,912.14,990.8z M947.34,990.9c-0.15-2.74-0.25-5.49-0.46-8.22c-0.1-1.24-0.34-2.48-0.64-3.69
		c-1.29-5.12-4.32-7.59-9.55-7.84c-5.61-0.27-9.76,2.08-10.81,7.17c-1.69,8.12-1.64,16.43-0.06,24.56
		c0.99,5.07,5.39,7.86,10.56,7.68c4.93-0.17,8.52-2.94,9.78-7.73C947.17,998.92,947.33,994.92,947.34,990.9z"/>
	<path class="st2" d="M1167.66,990.75c0-8.02-0.06-16.04,0.02-24.06c0.05-5.35,0.14-5.35,5.39-5.47c1.25-0.03,2.51,0.08,3.76-0.01
		c2.7-0.19,3.44,1.28,3.42,3.66c-0.05,4.51,0.11,9.03-0.02,13.53c-0.1,3.41,1.06,5.11,4.75,4.93c3.75-0.18,7.53-0.16,11.27,0.15
		c10.84,0.9,18.09,8.48,17.94,18.49c-0.15,9.7-7.24,17.19-17.75,17.86c-8.24,0.53-16.54,0.09-24.8,0.33
		c-3.56,0.1-4.06-1.64-4.01-4.59C1167.74,1007.3,1167.66,999.02,1167.66,990.75z M1187.4,1009.62c0,0.08,0.01,0.16,0.01,0.24
		c2.73-0.21,5.51-0.17,8.17-0.7c3.59-0.72,5.52-3.3,5.81-6.88c0.26-3.25-1-6.17-4.06-7.35c-5.23-2.02-11.45-2.76-15.92-0.2
		c-3.22,1.85-0.88,7.86-1.16,12.01c-0.12,1.75,0.91,2.78,2.67,2.87C1184.41,1009.68,1185.9,1009.62,1187.4,1009.62z"/>
	<path class="st2" d="M1606.39,1019.55c-4.34,0.73-8.04,0.68-11.92,0.12c-0.97-3.83-0.44-7.59-0.46-11.29
		c-0.07-14.05,0.08-28.1-0.1-42.15c-0.05-3.91,1.21-5.27,5.16-5.11c6.76,0.28,13.55-0.04,20.32,0.16c2.72,0.08,5.51,0.58,8.12,1.38
		c8.01,2.49,13.03,9.49,12.84,17.49c-0.2,8.01-5.52,14.63-13.65,16.9c-4.9,1.37-9.93,1.15-14.95,1.22
		c-5.21,0.07-5.27,0.16-5.34,5.55C1606.33,1009.03,1606.39,1014.25,1606.39,1019.55z M1614.13,987.85c0-0.01,0-0.02,0-0.04
		c1.5,0,3.01,0.12,4.5-0.02c5.78-0.56,8.98-3.53,8.92-8.15c-0.06-4.67-3.28-7.89-9.09-7.9c-14.3,0-11.78-2.34-12.1,12.21
		c-0.06,2.91,1.17,4.11,4.01,3.91C1611.63,987.77,1612.88,987.85,1614.13,987.85z"/>
	<path class="st0" d="M1395.22,733.39c-0.19-0.63,0.04-0.99,0.69-0.97c0.12,0,0.33,0.4,0.31,0.61c-0.05,0.73-0.41,0.85-0.98,0.39
		C1395.24,733.42,1395.22,733.39,1395.22,733.39z"/>
</g>
</svg>
