<?xml version="1.0" encoding="UTF-8" standalone="no"?><!-- Generator: Gravit.io --><svg xmlns="http://www.w3.org/2000/svg" xmlns:xlink="http://www.w3.org/1999/xlink" style="isolation:isolate" viewBox="0 0 173 173" width="173" height="173"><defs><clipPath id="_clipPath_B1RiQ2Um5a7PGIRKmId04v7Xtf5ktrzQ"><rect width="173" height="173"/></clipPath></defs><g clip-path="url(#_clipPath_B1RiQ2Um5a7PGIRKmId04v7Xtf5ktrzQ)"><g><path d=" M 59.537 57.792 L 59.537 84.637 C 44.581 83.394 33.018 72.426 33.018 59.068 L 33.018 57.845 L 31.762 57.792 L 27.48 57.792 L 27.48 90.092 L 32.985 90.092 L 32.985 75.779 C 39.031 84.248 49.278 89.623 60.712 90.078 C 60.761 90.084 62.288 90.113 62.288 90.113 L 63.818 90.084 L 65.042 90.084 L 65.042 57.792 L 59.537 57.792 Z " fill="rgb(2,2,2)"/><path d=" M 101.197 57.819 L 101.197 59.042 C 101.197 66.667 94.859 72.872 87.066 72.872 C 79.276 72.872 72.938 66.667 72.938 59.042 L 72.938 57.819 L 67.431 57.819 L 67.431 59.042 C 67.431 68.524 74.771 76.543 84.315 77.869 L 84.315 90.141 L 89.819 90.141 L 89.819 77.869 C 99.361 76.543 106.701 68.521 106.701 59.042 L 106.701 57.819 L 101.197 57.819 Z " fill="rgb(2,2,2)"/><path d=" M 124.198 76.946 C 125.098 76.764 126.024 76.671 126.964 76.671 C 134.159 76.671 140.015 82.16 140.015 88.907 L 140.015 90.132 L 145.522 90.132 L 145.522 88.907 C 145.522 82.652 141.87 77.082 136.236 73.957 C 141.87 70.836 145.522 65.267 145.522 59.005 L 145.522 57.784 L 140.015 57.784 L 140.015 59.005 C 140.015 65.755 134.159 71.245 126.964 71.245 C 119.772 71.245 113.921 65.755 113.921 59.005 L 113.921 57.784 L 108.412 57.784 L 108.412 59.005 C 108.412 65.219 112.012 70.744 117.565 73.882 C 116.281 74.598 115.062 75.402 113.987 76.394 C 110.393 79.716 108.412 84.159 108.412 88.903 L 108.412 90.132 L 113.921 90.132 L 113.921 88.907 C 113.921 85.607 115.299 82.511 117.808 80.191 C 119.595 78.541 121.801 77.428 124.198 76.946 Z " fill="rgb(2,2,2)"/><path d=" M 90.358 99.561 C 90.561 99.258 90.681 98.901 90.681 98.51 C 90.681 97.466 89.831 96.617 88.784 96.617 C 87.877 96.617 87.12 97.257 86.937 98.108 C 86.749 97.257 85.996 96.617 85.088 96.617 C 84.041 96.617 83.192 97.466 83.192 98.51 C 83.192 98.871 83.299 99.204 83.478 99.495 L 83.462 99.5 L 83.518 99.57 L 86.873 103.807 L 90.367 99.561 L 90.358 99.561 Z " fill="rgb(2,2,2)"/><clipPath id="_clipPath_rbcoD9oGQOGSnjCOpmz8YdPbJukNfjk6"><path d=" M 0 110.38 L 2.977 110.38 L 2.977 115.216 L 0 115.216 L 0 110.38 Z " fill="rgb(255,255,255)"/></clipPath><g clip-path="url(#_clipPath_rbcoD9oGQOGSnjCOpmz8YdPbJukNfjk6)"><g><path d=" M 0.037 111.36 C 0.027 111.075 0.013 110.783 0 110.486 C 0.109 110.493 0.218 110.503 0.328 110.509 C 0.438 110.515 0.548 110.519 0.656 110.519 C 0.711 110.519 0.774 110.517 0.852 110.512 C 0.928 110.509 1.005 110.505 1.084 110.503 C 1.164 110.5 1.239 110.496 1.312 110.492 C 1.383 110.487 1.443 110.486 1.494 110.486 C 1.561 110.486 1.645 110.487 1.744 110.492 C 1.843 110.496 1.947 110.509 2.058 110.532 C 2.168 110.555 2.278 110.589 2.385 110.634 C 2.494 110.68 2.592 110.744 2.68 110.831 C 2.768 110.915 2.838 111.023 2.892 111.151 C 2.947 111.279 2.973 111.438 2.973 111.628 C 2.973 111.924 2.91 112.165 2.781 112.35 C 2.653 112.535 2.495 112.68 2.308 112.782 C 2.122 112.886 1.923 112.956 1.713 112.992 C 1.504 113.029 1.318 113.047 1.155 113.047 C 1.052 113.047 0.957 113.045 0.872 113.043 C 0.787 113.042 0.698 113.035 0.609 113.026 L 0.609 113.398 C 0.609 113.695 0.614 113.987 0.625 114.276 C 0.637 114.565 0.649 114.848 0.663 115.127 C 0.559 115.118 0.448 115.114 0.332 115.114 C 0.214 115.114 0.103 115.118 0 115.127 C 0.013 114.848 0.027 114.565 0.037 114.276 C 0.049 113.987 0.054 113.695 0.054 113.398 L 0.054 112.235 C 0.054 111.938 0.049 111.646 0.037 111.36 Z  M 1.088 112.797 C 1.229 112.797 1.372 112.781 1.521 112.748 C 1.669 112.717 1.805 112.66 1.929 112.576 C 2.053 112.494 2.155 112.379 2.234 112.231 C 2.313 112.085 2.352 111.898 2.352 111.668 C 2.352 111.474 2.325 111.317 2.27 111.195 C 2.217 111.074 2.141 110.979 2.044 110.911 C 1.947 110.844 1.83 110.797 1.689 110.773 C 1.551 110.748 1.393 110.735 1.216 110.735 L 0.609 110.735 L 0.609 112.742 C 0.761 112.779 0.923 112.797 1.088 112.797 Z " fill="rgb(2,2,2)"/></g></g><clipPath id="_clipPath_pecdH4XaDBWhwoMteT7cw8osbMzgDair"><path d=" M 8.931 110.38 L 12.901 110.38 L 12.901 115.216 L 8.931 115.216 L 8.931 110.38 Z " fill="rgb(255,255,255)"/></clipPath><g clip-path="url(#_clipPath_pecdH4XaDBWhwoMteT7cw8osbMzgDair)"><g><path d=" M 9.201 111.36 C 9.19 111.075 9.177 110.783 9.164 110.486 C 9.294 110.493 9.422 110.503 9.549 110.509 C 9.675 110.515 9.803 110.519 9.934 110.519 C 10.064 110.519 10.194 110.513 10.319 110.503 C 10.446 110.491 10.573 110.486 10.704 110.486 C 10.894 110.486 11.074 110.504 11.245 110.54 C 11.417 110.575 11.566 110.636 11.694 110.718 C 11.823 110.801 11.924 110.911 11.999 111.045 C 12.072 111.181 12.11 111.35 12.11 111.553 C 12.11 111.769 12.062 111.955 11.965 112.111 C 11.868 112.265 11.749 112.394 11.61 112.495 C 11.47 112.597 11.32 112.676 11.16 112.733 C 11 112.788 10.855 112.826 10.725 112.844 C 10.779 112.911 10.853 113.007 10.947 113.127 C 11.042 113.25 11.148 113.383 11.265 113.529 C 11.382 113.676 11.504 113.83 11.629 113.989 C 11.757 114.149 11.877 114.303 11.995 114.449 C 12.112 114.595 12.222 114.729 12.327 114.851 C 12.43 114.973 12.513 115.065 12.576 115.127 C 12.508 115.118 12.441 115.114 12.373 115.114 L 11.974 115.114 C 11.907 115.114 11.841 115.118 11.779 115.127 C 11.711 115.033 11.608 114.892 11.471 114.702 C 11.335 114.512 11.182 114.309 11.015 114.095 C 10.847 113.878 10.678 113.662 10.505 113.447 C 10.331 113.235 10.173 113.053 10.028 112.905 L 9.772 112.905 L 9.772 113.398 C 9.772 113.695 9.776 113.987 9.789 114.276 C 9.799 114.565 9.812 114.848 9.827 115.127 C 9.722 115.118 9.612 115.114 9.495 115.114 C 9.377 115.114 9.267 115.118 9.164 115.127 C 9.177 114.848 9.19 114.565 9.201 114.276 C 9.212 113.987 9.218 113.695 9.218 113.398 L 9.218 112.235 C 9.218 111.938 9.212 111.646 9.201 111.36 Z  M 9.978 112.647 C 10.053 112.651 10.134 112.654 10.225 112.654 C 10.364 112.654 10.509 112.638 10.66 112.607 C 10.811 112.575 10.949 112.521 11.075 112.441 C 11.203 112.362 11.306 112.257 11.39 112.124 C 11.474 111.991 11.514 111.823 11.514 111.62 C 11.514 111.444 11.482 111.3 11.417 111.185 C 11.351 111.07 11.267 110.979 11.164 110.911 C 11.059 110.844 10.947 110.797 10.825 110.773 C 10.704 110.748 10.585 110.735 10.468 110.735 C 10.31 110.735 10.179 110.738 10.076 110.745 C 9.971 110.752 9.885 110.76 9.812 110.769 C 9.803 111.017 9.794 111.262 9.785 111.505 C 9.775 111.749 9.772 111.992 9.772 112.235 L 9.772 112.62 C 9.834 112.635 9.904 112.644 9.978 112.647 Z " fill="rgb(2,2,2)"/></g></g><clipPath id="_clipPath_YYLpXTMfPffmdzNkIElpg1Wbas2rl7dP"><path d=" M 18.193 110.38 L 23.486 110.38 L 23.486 115.216 L 18.193 115.216 L 18.193 110.38 Z " fill="rgb(255,255,255)"/></clipPath><g clip-path="url(#_clipPath_YYLpXTMfPffmdzNkIElpg1Wbas2rl7dP)"><g><path d=" M 18.56 111.793 C 18.683 111.492 18.857 111.24 19.081 111.032 C 19.303 110.826 19.571 110.667 19.882 110.559 C 20.192 110.452 20.533 110.398 20.901 110.398 C 21.276 110.398 21.619 110.452 21.929 110.559 C 22.239 110.667 22.506 110.826 22.728 111.032 C 22.953 111.24 23.126 111.492 23.249 111.793 C 23.375 112.093 23.435 112.434 23.435 112.817 C 23.435 113.199 23.375 113.54 23.249 113.84 C 23.126 114.14 22.953 114.393 22.728 114.601 C 22.506 114.808 22.239 114.963 21.929 115.064 C 21.619 115.164 21.276 115.215 20.901 115.215 C 20.533 115.215 20.192 115.164 19.882 115.064 C 19.571 114.963 19.303 114.808 19.081 114.601 C 18.857 114.393 18.683 114.14 18.56 113.84 C 18.436 113.54 18.374 113.199 18.374 112.817 C 18.374 112.434 18.436 112.093 18.56 111.793 Z  M 22.63 111.848 C 22.537 111.574 22.404 111.349 22.236 111.171 C 22.067 110.994 21.868 110.86 21.641 110.776 C 21.413 110.69 21.166 110.649 20.901 110.649 C 20.64 110.649 20.396 110.69 20.169 110.776 C 19.94 110.86 19.742 110.994 19.574 111.171 C 19.405 111.349 19.273 111.574 19.178 111.848 C 19.083 112.12 19.037 112.443 19.037 112.817 C 19.037 113.19 19.083 113.513 19.178 113.786 C 19.273 114.058 19.405 114.285 19.574 114.463 C 19.742 114.64 19.94 114.773 20.169 114.857 C 20.396 114.944 20.64 114.985 20.901 114.985 C 21.166 114.985 21.413 114.944 21.641 114.857 C 21.868 114.773 22.067 114.64 22.236 114.463 C 22.404 114.285 22.537 114.058 22.63 113.786 C 22.726 113.513 22.774 113.19 22.774 112.817 C 22.774 112.443 22.726 112.12 22.63 111.848 Z " fill="rgb(2,2,2)"/></g></g><clipPath id="_clipPath_UG8mE725pLoaji5SRkPDcIo0P8DSKT5P"><path d=" M 29.44 110.38 L 32.417 110.38 L 32.417 115.216 L 29.44 115.216 L 29.44 110.38 Z " fill="rgb(255,255,255)"/></clipPath><g clip-path="url(#_clipPath_UG8mE725pLoaji5SRkPDcIo0P8DSKT5P)"><g><path d=" M 29.771 111.36 C 29.76 111.075 29.746 110.783 29.733 110.486 C 29.936 110.493 30.138 110.503 30.338 110.509 C 30.539 110.515 30.74 110.519 30.944 110.519 C 31.145 110.519 31.351 110.515 31.559 110.509 C 31.766 110.503 31.99 110.493 32.233 110.486 C 32.22 110.553 32.214 110.621 32.214 110.687 C 32.214 110.756 32.22 110.823 32.233 110.89 C 32.113 110.877 31.966 110.866 31.794 110.853 C 31.623 110.842 31.449 110.832 31.271 110.827 C 31.094 110.819 30.922 110.814 30.756 110.81 C 30.592 110.805 30.457 110.802 30.348 110.802 C 30.344 110.961 30.34 111.111 30.338 111.255 C 30.337 111.401 30.335 111.544 30.335 111.689 C 30.335 111.845 30.337 111.991 30.338 112.124 C 30.34 112.257 30.342 112.395 30.342 112.539 C 30.64 112.539 30.932 112.535 31.224 112.526 C 31.515 112.517 31.802 112.499 32.085 112.472 C 32.068 112.539 32.058 112.607 32.058 112.675 C 32.058 112.742 32.068 112.81 32.085 112.877 C 31.972 112.863 31.846 112.854 31.704 112.846 C 31.561 112.84 31.414 112.835 31.26 112.83 C 31.108 112.826 30.952 112.823 30.794 112.823 L 30.342 112.823 L 30.342 113.398 C 30.342 113.695 30.348 113.987 30.358 114.276 C 30.37 114.565 30.382 114.848 30.396 115.127 C 30.293 115.118 30.183 115.114 30.065 115.114 C 29.948 115.114 29.838 115.118 29.733 115.127 C 29.746 114.848 29.76 114.565 29.771 114.276 C 29.781 113.987 29.787 113.695 29.787 113.398 L 29.787 112.235 C 29.787 111.938 29.781 111.646 29.771 111.36 Z " fill="rgb(2,2,2)"/></g></g><clipPath id="_clipPath_6Zk0xFWpo8ePhcwdEco6INCDe2af8Q5B"><path d=" M 38.371 110.38 L 41.017 110.38 L 41.017 115.216 L 38.371 115.216 L 38.371 110.38 Z " fill="rgb(255,255,255)"/></clipPath><g clip-path="url(#_clipPath_6Zk0xFWpo8ePhcwdEco6INCDe2af8Q5B)"><g><path d=" M 38.556 111.35 C 38.544 111.062 38.531 110.774 38.518 110.484 C 38.721 110.495 38.923 110.501 39.123 110.509 C 39.325 110.515 39.525 110.519 39.729 110.519 C 39.931 110.519 40.131 110.515 40.33 110.509 C 40.527 110.501 40.728 110.495 40.931 110.484 C 40.918 110.553 40.911 110.62 40.911 110.689 C 40.911 110.756 40.918 110.823 40.931 110.89 C 40.787 110.882 40.655 110.872 40.535 110.864 C 40.415 110.855 40.29 110.845 40.157 110.837 C 40.025 110.827 39.879 110.82 39.721 110.813 C 39.564 110.806 39.374 110.804 39.153 110.804 C 39.149 110.947 39.144 111.084 39.136 111.214 C 39.131 111.345 39.127 111.494 39.127 111.662 C 39.127 111.837 39.128 112.009 39.131 112.175 C 39.132 112.341 39.133 112.467 39.133 112.553 C 39.331 112.553 39.509 112.551 39.667 112.545 C 39.825 112.543 39.969 112.536 40.1 112.529 C 40.23 112.523 40.35 112.516 40.462 112.509 C 40.571 112.503 40.676 112.495 40.776 112.486 C 40.761 112.553 40.756 112.623 40.756 112.695 C 40.756 112.762 40.761 112.83 40.776 112.898 C 40.658 112.885 40.522 112.872 40.366 112.865 C 40.211 112.854 40.056 112.849 39.9 112.848 C 39.744 112.844 39.598 112.843 39.461 112.84 C 39.325 112.837 39.213 112.836 39.133 112.836 C 39.133 112.877 39.132 112.921 39.131 112.968 C 39.128 113.016 39.127 113.076 39.127 113.147 L 39.127 113.817 C 39.127 114.073 39.128 114.285 39.131 114.453 C 39.132 114.619 39.136 114.745 39.14 114.831 L 39.614 114.831 C 39.783 114.831 39.952 114.827 40.117 114.819 C 40.281 114.814 40.436 114.804 40.583 114.794 C 40.729 114.782 40.856 114.765 40.966 114.742 C 40.955 114.774 40.95 114.809 40.947 114.848 C 40.946 114.885 40.945 114.92 40.945 114.951 C 40.945 115.025 40.95 115.082 40.966 115.127 C 40.761 115.118 40.56 115.114 40.36 115.114 L 39.133 115.114 C 38.93 115.114 38.725 115.118 38.518 115.127 C 38.531 114.839 38.544 114.552 38.556 114.265 C 38.566 113.98 38.573 113.689 38.573 113.39 L 38.573 112.229 C 38.573 111.932 38.566 111.638 38.556 111.35 Z " fill="rgb(2,2,2)"/></g></g><clipPath id="_clipPath_SC3W99gN9iUsTh3wjj2tqfOYTttoyCi5"><path d=" M 46.971 110.38 L 49.948 110.38 L 49.948 115.216 L 46.971 115.216 L 46.971 110.38 Z " fill="rgb(255,255,255)"/></clipPath><g clip-path="url(#_clipPath_SC3W99gN9iUsTh3wjj2tqfOYTttoyCi5)"><g><path d=" M 47.354 114.495 C 47.415 114.579 47.489 114.654 47.576 114.723 C 47.665 114.79 47.766 114.845 47.884 114.888 C 48.001 114.931 48.132 114.953 48.276 114.953 C 48.425 114.953 48.559 114.925 48.678 114.875 C 48.797 114.822 48.899 114.752 48.983 114.666 C 49.065 114.577 49.13 114.473 49.176 114.354 C 49.22 114.234 49.243 114.108 49.243 113.972 C 49.243 113.765 49.19 113.6 49.083 113.48 C 48.978 113.357 48.846 113.255 48.689 113.175 C 48.53 113.093 48.36 113.02 48.178 112.951 C 47.995 112.884 47.825 112.799 47.668 112.699 C 47.51 112.597 47.378 112.468 47.272 112.31 C 47.166 112.151 47.115 111.939 47.115 111.674 C 47.115 111.485 47.148 111.313 47.214 111.158 C 47.283 111.003 47.381 110.868 47.509 110.754 C 47.637 110.642 47.792 110.555 47.973 110.492 C 48.152 110.429 48.355 110.397 48.58 110.397 C 48.797 110.397 48.983 110.424 49.141 110.475 C 49.298 110.526 49.446 110.606 49.58 110.716 C 49.54 110.791 49.505 110.872 49.479 110.959 C 49.452 111.044 49.424 111.152 49.398 111.283 L 49.317 111.283 C 49.293 111.22 49.264 111.151 49.226 111.078 C 49.187 111.003 49.136 110.933 49.07 110.869 C 49.004 110.807 48.928 110.754 48.837 110.712 C 48.747 110.669 48.639 110.647 48.513 110.647 C 48.386 110.647 48.27 110.668 48.164 110.708 C 48.059 110.749 47.966 110.806 47.887 110.881 C 47.809 110.955 47.748 111.044 47.705 111.147 C 47.663 111.251 47.641 111.364 47.641 111.485 C 47.641 111.696 47.694 111.863 47.8 111.986 C 47.906 112.107 48.037 112.209 48.195 112.293 C 48.353 112.377 48.523 112.451 48.705 112.516 C 48.888 112.582 49.058 112.662 49.214 112.756 C 49.373 112.85 49.504 112.972 49.611 113.122 C 49.716 113.27 49.77 113.467 49.77 113.715 C 49.77 113.923 49.733 114.118 49.658 114.304 C 49.584 114.489 49.475 114.649 49.333 114.786 C 49.192 114.924 49.018 115.03 48.813 115.105 C 48.608 115.179 48.375 115.216 48.114 115.216 C 47.834 115.216 47.608 115.179 47.435 115.105 C 47.262 115.03 47.116 114.945 47 114.851 C 47.039 114.747 47.067 114.653 47.084 114.57 C 47.099 114.487 47.115 114.38 47.128 114.248 L 47.209 114.248 C 47.245 114.33 47.293 114.412 47.354 114.495 Z " fill="rgb(2,2,2)"/></g></g><clipPath id="_clipPath_w2AfnmHUoSgdVHRmGYdj8QYZOnG9pel1"><path d=" M 55.572 110.38 L 58.88 110.38 L 58.88 115.216 L 55.572 115.216 L 55.572 110.38 Z " fill="rgb(255,255,255)"/></clipPath><g clip-path="url(#_clipPath_w2AfnmHUoSgdVHRmGYdj8QYZOnG9pel1)"><g><path d=" M 56.139 114.495 C 56.2 114.579 56.275 114.654 56.361 114.723 C 56.449 114.79 56.551 114.845 56.669 114.888 C 56.786 114.931 56.917 114.953 57.062 114.953 C 57.21 114.953 57.344 114.925 57.462 114.875 C 57.582 114.822 57.684 114.752 57.767 114.666 C 57.85 114.577 57.916 114.473 57.96 114.354 C 58.005 114.234 58.028 114.108 58.028 113.972 C 58.028 113.765 57.975 113.6 57.868 113.48 C 57.763 113.357 57.631 113.255 57.474 113.175 C 57.315 113.093 57.146 113.02 56.963 112.951 C 56.78 112.884 56.611 112.799 56.453 112.699 C 56.295 112.597 56.162 112.468 56.058 112.31 C 55.952 112.151 55.899 111.939 55.899 111.674 C 55.899 111.485 55.933 111.313 56.001 111.158 C 56.067 111.003 56.165 110.868 56.294 110.754 C 56.423 110.642 56.577 110.555 56.757 110.492 C 56.937 110.429 57.139 110.397 57.365 110.397 C 57.581 110.397 57.768 110.424 57.926 110.475 C 58.084 110.526 58.23 110.606 58.365 110.716 C 58.324 110.791 58.29 110.872 58.264 110.959 C 58.237 111.044 58.209 111.152 58.183 111.283 L 58.102 111.283 C 58.078 111.22 58.049 111.151 58.011 111.078 C 57.972 111.003 57.921 110.933 57.855 110.869 C 57.789 110.807 57.711 110.754 57.622 110.712 C 57.532 110.669 57.425 110.647 57.298 110.647 C 57.171 110.647 57.055 110.668 56.949 110.708 C 56.844 110.749 56.751 110.806 56.673 110.881 C 56.594 110.955 56.533 111.044 56.489 111.147 C 56.448 111.251 56.426 111.364 56.426 111.485 C 56.426 111.696 56.479 111.863 56.585 111.986 C 56.691 112.107 56.822 112.209 56.98 112.293 C 57.136 112.377 57.307 112.451 57.491 112.516 C 57.673 112.582 57.842 112.662 58 112.756 C 58.159 112.85 58.289 112.972 58.395 113.122 C 58.501 113.27 58.554 113.467 58.554 113.715 C 58.554 113.923 58.516 114.118 58.443 114.304 C 58.369 114.489 58.261 114.649 58.118 114.786 C 57.976 114.924 57.803 115.03 57.598 115.105 C 57.394 115.179 57.16 115.216 56.899 115.216 C 56.62 115.216 56.392 115.179 56.22 115.105 C 56.047 115.03 55.901 114.945 55.784 114.851 C 55.824 114.747 55.853 114.653 55.869 114.57 C 55.884 114.487 55.899 114.38 55.913 114.248 L 55.993 114.248 C 56.03 114.33 56.078 114.412 56.139 114.495 Z " fill="rgb(2,2,2)"/></g></g><clipPath id="_clipPath_KH4tYm7SxeABqguzmyDn9HoQVLxpuFEE"><path d=" M 64.834 110.38 L 65.826 110.38 L 65.826 115.216 L 64.834 115.216 L 64.834 110.38 Z " fill="rgb(255,255,255)"/></clipPath><g clip-path="url(#_clipPath_KH4tYm7SxeABqguzmyDn9HoQVLxpuFEE)"><g><path d=" M 64.91 111.36 C 64.9 111.075 64.885 110.783 64.872 110.486 C 64.932 110.493 64.987 110.503 65.042 110.509 C 65.096 110.515 65.149 110.519 65.204 110.519 C 65.259 110.519 65.312 110.515 65.366 110.509 C 65.42 110.503 65.476 110.493 65.535 110.486 C 65.521 110.783 65.509 111.075 65.498 111.36 C 65.486 111.646 65.481 111.938 65.481 112.235 L 65.481 113.398 C 65.481 113.695 65.486 113.987 65.498 114.276 C 65.509 114.565 65.521 114.848 65.535 115.127 C 65.432 115.118 65.322 115.114 65.204 115.114 C 65.087 115.114 64.977 115.118 64.872 115.127 C 64.885 114.848 64.9 114.565 64.91 114.276 C 64.922 113.987 64.927 113.695 64.927 113.398 L 64.927 112.235 C 64.927 111.938 64.922 111.646 64.91 111.36 Z " fill="rgb(2,2,2)"/></g></g><clipPath id="_clipPath_4gmJYehujT0moad8Osvpvn2f0GTVq2MS"><path d=" M 71.78 110.38 L 77.073 110.38 L 77.073 115.216 L 71.78 115.216 L 71.78 110.38 Z " fill="rgb(255,255,255)"/></clipPath><g clip-path="url(#_clipPath_4gmJYehujT0moad8Osvpvn2f0GTVq2MS)"><g><path d=" M 72.019 111.793 C 72.142 111.492 72.316 111.24 72.54 111.032 C 72.762 110.826 73.03 110.667 73.341 110.559 C 73.65 110.452 73.991 110.398 74.36 110.398 C 74.735 110.398 75.078 110.452 75.388 110.559 C 75.698 110.667 75.965 110.826 76.188 111.032 C 76.411 111.24 76.586 111.492 76.708 111.793 C 76.832 112.093 76.894 112.434 76.894 112.817 C 76.894 113.199 76.832 113.54 76.708 113.84 C 76.586 114.14 76.411 114.393 76.188 114.601 C 75.965 114.808 75.698 114.963 75.388 115.064 C 75.078 115.164 74.735 115.215 74.36 115.215 C 73.991 115.215 73.65 115.164 73.341 115.064 C 73.03 114.963 72.762 114.808 72.54 114.601 C 72.316 114.393 72.142 114.14 72.019 113.84 C 71.895 113.54 71.833 113.199 71.833 112.817 C 71.833 112.434 71.895 112.093 72.019 111.793 Z  M 76.089 111.848 C 75.995 111.574 75.863 111.349 75.695 111.171 C 75.526 110.994 75.328 110.86 75.1 110.776 C 74.872 110.69 74.625 110.649 74.36 110.649 C 74.099 110.649 73.855 110.69 73.628 110.776 C 73.399 110.86 73.201 110.994 73.033 111.171 C 72.864 111.349 72.732 111.574 72.637 111.848 C 72.542 112.12 72.496 112.443 72.496 112.817 C 72.496 113.19 72.542 113.513 72.637 113.786 C 72.732 114.058 72.864 114.285 73.033 114.463 C 73.201 114.64 73.399 114.773 73.628 114.857 C 73.855 114.944 74.099 114.985 74.36 114.985 C 74.625 114.985 74.872 114.944 75.1 114.857 C 75.328 114.773 75.526 114.64 75.695 114.463 C 75.863 114.285 75.995 114.058 76.089 113.786 C 76.185 113.513 76.231 113.19 76.231 112.817 C 76.231 112.443 76.185 112.12 76.089 111.848 Z " fill="rgb(2,2,2)"/></g></g><clipPath id="_clipPath_4HBRlgsTTbR3OXuKLCBv4Uc3T08F8QY0"><path d=" M 83.027 110.38 L 87.327 110.38 L 87.327 115.216 L 83.027 115.216 L 83.027 110.38 Z " fill="rgb(255,255,255)"/></clipPath><g clip-path="url(#_clipPath_4HBRlgsTTbR3OXuKLCBv4Uc3T08F8QY0)"><g><path d=" M 85.395 113.374 C 84.81 112.746 84.223 112.12 83.638 111.499 C 83.634 111.625 83.63 111.793 83.625 112.005 C 83.62 112.217 83.617 112.505 83.617 112.871 C 83.617 112.965 83.619 113.083 83.621 113.221 C 83.624 113.362 83.626 113.508 83.629 113.66 C 83.631 113.814 83.634 113.969 83.638 114.128 C 83.643 114.286 83.648 114.432 83.652 114.568 C 83.656 114.702 83.661 114.821 83.665 114.922 C 83.669 115.022 83.674 115.091 83.679 115.127 C 83.607 115.118 83.528 115.114 83.443 115.114 C 83.352 115.114 83.27 115.118 83.193 115.127 C 83.201 115.083 83.212 114.999 83.223 114.878 C 83.235 114.756 83.244 114.611 83.253 114.441 C 83.262 114.273 83.272 114.089 83.284 113.89 C 83.294 113.693 83.305 113.495 83.31 113.296 C 83.317 113.098 83.324 112.905 83.327 112.716 C 83.332 112.526 83.334 112.358 83.334 112.208 C 83.334 111.775 83.333 111.404 83.33 111.093 C 83.328 110.783 83.324 110.55 83.314 110.397 L 83.421 110.397 C 83.696 110.694 83.991 111.013 84.303 111.353 C 84.617 111.694 84.929 112.03 85.238 112.361 C 85.545 112.691 85.838 113.005 86.116 113.3 C 86.393 113.595 86.634 113.847 86.841 114.053 L 86.841 113.135 C 86.841 112.662 86.839 112.2 86.832 111.752 C 86.824 111.305 86.81 110.882 86.787 110.486 C 86.879 110.509 86.954 110.519 87.017 110.519 C 87.072 110.519 87.143 110.509 87.234 110.486 C 87.224 110.584 87.215 110.734 87.204 110.93 C 87.191 111.129 87.181 111.341 87.169 111.566 C 87.158 111.791 87.149 112.013 87.14 112.229 C 87.129 112.445 87.125 112.619 87.125 112.748 L 87.125 113.155 C 87.125 113.308 87.127 113.467 87.128 113.635 C 87.131 113.801 87.133 113.968 87.136 114.137 C 87.138 114.307 87.14 114.464 87.142 114.611 C 87.143 114.757 87.145 114.884 87.145 114.993 L 87.145 115.216 L 87.05 115.216 C 86.534 114.617 85.982 114.002 85.395 113.374 Z " fill="rgb(2,2,2)"/></g></g><clipPath id="_clipPath_0TPHnalQIVh4Dr843tSUYNOjF8GnMt4A"><path d=" M 92.95 110.38 L 97.581 110.38 L 97.581 115.216 L 92.95 115.216 L 92.95 110.38 Z " fill="rgb(255,255,255)"/></clipPath><g clip-path="url(#_clipPath_0TPHnalQIVh4Dr843tSUYNOjF8GnMt4A)"><g><path d=" M 97.519 115.127 C 97.456 115.118 97.395 115.114 97.34 115.114 L 96.982 115.114 C 96.925 115.114 96.865 115.118 96.802 115.127 C 96.771 115.024 96.728 114.898 96.674 114.752 C 96.62 114.606 96.56 114.454 96.495 114.292 C 96.43 114.133 96.363 113.971 96.294 113.806 C 96.227 113.642 96.165 113.486 96.106 113.336 C 95.962 113.334 95.816 113.33 95.668 113.327 C 95.518 113.325 95.369 113.323 95.222 113.323 C 95.081 113.323 94.944 113.325 94.808 113.327 C 94.674 113.33 94.537 113.334 94.396 113.336 C 94.253 113.689 94.121 114.022 94.005 114.34 C 93.888 114.658 93.799 114.92 93.741 115.127 C 93.664 115.118 93.581 115.114 93.492 115.114 C 93.4 115.114 93.317 115.118 93.241 115.127 C 93.605 114.34 93.962 113.556 94.308 112.775 C 94.655 111.997 95.005 111.204 95.356 110.397 L 95.484 110.397 C 95.593 110.659 95.709 110.942 95.837 111.245 C 95.962 111.549 96.09 111.857 96.222 112.168 C 96.351 112.478 96.483 112.787 96.613 113.093 C 96.744 113.399 96.867 113.685 96.982 113.949 C 97.095 114.211 97.2 114.447 97.292 114.654 C 97.384 114.861 97.461 115.02 97.519 115.127 Z  M 94.524 113.026 C 94.642 113.026 94.764 113.029 94.89 113.032 C 95.015 113.038 95.138 113.04 95.254 113.04 C 95.382 113.04 95.507 113.039 95.633 113.036 C 95.759 113.034 95.886 113.03 96.013 113.026 L 95.262 111.31 L 94.524 113.026 Z " fill="rgb(2,2,2)"/></g></g><clipPath id="_clipPath_zfvKSsZKcTapn0Bz0U6gVAASlmDQrA1X"><path d=" M 103.535 110.38 L 106.182 110.38 L 106.182 115.216 L 103.535 115.216 L 103.535 110.38 Z " fill="rgb(255,255,255)"/></clipPath><g clip-path="url(#_clipPath_zfvKSsZKcTapn0Bz0U6gVAASlmDQrA1X)"><g><path d=" M 103.685 111.36 C 103.674 111.075 103.661 110.783 103.648 110.486 C 103.707 110.493 103.763 110.503 103.817 110.509 C 103.871 110.515 103.924 110.519 103.979 110.519 C 104.034 110.519 104.086 110.515 104.141 110.509 C 104.196 110.503 104.251 110.493 104.309 110.486 C 104.296 110.783 104.284 111.075 104.273 111.36 C 104.26 111.646 104.256 111.938 104.256 112.235 C 104.256 112.802 104.259 113.296 104.262 113.712 C 104.267 114.13 104.272 114.502 104.277 114.83 C 104.596 114.83 104.902 114.827 105.196 114.821 C 105.488 114.813 105.803 114.787 106.142 114.743 C 106.118 114.823 106.108 114.892 106.108 114.945 C 106.108 114.994 106.118 115.055 106.142 115.127 C 105.934 115.118 105.727 115.114 105.519 115.114 L 104.273 115.114 C 104.072 115.114 103.864 115.118 103.648 115.127 C 103.661 114.848 103.674 114.565 103.685 114.276 C 103.696 113.987 103.702 113.695 103.702 113.398 L 103.702 112.235 C 103.702 111.938 103.696 111.646 103.685 111.36 Z " fill="rgb(2,2,2)"/></g></g><clipPath id="_clipPath_7O35ku23YF3EcOOHt0yCSzCwXjvbCK5A"><path d=" M 119.413 110.38 L 125.036 110.38 L 125.036 115.216 L 119.413 115.216 L 119.413 110.38 Z " fill="rgb(255,255,255)"/></clipPath><g clip-path="url(#_clipPath_7O35ku23YF3EcOOHt0yCSzCwXjvbCK5A)"><g><path d=" M 121.146 112.262 C 121.464 112.866 121.796 113.486 122.143 114.122 C 122.188 114.035 122.254 113.912 122.34 113.752 C 122.425 113.592 122.523 113.408 122.636 113.202 C 122.749 112.995 122.869 112.77 122.999 112.53 C 123.127 112.288 123.257 112.044 123.39 111.797 C 123.523 111.549 123.654 111.305 123.784 111.067 C 123.915 110.827 124.038 110.605 124.15 110.398 L 124.239 110.398 C 124.288 110.829 124.335 111.248 124.376 111.651 C 124.419 112.054 124.464 112.45 124.508 112.84 C 124.553 113.229 124.598 113.615 124.644 113.995 C 124.689 114.376 124.738 114.755 124.792 115.128 C 124.738 115.118 124.685 115.114 124.633 115.114 L 124.315 115.114 C 124.264 115.114 124.211 115.118 124.158 115.128 C 124.107 114.529 124.058 113.947 124.009 113.384 C 123.959 112.822 123.897 112.247 123.826 111.662 L 123.813 111.662 C 123.501 112.229 123.196 112.792 122.897 113.354 C 122.598 113.915 122.311 114.502 122.041 115.114 L 121.982 115.114 C 121.71 114.546 121.429 113.977 121.133 113.407 C 120.838 112.839 120.541 112.255 120.245 111.662 L 120.231 111.662 C 120.199 111.941 120.164 112.243 120.126 112.57 C 120.087 112.897 120.053 113.219 120.02 113.536 C 119.989 113.854 119.962 114.154 119.94 114.434 C 119.918 114.717 119.905 114.947 119.905 115.128 C 119.834 115.118 119.755 115.114 119.67 115.114 C 119.584 115.114 119.505 115.118 119.434 115.128 C 119.492 114.763 119.553 114.378 119.615 113.973 C 119.678 113.567 119.74 113.159 119.798 112.75 C 119.856 112.339 119.91 111.934 119.96 111.536 C 120.01 111.137 120.053 110.758 120.089 110.398 L 120.204 110.398 C 120.514 111.036 120.829 111.659 121.146 112.262 Z " fill="rgb(2,2,2)"/></g></g><clipPath id="_clipPath_nKRqCjcoNGnMADz80kvPD7myZnyhqb5z"><path d=" M 130.329 110.38 L 134.96 110.38 L 134.96 115.216 L 130.329 115.216 L 130.329 110.38 Z " fill="rgb(255,255,255)"/></clipPath><g clip-path="url(#_clipPath_nKRqCjcoNGnMADz80kvPD7myZnyhqb5z)"><g><path d=" M 134.915 115.127 C 134.853 115.118 134.792 115.114 134.735 115.114 L 134.377 115.114 C 134.32 115.114 134.261 115.118 134.199 115.127 C 134.166 115.024 134.125 114.898 134.07 114.752 C 134.015 114.606 133.956 114.454 133.891 114.292 C 133.825 114.133 133.759 113.971 133.691 113.806 C 133.625 113.642 133.56 113.486 133.502 113.336 C 133.359 113.334 133.212 113.33 133.063 113.327 C 132.914 113.325 132.766 113.323 132.616 113.323 C 132.478 113.323 132.341 113.325 132.205 113.327 C 132.069 113.33 131.932 113.334 131.793 113.336 C 131.648 113.689 131.518 114.022 131.4 114.34 C 131.284 114.658 131.196 114.92 131.138 115.127 C 131.06 115.118 130.978 115.114 130.887 115.114 C 130.798 115.114 130.714 115.118 130.636 115.127 C 131.002 114.34 131.357 113.556 131.705 112.775 C 132.051 111.997 132.401 111.204 132.752 110.397 L 132.881 110.397 C 132.989 110.659 133.106 110.942 133.232 111.245 C 133.359 111.549 133.487 111.857 133.617 112.168 C 133.748 112.478 133.878 112.787 134.01 113.093 C 134.141 113.399 134.262 113.685 134.377 113.949 C 134.492 114.211 134.597 114.447 134.689 114.654 C 134.78 114.861 134.856 115.02 134.915 115.127 Z  M 131.921 113.026 C 132.038 113.026 132.16 113.029 132.286 113.032 C 132.412 113.038 132.535 113.04 132.651 113.04 C 132.777 113.04 132.903 113.039 133.029 113.036 C 133.155 113.034 133.281 113.03 133.408 113.026 L 132.657 111.31 L 131.921 113.026 Z " fill="rgb(2,2,2)"/></g></g><clipPath id="_clipPath_PW01o3wDJicvc4AmFWn2FlFVEwRJANcw"><path d=" M 140.914 110.38 L 144.553 110.38 L 144.553 115.216 L 140.914 115.216 L 140.914 110.38 Z " fill="rgb(255,255,255)"/></clipPath><g clip-path="url(#_clipPath_PW01o3wDJicvc4AmFWn2FlFVEwRJANcw)"><g><path d=" M 141.081 114.277 C 141.092 113.989 141.097 113.695 141.097 113.398 L 141.097 112.237 C 141.097 111.938 141.092 111.646 141.081 111.36 C 141.07 111.074 141.057 110.783 141.043 110.484 C 141.103 110.495 141.158 110.501 141.212 110.509 C 141.267 110.517 141.321 110.518 141.375 110.518 C 141.43 110.518 141.482 110.517 141.537 110.509 C 141.592 110.501 141.648 110.495 141.706 110.484 C 141.692 110.783 141.68 111.074 141.669 111.36 C 141.657 111.646 141.652 111.938 141.652 112.237 L 141.652 112.607 C 141.652 112.644 141.665 112.66 141.692 112.66 C 141.71 112.66 141.742 112.641 141.786 112.6 C 141.945 112.465 142.11 112.313 142.284 112.141 C 142.457 111.969 142.631 111.792 142.808 111.606 C 142.984 111.423 143.156 111.234 143.329 111.043 C 143.498 110.851 143.664 110.665 143.821 110.484 C 143.87 110.495 143.917 110.501 143.963 110.509 C 144.009 110.517 144.053 110.518 144.098 110.518 C 144.152 110.518 144.206 110.517 144.261 110.509 C 144.315 110.501 144.369 110.495 144.422 110.484 C 144.266 110.62 144.087 110.78 143.888 110.965 C 143.691 111.15 143.492 111.34 143.291 111.532 C 143.09 111.726 142.899 111.916 142.715 112.103 C 142.534 112.291 142.382 112.454 142.259 112.594 C 142.625 113.003 142.993 113.421 143.364 113.847 C 143.736 114.273 144.113 114.699 144.497 115.128 C 144.43 115.118 144.361 115.114 144.294 115.114 L 143.905 115.114 C 143.844 115.114 143.784 115.118 143.719 115.128 C 143.556 114.944 143.378 114.732 143.183 114.493 C 142.987 114.254 142.795 114.024 142.608 113.8 C 142.421 113.576 142.253 113.376 142.101 113.198 C 141.95 113.02 141.839 112.896 141.767 112.823 C 141.731 112.788 141.705 112.77 141.687 112.77 C 141.663 112.77 141.652 112.783 141.652 112.809 L 141.652 113.398 C 141.652 113.695 141.657 113.989 141.669 114.277 C 141.68 114.565 141.692 114.849 141.706 115.128 C 141.603 115.118 141.493 115.114 141.375 115.114 C 141.258 115.114 141.148 115.118 141.043 115.128 C 141.057 114.849 141.07 114.565 141.081 114.277 Z " fill="rgb(2,2,2)"/></g></g><clipPath id="_clipPath_z1FVB5E8SPrBW16zlHAHSLaVLaoORZYr"><path d=" M 150.507 110.38 L 153.153 110.38 L 153.153 115.216 L 150.507 115.216 L 150.507 110.38 Z " fill="rgb(255,255,255)"/></clipPath><g clip-path="url(#_clipPath_z1FVB5E8SPrBW16zlHAHSLaVLaoORZYr)"><g><path d=" M 150.615 111.35 C 150.605 111.062 150.592 110.774 150.579 110.484 C 150.782 110.495 150.982 110.501 151.184 110.509 C 151.384 110.515 151.586 110.519 151.788 110.519 C 151.99 110.519 152.192 110.515 152.389 110.509 C 152.588 110.501 152.787 110.495 152.991 110.484 C 152.979 110.553 152.971 110.62 152.971 110.689 C 152.971 110.756 152.979 110.823 152.991 110.89 C 152.847 110.882 152.716 110.872 152.596 110.864 C 152.476 110.855 152.349 110.845 152.217 110.837 C 152.084 110.827 151.94 110.82 151.781 110.813 C 151.624 110.806 151.436 110.804 151.213 110.804 C 151.208 110.947 151.203 111.084 151.197 111.214 C 151.19 111.345 151.188 111.494 151.188 111.662 C 151.188 111.837 151.189 112.009 151.19 112.175 C 151.193 112.341 151.193 112.467 151.193 112.553 C 151.392 112.553 151.57 112.551 151.728 112.545 C 151.885 112.543 152.03 112.536 152.159 112.529 C 152.291 112.523 152.411 112.516 152.522 112.509 C 152.632 112.503 152.736 112.495 152.835 112.486 C 152.822 112.553 152.816 112.623 152.816 112.695 C 152.816 112.762 152.822 112.83 152.835 112.898 C 152.718 112.885 152.582 112.872 152.427 112.865 C 152.272 112.854 152.117 112.849 151.96 112.848 C 151.805 112.844 151.659 112.843 151.521 112.84 C 151.384 112.837 151.274 112.836 151.193 112.836 C 151.193 112.877 151.193 112.921 151.19 112.968 C 151.189 113.016 151.188 113.076 151.188 113.147 L 151.188 113.817 C 151.188 114.073 151.189 114.285 151.19 114.453 C 151.193 114.619 151.195 114.745 151.201 114.831 L 151.673 114.831 C 151.844 114.831 152.012 114.827 152.177 114.819 C 152.342 114.814 152.497 114.804 152.643 114.794 C 152.789 114.782 152.917 114.765 153.025 114.742 C 153.016 114.774 153.011 114.809 153.008 114.848 C 153.006 114.885 153.004 114.92 153.004 114.951 C 153.004 115.025 153.011 115.082 153.025 115.127 C 152.822 115.118 152.621 115.114 152.42 115.114 L 151.193 115.114 C 150.991 115.114 150.787 115.118 150.579 115.127 C 150.592 114.839 150.605 114.552 150.615 114.265 C 150.627 113.98 150.633 113.689 150.633 113.39 L 150.633 112.229 C 150.633 111.932 150.627 111.638 150.615 111.35 Z " fill="rgb(2,2,2)"/></g></g><clipPath id="_clipPath_ZpV2GJB5m7CbYkP4sP0UzqcTVtv7Ejix"><path d=" M 159.107 110.38 L 163.407 110.38 L 163.407 115.216 L 159.107 115.216 L 159.107 110.38 Z " fill="rgb(255,255,255)"/></clipPath><g clip-path="url(#_clipPath_ZpV2GJB5m7CbYkP4sP0UzqcTVtv7Ejix)"><g><path d=" M 162.932 111.202 C 162.927 110.854 162.916 110.616 162.898 110.486 C 162.947 110.495 162.995 110.501 163.039 110.509 C 163.086 110.515 163.129 110.519 163.175 110.519 C 163.233 110.519 163.301 110.508 163.378 110.486 C 163.363 110.642 163.35 110.831 163.336 111.049 C 163.323 111.269 163.313 111.501 163.303 111.752 C 163.295 112.003 163.285 112.26 163.277 112.523 C 163.266 112.786 163.261 113.043 163.256 113.29 C 163.251 113.592 163.206 113.862 163.118 114.1 C 163.03 114.34 162.905 114.542 162.743 114.708 C 162.58 114.875 162.38 115.002 162.145 115.087 C 161.908 115.172 161.636 115.215 161.331 115.215 C 160.654 115.215 160.164 115.062 159.857 114.756 C 159.55 114.45 159.398 113.965 159.398 113.304 C 159.398 113.092 159.403 112.903 159.415 112.738 C 159.426 112.574 159.431 112.407 159.431 112.235 C 159.431 111.858 159.428 111.521 159.417 111.229 C 159.408 110.935 159.4 110.689 159.39 110.486 C 159.444 110.495 159.502 110.501 159.566 110.509 C 159.629 110.515 159.689 110.519 159.742 110.519 C 159.791 110.519 159.84 110.515 159.886 110.509 C 159.935 110.501 159.983 110.495 160.034 110.486 C 160.023 110.584 160.014 110.714 160.005 110.873 C 159.996 111.034 159.987 111.214 159.979 111.419 C 159.969 111.62 159.962 111.84 159.957 112.072 C 159.953 112.308 159.952 112.551 159.952 112.802 C 159.952 112.956 159.953 113.115 159.957 113.279 C 159.962 113.445 159.979 113.604 160.005 113.76 C 160.034 113.915 160.076 114.064 160.137 114.206 C 160.198 114.347 160.285 114.471 160.397 114.577 C 160.51 114.684 160.651 114.765 160.823 114.827 C 160.994 114.888 161.205 114.918 161.459 114.918 C 161.706 114.918 161.915 114.882 162.083 114.81 C 162.252 114.738 162.39 114.644 162.5 114.526 C 162.607 114.409 162.691 114.274 162.752 114.12 C 162.813 113.968 162.858 113.808 162.884 113.641 C 162.911 113.474 162.927 113.308 162.932 113.141 C 162.936 112.974 162.94 112.821 162.94 112.681 C 162.94 112.041 162.936 111.549 162.932 111.202 Z " fill="rgb(2,2,2)"/></g></g><clipPath id="_clipPath_rWjRzjUaeFzoxPXUT1fHno8snEhq7ZRZ"><path d=" M 170.023 110.38 L 173 110.38 L 173 115.216 L 170.023 115.216 L 170.023 110.38 Z " fill="rgb(255,255,255)"/></clipPath><g clip-path="url(#_clipPath_rWjRzjUaeFzoxPXUT1fHno8snEhq7ZRZ)"><g><path d=" M 170.064 111.36 C 170.054 111.075 170.04 110.783 170.027 110.486 C 170.135 110.493 170.244 110.503 170.355 110.509 C 170.465 110.515 170.575 110.519 170.682 110.519 C 170.736 110.519 170.801 110.517 170.878 110.512 C 170.955 110.509 171.032 110.505 171.111 110.503 C 171.191 110.5 171.266 110.496 171.338 110.492 C 171.409 110.487 171.47 110.486 171.519 110.486 C 171.588 110.486 171.67 110.487 171.77 110.492 C 171.869 110.496 171.974 110.509 172.085 110.532 C 172.195 110.555 172.304 110.589 172.412 110.634 C 172.521 110.68 172.619 110.744 172.705 110.831 C 172.795 110.915 172.866 111.023 172.919 111.151 C 172.974 111.279 173 111.438 173 111.628 C 173 111.924 172.935 112.165 172.807 112.35 C 172.68 112.535 172.522 112.68 172.335 112.782 C 172.148 112.886 171.95 112.956 171.74 112.992 C 171.531 113.029 171.345 113.047 171.182 113.047 C 171.079 113.047 170.983 113.045 170.899 113.043 C 170.814 113.042 170.725 113.035 170.635 113.026 L 170.635 113.398 C 170.635 113.695 170.639 113.987 170.652 114.276 C 170.664 114.565 170.675 114.848 170.688 115.127 C 170.585 115.118 170.475 115.114 170.359 115.114 C 170.24 115.114 170.13 115.118 170.027 115.127 C 170.04 114.848 170.054 114.565 170.064 114.276 C 170.075 113.987 170.081 113.695 170.081 113.398 L 170.081 112.235 C 170.081 111.938 170.075 111.646 170.064 111.36 Z  M 171.115 112.797 C 171.256 112.797 171.399 112.781 171.548 112.748 C 171.696 112.717 171.832 112.66 171.956 112.576 C 172.08 112.494 172.182 112.379 172.261 112.231 C 172.34 112.085 172.377 111.898 172.377 111.668 C 172.377 111.474 172.351 111.317 172.297 111.195 C 172.244 111.074 172.167 110.979 172.071 110.911 C 171.974 110.844 171.856 110.797 171.716 110.773 C 171.576 110.748 171.42 110.735 171.243 110.735 L 170.635 110.735 L 170.635 112.742 C 170.788 112.779 170.948 112.797 171.115 112.797 Z " fill="rgb(2,2,2)"/></g></g></g></g></svg>