<?xml version="1.0" encoding="UTF-8" standalone="no"?><!-- Generator: Gravit.io --><svg xmlns="http://www.w3.org/2000/svg" xmlns:xlink="http://www.w3.org/1999/xlink" style="isolation:isolate" viewBox="0 0 150 150" width="150pt" height="150pt"><defs><clipPath id="_clipPath_dSp77Ou4ROSIOGCxKgUL2iy20DKxSafl"><rect width="150" height="150"/></clipPath></defs><g clip-path="url(#_clipPath_dSp77Ou4ROSIOGCxKgUL2iy20DKxSafl)"><path d=" M 17.422 86.634 C 11.683 87.336 6.881 82.535 7.584 76.913 C 8.052 73.048 11.214 69.886 15.079 69.417 C 20.818 68.715 25.62 73.516 24.917 79.138 C 24.449 83.003 21.404 86.165 17.422 86.634 Z  M 18.007 61.805 C 7.584 60.751 -0.966 69.417 0.088 79.724 C 0.908 87.336 7.115 93.544 14.728 94.246 C 25.034 95.301 33.701 86.634 32.647 76.327 C 31.827 68.715 25.62 62.507 18.007 61.805 Z " fill="rgb(0,84,255)"/><path d=" M 41.314 62.39 C 38.971 62.39 37.098 64.498 37.566 66.958 C 37.917 68.715 39.674 70.003 41.431 70.003 L 52.089 70.003 L 35.575 91.904 C 34.989 92.607 35.575 93.661 36.395 93.661 L 62.395 93.661 C 64.269 93.661 65.909 92.373 66.26 90.616 C 66.729 88.156 64.855 86.048 62.512 86.048 L 49.512 86.048 L 66.026 64.147 C 66.611 63.444 66.026 62.39 65.089 62.39 L 41.314 62.39 Z " fill="rgb(0,84,255)"/><path d=" M 145.198 62.273 C 143.441 62.624 142.27 64.264 142.27 66.138 L 142.27 78.787 L 121.54 62.39 C 120.837 61.805 119.783 62.39 119.783 63.21 L 119.783 89.445 C 119.783 91.201 120.955 92.841 122.828 93.31 C 125.288 93.778 127.513 91.904 127.513 89.562 L 127.513 76.796 L 148.243 93.192 C 148.946 93.778 150 93.192 150 92.373 L 150 66.021 C 149.883 63.679 147.658 61.805 145.198 62.273 Z " fill="rgb(0,84,255)"/><path d=" M 91.441 61.57 C 78.792 61.57 68.603 68.949 68.603 77.967 C 68.603 86.985 78.909 94.246 91.558 94.246 C 104.207 94.246 114.396 86.868 114.396 77.85 C 114.279 68.832 104.089 61.57 91.441 61.57 Z  M 91.441 69.183 C 100.225 69.183 106.666 73.751 106.666 77.85 C 106.666 81.949 100.107 86.634 91.441 86.634 C 82.657 86.634 76.215 82.066 76.215 77.967 C 76.215 73.751 82.774 69.183 91.441 69.183 Z " fill="rgb(0,84,255)"/><g><g><g><g><path d=" M 107.603 62.273 L 106.783 73.165 C 106.666 74.336 106.315 75.507 105.729 76.562 L 97.648 91.436 L 83.711 90.85 L 95.071 70.706 C 95.657 69.652 96.477 68.715 97.531 68.012 L 106.549 61.805 C 107.017 61.336 107.603 61.687 107.603 62.273 Z " fill="rgb(11,132,95)"/><path d=" M 97.531 67.895 L 106.549 61.687 C 107.017 61.336 107.72 61.687 107.603 62.273 L 106.783 73.165 C 106.666 74.336 106.315 75.507 105.729 76.562 L 105.612 76.796 C 105.612 76.796 105.495 76.796 105.495 76.679 C 105.026 76.444 104.558 75.976 104.441 75.507 C 103.27 76.327 101.63 76.562 100.342 75.742 C 98.936 74.922 98.234 73.399 98.468 71.877 C 97.882 71.994 97.179 71.994 96.477 71.643 C 96.008 71.408 95.54 70.94 95.423 70.471 C 95.774 69.417 96.594 68.597 97.531 67.895 Z " fill="rgb(247,227,111)"/></g><path d=" M 104.792 65.67 C 104.089 65.318 103.504 64.615 103.153 64.03 L 106.432 61.805 C 106.9 61.453 107.603 61.805 107.486 62.39 L 107.135 66.138 C 106.432 66.138 105.612 66.021 104.792 65.67 Z " fill="rgb(11,132,95)"/></g><path d=" M 91.675 56.3 L 93.549 67.075 C 93.783 68.246 93.666 69.417 93.432 70.589 L 87.81 92.021 L 76.332 87.336 L 81.603 67.426 C 81.954 66.255 82.54 65.084 83.359 64.147 L 90.504 55.832 C 90.855 55.48 91.558 55.714 91.675 56.3 Z " fill="rgb(255,0,80)"/><path d=" M 83.242 64.264 L 90.387 55.949 C 90.738 55.48 91.558 55.714 91.558 56.3 L 93.432 67.075 C 93.666 68.246 93.549 69.417 93.315 70.589 L 93.197 70.823 L 93.08 70.823 C 92.495 70.706 92.026 70.354 91.675 69.886 C 90.738 71.057 89.215 71.525 87.693 71.174 C 86.053 70.706 84.999 69.417 84.882 67.895 C 84.296 68.246 83.594 68.363 82.891 68.129 C 82.305 68.012 81.837 67.661 81.486 67.192 C 81.954 66.138 82.54 65.084 83.242 64.264 Z " fill="rgb(247,227,111)"/></g><path d=" M 89.801 60.165 C 88.981 59.931 88.396 59.462 87.81 58.877 L 90.387 55.949 C 90.738 55.48 91.558 55.714 91.558 56.3 L 92.143 60.048 C 91.558 60.282 90.738 60.399 89.801 60.165 Z " fill="rgb(255,0,80)"/></g><path d=" M 106.315 79.607 C 104.792 83.12 98.936 86.517 91.441 86.517 C 83.945 86.517 78.089 83.12 76.567 79.607 L 68.72 79.607 C 69.891 87.805 79.729 94.246 91.558 94.129 C 103.387 94.129 112.99 87.688 114.279 79.607 L 106.315 79.607 Z " fill="rgb(0,84,255)"/></g></svg>