<?xml version="1.0" encoding="UTF-8" standalone="no"?><svg xmlns="http://www.w3.org/2000/svg" xmlns:xlink="http://www.w3.org/1999/xlink" style="isolation:isolate" viewBox="0 0 600 70" width="600" height="70"><defs><clipPath id="_clipPath_rG7xzhvzowQZfkeJ7IL8q53IKYFaKdmi"><rect width="600" height="70"/></clipPath></defs><g clip-path="url(#_clipPath_rG7xzhvzowQZfkeJ7IL8q53IKYFaKdmi)"><path d=" M 0 0.7 L 14.6 0.7 C 20.1 0.7 23.7 1.8 27 5.4 C 30.3 9 31.4 13 31.4 21.1 C 31.4 26.9 31 30.9 28.5 34.6 C 26 39 21.9 41.9 14.7 41.9 L 10 41.9 L 10 68.1 L 0.2 68.1 L 0.2 0.7 L 0 0.7 Z  M 9.8 32.7 L 14.5 32.7 C 22.5 32.7 22.5 28 22.5 21.4 C 22.5 15.2 22.5 9.7 14.9 9.7 L 9.8 9.7 L 9.8 32.7 L 9.8 32.7 Z  M 38.6 0.7 L 54.3 0.7 C 66 0.7 71.4 7.3 71.4 20.4 C 71.4 28 69.2 33.9 63 37.1 L 73.6 68 L 63.4 68 L 54.3 39.2 L 48.5 39.2 L 48.5 68 L 38.6 68 C 38.6 68.1 38.6 0.7 38.6 0.7 Z  M 48.4 30.6 L 53.9 30.6 C 60.5 30.6 61.5 27 61.5 20 C 61.5 13.1 60.4 9.4 53.1 9.4 L 48 9.4 L 48 30.5 L 48.4 30.5 L 48.4 30.6 Z  M 79.7 0.7 L 108.5 0.7 L 108.5 9.8 L 89.2 9.8 L 89.2 29.5 L 105.9 29.5 L 105.9 38.6 L 89.2 38.6 L 89.2 58.3 L 108.5 58.3 L 108.5 68.1 L 79.7 68.1 L 79.7 0.7 Z  M 125.6 9.8 L 114.3 9.8 L 114.3 0.7 L 146.3 0.7 L 146.3 9.8 L 135.1 9.8 L 135.1 68.1 L 125.3 68.1 L 125.3 9.8 L 125.6 9.8 Z  M 163.8 9.8 L 152.5 9.8 L 152.5 0.7 L 184.5 0.7 L 184.5 9.8 L 173.3 9.8 L 173.3 68.1 L 163.8 68.1 L 163.8 9.8 Z  M 202.1 39.7 L 188.6 0.7 L 198.8 0.7 L 206.4 27.6 L 206.8 27.6 L 214.8 0.7 L 225 0.7 L 211.9 39.7 L 211.9 68.1 L 202.1 68.1 L 202.1 39.7 L 202.1 39.7 Z  M 231.9 0.7 L 241.7 0.7 L 241.7 58.2 L 261 58.2 L 261 68 L 232.2 68 L 232.2 0.6 L 231.9 0.6 L 231.9 0.7 Z  M 267.2 0.7 L 276.7 0.7 L 276.7 68.1 L 266.9 68.1 L 266.9 0.7 L 267.2 0.7 Z  M 292.7 9.8 L 281.4 9.8 L 281.4 0.7 L 313.4 0.7 L 313.4 9.8 L 302.1 9.8 L 302.1 68.1 L 292.3 68.1 L 292.3 9.8 L 292.7 9.8 Z  M 329.9 9.8 L 318.6 9.8 L 318.6 0.7 L 350.6 0.7 L 350.6 9.8 L 339.3 9.8 L 339.3 68.1 L 329.5 68.1 L 329.5 9.8 L 329.9 9.8 Z  M 355.7 0.7 L 365.5 0.7 L 365.5 58.2 L 384.8 58.2 L 384.8 68 L 356 68 L 356 0.6 L 355.7 0.6 L 355.7 0.7 Z  M 391 0.7 L 419.8 0.7 L 419.8 9.8 L 400.5 9.8 L 400.5 29.5 L 417.2 29.5 L 417.2 38.6 L 400.5 38.6 L 400.5 58.3 L 419.8 58.3 L 419.8 68.1 L 391 68.1 L 391 0.7 Z  M 437.6 9.8 L 426.3 9.8 L 426.3 0.7 L 458.3 0.7 L 458.3 9.8 L 447 9.8 L 447 68.1 L 437.2 68.1 L 437.2 9.8 L 437.6 9.8 Z  M 463.8 0.7 L 473.6 0.7 L 473.6 29.5 L 485.6 29.5 L 485.6 0.7 L 495.4 0.7 L 495.4 68.1 L 485.6 68.1 L 485.6 37.8 L 473.2 37.8 L 473.2 68 L 463.4 68 L 463.4 0.6 L 463.8 0.6 L 463.8 0.7 Z  M 504.6 0.7 L 514.4 0.7 L 514.4 68.1 L 504.6 68.1 L 504.6 0.7 Z  M 524.6 0.7 L 534.1 0.7 L 548.7 41.5 L 549.1 41.5 L 549.1 0.7 L 558.9 0.7 L 558.9 68.1 L 549.8 68.1 L 534.9 27.7 L 534.5 27.7 L 534.5 68.1 L 524.6 68.1 L 524.6 0.7 Z  M 567.2 16.4 C 567.2 5.5 575.6 0 583.6 0 C 591.6 0 600 5.5 600 16.4 L 600 19.7 L 589.8 19.7 L 589.8 16.4 C 589.8 11.7 586.9 9.5 583.2 9.5 C 579.5 9.5 576.6 11.7 576.6 16.4 L 576.6 52.1 C 576.6 56.8 579.5 59 583.2 59 C 586.9 59 589.8 56.8 589.8 52.1 L 589.8 39.4 L 582.2 39.4 L 582.2 31 L 599.6 31 L 599.6 52.1 C 599.6 63 591.2 68.5 583.2 68.5 C 575.2 68.5 566.8 63 566.8 52.1 L 566.8 16.4 L 567.2 16.4 L 567.2 16.4 Z " fill="rgb(34,34,34)"/></g></svg>