<?xml version="1.0" encoding="UTF-8" standalone="no"?><!-- Generator: Gravit.io --><svg xmlns="http://www.w3.org/2000/svg" xmlns:xlink="http://www.w3.org/1999/xlink" style="isolation:isolate" viewBox="0 0 150 150" width="150pt" height="150pt"><defs><clipPath id="_clipPath_h8CnZkEi4JRO9PUEnZdZtMEEUXhvdyFn"><rect width="150" height="150"/></clipPath></defs><g clip-path="url(#_clipPath_h8CnZkEi4JRO9PUEnZdZtMEEUXhvdyFn)"><path d=" M 120.633 90.09 L 30 90.09 L 37.229 97.319 L 120.633 90.09 Z " fill="rgb(191,0,0)"/><path d=" M 135.181 85.482 L 135.181 71.024 C 135.181 68.313 137.078 66.054 139.789 66.054 C 142.5 66.054 144.398 68.313 144.398 71.024 L 144.398 85.482 L 150 85.482 L 150 71.024 C 150 65.06 145.934 60.271 139.97 60.271 C 137.259 60.271 135.181 61.807 135.181 61.807 L 135.181 60.813 L 129.578 60.813 L 129.578 85.392 L 135.181 85.392 L 135.181 85.482 Z " fill="rgb(191,0,0)"/><path d=" M 116.657 60.181 C 110.151 60.181 105.542 65.873 105.542 73.102 C 105.542 80.693 111.325 86.024 117.199 86.024 C 120.181 86.024 123.886 85.03 127.048 80.512 L 122.078 77.62 C 118.283 83.223 111.867 80.422 111.145 74.729 L 127.229 74.729 C 128.675 66.054 122.982 60.181 116.657 60.181 Z  M 121.536 69.94 L 111.506 69.94 C 112.681 64.247 120.452 63.886 121.536 69.94 Z " fill="rgb(191,0,0)"/><path d=" M 103.735 79.608 C 103.193 79.97 102.56 80.241 101.837 80.241 C 100.934 80.241 99.217 79.518 99.217 77.259 L 99.217 66.687 L 104.006 66.687 L 104.006 60.813 L 99.217 60.813 L 99.217 54.669 L 93.614 54.669 L 93.614 60.813 L 90.633 60.813 L 90.633 66.687 L 93.614 66.687 L 93.614 77.259 C 93.614 82.771 97.771 86.024 101.928 86.024 C 103.464 86.024 105.633 85.482 107.349 84.488 L 103.735 79.608 Z " fill="rgb(191,0,0)"/><path d=" M 83.133 60.813 L 83.133 75.271 C 83.133 77.982 81.235 80.241 78.524 80.241 C 75.813 80.241 73.916 77.982 73.916 75.271 L 73.916 60.813 L 68.313 60.813 L 68.313 75.271 C 68.313 81.235 72.38 86.024 78.343 86.024 C 81.054 86.024 83.133 84.488 83.133 84.488 L 83.133 85.392 L 88.735 85.392 L 88.735 60.813 L 83.133 60.813 Z " fill="rgb(191,0,0)"/><path d=" M 57.831 72.38 L 67.41 60.813 L 59.639 60.813 L 52.861 69.398 L 52.861 52.681 L 47.169 52.681 L 47.169 85.482 L 52.861 85.482 L 52.861 75.361 L 61.175 85.482 L 68.946 85.482 L 57.831 72.38 Z " fill="rgb(191,0,0)"/><path d=" M 38.404 60.813 L 38.404 61.898 C 36.687 60.813 35.241 60.181 33.163 60.181 C 26.837 60.181 21.958 65.964 21.958 73.102 C 21.958 80.241 26.747 86.024 33.163 86.024 C 35.241 86.024 36.777 85.392 38.404 84.307 L 38.404 85.392 L 44.006 85.392 L 44.006 60.813 L 38.404 60.813 Z  M 33.072 80.151 C 29.91 80.151 27.651 77.078 27.651 73.193 C 27.651 69.307 29.91 66.235 33.072 66.235 C 36.235 66.235 38.404 69.307 38.404 73.193 C 38.494 77.078 36.235 80.151 33.072 80.151 Z " fill="rgb(191,0,0)"/><path d=" M 5.873 85.482 L 5.873 75.904 L 9.94 75.904 L 17.078 85.392 L 24.398 85.392 L 15.723 73.916 C 18.434 72.018 20.151 68.855 20.151 65.241 C 20.151 59.367 15.361 54.669 9.578 54.669 L 0 54.669 L 0 85.392 L 5.873 85.392 L 5.873 85.482 Z  M 5.873 60.542 L 9.669 60.542 C 12.289 60.542 14.458 62.711 14.458 65.331 C 14.458 67.952 12.289 70.12 9.669 70.12 L 5.873 70.12 L 5.873 60.542 Z " fill="rgb(191,0,0)"/></g></svg>