<?xml version="1.0" encoding="utf-8"?>
<!-- Generator: Adobe Illustrator 25.3.1, SVG Export Plug-In . SVG Version: 6.00 Build 0)  -->
<svg version="1.1" id="Layer_1" xmlns="http://www.w3.org/2000/svg" xmlns:xlink="http://www.w3.org/1999/xlink" x="0px" y="0px"
	 viewBox="0 0 321 321" enable-background="new 0 0 321 321" width="321" height="321" xml:space="preserve">
<g>
	<path fill="#808080" d="M157.406,200.637c1.042-1.334,2.085-2.668,3.423-4.38c-1.768,0.075-2.629,0.915-3.438,1.648
		c-5.917,5.356-13.191,8.78-20.249,11.806c-9.542,4.091-18.806,0.627-26.784-5.597c-3.961-3.09-7.125-7.07-11.738-9.525
		c-1.637-0.872-2.97-2.793-4.939-3.761c-1.525-0.75-1.966-2.465-1.873-4.154c0.283-5.143-0.593-10-2.755-14.744
		c-1.539-3.376,1.019-8.085,4.347-8.896c1.533-1.059,3.393-1.257,5.073-1.925c1.281-0.571,2.208-1.698,3.483-2.23
		c0.168-0.119,0.375-0.221,0.595-0.295c-0.392-0.371-0.39,0.345-0.702,0.26c-1.465,0.8-2.655,2.018-4.267,2.534
		c-2.428,0.922-4.862,1.005-7.309,0.094c-5.649-13.552-7.045-27.723-5.992-42.209c0.54-7.43,2.264-14.592,6.087-22.373
		c0.319,8.181,0.643,15.25,2.379,22.154c2.489,9.899,6.894,18.944,11.907,27.769c1.534,2.702,3.009,4.452,6.269,2.835
		c1.558,0.249,3.002,0.889,4.509,1.311c3.03,0.302,6.063,0.284,9.098-0.089c-2.57,0.359-5.143,0.258-7.717,0.238
		c-1.868-0.337-3.806-0.52-4.994-2.315c-0.48-0.525-0.782-1.106-0.331-1.779c1.898-2.834,1.835-6.009,1.763-9.235
		c-0.077-3.455,0.018-6.923,2.422-10.754c1.504,9.438,10.325,12.106,14.935,18.426c0.783,1.073,1.948,1.29,3.232,0.971
		c8.944-2.224,16.296-6.901,21.696-14.391c1.614-2.238,3.441-4.416,4.263-7.154c-0.352-0.785,0.141-1.004,0.763-1.138
		c0.798,0.222,1.286,0.804,1.714,1.457c1.192,1.948,1.776,4.15,2.596,6.257c0.759,1.95,1.728,3.714,4.357,2.927
		c2.054-0.584,1.299-2.973,2.595-4.037c-0.781-8.314,4.321-11.941,11.177-14.574c9.097-3.495,18.024-4.815,26.899,0.409
		c4.107,2.418,7.577,5.545,9.194,10.155c0.737,2.102,2.057,2.755,4.03,3.2c13.002,2.932,14.106,1.348,13.901,17.074
		c-0.386,29.605-11.774,54.306-37.136,71.301c-2.193,1.47-4.687,2.493-7.041,3.724c-0.914,0.26-1.149-0.172-1.007-0.987
		c18.835-14.692,29.574-34.065,33.236-57.501c0.866-5.539,0.755-11.119,0.263-16.692c-0.436-0.469-0.59-1.079-0.755-1.609
		c-0.303,1.545-0.19,3.169-0.607,4.733c-3.613,29.969-15.391,55.194-41.92,71.792c-4.53,2.834-9.425,4.959-14.495,6.659
		c-1.335,0.448-2.65,1.209-4.399,0.24c1.562-1.205,3-2.31,4.433-3.422c23.391-18.159,33.578-56.886,22.107-84.104
		c-0.567-1.344-1.295-2.621-1.947-3.929c-0.545-0.318-0.882-0.873-1.437-1.272c0.704,0.897,0.012,2.049,0.672,2.903
		c10.063,28.148,0.238,58.275-12.356,72.534c-2.637-6.792-7.199-10.568-14.678-9.401
		C158.934,201.728,157.638,202.629,157.406,200.637z"/>
	<path fill="#808080" d="M153.403,95.984c1.034-4.365,1.713-4.651,5.344-2.079c2.049,1.451,4.012,3.025,6.023,4.53
		c4.576,3.424,6.729,7.918,6.51,13.69c-0.23,6.069-0.167,12.15-0.233,18.225c0.76,2.239-0.246,3.609-2.216,4.504
		c-2.303,0.263-3.384-1.174-4.064-3.032c-0.821-2.24-1.569-4.505-2.673-6.627c-0.423-0.877-0.942-1.7-1.501-2.499
		c-0.95-1.942-2.251-3.659-3.497-5.417C152.251,110.805,151.902,103.554,153.403,95.984z"/>
	<path fill="#818181" d="M160.522,123.959c-0.242,0.305-0.483,0.61-0.725,0.916c-3.639-3.829-7.407-7.545-10.881-11.517
		c-3.786-4.329-4.286-9.824-4.689-15.259c-0.133-1.792,0.975-2.151,2.248-1.226c2.09,1.519,4.765,2.521,5.448,5.46
		c1.059,5.431,2.461,10.732,5.81,15.292c0.926,1.858,2.42,3.389,3.132,5.374C160.963,123.395,160.848,123.715,160.522,123.959z"/>
	<path fill="#E6E6E6" d="M157.526,118.328c-3.397-4.797-6.147-9.82-5.603-15.995c1.704-1.835-0.296-4.531,1.48-6.349
		c-0.603,7.667,0.341,14.98,4.932,21.455C158.716,118.327,158.252,118.447,157.526,118.328z"/>
	<path fill="#E1E1E1" d="M90.272,161.472c2.665,0.349,5.21-0.292,7.755-0.936c0.854-0.286,1.098,0.1,0.977,0.887
		c-1.766,0.89-3.532,1.782-5.603,1.611C92.69,161.848,90.886,162.85,90.272,161.472z"/>
	<path fill="#EBEBEB" d="M168.694,134.478c1.695-0.858,1.882-2.574,2.354-4.128c0.258-0.004,0.517-0.007,0.775-0.008
		c0.109,1.997,0.701,4.203-2.128,4.936C168.872,135.622,168.62,135.253,168.694,134.478z"/>
	<path fill="#C9C9C9" d="M223.975,149.573c0-2.15,0-4.3,0-6.867c1.383,1.251,1.609,2.414,1.363,3.743
		C224.884,147.491,224.43,148.532,223.975,149.573z"/>
	<path fill="#E2E2E2" d="M186.989,138.44c-0.821-1.704-1.642-3.408-2.914-6.048c2.564,1.389,3.151,2.88,3.68,4.417
		C187.5,137.352,187.244,137.896,186.989,138.44z"/>
	<path fill="#E1E1E1" d="M111.818,148.792c1.598,0.558,3.195,1.117,4.793,1.675c-0.051,1.486-0.924,1.012-1.721,0.721
		c-1.518-0.012-2.81-0.605-3.968-1.542C111.221,149.362,111.519,149.077,111.818,148.792z"/>
	<path fill="#9A9A9A" d="M191.838,220.642c0.336,0.329,0.671,0.657,1.007,0.986c-0.988,0.94-2.145,1.429-3.975,1.55
		C189.589,221.561,190.762,221.154,191.838,220.642z"/>
	<path fill="#A6A6A6" d="M157.406,200.637c0.575,1.059,1.675,0.69,2.549,0.936c-1.092,0.74-2.357,1.252-3.461,0.412
		C156.01,201.617,156.843,200.946,157.406,200.637z"/>
	<path fill="#FBFBFB" d="M119.885,190.227c1.778,0.463,3.434,0.914,5.43,0.522c2.543-0.499,4.083,1.624,4.297,3.771
		c0.202,2.033-2.089,2.001-3.554,2.261c-3.216,0.57-6.028-0.635-8.666-2.329c-2.126-1.365-4.23-2.765-6.344-4.149
		c-0.226-1.233,0.733-1.374,1.531-1.669c0.854-0.173,1.715-0.167,2.578-0.089C116.803,188.906,118.537,189.029,119.885,190.227z"/>
	<path fill="#F5F5F5" d="M111.069,187.103c3.14-0.982,6.275-1.981,9.425-2.931c0.49-0.148,1.078-0.201,1.569-0.082
		c2.203,0.536,5.029,1.152,4.873,3.756c-0.152,2.54-2.95,1.217-4.604,1.518c-0.514,0.094-1.055,0.041-1.584,0.056
		c-1.871-0.058-3.753,0.043-5.604-0.348C113.869,188.243,111.488,189.7,111.069,187.103z"/>
	<path fill="#F9F9F9" d="M94.294,175.798c0.342-2.784,2.733-3.698,5.491-4.031c1.291-0.156,2.81-0.22,3.072,1.622
		c0.179,1.262-4.957,6.309-6.285,6.167C94.676,179.352,94.454,177.854,94.294,175.798z"/>
	<path fill="#EFEFEF" d="M129.395,158.094c4.59-1.065,9.181-2.131,13.771-3.196c-3.143,6.857-9.052,3.031-13.638,4.299
		C129.484,158.829,129.44,158.462,129.395,158.094z"/>
	<path fill="#E5E5E5" d="M168.694,134.478c0.333,0.266,0.666,0.532,1,0.799c-3.256,1.504-4.64-0.727-5.71-3.071
		c-0.981-2.15-1.601-4.465-2.38-6.707c0.161-0.358,0.224-0.798,0.73-0.866c1.033,2.257,2.089,4.504,3.089,6.775
		C166.084,132.911,166.875,134.228,168.694,134.478z"/>
	<path fill="#E1E1E1" d="M114.89,151.188c0.574-0.24,1.147-0.481,1.721-0.721c2.864,0,5.729,0,8.593,0
		C121.88,152.173,118.443,152.447,114.89,151.188z"/>
	<path fill="#E2E2E2" d="M132.66,201.493c-2.475,1.136-4.935,2.692-7.818,0.296c2.465-0.44,4.655-0.83,6.846-1.221
		C132.615,200.244,132.785,200.713,132.66,201.493z"/>
	<path fill="#DEDEDE" d="M132.763,163.003c2.41,0.803,4.821,1.606,7.231,2.409c-0.326,0.757-1.236,0.302-1.682,0.809
		c-2.33-0.265-4.308-1.462-6.383-2.402C131.758,163.09,131.913,162.692,132.763,163.003z"/>
	<path fill="#D5D5D5" d="M132.66,201.493c-0.324-0.308-0.647-0.616-0.972-0.925c1.796-1.191,3.56-2.423,5.044-5.127
		C137.519,199.915,134.312,200.081,132.66,201.493z"/>
	<path fill="#EDEDED" d="M142.05,165.393c1.829-1.083,3.775-2.013,5.051-3.825c0.725-0.204,1.101-0.054,0.797,0.785
		c-1.007,1.668-2.123,3.225-4.043,3.963C143.118,166.274,142.406,166.182,142.05,165.393z"/>
	<path fill="#FCFCFC" d="M142.05,165.393c0.679,0.157,1.419,0.195,1.805,0.923c-1.876,1.603-3.705,0.451-5.544-0.095
		c0.561-0.27,1.121-0.539,1.682-0.809C140.679,165.406,141.365,165.4,142.05,165.393z"/>
	<path fill="#989898" d="M111.069,187.103c0.973,1.422,2.868,0.52,3.985,1.579c0.261,0.16,0.348,0.32,0.263,0.482
		c-0.085,0.162-0.171,0.244-0.259,0.244c-0.746-0.01-1.493-0.021-2.239-0.031c-1.064-0.603-2.329,0.161-3.387-0.496
		c-0.26-0.343-0.253-0.68,0.022-1.011C109.81,187.229,110.4,187.083,111.069,187.103z"/>
	<path fill="#949494" d="M115.059,189.407c-0.001-0.242-0.003-0.484-0.005-0.726c1.92,0.075,3.889-0.22,5.694,0.739
		c-0.288,0.269-0.576,0.538-0.864,0.806C118.184,190.496,116.648,189.797,115.059,189.407z"/>
	<path fill="#D0D0D0" d="M99.003,161.423c-0.325-0.295-0.65-0.59-0.976-0.886c1.405-0.778,2.811-1.556,4.216-2.334
		c0.244,0.199,0.324,0.397,0.241,0.593c-0.083,0.196-0.165,0.294-0.248,0.294C101.419,160.227,100.271,160.908,99.003,161.423z"/>
	<path fill="#C3C3C3" d="M132.763,163.003c-0.278,0.272-0.556,0.544-0.834,0.816c-1.029-0.424-2.225-0.607-2.776-1.966
		C130.546,161.871,131.726,162.197,132.763,163.003z"/>
	<path fill="#E6E6E6" d="M109.531,188.531c1.107,0.238,2.351-0.052,3.288,0.846c-0.673,0.15-1.404,0.19-1.771,0.926
		c-0.759-0.305-1.517-0.609-2.276-0.914C108.5,188.64,108.753,188.354,109.531,188.531z"/>
	<path fill="#BEBEBE" d="M102.237,159.09c0.002-0.295,0.005-0.59,0.007-0.886c0.384-0.856,1.022-1.434,2.206-1.879
		C104.254,157.874,103.383,158.581,102.237,159.09z"/>
	<path fill="#F4F4F4" d="M162.333,124.632c-0.243,0.289-0.487,0.577-0.73,0.866c-0.36-0.513-0.721-1.026-1.081-1.539
		c0.042-0.226,0.051-0.453,0.028-0.682c-0.355-0.865,0.078-0.998,0.802-0.86C161.678,123.155,162.006,123.894,162.333,124.632z"/>
	<path fill="#C2C2C2" d="M147.899,162.353c-0.266-0.262-0.532-0.523-0.797-0.785c0.327-0.857,0.801-1.587,1.926-2.061
		C149.329,160.802,148.666,161.594,147.899,162.353z"/>
	<path fill="#B7B7B7" d="M109.531,188.531c-0.253,0.286-0.506,0.573-0.759,0.859c-0.709-0.225-1.939-0.464-1.704-1.128
		c0.312-0.882,1.563-0.225,2.387-0.392C109.466,188.091,109.491,188.312,109.531,188.531z"/>
	<path fill="#FCFCFC" d="M164.001,120.055c-4.888-5.557-7.86-11.286-7.495-18.368c0.039-0.762-0.069-1.713,0.724-2.145
		c1.058-0.576,1.729,0.374,2.391,0.937C164.104,104.291,166.361,113.719,164.001,120.055z"/>
	<path fill="#DADADA" d="M161.351,122.417c-0.267,0.287-0.534,0.573-0.801,0.86c-1.008-1.649-2.016-3.299-3.024-4.948
		c0.27-0.296,0.54-0.593,0.81-0.889C159.607,118.937,160.698,120.544,161.351,122.417z"/>
</g>
</svg>
