<?xml version="1.0" encoding="UTF-8" standalone="no"?><!-- Generator: Gravit.io --><svg xmlns="http://www.w3.org/2000/svg" xmlns:xlink="http://www.w3.org/1999/xlink" style="isolation:isolate" viewBox="0 0 150 150" width="150pt" height="150pt"><defs><clipPath id="_clipPath_Gm32guYWgpE77sbUeywgzv200Ju7SjiV"><rect width="150" height="150"/></clipPath></defs><g clip-path="url(#_clipPath_Gm32guYWgpE77sbUeywgzv200Ju7SjiV)"><path d=" M 85.33 48.18 C 86.512 48.63 87.683 49.08 88.854 49.542 C 91.386 63.748 84.778 83.381 96.362 92.612 C 96.092 92.882 95.822 93.152 95.462 93.513 C 94.291 93.783 94.921 93.423 93.739 94.413 C 84.148 89.257 88.223 78.664 83.608 68.443 C 82.887 73.328 80.715 76.762 78.362 79.846 C 77.641 79.846 76.91 79.846 76.189 79.846 C 72.756 78.124 70.031 74.33 69.131 70.165 C 68.951 70.165 68.861 70.165 68.681 70.165 C 68.23 77.223 67.78 84.192 67.318 91.25 C 66.598 90.529 67.408 91.07 66.418 90.8 C 66.418 88.807 66.868 89.437 65.968 88.177 C 65.787 89.359 65.697 90.529 65.517 91.711 C 65.337 91.711 65.247 91.711 65.067 91.711 C 65.067 87.726 60.001 66.563 63.705 60.045 C 65.697 59.594 66.328 59.234 68.5 60.045 C 71.033 64.48 73.476 68.825 76.009 73.249 C 76.279 73.069 76.549 72.979 76.91 72.799 C 78.002 65.64 80.805 52.525 85.33 48.18 Z " fill="rgb(255,105,110)"/><path d=" M 145.95 51.253 C 147.121 51.703 148.303 52.153 149.474 52.615 C 150.104 55.328 150.645 56.87 148.112 58.311 C 145.309 59.122 133.995 59.583 134.085 61.384 C 133.905 61.835 133.815 62.285 133.635 62.746 C 134.536 62.206 135.357 61.576 136.258 61.024 C 135.808 63.827 135.357 66.63 134.896 69.343 C 135.076 69.343 135.166 69.343 135.346 69.343 C 137.969 68.443 140.592 67.621 143.215 66.72 C 143.035 67.261 142.945 67.891 142.765 68.443 C 142.765 69.715 142.855 69.343 142.314 70.615 C 139.511 71.977 136.708 73.238 133.995 74.6 C 134.175 76.683 134.265 78.675 134.445 80.758 C 135.346 81.479 136.168 82.21 137.068 82.931 C 139.962 81.569 142.945 80.308 145.849 78.946 C 145.579 81.298 146.299 81.118 145.849 82.931 C 142.956 89.809 134.716 88.897 129.56 85.103 C 128.659 82.3 126.577 76.784 126.937 74.161 C 126.397 73.891 126.036 74.161 126.487 73.711 C 125.856 70.908 129.11 66.383 130.01 61.857 C 128.378 61.857 126.757 61.857 125.215 61.857 C 125.034 61.587 124.944 61.317 124.764 60.957 C 126.577 60.957 125.755 61.047 127.387 60.506 C 127.387 60.326 127.387 60.236 127.387 60.056 C 126.205 60.056 125.034 60.056 123.864 60.056 C 123.864 59.876 123.864 59.786 123.864 59.606 C 124.134 59.606 124.404 59.606 124.764 59.606 C 129.481 54.788 139.613 55.688 145.95 51.253 Z " fill="rgb(255,105,110)"/><path d=" M 112.111 57.411 C 113.293 58.311 114.464 59.133 115.635 60.033 C 120.07 55.778 125.676 75.872 121.331 82.469 C 116.175 90.338 111.109 82.469 108.576 82.919 C 106.944 86.724 103.691 88.796 97.994 88.616 C 96.632 87.895 95.372 87.163 94.009 86.443 C 91.657 80.567 91.747 75.039 93.559 67.981 C 93.829 68.431 94.099 68.882 94.46 69.343 C 94.82 66.18 94.82 65.088 94.009 62.735 C 95.822 64.097 95.912 66.9 95.372 69.343 C 96.734 69.613 95.732 68.713 96.734 69.794 C 97.454 68.623 98.186 67.441 98.906 66.27 C 99.086 71.426 99.176 76.492 99.357 81.647 C 99.897 81.377 100.539 81.107 101.079 80.747 C 104.884 78.394 104.974 71.966 106.775 67.992 C 109.398 67.632 108.588 66.912 110.299 68.893 C 111.931 72.507 113.552 76.221 115.094 79.846 C 115.364 79.666 115.635 79.576 115.995 79.396 C 119.259 70.705 114.734 65.099 112.111 57.411 Z " fill="rgb(255,105,110)"/><path d=" M 6.608 57.861 C 6.878 58.041 7.148 58.131 7.509 58.311 C 7.25 58.131 6.889 57.951 6.608 57.861 Z " fill="rgb(255,105,110)"/><path d=" M 57.187 61.756 C 55.465 61.936 53.663 62.026 51.941 62.206 C 51.221 64.559 53.022 63.658 50.579 64.829 C 50.309 65.369 50.039 66 49.678 66.551 C 51.581 66.551 53.483 66.551 55.374 66.551 C 56.647 74.78 52.932 80.038 47.055 82.379 C 44.973 82.379 44.072 82.469 43.07 81.479 C 40.267 76.233 46.414 69.805 49.217 67.002 C 47.404 66.101 47.134 66.461 45.232 67.452 C 45.052 67.452 44.962 67.452 44.781 67.452 C 45.963 66 47.134 64.559 48.305 63.017 C 42.08 65.55 30.676 72.608 37.374 85.903 C 31.768 83.28 26.241 80.657 20.635 78.034 C 20.364 77.584 20.094 77.133 19.734 76.672 C 27.333 72.777 35.843 66.54 37.284 57.76 C 34.031 52.795 30.226 50.983 22.447 51.253 C 17.651 52.255 12.766 53.335 7.97 54.337 C 5.707 55.148 4.537 57.23 0.462 57.861 C 0.462 58.041 0.462 58.131 0.462 58.311 C 2.364 59.583 3.985 58.942 6.158 58.311 C 6.158 58.491 6.158 58.581 6.158 58.761 C 4.075 59.752 2.083 60.844 0 61.835 C 0 62.015 0 62.105 0 62.285 C 1.722 62.015 3.524 61.745 5.246 61.384 C 4.796 61.564 4.345 61.655 3.884 61.835 C 3.884 62.015 3.884 62.105 3.884 62.285 C 4.874 62.105 5.966 62.015 6.957 61.835 C 7.137 72.056 4.064 91.239 7.858 98.747 C 8.578 100.289 9.4 100.199 10.931 101.82 C 11.111 101.82 11.201 101.82 11.381 101.82 C 12.642 96.214 12.743 87.704 12.743 80.285 C 16.267 80.465 28.301 87.524 34.278 89.516 C 35.269 89.516 36.361 89.516 37.352 89.516 C 37.532 88.345 37.171 89.426 37.802 88.154 C 37.532 87.974 37.262 87.884 36.901 87.704 C 42.057 88.244 45.772 90.417 50.928 88.154 C 58.099 85.002 67.228 68.263 57.187 61.756 Z  M 12.766 60.033 C 15.839 59.493 18.912 58.863 21.997 58.311 C 24.53 58.581 26.972 58.851 29.505 59.212 C 29.775 59.212 30.046 59.212 30.406 59.212 C 26.972 65.088 19.734 70.435 13.666 73.598 C 13.846 68.353 13.846 64.199 12.766 60.033 Z " fill="rgb(255,105,110)"/><path d=" M 10.143 60.934 C 10.413 61.835 10.683 62.656 11.043 63.557 C 10.863 61.666 11.043 61.756 10.143 60.934 Z " fill="rgb(255,105,110)"/><path d=" M 7.97 61.294 C 7.97 61.564 7.97 61.835 7.97 62.195 C 7.97 61.936 7.97 61.666 7.97 61.294 Z " fill="rgb(255,105,110)"/><path d=" M 126.588 62.206 C 126.858 62.206 127.128 62.206 127.488 62.206 C 127.218 62.206 126.948 62.206 126.588 62.206 Z " fill="rgb(255,105,110)"/><path d=" M 133.196 63.107 C 133.196 63.377 133.196 63.647 133.196 64.007 C 133.196 63.647 133.196 63.377 133.196 63.107 Z " fill="rgb(255,105,110)"/><path d=" M 93.649 69.715 C 93.649 70.165 93.649 70.615 93.649 71.077 C 93.829 70.627 93.919 70.176 94.099 69.715 C 93.919 69.715 93.829 69.715 93.649 69.715 Z " fill="rgb(255,105,110)"/><path d=" M 96.272 70.165 C 96.452 70.885 96.542 71.617 96.722 72.338 C 96.542 71.617 96.452 70.885 96.272 70.165 Z " fill="rgb(255,105,110)"/><path d=" M 95.822 73.238 C 96.002 73.959 96.092 74.69 96.272 75.411 C 96.182 74.69 96.002 73.97 95.822 73.238 Z " fill="rgb(255,105,110)"/></g></svg>