<?xml version="1.0" encoding="utf-8"?>
<!-- Generator: Adobe Illustrator 16.0.0, SVG Export Plug-In . SVG Version: 6.00 Build 0)  -->
<svg version="1.2" baseProfile="tiny" id="Layer_1" xmlns="http://www.w3.org/2000/svg" xmlns:xlink="http://www.w3.org/1999/xlink"
	 x="0px" y="0px" width="3000px" height="3000px" viewBox="0 0 3000 3000" xml:space="preserve">
<g>
	<path d="M2531.166,1182.336L2531.166,1182.336c1.649,1.645,3.32,3.303,4.961,4.946
		c110.564,102.316,221.115,204.628,331.708,306.943c0-97.374,0-196.383,0-293.738c42.894,0,85.796,0,128.698,0
		c0,206.271,0,410.903,0,617.176c-112.205-103.965-224.414-209.588-338.281-313.545c0,97.383,0,194.74,0,292.096
		c-42.921,0-84.174,0-127.081,0C2531.166,1593.223,2531.166,1386.95,2531.166,1182.336L2531.166,1182.336z"/>
	<path d="M52.603,1278.048c34.653-51.161,95.711-79.21,155.116-85.81c90.751-8.258,189.769,6.6,260.73,69.307
		c-29.703,28.054-61.054,54.458-90.766,82.507c-32.995-29.702-77.551-44.556-122.106-44.556
		c-33.005-1.653-67.658,9.907-85.805,37.951c-13.205,19.81-8.258,49.507,9.902,64.365c29.688,24.751,67.649,36.298,103.956,49.502
		c52.8,16.507,105.614,34.653,148.516,70.96c59.4,47.863,72.604,145.213,26.404,206.271
		c-39.604,52.818-103.955,80.867-168.315,85.801c-57.761,1.639-115.521,0-169.974-19.783
		c-41.253-13.199-77.556-36.32-112.205-61.084c29.693-28.045,61.049-56.104,90.751-84.146
		c51.156,39.609,117.165,61.057,181.525,52.809c28.049-4.938,57.76-19.805,67.658-47.854c6.6-24.742-8.259-49.508-29.707-61.063
		c-66.009-37.965-143.57-46.186-207.93-87.459c-34.654-21.453-64.352-54.458-75.907-94.048
		C21.256,1365.506,26.198,1315.999,52.603,1278.048L52.603,1278.048z"/>
	<path d="M706.076,1202.141c42.897,0,85.81,0,128.707,0c0,79.209,0,156.76,0,235.97c87.477,0,173.281,0,260.734,0
		c0-79.21,0-156.761,0-235.97c42.911,0,87.458,0,130.369,0c0,199.672,0,397.685,0,597.357c-42.911,0-87.458,0-130.369,0
		c0-87.443,0-176.574,0-264.018c-87.453,0-173.258,0-260.734,0c0,87.443,0,176.574,0,264.018c-42.894,0-85.805,0-128.707,0
		C706.076,1601.498,706.076,1401.813,706.076,1202.141L706.076,1202.141z"/>
	<path d="M1478.35,1202.141c146.862,0,292.095,0,438.957,0c0,31.352,0,64.352,0,95.702c-103.955,0-207.92,0-311.881,0
		c0,47.858,0,94.067,0,141.921c102.293,0,204.633,0,306.926,0c0,31.355,0,62.703,0,94.068c-102.294,0-204.633,0-306.926,0
		c0,54.461,0,108.92,0,163.373c103.956,0,207.921,0,311.881,0c0,34.635,0,67.641,0,102.293c-146.857,0-292.09,0-438.957,0
		C1478.35,1601.498,1478.35,1401.813,1478.35,1202.141L1478.35,1202.141z"/>
	<path d="M2146.676,1202.141c42.898,0,85.814,0,128.721,0c0,199.672,0,397.685,0,597.357c-42.906,0-85.822,0-128.721,0
		C2146.676,1601.498,2146.676,1401.813,2146.676,1202.141L2146.676,1202.141z"/>
</g>
</svg>
