<?xml version="1.0" encoding="utf-8"?>
<!-- Generator: Adobe Illustrator 19.0.0, SVG Export Plug-In . SVG Version: 6.00 Build 0)  -->
<svg version="1.1" id="Layer_1" xmlns="http://www.w3.org/2000/svg" xmlns:xlink="http://www.w3.org/1999/xlink" x="0px" y="0px"
	 viewBox="-25 172 908 218" style="enable-background:new -25 172 908 218;" xml:space="preserve">
<style type="text/css">
	.st0{fill:#F9564F;}
</style>
<title>Group 2</title>
<desc>Created with Sketch.</desc>
<g id="Page-1">
	<g id="Group-2">
		<path id="SHOEBACCA" d="M189.7,311.3v6.8c0,15.8,5.6,28.6,24.8,28.6c20.3,0,25.2-15.5,25.2-32.4c0-19.8-5.2-27-22-39.6
			c-11-8.3-13.3-12.6-13.3-23.8c0-9.4,2.2-16.6,10.4-16.6s10.1,6.5,10.1,16.4v5.2h12.8v-5.6c0-15.3-4.7-27.2-22.7-27.2
			c-18.7,0-23.3,14.6-23.3,29.9c0,17.6,6.5,23.8,19.4,33.8c12.6,9.9,15.7,15.3,15.7,29.3c0,13.3-3.2,19.4-11.9,19.4
			c-8.5,0-12.4-5.9-12.4-17.3v-7L189.7,311.3L189.7,311.3z M270.5,345.1h13v-58.7h25v58.7h12.8V224.9h-12.8v49.9h-25v-49.9h-13
			V345.1L270.5,345.1z M380.5,223.3c-16.9,0-26.3,10.8-26.3,31.1v60.8c0,19.6,6.8,31.5,25.6,31.5c17.8,0,26.6-10.6,26.6-31.7v-60.7
			C406.4,235.5,398.3,223.3,380.5,223.3L380.5,223.3L380.5,223.3z M380.1,235c8.8,0,13.1,6.1,13.1,18.9v61.7
			c0,14.2-4.5,19.4-13,19.4c-8.1,0-13-5.2-13-18.9v-62.3C367.3,240.7,371.5,235,380.1,235L380.1,235L380.1,235z M479.1,275.1h-27
			v-38.3h28.4v-11.9h-41.2v120.2h41.8l1.6-11.7h-30.6V287h27L479.1,275.1L479.1,275.1z M511.2,345.1h21.4
			c20.5,0,27.7-10.4,27.7-31.3v-9c0-16.2-7-22-13.7-24.1c6.1-2.2,11.2-7.4,11.2-24.3V251c0-16.2-7-26.1-25.6-26.1h-21.1L511.2,345.1
			L511.2,345.1z M523.8,275.8v-40.1h7.6c10.3,0,14.2,5.4,14.2,16.4v5.4c0,13.9-3.2,18.4-13.9,18.4L523.8,275.8L523.8,275.8
			L523.8,275.8z M523.8,286.5h7.6c11.7,0,16.2,5.6,16.2,18.7v8.3c0,14.8-3.2,20.9-16,20.9h-7.7L523.8,286.5L523.8,286.5z
			 M625.3,306.8l6.1,38.3h13.5l-20.7-120.2H606l-19.8,120.2h13l5.8-38.3H625.3L625.3,306.8z M606.7,294.9c3.2-22,7.6-49,7.9-58.1
			h0.5c1.3,11.3,4.1,31.7,8.5,58.1H606.7L606.7,294.9z M707.5,310.6v5c0,11.3-1.6,19.4-11,19.4c-9,0-11.7-7.9-11.7-20v-62.3
			c0-10.6,2.3-17.8,11.3-17.8c9.4,0,11,7.9,11,17.5v5.6h13v-4.7c0-15.7-3.6-30.1-23.8-30.1c-16.4,0-24.7,10.6-24.7,29.9v61.2
			c0,17.6,3.6,32.4,24.5,32.4c21.8,0,24.5-16.7,24.5-32v-4.1L707.5,310.6L707.5,310.6z M785.7,310.6v5c0,11.3-1.6,19.4-11,19.4
			c-9,0-11.7-7.9-11.7-20v-62.3c0-10.6,2.3-17.8,11.3-17.8c9.4,0,11,7.9,11,17.5v5.6h13v-4.7c0-15.7-3.6-30.1-23.8-30.1
			c-16.4,0-24.7,10.6-24.7,29.9v61.2c0,17.6,3.6,32.4,24.5,32.4c21.8,0,24.5-16.7,24.5-32v-4.1L785.7,310.6L785.7,310.6z
			 M863.4,306.8l6.1,38.3H883l-20.7-120.2h-18.2l-19.8,120.2h13l5.8-38.3H863.4L863.4,306.8z M844.9,294.9c3.2-22,7.6-49,7.9-58.1
			h0.5c1.3,11.3,4.1,31.7,8.5,58.1H844.9L844.9,294.9z"/>
		<polygon id="Path" class="st0" points="28.8,270.4 55.8,270.4 55.8,232 27.3,232 27.3,220.1 68.5,220.1 68.5,340.4 26.8,340.4 
			25.2,328.7 55.8,328.7 55.8,282.2 28.8,282.2 		"/>
		<g id="XMLID_3_">
			<rect id="XMLID_32_" x="106.7" y="316" class="st0" width="12" height="15"/>
			<polygon id="XMLID_34_" class="st0" points="-24.3,172 -24.3,390 118.7,390 118.7,346 106.7,346 106.7,377 -11.3,377 -11.3,185 
				106.7,185 106.7,300 118.7,300 118.7,172 			"/>
		</g>
	</g>
</g>
</svg>
