<svg xmlns="http://www.w3.org/2000/svg" version="1.0" viewBox="0 0 800 92" fit="" height="100%" width="100%" preserveAspectRatio="xMidYMid meet" focusable="false"><path d="M420.7 2.1c-10.7 1.5-20.1 8.5-22.6 16.8-3.7 12.5 2.3 23.2 15.8 28 3.1 1.1 10.2 3.4 15.9 5.1 13.3 4 17.7 7.6 17.6 14.2-.2 9.2-7 14.2-19.4 14.2-8.8 0-17.1-3.2-23.1-9l-3.6-3.6-3.9 4.8-3.9 4.7 3.5 2.9c8.6 7.3 18.4 10.8 30.2 10.8 18.1 0 29.2-7.3 31.8-20.8 2.7-14.5-4.5-23.5-23.4-29.3-17.6-5.4-21.5-7-24.1-10.1-3-3.6-3.2-7.2-.5-11.5 5.5-9.1 22.2-9.5 34.9-.8 2.8 1.9 5.2 3.5 5.4 3.5.2 0 1.8-1.8 3.6-4l3.2-4-2.8-2.6c-4-3.6-13.9-8.2-19.2-8.9-2.5-.3-5.7-.7-7.1-.9-1.4-.1-5.1.1-8.3.5zM19.4 3.8C8.5 7.6 2.6 15.4 2.6 26.1c-.1 5.9.3 7.3 2.9 11.1 3.9 5.5 10.1 8.8 24 12.9 14.5 4.2 20.1 7.1 22.2 11.3 2.3 4.8 1 10.2-3.3 14.2-8.4 8-26.5 6.3-37.6-3.5-2-1.7-4-3.1-4.5-3.1-.6 0-2.3 1.8-3.8 4l-2.8 4.1 2.9 3c3.9 4.2 12.7 8.5 20.2 9.9 8.6 1.7 20.5.9 27-2C62.4 82.5 68.4 68.1 63 56.2 59.3 48.1 52.9 44.1 35.5 39c-6-1.7-12.8-4.1-15-5.3C6.7 26 17.7 10.3 35.4 12.4c6.5.7 10.7 2.4 16.5 6.7l4.5 3.2 3.3-3.9c1.8-2.1 3.3-4.2 3.3-4.6C63 12 53 5.9 47.1 4 39 1.4 26.5 1.4 19.4 3.8zm202.8.1c-17.1 5.9-28.2 22.4-28.2 42 0 19.4 8.6 33.7 24.8 41.4 6.3 3 7.4 3.2 17.7 3.2 9.1 0 12-.4 16.8-2.3 11.2-4.6 19-12.7 23.9-25.2 3.1-7.8 3.1-24.9 0-33.3-4.7-12.8-13.5-21.5-26-25.8-7.4-2.5-21.6-2.5-29 0zm28.3 11.4c6.5 3.3 10.8 7.8 13.9 14.8 4.7 10.1 4.4 24.5-.6 34.2-3 6-10.1 12.3-16.1 14.3-17 5.9-34.5-2.6-39.7-19.4-6.3-20.2 2.1-40.2 19.2-45.8 6.5-2.1 17.2-1.3 23.3 1.9zM94 46.5V90h12V50h49v40h11V3h-11v37h-49V3H94v43.5zm216 0V90h11V56.3l15.3-.5c17.5-.6 23.2-2.3 29.1-8.8 10.1-11.2 7.9-31.4-4.4-39.2-6.8-4.3-9.9-4.8-31.2-4.8H310v43.5zm41.9-31c5.6 3.3 7.6 6.8 7.6 13.5 0 6.3-1.6 9.5-6.9 13.4-2.4 1.9-4.5 2.1-17.2 2.4l-14.4.3V12.8l13.8.4c11.5.2 14.2.6 17.1 2.3zM481 8v5h27v75.7l3.8.7c7.9 1.3 7.2 5.1 7.2-37.9V13h27V3h-65v5zm84.9-3.3c.5 1 8.2 12.4 17 25.3L599 53.5v35.2l3.8.7c7.8 1.3 7.2 2.7 7.2-17.5V53.8l17-24.9c9.4-13.8 17-25.2 17-25.5 0-.2-3-.4-6.7-.4h-6.8l-12.9 19.5c-7.1 10.7-13 19.5-13.1 19.5-.1 0-6-8.8-13.1-19.5L578.5 3h-6.8c-6.1 0-6.7.2-5.8 1.7zM667 45.8v42.9l18.2.6c9.9.4 21.4.7 25.5.7h7.3V79h-39V3h-12v42.8zm76 0v42.9l19.7.6c10.8.4 23.6.7 28.5.7h8.8V79h-45V50h45V40h-45V13h45V3h-57v42.8z"></path></svg>