<?xml version="1.0" encoding="utf-8"?>
<!-- Generator: Adobe Illustrator 25.3.1, SVG Export Plug-In . SVG Version: 6.00 Build 0)  -->
<svg version="1.1" id="Layer_1" xmlns="http://www.w3.org/2000/svg" xmlns:xlink="http://www.w3.org/1999/xlink" x="0px" y="0px"
	 viewBox="0 0 223.54 42.63" enable-background="new 0 0 223.54 42.63" xml:space="preserve">
<path fill="#F18A00" d="M40.91,10.92H3C-2.759,20.828,0.082,33.499,9.52,40c4.8-0.84,11.64-2.87,11.64-7.67
	c0-5.6-10.94-7.51-10.3-13.22c0.61-5.34,9.82-6.2,9.82-6.2s-4.83,1.39-4.51,4.23c0.49,4.27,17,6,17.94,15.85
	c0.321,3.869-1.562,7.589-4.87,9.62c11.425-4.038,17.413-16.572,13.375-27.997C42.162,13.332,41.591,12.096,40.91,10.92"/>
<path fill="#F18A00" d="M9.59,9.31c0,0,7.51-6.31,8.97-6.31s9,6.31,9,6.31h2.2L25.06,6c0,0,1-1.45,2-1.41s6.67,4.69,6.67,4.69h6.14
	c-3.022-4.282-7.477-7.341-12.56-8.62C20.297-1.121,12.857,0.684,7.44,5.48C6.15,6.62,4.995,7.905,4,9.31H9.59z"/>
<path fill="#F18A00" d="M93.54,7.32c-0.016-0.45-0.38-0.81-0.83-0.82h-4.79c-0.446,0.015-0.805,0.374-0.82,0.82l0.39,2.28v24.06
	l-0.39,2.28c0.01,0.45,0.37,0.814,0.82,0.83h4.79c0.454-0.011,0.819-0.376,0.83-0.83l-0.39-2.28V9.6L93.54,7.32z"/>
<path fill="#F18A00" d="M121.09,11.69l2.31,0.38c0.447,0.006,0.814-0.353,0.82-0.8c0-0.007,0-0.013,0-0.02l-0.38-3.93
	c0-0.453-0.367-0.82-0.82-0.82c-0.007,0-0.013,0-0.02,0h-18c-0.453,0-0.82,0.367-0.82,0.82l0.39,2.27v24.08l-0.39,2.27
	c-0.006,0.453,0.357,0.824,0.81,0.83c0.003,0,0.007,0,0.01,0h18c0.454-0.005,0.82-0.375,0.82-0.83l0.38-3.93
	c0-0.453-0.367-0.82-0.82-0.82l-2.29,0.39h-10.9V24h8.42l2.27,0.39c0.449-0.005,0.81-0.371,0.81-0.82v-4.36
	c-0.01-0.445-0.365-0.804-0.81-0.82l-2.27,0.39h-8.42v-7.09H121.09z"/>
<path fill="#F18A00" d="M154.74,33.67l-4.93-9.14c3.76-1.52,6.4-4.75,6.4-8.73c-0.039-5.171-4.259-9.333-9.43-9.3H134
	c-0.453,0-0.82,0.367-0.82,0.82c0,0,0,0,0,0l0.38,2.31v24l-0.38,2.27c-0.006,0.453,0.357,0.824,0.81,0.83c0.003,0,0.007,0,0.01,0
	h4.75c0.45-0.016,0.81-0.38,0.82-0.83l-0.38-2.27v-8.71H144l4.38,8.73l1,2.73c0.137,0.251,0.404,0.402,0.69,0.39h5.31
	c0.452,0.027,0.84-0.317,0.868-0.77c0.01-0.173-0.034-0.345-0.128-0.49L154.74,33.67z M146.31,20.29h-7.05v-8.6h7.05
	c2.325,0.01,4.221,1.866,4.28,4.19C150.591,18.266,148.695,20.22,146.31,20.29"/>
<path fill="#F18A00" d="M223.45,35.64l-1.29-2l-12.41-27.1c-0.117-0.302-0.417-0.492-0.74-0.47h-0.43
	c-0.316-0.006-0.604,0.18-0.73,0.47l-12.54,27.14l-1.29,2c-0.206,0.366-0.077,0.829,0.289,1.035
	c0.134,0.075,0.288,0.109,0.441,0.095h4.92c0.562,0.005,1.066-0.343,1.26-0.87l0.23-2.23l1.11-2.44h12.93l1.1,2.43l0.24,2.24
	c0.172,0.54,0.684,0.897,1.25,0.87h4.93c0.418,0.037,0.787-0.271,0.825-0.689c0.014-0.153-0.019-0.307-0.095-0.441 M204.39,26.48
	l4.23-9.52h0.14l4.32,9.52H204.39z"/>
<path fill="#F18A00" d="M187.06,33.67l-4.93-9.14c3.77-1.52,6.4-4.75,6.4-8.73c-0.039-5.171-4.259-9.333-9.43-9.3h-12.75
	c-0.453,0-0.82,0.367-0.82,0.82c0,0,0,0,0,0l0.39,2.31v24l-0.39,2.27c-0.006,0.453,0.357,0.824,0.81,0.83c0.003,0,0.007,0,0.01,0
	h4.76c0.45-0.016,0.81-0.38,0.82-0.83l-0.39-2.27v-8.71h4.8l4.38,8.73l1,2.73c0.139,0.249,0.405,0.4,0.69,0.39h5.32
	c0.452,0.021,0.836-0.328,0.858-0.78c0.008-0.169-0.037-0.337-0.128-0.48L187.06,33.67z M178.63,20.29h-7v-8.6h7
	c2.325,0.01,4.221,1.866,4.28,4.19C182.911,18.266,181.015,20.22,178.63,20.29"/>
<path fill="#F18A00" d="M68.66,19.16c-3.43-1.4-5-2.75-5-4.74c0-1.36,1.31-3,3.72-3c2.206,0.031,4.292,1.007,5.73,2.68
	c0.55,0.266,1.211,0.038,1.48-0.51l1.77-2.77c0.293-0.461,0.185-1.069-0.25-1.4c-2.471-1.781-5.425-2.768-8.47-2.83
	c-6.73,0-9.52,4.36-9.52,8.13c0,5,4,7.53,8,9.14c3.55,1.44,5.37,2.92,5.37,5.08c0,1.82-1.65,3.26-3.85,3.26
	c-2.408,0.085-4.698-1.041-6.1-3c-0.452-0.317-1.076-0.208-1.393,0.243c-0.013,0.018-0.025,0.037-0.037,0.057l-1.83,3
	c-0.38,0.68-0.17,0.89,0.22,1.26c2.578,2.232,5.902,3.411,9.31,3.3c6,0,9.74-4,9.74-8.37c0-5.47-4.74-7.92-8.85-9.57"/>
</svg>
