<?xml version="1.0" encoding="UTF-8" standalone="no"?><!-- Generator: Gravit.io --><svg xmlns="http://www.w3.org/2000/svg" xmlns:xlink="http://www.w3.org/1999/xlink" style="isolation:isolate" viewBox="0 0 150 150" width="150pt" height="150pt"><defs><clipPath id="_clipPath_NCEtmmK3Yg8Lew2YGutlwc3CK7bQUuiq"><rect width="150" height="150"/></clipPath></defs><g clip-path="url(#_clipPath_NCEtmmK3Yg8Lew2YGutlwc3CK7bQUuiq)"><g><g><path d=" M 0 89.442 C 0.149 98.25 7.142 102.45 16.526 102.45 C 24.238 102.45 33.189 99.21 33.189 90.334 C 33.189 82.975 27.131 80.807 21.135 79.438 C 15.139 78.069 9.019 77.468 9.019 73.43 C 9.019 70.178 13.417 69.602 15.833 69.602 C 19.438 69.602 22.69 70.686 23.408 74.557 L 31.969 74.557 C 30.971 66.282 24.028 63.11 16.384 63.11 C 9.601 63.11 0.799 65.637 0.799 73.789 C 0.799 81.365 6.715 83.533 12.779 84.827 C 18.843 86.122 24.752 86.685 24.969 91.021 C 25.186 95.357 19.778 95.927 16.669 95.927 C 12.271 95.927 8.666 94.199 8.238 89.436 L 0 89.442 Z " fill="rgb(255,96,11)"/><rect x="35.53" y="52.245" width="8.226" height="7.792" transform="matrix(1,0,0,1,0,0)" fill="rgb(255,96,11)"/><rect x="35.53" y="64.027" width="8.226" height="37.302" transform="matrix(1,0,0,1,0,0)" fill="rgb(255,96,11)"/><path d=" M 45.875 70.518 L 66.508 70.518 L 45.875 95.543 L 45.875 101.316 L 77.725 101.316 L 77.725 94.831 L 56.262 94.831 L 77.626 69.794 L 77.626 64.021 L 45.875 64.021 L 45.875 70.518 Z " fill="rgb(255,96,11)"/><path d=" M 124.504 66.703 L 124.504 65.241 C 124.727 61.159 126.852 58.625 131.008 58.625 C 132.226 58.541 133.428 58.944 134.348 59.748 C 135.267 60.551 135.829 61.687 135.908 62.906 C 135.908 63.042 135.908 63.178 135.908 63.315 C 135.908 67.167 132.96 68.778 129.869 70.927 C 127.063 73.009 123.736 75.623 123.736 81.619 L 123.736 85.465 L 135.716 85.465 C 135.79 80.85 136.775 79.698 140.709 77.084 C 146.457 73.368 150 70.698 150 63.24 C 150.012 52.629 140.56 47.55 131.101 47.55 C 119.332 47.55 111.441 54.55 111.28 66.703 L 124.504 66.703 Z  M 123.823 101.341 L 135.654 101.341 L 135.654 89.312 L 123.823 89.312 L 123.823 101.341 Z " fill="rgb(255,96,11)"/><path d=" M 104.602 77.958 L 85.629 77.958 C 86.1 72.963 90.326 69.166 95.342 69.23 C 100.483 69.23 103.89 73.256 104.596 77.97 M 95.342 62.738 C 84.223 62.738 77.298 71.819 77.298 82.43 C 77.298 93.896 83.864 102.053 95.559 102.053 C 103.71 102.053 110.636 97.507 112.438 89.361 L 104.646 89.361 C 103.202 93.474 100.31 95.556 95.559 95.556 C 88.702 95.556 85.524 90.365 85.524 84.517 L 112.934 84.517 C 114.309 73.331 107.092 62.732 95.336 62.732" fill="rgb(255,96,11)"/></g></g></g></svg>