<?xml version="1.0" encoding="utf-8"?>
<!-- Generator: Adobe Illustrator 22.1.0, SVG Export Plug-In . SVG Version: 6.00 Build 0)  -->
<svg version="1.1"
	 id="svg2" inkscape:version="0.48.2 r9819" sodipodi:docname="Aeropostale_logo2.svg" xmlns:cc="http://creativecommons.org/ns#" xmlns:dc="http://purl.org/dc/elements/1.1/" xmlns:inkscape="http://www.inkscape.org/namespaces/inkscape" xmlns:rdf="http://www.w3.org/1999/02/22-rdf-syntax-ns#" xmlns:sodipodi="http://sodipodi.sourceforge.net/DTD/sodipodi-0.dtd" xmlns:svg="http://www.w3.org/2000/svg"
	 xmlns="http://www.w3.org/2000/svg" xmlns:xlink="http://www.w3.org/1999/xlink" x="0px" y="0px" viewBox="0 0 500 500"
	 style="enable-background:new 0 0 500 500;" xml:space="preserve">
<style type="text/css">
	.st0{fill:#2164B0;}
</style>
<sodipodi:namedview  bordercolor="#666666" borderopacity="1" gridtolerance="10" guidetolerance="10" id="namedview35" inkscape:current-layer="svg2" inkscape:cx="305.96738" inkscape:cy="101.65201" inkscape:pageopacity="0" inkscape:pageshadow="2" inkscape:window-height="1003" inkscape:window-maximized="1" inkscape:window-width="1680" inkscape:window-x="-4" inkscape:window-y="-4" inkscape:zoom="1.2764184" objecttolerance="10" pagecolor="#ffffff" showgrid="false">
	</sodipodi:namedview>
<sodipodi:namedview  bordercolor="#666666" borderopacity="1" fit-margin-bottom="0" fit-margin-left="0" fit-margin-right="0" fit-margin-top="0" gridtolerance="10" guidetolerance="10" id="namedview3875" inkscape:current-layer="g3881" inkscape:cx="836.55822" inkscape:cy="-249.2839" inkscape:pageopacity="0" inkscape:pageshadow="2" inkscape:window-height="1028" inkscape:window-maximized="1" inkscape:window-width="1920" inkscape:window-x="-8" inkscape:window-y="-8" inkscape:zoom="0.47532087" objecttolerance="10" pagecolor="#ffffff" showgrid="false">
	</sodipodi:namedview>
<g>
	<path class="st0" d="M67.2,228.4c2.9-6.3-1.1-8.7-10.4-8.7H41.2c-3.4,0-4.1-0.3-3.4-1.9l1.2-2.4c0.7-1.6,1.7-1.9,5.1-1.9h20.5
		c4.2,0,6,0.5,8.3,1.4l2.1-8.7H34.1c-7.8,0-13.8,3.6-17,10.3l-4.4,9.7c-3.4,7.2-1,9.5,7.9,9.5h17.9c3.5,0,4,0.4,3.3,1.9l-1.3,2.9
		c-0.7,1.6-1.6,1.9-5,1.9H14c-4.4,0-6.2-0.8-7.9-1.6l-2.2,8.8h39.8c10.6,0,15.5-3.8,18.6-10.6L67.2,228.4z"/>
	<path class="st0" d="M173.9,230.7c5.1,0,7.3,0.6,9.5,1.2l4.4-9.5c-2.6,0.5-5.4,1.2-10.4,1.2h-15.8l4.7-10.2h17.9
		c5.2,0,7.4,0.6,9.5,1.2l2.1-8.4h-50.1c0.4,1.7,0.3,3.3-1.6,7.5l-13,28.5c-1.2,2.6-2.2,4.2-3.2,5.4c-1.3-2.3-2.3-4.9-2.9-6.9
		l-7-21.8l14.6-8.6c4.2-2.5,6.4-3.2,9.5-4.3h-20.2c-0.2,0.5-0.3,1.1-0.5,1.6c-0.6,1.4-1.7,2.5-5.3,4.7l-21.1,13.2l5.5-12
		c1.9-4.1,3.4-5.7,5.3-7.5H80c0.4,1.7,0.3,3.3-1.6,7.5l-13,28.5c-1.9,4.1-3.3,5.7-5.2,7.5h25.6c-0.3-1.8-0.3-3.4,1.6-7.5l3-6.5
		l7.2-4.5l4.5,18.5h74.7l5.8-8.4c-2.5,0.5-5.4,1.2-10.4,1.2H153l5.4-11.7L173.9,230.7z"/>
	<path class="st0" d="M239.9,239c0,0-7,1.6-15.7,1.6c0,0-8.6,0-10.3,0c-2.2,0-2.9-0.6-2.1-2.8c0.8-2.1,9.4-20.4,9.4-20.4
		c0.3-0.6,1.3-2.5,4.1-2.5h16.1c4,0,7.7,1.3,7.7,1.3l2.6-10h-0.1l0.1-0.3H217c-9.5,0-16.2,3.4-20.5,12.8l-8.2,17.9
		c-4.3,9.4-0.6,12.8,8.7,12.8h35.6L239.9,239z"/>
	<path class="st0" d="M302.9,242.1l13.1-28.5c1.9-4.1,3.4-5.7,5.2-7.5h-25.6c0.3,1.7,0.3,3.3-1.6,7.4l-4.6,10H273l4.6-9.9
		c1.9-4.1,3.4-5.7,5.3-7.5h-25.7c0.4,1.7,0.3,3.3-1.6,7.4l-13,28.5c-1.9,4.1-3.4,5.7-5.3,7.5h25.7c-0.3-1.7-0.3-3.4,1.7-7.5
		l5.3-11.4h16.4l-5.2,11.4c-1.9,4.1-3.4,5.7-5.3,7.5h25.6C301,247.8,301,246.2,302.9,242.1"/>
	<path class="st0" d="M349.2,242.4h-19.1l5.4-11.7h15.7c5,0,7.3,0.6,9.4,1.2l4.4-9.5c-2.6,0.5-5.4,1.2-10.4,1.2h-15.8l4.6-10.2h17.9
		c5.2,0,7.4,0.6,9.5,1.2l2.1-8.4h-50c0.3,1.7,0.3,3.3-1.6,7.5l-13,28.5c-1.9,4.1-3.4,5.7-5.3,7.5h50.9l5.8-8.4
		C357.2,241.8,354.3,242.4,349.2,242.4"/>
	<path class="st0" d="M420.4,230.6c4.8-0.3,9.1-0.6,12-7l3.7-8c3.3-7.3-0.4-9.6-10.6-9.6H378c0.9,1.7,0.8,3.3-1.1,7.5l-13,28.5
		c-1.9,4.1-3.3,5.7-5.3,7.5h25.7c-0.3-1.8-0.3-3.4,1.6-7.5l5.2-11.4h6.8l1.8,18.9h24.6c-1.2-1.7-1.2-3.9-1.7-6.7L420.4,230.6z
		 M414,215.7l-2.4,5.4c-1,2.1-2,2.4-4.8,2.4h-12.5l4.7-10.2h12.4C414.3,213.2,415,213.6,414,215.7"/>
	<path class="st0" d="M461.2,215.2c0.7-1.6,1.7-1.9,5.2-1.9h20.4c4.3,0,6,0.5,8.3,1.4l2.9-8.7h-41.7c-7.8,0-13.8,3.6-17,10.3
		l-4.4,9.7c-3.4,7.2-0.9,9.5,7.9,9.5h17.9c3.4,0,4,0.4,3.3,2l-1.3,2.9c-0.7,1.6-1.6,1.9-5.1,1.9h-21.2c-4.3,0-6.2-0.8-7.9-1.6
		l-2.1,8.8H466c10.6,0,15.5-3.8,18.6-10.7l4.9-10.6c2.9-6.3-1.1-8.7-10.4-8.7h-15.6c-3.5,0-4.1-0.3-3.4-1.9L461.2,215.2z"/>
</g>
</svg>
