<?xml version="1.0" encoding="UTF-8" standalone="no"?><!-- Generator: Gravit.io --><svg xmlns="http://www.w3.org/2000/svg" xmlns:xlink="http://www.w3.org/1999/xlink" style="isolation:isolate" viewBox="0 0 150 150" width="150pt" height="150pt"><defs><clipPath id="_clipPath_ZEFIPpQXjvBPXKtUtw8IwtFIvzHUqti3"><rect width="150" height="150"/></clipPath></defs><g clip-path="url(#_clipPath_ZEFIPpQXjvBPXKtUtw8IwtFIvzHUqti3)"><path d=" M 139.507 75.455 C 139.814 75.455 140.529 75.519 140.529 76.619 C 140.529 77.718 139.848 77.783 139.507 77.783 L 137.326 77.783 L 137.326 75.456 L 139.507 75.456 L 139.507 75.455 Z  M 137.326 74.873 L 137.326 74.258 C 137.326 73.353 137.633 73.159 138.587 73.159 L 139.234 73.159 C 139.54 73.159 140.188 73.224 140.188 74.032 C 140.188 74.905 139.54 74.905 139.234 74.905 L 137.326 74.873 Z  M 137.326 72.415 C 136.066 72.415 135.418 73.03 135.418 74.226 L 135.418 78.462 L 140.699 78.462 C 141.66 78.412 142.411 77.613 142.402 76.651 C 142.413 76.011 142.091 75.411 141.551 75.067 C 141.858 74.84 142.096 74.452 142.096 73.902 C 142.096 72.738 141.074 72.383 140.392 72.383 L 137.321 72.383 L 137.321 72.415 L 137.326 72.415 Z  M 145.231 76.62 C 145.231 75.521 145.878 75.456 146.184 75.456 L 148.092 75.456 L 148.092 77.783 L 146.184 77.783 C 145.844 77.783 145.231 77.751 145.231 76.619 L 145.231 76.62 Z  M 143.323 76.684 C 143.323 77.913 144.345 78.495 145.026 78.495 L 150 78.495 L 150 74.259 C 150 73.031 149.353 72.448 148.092 72.448 L 144.277 72.448 L 144.277 73.165 L 146.837 73.165 C 147.79 73.165 148.097 73.36 148.097 74.264 L 148.097 74.879 L 145.025 74.879 C 144.31 74.879 143.322 75.461 143.322 76.689 L 143.323 76.684 Z  M 92.257 78.495 L 87.964 74.232 L 91.036 71.225 L 89.673 71.225 L 86.704 74.167 L 86.704 71.22 L 85.546 71.22 C 84.932 71.22 84.387 71.705 84.387 72.319 L 84.387 78.532 L 85.546 78.532 C 86.193 78.532 86.704 78.048 86.704 77.433 L 86.704 75.299 L 89.804 78.533 L 92.261 78.533 L 92.261 78.501 L 92.257 78.495 Z  M 115.321 76.689 C 115.321 77.595 115.014 77.789 114.06 77.789 L 112.799 77.789 C 111.846 77.789 111.539 77.594 111.539 76.689 L 111.539 74.264 C 111.539 73.359 111.846 73.165 112.799 73.165 L 114.06 73.165 C 115.014 73.165 115.321 73.36 115.321 74.264 L 115.321 76.689 Z  M 115.321 72.421 L 111.505 72.421 C 110.244 72.421 109.597 73.036 109.597 74.232 L 109.597 76.657 C 109.597 77.886 110.244 78.468 111.505 78.468 L 115.321 78.468 C 116.581 78.468 117.228 77.854 117.228 76.657 L 117.228 74.232 C 117.228 73.036 116.581 72.421 115.321 72.421 Z  M 98.218 76.689 C 98.218 77.595 97.911 77.789 96.957 77.789 L 95.697 77.789 C 94.743 77.789 94.437 77.594 94.437 76.689 L 94.437 74.264 C 94.437 73.359 94.744 73.165 95.697 73.165 L 96.957 73.165 C 97.911 73.165 98.218 73.36 98.218 74.264 L 98.218 76.689 Z  M 98.218 72.421 L 94.403 72.421 C 93.142 72.421 92.495 73.036 92.495 74.232 L 92.495 76.657 C 92.495 77.886 93.142 78.468 94.403 78.468 L 98.218 78.468 C 99.479 78.468 100.126 77.854 100.126 76.657 L 100.126 74.232 C 100.126 73.036 99.513 72.421 98.218 72.421 L 98.218 72.421 Z  M 105.644 75.466 L 103.429 75.466 L 103.429 74.232 C 103.429 73.327 103.737 73.133 104.69 73.133 L 105.644 73.133 C 105.951 73.133 106.597 73.197 106.597 74.297 C 106.597 75.423 105.95 75.461 105.644 75.461 L 105.644 75.466 Z  M 103.395 76.08 L 106.768 76.08 C 107.449 76.08 108.472 75.466 108.472 74.269 C 108.472 73.041 107.483 72.459 106.768 72.459 L 103.395 72.459 C 102.135 72.459 101.488 73.073 101.488 74.269 L 101.488 78.532 L 102.441 78.532 C 102.952 78.532 103.395 78.113 103.395 77.627 L 103.395 76.075 L 103.395 76.08 Z  M 120.975 72.422 C 119.715 72.422 119.068 73.036 119.068 74.233 L 119.068 77.272 C 119.068 77.692 118.795 77.784 118.42 77.784 L 118.42 78.501 L 120.022 78.501 C 120.519 78.506 120.936 78.124 120.975 77.628 L 120.975 74.265 C 120.975 73.36 121.282 73.166 122.236 73.166 L 123.939 73.166 L 123.939 78.532 L 124.893 78.532 C 125.404 78.532 125.847 78.113 125.847 77.627 L 125.847 72.449 L 120.975 72.417 L 120.975 72.422 Z  M 129.288 74.265 C 129.288 73.36 129.595 73.166 130.549 73.166 L 131.605 73.166 C 131.912 73.166 132.559 73.23 132.559 74.33 C 132.559 75.43 131.912 75.494 131.605 75.494 L 129.288 75.494 L 129.288 74.265 L 129.288 74.265 Z  M 132.798 76.076 C 133.759 76.025 134.51 75.227 134.501 74.265 C 134.501 73.036 133.479 72.454 132.798 72.454 L 129.288 72.454 C 128.028 72.454 127.381 73.068 127.381 74.265 L 127.381 76.689 C 127.381 77.918 128.028 78.5 129.288 78.5 L 133.513 78.5 L 133.513 77.783 L 130.544 77.783 C 129.589 77.783 129.283 77.589 129.283 76.684 L 129.283 76.07 L 132.792 76.07 L 132.798 76.076 Z  M 65.751 76.56 C 65.751 75.461 66.398 75.396 66.704 75.396 L 68.885 75.396 L 68.885 77.724 L 66.704 77.724 C 66.397 77.724 65.751 77.691 65.751 76.559 L 65.751 76.56 Z  M 63.843 76.624 C 63.843 77.853 64.831 78.435 65.546 78.435 L 70.793 78.435 L 70.793 74.199 C 70.793 72.971 70.145 72.389 68.885 72.389 L 64.797 72.389 L 64.797 73.105 L 67.624 73.105 C 68.578 73.105 68.885 73.3 68.885 74.204 L 68.885 74.819 L 65.547 74.819 C 64.866 74.819 63.843 75.401 63.843 76.63 L 63.843 76.624 Z  M 55.088 78.436 L 51.511 74.879 L 54.071 72.357 L 52.947 72.357 L 50.46 74.782 L 50.46 72.351 L 49.505 72.351 C 48.994 72.351 48.551 72.771 48.551 73.256 L 48.551 74.776 L 46.06 72.351 L 44.935 72.351 L 47.495 74.873 L 43.918 78.43 L 45.962 78.43 L 48.551 75.714 L 48.551 78.43 L 49.505 78.43 C 50.016 78.43 50.459 78.01 50.459 77.525 L 50.459 75.746 L 53.048 78.462 L 55.092 78.43 L 55.088 78.436 Z  M 61.356 72.357 C 60.845 72.357 60.402 72.777 60.402 73.262 L 60.402 74.781 L 57.433 74.781 L 57.433 72.351 L 56.479 72.351 C 55.968 72.351 55.526 72.771 55.526 73.256 L 55.526 78.43 L 56.479 78.43 C 56.99 78.43 57.433 78.01 57.433 77.525 L 57.433 75.391 L 60.402 75.391 L 60.402 78.43 L 61.356 78.43 C 61.901 78.43 62.31 78.01 62.31 77.525 L 62.31 72.351 L 61.356 72.351 L 61.356 72.357 Z  M 34.375 72.357 C 33.864 72.357 33.421 72.777 33.421 73.262 L 33.421 74.781 L 30.185 74.781 L 30.185 72.351 L 29.232 72.351 C 28.721 72.351 28.278 72.771 28.278 73.256 L 28.278 78.43 L 29.232 78.43 C 29.742 78.43 30.185 78.01 30.185 77.525 L 30.185 75.391 L 33.422 75.391 L 33.422 78.43 L 34.376 78.43 C 34.887 78.43 35.329 78.01 35.329 77.525 L 35.329 72.351 L 34.376 72.351 L 34.375 72.357 Z  M 24.357 77.589 C 23.233 77.589 22.824 77.331 22.824 76.258 L 22.824 73.354 C 22.824 72.254 23.199 72.023 24.357 72.023 L 27.389 72.023 L 27.389 71.187 L 22.824 71.187 C 21.291 71.187 20.541 71.931 20.541 73.386 L 20.541 76.296 C 20.541 77.751 21.29 78.495 22.824 78.495 L 27.389 78.495 L 27.389 77.654 L 24.357 77.654 L 24.357 77.589 Z  M 38.803 74.194 C 38.803 73.289 39.111 73.095 40.064 73.095 L 41.392 73.095 C 41.699 73.095 42.346 73.159 42.346 74.259 C 42.346 75.358 41.699 75.423 41.392 75.423 L 38.77 75.423 L 38.77 74.194 L 38.804 74.194 L 38.803 74.194 Z  M 42.551 76.004 C 43.512 75.954 44.263 75.156 44.254 74.194 C 44.254 72.965 43.232 72.383 42.551 72.383 L 38.77 72.383 C 37.509 72.383 36.862 72.997 36.862 74.194 L 36.862 76.619 C 36.862 77.847 37.509 78.43 38.77 78.43 L 43.267 78.43 L 43.267 77.713 L 40.034 77.713 C 39.08 77.713 38.774 77.518 38.774 76.614 L 38.774 75.999 L 42.555 75.999 L 42.551 76.004 Z  M 77.332 75.392 L 74.846 75.392 C 74.539 75.392 73.893 75.327 73.893 74.227 C 73.893 73.128 74.54 73.063 74.846 73.063 L 77.333 73.063 L 77.333 75.391 L 77.332 75.392 Z  M 73.653 72.352 C 72.692 72.402 71.941 73.201 71.95 74.163 C 71.95 75.392 72.938 75.974 73.653 75.974 L 74.948 75.974 L 72.359 78.399 L 74.165 78.399 L 76.583 75.974 L 77.367 75.974 L 77.367 78.399 L 78.32 78.399 C 78.831 78.399 79.274 77.979 79.274 77.494 L 79.274 72.32 L 73.653 72.32 L 73.653 72.352 Z  M 8.419 78.637 C 6.552 79.311 6.281 79.311 4.413 78.637 C 4.278 76.617 2.92 74.461 1.392 73.215 C 2.784 73.484 4.006 73.989 4.923 75 C 4.957 73.585 5.772 71.733 6.382 70.857 C 6.993 71.699 7.808 73.586 7.842 75 C 8.763 73.989 10.015 73.451 11.373 73.215 C 9.913 74.461 8.555 76.617 8.419 78.637 L 8.419 78.637 Z  M 11.814 68.601 L 0.984 68.601 C 0.441 68.601 0 69.038 0 69.577 L 0 80.423 C 0 80.962 0.441 81.399 0.984 81.399 L 11.814 81.399 C 12.357 81.399 12.799 80.962 12.799 80.423 L 12.799 69.577 C 12.799 69.038 12.357 68.601 11.814 68.601 Z " fill-rule="evenodd" fill="rgb(0,0,0)"/></g></svg>