<?xml version="1.0" encoding="utf-8"?>
<!-- Generator: Adobe Illustrator 24.0.1, SVG Export Plug-In . SVG Version: 6.00 Build 0)  -->
<svg version="1.1" id="Layer_1" xmlns="http://www.w3.org/2000/svg" xmlns:xlink="http://www.w3.org/1999/xlink" x="0px" y="0px"
	 viewBox="0 0 500 500" style="enable-background:new 0 0 500 500;" width="500" height="500" xml:space="preserve">
<style type="text/css">
	.st0{fill:#FEFEFE;}
	.st1{fill:#A5CD39;}
	.st2{fill:#4E2A84;}
	.st3{fill:#01BCE7;}
	.st4{fill:#05BCE7;}
	.st5{fill:#1BC2E9;}
	.st6{fill:#FCFCFD;}
	.st7{fill:#FAF9FB;}
	.st8{fill:#FDFDFE;}
	.st9{fill:#FCFBFC;}
</style>
<g>
	<path class="st0" d="M249.79,71.36c81.68,0,163.37,0.05,245.05-0.13c4.46-0.01,5.1,1.13,5.1,5.25c-0.13,115.55-0.13,231.1,0,346.65
		c0,4.12-0.64,5.25-5.1,5.24c-163.37-0.15-326.74-0.15-490.1-0.01c-4.2,0-4.8-1-4.8-4.94c0.13-115.75,0.13-231.5,0-347.25
		c0-3.94,0.6-4.95,4.8-4.94C86.42,71.41,168.1,71.36,249.79,71.36z"/>
	<path class="st1" d="M91.02,212.98c0.15,3.82-2.22,3.52-4.4,3.83c-14.66,2.1-28.58,6.27-40.84,14.96
		c-3.75,2.66-7.16,5.69-9.65,9.57c-4.42,6.9-1.68,11.99,6.45,12.35c6.3,0.28,12.21-1.32,17.81-3.95
		c18.63-8.73,31.16-23.31,39.59-41.75c0.33-0.72,0.66-1.46,0.81-2.23c0.69-3.64,2.37-7.68-1.2-10.52c-3.42-2.72-7.17-1.06-10.6,0.66
		c-12.88,6.47-25.04,14.54-39.42,17.65c-5.62,1.21-11.24,2.13-17.03,0.86c-8.84-1.94-12.06-8.3-8.09-16.43
		c1.96-4.02,5.1-7.08,8.69-9.61c14.22-10.04,30.21-14.53,47.49-14.37c4.21,0.04,9.8,0.02,10.75,5.29c0.92,5.1-4.37,6.42-8.07,8.08
		c-5.07,2.27-10.38,3.87-15.95,4.37c-1.09,0.1-2.58,0.5-2.87-1.17c-0.19-1.12,0.97-1.58,1.73-2.16c0.16-0.12,0.37-0.16,0.53-0.27
		c2.74-2.07,7.78-3.61,6.28-7.49c-1.58-4.09-6.74-2.52-10.18-1.81c-9.83,2.04-18.87,5.98-25.96,13.44
		c-1.95,2.05-3.69,4.43-2.27,7.42c1.31,2.76,4.12,2.78,6.71,2.77c10.48-0.04,20.17-3.63,29.98-6.72c7.53-2.38,14.72-5.84,22.69-6.79
		c10.19-1.21,15.96,3.81,15.85,14c-0.1,8.84-3.66,16.59-8.18,23.86c-14.72,23.68-34.26,41.42-61.92,48.58
		c-7.19,1.86-14.53,1.71-21.54-1.41c-9.3-4.13-12.79-11.5-10.17-21.28c1.58-5.91,4.45-11.22,8.99-15.12
		C38.3,219.34,63.14,211.67,91.02,212.98z"/>
	<path class="st2" d="M466.15,275.64c-14.12,0.34-14.12,0.34-14.12-13.73c0-10.67,0.21-21.36-0.1-32.02
		c-0.13-4.31,1.32-5.38,5.36-5.15c5.91,0.34,11.86-0.04,17.79,0.16c12.69,0.44,18.96,11.02,13.2,22.31
		c-0.86,1.68-0.85,2.32,0.43,3.84c8.16,9.67,3.53,22.5-8.96,24.48C475.32,276.23,470.69,275.64,466.15,275.64z"/>
	<path class="st2" d="M297.68,250.49c0.02,15.75-10.79,26.75-26.26,26.72c-15.52-0.03-26.23-11.03-26.14-26.83
		c0.09-15.59,11.12-26.56,26.61-26.47C286.96,224,297.66,235.03,297.68,250.49z"/>
	<path class="st2" d="M195.22,250.67c0-7.32,0.1-14.65-0.05-21.97c-0.06-2.73,0.64-3.82,3.6-3.78c11.88,0.15,23.76,0.11,35.63,0.03
		c2.49-0.02,3.5,0.75,3.48,3.38c-0.09,14.84-0.09,29.69,0,44.53c0.02,2.64-0.91,3.26-3.49,3.33c-0.39,0.01-0.79-0.01-1.19,0
		c-8.97,0.22-8.97,0.22-8.97-8.51c0-8.71-0.16-17.42,0.08-26.12c0.1-3.7-1.16-4.62-4.74-4.64c-11.05-0.04-11.05-0.19-11.05,10.7
		c0,8.11-0.16,16.23,0.07,24.34c0.1,3.4-1.12,4.29-4.34,4.25c-1.37-0.02-2.78-0.08-4.15,0c-4.18,0.23-5.21-0.7-5.01-4.76
		C195.47,264.53,195.22,257.59,195.22,250.67z"/>
	<path class="st2" d="M427.89,250.22c-7.35,7.67-14.69,15.35-22.05,23c-1.63,1.69-3.24,3.91-5.95,2.79c-1.5-0.62-1.1-3.88-1.11-5.84
		c-0.13-13.66,0.04-27.32-0.15-40.98c-0.05-3.39,0.95-4.3,4.31-4.31c9.08-0.02,9.08-0.19,9.08,9c0,4.73,0,9.47,0,14.16
		c2.26,0.98,2.96-0.95,3.98-1.89c6.83-6.32,13.59-12.71,20.31-19.14c1.51-1.44,3.07-2.81,5.19-2.03c1.43,0.52,1.29,3.03,1.3,4.58
		c0.1,14.05-0.09,28.11,0.15,42.16c0.07,3.81-1.18,4.58-4.71,4.53c-8.7-0.1-8.7,0.08-8.7-8.77c0-5.34,0-10.68,0-16.02
		C429,251.05,428.45,250.64,427.89,250.22z"/>
	<path class="st2" d="M181.14,243.97c-3.25,0.38-5.56-0.38-7.75-3.77c-2.54-3.92-7.13-3.84-11.35-3.28
		c-5.62,0.75-9.27,5.13-9.98,11.58c-0.77,7.02,2.29,12.77,7.99,15.02c5.56,2.2,11.08,0.54,14.64-4.4c1.69-2.35,10.52-4.26,12.7-2.62
		c1.88,1.41,0.69,3.26,0.21,4.83c-3.52,11.34-16.11,17.56-29.5,14.66c-10.68-2.31-17.99-10.5-19.57-21.92
		c-1.52-11.01,3.71-21.7,12.97-26.51c9.76-5.07,23.22-3.66,30.53,3.37c1.68,1.61,3.13,3.6,4.24,5.65
		C189.74,243.02,189.09,243.98,181.14,243.97z"/>
	<path class="st2" d="M305.97,250c0-7.13,0.11-14.26-0.05-21.38c-0.07-2.81,0.8-3.82,3.68-3.74c6.53,0.18,13.07-0.06,19.6,0.12
		c10.52,0.29,17.45,7.56,17.71,18.34c0.26,10.79-6.32,18.54-16.59,19.54c-0.2,0.02-0.4,0.01-0.59,0.04
		c-3.27,0.42-7.36-1.42-9.65,0.98c-2.05,2.15-0.59,6.06-0.66,9.19c-0.05,2.29-0.88,3.22-3.16,3.07c-1.77-0.12-3.42,0.02-5.34,0.02
		c-3.79,0-5.23-0.74-5.03-4.8C306.21,264.27,305.97,257.13,305.97,250z"/>
	<path class="st2" d="M42.61,281.86c3.58-0.71,7.2-1.24,10.72-2.16c16.21-4.24,30.66-11.71,41.92-24.35
		c7.24-8.13,12.62-17.25,11.8-28.8c-0.16-2.29,0.51-4.83,2.33-5.69c2.07-0.98,3.29,1.65,4.45,3.05c6.02,7.28,6.55,15.5,3.26,23.99
		c-7.38,19.08-22.97,28.49-41.42,34.08C64.91,285.24,53.87,285.47,42.61,281.86z"/>
	<path class="st2" d="M364.37,256.22c0-4.96-0.25-9.93,0.08-14.86c0.25-3.75-1.04-4.66-4.66-4.62c-8.5,0.11-8.38-0.09-7.86-8.44
		c0.16-2.59,0.97-3.38,3.49-3.36c10.31,0.1,20.63,0.21,30.93-0.03c4.84-0.11,3.72,3.15,3.55,5.6c-0.17,2.47,1.89,6.15-3.44,6.41
		c-9.1,0.43-9.09,0.67-9.09,10.02c0,8.33-0.15,16.66,0.07,24.97c0.09,3.35-0.83,4.07-4.29,4.29c-1.51,0.1-2.74-0.03-4.75-0.01
		c-3.04,0.04-4.25-0.7-4.1-3.93C364.55,266.93,364.37,261.57,364.37,256.22z"/>
	<path class="st3" d="M57.02,290.94c26.48,0.76,49.88-8.59,65.04-31.77c1.06,10.37-5.61,24-15.61,30.43
		C90.39,299.9,73.77,299.54,57.02,290.94z"/>
	<path class="st4" d="M103.1,301.81c-4.58,7.54-10.1,11.19-17.54,11.15c-7.34-0.04-13.23-3.12-17.65-10.9
		C79.9,305.73,90.98,305.99,103.1,301.81z"/>
	<path class="st5" d="M70.03,327.36c1.8-4.38,1.35-7.94,1.99-11.87c2.79,1.75,5.2,3.26,8.14,5.1
		C77.35,323.28,74.4,325.24,70.03,327.36z"/>
	<path class="st6" d="M471.24,264.24c-2.88-0.14-6.15,1.23-6.08-4.24c0.07-5.44,3.36-4.1,6.18-4.1c3.36,0,8.07-1.09,8.01,4.16
		C479.28,265.17,474.65,264.14,471.24,264.24z"/>
	<path class="st7" d="M470.01,236.55c3.83,0.04,7.54-0.34,7.25,4.41c-0.27,4.51-3.97,3.91-7.1,4.14c-3.2,0.23-4.88-0.23-4.99-4.26
		C465.03,236.09,467.56,236.32,470.01,236.55z"/>
	<path class="st8" d="M284.4,250.49c0.03,8.01-5.58,13.93-13.12,13.83c-7.29-0.09-12.61-5.85-12.65-13.69
		c-0.04-8.11,5.44-13.87,13.12-13.79C279.03,236.92,284.37,242.67,284.4,250.49z"/>
	<path class="st9" d="M319.23,244.39c-0.22-4.39-1.21-8.59,5.77-7.83c6.53,0.71,9.16,2.1,9.2,7.19c0.04,5.26-2.83,6.99-9.53,7.58
		C318.36,251.84,319.13,248.04,319.23,244.39z"/>
</g>
</svg>
