<?xml version="1.0" encoding="utf-8"?>
<!-- Generator: Adobe Illustrator 24.0.1, SVG Export Plug-In . SVG Version: 6.00 Build 0)  -->
<svg version="1.1" id="Layer_1" xmlns="http://www.w3.org/2000/svg" xmlns:xlink="http://www.w3.org/1999/xlink" x="0px" y="0px"
	 viewBox="0 0 500 500" style="enable-background:new 0 0 500 500;" width="500" height="500" xml:space="preserve">
<style type="text/css">
	.st0{fill:#066E8B;}
	.st1{fill:#086E8B;}
	.st2{fill:#A8A8AC;}
	.st3{fill:#F4F6F7;}
	.st4{fill:#E3EBEE;}
	.st5{fill:#FFFFFF;}
	.st6{font-family:'BerlinSansFB-Reg';}
	.st7{font-size:19px;}
	.st8{letter-spacing:6.09;}
</style>
<g>
	<path class="st0" d="M57.79,231.67c1.57,1.56,2.87,1.96,4.71-0.01c1.99-2.13,4.35-4.05,6.86-5.51c2.6-1.51,4.19-2.61,3.31-6.26
		c-0.99-4.11,3.37-2.78,5.36-3.73c1.64-0.78,3.83-1.61,4.27,1.54c0.43,3.04,2.26,3.63,5.11,3.64c2.91,0.01,5.84,0.74,8.7,1.41
		c2.03,0.48,3.59,0.72,4.73-1.57c2.56-5.17,4.99-0.49,7.4,0.28c2.83,0.9,3.32,2.63,1.28,4.93c-0.22,0.25-0.36,0.6-0.48,0.92
		c-0.8,2.23,9,14.37,11.2,13.59c4.84-1.71,4.47,2.14,5.38,4.63c1.02,2.77,0.96,5.06-2.83,5.34c-0.51,0.04-1.34,0.14-1.46,0.43
		c-1.83,4.65-1.02,9.8-2.77,14.52c-0.75,2.02,1.52,2.41,2.66,3.28c0.97,0.74,2.13,1.26,1.77,2.79c-1.51,2.41-3.02,4.83-4.52,7.24
		c-0.74-0.3-1.49-0.59-2.23-0.89c-2.04-2.22-3.79-2.34-5.89,0.19c-2.11,2.55-4.91,4.46-7.91,5.85c-2.25,1.04-2.87,2.24-1.49,4.33
		c1.43,5.02-2.98,3.84-5.23,4.75c-2.21,0.9-4.47,1.17-4.91-2.28c-0.25-1.95-1.28-2.86-3.53-2.73c-3.64,0.2-7.25-0.47-10.71-1.66
		c-1.73-0.59-2.89-0.32-3.86,1.36c-0.68,1.17-0.96,3.57-3.1,2.58c-2.48-1.14-4.71-2.84-6.99-4.37c-0.17-0.11-0.07-1.05,0.2-1.31
		c3.93-3.92,0.52-6.18-1.84-8.82c-1.48-1.67-2.8-3.54-3.87-5.5c-1.02-1.88-1.87-3.11-4.32-2.02c-3.28,1.46-4.18-0.57-4.6-3.39
		c-0.39-2.6-2.89-5.75,2.19-6.44c0.17-0.02,0.32-0.14,0.49-0.16c2.04-0.27,2.75-1.68,2.13-3.33c-1.83-4.86,5.49-10.3-1.02-14.77
		c-3.72-3.32,0.62-5.23,1.41-7.72C54.2,230.29,55.96,230.6,57.79,231.67z M86.61,235.07c-10.82,0.07-19.79,8.81-19.87,19.36
		c-0.08,10.8,9.01,20.1,19.73,20.2c10.92,0.1,19.98-8.83,20.04-19.73C106.58,244.05,97.49,235,86.61,235.07z"/>
	<path class="st1" d="M298.97,216.89c7.43,2.8,10.37,6.72,10.42,14.26c0.07,10.4,0.09,20.8,0,31.2c-0.08,8.8-5.88,14.63-14.67,14.8
		c-5.2,0.1-10.41,0.12-15.62,0c-9.04-0.22-14.54-6.37-13.98-16.06c8.88,7.31,19.25,4.51,29.12,4.99c1.77,0.09,3.67-0.27,3.77-2.61
		c0.11-2.66-1.79-2.97-3.88-2.96c-5.03,0.02-10.07,0.1-15.1-0.02c-8.31-0.21-13.97-5.79-14.23-14.11c-0.17-5.37-0.17-10.75,0-16.12
		c0.24-7.7,4.64-12.44,12.29-13.56C284.37,218.57,291.67,218.08,298.97,216.89z M287.03,227.2c-12.65,0.22-10.97-1.99-11.13,10.88
		c0,0.35-0.01,0.69,0,1.04c0.28,10.46-2.47,10.65,10.62,10.58c13.67-0.07,11.59,1.15,11.63-11.57
		C298.2,225.37,299.55,227.38,287.03,227.2z"/>
	<path class="st1" d="M50.54,240.68c0.04,0.3,0.07,0.6,0.07,0.9c-1.46,1.37-2.92,2.75-4.37,4.12c-2.34-1.84-11.71-0.66-11.93,1.89
		c-0.51,5.73-4.71,2.34-7.08,3.76c0.1,0.24,0.2,0.93,0.41,0.96c8.5,1.28,1.38,9.75,5.88,12.9c0.03,0.02-0.68,1.46-1.29,1.94
		c-0.46,0.36-1.79,0.05-1.9,0.35c-1.46,3.94-3.61,3.79-6.73,4.56c-1.63,0.41-2.83,2.87-5.84,2.43c-1.98-0.29-2.43-0.21-4.05-1.1
		c-1.69-0.93-2-3-3.41-4.07c-0.98-0.74-3.14-0.22-3.91-1.76c-0.83-1.67,0.39-2.83,0.59-4.11c0.22-1.42-0.55-2.94-0.87-4.47
		c-0.3-1.46-0.82-2.71,1.16-3.1c3.89-0.76,3.41-5.37,5.64-6.72c2.04-1.23,5.6,1.36,8.36-0.3c0.84-0.5,3.07-1.13,2-2.35
		c-1.45-1.64-3.77-3.89-6.03-2.57c-2.08,1.21-3,1.35-4.69-0.33c-1.77-1.76-1.64-2.83-0.1-4.7c1.13-1.36-3.1-9.56-5.18-9.9
		c-2.33-0.38-2.19-1.72-2.24-3.31c-0.05-1.67,0.07-2.74,2.28-3.23c3-0.66,5.84-8.2,4.2-11.08c-1.27-2.23,0.56-2.72,1.41-3.77
		c0.87-1.08,1.66-1.92,3.4-0.72c2.03,1.4,10.63-1.61,11.04-3.91c0.38-2.14,1.26-2.53,3.04-2.46c1.73,0.07,3.15-0.15,3.65,2.44
		c0.52,2.64,8.51,5.36,10.93,3.83c2.2-1.39,2.74,0.49,3.79,1.31c1.01,0.79,2.24,1.5,0.91,3.32c-1.19,1.62,1.24,10.67,2.92,10.76
		c4.61,0.27,3.07,3.55,3.49,5.92C50.27,229.99,47.2,236.96,50.54,240.68z M30.53,238.4c6.83,0,12.65-5.75,12.73-12.58
		c0.08-6.75-5.72-12.54-12.63-12.61c-7.05-0.07-12.49,5.36-12.52,12.5C18.09,232.77,23.59,238.4,30.53,238.4z M12.19,261.09
		c-0.25,3.73,3.08,7.43,6.89,7.67c3.76,0.23,7.36-3.02,7.62-6.87c0.26-3.91-2.83-7.38-6.79-7.6
		C16.06,254.06,12.45,257.25,12.19,261.09z"/>
	<path class="st0" d="M332.73,232.1c-0.72-9.21,4.59-15.42,13.38-15.7c5.55-0.18,11.12-0.14,16.68-0.01
		c8.17,0.18,13.71,5.44,14.12,13.62c0.27,5.54,0.29,11.12,0,16.65c-0.44,8.43-6.04,13.64-14.56,13.81
		c-5.38,0.11-10.78,0.14-16.16-0.01c-7.54-0.22-13.37-5.8-13.79-12.96c-0.44-7.45,4.81-13.73,12.66-14.44
		c5.34-0.48,10.76-0.21,16.14-0.3c2.11-0.03,4.56,0.08,4.43-2.96c-0.12-2.62-2.29-2.59-4.27-2.58c-5.39,0.02-10.77-0.01-16.16,0.03
		C340.5,227.28,336.61,229.58,332.73,232.1z M354.58,243.88c0-0.01,0-0.02,0-0.03c-2.77,0-5.54-0.01-8.31,0
		c-1.62,0.01-2.71,0.89-2.91,2.41c-0.23,1.8,0.82,3.16,2.6,3.21c5.7,0.16,11.4,0.18,17.1,0.1c1.47-0.02,2.64-0.92,2.64-2.63
		c-0.01-1.83-0.98-2.97-2.82-3.04C360.12,243.8,357.35,243.88,354.58,243.88z"/>
	<path class="st0" d="M451.27,232.13c-0.6-9.54,4.5-15.5,13.31-15.74c5.55-0.15,11.11-0.14,16.66,0c8.49,0.22,13.93,5.72,14.05,14.1
		c0.08,5.2,0.07,10.4,0,15.6c-0.12,8.35-5.64,14.12-13.88,14.37c-5.55,0.16-11.11,0.16-16.66,0c-8-0.24-13.53-5.7-13.78-13.33
		c-0.25-7.71,4.79-13.51,12.87-14.14c5.52-0.43,11.09-0.16,16.64-0.24c1.62-0.02,3.25-0.27,3.47-2.31c0.2-1.83-0.7-3.18-2.6-3.13
		c-7.26,0.18-14.55-0.86-21.77,0.63C456.51,228.56,453.99,230.38,451.27,232.13z M472.96,249.58c0,0.04,0,0.08,0,0.12
		c2.77,0,5.54,0.11,8.3-0.04c1.71-0.09,3.05-1.08,2.9-2.97c-0.13-1.72-1.22-2.83-3.09-2.84c-5.36-0.02-10.73-0.02-16.09-0.01
		c-1.77,0-3.05,0.7-3.14,2.65c-0.09,1.93,1.11,2.94,2.83,3.04C467.42,249.7,470.19,249.58,472.96,249.58z"/>
	<path class="st0" d="M258.51,232.43c-9.06-7.96-19.89-4.47-30.06-5.16c-1.91-0.13-2.94,1.1-2.91,2.89c0.03,2,1.58,2.55,3.27,2.57
		c4.69,0.05,9.38-0.01,14.07,0.05c9.43,0.13,16.24,6.07,16.13,14.02c-0.11,8.23-6.56,13.66-16.3,13.69
		c-5.04,0.02-10.09,0.19-15.12-0.06c-8.26-0.4-13.72-7.19-12.62-15.81c9.01,7.34,19.57,4.49,29.63,4.89
		c1.61,0.06,3.23-0.7,3.12-2.73c-0.11-2.13-1.61-2.89-3.59-2.89c-4.87,0-9.73,0.03-14.6-0.02c-8.97-0.07-15.03-5.61-15.07-13.7
		c-0.04-8.2,5.83-13.7,14.88-13.81c5.56-0.07,11.13-0.21,16.68,0.09C254.26,216.91,259.41,223.46,258.51,232.43z"/>
	<path class="st0" d="M208.21,232.59c-9.4-8.23-20.25-4.6-30.4-5.31c-1.92-0.14-2.87,1.16-2.73,3c0.15,2.02,1.74,2.43,3.38,2.45
		c5.21,0.06,10.44-0.12,15.64,0.11c7.39,0.33,13.21,5.17,14.2,11.47c1.3,8.28-4.53,15.69-13.01,16.1
		c-5.9,0.29-11.82,0.23-17.72,0.02c-8.5-0.3-13.71-6.5-13.05-15.78c8.88,7.16,19.22,4.56,29.09,4.97c1.84,0.08,3.72-0.56,3.69-2.75
		c-0.04-2.37-1.82-3.02-4.01-2.99c-5.04,0.06-10.08,0.09-15.12,0c-8.3-0.16-13.94-5.71-13.98-13.62
		c-0.04-8.04,5.38-13.63,13.68-13.86c5.38-0.15,10.78-0.12,16.16-0.01C203.33,216.57,208.53,222.22,208.21,232.59z"/>
	<path class="st0" d="M427.28,232.37c-8.92-7.78-19.55-4.47-29.56-5.13c-2.03-0.13-3.47,0.79-3.4,2.96
		c0.07,1.98,1.68,2.48,3.34,2.51c4.69,0.07,9.38,0,14.07,0.07c9.62,0.14,16.09,5.86,15.95,14.05c-0.14,8.5-6.22,13.63-16.19,13.66
		c-4.69,0.01-9.38,0.1-14.07-0.02c-8.87-0.22-14.22-6.17-13.77-15.84c8.73,6.96,18.81,4.67,28.48,5.03c2.17,0.08,4.56-0.2,4.4-3.07
		c-0.13-2.37-2.17-2.74-4.28-2.71c-4.86,0.07-9.73,0.09-14.59,0.01c-8.51-0.15-14.32-5.84-14.3-13.89
		c0.02-7.82,5.7-13.42,13.98-13.6c5.56-0.12,11.12-0.17,16.67,0.01C422.84,216.69,428.11,222.92,427.28,232.37z"/>
	<path class="st1" d="M428.11,260.26c5.14-5.7,5.88-11.94,5.6-18.49c-0.16-3.81-0.1-7.63-0.01-11.44c0.21-8.77,6.29-14.18,15.9-13.6
		c-6.88,8.8-4.23,18.89-4.63,28.53C444.54,255.06,438.92,260.51,428.11,260.26z"/>
	<path class="st2" d="M421.91,289.86c2.04-0.04,5.25-1.87,6.03,0.94c0.87,3.13-1.85,5.37-5.12,6c-2.97,0.58-5.65-0.2-7.23-2.92
		c-1.6-2.75-1.54-5.73,0.32-8.34c2.01-2.83,5.1-2.72,8.06-2.11c1.43,0.3,3.39,1.19,2.65,3.01c-0.68,1.68-2.22,0.53-3.55,0.04
		c-3.28-1.2-5.78,1.17-5.04,4.56c0.33,1.51,1.19,2.5,2.74,2.74c1.03,0.16,2.3,0.28,2.82-0.74
		C424.5,291.32,420.91,292.12,421.91,289.86z"/>
	<path class="st2" d="M183.2,294.47c0-7.42,0-7.39,5.8-7.03c2.87,0.18,4.54,1.63,4.62,4.48c0.09,3.07-1.5,4.92-4.69,4.84
		c-1.43-0.04-2.76-0.59-2.65,1.69c0.06,1.17,0.11,2.67-1.7,2.49c-1.75-0.18-1.29-1.74-1.36-2.85
		C183.14,296.89,183.2,295.68,183.2,294.47z"/>
	<path class="st2" d="M481.49,294.6c0-7.39,0.29-7.68,5.97-7.16c2.38,0.22,3.93,1.45,4.37,3.67c0.49,2.48-0.71,4.38-3.02,5.35
		c-1.07,0.45-2.41,0.28-3.46,0.76c-1.49,0.68,0.04,4.9-3,3.36C480.34,299.56,481.89,296.45,481.49,294.6z"/>
	<path class="st1" d="M439.14,199.77c3.37,0.23,5.52,2.03,5.61,5.15c0.09,3.34-1.9,5.61-5.51,5.57c-3.54-0.05-5.56-2.2-5.45-5.61
		C433.88,201.69,436,199.97,439.14,199.77z"/>
	<path class="st1" d="M320.97,249.72c3.55,0.13,5.55,1.9,5.53,5.42c-0.02,3.28-2.05,5.2-5.17,5.23c-3.39,0.04-5.52-2.09-5.54-5.49
		C315.77,251.69,317.77,249.94,320.97,249.72z"/>
	<path class="st2" d="M245.8,287.58c3.9-1,3.94,1.6,4.21,5c0.38,4.91-2.8,4.12-5.58,4.22c-3.1,0.1-4.99-1.41-4.98-4.57
		C239.45,288.44,241.77,287.18,245.8,287.58z"/>
	<path class="st2" d="M171.83,286.32c0.3,1.58,1.11,1.9,1.9,2.24c2.56,1.12,4.04,2.92,2.77,5.72c-1.2,2.65-3.69,2.86-6.24,2.5
		c-1.04-0.15-2.34-0.55-2.36-1.65c-0.02-1.8,1.52-1.39,2.71-1.39c0.64,0,1.28-0.22,1.9-0.34c0.22-2.16-1.37-2.26-2.58-2.81
		c-2.69-1.23-2.98-3.26-1.44-5.5c1.66-2.41,4.19-2.32,6.54-1.4c1.54,0.61,0.8,1.73-1.65,2.17
		C172.9,285.95,172.45,286.14,171.83,286.32z"/>
	<path class="st2" d="M298.26,296.93c-2.82-0.35-5.46-1.21-5.45-4.79c0.01-3.14,2.03-4.61,5.02-4.71c3.22-0.11,5.43,1.21,5.49,4.69
		C303.38,295.33,301.39,296.69,298.26,296.93z"/>
	<path class="st2" d="M363.03,296.94c-3.35-0.17-5.52-1.3-5.64-4.54c-0.13-3.46,1.91-4.96,5.18-4.99c2.98-0.02,5.08,1.24,5.3,4.4
		C368.14,295.47,365.48,296.34,363.03,296.94z"/>
	<path class="st2" d="M286.95,284.44c-5.28,1.51-7.97,2.82-2.28,5.01c1.54,0.59,2.06,2.3,1.61,4c-0.49,1.84-1.72,3.03-3.59,3.32
		c-1.72,0.27-3.58,0.46-4.92-0.92c-1-1.03-0.38-1.92,0.91-2.14c1.12-0.19,2.39,0.45,3.62-0.82c-1.11-2.72-7.43-2.64-4.56-7.47
		C279.54,282.42,282.27,282.96,286.95,284.44z"/>
	<path class="st2" d="M379.7,290.09c-1.47,0.37-1.46,1.29-1.62,2.11c-0.33,1.7,0.66,4.15-2.27,4.41c-1.03,0.09-1.52-0.95-1.37-1.82
		c0.41-2.38-1.58-5.58,1.44-7.02c5.05-2.42,9.15,0.73,8.58,6.24c-0.12,1.18,0.09,2.62-1.7,2.63c-1.62,0-1.85-1.28-2.02-2.53
		C380.54,292.78,381.03,291.3,379.7,290.09z"/>
	<path class="st2" d="M209.1,294.68c-1.44,2.96-3.91,2.5-6.36,1.6c-2.24-0.82-3.2-2.63-2.75-4.95c0.49-2.51,2.15-3.77,4.75-3.9
		c2.61-0.12,4.76,0.93,4.91,3.48c0.19,3.22-2.73,1.29-4.19,1.82c-0.57,0.21-1.38-0.19-1.72,0.77
		C204.98,296.47,207.53,292.4,209.1,294.68z"/>
	<path class="st2" d="M453.61,296.89c-3.61,0.06-5.77-1.69-5.9-4.85c-0.13-3.08,2.14-4.48,5.14-4.63c3.36-0.18,5.52,1.5,5.6,4.72
		C458.53,295.16,456.28,296.62,453.61,296.89z M453.32,293.82c1.07-0.29,1.98-0.8,1.84-2.04c-0.13-1.12-0.91-1.88-2.07-1.75
		c-1.13,0.12-1.77,0.97-1.76,2.11C451.34,293.39,452.11,293.91,453.32,293.82z"/>
	<path class="st2" d="M474.5,291.54c0.05,2.33,0.08,4.54-2.6,5.15c-2.25,0.51-4.6,0.61-6.12-1.58c-1.4-2-0.86-4.33-0.54-6.53
		c0.1-0.67,0.89-0.98,1.67-0.83c1.14,0.22,1.05,1.17,1.2,1.99c0.27,1.41-0.68,3.77,1.42,3.89c2.69,0.15,1.52-2.46,1.82-3.94
		c0.22-1.1,0.49-2.26,1.82-1.9C475.35,288.37,474.16,290.37,474.5,291.54z"/>
	<path class="st2" d="M329.47,291.51c0.04,2.3,0.14,4.54-2.54,5.18c-2.05,0.48-4.2,0.62-5.8-1.16c-1.86-2.06-1.17-4.56-0.92-6.92
		c0.07-0.68,0.86-1,1.64-0.86c1.15,0.2,1.06,1.15,1.22,1.98c0.26,1.41-0.67,3.76,1.41,3.9c2.73,0.18,1.53-2.45,1.83-3.91
		c0.22-1.09,0.47-2.26,1.8-1.93C330.32,288.34,329.12,290.35,329.47,291.51z"/>
	<path class="st2" d="M392.95,296.73c-0.74-0.2-3.54,0.14-0.99-2.86c0.86-1.02-0.24-1.41-0.44-2.11c-0.85-3,1-4.93,4.01-4.31
		c0.72,0.15,1.62,0.91,1.31,1.09C393.49,290.55,402.83,297.01,392.95,296.73z"/>
	<path class="st2" d="M256.23,289.48c0.97-2.46-1.39-7.1,1.77-7.12c3.09-0.02,1.4,4.57,1.36,7.01c-0.04,2.38,1.97,6.76-1.61,6.83
		C254.97,296.25,257.15,291.79,256.23,289.48z"/>
	<path class="st2" d="M313.4,290.43c-0.72,1.6,1.72,5.75-1.63,5.83c-2.76,0.06-1.01-4-1.34-6.19c-0.3-2.03-0.07-4.15-0.04-6.22
		c0.02-0.88,0.17-1.82,1.31-1.86c1.01-0.03,1.63,0.68,1.67,1.61C313.46,285.67,313.4,287.74,313.4,290.43z"/>
	<path class="st2" d="M338.89,296.97c-0.96-0.45-1.75-0.63-1.77-0.86c-0.23-3.44-2.09-6.83-0.38-10.35
		c0.46-0.96,1.48-1.41,2.03-0.81c1.1,1.19,2.83,3.62,2.54,3.96c-1.85,2.06-1.3,4.53-1.79,6.79
		C339.41,296.17,339.08,296.59,338.89,296.97z"/>
	<path class="st2" d="M434.78,291.81c0.09-2.15-0.53-4.86,3.26-4.06c1.21,0.26,2.97-0.98,3.52,0.94c0.49,1.72-1.39,1.55-2.29,2.13
		c-0.96,0.62-1.19,1.57-1.35,2.62c-0.18,1.23,0.43,3.26-1.61,3.1c-2.25-0.17-1.28-2.34-1.52-3.71
		C434.73,292.5,434.78,292.15,434.78,291.81z"/>
	<path class="st2" d="M223.08,287.89c-1.29,2.48-6.75,4.15-0.83,6.52c0.78,0.31,0.79,1.25,0.33,1.73c-0.4,0.43-1.23,0.72-1.83,0.65
		c-2.79-0.31-4.51-1.88-4.29-4.76C216.74,288.4,218.84,286.99,223.08,287.89z"/>
	<path class="st2" d="M229.18,292.27c0.52-1.81-0.78-4.37,1.74-4.52c3.11-0.19,1.94,2.64,2,4.25c0.06,1.71,0.78,4.52-1.91,4.5
		C227.95,296.47,230.18,293.41,229.18,292.27z"/>
	<path class="st2" d="M351.04,292.23c-0.6,1.49,1.05,4.48-1.99,4.25c-2.51-0.19-1.72-2.97-1.7-4.7c0.02-1.5-0.91-4.06,1.72-4.02
		C352.09,287.8,350.48,290.62,351.04,292.23z"/>
	<path class="st0" d="M298.97,216.89c-7.3,1.19-14.6,1.68-21.87-0.22C284.4,216.26,291.69,215.92,298.97,216.89z"/>
	<path class="st3" d="M287.03,227.2c12.52,0.18,11.16-1.83,11.12,10.93c-0.04,12.72,2.04,11.5-11.63,11.57
		c-13.08,0.07-10.34-0.12-10.62-10.58c-0.01-0.35,0-0.69,0-1.04C276.06,225.21,274.38,227.43,287.03,227.2z"/>
	<path class="st4" d="M354.58,243.88c2.77,0,5.54-0.07,8.3,0.03c1.84,0.07,2.81,1.21,2.82,3.04c0.01,1.71-1.17,2.61-2.64,2.63
		c-5.7,0.08-11.4,0.07-17.1-0.1c-1.78-0.05-2.83-1.41-2.6-3.21c0.2-1.52,1.28-2.4,2.91-2.41c2.77-0.01,5.54,0,8.31,0
		C354.58,243.86,354.58,243.87,354.58,243.88z"/>
	<path class="st4" d="M472.96,249.58c-2.76,0-5.53,0.12-8.29-0.04c-1.72-0.1-2.92-1.12-2.83-3.04c0.09-1.96,1.37-2.65,3.14-2.65
		c5.36-0.01,10.73-0.01,16.09,0.01c1.87,0.01,2.95,1.12,3.09,2.84c0.15,1.89-1.19,2.88-2.9,2.97c-2.76,0.15-5.53,0.04-8.3,0.04
		C472.96,249.66,472.96,249.62,472.96,249.58z"/>
	<path class="st3" d="M453.32,293.82c-1.21,0.09-1.98-0.43-1.99-1.68c-0.01-1.14,0.63-1.99,1.76-2.11c1.16-0.12,1.95,0.63,2.07,1.75
		C455.3,293.02,454.39,293.53,453.32,293.82z"/>
	<path class="st0" d="M86.84,241.94c7.09,0.13,12.94,6.05,12.84,13c-0.1,7-6.07,12.75-13.16,12.68
		c-6.99-0.07-12.95-6.09-12.89-13.02C73.68,247.66,79.78,241.82,86.84,241.94z"/>
	<path class="st1" d="M30.47,232.84c-4.07-0.03-7.25-3.25-7.01-7.36c0.25-4.28,2.73-6.59,6.97-6.8c3.86-0.2,7.47,3.3,7.51,7.04
		C37.97,229.47,34.41,232.87,30.47,232.84z"/>
	<path class="st1" d="M23.68,261.34c-0.37,2.39-1.24,4.32-3.77,4.23c-2.32-0.09-4.56-1.1-4.56-3.85c0-2.37,1.13-4.49,3.98-4.28
		C21.66,257.63,23.6,258.69,23.68,261.34z"/>
</g>
<rect x="158.78" y="279.3" class="st5" width="386.61" height="24.26"/>
<text transform="matrix(0.985 0 0 1 166.4346 294.9561)" class="st2 st6 st7 st8">Special Solutions Group</text>
</svg>
