<?xml version="1.0" encoding="utf-8"?>
<!-- Generator: Adobe Illustrator 16.0.2, SVG Export Plug-In . SVG Version: 6.00 Build 0)  -->
<!DOCTYPE svg PUBLIC "-//W3C//DTD SVG 1.1//EN" "http://www.w3.org/Graphics/SVG/1.1/DTD/svg11.dtd">
<svg version="1.1" id="Слой_1" xmlns="http://www.w3.org/2000/svg" xmlns:xlink="http://www.w3.org/1999/xlink" x="0px" y="0px"
	 width="323px" height="48px" viewBox="0 0 323 48" enable-background="new 0 0 323 48" xml:space="preserve">
<path fill-rule="evenodd" clip-rule="evenodd" fill="#FF5D8F" d="M80.313,34.133v-2.779H74.04c-2.197,0-3.891-0.317-4.844-1.773
	c-0.371-0.582-0.874-1.721-0.874-4.5c0-2.753,0.476-4.156,1.032-4.977c1.059-1.588,2.806-1.721,4.871-1.721h5.797v-2.78h-7.439
	c-1.323,0-4.208,0.159-6.062,2.33c-1.562,1.827-1.801,4.554-1.801,7.201c0,2.038,0.133,4.871,1.88,6.83
	c1.721,1.932,4.13,2.17,5.903,2.17H80.313L80.313,34.133z M275.263,33.832v-1.626h-6.436c-1.66,0-4.33-0.31-5.396-2.733
	c-0.456-1.035-0.623-3.113-0.623-4.324c0-0.9,0.096-3.289,0.346-4.291c0.545-2.181,2.353-3.736,5.294-3.736h6.4v-1.625h-6.193
	c-2.871,0-4.643,0.962-5.708,2.041c-1.944,1.965-2.077,4.878-2.077,7.369c0,2.699,0.21,4.877,1.662,6.608
	c1.072,1.278,2.803,2.318,5.396,2.318H275.263L275.263,33.832z M276.17,24.56c0,3.979,1.101,6.234,2.283,7.403
	c2,1.979,5.154,2.076,6.781,2.076c1.626,0,4.78-0.098,6.78-2.076c1.183-1.169,2.284-3.424,2.284-7.403
	c0-2.041-0.276-5.294-2.284-7.265c-1.798-1.765-4.463-2.007-6.78-2.007c-2.318,0-4.983,0.242-6.781,2.007
	C276.445,19.266,276.17,22.519,276.17,24.56L276.17,24.56z M278.107,24.733c0-1.592-0.008-4.505,1.453-6.124
	c1.41-1.563,3.944-1.695,5.674-1.695c1.73,0,4.263,0.132,5.674,1.695c1.46,1.619,1.452,4.532,1.452,6.124
	c0,1.488,0.032,4.254-1.487,5.916c-1.454,1.59-3.771,1.764-5.639,1.764c-1.869,0-4.185-0.174-5.64-1.764
	C278.075,28.987,278.107,26.221,278.107,24.733L278.107,24.733z M297.282,33.832h1.799v-15.43c0-0.346-0.001-0.729,0.207-0.969
	c0.24-0.278,0.589-0.312,0.9-0.312h8.579v16.71h1.8v-16.71h6.192c0.796,0,1.975,0.067,2.733,0.899
	c0.659,0.724,0.761,1.8,0.761,2.629v13.182h1.799V20.789c0-1.521-0.281-3.145-1.418-4.151c-0.973-0.86-2.389-1.141-3.841-1.141
	h-17.021c-0.518,0-1.505,0.093-2.076,1.003c-0.362,0.577-0.414,1.385-0.414,2.075V33.832L297.282,33.832z M252.818,30.454h3.448
	v3.448h-3.448V30.454L252.818,30.454z M33.394,3.327v12.111H45.5c1.212,2.811,1.885,5.909,1.885,9.165
	c0,3.263-0.676,6.368-1.894,9.184H33.394H15.044H2.947c-1.218-2.816-1.894-5.921-1.894-9.184c0-3.256,0.673-6.354,1.885-9.165
	h12.106V3.326c2.813-1.215,5.915-1.89,9.174-1.89C27.479,1.437,30.58,2.112,33.394,3.327L33.394,3.327z M33.394,45.879
	c-2.813,1.215-5.915,1.89-9.175,1.89c-3.259,0-6.361-0.675-9.174-1.89V35.605h18.349V45.879L33.394,45.879z M93.544,34.133v-15.75
	h7.253v-2.78H82.822v2.78h7.227v15.75H93.544L93.544,34.133z M117.896,34.133v-2.779h-9.9c-0.555,0-0.972-0.035-1.191-0.238
	c-0.151-0.141-0.265-0.424-0.265-0.715v-4.342h10.986v-2.779H106.54v-3.732c0-0.265,0-0.637,0.292-0.9
	c0.263-0.239,0.635-0.265,0.953-0.265h10.006v-2.78h-11.886c-0.714,0-1.62,0.049-2.224,0.715c-0.402,0.444-0.635,1.192-0.635,1.932
	v13.131c0,0.713,0.053,1.563,0.688,2.17c0.608,0.582,1.323,0.582,2.118,0.582H117.896L117.896,34.133z M125.757,34.133v-6.564h8.683
	c1.085,0,2.147-0.342,2.833-0.9c1.458-1.188,1.615-3.573,1.615-5.083c0-1.562-0.14-3.648-1.403-4.871
	c-1.144-1.106-2.701-1.112-3.68-1.112h-8.815c-0.635,0-1.483,0.106-2.092,0.715c-0.635,0.634-0.635,1.377-0.635,2.064v15.75H125.757
	L125.757,34.133z M125.757,24.789v-5.294c0-0.317,0-0.636,0.238-0.873c0.264-0.265,0.583-0.239,0.821-0.239h5.639
	c0.582,0,1.568,0.021,2.17,0.636c0.588,0.602,0.661,1.72,0.661,2.542c0,0.714-0.051,1.907-0.609,2.541
	c-0.606,0.689-1.509,0.688-2.276,0.688H125.757L125.757,24.789z M161.148,34.133V18.727c0-0.926-0.053-3.335-2.832-3.335
	c-1.271,0-2.095,0.422-3.098,2.064l-7.465,12.229c-0.16,0.263-0.291,0.584-0.503,0.584c-0.345,0-0.321-0.425-0.318-0.848
	l0.08-13.819h-3.495v15.565c0,1.059,0.054,3.178,2.728,3.178c1.879,0,2.432-0.93,2.938-1.748l7.623-12.309
	c0.264-0.425,0.477-0.847,0.689-0.847c0.237,0,0.266,0.319,0.264,0.608l-0.105,14.083H161.148L161.148,34.133z M163.927,34.133
	h3.706l5.85-14.797c0.084-0.211,0.16-0.53,0.451-0.53c0.265,0,0.331,0.297,0.423,0.53l5.851,14.797h3.707l-7.148-16.995
	c-0.358-0.853-0.873-1.747-2.832-1.747s-2.474,0.896-2.833,1.747L163.927,34.133L163.927,34.133z M186.69,15.603v15.725
	c0,0.688,0.074,1.462,0.583,2.065c0.205,0.242,0.715,0.74,1.668,0.74h9.847c2.25,0,3.311-1.138,3.654-1.614
	c0.132-0.185,0.847-1.271,0.847-3.865c0-1.297-0.188-2.778-0.688-3.679c-0.928-1.667-2.754-1.774-3.626-1.774h-8.79v-7.598H186.69
	L186.69,15.603z M190.185,25.98h6.989c0.635,0,1.271-0.027,1.773,0.344c0.715,0.528,0.741,1.403,0.741,2.224
	c0,0.767-0.004,1.743-0.661,2.303c-0.586,0.499-1.774,0.503-2.039,0.503h-5.638c-0.37,0-0.794-0.002-1.006-0.291
	c-0.157-0.213-0.16-0.688-0.16-0.847V25.98L190.185,25.98z M224.545,15.603h-3.495V23.2h-9.636v-7.598h-3.494v18.53h3.494V25.98
	h9.636v8.152h3.495V15.603L224.545,15.603z M238.705,15.392c-2.25,0-5.32,0.001-7.386,1.959c-2.01,1.906-2.144,5.003-2.144,7.518
	c0,2.091-0.001,5.454,2.144,7.519c2.037,1.959,5.188,1.959,7.386,1.959c2.092,0,5.401,0,7.386-1.959
	c2.012-1.984,2.092-5.533,2.092-7.519c0-2.436-0.206-5.672-2.092-7.518C244.086,15.386,240.85,15.392,238.705,15.392L238.705,15.392
	z M232.775,24.868c0-2.833,0.448-4.211,1.191-5.136c1.216-1.51,3.098-1.562,4.712-1.562c1.535,0,3.547,0.055,4.738,1.562
	c0.713,0.901,1.165,2.356,1.165,5.136c0,2.727-0.48,4.232-1.165,5.109c-1.194,1.531-3.177,1.588-4.738,1.588
	c-2.091,0-3.622-0.188-4.712-1.588C233.204,28.995,232.775,27.516,232.775,24.868z"/>
</svg>
