<?xml version="1.0" encoding="utf-8"?>
<!-- Generator: Adobe Illustrator 19.2.1, SVG Export Plug-In . SVG Version: 6.00 Build 0)  -->
<svg version="1.1" id="layer" xmlns="http://www.w3.org/2000/svg" xmlns:xlink="http://www.w3.org/1999/xlink" x="0px" y="0px"
	 viewBox="0 0 652 652" style="enable-background:new 0 0 652 652;" xml:space="preserve">
<style type="text/css">
	.st0{fill:#0033FF;}
	.st1{fill:#FFFFFF;}
	.st2{fill:#FF0000;}
</style>
<g>
	<path class="st0" d="M622.3,253c-0.3-0.4-0.8-0.6-1.3-0.6l-17.5,0.1l11.8-57.4c0.1-0.6-0.1-1.2-0.6-1.6c-0.5-0.4-1.2-0.4-1.7-0.2
		l-94.1,47.1c-0.4,0.2-0.8,0.6-0.9,1.1l-2.6,11.7l-357.5,0.1l42.1-62.8c0.3-0.5,0.4-1.1,0.1-1.7c-0.3-0.5-0.8-0.9-1.4-0.9H84.7
		c-0.5,0-1,0.2-1.3,0.7l-45.8,62.9c-4.7,6.2-17.3,22.8-15.4,43c1.5,16,9.4,26.9,12.9,31.3l-20,27.6c-0.3,0.4-0.4,1-0.2,1.5l37.9,110
		c0.2,0.6,0.7,1,1.3,1.1c0.6,0.1,1.2-0.2,1.6-0.6l63.1-86.1c8.1,10.1,25.3,25,56.2,24.2c9.7-0.3,17.7-1.2,24.6-2.8
		c0.3,0.3,0.7,0.4,1.1,0.4l370.3,0.1c0.8,0,1.4-0.5,1.6-1.3l13.2-63.2l17.2,0.1c0.8,0,1.4-0.5,1.6-1.3l18.2-81.3
		C622.7,253.9,622.6,253.4,622.3,253"/>
	<path class="st0" d="M109,422.1h16.9c6.5,0,9.1,3.2,7.8,8.3c-0.7,2.9-3,5.5-6.6,7c0.4,3.8,1,7.7,1.8,11.5h-11l-0.9-15.2
		c0.5,0.1,1.1,0.2,1.7,0.2c1.9,0,4.3-0.6,4.7-2.6c0.4-1.9-0.8-2.3-2.6-2.3h-3.5l-5,20h-10L109,422.1"/>
	<path class="st0" d="M148.5,435.9l4.2-6.6h0.1l0.7,6.6H148.5 M140.4,448.9l4-6.2h9.6l0.8,6.2h11c-1.8-9-3.4-17.9-4.9-26.9h-12.5
		c-6.3,8.9-12.8,18.1-19.4,26.9H140.4z"/>
	<path class="st0" d="M189.8,448.9c-2.5,0.2-6.4,0.5-7.5,0.5c-8.5,0-15.8-4-13.4-13.9c2.5-9.9,11.8-14,20.3-14
		c2.1,0,4.5,0.4,6.9,0.8l-1,7.6c-1.9-0.6-3.9-1-5.9-1c-6,0-9.1,4.1-9.7,6.7c-1,3.9,1.3,6.6,4.6,6.6c3.5,0,5.9-0.4,8.4-1L189.8,448.9
		"/>
	<polygon class="st0" points="201.6,422.1 212.2,422.1 205.5,448.9 194.9,448.9 	"/>
	<polygon class="st0" points="217.6,422.1 229.7,422.1 234.2,436.8 234.3,436.8 238,422.1 247.3,422.1 240.6,448.9 228.6,448.9 
		223.9,434.4 223.8,434.4 220.2,448.9 210.9,448.9 	"/>
	<path class="st0" d="M277.3,433l-3.9,15.5c-4.1,0.3-10.3,1-12.2,1c-8.5,0-15.8-4-13.3-13.9c2.5-9.9,11.8-14,20.3-14
		c3.5,0,6.7,0.4,9.9,1l-1.2,7.7c-2.6-0.8-5.3-1.4-8.2-1.4c-5.2,0-9.3,2.6-10.5,7.4c-1,4.2,0.8,6.1,4.2,6.1c1,0,1.9,0,2.8-0.3
		l0.6-2.3h-2.7l1.7-6.8H277.3"/>
	<polygon class="st0" points="316.2,448.9 292.4,448.9 299.2,422.1 322.9,422.1 321.2,429.1 308,429.1 307.3,432 318.1,432 
		316.3,439 305.5,439 304.8,441.9 318,441.9 	"/>
	<path class="st0" d="M341.8,428.9c3.3,0,5.6,2.7,4.6,6.7c-1,3.9-4.6,6.6-7.9,6.6s-5.6-2.7-4.6-6.6
		C334.9,431.6,338.6,428.9,341.8,428.9 M352.6,441.8L352.6,441.8c2.1-1.5,4-4.9,4.4-6.3c2.5-9.9-4.8-14-13.3-14
		c-8.5,0-17.8,4-20.3,14c-2.5,9.9,4.8,13.9,13.3,13.9c2.9,0,11.8-0.8,17.7-1.1l2.8-7.4L352.6,441.8z"/>
	<path class="st0" d="M374.6,422.1l-3.7,14.9c-0.7,2.9-0.6,4.9,2.4,4.9c3,0,4.1-2,4.8-4.9l3.7-14.9h10.6l-4.8,19.1
		c-1,4.2-6.3,8.3-16.2,8.3c-9.9,0-13.1-4.1-12.1-8.3l4.8-19.1H374.6"/>
	<polygon class="st0" points="397.5,422.1 408.1,422.1 401.4,448.9 390.8,448.9 	"/>
	<path class="st0" d="M413.4,422.1h16c3.8,0,7.5,2.5,5.9,9.1c-1.3,5-6.1,8.5-11.8,8.5c-0.8,0-1.5-0.1-2.2-0.2l-0.4-6.2h1.2
		c1.5,0,2.8-0.6,3.2-2.1c0.5-2.1-0.6-2.2-2-2.2h-2.1l-5,20h-9.5L413.4,422.1"/>
	<polygon class="st0" points="434,448.9 440.7,422.1 454.5,422.1 453.8,436.8 453.9,436.8 460.7,422.1 474.4,422.1 467.7,448.9 
		459.1,448.9 463.5,431.2 463.4,431.2 455,448.9 446.2,448.9 446.7,431.2 446.6,431.2 442.2,448.9 	"/>
	<polygon class="st0" points="496.7,448.9 472.9,448.9 479.6,422.1 503.4,422.1 501.6,429.1 488.4,429.1 487.7,432 498.5,432 
		496.8,439 485.9,439 485.2,441.9 498.4,441.9 	"/>
	<polygon class="st0" points="508.6,422.1 520.7,422.1 525.2,436.8 525.2,436.8 528.9,422.1 538.2,422.1 531.5,448.9 519.5,448.9 
		514.9,434.4 514.8,434.4 511.2,448.9 501.9,448.9 	"/>
	<polygon class="st0" points="540.7,422.1 567.8,422.1 566.1,429.1 557.8,429.1 552.8,448.9 542.3,448.9 547.2,429.1 538.9,429.1 	
		"/>
	<path class="st0" d="M628.8,213c-4.2,0-7.6-3.4-7.6-7.6c0-4.2,3.4-7.6,7.6-7.6c4.2,0,7.6,3.4,7.6,7.6
		C636.4,209.6,633,213,628.8,213 M628.8,214.9c5.3,0,9.5-4.3,9.5-9.6c0-5.3-4.3-9.5-9.5-9.5c-5.3,0-9.6,4.3-9.6,9.5
		C619.2,210.6,623.5,214.9,628.8,214.9"/>
	<path class="st0" d="M630.6,206.2c1.8-0.1,2.8-0.9,2.8-2.7c0-1.1-0.3-2-1.2-2.6c-0.8-0.5-1.9-0.5-2.7-0.5h-4.9v10.1h2v-4.3h2
		l2.2,4.3h2.3L630.6,206.2 M626.6,204.7v-2.9h2.5c1,0,2.4,0,2.4,1.3c0,1.3-0.8,1.6-1.9,1.5H626.6z"/>
	<path class="st1" d="M600.9,265.5c-0.3-0.4-0.8-0.6-1.3-0.6l-17.2,0.1l9.4-45.8c0.1-0.6-0.1-1.2-0.6-1.6c-0.5-0.4-1.2-0.4-1.7-0.2
		l-61.5,30.8c-0.4,0.2-0.8,0.6-0.9,1.1l-3.6,16.3l-94.9-0.1c-0.5,0-1,0.2-1.3,0.7l-11.4,15.6l-4.6-15.1c-0.2-0.7-0.8-1.2-1.6-1.2
		l-96.4,0c-0.5,0-1,0.2-1.3,0.7l-11.6,15.6l-4.6-15.1c-0.2-0.7-0.8-1.2-1.6-1.2l-151.2,0c-0.8,0-1.4,0.5-1.6,1.3l-4,18.1
		c-3.3-4.6-8.6-11-10.6-13.4l50.7-70.5c0.4-0.5,0.4-1.1,0.1-1.7c-0.3-0.5-0.8-0.9-1.5-0.9l-86.7-0.1c-0.5,0-1,0.3-1.3,0.7
		c-0.4,0.6-42.1,58.4-42.6,59.1c-3.8,5-14.1,18.5-12.7,33.1c1.2,13,8.1,21.6,10.7,24.8c0,0,1.1,1.5,1.1,1.5l4.7,6.2l-22,30.2
		c-0.3,0.4-0.4,1-0.2,1.5l28.7,84.4c0.2,0.6,0.7,1,1.3,1.1c0.6,0.1,1.2-0.2,1.6-0.7l64.2-89.7c-0.1,0.9-0.1,1.8,0,2.7
		c0.8,11.7,12,34,48.4,34c21.9,0,35.9-6.5,44.4-13l-2.1,8.7c-0.1,0.5,0,1,0.3,1.4c0.3,0.4,0.8,0.6,1.3,0.6l340.4,0.1
		c0.8,0,1.4-0.5,1.6-1.3l13.2-63.3l17.4,0.1c0.8,0,1.4-0.5,1.6-1.3l11.7-52.4C601.3,266.4,601.2,265.9,600.9,265.5"/>
	<path class="st2" d="M234.7,276.8c-0.3-0.4-0.8-0.6-1.3-0.6h-31.5c-0.8,0-1.4,0.5-1.6,1.3l-14.2,64.6c-0.1,0.4-1.8,9-9.4,9
		c-2.1,0-3.6-0.6-4.4-1.7c-1.5-1.9-0.9-5.3-0.6-6.5c0-0.1,14.3-64.8,14.3-64.8c0.1-0.5,0-1-0.3-1.4c-0.3-0.4-0.8-0.6-1.3-0.6h-31.5
		c-0.8,0-1.4,0.5-1.6,1.3L134.7,352c0,0.1,0,0.3,0,0.5c0,0.2,1.9,23,36.6,23c38.9,0,47.2-22.5,47.3-22.7c0,0,16.4-74.5,16.4-74.5
		C235.1,277.7,235,277.2,234.7,276.8"/>
	<path class="st2" d="M514.9,278c-0.3-0.4-0.8-0.6-1.3-0.6h-31.5c-0.8,0-1.4,0.5-1.6,1.3l-20.3,92.5c-0.1,0.5,0,1,0.3,1.4
		c0.3,0.4,0.8,0.6,1.3,0.6h31.5c0.8,0,1.4-0.5,1.6-1.3l20.3-92.5C515.3,278.9,515.2,278.4,514.9,278"/>
	<path class="st2" d="M352.2,277.7c-0.3-0.4-0.8-0.6-1.3-0.6h-31.5c-0.5,0-1,0.2-1.3,0.6L296,307.3l-8.9-28.9
		c-0.2-0.7-0.8-1.2-1.6-1.2h-33.3c-0.8,0-1.4,0.5-1.6,1.3l-22.2,92.6c-0.1,0.5,0,1,0.3,1.4c0.3,0.4,0.8,0.6,1.3,0.6h32.2
		c0.7,0,1.4-0.5,1.6-1.2l11.6-44.4l8.7,25.3c0.2,0.6,0.7,1,1.3,1.1c0.6,0.1,1.2-0.1,1.6-0.6l19.6-24.7l-9.1,42.6
		c-0.1,0.5,0,1,0.3,1.4c0.3,0.4,0.8,0.6,1.3,0.6h29.6c0.8,0,1.4-0.5,1.6-1.3l22.1-92.8C352.7,278.6,352.6,278.1,352.2,277.7"/>
	<path class="st2" d="M467.7,277.7c-0.3-0.4-0.8-0.6-1.3-0.6h-31.5c-0.5,0-1,0.2-1.3,0.6l-22.2,29.6l-8.9-28.9
		c-0.2-0.7-0.8-1.2-1.6-1.2h-33.3c-0.8,0-1.4,0.5-1.6,1.3L344,371.1c-0.1,0.5,0,1,0.3,1.4c0.3,0.4,0.8,0.6,1.3,0.6h32.2
		c0.7,0,1.4-0.5,1.6-1.2l11.6-44.4l8.7,25.3c0.2,0.6,0.7,1,1.3,1.1c0.6,0.1,1.2-0.1,1.6-0.6l19.6-24.7l-9.1,42.6
		c-0.1,0.5,0,1,0.3,1.4c0.3,0.4,0.8,0.6,1.3,0.6h29.6c0.8,0,1.4-0.5,1.6-1.3l22.1-92.8C468.1,278.6,468,278.1,467.7,277.7"/>
	<path class="st2" d="M125.4,288.6l-13.2-16.8l42.5-59.1c0.4-0.5,0.4-1.1,0.1-1.7c-0.3-0.5-0.8-0.9-1.5-0.9l-57.8-0.1
		c-0.5,0-1,0.3-1.3,0.7l-38.5,53.5c-0.2,0.2-0.4,0.6-0.7,1c-3.1,4.1-11.3,14.8-10.3,24.9c0.9,9.5,6,15.8,8.2,18.5
		c0.3,0.3,0.5,0.6,0.6,0.8c4.6,6.2,9,11.8,10.8,13.9L40.6,356c-0.3,0.4-0.4,1-0.2,1.5l19.1,56.1c0.2,0.6,0.7,1,1.3,1.1
		c0.6,0.1,1.2-0.2,1.6-0.7l59.2-81.5l0.3-0.4c2.6-3.5,10.5-14.3,10.7-25.1c0.2-9.8-4.6-15.3-6.6-17.6
		C125.7,289,125.5,288.8,125.4,288.6"/>
	<path class="st2" d="M586.2,277.3c-0.3-0.4-0.8-0.6-1.3-0.6l-16.9,0.1l7.5-36.3c0.1-0.6-0.1-1.2-0.6-1.6c-0.5-0.4-1.2-0.4-1.7-0.2
		l-34.9,17.5c-0.4,0.2-0.8,0.6-0.9,1.1l-4.4,20l-7.1,0c-0.8,0-1.4,0.5-1.6,1.3l-6.3,27.8c-0.1,0.5,0,1,0.3,1.4
		c0.3,0.4,0.8,0.6,1.3,0.6h6l-13.4,62.9c-0.1,0.5,0,1,0.3,1.4c0.3,0.4,0.8,0.6,1.3,0.6l32.4,0c0.8,0,1.4-0.5,1.6-1.3l13.3-63.4
		l17.5,0.1c0.8,0,1.4-0.5,1.6-1.3l6.4-28.7C586.6,278.2,586.5,277.7,586.2,277.3"/>
</g>
</svg>
