<?xml version="1.0" encoding="UTF-8" standalone="no"?><!-- Generator: Gravit.io --><svg xmlns="http://www.w3.org/2000/svg" xmlns:xlink="http://www.w3.org/1999/xlink" style="isolation:isolate" viewBox="0 0 150 150" width="150pt" height="150pt"><defs><clipPath id="_clipPath_LBXhyqE7YUFyXq5PKhNJVxEQ0y6UtofN"><rect width="150" height="150"/></clipPath></defs><g clip-path="url(#_clipPath_LBXhyqE7YUFyXq5PKhNJVxEQ0y6UtofN)"><path d=" M 12.622 49.168 C 12.622 51.302 10.695 53.032 8.318 53.032 C 5.941 53.032 4.014 51.302 4.014 49.168 C 4.014 47.034 5.941 45.304 8.318 45.304 C 10.695 45.304 12.622 47.034 12.622 49.168 Z " fill="rgb(255,66,0)"/><path d=" M 2.054 58.852 L 4.695 54.744 C 4.695 54.744 8.412 57.629 9.537 58.608 C 10.662 59.586 12.668 61.249 12.618 63.938 C 12.569 66.628 11.787 68.976 11.151 70.59 C 10.515 72.204 6.358 80.713 6.358 80.713 L 0 76.752 C 0 76.752 6.115 71.096 8.461 67.655 C 9.195 66.579 10.075 63.743 7.581 62.275 C 5.086 60.808 2.054 58.852 2.054 58.852 Z " fill="rgb(255,66,0)"/><path d=" M 10.222 56.406 C 10.222 56.406 13.694 54.157 17.118 44.766 C 18.096 45.108 23.035 46.429 23.035 46.429 L 21.421 49.412 C 21.421 49.412 28.807 47.163 35.164 47.163 C 35.164 47.163 38.637 47.016 41.327 47.897 C 44.017 48.777 46.757 50.587 47.441 53.521 C 48.126 56.455 48.859 66.237 47.49 75.089 C 47.49 75.089 47.196 77.144 45.289 78.953 C 43.382 80.762 41.083 81.643 37.024 81.643 C 32.964 81.643 30.812 80.86 30.812 80.86 L 31.644 77.436 C 31.644 77.436 34.138 78.366 36.094 78.366 C 38.05 78.366 39.713 77.535 40.594 76.508 C 40.594 76.508 41.377 75.334 41.425 74.355 C 41.474 73.377 41.523 54.597 41.327 53.961 C 41.132 53.325 40.887 50.929 37.855 50.342 C 34.823 49.755 32.426 50.146 31.692 50.293 C 30.959 50.44 26.362 51.564 24.063 52.493 C 24.943 52.787 26.655 53.227 26.655 53.227 C 26.655 53.227 25.873 54.841 24.454 56.406 C 26.411 56.358 39.42 56.406 39.42 56.406 L 39.42 59.341 L 31.057 59.341 L 31.057 63.253 L 39.322 63.253 L 39.322 66.188 L 31.057 66.188 L 31.057 72.399 C 31.057 72.399 32.426 72.399 34.431 70.834 C 34.285 69.758 34.333 69.611 33.845 68.046 C 35.116 67.753 37.66 66.873 37.66 66.873 L 40.839 74.747 L 36.094 76.605 L 35.214 73.426 C 35.214 73.426 33.796 75.04 30.323 76.067 C 25.488 77.498 22.401 77.437 21.569 77.388 C 21.569 77.388 19.222 77.485 17.803 76.849 C 16.384 76.214 14.33 74.747 14.33 70.54 C 14.33 69.123 14.673 67.949 14.673 67.949 L 20.639 67.997 C 20.639 67.997 20.346 70.101 20.346 70.638 C 20.346 71.176 19.906 73.475 24.209 73.426 C 24.209 70.345 24.161 66.139 24.161 66.139 L 15.651 66.09 L 15.651 63.155 L 24.112 63.155 L 24.112 59.438 L 21.96 59.438 C 21.96 59.438 19.613 61.64 18.292 62.96 L 15.847 60.808 C 15.847 60.808 18.669 57.874 20.591 53.619 C 19.466 54.059 17.51 54.939 17.51 54.939 C 17.51 54.939 16.14 56.7 14.428 58.509 C 13.206 57.825 10.222 56.406 10.222 56.406" fill="rgb(255,66,0)"/><path d=" M 61.771 53.863 L 61.722 56.652 L 89.159 56.652 C 89.159 56.652 92.142 54.842 92.142 53.081 C 92.142 51.32 89.844 50.831 88.278 50.734 C 86.713 50.636 82.312 50.587 78.692 51.027 C 75.074 51.467 66.759 52.445 61.771 53.863 M 54.972 60.613 L 54.972 48.631 L 61.673 48.631 L 61.673 50.147 C 61.673 50.147 71.259 48.826 72.285 48.826 L 72.285 45.402 L 79.866 45.402 L 79.866 47.995 C 79.866 47.995 84.708 47.554 87.887 47.554 C 91.066 47.554 94.782 48.092 96.201 48.581 C 97.62 49.071 99.332 50.293 99.332 52.837 C 99.332 55.38 97.424 58.021 93.609 60.564 C 92.435 59.39 91.556 58.559 91.556 58.559 L 91.604 59.683 L 79.965 59.683 L 79.965 63.645 L 93.316 63.645 L 93.316 66.775 L 79.965 66.775 L 79.965 76.116 L 98.109 76.116 L 98.109 79.98 L 54.924 79.98 L 54.924 76.116 L 72.139 76.116 L 72.139 66.873 L 60.254 66.873 L 60.254 63.645 L 72.188 63.645 L 72.188 59.732 L 61.771 59.732 L 61.771 60.613 L 54.972 60.613 L 54.972 60.613 L 54.972 60.613 L 54.972 60.613 L 54.972 60.613 L 54.972 60.613 L 54.972 60.613 Z " fill="rgb(255,66,0)"/><path d=" M 92.732 71.519 C 92.732 73.626 90.827 75.334 88.477 75.334 C 86.128 75.334 84.223 73.626 84.223 71.519 C 84.223 69.413 86.128 67.705 88.477 67.705 C 90.827 67.705 92.732 69.413 92.732 71.519 Z " fill="rgb(255,66,0)"/><path d=" M 117.916 62.227 C 116.156 59.586 113.661 57.923 113.661 57.923 C 113.661 57.923 114.982 56.456 115.667 55.331 C 117.086 56.309 118.601 57.385 120.215 58.559 C 121.633 56.163 123.491 51.957 123.491 51.957 C 123.491 51.957 128.089 54.255 128.97 54.696 C 128.53 56.114 128.137 56.603 128.137 56.603 C 128.137 56.603 131.023 58.51 132.784 59.635 C 134.789 55.82 135.67 51.37 135.67 51.37 L 141.685 55.038 C 141.685 55.038 141.685 52.788 141.588 51.859 C 141.49 48.582 137.92 48.191 136.012 48.24 C 134.105 48.288 129.898 49.071 125.155 50.098 C 120.411 51.125 112.927 54.451 112.927 54.451 L 112.927 66.923 C 115.568 65.308 116.596 64.037 117.916 62.227 M 112.976 68.243 L 112.976 79.932 L 105.445 79.932 L 105.445 47.359 L 112.927 47.359 L 112.927 50.196 C 112.927 50.196 120.215 47.409 125.155 46.381 C 130.094 45.354 132.931 45.354 134.105 45.354 C 135.278 45.354 140.121 45.892 142.859 46.919 C 145.598 47.946 147.554 50 148.337 52.201 C 149.119 54.402 149.168 60.417 149.168 63.205 C 149.168 65.993 148.973 74.552 148.679 76.214 C 148.386 77.878 147.7 79.785 146.233 80.861 C 144.767 81.937 142.663 81.692 140.756 81.301 C 138.848 80.91 136.599 80.079 134.691 79.052 L 134.691 75.823 C 134.691 75.823 136.549 77.144 138.408 77.144 C 140.267 77.144 141.735 76.019 141.735 73.525 C 141.735 71.031 141.978 60.32 141.783 55.918 C 140.561 57.874 138.017 61.346 136.892 62.618 C 138.408 63.694 140.218 65.358 141.294 66.629 C 139.875 67.9 136.061 71.031 136.061 71.031 C 136.061 71.031 133.811 67.607 133.273 66.971 C 132.686 67.656 129.067 71.666 123.394 74.992 C 122.416 73.574 121.046 71.813 121.046 71.813 C 121.046 71.813 125.301 70.346 130.485 63.45 C 129.361 62.276 127.698 60.124 126.231 59.146 C 125.643 59.978 123.931 61.787 123.931 61.787 C 123.931 61.787 125.497 62.961 126.622 65.015 C 125.643 65.993 122.611 69.123 122.611 69.123 L 120.166 65.358 C 120.166 65.358 117.476 68.194 114.981 70.003 C 113.759 68.83 112.976 68.243 112.976 68.243" fill="rgb(255,66,0)"/><path d=" M 3.23 91.04 C 3.23 91.04 3.958 88.382 6.81 88.489 C 9.662 88.596 11.763 88.746 13.414 88.746 C 15.065 88.746 18.817 88.382 19.224 88.232 C 19.031 89.025 18.131 90.547 16.801 90.547 L 13.778 90.547 C 13.778 90.547 13.071 90.526 13.071 91.405 L 13.071 101.889 C 13.071 101.889 13.264 103.326 14.657 102.983 C 14.207 104.205 13.049 104.913 11.698 104.913 C 10.348 104.913 9.019 104.055 9.019 102.875 L 9.019 91.234 C 9.019 90.633 8.933 90.483 7.861 90.44 C 7.218 90.414 5.978 90.354 4.902 90.483 C 4.207 90.566 3.659 90.822 3.23 91.04" fill="rgb(255,66,0)"/><path d=" M 23.491 97.322 C 22.141 97.322 21.047 98.609 21.047 100.196 C 21.047 101.782 22.141 103.068 23.491 103.068 C 24.841 103.068 25.936 101.782 25.936 100.196 C 25.936 98.609 24.841 97.322 23.491 97.322 Z  M 18.389 93.806 C 18.516 93.363 18.753 92.606 19.696 92.069 C 20.742 91.475 22.29 91.448 22.848 91.448 C 23.406 91.448 25.164 91.556 25.7 91.705 C 26.235 91.855 29.301 92.328 29.301 95.693 L 29.301 102.039 C 29.301 102.039 29.43 103.369 30.781 102.94 C 30.588 104.248 29.301 104.913 28.38 104.913 C 27.458 104.913 25.957 104.355 25.957 103.219 C 25.957 103.219 25.356 105.126 22.141 105.105 C 18.925 105.084 17.188 103.154 17.188 100.281 C 17.188 97.408 19.267 95.415 22.334 95.415 C 23.363 95.415 25.185 95.822 25.957 97.044 C 25.964 95.544 25.687 93.502 23.38 93.287 C 22.196 93.212 19.826 93.262 18.389 93.806" fill="rgb(255,66,0)"/><path d=" M 70.048 97.322 C 68.698 97.322 67.604 98.609 67.604 100.196 C 67.604 101.782 68.698 103.068 70.048 103.068 C 71.398 103.068 72.492 101.782 72.492 100.196 C 72.492 98.609 71.398 97.322 70.048 97.322 Z  M 64.945 93.806 C 65.072 93.363 65.31 92.606 66.253 92.069 C 67.298 91.475 68.847 91.448 69.405 91.448 C 69.962 91.448 71.721 91.556 72.256 91.705 C 72.792 91.855 75.858 92.328 75.858 95.693 L 75.858 102.039 C 75.858 102.039 75.987 103.369 77.337 102.94 C 77.145 104.248 75.858 104.913 74.936 104.913 C 74.014 104.913 72.514 104.355 72.514 103.219 C 72.514 103.219 71.913 105.126 68.697 105.105 C 65.481 105.084 63.744 103.154 63.744 100.281 C 63.744 97.408 65.824 95.415 68.89 95.415 C 69.919 95.415 71.742 95.822 72.514 97.044 C 72.521 95.544 72.243 93.502 69.937 93.287 C 68.752 93.212 66.383 93.262 64.945 93.806" fill="rgb(255,66,0)"/><path d=" M 38.843 93.485 C 37.387 93.485 36.206 95.644 36.206 98.309 C 36.206 100.973 37.387 103.132 38.843 103.132 C 40.3 103.132 41.48 100.973 41.48 98.309 C 41.48 95.644 40.3 93.485 38.843 93.485 Z  M 45.532 98.309 C 45.532 102.134 42.537 105.234 38.843 105.234 C 35.149 105.234 32.154 102.134 32.154 98.309 C 32.154 94.484 35.149 91.383 38.843 91.383 C 42.537 91.383 45.532 94.484 45.532 98.309 Z " fill="rgb(255,66,0)"/><path d=" M 85.267 93.485 C 83.811 93.485 82.631 95.644 82.631 98.309 C 82.631 100.973 83.811 103.132 85.267 103.132 C 86.724 103.132 87.904 100.973 87.904 98.309 C 87.904 95.644 86.724 93.485 85.267 93.485 Z  M 91.957 98.309 C 91.957 102.134 88.962 105.234 85.267 105.234 C 81.573 105.234 78.578 102.134 78.578 98.309 C 78.578 94.484 81.573 91.383 85.267 91.383 C 88.962 91.383 91.957 94.484 91.957 98.309 Z " fill="rgb(255,66,0)"/><path d=" M 119.656 93.485 C 118.199 93.485 117.019 95.644 117.019 98.309 C 117.019 100.973 118.199 103.132 119.656 103.132 C 121.112 103.132 122.293 100.973 122.293 98.309 C 122.293 95.644 121.112 93.485 119.656 93.485 Z  M 126.345 98.309 C 126.345 102.134 123.35 105.234 119.656 105.234 C 115.961 105.234 112.966 102.134 112.966 98.309 C 112.966 94.484 115.961 91.383 119.656 91.383 C 123.35 91.383 126.345 94.484 126.345 98.309 Z " fill="rgb(255,66,0)"/><path d=" M 52.01 95.584 C 51.609 96.813 51.823 100.181 52.01 100.823 C 52.198 101.464 52.892 103.068 54.683 103.068 C 56.474 103.068 57.089 101.304 57.222 100.716 C 57.356 100.128 57.623 98.577 57.142 95.904 C 56.661 93.232 54.63 93.446 54.63 93.446 C 53.16 93.473 52.411 94.355 52.01 95.584 M 46.638 88.795 C 46.638 88.795 46.905 86.817 49.177 86.817 C 51.449 86.817 51.904 88.261 51.904 88.635 L 51.904 93.071 C 51.904 93.071 52.866 91.628 55.806 91.628 C 58.746 91.628 61.445 93.714 61.445 97.642 C 61.445 97.642 62.06 104.992 55.646 104.992 C 53.561 104.992 52.358 104.297 51.743 103.282 C 51.342 104.324 50.406 104.912 49.284 104.912 C 48.162 104.912 46.825 104.217 46.825 102.961 C 47.306 103.014 48.215 102.987 48.215 101.811 L 48.215 89.731 C 48.215 89.731 48.108 88.795 46.638 88.795" fill="rgb(255,66,0)"/><path d=" M 97.419 103.201 C 97.419 104.22 96.582 105.045 95.548 105.045 C 94.515 105.045 93.678 104.22 93.678 103.201 C 93.678 102.183 94.515 101.358 95.548 101.358 C 96.582 101.358 97.419 102.183 97.419 103.201 Z " fill="rgb(255,66,0)"/><path d=" M 111.077 103.014 C 111.077 103.014 110.409 102.293 109.794 102.32 C 109.18 102.346 108.859 102.56 108.511 102.694 C 108.164 102.827 107.415 103.094 106.747 103.094 C 106.079 103.094 104.85 102.827 103.941 101.437 C 103.023 100.033 103.031 97.294 103.326 96.145 C 103.62 94.995 104.315 94.114 105.116 93.606 C 105.918 93.099 107.442 93.286 107.977 93.713 C 108.511 94.141 108.752 94.942 109.741 94.942 C 110.73 94.942 111.29 93.767 111.131 92.964 C 111.131 92.964 109.527 91.656 106.213 91.628 C 103.112 91.602 101.349 93.285 100.787 93.953 C 100.225 94.621 99.157 96.225 99.157 98.363 C 99.157 100.502 100.226 102.667 101.509 103.656 C 102.783 104.638 104.663 105.126 106.052 105.126 C 107.442 105.126 109.581 104.645 111.077 103.014" fill="rgb(255,66,0)"/><path d=" M 127.596 93.66 C 127.596 93.66 127.89 91.655 130.188 91.655 C 132.086 91.655 132.594 93.072 132.594 93.072 C 132.594 93.072 133.77 91.521 136.229 91.521 C 138.688 91.521 139.811 92.697 140.265 93.312 C 141.066 92.537 141.895 91.548 144.14 91.548 C 146.385 91.548 148.283 92.324 148.497 94.569 C 148.711 96.813 148.631 102.319 148.631 102.319 C 148.631 102.319 148.817 103.389 149.994 102.934 C 150.1 104.137 148.844 104.912 147.588 104.912 C 146.332 104.912 145.076 104.164 145.076 102.587 L 145.076 95.077 C 145.076 95.077 145.103 93.339 143.045 93.339 C 140.986 93.339 140.772 95.236 140.772 95.825 L 140.772 104.832 L 137.111 104.832 L 137.111 95.103 C 137.111 95.103 137.084 93.312 135.187 93.312 C 133.289 93.312 132.781 94.889 132.781 95.664 L 132.781 104.752 L 129.146 104.752 L 129.146 94.782 C 129.146 94.782 129.226 93.687 127.596 93.66" fill="rgb(255,66,0)"/></g></svg>