<?xml version="1.0" encoding="utf-8"?>
<!-- Generator: Adobe Illustrator 19.2.1, SVG Export Plug-In . SVG Version: 6.00 Build 0)  -->
<svg version="1.1" id="layer" xmlns="http://www.w3.org/2000/svg" xmlns:xlink="http://www.w3.org/1999/xlink" x="0px" y="0px"
	 viewBox="0 0 652 652" style="enable-background:new 0 0 652 652;" xml:space="preserve">
<style type="text/css">
	.st0{fill:#532D6B;}
</style>
<path class="st0" d="M61.2,228.2H43.9V278H20.5v14.7h23.4v118.9h17.3V292.7h27V278h-27V228.2z M228.3,302.5
	c-6.6-9.4-14.4-16.3-23.2-20.9c-8.9-4.6-18.8-6.9-29.6-6.9c-18.8,0-35,6.8-48.5,20.4c-13.4,13.7-20.2,30.1-20.2,49.2
	c0,19.6,6.7,36.2,20,49.9c13.3,13.7,29.4,20.5,48.2,20.5c10.6,0,20.3-2.2,29.2-6.5c8.9-4.4,16.9-10.9,24.1-19.7v23h17.3V278h-17.3
	C228.3,278,228.3,302.5,228.3,302.5z M222.6,372.8c-4.5,8-10.9,14.4-19.3,19.2c-8.4,4.7-17.2,7-26.5,7c-9.2,0-17.9-2.4-26-7.1
	c-8.1-4.7-14.4-11.4-19.2-20c-4.8-8.6-7.1-17.5-7.1-26.9c0-9.5,2.3-18.4,7.1-26.9c4.5-8.2,11.1-15,19.1-19.8c8-4.7,16.7-7,26.2-7
	c14.7,0,27.1,5.2,37.2,15.5c10,10.4,15.1,23.3,15.1,38.6C229.3,355.6,227,364.7,222.6,372.8z M311.5,280.3
	c-5.8,3.8-11.3,9.5-16.5,17.2V278h-17.3v133.6h17.3v-45.1c0-23.1,1.1-38.5,3.2-46.1c2.8-9.9,6.8-17.2,12.2-21.9
	c5.3-4.7,10.8-7,16.5-7c2.5,0,5.4,0.7,9.1,2.3l8.9-14.4c-5.4-3-10.4-4.5-15.2-4.5C323.3,274.7,317.2,276.6,311.5,280.3z
	 M404.1,228.2h-17.2V278h-23.5v14.7h23.5v118.9h17.2V292.7h27.1V278h-27.1V228.2z M560.1,300.5c-13.6-17.2-31.7-25.8-54.3-25.8
	c-21.9,0-39.5,8.4-52.6,25.2c-10.3,13.2-15.5,28.3-15.5,45.2c0,18,6.1,34.1,18.3,48.3c12.2,14.2,29.1,21.3,50.7,21.3
	c9.8,0,18.6-1.5,26.3-4.4c7.7-3,14.8-7.4,20.8-13c6.2-5.7,11.6-13.2,16.3-22.5l-14.3-7.6c-5.2,8.7-10.1,14.9-14.5,18.8
	c-4.6,3.9-9.9,7-16.3,9.4c-6.3,2.3-13,3.5-19.7,3.5c-14,0-25.6-4.9-35.2-14.8c-9.6-10-14.4-22.6-14.8-38.1h119.5
	C574.5,327.8,569.6,312.7,560.1,300.5z M456.9,331.3c3.5-12.2,8.7-21.5,15.6-27.6c9.3-8.4,20.5-12.7,33.5-12.7
	c7.9,0,15.4,1.7,22.6,5c7.1,3.3,12.9,7.8,17.3,13.3c4.4,5.5,7.7,12.8,10,22H456.9z M580.3,280.6h6v16h3.8v-16h6.1v-3.2h-15.9
	C580.3,277.5,580.3,280.6,580.3,280.6z M619.1,277.5h-5.5l-3.3,9.5c-0.5,1.6-0.9,3.1-1.3,4.7h-0.1c-0.3-1.6-0.8-3.3-1.3-4.8
	l-3.2-9.4h-5.7l-1.4,19.1h3.6l0.7-11.3c0.1-1.7,0.1-3.6,0.1-5.3h0.2c0.4,1.7,1,4,1.4,5.4l3.4,10.8h3.9l3.4-10.6
	c0.6-1.7,1.1-4,1.6-5.7h0.2c0.1,2.1,0.1,3.9,0.1,5.3l0.7,11.3h3.8C620.5,296.6,619.1,277.5,619.1,277.5z"/>
</svg>
