<svg xmlns="http://www.w3.org/2000/svg" width="69" height="71" viewBox="0 0 69 71">
                        <g fill="none" fill-rule="evenodd">
                            <path d="M64.13.114H4.918C2.288.114.156 2.284.156 4.96v60.28c0 2.677 2.132 4.848 4.762 4.848H64.13c2.63 0 4.762-2.17 4.762-4.848V4.96c0-2.676-2.132-4.846-4.762-4.846" fill="#E33059"></path>
                            <path d="M66.338 63.035c-.01 3.545-1.41 4.698-4.47 4.565H7.167c-2.468 0-4.51-.477-4.468-4.565V7.162c0-2.52.224-4.652 4.468-4.564H61.87c2.857-.088 4.656.725 4.468 4.564v55.873z" fill="#FFF"></path>
                            <path fill="#732B90" d="M22.983 13.032H12.226v2.7h3.97v8.342h2.778V15.73h4.01M33.076 21.406v-1.792h3.805v-2.7h-3.804v-1.158l6.617.01v-2.733h-9.397v11.07h9.454v-2.697M45.31 13.033h3.5l2.715 3.35 2.69-3.344 3.5-.007-4.44 5.455 4.543 5.58h-3.616l-2.715-3.373-2.752 3.374-3.5.006 4.502-5.524M35.024 29.812c-3.18 0-5.762 2.58-5.762 5.76 0 3.183 2.58 5.762 5.762 5.762 3.182 0 5.76-2.58 5.76-5.76 0-3.182-2.578-5.762-5.76-5.762m0 8.8c-1.678 0-3.038-1.36-3.038-3.04 0-1.677 1.36-3.037 3.038-3.037 1.68 0 3.04 1.36 3.04 3.038 0 1.678-1.36 3.04-3.04 3.04M36.638 47.37h-6.6V58.41h2.778v-4.125l3.822.007c1.854 0 3.37-1.518 3.37-3.37v-.186c0-1.854-1.516-3.37-3.37-3.37m-.183 4.226l-.343-.006h-3.296v-1.52h3.197l.44.016c.416 0 .756.34.756.755 0 .414-.34.754-.755.754M56.91 47.367H46.152v2.698h3.97v8.343h2.78v-8.343h4.008"></path>
                            <path d="M52.91 35.557c0 .76-.618 1.377-1.378 1.377-.762 0-1.378-.616-1.378-1.377 0-.76.615-1.378 1.378-1.378.76 0 1.377.616 1.377 1.377" fill="#FEBE23"></path>
                            <path d="M51.532 32.817c-1.514 0-2.74 1.228-2.74 2.74 0 1.514 1.226 2.74 2.74 2.74 1.513 0 2.74-1.226 2.74-2.74 0-1.512-1.227-2.74-2.74-2.74m0 4.548c-1 0-1.81-.81-1.81-1.808 0-1 .81-1.808 1.81-1.808.998 0 1.81.808 1.81 1.807 0 1-.812 1.808-1.81 1.808" fill="#732B90"></path>
                            <path d="M18.982 52.882c0 .762-.617 1.378-1.378 1.378-.76 0-1.378-.615-1.378-1.378 0-.76.617-1.376 1.378-1.376.76 0 1.378.616 1.378 1.376" fill="#E33059"></path>
                            <path d="M17.605 50.142c-1.516 0-2.74 1.227-2.74 2.74 0 1.514 1.224 2.74 2.74 2.74 1.513 0 2.74-1.226 2.74-2.74 0-1.513-1.227-2.74-2.74-2.74m0 4.55c-1 0-1.81-.81-1.81-1.81 0-.998.81-1.81 1.81-1.81.998 0 1.807.812 1.807 1.81 0 1-.81 1.81-1.807 1.81M22.38 30.183H12.83V41.22h2.794v-8.34h3.965v8.34h2.794" fill="#732B90"></path>
                        </g>
                    </svg>