<?xml version="1.0" encoding="UTF-8" standalone="no"?><!-- Generator: Gravit.io --><svg xmlns="http://www.w3.org/2000/svg" xmlns:xlink="http://www.w3.org/1999/xlink" style="isolation:isolate" viewBox="0 0 150 150" width="150pt" height="150pt"><defs><clipPath id="_clipPath_XlRI3zY5K7zOb6MHYENjBS7vw3sxASFM"><rect width="150" height="150"/></clipPath></defs><g clip-path="url(#_clipPath_XlRI3zY5K7zOb6MHYENjBS7vw3sxASFM)"><g><path d=" M 39.115 85.765 L 39.115 87.387 C 38.488 87.478 37.855 87.525 37.222 87.531 Q 33.372 87.531 33.372 83.508 L 33.372 75.516 L 31.02 75.516 L 31.02 73.894 L 33.372 73.894 L 33.464 70.558 L 35.384 70.374 L 35.384 73.889 L 40.066 73.889 L 40.066 75.511 L 35.384 75.511 L 35.384 83.854 C 35.384 85.225 36.095 85.908 37.509 85.908 C 38.047 85.901 38.584 85.853 39.115 85.765 L 39.115 85.765 Z " fill="rgb(85,85,85)"/><path d=" M 51.778 87.166 L 49.715 87.166 L 49.715 79.115 C 49.737 78.401 49.676 77.687 49.534 76.987 C 49.404 76.493 49.108 76.059 48.696 75.757 C 48.259 75.416 47.719 75.234 47.165 75.241 C 46.122 75.231 45.135 75.714 44.503 76.544 Q 43.435 77.847 43.421 80.023 L 43.421 87.166 L 41.364 87.166 L 41.364 69.236 L 43.424 69.236 L 43.424 76.344 Q 44.832 73.537 47.444 73.535 C 48.163 73.521 48.876 73.678 49.523 73.992 C 50.09 74.263 50.573 74.681 50.923 75.203 C 51.228 75.654 51.452 76.154 51.586 76.682 C 51.732 77.484 51.793 78.3 51.767 79.115 L 51.778 87.166 Z " fill="rgb(85,85,85)"/><path d=" M 56.265 87.166 L 54.205 87.166 L 54.205 73.902 L 56.019 73.902 L 56.019 77.001 C 56.655 75.538 57.295 74.594 57.941 74.162 C 58.519 73.75 59.208 73.523 59.918 73.513 C 60.129 73.513 60.399 73.529 60.729 73.562 L 60.729 75.53 L 60.307 75.53 C 59.218 75.509 58.178 75.978 57.474 76.809 C 56.717 77.658 56.317 78.777 56.263 80.153 L 56.265 87.166 Z " fill="rgb(85,85,85)"/><path d=" M 64.706 70.107 L 64.706 72.41 L 62.486 72.41 L 62.486 70.107 L 64.706 70.107 Z  M 64.638 73.892 L 64.638 87.166 L 62.578 87.166 L 62.578 73.902 L 64.638 73.892 Z " fill="rgb(85,85,85)"/><path d=" M 75.56 73.902 L 75.56 75.524 L 71.102 75.524 L 71.102 87.166 L 69.039 87.166 L 69.039 75.516 L 66.236 75.516 L 66.236 73.894 L 69.053 73.894 Q 69.104 70.704 70.28 69.782 C 71.105 69.158 72.117 68.834 73.151 68.863 C 73.786 68.87 74.419 68.931 75.044 69.047 L 75.044 70.688 C 74.629 70.58 74.202 70.523 73.773 70.518 C 72.87 70.518 72.202 70.72 71.77 71.115 C 71.337 71.51 71.102 72.269 71.102 73.364 L 71.102 73.905 L 75.56 73.902 Z " fill="rgb(85,85,85)"/><path d=" M 83.581 85.765 L 83.581 87.387 C 82.954 87.478 82.322 87.526 81.689 87.531 Q 77.839 87.531 77.842 83.508 L 77.842 75.516 L 75.49 75.516 L 75.49 73.894 L 77.842 73.894 L 77.934 70.558 L 79.85 70.374 L 79.85 73.889 L 84.333 73.889 L 84.333 75.511 L 79.85 75.511 L 79.85 83.854 Q 79.85 85.908 81.978 85.908 C 82.515 85.901 83.051 85.853 83.581 85.765 L 83.581 85.765 Z " fill="rgb(85,85,85)"/><path d=" M 86.931 87.166 L 85.579 87.166 L 85.579 69.236 L 88.574 69.236 L 88.574 75.725 Q 89.431 74.235 90.28 73.767 C 90.896 73.441 91.585 73.279 92.281 73.297 Q 94.46 73.297 95.893 75.146 Q 97.326 76.995 97.326 80.272 C 97.326 82.248 96.858 83.94 95.914 85.338 C 94.971 86.736 93.625 87.441 91.859 87.441 C 90.094 87.441 88.715 86.63 87.736 84.987 L 86.931 87.166 Z  M 88.572 81.507 C 88.572 82.689 88.826 83.562 89.342 84.13 C 89.85 84.689 90.577 84.997 91.332 84.973 C 92.109 84.978 92.844 84.619 93.316 84.003 Q 94.111 83.029 94.165 80.193 C 94.165 78.809 93.927 77.76 93.446 76.995 C 93.022 76.279 92.242 75.849 91.41 75.873 C 90.618 75.858 89.865 76.213 89.372 76.833 Q 88.561 77.79 88.561 79.536 L 88.572 81.507 Z " fill="rgb(85,85,85)"/><path d=" M 104.82 87.444 Q 101.876 87.444 100.326 85.33 C 99.295 83.926 98.751 82.224 98.777 80.483 Q 98.777 77.539 100.491 75.584 Q 102.205 73.629 105.017 73.624 C 106.685 73.575 108.289 74.268 109.397 75.516 C 110.537 76.792 111.111 78.439 111.111 80.472 Q 111.111 83.619 109.329 85.525 C 108.175 86.788 106.53 87.488 104.82 87.444 Z  M 104.925 84.973 Q 107.945 84.973 107.945 80.472 C 107.945 79.12 107.707 78.039 107.223 77.257 C 106.758 76.485 105.904 76.034 105.003 76.084 C 103.971 76.084 103.203 76.484 102.703 77.295 C 102.203 78.106 101.957 79.188 101.957 80.526 C 101.957 81.967 102.227 83.07 102.751 83.835 C 103.23 84.566 104.052 84.996 104.925 84.973 L 104.925 84.973 Z " fill="rgb(85,85,85)"/><path d=" M 118.607 87.444 Q 115.671 87.444 114.117 85.33 C 113.086 83.926 112.542 82.224 112.568 80.483 Q 112.568 77.539 114.279 75.584 Q 115.99 73.629 118.807 73.624 C 120.474 73.577 122.076 74.27 123.184 75.516 C 124.331 76.792 124.901 78.439 124.901 80.472 Q 124.901 83.619 123.125 85.525 C 121.967 86.788 120.32 87.488 118.607 87.444 L 118.607 87.444 Z  M 118.713 84.973 Q 121.733 84.973 121.735 80.472 C 121.735 79.12 121.495 78.039 121.013 77.257 C 120.548 76.485 119.694 76.034 118.794 76.084 C 117.758 76.084 116.993 76.484 116.493 77.295 C 115.993 78.106 115.744 79.188 115.744 80.526 Q 115.744 82.689 116.542 83.835 C 117.019 84.566 117.841 84.997 118.713 84.973 Z " fill="rgb(85,85,85)"/><path d=" M 138.689 87.166 L 135.536 87.166 L 132.146 80.364 L 129.205 83.659 L 129.205 87.174 L 126.342 87.174 L 126.342 69.236 L 129.205 69.236 L 129.205 80.364 C 129.459 80.034 129.662 79.78 129.808 79.618 L 135.066 73.902 L 138.28 73.902 L 134.287 78.29 L 138.689 87.166 Z " fill="rgb(85,85,85)"/><path d=" M 138.61 84.124 L 141.416 83.584 C 141.844 84.665 142.793 85.206 144.255 85.206 C 146.11 85.206 147.042 84.665 147.042 83.565 C 147.047 83.222 146.884 82.898 146.607 82.697 C 146.308 82.464 145.956 82.307 145.583 82.24 L 143.166 81.783 C 140.486 81.261 139.143 79.955 139.143 77.852 C 139.128 76.72 139.592 75.635 140.422 74.865 Q 141.692 73.635 144.206 73.635 Q 148.402 73.635 149.343 76.719 L 146.677 77.26 Q 146.25 75.765 144.288 75.762 Q 141.895 75.762 141.898 77.26 C 141.898 77.949 142.541 78.431 143.828 78.69 L 146.677 79.282 Q 149.997 79.972 150 83.089 C 150 84.551 149.435 85.646 148.289 86.368 C 147.07 87.113 145.661 87.488 144.234 87.449 C 142.986 87.476 141.751 87.198 140.635 86.638 C 139.63 86.13 138.892 85.214 138.61 84.124 L 138.61 84.124 Z " fill="rgb(85,85,85)"/><path d=" M 8.381 72.018 L 9.733 64.421 C 9.773 64.167 9.602 63.927 9.349 63.881 L 4.432 63.01 C 4.405 63.009 4.381 63.027 4.375 63.053 L 2.993 70.934 L 8.381 72.018 Z " fill="rgb(0,133,117)"/><path d=" M 2.802 72.005 L 0.001 87.979 C -0.002 87.993 0.002 88.007 0.01 88.018 C 0.018 88.029 0.03 88.037 0.044 88.039 L 4.951 88.904 C 5.205 88.942 5.443 88.772 5.491 88.52 L 8.235 72.897 L 2.802 72.005 Z " fill="rgb(0,133,117)"/><path d=" M 25.646 87.942 L 23.388 69.017 L 19.174 69.542 L 19.558 72.578 L 21.45 72.402 L 21.628 73.783 L 19.736 73.978 L 21.507 88.923 L 25.232 88.477 C 25.49 88.446 25.674 88.213 25.646 87.955" fill="rgb(0,133,117)"/><path d=" M 9.606 82.41 L 17.43 82.532 L 17.43 81.499 L 9.606 81.502 L 9.606 82.41 L 9.606 82.41 Z " fill="rgb(0,133,117)"/><path d=" M 17.43 84.422 L 17.43 83.427 L 9.606 83.389 L 9.606 84.33 L 17.43 84.422 L 17.43 84.422 Z " fill="rgb(0,133,117)"/><path d=" M 17.43 88.909 L 17.43 85.381 L 9.606 85.184 L 9.606 88.909 L 17.43 88.909 L 17.43 88.909 Z " fill="rgb(0,133,117)"/><path d=" M 17.43 61.077 L 17.43 80.756 L 9.606 80.756 L 9.693 61.272 L 17.43 61.077 Z " fill="rgb(0,133,117)"/></g></g></svg>