<?xml version="1.0" encoding="utf-8"?>
<!-- Generator: Adobe Illustrator 25.3.1, SVG Export Plug-In . SVG Version: 6.00 Build 0)  -->
<svg version="1.1" id="图层_1" xmlns="http://www.w3.org/2000/svg" xmlns:xlink="http://www.w3.org/1999/xlink" x="0px" y="0px"
	 viewBox="0 0 651.969 119.055" enable-background="new 0 0 651.969 119.055" width="651.969" height="119.055" xml:space="preserve">
<g id="XMLID_25_">
	<g>
		<g>
			<path d="M210.577,69.36L210.577,69.36c-3.376-2.203-7.271-2.203-11.019-1.983c-3.591,0-9.688,1.322-15.334,3.305
				c-3.973,1.396-8.083,2.203-15.197,1.763c-5.725-0.367-7.858-1.176-11.234-2.718c-0.587-0.587-2.349-1.616-3.161-1.763
				c-2.495-1.029-5.5-1.029-10.197-0.587c-6.537,0.587-12.34,1.543-20.12,6.684c-8.152,5.363-15.341,15.941-15.341,19.686
				c0,5.51,4.185,9.476,13.805,9.476h0.215c8.807,0,18.867-4.334,26.94-11.239c5.284-4.775,10.06-10.064,10.647-14.765
				c0.147-2.203-0.225-3.746-0.812-4.775c2.212,0.808,4.707,1.396,9.257,1.616c3.376,0.22,6.312,0,9.248-0.367
				c-2.936,1.543-8.073,5.51-10.794,8.815c-3.151,3.966-4.912,7.713-4.912,11.239c-0.225,5.51,3.885,9.476,13.945,9.476
				c7.858,0,18.936-4.481,24.739-8.815c0.215-0.294,1.84-1.396,1.84-1.469c6.899-5.877,10.637-12.414,10.784-16.748
				C214.1,73.033,212.339,70.535,210.577,69.36z M152.136,73.841L152.136,73.841c-0.656,4.334-5.353,11.46-10.275,16.381
				c-5.509,5.656-12.996,11.019-17.106,11.019h-0.215c-2.133,0-2.936-1.396-2.72-3.379c0.587-3.894,5.069-11.386,11.156-17.335
				c4.922-4.922,9.698-8.815,14.17-11.019c1.84-0.807,3.748-0.807,4.55,0.44C152.655,70.682,152.508,72.665,152.136,73.841z
				 M205.44,73.841L205.44,73.841c-0.812,4.334-5.147,11.46-10.06,16.381c-5.656,5.656-13.142,11.019-17.331,11.019h-0.147
				c-2.202,0-2.936-1.396-2.789-3.379c0.587-3.894,5.363-11.386,11.234-17.335c4.922-4.922,9.62-8.815,14.17-11.019
				c1.761-0.807,3.748-0.807,4.697,0.44C206.027,70.682,206.027,72.665,205.44,73.841z"/>
		</g>
		<g>
			<path d="M374.872,59.296L374.872,59.296c-3.308-0.808-7.643,2.571-10.794,6.685c-3.963,1.396-10.207,1.763-14.972,1.543
				c5.725-6.832,9.463-12.561,15.775-20.053c3.895-4.702,9.257-10.652,13.367-14.178c4.325,0.587,11.596,1.396,17.908,1.396
				c9.473,0,15.931-1.763,16.156-5.95c0.587-4.334-5.509-6.464-12.408-6.464c-7.271,0-15.344,2.35-22.615,5.509
				C369,25.8,360.33,23.449,353.284,21.465c-12.262-3.379-25.032-5.509-33.331-5.509c-24.592-0.368-41.697,11.974-43.674,26.591
				c-1.174,10.431,4.766,20.642,16.372,24.829c1.761,0.587,3.523,0.734,3.738,0.147c0.147-0.588-0.587-0.367-2.564-1.176
				c-12.408-5.288-14.61-15.132-12.996-22.625c3.523-14.545,19.67-19.686,38.175-19.686h0.215c9.619,0,23.202,2.571,31.501,4.114
				c6.234,1.396,14.307,2.938,19.67,3.746c-8.886,5.289-20.11,14.398-28.555,23.433c-4.11,4.554-7.271,8.447-10.06,12.194
				c-3.151,0-8.445-0.147-10.647,0c-5.5,0.44-7.261,1.616-7.408,2.423c-0.225,0.955,1.174,0,5.871-0.22
				c2.349-0.22,6.527-0.22,10.862-0.22c-3.601,4.921-7.124,9.255-12.037,14.618c-11.596,12.781-23.643,19.686-38.615,19.099
				c-5.871-0.22-10.207-2.204-10.207-5.95c0-1.763,0.959-3.158,2.574-4.701c1.761-1.984,2.711-3.527,3.151-6.318
				c0.147-3.966-2.564-7.639-8.073-7.639c-7.271,0-11.449,5.877-11.449,11.753c0.215,9.696,11.234,14.765,24.807,14.765
				c19.895,0,45.514-11.166,62.404-30.117c1.977-1.983,3.376-3.747,4.55-5.289c6.684,0,11.381-0.367,14.972-1.396
				c-1.027,1.176-2.202,3.159-3.151,5.51c-0.812,1.763-1.399,4.921-0.44,4.921c0.587,0,1.615-1.543,3.151-3.159
				c3.376-3.526,6.097-5.656,10.285-9.035C376.848,63.043,378.023,60.104,374.872,59.296z M399.532,24.257L399.532,24.257h0.147
				c6.312,0,10.872,1.543,10.647,4.114c-0.215,2.13-4.55,3.746-9.473,3.746c-3.738,0-10.197-0.807-17.693-2.792
				C387.124,26.755,393.592,24.257,399.532,24.257z"/>
		</g>
		<g>
			<path d="M137.379,33.292L137.379,33.292c4.335,0.587,11.606,1.396,17.918,1.396c9.473,0,15.931-1.763,16.147-5.95
				c0.587-4.334-5.5-6.464-12.408-6.464c-7.261,0-15.334,2.35-22.605,5.509c-2.349-0.587-4.697-1.175-7.124-1.763l0.078-0.22
				c-5.069-1.396-10.128-2.865-14.982-4.187c-12.549-3.379-25.91-6.023-34.426-6.023c-17.766-0.147-31.2,5.583-38.395,14.178
				c-3.376,3.819-5.506,8.153-6.166,12.781c-0.587,5.216,0.587,10.284,3.377,14.692c2.642,4.554,6.9,8.301,12.994,10.504
				c14.755,4.408,28.997,0.073,32.668-9.035c4.038-9.844-4.478-17.483-11.379-20.495c-4.258-1.689-7.782-1.689-7.708-0.807
				c0.147,0.514,2.129-0.22,6.828,1.763c7.194,3.085,12.113,10.064,8.736,18.291c-3.891,9.402-20.188,12.635-29.585,7.933
				c-6.681-3.379-10.425-9.035-11.599-14.691c-0.367-2.425-0.22-4.776,0.22-6.979c3.524-14.545,19.674-19.686,38.174-19.686h0.22
				c9.618,0,23.198,2.571,31.494,4.114c6.309,1.396,14.392,2.938,19.676,3.746c-8.886,5.289-20.117,14.398-28.559,23.433
				c-4.111,4.554-18.5,23.432-23.418,28.795c-11.599,12.781-23.639,19.686-38.541,19.099c-5.947-0.22-10.278-2.204-10.278-5.95
				c0-1.763,1.028-3.158,2.57-4.701c1.761-1.984,2.79-3.527,3.157-6.318c0.22-3.966-2.57-7.639-8.075-7.639
				c-7.268,0-11.379,5.877-11.379,11.753c0.147,9.696,11.159,14.765,24.74,14.765c19.895,0,45.515-11.166,62.399-30.117
				c1.982-1.983,15.563-20.053,21.875-27.546C127.916,42.768,133.269,36.818,137.379,33.292z M158.673,24.257L158.673,24.257h0.147
				c6.312,0,10.862,1.543,10.647,4.114c-0.147,2.13-4.482,3.746-9.404,3.746c-3.738,0-10.275-0.807-17.761-2.792
				C146.265,26.755,152.723,24.257,158.673,24.257z"/>
		</g>
		<g>
			<path d="M633.932,14.855L633.932,14.855c-5.138,0-8.289,1.469-11.009,4.04c-9.101,8.3-15.785,15.793-22.684,23.873
				c-9.835,11.386-18.72,22.258-25.179,31.513l-0.225-0.22c1.028-3.159-0.587-6.684-6.087-6.904
				c-6.684-0.368-13.955,1.983-19.307,4.554c-5.069,2.13-8.807,4.334-12.33,6.904c-1.693,1.029-4.042,2.792-5.656,4.261
				c-0.078,0-0.078,0-0.078,0.073c-3.376,3.085-8.073,6.832-11.812,9.402c-8.67,5.73-15.785,7.493-18.72,7.493
				c-3.161,0-4.697-1.396-4.697-4.334c0-1.395,0.362-3.159,1.174-4.334c4.913-0.955,13.573-3.306,19.307-6.097
				c6.087-2.938,12.545-6.905,12.986-12.195c0.147-3.159-2.202-5.95-8.514-5.95h-0.147c-6.899,0-14.023,2.424-21.509,6.098
				c-3.298,1.836-7.858,4.554-9.982,6.17c-2.349,1.763-4.335,3.305-6.684,5.509c-0.215,0.147-0.294,0.294-0.44,0.441
				c-2.936,2.424-6.234,5.142-9.248,7.198c-8.66,5.73-15.559,7.126-18.055,7.126c-3.161,0-5.001-1.763-4.56-4.554
				c0.587-4.701,5.734-12.194,11.019-17.557c5.5-5.655,10.05-8.814,12.183-8.227c1.987,0.367,0.812,1.983-1.761,6.317
				c-1.987,3.305-1.399,6.685,2.574,6.685c3.151,0,6.674-3.38,7.486-7.493c0.802-4.114-2.202-7.272-8.298-7.493
				c-6.312-0.368-14.532,2.791-20.844,5.877c-3.386,1.616-7.711,4.554-9.845,6.17c-1.615,1.028-3.083,2.13-4.619,3.452
				c-0.078,0.073-0.225,0.22-0.294,0.294c-0.147,0.073-0.294,0.22-0.372,0.294c-0.509,0.441-1.028,0.955-1.615,1.469l0,0
				c-2.055,1.837-4.619,3.967-7.633,6.465c-3.161,2.57-6.537,4.921-8.514,5.729c-1.546,0.808-3.748,1.396-4.697,0.588
				c-0.812-0.588-0.812-2.204,0.215-3.967c1.174-2.571,4.11-6.317,6.684-9.623c3.885-5.143,7.261-8.888,10.647-13.002
				c1.908-2.35,1.174-3.159-4.335-3.159c-6.097,0-7.486,0.809-12.624,6.097c0.587-2.938-0.587-6.464-6.322-6.684
				c-11.371-0.368-23.78,5.877-30.091,11.018c-6.312,4.921-11.381,11.018-11.606,17.336c-0.215,5.95,4.482,7.86,10.647,7.713
				c9.394,0,18.867-7.346,24.005-11.826l0.147,0.22c-1.321,1.763-2.495,4.701-2.124,7.052c0.587,2.938,3.151,4.554,7.848,4.554
				c6.322,0,11.821-3.012,18.72-8.301c3.229-2.498,7.858-6.537,10.579-9.109c0.068-0.073,0.147-0.073,0.215-0.147
				c0.294-0.294,0.812-0.808,1.321-1.249l0,0c0.519-0.514,0.959-0.881,1.253-1.102l0.215,0.221
				c-2.936,3.085-5.138,7.051-5.138,10.798c0,5.289,4.335,8.888,12.996,8.888h0.215c8.083,0,18.28-4.334,25.189-9.108
				c3.67-2.424,7.555-5.73,10.05-8.007c0.147-0.073,0.225-0.147,0.372-0.22c0.587-0.587,2.123-1.983,2.789-2.571l0.147,0.221
				c-3.161,3.526-5.069,7.271-5.069,10.798c-0.215,5.142,2.72,9.255,13.729,8.888c7.711-0.22,15.785-3.159,23.858-8.668
				c4.482-2.938,9.248-6.905,11.596-9.109c0.147-0.147,0.294-0.294,0.519-0.441c0.509-0.44,0.949-0.807,1.027-0.881l0.215,0.147
				c-3.523,3.746-5.94,8.08-6.087,11.239c-0.225,5.95,4.325,7.86,10.647,7.713c9.394,0,18.867-7.346,24.005-11.826l0.147,0.22
				c-1.321,1.763-2.574,4.481-2.133,6.831c0.587,3.012,3.161,4.775,7.858,4.775c6.312,0,11.821-3.012,18.72-8.301
				c3.738-2.938,9.394-7.86,11.821-10.211c1.174-1.175,2.349-2.423,1.761-3.012c-0.587-0.587-1.761,0.588-2.574,1.249
				c-2.349,2.131-5.509,4.921-9.619,8.228c-3.151,2.57-6.527,4.921-8.514,5.729c-1.761,0.808-3.748,1.396-4.697,0.588
				c-0.812-0.588-0.812-2.204,0.215-3.967c1.321-2.718,10.207-14.545,16.744-22.625c11.596-14.397,18.28-22.625,24.739-30.117
				c7.339-8.3,17.174-19.319,22.458-24.461C638.414,15.369,636.281,14.855,633.932,14.855z M507.744,76.632L507.744,76.632
				c5.138-5.51,8.66-7.493,10.647-7.493c1.761,0,2.564,1.176,2.123,2.938c-0.362,2.571-3.523,7.272-8.661,11.018
				c-4.922,3.527-9.982,5.51-13.583,6.097C500.473,85.3,503.78,80.966,507.744,76.632z M400.266,90.368L400.266,90.368
				c-5.284,4.921-12.771,9.256-16.519,9.256c-1.39,0-2.349-0.588-2.564-1.91c-0.225-2.571,3.376-8.08,10.862-15.572
				c7.271-7.126,14.532-12.782,18.505-12.782c2.124,0,3.738,0.955,3.523,3.526C413.849,76.045,406.362,84.859,400.266,90.368z
				 M559.501,90.368L559.501,90.368c-5.294,4.921-12.78,9.256-16.518,9.256c-1.399,0-2.349-0.588-2.574-1.91
				c-0.362-2.571,3.376-8.08,10.862-15.572c7.271-7.126,14.542-12.782,18.28-12.782h0.225c2.124,0,3.738,0.955,3.523,3.526
				C573.074,76.045,565.588,84.859,559.501,90.368z"/>
		</g>
	</g>
</g>
</svg>
