<?xml version="1.0" encoding="UTF-8" standalone="no"?><!-- Generator: Gravit.io --><svg xmlns="http://www.w3.org/2000/svg" xmlns:xlink="http://www.w3.org/1999/xlink" style="isolation:isolate" viewBox="0 0 150 150" width="150pt" height="150pt"><defs><clipPath id="_clipPath_8nYbYSTZOS5H7VsdfIcSZOEQU5a2iYEs"><rect width="150" height="150"/></clipPath></defs><g clip-path="url(#_clipPath_8nYbYSTZOS5H7VsdfIcSZOEQU5a2iYEs)"><path d=" M 92.651 64.308 L 86.166 74.431 L 79.618 64.308 L 75.127 64.308 L 75.127 85.692 L 79.081 85.692 L 79.081 70.635 L 86.135 81.58 L 93.22 70.635 L 93.22 85.692 L 97.174 85.692 L 97.174 64.308 L 92.651 64.308 Z " fill="rgb(0,0,0)"/><path d=" M 146.109 64.308 L 146.109 79.776 L 133.962 64.308 L 129.692 64.308 L 129.692 85.692 L 133.583 85.692 L 133.583 70.16 L 145.73 85.692 L 150 85.692 L 150 64.308 L 146.109 64.308 Z " fill="rgb(0,0,0)"/><path d=" M 64.973 71.236 C 64.973 69.275 63.581 68.136 61.367 68.136 L 54.977 68.136 L 54.977 74.336 L 61.62 74.336 C 63.865 74.336 64.973 73.26 64.973 71.236 Z  M 69.148 71.236 C 69.148 77.372 64.245 78.163 61.303 78.163 L 54.977 78.163 L 54.977 85.692 L 51.023 85.692 L 51.023 64.308 L 61.525 64.308 C 65.036 64.308 69.148 66.175 69.148 71.236 Z " fill="rgb(0,0,0)"/><path d=" M 119.791 85.692 L 124.22 85.692 L 115.489 64.308 L 111.409 64.308 L 102.678 85.723 L 107.107 85.723 L 108.91 80.947 L 117.988 80.947 L 119.791 85.692 Z  M 113.465 69.053 L 116.533 77.119 L 110.396 77.119 L 113.465 69.053 Z " fill="rgb(0,0,0)"/><path d=" M 20.782 68.136 L 12.368 68.136 L 12.368 85.692 L 8.414 85.692 L 8.414 68.136 L 0 68.136 L 0 64.308 L 20.782 64.308 L 20.782 68.136 Z " fill="rgb(0,0,0)"/><path d=" M 34.036 68.041 C 30.051 68.041 26.824 71.078 26.824 75.063 C 26.824 79.049 30.051 82.37 34.036 82.37 C 38.022 82.37 41.248 79.049 41.248 75.063 C 41.248 71.046 38.022 68.041 34.036 68.041 Z  M 34.036 86.166 C 27.868 86.166 22.87 81.168 22.87 75 C 22.87 68.832 27.868 63.834 34.036 63.834 C 40.205 63.834 45.202 68.832 45.202 75 C 45.202 81.168 40.205 86.166 34.036 86.166 Z " fill="rgb(0,0,0)"/></g></svg>