<?xml version="1.0" encoding="utf-8"?>
<!-- Generator: Adobe Illustrator 25.3.1, SVG Export Plug-In . SVG Version: 6.00 Build 0)  -->
<svg version="1.1" id="Layer_1" xmlns="http://www.w3.org/2000/svg" xmlns:xlink="http://www.w3.org/1999/xlink" x="0px" y="0px"
	 viewBox="0 0 300 300" enable-background="new 0 0 300 300" width="300" height="300" xml:space="preserve">
<g>
	<path fill="#171311" d="M73.035,190.892c-3.331,0-6.662,0-9.993,0c-4.759-2.869-9-6.16-10.26-12.026
		c-0.351-1.632-1.124-1.688-2.881-1.26c-4.28,1.043-9.137,1.922-12.615-1.38c-4.338-4.12-7.993-3.226-12.081-0.141
		c-1.186,0.895-2.595,1.491-3.823,2.339c-3.589,2.48-7.273,3.191-11.169,0.756c-3.706-2.316-4.65-5.851-4.261-9.92
		c0.615-6.44,1.326-12.873,1.841-19.321c0.111-1.384,1.309-3.308-1.311-4.047c-3.068-0.865-4.549-3.602-6.396-5.874
		c0-3.658,0-7.315,0-10.973c1.303-0.001,0.843-0.989,1.047-1.706c2.62-9.201,1.898-10.823,12.615-12.529
		c7.699-1.226,15.342-2.815,22.995-4.319c8.157-1.604,12.413,1.385,13.241,9.558c0.161,1.584,0.01,3.103,2.277,2.835
		c5.629-0.666,9.338,4.098,14.022,5.109c4.702,1.016,9.628-3.238,15.02-1.86c2.255,0.576,3.995-0.464,5.502-2.426
		c4.556-5.933,11.623-7.885,18.089-10.667c1.946-0.838,4.448-0.477,6.175,0.978c2.942,2.478,6.365,1.353,8.243-0.268
		c2.447-2.113,5.648-3.106,7.685-5.652c1.666,0,3.331,0,4.997,0c1.332,1.619,2.665,0.676,3.997,0c2.332,0,4.663,0,6.995,0
		c4.217,3.794,10.272,5.737,12.787,11.111c1.472,3.145,3.073,3.145,5.681,2.476c1.764-0.453,3.588-0.692,5.396-0.948
		c6.389-0.906,10.378,1.609,11.756,7.8c1.326,5.961,3.763,12.039-1.743,18.178c2.932-0.325,4.597-0.861,6.133-0.609
		c3.529,0.579,4.927-0.812,5.715-4.193c1.142-4.903,3.771-9.173,7.221-12.891c7.697-8.292,16.552-9.335,25.727-2.733
		c1.827,1.314,2.879,1.304,4.698,0.163c4.476-2.808,9.65-4.828,14.697-3.22c5.109,1.628,9.654,0.727,14.454-0.299
		c3.434-0.734,6.742-0.163,10.235,0.313c4.746,0.647,9.54,0.299,13.699,3.265c0.284,0.202,0.862,0.136,1.253,0.023
		c10.97-3.144,13.195-2.395,19.183,6.5c0,4.323,0,8.645,0,12.968c-3.071,6.295-3.676,13.272-5.463,19.919
		c-2.291,8.521-14.642,14.895-22.796,11.166c-5.992-2.741-12.113-3.247-18.516-2.621c-1.436,0.14-3.231,0.111-4.341-0.623
		c-2.642-1.747-4.493-0.664-6.723,0.761c-6.22,3.973-12.749,5.895-19.597,1.453c-1.627-1.056-2.657-0.359-4,0.389
		c-8.904,4.957-17.348,3.804-24.958-2.588c-1.998-1.678-3.058-1.461-4.959-0.324c-5.026,3.004-10.384,3.48-15.737,0.966
		c-5.277-2.479-10.503-2.005-14.84,1.689c-6.029,5.135-9.806,5.125-16.049-0.151c-0.657-0.555-1.144-1.185-2.087-0.955
		c-6.007,1.47-12.475-0.141-18.281,3.132c-3.135,1.767-6.786,1.627-9.981-0.393c-2.278-1.441-3.808-0.573-5.74,0.829
		c-3.585,2.601-7.502,4.005-11.469,0.532c-1.074-0.94-1.859-1.169-2.748,0.247C87.297,186.275,80.138,188.547,73.035,190.892z
		 M174.424,154.048c-0.782-2.799-0.151-5.814-2.958-7.405c-1.264-0.716-0.712-1.74,0.214-2.344
		c6.326-4.126,3.129-9.655,2.174-14.803c-0.619-3.34-2.749-4.81-6.158-4.129c-3.914,0.781-7.826,1.578-11.719,2.454
		c-1.986,0.446-3.301,0.828-3.4-2.225c-0.139-4.261-7.523-12.774-11.486-12.424c-6.163,0.544-13.628-2.348-17.985,5.042
		c-0.256,0.434-1.151,0.804-1.673,0.723c-4.455-0.691-9.423,4.713-13.471-1.099c-0.2-0.288-1.022-0.415-1.41-0.26
		c-5.651,2.26-11.742,3.994-15.612,9.031c-1.292,1.682-2.314,3.023-4.38,3.47c-7.299,1.58-15.013,0.732-22.069,3.827
		c-1.129,0.495-1.548-0.971-2.216-1.637c-3.118-3.111-6.787-5.771-11.247-4.366c-5.646,1.778-6.561-0.52-5.863-5.233
		c0.072-0.488,0.028-0.996,0.01-1.494c-0.202-5.713-1.811-7.009-7.532-5.982c-7.366,1.323-14.686,2.99-22.099,3.932
		c-5.679,0.722-8.697,3.208-9.117,9.027c-0.175,2.416-0.898,4.811-1.826,7.16c-1.473,3.73,1.133,6.499,5.209,5.753
		c2.586-0.473,3.523-0.003,3.199,2.989c-0.958,8.856-1.768,17.741-2.204,26.636c-0.23,4.7,3.21,6.408,7.426,4.059
		c3.905-2.176,7.817-4.364,11.554-6.809c2.54-1.662,3.986-2.02,6.117,0.985c3.575,5.044,8.988,6.011,14.653,3.449
		c2.068-0.935,4.01-2.147,6.511-3.505c0,2.487-0.158,4.449,0.028,6.377c0.736,7.614,5.568,11.805,13.177,10.843
		c7.877-0.995,14.776-4.04,18.691-11.591c1.522-2.935,2.92-5.933,4.689-9.543c0.478,1.974,0.758,3.094,1.021,4.217
		c1.789,7.648,3.082,8.318,10.108,5.252c3.262-1.423,6.406-4.696,9.944-0.138c0.498,0.642,2.882,0.141,4.259-0.273
		c3.495-1.052,6.927-2.322,10.355-3.583c0.853-0.314,1.515-1.641,2.565-0.73c2.804,2.432,5.664,1.376,8.404,0.123
		c2.46-1.124,3.713-0.763,4.837,1.904c1.596,3.787,4.024,4.542,7.884,1.961c3.794-2.537,8.324-3.951,12.419-6.075
		c3.084-1.599,5.589-2.358,7.827,1.39c1.015,1.7,3.297,1.993,5.374,2.144c5.916,0.429,9.963-2.593,13.072-7.37
		c8.004,12.323,15.134,13.856,27.577,5.973c2.028-1.285,2.6-0.02,3.656,0.89c4.483,3.865,9.36,4.079,14.315,1.188
		c3.374-1.969,6.517-4.332,9.992-6.673c0.927,4.235,3.593,5.264,7.169,4.103c5.082-1.65,9.976,2.41,15.05,0.357
		c0.305-0.124,0.988,0.242,1.272,0.572c5.176,5.999,10.728,0.891,16.089,0.481c1.116-0.085,1.773-1.474,2.035-2.64
		c2.112-9.391,4.979-18.606,6.391-28.161c1.14-7.718-5.618-13.442-12.832-9.411c-2.432,1.359-4.605,1.966-7.04-0.515
		c-1.93-1.967-4.906-1.269-7.514-1.615c-7.523-0.999-14.803-0.744-22.003,1.675c-0.431,0.145-1.093,0.102-1.461-0.138
		c-7.514-4.897-13.598-1.187-19.191,3.52c-2.081,1.751-2.515,0.671-3.708-0.591c-8.019-8.482-16.879-7.874-23.815,1.592
		c-3.311,4.519-5.091,9.642-6.045,15.13c-0.194,1.114,0.292,4.063-1.994,2.837C184.166,149.404,179.45,151.331,174.424,154.048z"/>
	<path fill="#171311" d="M135.992,108.097c-1.332,0.676-2.665,1.619-3.997,0C133.327,108.097,134.659,108.097,135.992,108.097z"/>
	<path fill="#F2CB14" d="M174.424,154.048c5.026-2.717,9.742-4.644,15.235-1.697c2.286,1.226,1.8-1.723,1.994-2.837
		c0.954-5.487,2.734-10.611,6.045-15.13c6.936-9.466,15.796-10.074,23.815-1.592c1.193,1.262,1.627,2.342,3.708,0.591
		c5.593-4.707,11.677-8.416,19.191-3.52c0.368,0.24,1.03,0.283,1.461,0.138c7.2-2.418,14.479-2.673,22.003-1.675
		c2.608,0.346,5.584-0.352,7.514,1.615c2.435,2.481,4.609,1.873,7.04,0.515c7.214-4.031,13.973,1.693,12.832,9.411
		c-1.412,9.556-4.279,18.771-6.391,28.161c-0.262,1.166-0.919,2.555-2.035,2.64c-5.361,0.41-10.912,5.518-16.089-0.481
		c-0.284-0.33-0.967-0.696-1.272-0.572c-5.074,2.053-9.968-2.006-15.05-0.357c-3.576,1.161-6.242,0.132-7.169-4.103
		c-3.475,2.341-6.617,4.704-9.992,6.673c-4.955,2.891-9.832,2.677-14.315-1.188c-1.055-0.91-1.628-2.175-3.656-0.89
		c-12.443,7.883-19.573,6.35-27.577-5.973c-3.109,4.777-7.157,7.799-13.072,7.37c-2.077-0.151-4.359-0.444-5.374-2.144
		c-2.238-3.748-4.743-2.989-7.827-1.39c-4.094,2.123-8.624,3.538-12.419,6.075c-3.861,2.581-6.288,1.826-7.884-1.961
		c-1.124-2.667-2.377-3.028-4.837-1.904c-2.74,1.253-5.6,2.309-8.404-0.123c-1.05-0.911-1.712,0.416-2.565,0.73
		c-3.428,1.261-6.86,2.531-10.355,3.583c-1.377,0.415-3.761,0.915-4.259,0.273c-3.538-4.558-6.682-1.286-9.944,0.138
		c-7.026,3.066-8.318,2.396-10.108-5.252c-0.263-1.123-0.542-2.243-1.021-4.217c-1.769,3.61-3.167,6.608-4.689,9.543
		c-3.915,7.551-10.814,10.596-18.691,11.591c-7.609,0.961-12.442-3.229-13.177-10.843c-0.186-1.928-0.028-3.89-0.028-6.377
		c-2.501,1.358-4.444,2.57-6.511,3.505c-5.665,2.562-11.077,1.596-14.653-3.449c-2.13-3.005-3.577-2.647-6.117-0.985
		c-3.737,2.445-7.649,4.633-11.554,6.809c-4.215,2.349-7.656,0.64-7.426-4.059c0.436-8.895,1.246-17.78,2.204-26.636
		c0.324-2.993-0.614-3.462-3.199-2.989c-4.076,0.746-6.682-2.024-5.209-5.753c0.928-2.349,1.651-4.744,1.826-7.16
		c0.421-5.819,3.438-8.304,9.117-9.027c7.413-0.943,14.733-2.61,22.099-3.932c5.721-1.027,7.33,0.269,7.532,5.982
		c0.018,0.498,0.062,1.006-0.01,1.494c-0.698,4.713,0.217,7.011,5.863,5.233c4.46-1.404,8.129,1.255,11.247,4.366
		c0.668,0.666,1.087,2.132,2.216,1.637c7.056-3.096,14.77-2.248,22.069-3.827c2.066-0.447,3.088-1.788,4.38-3.47
		c3.87-5.037,9.961-6.771,15.612-9.031c0.389-0.155,1.21-0.028,1.41,0.26c4.048,5.813,9.016,0.408,13.471,1.099
		c0.523,0.081,1.417-0.288,1.673-0.723c4.357-7.39,11.822-4.498,17.985-5.042c3.962-0.35,11.347,8.164,11.486,12.424
		c0.1,3.054,1.414,2.672,3.4,2.225c3.894-0.875,7.805-1.672,11.719-2.454c3.409-0.68,5.539,0.789,6.158,4.129
		c0.954,5.148,4.152,10.676-2.174,14.803c-0.926,0.604-1.479,1.627-0.214,2.344C174.272,148.234,173.642,151.249,174.424,154.048z
		 M91.082,133.119c-2.77,0.678-5.851,0.581-7.872,3.133c-0.55,4.827-1.392,9.587-2.821,14.25c-0.581,1.894-1.117,3.746-2.488,5.234
		c-0.818,0.888-1.762,1.604-3.046,1.141c-1.303-0.469-0.736-1.669-0.787-2.555c-0.303-5.256,1.021-10.274,2.442-15.256
		c0.323-1.132,0.941-2.202-0.449-2.924c-2.218-1.153-10.178,2.326-10.704,4.822c-0.871,4.13-1.729,8.294-2.11,12.488
		c-0.549,6.035,4.988,11.217,10.772,10.451c6.038-0.8,6.04-0.799,4.098,5.468c-0.332,1.071-0.747,2.119-1.025,3.203
		c-0.445,1.734-1.373,3.358-3.207,3.178c-2.109-0.207-1.997-2.266-2.029-3.915c-0.028-1.468-0.006-2.937-0.006-4.735
		c-1.891,0.581-3.483,0.913-4.94,1.551c-3.135,1.373-6.821,2.45-5.79,7.164c0.922,4.217,4.958,6.963,9.772,6.018
		c5.303-1.04,10.092-3.091,13.181-8.178c6.232-10.263,7.346-21.789,8.857-33.253c0.674-0.484,1.347-0.968,2.021-1.451
		c0.393,4.912,0.399,9.895,1.287,14.716c0.909,4.937,1.028,10.033,2.783,14.828c0.373,1.02-0.132,2.231,1.727,2.312
		c4.454,0.194,9.703-4.743,10.281-9.282c0.618-4.861,0.751-9.911,3.162-14.65c1.754,1.672,1.854,3.352,1.834,5.168
		c-0.051,4.648,0.042,9.298,0.062,13.947c0.006,1.522,0.011,3.071,1.724,3.745c1.743,0.686,8.653-3.547,9.104-5.444
		c1.489-6.247,1.366-12.837,4.063-18.829c1.677-3.724,0.631-8.083,2.757-11.75c0.73-1.26,1.282-3.462,2.881-2.217
		c4.464,3.476,6.796-0.629,9.719-2.334c1.705-0.995,2.095-2.523,0.965-4.658c-1.045-1.974-2.254-2.459-4.268-2.506
		c-1.906-0.044-6.98,3.997-4.327-2.936c0.07-0.183-0.451-0.749-0.801-0.911c-3.86-1.787-10.467,1.097-11.921,5.185
		c-1.5,4.216-2.982,8.439-4.521,12.796c-2.928-2.536-1.69-5.767-1.535-8.525c0.229-4.088-2.185-4.148-4.617-3.28
		c-2.079,0.742-4.199,1.723-4.437,4.994c-0.326,4.471-1.74,8.863-2.688,13.289c-2.079,0.075-1.622-1.52-1.782-2.703
		c-0.709-5.233,0.063-10.431,0.363-15.641c0.051-0.888,0.802-2.075-0.503-2.548c-1.106-0.401-1.683,0.703-2.363,1.361
		c-3.364,2.058-7.561,2.915-9.714,6.718c0.488,2.546-2.329,2.027-3.136,3.372L91.082,133.119z M135.902,156.196
		c-1.413,1.93-0.677,4.148-0.839,6.245c-0.15,1.944-0.196,3.575,2.656,3.493c2.548-0.074,3.963-0.669,4.294-3.523
		c0.935-8.057,1.505-16.178,3.784-24.038c0.707-2.439-0.317-3.588-3.022-3.416c-2.742,0.174-4.62,2.072-6.969,2.995
		C132.618,144.051,133.112,150.13,135.902,156.196z M60.111,154.497c2.486-3.037,2.531-12.048,0.077-15.596
		c-1.054-4.396-4.192-7.312-8.341-6.647c-9.199,1.474-14.219,7.791-14.716,17.538c-2.34,3.422-2.797,6.874-0.162,10.374
		c0.334,4.735,4.026,9.565,7.327,9.586C51.175,169.794,59.553,161.714,60.111,154.497z M246.05,140.02
		c-2.164-8.063-6.608-10.035-13.605-6.036c-8.374,4.786-13.58,18.782-10.37,27.878c1.555,4.406,6.994,9.198,9.581,7.823
		c5.614-2.983,12.012-5.41,13.699-12.714C248.455,151.438,247.236,145.728,246.05,140.02z M28.892,141.737
		c-0.836-6.683,1.092-11.466,8.57-12.459c0.479-0.064,1.049-0.161,1.386-0.457c2.55-2.247,1.186-5.231,0.99-7.755
		c-0.151-1.943-2.556-0.942-3.797-0.725c-6.427,1.125-12.806,2.519-19.22,3.729c-2.286,0.431-5.055-0.287-5.767,3.099
		c-0.527,2.506-1.385,4.954-1.759,7.478c-0.214,1.444,1.213,1.343,2.134,1.103c1.253-0.328,2.418-0.982,3.663-1.355
		c3.145-0.942,4.195-0.687,3.542,3.395c-1.516,9.49-3.348,18.985-3.5,28.649c-0.018,1.134-0.886,2.804,0.963,3.358
		c1.314,0.394,2.467-0.082,3.607-1.029c2.396-1.992,5.036-3.641,8.279-3.934c1.524-0.216,1.823-1.452,1.644-2.544
		C28.501,155.464,29.593,148.569,28.892,141.737z M250.042,152.886c-0.949,3.788,1.058,7.281,1.104,10.991
		c0.029,2.392,1.584,1.937,3.048,1.113c3.285,0.329,4.869-0.801,4.667-4.443c-0.248-4.463,0.063-8.955,0.043-13.434
		c-0.011-2.411,0.694-4.248,2.685-5.864c0.907-0.735,1.476-1.888,2.699-1.27c1.246,0.63,1.861,1.859,1.518,3.364
		c-1.309,5.749-1.639,11.609-1.86,17.469c-0.069,1.835-0.691,5.082,1.777,4.721c1.997-0.292,5.987,0.561,6.29-3.852
		c0.331-4.825,1.385-9.603,1.688-14.428c0.166-2.64,1.134-4.347,3.362-5.477c1.79-0.908,2.693-0.979,2.199,1.658
		c-1.255,6.7-2.273,13.446-3.263,20.192c-0.261,1.778-2.583,4.837,0.979,4.982c2.573,0.104,6.634,0.022,7.635-3.592
		c2.245-8.109,4.167-16.314,5.997-24.529c1.107-4.968-1.598-7.068-6.556-5.457c-1.864,0.606-3.655,1.177-5.278,2.427
		c-1.738,1.339-3.246,2.242-4.375-1.284c-1.116-3.483-4.559-3.844-7.76-2.329c-1.43,0.676-2.729,1.77-3.861,2.901
		c-1.804,1.802-2.671,0.845-2.84-0.982c-0.185-1.994,0.132-4.812-2.835-3.407c-2.855,1.352-8.471-0.984-8.148,5.292
		C249.218,142.735,250.419,147.754,250.042,152.886z M168.316,150.844c-2.043,1.091-4.137,1.944-5.909,3.239
		c-1.403,1.025-3.101,1.49-4.017,0.495c-1.078-1.17,0.423-2.818,1.199-3.76c3.118-3.783,6.425-7.425,9.851-10.936
		c2.849-2.919,0.273-5.464-0.289-8.107c-0.557-2.617-3.131-2.008-4.482-1.585c-4.064,1.272-8.249,2.087-12.275,3.361
		c-3.235,1.024-3.92,4.406-3.299,7.405c0.727,3.508,3.254,1.235,5.162,1.15c2.153-0.096,4.134-2.099,6.705-0.558
		c-3.278,3.683-6.229,7.454-9.653,10.735c-4.892,4.688-5.88,9.751-3.345,16.009c0.983,2.427,2.258,2.184,3.547,1.24
		c4.132-3.024,8.789-4.914,13.622-6.186c5.036-1.326,5.185-4.778,4.626-8.728C169.589,153.408,168.882,152.274,168.316,150.844z
		 M214.306,156.16c-0.495,0.739-0.922,1.423-1.396,2.073c-1.371,1.878-2.149,4.618-5.428,3.763
		c-3.271-0.852-3.477-3.529-3.675-6.184c-0.344-4.626,0.169-9.113,2.261-13.335c2.005-4.046,4.033-4.518,6.931-1.02
		c2.04,2.462,3.391,0.764,4.935-0.123c1.828-1.051,2.168-2.402,0.99-4.411c-3.278-5.59-11.37-6.839-15.995-2.194
		c-5.502,5.525-7.126,12.707-7.867,20.063c-0.514,5.109,1.079,9.652,5.289,13.061c4.668,3.78,9.092,3.341,14.186-0.093
		c5.568-3.754,3.403-7.147,0.615-10.949C215.058,156.682,214.892,156.605,214.306,156.16z M183.96,155.966
		c-5.14-0.008-9.082,3.221-9.054,7.141c0.025,3.472,3.142,3.213,4.939,3.616c3.046,0.684,7.876-4.137,7.951-7.102
		C187.867,156.801,186.526,155.703,183.96,155.966z M208.322,154.953c2.483-2.138,3.824-4.903,7.581-4.137
		c1.91,0.389,2.21-1.104,2.006-2.49c-0.322-2.196-1.631-0.567-2.551-0.555c-0.962,0.013-2.211,0.239-2.843-0.254
		c-3.313-2.588-3.315,0.088-3.636,2.174C208.612,151.432,208.502,153.198,208.322,154.953z"/>
	<path fill="#251183" d="M94.181,129.794c2.153-3.802,6.351-4.659,9.715-6.718c2.035,0.594,1.422,2.086,1.388,3.568
		c-0.114,4.93-0.241,9.876,0.035,14.793c0.167,2.989,0.659,3.035,2.862,1.17c0.948-4.426,2.362-8.818,2.688-13.289
		c0.238-3.272,2.358-4.252,4.437-4.994c2.432-0.868,4.847-0.808,4.617,3.28c-0.155,2.758-1.393,5.988,1.535,8.525
		c1.538-4.357,3.02-8.58,4.521-12.796c1.455-4.088,8.061-6.972,11.921-5.185c0.35,0.162,0.871,0.728,0.801,0.911
		c-2.653,6.933,2.421,2.892,4.327,2.936c2.014,0.047,3.223,0.532,4.268,2.506c1.13,2.136,0.74,3.663-0.965,4.658
		c-2.923,1.705-5.254,5.809-9.719,2.334c-1.599-1.245-2.151,0.957-2.881,2.217c-2.126,3.667-1.08,8.026-2.757,11.75
		c-2.698,5.992-2.575,12.582-4.063,18.829c-0.452,1.897-7.361,6.129-9.104,5.444c-1.713-0.674-1.717-2.223-1.724-3.745
		c-0.02-4.649-0.113-9.299-0.062-13.947c0.02-1.816-0.08-3.496-1.834-5.168c-2.411,4.739-2.544,9.789-3.162,14.65
		c-0.578,4.54-5.827,9.476-10.281,9.282c-1.859-0.081-1.353-1.291-1.727-2.312c-1.755-4.795-1.874-9.891-2.783-14.828
		c-0.887-4.821-0.894-9.804-1.287-14.716C94.732,135.897,96.76,132.653,94.181,129.794z"/>
	<path fill="#251183" d="M250.042,152.886c0.377-5.131-0.824-10.151-1.085-15.237c-0.323-6.276,5.294-3.94,8.148-5.292
		c2.967-1.405,2.65,1.413,2.835,3.407c0.169,1.827,1.036,2.784,2.84,0.982c1.132-1.131,2.431-2.224,3.861-2.901
		c3.201-1.514,6.644-1.153,7.76,2.329c1.13,3.526,2.638,2.623,4.375,1.284c1.623-1.25,3.414-1.821,5.278-2.427
		c4.958-1.611,7.663,0.489,6.556,5.457c-1.831,8.215-3.753,16.419-5.997,24.529c-1,3.614-5.061,3.696-7.635,3.592
		c-3.562-0.144-1.24-3.204-0.979-4.982c0.99-6.746,2.008-13.492,3.263-20.192c0.494-2.637-0.41-2.565-2.199-1.658
		c-2.228,1.13-3.196,2.836-3.362,5.477c-0.304,4.826-1.357,9.603-1.688,14.428c-0.303,4.413-4.293,3.56-6.29,3.852
		c-2.468,0.361-1.846-2.886-1.777-4.721c0.221-5.86,0.551-11.72,1.86-17.469c0.343-1.505-0.273-2.735-1.518-3.364
		c-1.223-0.618-1.792,0.535-2.699,1.27c-1.992,1.615-2.696,3.453-2.685,5.864c0.02,4.479-0.291,8.971-0.043,13.434
		c0.202,3.642-1.382,4.772-4.669,4.442c-2.445-0.916-1.784-3.126-2.22-4.967C251.405,157.632,252.99,154.624,250.042,152.886z"/>
	<path fill="#251183" d="M92.928,140.403c-1.511,11.463-2.625,22.99-8.857,33.253c-3.089,5.087-7.878,7.137-13.181,8.178
		c-4.814,0.945-8.85-1.801-9.772-6.018c-1.03-4.714,2.656-5.792,5.79-7.164c1.457-0.638,3.049-0.97,4.94-1.551
		c0,1.798-0.022,3.267,0.006,4.735c0.032,1.649-0.08,3.708,2.029,3.915c1.834,0.18,2.762-1.444,3.207-3.178
		c0.279-1.084,0.694-2.132,1.025-3.203c1.942-6.267,1.94-6.268-4.098-5.468c-5.784,0.766-11.321-4.416-10.772-10.451
		c0.381-4.193,1.24-8.358,2.11-12.488c0.526-2.496,8.486-5.975,10.704-4.822c1.39,0.723,0.772,1.792,0.449,2.924
		c-1.421,4.983-2.745,10-2.442,15.256c0.051,0.886-0.516,2.086,0.787,2.555c1.285,0.463,2.228-0.253,3.046-1.141
		c1.37-1.487,1.907-3.34,2.488-5.234c1.43-4.663,2.271-9.423,2.821-14.25c2.727-0.786,5.742-0.852,7.872-3.134
		c0,0-0.037,0.048-0.037,0.049C94.809,134.766,91.706,138.145,92.928,140.403z"/>
	<path fill="#251183" d="M27.982,164.834c-3.243,0.293-5.883,1.942-8.279,3.934c-1.14,0.947-2.293,1.423-3.607,1.029
		c-1.849-0.554-0.98-2.224-0.963-3.358c0.152-9.665,1.983-19.159,3.5-28.649c0.652-4.082-0.397-4.336-3.542-3.395
		c-1.245,0.373-2.41,1.027-3.663,1.355c-0.921,0.241-2.348,0.341-2.134-1.103c0.375-2.524,1.232-4.971,1.759-7.478
		c0.712-3.385,3.481-2.667,5.767-3.099c6.413-1.21,12.792-2.604,19.22-3.729c1.241-0.217,3.646-1.219,3.797,0.725
		c0.196,2.524,1.56,5.508-0.99,7.755c-0.337,0.297-0.907,0.394-1.386,0.457c-7.478,0.993-9.406,5.776-8.57,12.461
		C26.975,149.375,28.608,157.149,27.982,164.834z"/>
	<path fill="#251183" d="M245.355,156.971c-1.688,7.304-8.085,9.731-13.699,12.714c-2.587,1.375-8.026-3.417-9.581-7.823
		c-3.21-9.096,1.996-23.093,10.37-27.878c6.997-3.999,11.441-2.028,13.605,6.036C245.96,145.676,246.592,151.362,245.355,156.971z
		 M237.944,145.052c0-1.16,0.069-2.325-0.021-3.478c-0.081-1.035,0.453-2.474-1.424-2.584c-1.403-0.083-2.794,0.029-3.37,1.493
		c-2.275,5.788-4.073,11.676-3.258,18.033c0.24,1.871,1.411,3.23,3.053,3.371c1.547,0.134,2.669-1.441,2.921-2.888
		C236.651,154.369,238.234,149.846,237.944,145.052z"/>
	<path fill="#251183" d="M37.131,149.791c0.497-9.747,5.517-16.064,14.716-17.538c4.149-0.665,7.287,2.251,8.341,6.648
		c0.582,5.202,0.927,10.402-0.077,15.596c-0.558,7.217-8.936,15.297-15.815,15.253c-3.301-0.021-6.993-4.851-7.327-9.586
		C37.023,156.706,37.077,153.249,37.131,149.791z M52.15,147.316c0-2.731,0.097-4.068-0.031-5.383
		c-0.1-1.019,0.628-2.526-1.081-2.858c-1.595-0.31-3.415,0.618-3.772,1.7c-1.873,5.678-3.886,11.434-2.991,17.551
		c0.205,1.398,0.702,3.61,2.852,3.458c1.789-0.126,2.52-1.618,3.039-3.396C51.359,154.293,52.23,150.191,52.15,147.316z"/>
	<path fill="#251183" d="M168.316,150.844c0.565,1.43,1.273,2.564,1.444,3.774c0.559,3.95,0.41,7.402-4.626,8.728
		c-4.833,1.272-9.491,3.162-13.622,6.186c-1.289,0.944-2.564,1.187-3.547-1.24c-2.535-6.258-1.547-11.321,3.345-16.009
		c3.423-3.281,6.375-7.052,9.653-10.735c-2.571-1.541-4.552,0.462-6.705,0.558c-1.908,0.085-4.434,2.358-5.162-1.15
		c-0.622-2.999,0.064-6.381,3.299-7.405c4.026-1.274,8.211-2.089,12.275-3.361c1.351-0.423,3.925-1.032,4.482,1.585
		c0.562,2.643,3.138,5.188,0.289,8.107c-3.426,3.51-6.733,7.153-9.851,10.936c-0.776,0.942-2.277,2.59-1.199,3.76
		c0.917,0.995,2.614,0.53,4.017-0.495C164.179,152.788,166.274,151.934,168.316,150.844z"/>
	<path fill="#251183" d="M214.306,156.16c0.586,0.446,0.752,0.522,0.846,0.65c2.788,3.802,4.953,7.195-0.615,10.949
		c-5.094,3.434-9.518,3.872-14.186,0.093c-4.21-3.409-5.803-7.952-5.289-13.061c0.741-7.357,2.365-14.538,7.867-20.063
		c4.625-4.645,12.717-3.396,15.995,2.194c1.178,2.009,0.837,3.361-0.99,4.411c-1.544,0.887-2.895,2.585-4.935,0.123
		c-2.898-3.498-4.926-3.026-6.931,1.02c-2.092,4.222-2.605,8.709-2.261,13.335c0.198,2.655,0.403,5.332,3.675,6.184
		c3.279,0.854,4.058-1.885,5.428-3.763C213.384,157.583,213.81,156.899,214.306,156.16z"/>
	<path fill="#251183" d="M135.805,137.953c2.35-0.923,4.227-2.821,6.969-2.995c2.705-0.171,3.73,0.977,3.022,3.416
		c-2.279,7.86-2.849,15.98-3.784,24.038c-0.331,2.854-1.746,3.45-4.294,3.523c-2.853,0.082-2.807-1.549-2.656-3.493
		c0.162-2.098-0.574-4.315,0.839-6.246C135.869,150.114,135.837,144.033,135.805,137.953z"/>
	<path fill="#251183" d="M183.96,155.966c2.566-0.263,3.907,0.835,3.836,3.656c-0.075,2.964-4.904,7.785-7.951,7.102
		c-1.798-0.403-4.915-0.144-4.939-3.616C174.878,159.187,178.82,155.958,183.96,155.966z"/>
	<path fill="#171311" d="M208.322,154.953c0.18-1.755,0.29-3.521,0.558-5.263c0.321-2.086,0.323-4.762,3.636-2.174
		c0.632,0.494,1.88,0.267,2.843,0.254c0.92-0.012,2.228-1.641,2.551,0.555c0.203,1.386-0.096,2.879-2.006,2.49
		C212.145,150.05,210.804,152.815,208.322,154.953z"/>
	<path fill="#F2CB14" d="M108.181,142.608c-2.204,1.865-2.695,1.819-2.862-1.17c-0.275-4.917-0.149-9.863-0.035-14.793
		c0.034-1.482,0.647-2.974-1.388-3.568c0.68-0.658,1.257-1.762,2.363-1.361c1.305,0.474,0.554,1.66,0.503,2.548
		c-0.3,5.21-1.072,10.408-0.363,15.641C106.559,141.089,106.102,142.683,108.181,142.608z"/>
	<path fill="#F2CB14" d="M135.805,137.953c0.032,6.081,0.065,12.162,0.097,18.243C133.112,150.13,132.618,144.051,135.805,137.953z"
		/>
	<path fill="#F2CB14" d="M27.982,164.834c0.625-7.685-1.007-15.459,0.909-23.095c0.701,6.83-0.39,13.725,0.734,20.551
		C29.806,163.382,29.507,164.617,27.982,164.834z"/>
	<path fill="#251183" d="M250.042,152.886c2.948,1.739,1.363,4.746,1.929,7.137c0.436,1.841-0.224,4.051,2.22,4.967
		c-1.462,0.824-3.017,1.279-3.046-1.113C251.1,160.167,249.093,156.673,250.042,152.886z"/>
	<path fill="#F2CB14" d="M60.111,154.497c1.004-5.194,0.659-10.394,0.077-15.596C62.642,142.449,62.597,151.46,60.111,154.497z"/>
	<path fill="#F2CB14" d="M92.928,140.403c-1.222-2.258,1.881-5.637-1.883-7.236c0.807-1.345,3.624-0.827,3.136-3.373
		c2.578,2.859,0.55,6.102,0.768,9.158C94.275,139.436,93.602,139.919,92.928,140.403z"/>
	<path fill="#251183" d="M245.355,156.971c1.237-5.609,0.605-11.295,0.695-16.951C247.236,145.728,248.455,151.438,245.355,156.971z
		"/>
	<path fill="#F2CB14" d="M37.131,149.791c-0.054,3.458-0.108,6.915-0.162,10.373C34.334,156.665,34.791,153.213,37.131,149.791z"/>
	<path fill="#F2CB14" d="M91.082,133.119c-2.13,2.281-5.145,2.347-7.872,3.134C85.232,133.699,88.312,133.797,91.082,133.119z"/>
	<path fill="#F2CB14" d="M237.938,145.05c0.296,4.796-1.287,9.319-2.092,13.95c-0.252,1.447-1.374,3.022-2.921,2.888
		c-1.642-0.142-2.813-1.5-3.053-3.371c-0.815-6.357,0.983-12.245,3.258-18.033c0.576-1.464,1.967-1.576,3.37-1.493
		c1.877,0.111,1.343,1.549,1.424,2.584C238.013,142.727,237.944,143.893,237.938,145.05z"/>
	<path fill="#F2CB14" d="M52.15,147.316c0.08,2.875-0.79,6.977-1.985,11.071c-0.519,1.778-1.25,3.27-3.039,3.396
		c-2.15,0.152-2.647-2.06-2.852-3.458c-0.895-6.117,1.119-11.873,2.991-17.551c0.357-1.082,2.176-2.01,3.772-1.7
		c1.709,0.332,0.982,1.839,1.081,2.858C52.247,143.248,52.15,144.585,52.15,147.316z"/>
</g>
</svg>
