<?xml version="1.0" encoding="utf-8"?>
<!-- Generator: Adobe Illustrator 24.0.1, SVG Export Plug-In . SVG Version: 6.00 Build 0)  -->
<svg version="1.1" id="Layer_1" xmlns="http://www.w3.org/2000/svg" xmlns:xlink="http://www.w3.org/1999/xlink" x="0px" y="0px"
	 viewBox="0 0 300 300" style="enable-background:new 0 0 300 300;" xml:space="preserve">
<style type="text/css">
	.st0{fill:#FEFEFE;}
	.st1{fill:#019BFD;}
	.st2{fill:#029CFD;}
	.st3{fill:#FAFDFE;}
	.st4{fill:#F3FBFE;}
	.st5{fill:#EAF9FD;}
	.st6{fill:#DDF3FC;}
	.st7{fill:#DEF3FC;}
	.st8{fill:#F5FBFC;}
	.st9{fill:#DEF3FD;}
	.st10{fill:#DDF4FB;}
	.st11{fill:#99DEFB;}
	.st12{fill:#DEF4FC;}
	.st13{fill:#DEF5FC;}
	.st14{fill:#019CFD;}
	.st15{fill:#FD8C22;}
	.st16{fill:#FD8C26;}
	.st17{fill:#FD8510;}
	.st18{fill:#FDF0E4;}
	.st19{fill:#FD881E;}
	.st20{fill:#FDEEE1;}
	.st21{fill:#FD8208;}
	.st22{fill:#FD8F29;}
	.st23{fill:#FC8410;}
	.st24{fill:#FD7D09;}
	.st25{fill:#FE8310;}
	.st26{fill:#FC8D27;}
	.st27{fill:#FC8008;}
	.st28{fill:#FD8A1F;}
	.st29{fill:#FC7702;}
	.st30{fill:#FD8008;}
	.st31{fill:#FD8D23;}
	.st32{fill:#FD7C03;}
	.st33{fill:#FC8B1E;}
	.st34{fill:#FD8B23;}
	.st35{fill:#FC7802;}
	.st36{fill:#FD9B45;}
	.st37{fill:#FD8415;}
	.st38{fill:#FC8A1B;}
	.st39{fill:#FC8A1C;}
	.st40{fill:#0197FB;}
	.st41{fill:#FC8515;}
	.st42{fill:#FC840E;}
	.st43{fill:#FD8918;}
	.st44{fill:#FC902C;}
	.st45{fill:#FD7F04;}
	.st46{fill:#FE7201;}
	.st47{fill:#FDECDE;}
	.st48{fill:#FD7D04;}
	.st49{fill:#FDEBDC;}
	.st50{fill:#FB902B;}
	.st51{fill:#FD983F;}
	.st52{fill:#0196FD;}
	.st53{fill:#0197FC;}
	.st54{fill:#FD881C;}
	.st55{fill:#FC8D21;}
	.st56{fill:#FD8820;}
	.st57{fill:#FC8A21;}
	.st58{fill:#FC871A;}
	.st59{fill:#FE8820;}
	.st60{fill:#FC7502;}
	.st61{fill:#FD963E;}
	.st62{fill:#FD8E2D;}
	.st63{fill:#FC9432;}
	.st64{fill:#FC9637;}
	.st65{fill:#FD7602;}
	.st66{fill:#FC8820;}
	.st67{fill:#FD9232;}
	.st68{fill:#0492FE;}
	.st69{fill:#FD8110;}
	.st70{fill:#FC912B;}
	.st71{fill:#FCF2E7;}
	.st72{fill:#FD8B26;}
	.st73{fill:#FEAE6C;}
	.st74{fill:#FC8D26;}
	.st75{fill:#FC810A;}
	.st76{fill:#FD8A1D;}
	.st77{fill:#FB8C1F;}
	.st78{fill:#FD7702;}
	.st79{fill:#FB7904;}
	.st80{fill:#FEB783;}
	.st81{fill:#FD8E25;}
	.st82{fill:#FD8D21;}
	.st83{fill:#FE8E2A;}
	.st84{fill:#FD8C1B;}
	.st85{fill:#EAF8FD;}
	.st86{fill:#F3FAFC;}
	.st87{fill:#0192FD;}
	.st88{fill:#F3FCFD;}
	.st89{fill:#E7F7FC;}
	.st90{fill:#F2FBFE;}
	.st91{fill:#D4F1FC;}
	.st92{fill:#0096FD;}
	.st93{fill:#D5F1FB;}
	.st94{fill:#FCFAF7;}
	.st95{fill:#FEF2E9;}
	.st96{fill:#FDE1C9;}
	.st97{fill:#FCE1CC;}
	.st98{fill:#FDBA80;}
	.st99{fill:#FDEADA;}
	.st100{fill:#FFFFFF;}
</style>
<g>
	<g>
		<path class="st0" d="M291.8,128.64c8.13,0,8.13,0,8.13,7.92c0,10.07-0.12,20.15,0.08,30.22c0.05,2.8-0.37,3.65-3.57,3.63
			c-27.24-0.17-54.48-0.1-81.72-0.1c-70.04,0-140.09-0.04-210.13,0.11c-4.01,0.01-4.65-1.1-4.57-4.66
			c0.25-11.39,0.19-22.79,0.02-34.18c-0.04-2.58,0.72-3.03,3.16-2.99c10.15,0.14,20.3,0.06,30.45,0.06
			c-0.14,2.6-2.53,2.28-4.08,2.79c-7.57,2.48-14.69,5.84-21.24,10.29c-5.38,3.64-5.59,6.95-0.76,11.07
			c5.74,4.89,11.92,9.23,18.56,12.84c6.8,3.69,10.94,1.63,12.36-5.76c0.75-3.89,1.41-7.81,1.76-11.73
			c0.62-6.91,1.49-14.02-4.57-19.5c3.73,0,7.45,0,11.18,0c1.14,3.82,3.1,7.24,5.18,10.64c1.55,2.52,3.07,5.1,1.71,8.33
			c-1.11,2.64,0.71,2.7,2.63,2.37c0.67-0.12,1.4-0.43,1.69-1c3.22-6.23,7.88-11.84,8.69-19.11c-0.05-0.47,0.09-0.88,0.42-1.23
			c3.05,0,6.1,0,9.15,0c-0.57,4.3-3.69,7.58-4.86,11.66c-0.63,2.21-1.79,4.26-2.55,6.44c-0.36,1.04-1.16,2.32,0.33,3.03
			c1.37,0.65,2.68,0.01,3.59-1.08c1.52-1.84,1.83-4.21,2.73-6.33c0.69-1.62,1.04-3.95,3.36-3.73c1.9,0.18,1.99,2.4,2.63,3.86
			c0.39,0.91,0.64,1.87,1,2.79c1.91,4.92,2.88,5.39,8.35,4.08c0.45-0.21,0.93-0.29,1.42-0.29c4.21,1.41,8.57,1.11,12.9,1.03
			c2.35-0.04,5.08-0.02,5.84-2.73c0.83-2.96,1.44-6.2-2.14-8.2c-2.53-0.57-5.14-0.03-7.67-0.53c-1.02-0.23-1.92-0.68-2.59-1.48
			c-0.98-2.33,0.35-5.07-1.36-7.28c-0.09-0.47,0.03-0.89,0.37-1.25c5.42,0,10.84,0,16.26,0c0.25,0.19,0.37,0.41,0.37,0.67
			c0,0.27-0.03,0.4-0.09,0.4c-0.48,0.65-1.17,1.13-1.6,1.83c-0.51,1.12-0.08,1.89,0.94,2.45c2.11,0.62,4.69-0.1,6.22,2.12
			c1.24,3.53,0.35,7.19,0.74,10.76c0.38,1.2,0.37,2.8,2.34,2.52c1.49-0.21,1.6-1.51,1.74-2.63c0.21-1.62,0.09-3.26,0.12-4.89
			c0.13-7.01,1.13-7.89,8.32-7.31c0.51,0.14,0.97,0.38,1.38,0.69c2.06,3.18,0.91,6.75,1.24,10.14c0.17,1.76-0.25,3.89,2.25,4.39
			c2.19,0.44,2.88-1.24,3.48-2.84c0.85-2.28,2.82-2.65,4.92-2.73c3.61-0.13,7.25-0.02,8.33-4.63c0.99-4.21-0.15-6.57-5.01-9.58
			c-0.41-0.43-0.44-0.89-0.1-1.37c5.08,0,10.16,0,15.25,0c-2.69,5.62-4.98,11.4-7.25,17.18c-0.46,1.18-1.47,2.61-0.2,3.66
			c1.46,1.2,2.77,0.06,4.02-0.86c4.3-3.19,6.76-3.25,10.73-0.18c1.24,0.96,2.52,2.16,4.02,1.28c1.81-1.06,0.53-2.71,0-3.97
			c-2.45-5.84-4.23-11.99-8.26-17.1c6.78,0,13.55,0,20.33,0c0.34,0.48,0.31,0.93-0.1,1.35c-4.04,1.67-7.32,3.73-7.66,8.75
			c-0.63,9.2,5.01,13.85,14.06,11.21c0.81-0.24,1.77-0.44,1.75-1.47c-0.02-0.98-0.9-1.29-1.75-1.47c-1.16-0.25-2.35-0.23-3.52-0.41
			c-3.64-0.56-5.16-2.7-5.1-6.21c0.06-3.47,1.47-5.72,5.25-6c2.8-0.21,5.31-0.59,3.85-4.36c-0.1-0.51,0.01-0.97,0.33-1.38
			c3.05,0,6.1,0,9.15,0c0.33,0.51,0.3,1-0.06,1.48c-4.69,5.56-2.07,11.96-2.1,18.04c0,0.9,0.9,1.36,1.86,1.23
			c0.97-0.13,1.4-0.85,1.59-1.69c0.58-2.61,0.2-5.27,0.37-7.9c0.18-2.87,0.83-5.35,4.52-5.33c3.76,0.01,4.23,2.61,4.37,5.43
			c0.12,2.31-0.06,4.62,0.17,6.93c0.16,1.64,0.79,2.87,2.73,2.94c2.21,0.09,2.38-1.4,2.41-2.97c0.06-3.8-0.12-7.6,0.05-11.39
			c0.14-3.3-2.65-3.86-4.54-5.32c-0.45-0.44-0.5-0.92-0.17-1.44c5.42,0,10.84,0,16.26,0c0.35,0.47,0.32,0.92-0.08,1.34
			c-6.33,3.48-8.4,8.46-6.34,15.23c0.14,0.47,0.28,0.96,0.55,1.37c3.36,5.13,8.63,3.47,13.32,3.38c3.78-0.07,5.54-2.65,6.2-6.07
			c1.3-6.68-0.29-10.12-6.5-13.9c-0.38-0.44-0.39-0.89-0.05-1.36c5.42,0,10.84,0,16.26,0c0.34,0.48,0.3,0.93-0.1,1.36
			c-3.79,1.57-4.99,4.45-4.67,8.31c0.24,2.94-0.09,5.91,0.16,8.85c0.1,1.18,0.42,2.36,1.92,2.49c1.17,0.1,1.93-0.66,2.22-1.65
			c0.99-3.44,3.7-3.91,6.73-3.81c3.43,0.11,6.36-0.63,7.87-4.06c0.97-1.54,0.68-3.59,2.12-4.93c6.4-1.76,8.27-0.57,8.54,5.49
			c0.05,1.16-0.1,2.33,0.06,3.47c0.27,1.93-0.9,5.11,2.25,5.09c2.72-0.02,1.74-3.02,1.94-4.84c0.16-1.47,0.05-2.97,0.07-4.46
			c0.03-2.94,0.94-5.2,4.34-5.71c2.46-0.37,3.62-1.63,2.79-4.15C291.33,129.55,291.45,129.07,291.8,128.64z"/>
		<path class="st1" d="M35.68,128.64c4.88,2.1,6.38,5.75,6.3,10.88c-0.11,7.6-1.15,15.07-2.44,22.51
			c-1.07,6.19-6.31,8.57-12.09,5.75c-8.19-3.99-15.47-9.34-22.31-15.2c-4.01-3.43-3.55-8.09,1.09-11.18
			c8.08-5.37,16.54-10.07,26.34-11.9c0.4-0.08,0.72-0.56,1.08-0.86C34.32,128.64,35,128.64,35.68,128.64z"/>
		<path class="st2" d="M167.8,128.64c2.93,1.21,4.35,3.49,5.33,6.37c1.38,4.03,3.27,7.89,4.72,11.89c0.49,1.34,2.49,3.4,0.41,4.18
			c-2.07,0.78-5.04,1.39-7.02-0.82c-3.58-3.99-5.12-3.98-9.04,0.14c-1.91,2.01-4.66,1.38-6.66,0.81c-2.44-0.7-0.48-2.69,0.01-4.01
			c1.66-4.44,3.52-8.81,5.2-13.24c0.82-2.17,2.03-4,3.99-5.32C165.77,128.64,166.79,128.64,167.8,128.64z"/>
		<path class="st2" d="M91.45,150.8c-7.38,1.63-7.84,1.39-10.07-5.22c-0.73-2.17-1.52-4.32-2.41-6.82c-2.7,2.89-2.76,6.62-4.28,9.7
			c-1.15,2.34-5.61,4.07-7.76,2.86c-1.02-0.57-0.84-1.4-0.5-2.07c3.41-6.82,4.59-14.66,9.9-20.61c1.02,0,2.03,0,3.05,0
			c3.47,0.45,5.57,2.29,6.59,5.62C87.66,139.82,91.23,144.78,91.45,150.8z"/>
		<path class="st2" d="M97.68,128.64c0,0.29,0.01,0.59,0.04,0.88c-0.95,2.27,0.94,4.29,0.6,6.5c-0.01,0.09,0.09,0.27,0.15,0.28
			c0.16,0.01,0.32-0.05,0.48-0.08c0.58,0.42,1.17,0.85,1.75,1.27c3.03,0.9,6.07,1.32,9.14,0.2c5.05,2.28,3.39,6.62,2.87,10.22
			c-0.5,3.48-3.77,3.85-6.73,3.49c-4.8-0.58-10.05,1.85-14.37-1.98c-2.3-5.35-1.49-10.95-1.48-16.5c0.01-3.82,3.07-3.61,5.51-4.28
			C96.32,128.64,97,128.64,97.68,128.64z"/>
		<path class="st2" d="M67.19,129.46c1.64,0.17,2.52,0.63,1.51,2.49c-3.19,5.91-6.17,11.92-9.43,17.79
			c-1.8,3.24-5.08,1.61-7.67,1.42c-1.24-0.09-0.48-1.67,0.07-2.36c2.41-3.01,1.28-5.67-0.52-8.45c-1.52-2.35-2.73-4.88-4.11-7.31
			c-0.83-1.45-1.58-2.86-0.18-4.38c1.02,0,2.03,0,3.05,0c4.58,0.22,6.86,2.62,7.31,7.09C58.8,131.14,61.23,127.53,67.19,129.46z"/>
		<path class="st3" d="M95.64,128.64c-3.66,0.79-4.43,3.03-4.14,6.5c0.39,4.73,0.1,9.52,0.11,14.29c-0.05,0.46-0.1,0.91-0.15,1.37
			c-2.26-5.35-4.73-10.62-6.69-16.07c-1.04-2.87-2.49-4.98-5.38-6.08C84.8,128.64,90.22,128.64,95.64,128.64z"/>
		<path class="st4" d="M67.19,129.46c-6.32-1.18-7.59,3.68-9.44,8.47c-1.98-4.31-3.22-8.26-7.85-9.29c5.76,0,11.52,0,17.28,0
			C67.19,128.92,67.19,129.19,67.19,129.46z"/>
		<path class="st5" d="M271.45,135.69c-0.11,1.65,0.59,3.43-0.81,4.87c-0.42-0.27-0.95-0.61-0.94-1.06c0.13-6.15-3.3-8.96-9.23-9.48
			c-0.46-0.41-0.51-0.87-0.17-1.38c5.42,0,10.84,0,16.26,0c0.3,0.42,0.31,0.84,0,1.26C273.5,130.7,272.81,133.47,271.45,135.69z"/>
		<path class="st6" d="M113.91,129.46c0.01-0.27,0.01-0.54,0.03-0.81c6.44,0,12.87,0,19.31,0c0.3,0.68,0.13,1.21-0.52,1.6
			C126.4,131.39,120.07,132.44,113.91,129.46z"/>
		<path class="st7" d="M276.54,129.48c0.01-0.28,0.01-0.56,0.01-0.84c5.08,0,10.16,0,15.25,0c0,0.28,0,0.57,0.02,0.85
			C286.73,132.12,281.63,132.13,276.54,129.48z"/>
		<path class="st8" d="M133.22,129.7c0.01-0.35,0.02-0.7,0.03-1.05c1.36,0,2.71,0,4.07,0c0.33,0.35,0.46,0.75,0.35,1.22
			c-1.19,1.88-1.76,4.12-3.44,5.72c-0.36-0.01-0.72-0.03-1.08-0.04C131.66,133.58,131.68,131.63,133.22,129.7z"/>
		<path class="st9" d="M137.29,129.5c0.01-0.28,0.02-0.57,0.02-0.85c4.07,0,8.13,0,12.2,0c0.02,0.27,0.02,0.54,0.03,0.81
			C145.47,132.05,141.39,131.99,137.29,129.5z"/>
		<path class="st10" d="M204.37,129.46c0.01-0.27,0.02-0.55,0.03-0.82c3.73,0,7.45,0,11.18,0c0.02,0.27,0.02,0.54,0.03,0.81
			C211.86,131.95,208.11,131.94,204.37,129.46z"/>
		<path class="st11" d="M238.95,128.64c0.05,0.27,0.09,0.53,0.1,0.8c-2.43,2.1-4.86,2.08-7.3,0.02c0.03-0.28,0.06-0.55,0.09-0.83
			C234.2,128.64,236.58,128.64,238.95,128.64z"/>
		<path class="st12" d="M188.11,129.48c0.02-0.28,0.02-0.56,0.02-0.84c2.37,0,4.74,0,7.11,0c0.01,0.27,0.02,0.54,0.03,0.81
			C192.89,131.5,190.5,131.49,188.11,129.48z"/>
		<path class="st13" d="M260.29,128.64c0,0.28,0,0.56,0.01,0.84c-1.7,1.6-3.41,1.59-5.11,0c0.02-0.28,0.02-0.56,0.02-0.84
			C256.9,128.64,258.6,128.64,260.29,128.64z"/>
		<path class="st14" d="M231.74,129.47c2.43-0.01,4.87-0.02,7.3-0.02c6.93,1.24,8.72,4.32,8.01,13.78
			c-0.43,5.73-3.17,8.11-9.63,8.28c-2.02,0.05-4.05-0.11-6.07-0.02c-1.62,0.07-3-0.47-4.27-1.27c-3.31-2.07-4.93-9.35-3.22-15.11
			C224.97,131.38,227.65,129.4,231.74,129.47z"/>
		<path class="st2" d="M137.29,129.5c4.08-0.02,8.16-0.03,12.24-0.05c5.44,0.69,7.11,2.68,6.87,8.19c-0.26,5.96-2.06,7.76-7.81,7.86
			c-3.12,0.06-6.78-1.23-6.46,4.42c0.16,2.79-3.2,1.16-4.94,1.47c-2.27,0.4-2.82-1.03-2.81-2.99c0.02-4.27-0.1-8.54-0.17-12.82
			C134.72,133.31,134.64,130.74,137.29,129.5z"/>
		<path class="st1" d="M204.37,129.46c3.74,0,7.49-0.01,11.23-0.01c4.54-0.24,6.37,1.83,6.09,6.26c-0.26,4.11-0.24,8.25,0,12.36
			c0.18,3.15-1.48,3.46-4.03,3.42c-2.38-0.04-4.37,0.03-4.14-3.27c0.23-3.28-0.06-6.6,0.08-9.89c0.09-2.18-0.75-2.82-2.92-2.83
			c-2.28-0.01-3.44,0.44-3.26,2.98c0.21,2.95-0.07,5.94,0.09,8.9c0.14,2.63-0.09,4.23-3.64,4.2c-3.37-0.03-3.92-1.32-3.81-4.11
			c0.18-4.45,0.17-8.91,0.03-13.36C199.99,131.08,201.08,129.39,204.37,129.46z"/>
		<path class="st14" d="M255.19,129.49c1.7,0,3.41,0,5.11,0c1.15,0.06,2.31,0.16,3.46,0.19c5.52,0.14,6.89,1.55,6.84,7.02
			c-0.01,1.29,0.02,2.58,0.04,3.87c-1.19,5.26-5.37,5.08-9.5,4.91c-2.7-0.11-5-0.21-4.62,3.68c0.33,3.35-2.62,2.03-4.35,2.27
			c-1.94,0.27-3.16-0.2-3.08-2.56c0.15-4.42,0.27-8.87-0.02-13.28C248.76,131.07,250.76,129.24,255.19,129.49z"/>
		<path class="st14" d="M188.11,129.48c2.39-0.01,4.78-0.02,7.16-0.03c3.28,0.33,2.22,2.77,2.14,4.51c-0.1,2.37-2.18,1.45-3.51,1.59
			c-2.97,0.3-6.64-1.08-6.9,4.08c-0.22,4.28,1.28,6.18,5.69,5.8c1.17-0.1,2.36,0.02,3.54,0c1.93-0.03,2.13,1.19,2.03,2.63
			c-0.09,1.4,0.43,3.19-1.88,3.34c-1.68,0.11-3.37,0.04-5.05,0.04c-10.29,0-14.2-4.62-12.21-14.57
			C180.06,132.15,182.73,129.19,188.11,129.48z"/>
		<path class="st1" d="M276.54,129.48c5.09,0,10.18,0.01,15.28,0.01c2.71,0.75,1.77,2.91,1.58,4.5c-0.25,2.09-2.24,1.7-3.64,1.55
			c-3.22-0.36-4.12,1.04-3.9,3.96c0.21,2.78-0.14,5.59,0.08,8.37c0.22,2.78-0.72,3.73-3.64,3.68c-2.68-0.05-4.12-0.52-3.77-3.5
			c0.23-1.94,0.04-3.94,0.04-5.91c0.01-6.68,0.01-6.68-7.12-6.44C270.61,131.64,271.41,128.86,276.54,129.48z"/>
		<path class="st14" d="M133.22,129.7c-0.03,1.95-0.05,3.9-0.08,5.85c-7.01,0.07-7.01,0.07-7.02,7.13c0,1.64-0.16,3.29,0.03,4.91
			c0.33,2.86-0.47,4.03-3.77,3.98c-3.34-0.05-4.2-1.17-3.4-4.07c0.67-3.96,1.37-7.93-0.41-11.82c-2.23-0.64-4.82,0.96-6.84-1.03
			c0.21-1.36,0.22-2.72-0.01-4.08c0.28-1.2,1.41-0.81,2.18-1.11C120.35,129.54,126.78,129.62,133.22,129.7z"/>
		<path class="st15" d="M161.72,157.49c1.65,0.86,2.76,6.38,5.22,0.49c0.55-1.32,1.88-0.6,1.98,0.51c0.2,2.27,0.08,4.56-0.01,6.84
			c-0.01,0.3-0.62,0.78-0.98,0.8c-0.34,0.02-0.9-0.37-1.04-0.7c-0.48-1.18,0.45-2.95-2.05-3.18c-3.41-0.31-0.87,3.52-3.1,3.84
			C160.86,163.24,160.91,160.37,161.72,157.49z"/>
		<path class="st15" d="M123.05,169.15l-0.48,0.16l-0.46-0.2c-0.87-3.85-0.85-7.7-0.01-11.56c1.15-0.07,2.31-0.24,3.45-0.18
			c1.71,0.09,3.93-0.69,4.57,1.78c0.6,2.32,0.59,4.58-2.2,5.74c-1.35-1.05-0.4-3.36-2.36-4.14c-1.63,1.52,0.59,3.18-0.27,4.67
			l-0.28-0.12C123.23,166.04,123.98,168,123.05,169.15z"/>
		<path class="st16" d="M157.77,165.4c-1.85,1.58-4.75,1.9-5.79,0.46c-1.68-2.34-1.28-5.8-0.25-8.36c0.75-1.87,3.39-1.27,5.25-0.28
			c-0.05,0.59-0.38,1.04-0.73,1.48c-0.46,0.63-0.36,1.29-0.08,1.96c0.14,0.58,0.1,1.14-0.1,1.69c-0.46,0.8-0.22,1.35,0.66,1.66
			C157.27,164.34,157.63,164.79,157.77,165.4z"/>
		<path class="st17" d="M211.58,162.39c0.04-2.27,2.27-1.93,3.51-2.53c-0.09-2.46-2.79-0.66-3.31-2.43
			c0.35-0.24,0.69-0.68,1.09-0.74c3.65-0.49,5,1.53,4.6,4.63c-0.23,1.8,2.1,5.59-2.92,4.68c-0.33-0.3-0.53-0.67-0.63-1.09
			c-0.05-1.19-0.89-1.7-1.89-2.1C211.88,162.68,211.73,162.54,211.58,162.39z"/>
		<path class="st18" d="M116.95,158.32c0.68,1.27,1.33,2.55,1.06,4.06c-0.19,2.72-2.02,2.98-4.23,2.69
			c-4.22-2.37-2.87-4.8-0.09-7.26C114.88,157.38,115.95,157.58,116.95,158.32z"/>
		<path class="st19" d="M96.77,156.94c-5.47,4.36-5.26,5.93,1.14,8.45c-1.91,1.65-3.89,1.46-5.34,0.23
			c-1.69-1.44-2.41-3.55-1.42-5.82C92.16,157.47,93.76,156.25,96.77,156.94z"/>
		<path class="st20" d="M125.29,165.42c-0.26-0.41-0.43-0.93-0.79-1.23c-1.68-1.39-1.9-3.04-0.8-4.78c0.71-1.12,2-1.3,3.13-0.77
			c1.94,0.89,1.59,2.68,1.44,4.31c-0.06,0.65-0.23,1.29-0.35,1.94C127.04,165.06,126.16,165.24,125.29,165.42z"/>
		<path class="st21" d="M100.93,157.47c2.25-1.21,4.5-1.19,6.74,0c-1.04,2.78,0.4,5.79-0.84,8.55c-1.58-1.68-0.45-3.72-0.75-5.57
			c-0.17-1.02-0.21-1.91-1.58-2c-1.58-0.1-1.9,0.74-2.05,2.07c-0.22,1.86,0.87,3.9-0.73,5.58c-0.07,0.07-0.39,0.05-0.47-0.04
			c-0.2-0.2-0.33-0.46-0.5-0.7C101.64,162.74,101.36,160.11,100.93,157.47z"/>
		<path class="st22" d="M233.07,158.31c0.31,0.23,0.62,0.47,0.93,0.7c0.44,2.38,0.77,4.76-0.14,7.11c-0.35-0.01-0.7-0.02-1.04-0.04
			c-0.82-0.24-1.38-0.77-1.72-1.5c-0.79-0.9-1.19-0.09-1.67,0.38c-0.47,0.46-0.96,0.84-1.64,0.38c-2.1-2.54-0.37-3.89,1.76-4.85
			c1.04-0.47,2.43-0.29,2.1-2.01C232.06,158.01,232.54,157.95,233.07,158.31z"/>
		<path class="st23" d="M141.39,156.47c2.01,2.21-0.06,4.92,2.63,6.26c0.95,0.48-0.17,1.73-0.63,2.54
			c-0.45,0.81-1.19,1.18-2.09,0.81c-1-0.4-0.81-1.38-0.75-2.13C140.71,161.64,139.93,159.17,141.39,156.47z"/>
		<path class="st24" d="M253.06,166.76c-1.98-2.51,0.15-5.26-2.64-6.85c-0.85-0.48,0.4-2.57,1.71-2.91c1.71-0.43,1.75,1.08,1.7,2.2
			C253.71,161.49,254.35,163.9,253.06,166.76z"/>
		<path class="st25" d="M258.43,160.07c1.26,0.1,2.52,0.19,3.78,0.29c1.47-0.43-0.47-3.08,1.96-2.88c0.53,5.47,0.53,5.5-0.95,9.11
			c-1.2-2.02-0.92-5.84-4.84-3.97C257.65,161.76,257.65,160.91,258.43,160.07z"/>
		<path class="st26" d="M51.95,165.33c-2.39-1.82-2.59-4.12-1.12-6.45c1.36-2.14,3.39-3.04,6.71-1.5c-3.73,1.27-7.11,2.6-4.4,6.89
			C52.99,164.88,52.58,165.23,51.95,165.33z"/>
		<path class="st27" d="M70.83,158.49c-0.76-0.2-2.01-0.22-2.18-0.64c-0.49-1.25,0.72-1.12,1.49-1.14c1.65-0.04,3.3-0.01,5.34,0.38
			c-4.55,2.09-1.11,6.38-3.24,8.98c-0.06,0.08-0.38,0.07-0.47-0.02c-0.21-0.2-0.35-0.46-0.51-0.7
			C71.86,163.02,72.56,160.69,70.83,158.49z"/>
		<path class="st28" d="M240.83,162.44c-7.32-0.61,1.04-2.37-0.68-3.75c-0.68-0.15-1.84-0.41-3.24-0.72
			c1.77-1.91,3.45-1.85,5.12-0.66c1.66,1.19,0.94,2.55,0.08,3.85C242.53,162.4,241.94,162.66,240.83,162.44z"/>
		<path class="st29" d="M225.63,157.43c-5.3,1.02-2,6.08-4.79,9.87c-0.55-4.1-0.63-6.96-0.04-9.86
			C222.41,156.66,224.02,156.67,225.63,157.43z"/>
		<path class="st30" d="M268.42,165.38c-2.71-2.06-2.77-4.7-0.94-7.07c1.44-1.86,3.71-2.53,5.98-0.79c0.26,0.83-0.26,1.26-0.87,1.65
			c-2.67,0.75-2.94,2.99-3.32,5.16C269.08,164.75,268.79,165.1,268.42,165.38z"/>
		<path class="st31" d="M189.24,160.82c0.32,0.85,0.64,1.69,0.96,2.54c-0.21,0.45-0.55,0.76-1.03,0.93
			c-1.19-1.13-2.5,0.35-3.97-0.09c1.07-2.12,1.16-4.14-0.42-5.9c2.2-1.48,2.61,1.63,4.18,0.81
			C189.59,159.6,189.68,160.17,189.24,160.82z"/>
		<path class="st32" d="M283.67,160.38c-0.02,0.3,0,0.6,0.04,0.9c0.24,0.23,0.36,0.48,0.34,0.76c-0.02,0.29-0.06,0.43-0.12,0.43
			c-0.46,0.82-2.76,0.81-1.21,2.56c0.24,0.39,0.22,0.75-0.08,1.09c-1.33,0.03-2.66,0.05-3.99,0.08c-0.41-2.99-1.89-6.08,0.76-8.82
			C280.83,158.36,282.3,159.3,283.67,160.38z"/>
		<path class="st33" d="M82.46,165.34c-1.43,1.82-3.95,1.74-4.6,0.37c-1.16-2.43-1.46-5.83,0.17-7.94c1.04-1.35-0.09,1.89,1.35,1.92
			c0.54,0.46,0.88,1.04,1.05,1.71C80.56,162.98,81.45,164.19,82.46,165.34z"/>
		<path class="st34" d="M145.42,161.32c-2.4-1.94,0.45-2.76,0.97-4.04c0.26-0.63,1.19-0.73,1.71-0.29c0.99,0.84,0.8,2.13,0.6,3.16
			c-0.41,2.04,1.36,4.49-1.17,6.13C145.8,165.04,148.69,161.93,145.42,161.32z"/>
		<path class="st35" d="M258.43,160.07c-0.01,0.85-0.03,1.7-0.04,2.54c-0.1,1.2,0.71,2.61-1.1,3.72c-1.47-3.16-0.88-6.19-0.38-9.75
			C258.85,157.6,258.43,158.92,258.43,160.07z"/>
		<path class="st36" d="M279.75,158.59c-2.33,2.27-0.65,5.09-1.11,7.61c-2.29-2.5-0.71-5.44-0.9-8.17
			c-0.11-1.45,1.34-1.63,2.54-1.61c1.6,0.03,3.53-0.36,3.47,2.19C282.41,159.4,281.07,159.52,279.75,158.59z"/>
		<path class="st37" d="M113.91,158.32c-2.02,2.12-2.51,4.24,0,6.37c0.33,0.44,0.32,0.87,0,1.31c-5.07-1.98-5.38-4.34-1.14-8.66
			C113.9,156.84,114.06,157.41,113.91,158.32z"/>
		<path class="st38" d="M155.62,158.24c0.46-0.34,0.91-0.68,1.37-1.02c2.41,2.53,1.96,5.32,0.78,8.18
			c-0.38-0.34-0.76-0.68-1.14-1.02c-0.73-0.55-1.13-1.26-1.02-2.18c0-0.57,0-1.14,0-1.71C155.49,159.74,155.53,158.99,155.62,158.24
			z"/>
		<path class="st39" d="M181.05,157.63c1.26,2.81,1.21,5.64,0.41,9.29C178.84,163.43,180.02,160.52,181.05,157.63z"/>
		<path class="st40" d="M98.95,136.23c-3.09-2.98-3.14-3.23-1.23-6.71C100.76,131.3,99.1,133.9,98.95,136.23z"/>
		<path class="st41" d="M199.23,166.21c-2.43-2.67-0.81-5.71-0.62-8.53c0.1-1.44,1.22-1.14,2.89,1.46c0.42,0.77,0,1.36-0.43,1.95
			C199.05,162.32,200.49,164.73,199.23,166.21z"/>
		<path class="st42" d="M176.93,165.39c-1.03,1.77-2.61,0.9-4.03,0.82c-1.24-2.15,0.13-4.61-0.84-6.79
			c-0.12-0.95-0.45-2.49,0.78-2.37c1.92,0.18,0.69,2.12,1.12,3.21c0.28,0.35,0.54,0.72,0.78,1.1
			C175.23,162.83,175.59,164.37,176.93,165.39z"/>
		<path class="st43" d="M136.49,158.49c-0.15,2.54-0.31,5.08-0.46,7.62c-2.63-2.28-1.23-5.14-1.91-7.64
			C134.91,157.83,135.7,157.83,136.49,158.49z"/>
		<path class="st44" d="M207.47,157.35c1.64,2.82,0.97,5.73,0.64,8.99c-2.8-0.94-0.69-3.89-2.63-4.78
			C204.87,159.58,206.4,158.57,207.47,157.35z"/>
		<path class="st45" d="M136.49,158.49c-0.79-0.01-1.58-0.01-2.38-0.02c-0.77-0.16-1.83,0.25-2.2-0.68
			c-0.32-0.82,0.49-1.05,1.14-1.07c1.49-0.04,2.99-0.05,4.47,0.02c0.62,0.03,1.48,0.25,1.16,1.07
			C138.32,158.72,137.25,158.33,136.49,158.49z"/>
		<path class="st46" d="M248.96,162.38c0.8,2.26-1.5,2.44-2.57,3.62c-0.51-3.02-1.18-5.92-0.04-8.84c0.02-0.06,0.26-0.1,0.35-0.06
			c0.15,0.06,0.27,0.19,0.4,0.29C248.29,158.85,246.57,161.34,248.96,162.38z"/>
		<path class="st47" d="M82.46,165.34c-2.66-0.06-3.71-1.32-3.04-3.87c0.84-0.84,1.68-1.64,3.04-1.05c0.07,0.23,0.04,0.46-0.07,0.67
			c1.98,1.42,1.57,2.86,0.03,4.31L82.46,165.34z"/>
		<path class="st48" d="M207.47,157.35c0.41,1.89-1.22,2.85-1.99,4.21c0.06,0.3-0.02,0.55-0.25,0.75c-0.82,0.05-1.4-0.11-0.96-1.11
			C205.12,159.74,203.81,156.58,207.47,157.35z"/>
		<path class="st49" d="M176.93,165.39c-2.64-0.09-3.54-1.46-2.98-3.89c3.18-1.14,4.22-0.21,2.98,2.93
			C176.99,164.75,176.99,165.07,176.93,165.39z"/>
		<path class="st50" d="M204.27,161.2c0.32,0.37,0.64,0.74,0.96,1.11c-0.6,1.4-0.28,3.62-2.32,3.79c-1.07,0.09-1.36-1.6-1.49-2.74
			c0.39-0.43,0.42-1.16,1.13-1.33C203.13,161.75,203.7,161.47,204.27,161.2z"/>
		<path class="st51" d="M122.1,157.55c0,3.85,0.01,7.71,0.01,11.56C120.85,165.26,120.86,161.41,122.1,157.55z"/>
		<path class="st52" d="M118.58,135.68c2.56,3.86,1.88,7.82,0.41,11.82C118.85,143.56,118.72,139.62,118.58,135.68z"/>
		<path class="st53" d="M109.84,137.7c-3.1,2.38-6.13,1.38-9.14-0.2C103.76,137.19,106.81,136.94,109.84,137.7z"/>
		<path class="st54" d="M61.04,163.37c1.26,1.71,3.51,0.94,5.12,1.95c-2.12-0.17-4.5,2.4-6.22-0.71
			C59.44,163.47,60.03,163.24,61.04,163.37z"/>
		<path class="st55" d="M61.04,163.37c-0.37,0.41-0.73,0.83-1.1,1.24c-1.33-2.36-2.33-4.67,1.15-6.18c0.16,0.15,0.32,0.3,0.48,0.44
			c0.32,0.58,0.44,1.21,0.41,1.87c-0.07,0.67-0.4,1.21-0.87,1.68C61.08,162.74,61.06,163.06,61.04,163.37z"/>
		<path class="st56" d="M82.41,165.4c0.28-1.44,0.63-2.88-0.03-4.31c1.58-0.48,2.58,0.04,2.68,1.67
			C85.17,164.52,84.27,165.47,82.41,165.4z"/>
		<path class="st57" d="M113.91,166c0-0.44,0-0.87,0-1.31c1.84,0.04,3.24-0.66,4.1-2.3C119.16,165.24,118.12,166.15,113.91,166z"/>
		<path class="st34" d="M61.11,162.43c0.01-0.72,0.02-1.43,0.02-2.15c1.05-0.85,2.24-1.01,3.53-0.67c1.04,0.25,1.67,1.02,2.3,1.77
			C65.29,163.19,63.01,161.8,61.11,162.43z"/>
		<path class="st58" d="M176.93,164.43c0.28-2.22-0.48-3.42-2.98-2.93c0-0.41,0-0.82,0-1.24c1.39,0.42,3.05-0.53,4.25,0.8
			C179.88,162.94,179.97,164.25,176.93,164.43z"/>
		<path class="st59" d="M51.95,165.33c0.4-0.35,0.8-0.71,1.2-1.06c1.2,0.63,2.94-0.41,4.13,1.46
			C55.26,166.65,53.59,166.78,51.95,165.33z"/>
		<path class="st60" d="M106.83,166.02c0.42-2.84-0.88-5.84,0.84-8.55C107.76,160.35,109.42,163.38,106.83,166.02z"/>
		<path class="st61" d="M161.72,157.49c0.01,2.87,0.01,5.74,0.02,8.61C160.51,163.24,160.55,160.37,161.72,157.49z"/>
		<path class="st62" d="M272.48,158.41c0.33-0.3,0.65-0.6,0.98-0.9c2,0.65,2.26,2.14,1.99,3.89c-0.52,0.84-1.05,1.65-2.25,0.94
			C272.33,161.14,271.74,159.89,272.48,158.41z"/>
		<path class="st63" d="M242.35,165.52c-1.92,1.41-3.74,1.39-5.79-0.11c1.46-1.56,3.14-0.4,4.39-1.11
			C241.67,164.44,242.13,164.85,242.35,165.52z"/>
		<path class="st64" d="M268.42,165.38c0.06-0.43,0.13-0.85,0.19-1.28c1.16-0.9,2.41-0.81,3.71-0.36c0.73,0.37,1.23,0.93,1.42,1.73
			C271.93,166.88,270.16,167.02,268.42,165.38z"/>
		<path class="st65" d="M100.93,157.47c1.18,2.65,1.42,5.29-0.19,7.88C100.47,162.71,100.13,160.08,100.93,157.47z"/>
		<path class="st66" d="M273.73,165.47c-0.41-0.35-0.82-0.71-1.23-1.06c-0.56-1.2,0.14-1.7,1.18-2.02c0.59-0.33,1.18-0.66,1.77-0.99
			C275.76,163.11,275.47,164.58,273.73,165.47z"/>
		<path class="st67" d="M233.07,158.31c-0.48,0.06-0.96,0.11-1.44,0.17c-0.92-0.14-2.02,0.12-2.56-0.89
			c-0.09-0.18,0.37-0.9,0.67-0.97C231.3,156.26,232.66,156.43,233.07,158.31z"/>
		<path class="st68" d="M111.73,130.57c1.66,1.36,1.65,2.72,0.01,4.08C110.95,133.29,110.98,131.93,111.73,130.57z"/>
		<path class="st69" d="M283.65,162.41c0.02-0.38,0.04-0.75,0.05-1.13c3.35,2.4,2.03,3.81-1.07,4.84c0-0.24,0-0.48,0.02-0.71
			C281.8,164.04,282.87,163.27,283.65,162.41z"/>
		<path class="st70" d="M248.96,162.38c-2.12-0.22-2.12-0.22-1.86-4.99C247.72,159.05,248.34,160.71,248.96,162.38z"/>
		<path class="st71" d="M279.75,158.59c1.33,0.01,2.66,0.02,4,0.03c-0.03,0.59-0.05,1.17-0.08,1.76
			C282.31,159.9,279.75,161.91,279.75,158.59z"/>
		<path class="st72" d="M242.35,165.52c-0.47-0.41-0.93-0.81-1.4-1.22c-0.04-0.62-0.08-1.24-0.12-1.86
			c0.42-0.42,0.85-0.85,1.27-1.27C243.44,162.55,244.43,163.96,242.35,165.52z"/>
		<path class="st73" d="M199.23,166.21c0.44-1.88-0.63-4.01,0.98-5.7c0.77,0.5,2.11,0.77,0.92,2.1
			C199.57,163.35,201.09,165.63,199.23,166.21z"/>
		<path class="st74" d="M113.91,158.32c-0.38-0.33-0.76-0.66-1.14-0.99c1.71-0.96,3.44-1.97,4.17,0.99
			C115.94,158.32,114.92,158.32,113.91,158.32z"/>
		<path class="st75" d="M214.59,165.64c0,0-0.04,0.37-0.04,0.37c-1.54,0.64-3,0.62-3.85-0.97c-0.53-0.99-0.86-2.22,0.87-2.64
			c0,0-0.12-0.04-0.12-0.04C212.55,163.41,214.02,164.12,214.59,165.64z"/>
		<path class="st76" d="M66.96,161.38c-0.83-0.05-1.52-0.32-1.87-1.13c-0.49-0.49-0.69-1.08-0.63-1.76
			c0.11-0.43,0.35-0.79,0.69-1.07C66.94,158.22,67.36,159.62,66.96,161.38z"/>
		<path class="st77" d="M172.05,159.42c1.61,2.1,0.49,4.53,0.84,6.79C170.86,164.15,172.19,161.7,172.05,159.42z"/>
		<path class="st67" d="M233.85,166.13c0.05-2.37,0.1-4.74,0.14-7.11C234.91,161.4,235.24,163.78,233.85,166.13z"/>
		<path class="st78" d="M70.83,158.49c2.43,2.15,1.79,4.48,0.42,6.86C71.12,163.06,70.98,160.78,70.83,158.49z"/>
		<path class="st67" d="M231.79,164.24c0.34,0.62,0.68,1.23,1.02,1.85c-1.72-0.01-3.64,1.33-5.04-0.74
			c0.38-0.41,0.77-0.83,1.15-1.24C229.88,164.15,230.84,164.14,231.79,164.24z"/>
		<path class="st79" d="M65.15,157.41c-0.05,0.46-0.1,0.92-0.15,1.38c-1.41,0.7-2.74,0.65-3.94-0.43c0,0,0.03,0.09,0.03,0.09
			C61.9,156.03,63.35,156.07,65.15,157.41z"/>
		<path class="st80" d="M145.42,161.32c1.06-1.1,1.71-0.71,1.86,0.6c0.17,1.44,0.17,2.9,0.25,4.36
			C145.14,165.31,147.56,162.39,145.42,161.32z"/>
		<path class="st81" d="M189.17,164.29c0.34-0.31,0.68-0.62,1.03-0.93c0.83,0.81,2.43,1.8,1.06,2.8
			C190.24,166.9,189.39,165.48,189.17,164.29z"/>
		<path class="st56" d="M82.45,160.42c-1.01,0.35-2.02,0.7-3.04,1.05c-0.01-0.59-0.02-1.19-0.04-1.78
			C80.47,159.65,81.65,159.26,82.45,160.42z"/>
		<path class="st46" d="M189.24,160.82c-0.09-0.57-0.18-1.14-0.27-1.71c0.34-0.81,0.9-2.24,1.74-1.26
			C191.62,158.91,190.08,159.95,189.24,160.82z"/>
		<path class="st82" d="M264.17,157.48c-1.14,0.64-0.51,2.44-1.96,2.88C263.29,159.67,260.59,156.54,264.17,157.48z"/>
		<path class="st83" d="M201.13,162.61c-0.31-0.7-0.61-1.4-0.92-2.1c0.43-0.46,0.86-0.92,1.29-1.38c0.94,0.76,0.92,1.85,1.06,2.89
			c-0.38,0.44-0.75,0.88-1.13,1.33C201.23,163.14,201.14,162.89,201.13,162.61z"/>
		<path class="st84" d="M225.63,157.43c-1.61,0-3.22,0-4.83,0.01C222.41,156.14,224.02,156.18,225.63,157.43z"/>
		<path class="st51" d="M123.05,169.15c0.18-1.51-0.6-3.48,1.95-3.85C124.35,166.58,123.7,167.86,123.05,169.15z"/>
		<path class="st85" d="M28.52,155.45c-1.23-4.28-4.96-4.45-8.45-4.62c-2.8-0.13-5.63,0.3-9.85,0.57c3.88-3.84,7.81-4.36,11.73-4.98
			c2.03-0.32,4.29,1.02,6.1-0.82c1.91-1.11,3.43-0.45,4.78,0.99c-1.22,0.7-2.67,0.99-1.29,3.08c2.48,3.76,0.64,7.36-0.99,11.58
			c-1.66-1.9-0.3-4.05-1.81-5.21c-0.4,0-0.56-0.09-0.5-0.27C28.33,155.56,28.42,155.45,28.52,155.45z"/>
		<path class="st86" d="M32.84,146.59c-1.59-0.33-3.19-0.66-4.78-0.99c-2.76-2.78-2.29-5.63,0.76-7.43
			c2.26-1.33,5.21-1.57,6.91,1.61C37.57,143.24,36.39,145.37,32.84,146.59z"/>
		<path class="st87" d="M28.52,155.45c0.24,0.14,0.31,0.34,0.23,0.59c-0.11,1.41-0.23,2.82-0.41,5.13
			C27.3,158.61,27.13,157,28.52,155.45z"/>
		<path class="st88" d="M166.84,138.86c0.85,0.25,0.9,0.87,0.88,1.51c-0.02,0.84-0.63,1.13-1.29,0.93c-0.3-0.09-0.58-0.77-0.57-1.17
			C165.87,139.56,165.95,138.81,166.84,138.86z"/>
		<path class="st89" d="M102.34,142.64c1.26,0.04,2.95-0.11,3.02,1.24c0.09,1.82-1.74,1.53-3.01,1.55
			c-1.13,0.01-2.75,0.33-2.86-1.21C99.34,142.18,101.22,142.8,102.34,142.64z"/>
		<path class="st90" d="M239.05,141.04c0.1,2.18-0.12,4.54-3.79,4.51c-3.49-0.03-4.13-2.36-4.14-4.95
			c-0.01-2.74,0.43-5.21,4.36-5.12C239.4,135.58,239.03,138.11,239.05,141.04z"/>
		<path class="st91" d="M145.61,135.59c0.96,0.11,2.86-0.5,2.86,1.78c0,2.09-1.73,2.01-3.21,2.04c-1.29,0.03-2.75,0.25-2.93-1.67
			C142.14,135.54,143.62,135.49,145.61,135.59z"/>
		<path class="st92" d="M220.37,133.66c0,5.19,0,10.38,0,15.57c-0.13,0-0.26,0.01-0.4,0.01c0-5.19,0-10.38,0-15.57
			C220.11,133.66,220.24,133.66,220.37,133.66z"/>
		<path class="st93" d="M259.71,135.56c1.42,0.1,3.43-0.4,3.47,1.77c0.04,1.99-1.77,2.08-3.35,2.1c-1.56,0.02-3.31,0.08-3.18-2.11
			C256.76,135.53,258.26,135.47,259.71,135.56z"/>
		<path class="st94" d="M155.62,162.2c0.94,0.46,1.13,1.25,1.02,2.18c-1.03,0.07-2.34,1.38-3-0.28
			C152.95,162.39,154.47,162.36,155.62,162.2z"/>
		<path class="st95" d="M155.62,158.24c1.07,0.75,0.96,1.5,0,2.25c-0.76-0.11-1.85,0.12-1.99-0.88
			C153.42,158.17,154.72,158.4,155.62,158.24z"/>
		<path class="st96" d="M214.59,165.64c-1.17-0.98-3.62-0.79-3.13-3.28c1.25-0.12,2.63-1.33,3.69-0.28
			C216.32,163.22,215.08,164.48,214.59,165.64z"/>
		<path class="st97" d="M231.79,164.24c-0.99,0.72-1.94,0.57-2.86-0.14c0.11-1.61,1.14-2.55,2.62-2.22
			C233.15,162.25,231.91,163.42,231.79,164.24z"/>
		<path class="st18" d="M273.68,162.39c-0.39,0.67-0.78,1.35-1.18,2.02c-1.3-0.1-2.6-0.2-3.9-0.3c0.07-2.69-1.01-6.12,3.87-5.69
			C272.88,159.74,273.28,161.06,273.68,162.39z"/>
		<path class="st98" d="M283.65,162.41c-0.33,1-0.66,2-1,3c-1.39-0.13-3.44,0.22-3.01-1.97
			C280.13,161.04,282.19,162.35,283.65,162.41z"/>
		<path class="st99" d="M61.06,158.35c1.33,0.03,2.7-0.34,3.94,0.43c0.03,0.49,0.05,0.97,0.08,1.46c-1.32,0.01-2.64,0.02-3.96,0.04
			C61.11,159.64,61.09,159,61.06,158.35z"/>
	</g>
</g>
<rect x="49.13" y="154.52" class="st100" width="241.04" height="16.7"/>
<g>
	<path class="st26" d="M49.87,161.58c0-2.95,2.08-4.65,4.44-4.65c1.12,0,1.94,0.43,2.59,0.99l-1.01,1.35
		c-0.47-0.41-0.92-0.65-1.47-0.65c-1.43,0-2.41,1.18-2.41,2.95s0.97,2.94,2.35,2.94c0.69,0,1.33-0.34,1.83-0.76l0.84,1.37
		c-0.83,0.73-1.88,1.09-2.89,1.09C51.72,166.22,49.87,164.52,49.87,161.58z"/>
	<path class="st26" d="M58.24,161.58c0-2.87,1.99-4.65,4.08-4.65c2.39,0,3.65,1.73,3.65,4.2c0,0.4-0.04,0.79-0.09,1.01h-5.61
		c0.17,1.57,1.18,2.46,2.61,2.46c0.76,0,1.4-0.24,2.05-0.64l0.71,1.29c-0.84,0.57-1.91,0.96-3.03,0.96
		C60.15,166.22,58.24,164.5,58.24,161.58z M64.17,160.74c0-1.36-0.61-2.19-1.82-2.19c-1.03,0-1.94,0.77-2.12,2.19H64.17z"/>
	<path class="st26" d="M70.18,158.8H67.4v-1.65h7.63v1.65h-2.78v7.2h-2.07V158.8z"/>
	<path class="st26" d="M77.3,157.16h2.07v3.03h1.32c2.13,0,3.66,0.8,3.66,2.88c0,2.12-1.53,2.93-3.66,2.93H77.3V157.16z
		 M80.56,164.39c1.21,0,1.79-0.42,1.79-1.34c0-0.89-0.58-1.3-1.79-1.3h-1.18v2.64H80.56z"/>
	<path class="st26" d="M90.37,161.58c0-2.95,2.08-4.65,4.44-4.65c1.12,0,1.94,0.43,2.59,0.99l-1.01,1.35
		c-0.47-0.41-0.92-0.65-1.47-0.65c-1.43,0-2.41,1.18-2.41,2.95s0.97,2.94,2.35,2.94c0.69,0,1.33-0.34,1.83-0.76l0.84,1.37
		c-0.83,0.73-1.88,1.09-2.89,1.09C92.22,166.22,90.37,164.52,90.37,161.58z"/>
	<path class="st26" d="M99.75,157.16h7.51V166h-2.07v-7.2h-3.36v7.2h-2.07V157.16z"/>
	<path class="st26" d="M109.8,161.58c0-2.95,2-4.65,4.21-4.65c2.2,0,4.21,1.7,4.21,4.65c0,2.93-2,4.63-4.21,4.63
		C111.81,166.22,109.8,164.52,109.8,161.58z M116.08,161.58c0-1.77-0.78-2.95-2.07-2.95c-1.3,0-2.07,1.18-2.07,2.95
		s0.78,2.94,2.07,2.94C115.31,164.52,116.08,163.36,116.08,161.58z"/>
	<path class="st26" d="M120.76,157.16h1.7l0.16,0.94h0.06c0.75-0.64,1.69-1.16,2.66-1.16c2.21,0,3.48,1.77,3.48,4.5
		c0,3.02-1.81,4.77-3.77,4.77c-0.78,0-1.56-0.35-2.28-0.97l0.06,1.47v2.79h-2.07V157.16z M126.68,161.46c0-1.76-0.58-2.81-1.92-2.81
		c-0.64,0-1.25,0.32-1.93,0.99v4.12c0.63,0.54,1.26,0.73,1.77,0.73C125.78,164.5,126.68,163.46,126.68,161.46z"/>
	<path class="st26" d="M132.93,158.8h-2.78v-1.65h7.63v1.65H135v7.2h-2.07V158.8z"/>
	<path class="st26" d="M140.05,157.16h2.01v3.05c0,0.91-0.1,2.09-0.18,3.2h0.06c0.31-0.54,0.8-1.34,1.1-1.87l2.81-4.38h1.9V166
		h-2.01v-3.05c0-0.91,0.1-2.08,0.19-3.2h-0.07c-0.31,0.54-0.79,1.35-1.09,1.87l-2.82,4.38h-1.9V157.16z"/>
	<path class="st26" d="M150.87,157.16h3.59c1.96,0,3.41,0.6,3.41,2.29c0,0.86-0.5,1.57-1.48,1.86v0.07c1.04,0.25,1.83,0.86,1.83,2.1
		c0,1.79-1.56,2.54-3.59,2.54h-3.77V157.16z M154.24,160.74c1.17,0,1.62-0.41,1.62-1.08c0-0.68-0.45-1.09-1.56-1.09h-1.4v2.17
		H154.24z M154.48,164.59c1.19,0,1.72-0.48,1.72-1.26c0-0.71-0.58-1.18-1.78-1.18h-1.52v2.44H154.48z"/>
	<path class="st26" d="M160.68,157.16h2.07v3.39h3.52v-3.39h2.07V166h-2.07v-3.64h-3.52V166h-2.07V157.16z"/>
	<path class="st26" d="M171.46,157.16h2.07v3.03h0.94c2.13,0,3.66,0.8,3.66,2.88c0,2.12-1.53,2.93-3.66,2.93h-3.01V157.16z
		 M174.33,164.39c1.21,0,1.79-0.42,1.79-1.34c0-0.89-0.58-1.3-1.79-1.3h-0.8v2.64H174.33z M179.48,157.16h2.07V166h-2.07V157.16z"/>
	<path class="st26" d="M186.41,161.39l-2.61-4.24h2.23l0.98,1.68c0.26,0.49,0.54,1,0.81,1.49h0.07c0.23-0.49,0.47-1,0.7-1.49
		l0.84-1.68h2.15l-2.61,4.47l2.8,4.38h-2.23l-1.08-1.75c-0.29-0.52-0.59-1.06-0.89-1.56h-0.07c-0.26,0.5-0.52,1.03-0.79,1.56
		l-0.94,1.75h-2.15L186.41,161.39z"/>
	<path class="st26" d="M198.12,157.16h2.38l1.42,3.57c0.25,0.73,0.48,1.4,0.71,2.07h0.07c0.24-0.67,0.49-1.34,0.72-2.07l1.35-3.57
		h2.37V166h-1.86v-3.1c0-0.87,0.14-2.49,0.22-3.44h-0.07c-0.25,0.74-0.59,1.58-0.84,2.29l-1.34,3.45h-1.22l-1.38-3.45
		c-0.25-0.71-0.59-1.57-0.84-2.29h-0.07c0.08,0.96,0.22,2.57,0.22,3.44v3.1h-1.84V157.16z"/>
	<path class="st26" d="M209.78,163.62c0-1.89,1.57-2.88,5.2-3.27c-0.03-0.95-0.41-1.74-1.61-1.74c-0.88,0-1.71,0.4-2.48,0.87
		l-0.76-1.38c0.97-0.61,2.23-1.16,3.63-1.16c2.21,0,3.3,1.36,3.3,3.82V166h-1.7l-0.16-0.98h-0.06c-0.79,0.68-1.7,1.2-2.74,1.2
		C210.84,166.22,209.78,165.17,209.78,163.62z M214.98,163.63v-1.99c-2.4,0.3-3.2,0.93-3.2,1.82c0,0.78,0.53,1.12,1.28,1.12
		C213.77,164.59,214.32,164.24,214.98,163.63z"/>
	<path class="st26" d="M220.02,157.16h5.8v1.65h-3.73v7.2h-2.07V157.16z"/>
	<path class="st26" d="M226.98,163.62c0-1.89,1.57-2.88,5.2-3.27c-0.03-0.95-0.41-1.74-1.61-1.74c-0.88,0-1.71,0.4-2.48,0.87
		l-0.76-1.38c0.97-0.61,2.23-1.16,3.63-1.16c2.21,0,3.3,1.36,3.3,3.82V166h-1.7l-0.16-0.98h-0.06c-0.79,0.68-1.7,1.2-2.74,1.2
		C228.05,166.22,226.98,165.17,226.98,163.62z M232.18,163.63v-1.99c-2.4,0.3-3.2,0.93-3.2,1.82c0,0.78,0.53,1.12,1.27,1.12
		C230.98,164.59,231.53,164.24,232.18,163.63z"/>
	<path class="st26" d="M236.49,165.13l0.84-1.33c0.77,0.59,1.6,0.81,2.36,0.81c1.07,0,1.91-0.49,1.91-1.29
		c0-0.8-0.62-1.17-1.79-1.17h-1.31v-1.41h1.13c1.11,0,1.67-0.41,1.67-1.11c0-0.71-0.6-1.08-1.57-1.08c-0.89,0-1.55,0.21-2.25,0.68
		l-0.8-1.35c0.9-0.61,1.94-0.94,3.18-0.94c1.82,0,3.44,0.77,3.44,2.46c0,0.79-0.48,1.58-1.43,1.91v0.07
		c1.06,0.27,1.79,0.92,1.79,2.15c0,1.71-1.82,2.69-3.77,2.69C238.68,166.22,237.58,165.97,236.49,165.13z"/>
	<path class="st26" d="M246.11,157.16h2.01v3.05c0,0.91-0.1,2.09-0.18,3.2H248c0.31-0.54,0.8-1.34,1.1-1.87l2.81-4.38h1.9V166h-2.01
		v-3.05c0-0.91,0.1-2.08,0.19-3.2h-0.07c-0.31,0.54-0.79,1.35-1.09,1.87l-2.82,4.38h-1.9V157.16z"/>
	<path class="st26" d="M256.92,157.16H259v3.39h3.52v-3.39h2.07V166h-2.07v-3.64H259V166h-2.07V157.16z"/>
	<path class="st26" d="M267.12,161.58c0-2.95,2-4.65,4.21-4.65c2.2,0,4.21,1.7,4.21,4.65c0,2.93-2,4.63-4.21,4.63
		C269.13,166.22,267.12,164.52,267.12,161.58z M273.4,161.58c0-1.77-0.78-2.95-2.07-2.95c-1.3,0-2.07,1.18-2.07,2.95
		s0.78,2.94,2.07,2.94C272.63,164.52,273.4,163.36,273.4,161.58z"/>
	<path class="st26" d="M278.07,157.16h3.59c1.96,0,3.41,0.6,3.41,2.29c0,0.86-0.5,1.57-1.48,1.86v0.07c1.04,0.25,1.83,0.86,1.83,2.1
		c0,1.79-1.56,2.54-3.59,2.54h-3.77V157.16z M281.45,160.74c1.17,0,1.62-0.41,1.62-1.08c0-0.68-0.45-1.09-1.56-1.09h-1.41v2.17
		H281.45z M281.68,164.59c1.19,0,1.72-0.48,1.72-1.26c0-0.71-0.58-1.18-1.78-1.18h-1.52v2.44H281.68z"/>
</g>
</svg>
