<?xml version="1.0" encoding="UTF-8"?>
<svg width="69px" height="48px" viewBox="0 0 69 48" version="1.1" xmlns="http://www.w3.org/2000/svg" xmlns:xlink="http://www.w3.org/1999/xlink">
    <title>Fill 1</title>
    <g id="Icons" stroke="none" stroke-width="1" fill="none" fill-rule="evenodd">
        <g id="0:-Logo/black" transform="translate(-178.000000, -21.000000)" fill="#231F20">
            <path d="M219,55.23286 L209.679592,63 C206.221683,61.2509192 203.254732,59.4378141 203.185006,55.23286 L191.605809,63 C189.292031,60.8769869 186.481783,58.7602334 183.275224,56.6570974 L183.275224,55.8777148 C186.027246,55.8777148 187.088352,55.0394695 187.088352,52.5125435 L187.088352,37.8251845 C187.118662,36.1336487 185.512208,31.5006216 181.250772,32.9881146 C180.059319,33.4041074 178.238894,35.4837422 181.470253,39.1148942 C182.156732,39.8970222 182.919884,40.0271573 183.196033,40.1374151 C181.50284,40.354197 179.536494,39.033848 178.561527,36.9051243 C178.432738,36.6284913 178.334258,36.3505404 178.250395,36.0761037 C178.19852,35.8932558 178.145687,35.712714 178.10687,35.525034 C178.10687,35.5136129 178.105432,35.5043881 178.102317,35.4880251 C178.055714,35.2406038 178.02708,34.987472 178.008391,34.7336812 C178.008391,34.7208324 178.006115,34.7095211 178.006115,34.6952447 C177.996051,34.550943 178.001442,34.4087279 178.001442,34.261571 C178.008391,31.1573287 180.101131,27.9811552 183.735152,26.5797601 C186.711448,25.4293004 189.529363,26.1168747 191.95408,27.5403434 L191.958034,27.5339739 C192.025483,27.5708729 192.08287,27.6107371 192.145767,27.6498325 C192.225556,27.6974938 192.298517,27.745155 192.375312,27.7934752 C197.597098,31.0270839 197.678445,34.5808137 197.678445,36.7244727 L197.678445,53.4189862 C197.678445,54.584491 198.029112,56.0718741 199.372476,56.0718741 C200.076805,56.0718741 200.502709,55.815228 201.063513,55.493789 L203.185006,54.1308304 L203.185006,36.5936788 C203.204294,35.1588988 202.083526,35.0087768 200.672592,34.9440936 L200.460778,34.3340513 C203.160925,32.1398757 208.409787,27.5339739 208.409787,27.5339739 C208.409787,27.5339739 213.633131,32.9056408 217.375695,33.7460825 L217.375695,34.5210724 L216.244743,34.5210724 C214.27001,34.5210724 213.775937,35.6232118 213.775937,38.0810619 L213.775937,52.5125435 C213.775937,54.7807368 214.905212,55.6196411 216.244743,55.6196411 C217.02359,55.6196411 217.938055,54.911421 218.433686,54.389563 L219,55.23286 Z M238,62 C236.283168,60.6108145 234.283693,59.0996957 232,58.0942796 L232,40 C236.998444,40.945198 238,42.9631963 238,45.8646772 L238,62 Z M236.948533,31.182896 L226.758624,27.6021484 C226.685836,27.5713313 226.61849,27.5420605 226.540986,27.5142258 C225.028527,26.8977734 224.057863,26.3134636 224.026548,24.8159074 C224.00696,23.9262985 225.382429,21.279563 230.328242,22.6104417 C231.392973,22.8843715 231.824379,23.4872378 232.041895,23.6767795 C231.598036,22.1555858 229.489975,21 226.947364,21 C226.61849,21 226.295177,21.0199925 225.983713,21.0564428 C225.775386,21.0836148 225.574192,21.109351 225.372273,21.1545273 C225.354257,21.1587246 225.344101,21.1601605 225.333098,21.1609337 C225.060689,21.2210215 224.790697,21.293149 224.529169,21.3776475 C224.515869,21.3811821 224.500151,21.3847166 224.486126,21.3869257 C224.335835,21.4376248 224.194129,21.5013577 224.046135,21.5563645 C220.900064,22.7735846 218.495895,25.7914507 218.495895,29.4243334 C218.495895,34.8271555 224.410194,37.4324702 229.041399,38.6059499 C229.041399,41.0746311 225.904639,41.271242 223.411238,41.271242 C222.128991,41.271242 220.702739,40.9472759 219.636557,40.6226471 L219.636557,57.8696164 C219.636557,58.6491012 219.563649,60.3432682 217,60.5391059 L217,61.3193638 C222.486037,62.6882392 227.330769,65.6180724 231.392973,69 C233.385202,65.4858571 236.02176,64.1849118 239.942137,63.3353982 C245.854864,62.0345634 247,60.6699957 247,49.2135474 C247,40.6226471 246.639205,34.4389043 236.948533,31.182896 L236.948533,31.182896 Z" id="Fill-1"></path>
        </g>
    </g>
</svg>