<?xml version="1.0" encoding="UTF-8" standalone="no"?><!-- Generator: Gravit.io --><svg xmlns="http://www.w3.org/2000/svg" xmlns:xlink="http://www.w3.org/1999/xlink" style="isolation:isolate" viewBox="0 0 150 150" width="150pt" height="150pt"><defs><clipPath id="_clipPath_fOGD4qDJtL4LQzcwYcsVLHGuNIruNgTU"><rect width="150" height="150"/></clipPath></defs><g clip-path="url(#_clipPath_fOGD4qDJtL4LQzcwYcsVLHGuNIruNgTU)"><g><g><g><g><path d=" M 108.083 67.913 L 106.466 77.885 L 109.48 77.885 L 110.251 73.046 L 112.528 73.046 L 111.759 77.885 L 114.772 77.885 L 116.392 67.913 L 113.377 67.913 L 112.86 71.087 L 110.583 71.087 L 111.099 67.913 L 108.083 67.913 Z " fill="rgb(0,146,215)"/><path d=" M 89.746 81.023 L 90.294 77.849 L 93.165 77.849 C 93.897 77.849 94.523 77.59 95 77.147 C 95.515 76.632 95.847 76.075 95.957 75.412 C 95.957 75.412 96.69 70.98 96.69 70.755 C 96.786 69.95 96.433 69.28 95.847 68.726 C 95.331 68.135 94.669 67.877 93.856 67.877 L 88.9 67.877 L 86.73 81.026 L 89.747 81.026 L 89.747 81.023 L 89.746 81.023 L 89.746 81.023 Z  M 91.545 69.871 L 92.498 69.871 C 92.833 69.871 93.09 69.981 93.309 70.203 C 93.744 70.642 93.642 71.161 93.642 71.161 L 92.977 74.856 C 92.863 75.519 92.498 75.851 91.874 75.851 L 90.555 75.851 L 91.545 69.871 Z " fill="rgb(0,146,215)"/><path d=" M 100.329 71.087 C 98.894 71.087 97.789 71.804 97.537 73.34 L 97.348 74.562 C 97.348 74.672 97.314 74.821 97.314 75.001 C 97.314 75.818 97.606 76.482 98.123 77.036 C 98.714 77.589 99.374 77.886 100.145 77.886 L 105.143 77.886 C 105.143 77.886 106.283 70.943 106.283 70.719 C 106.427 69.894 106.027 69.314 105.436 68.759 C 104.887 68.17 104.221 67.913 103.414 67.913 L 98.458 67.913 L 98.16 69.872 L 102.096 69.872 C 102.386 69.872 102.682 69.983 102.941 70.276 C 103.196 70.572 103.307 70.831 103.231 71.088 L 100.329 71.087 L 100.329 71.087 Z  M 102.386 75.85 L 101.466 75.85 C 101.212 75.85 100.238 75.631 100.366 74.671 L 100.476 73.892 C 100.588 73.6 100.696 73.413 100.88 73.306 C 101.1 73.118 101.323 73.047 101.577 73.047 L 102.9 73.047 L 102.386 75.85 Z " fill="rgb(0,146,215)"/><path d=" M 83.567 77.885 L 84.852 69.907 L 87.134 69.907 L 87.463 67.913 L 79.892 67.913 L 79.561 69.907 L 81.841 69.907 L 80.592 77.885 L 83.567 77.885 Z " fill="rgb(0,146,215)"/><path d=" M 75.007 65.436 C 75.116 64.922 75.483 64.7 76.105 64.7 L 81.475 64.7 L 81.768 62.742 L 74.076 62.742 L 73.868 62.742 C 73.78 62.746 73.7 62.763 73.615 62.773 C 73.104 62.838 72.653 63.012 72.248 63.308 C 72.187 63.353 72.122 63.391 72.063 63.443 C 72.037 63.462 72.017 63.489 71.992 63.51 C 71.562 63.876 71.284 64.369 71.109 65.029 L 69.525 74.523 L 69.489 75.042 C 69.489 75.781 69.786 76.447 70.334 77.037 C 70.925 77.591 71.587 77.888 72.323 77.888 L 79.303 77.888 L 79.596 75.853 L 74.636 75.853 C 73.245 75.853 73.461 74.932 73.495 74.565 L 75.007 65.436 Z " fill="rgb(0,146,215)"/><path d=" M 124.509 68.759 C 123.961 68.17 123.298 67.913 122.491 67.913 L 117.531 67.913 L 117.235 69.872 L 121.166 69.872 C 121.496 69.872 121.792 69.983 122.013 70.276 C 122.266 70.572 122.378 70.831 122.306 71.088 L 119.293 71.088 C 118.042 71.088 117.16 71.755 116.722 73.048 L 116.608 73.342 L 116.424 74.565 C 116.424 74.674 116.391 74.823 116.391 75.004 C 116.391 75.171 116.412 75.326 116.433 75.479 C 116.453 75.606 116.485 75.723 116.519 75.841 C 116.65 76.289 116.872 76.688 117.194 77.038 C 117.786 77.591 118.449 77.889 119.216 77.889 L 122.384 77.889 L 123.137 77.889 L 124.214 77.889 L 124.291 77.418 L 124.366 76.962 L 124.484 76.239 L 124.551 75.832 L 125.318 71.165 C 125.353 71.091 125.353 70.946 125.353 70.722 C 125.356 69.981 125.1 69.313 124.509 68.759 Z  M 121.46 75.85 L 120.54 75.85 C 120.285 75.85 119.303 75.727 119.439 74.671 L 119.588 73.892 C 119.731 73.178 120.399 73.046 120.619 73.046 L 121.976 73.046 L 121.46 75.85 Z " fill="rgb(0,146,215)"/><path d=" M 19.858 70.44 C 18.375 70.44 17.215 71.013 16.214 71.976 L 14.766 70.69 L 14.869 68.979 C 14.869 68.959 14.89 68.838 14.89 68.818 C 15.11 68.487 15.292 68.17 15.434 67.906 C 15.507 67.885 15.592 67.855 15.704 67.792 C 16.077 67.576 16.138 67.182 16.226 66.878 C 16.277 66.696 16.165 66.474 16.014 66.32 C 15.965 66.273 15.764 66.035 15.495 65.987 C 15.121 65.919 14.55 65.796 14.55 65.796 L 10.756 63.705 C 8.997 62.867 7.937 62.339 7.217 62.041 L 7.229 62.019 C 7.229 62.019 8.117 62.351 8.498 61.704 C 8.593 61.541 8.618 61.473 8.704 61.318 C 8.725 61.324 8.742 61.329 8.76 61.331 C 8.934 61.371 9.078 61.343 9.026 61.124 C 8.981 60.926 9.129 60.407 9.129 60.407 L 9.121 60.41 C 9.123 60.407 9.123 60.407 9.123 60.401 C 9.488 60.316 9.791 60.111 9.931 59.716 C 10.342 58.572 8.352 57.663 6.815 58.143 C 5.747 58.478 5.54 58.887 5.54 58.887 C 5.54 58.887 5.715 59.105 5.991 59.363 C 5.846 59.638 5.763 59.982 5.712 60.349 C 5.694 60.461 5.629 60.642 5.542 60.845 C 5.401 61.03 5.22 61.247 4.993 61.45 C 4.463 61.925 3.959 62.126 3.613 62.558 C 3.599 62.578 3.586 62.597 3.582 62.617 C 3.283 62.894 2.984 63.244 2.702 63.686 C 1.41 65.73 0.403 67.828 0.403 67.828 C 0.403 67.828 -0.446 69.684 0.321 71.002 C 0.65 71.571 1.83 72.211 2.683 72.612 C 4.242 73.341 5.871 74.515 5.871 74.515 C 5.871 74.515 5.93 75.765 6.169 76.929 C 5.972 76.905 5.775 76.892 5.573 76.892 C 2.506 76.892 0.009 79.402 0.009 82.484 C 0.009 85.57 2.505 88.078 5.573 88.078 C 8.641 88.078 11.136 85.57 11.136 82.484 C 11.136 82.469 11.134 82.453 11.134 82.437 C 11.256 82.467 11.384 82.484 11.514 82.484 C 12.456 82.484 13.215 81.721 13.215 80.778 C 13.215 80.214 12.938 79.719 12.523 79.408 C 12.961 78.8 13.54 78.003 13.658 77.843 C 13.854 77.575 13.623 77.466 13.623 77.466 C 13.623 77.466 13.299 77.14 13.059 77.271 L 14.636 71.711 L 15.644 72.606 C 14.922 73.551 14.485 74.73 14.485 76.007 C 14.485 79.089 16.983 81.6 20.047 81.6 C 23.111 81.6 25.422 79.108 25.422 76.026 C 25.424 72.949 22.927 70.44 19.858 70.44 Z  M 5.574 87.083 C 3.056 87.083 1.003 85.02 1.003 82.486 C 1.003 79.953 3.056 77.891 5.574 77.891 C 5.875 77.891 6.173 77.923 6.455 77.981 C 6.509 78.112 6.56 78.237 6.615 78.344 C 6.653 78.417 6.691 78.492 6.732 78.568 L 5.645 81.546 C 5.622 81.543 5.596 81.537 5.573 81.537 C 5.053 81.537 4.634 81.963 4.634 82.485 C 4.634 83.009 5.053 83.436 5.573 83.436 C 6.098 83.436 6.516 83.01 6.516 82.485 C 6.516 82.479 6.516 82.475 6.516 82.47 L 8.102 81.941 C 8.156 82.229 8.285 82.511 8.652 82.436 C 8.973 82.366 9.566 82.196 10.123 82.03 C 10.136 82.181 10.146 82.335 10.146 82.487 C 10.146 85.021 8.094 87.083 5.574 87.083 Z  M 7.164 79.448 C 7.516 80.191 7.833 80.913 7.975 81.234 L 6.31 81.793 L 7.164 79.448 Z  M 8.795 79.23 C 9.223 79.66 9.569 80.172 9.803 80.747 C 9.18 80.699 8.897 80.523 8.897 80.523 C 8.897 80.523 8.852 79.997 8.795 79.23 Z  M 10.312 79.574 C 9.899 78.896 9.349 78.312 8.698 77.862 C 8.682 77.639 8.669 77.408 8.654 77.181 C 9.37 77.931 10.159 78.301 10.811 79.162 C 10.823 79.179 10.833 79.193 10.846 79.214 C 10.647 79.297 10.465 79.423 10.312 79.574 Z  M 12.098 78.062 C 11.809 78.193 11.567 78.249 11.567 78.249 L 10.029 75.574 L 13.866 71.838 L 12.098 78.062 Z  M 13.904 70.813 L 9.664 74.938 L 8.387 72.707 C 8.111 72.062 7.652 71.674 7.357 71.459 C 6.897 71.125 6.316 70.587 4.861 69.134 L 6.032 66.544 L 8.284 67.951 C 8.284 67.951 12.011 69.597 12.391 69.752 C 12.558 69.821 12.698 69.858 12.814 69.888 C 12.701 70.035 12.688 70.244 12.807 70.398 C 12.888 70.511 13.015 70.567 13.146 70.567 C 13.233 70.567 13.322 70.542 13.4 70.484 C 13.417 70.468 13.442 70.447 13.462 70.429 C 13.512 70.502 13.575 70.56 13.667 70.567 C 13.756 70.579 13.847 70.558 13.924 70.533 L 13.904 70.813 Z  M 13.886 68.763 C 13.881 68.763 13.871 68.759 13.865 68.756 C 13.522 68.723 12.557 68.684 12.557 68.684 C 12.557 68.684 10.407 67.408 9.57 66.877 C 8.732 66.341 6.973 64.865 6.973 64.865 L 7.458 64.097 C 7.458 64.097 9.68 64.843 10.469 65.232 C 11.261 65.624 14.324 66.878 14.324 66.878 C 14.333 67.109 14.513 67.363 14.664 67.54 C 14.476 67.89 14.212 68.334 13.886 68.763 Z  M 20.048 80.608 C 17.534 80.608 15.479 78.547 15.479 76.012 C 15.479 74.986 15.82 74.037 16.394 73.267 L 19.159 75.715 C 19.128 75.807 19.106 75.906 19.106 76.012 C 19.106 76.537 19.528 76.964 20.047 76.964 C 20.572 76.964 20.992 76.538 20.992 76.012 C 20.992 75.489 20.572 75.064 20.047 75.064 C 19.948 75.064 19.856 75.085 19.765 75.114 L 16.961 72.637 C 17.774 71.886 18.858 71.419 20.047 71.419 C 22.573 71.419 24.623 73.481 24.623 76.012 C 24.624 78.548 22.573 80.608 20.048 80.608 Z " fill="rgb(77,77,79)"/><path d=" M 40.605 69.24 C 40.643 69.24 40.68 69.204 40.68 69.204 C 41.192 68.724 41.487 68.171 41.634 67.505 L 41.892 65.621 C 41.892 64.81 41.634 64.145 41.083 63.627 C 40.532 63.036 39.832 62.743 39.061 62.743 L 31.38 62.743 L 28.878 77.887 L 37.406 77.887 C 38.179 77.887 38.804 77.66 39.353 77.22 C 39.869 76.739 40.2 76.184 40.309 75.52 C 40.309 75.52 41.064 70.831 41.082 70.755 C 41.216 70.178 40.931 69.649 40.605 69.24 Z  M 37.959 71.199 L 37.372 74.893 C 37.258 75.19 37.151 75.411 36.968 75.558 C 36.71 75.74 36.49 75.851 36.233 75.851 L 33.108 75.851 L 34.137 69.871 L 36.891 69.871 C 37.222 69.871 37.517 69.982 37.74 70.275 C 37.959 70.497 37.997 70.83 37.959 71.199 Z  M 38.843 66.028 L 38.693 66.878 C 38.62 67.176 38.472 67.394 38.291 67.58 C 38.106 67.727 37.81 67.839 37.554 67.839 L 34.43 67.839 L 34.982 64.738 L 37.778 64.738 C 37.996 64.738 38.292 64.846 38.546 65.065 C 38.804 65.324 38.916 65.62 38.843 66.028 Z " fill="rgb(77,77,79)"/><path d=" M 65.266 77.885 C 65.925 77.885 66.516 77.625 67.103 77.18 C 67.655 76.701 67.985 76.15 68.094 75.558 L 68.829 70.978 C 68.987 70.132 68.609 69.24 68.024 68.724 C 67.509 68.171 66.81 67.913 66.001 67.913 L 63.429 67.913 C 62.769 67.913 62.178 68.096 61.626 68.539 C 61.073 68.87 60.742 69.426 60.634 70.164 L 59.934 74.487 C 59.934 74.562 59.901 74.746 59.901 75.002 C 59.901 75.819 60.196 76.483 60.709 77.037 C 61.296 77.59 61.958 77.887 62.731 77.887 L 65.266 77.885 L 65.266 77.885 Z  M 63.022 74.521 L 63.61 70.83 C 63.723 70.163 64.088 69.871 64.64 69.871 C 65.876 69.871 65.815 70.942 65.78 71.125 L 65.157 74.857 C 65.045 75.52 64.678 75.851 64.056 75.851 C 63.76 75.85 62.809 75.85 63.022 74.521 Z " fill="rgb(77,77,79)"/><path d=" M 58.136 77.885 L 59.717 67.948 L 56.484 67.948 C 55.236 67.948 54.315 68.5 53.763 69.686 L 49.831 77.885 L 52.806 77.885 L 56.409 69.981 L 55.125 77.885 L 58.136 77.885 Z " fill="rgb(77,77,79)"/><path d=" M 49.719 68.759 C 49.17 68.17 48.506 67.913 47.734 67.913 L 46.689 67.913 L 46.315 67.913 L 44.778 67.941 C 44.658 67.956 44.542 67.982 44.428 68.012 C 44.053 68.105 43.698 68.271 43.361 68.541 C 42.811 68.986 42.482 69.538 42.366 70.205 L 41.67 74.449 C 41.67 74.563 41.634 74.747 41.634 74.966 C 41.634 75.742 41.926 76.447 42.44 77.037 C 42.699 77.296 42.994 77.519 43.324 77.661 C 43.393 77.692 43.463 77.702 43.531 77.726 C 43.652 77.765 43.773 77.809 43.894 77.833 C 44.07 77.869 44.247 77.887 44.427 77.887 L 49.46 77.887 L 49.719 75.852 L 45.823 75.852 C 45.53 75.852 45.232 75.741 45.013 75.521 C 44.795 75.3 44.684 75.002 44.684 74.708 L 44.684 74.674 L 49.974 74.674 L 50.524 71.237 C 50.562 71.125 50.619 69.641 49.719 68.759 Z  M 47.517 71.199 L 47.254 72.64 L 44.978 72.64 L 45.274 70.978 C 45.382 70.24 45.75 69.871 46.337 69.871 C 47.682 69.871 47.587 70.754 47.517 71.199 Z " fill="rgb(77,77,79)"/><g><path d=" M 30.865 89.338 L 31.152 87.401 C 31.227 86.893 31.333 86.245 31.464 85.567 L 31.444 85.567 C 31.185 86.174 30.893 86.822 30.635 87.337 L 29.673 89.258 L 28.894 89.258 L 28.726 87.359 C 28.685 86.843 28.649 86.197 28.622 85.567 L 28.607 85.567 C 28.476 86.187 28.336 86.892 28.217 87.401 L 27.75 89.338 L 26.832 89.338 L 28.009 84.641 L 29.354 84.641 L 29.498 86.426 C 29.527 86.865 29.577 87.401 29.583 87.923 L 29.611 87.923 C 29.791 87.401 30.042 86.851 30.247 86.426 L 31.116 84.641 L 32.474 84.641 L 31.841 89.338 L 30.865 89.338 Z " fill="rgb(77,77,79)"/><path d=" M 34.297 85.93 L 33.962 87.247 L 33.974 87.247 C 34.199 87.053 34.553 86.933 34.866 86.933 C 35.416 86.933 35.8 87.276 35.8 87.867 C 35.8 88.605 35.181 89.4 33.933 89.4 C 33.398 89.4 32.777 89.275 32.777 88.578 C 32.777 88.383 32.833 88.084 32.874 87.889 L 33.306 85.93 L 34.297 85.93 L 34.297 85.93 Z  M 34.819 88.048 C 34.819 87.797 34.673 87.651 34.428 87.651 C 34.128 87.651 33.877 87.915 33.815 88.126 C 33.788 88.208 33.773 88.279 33.773 88.383 C 33.773 88.563 33.892 88.689 34.142 88.689 C 34.463 88.69 34.819 88.438 34.819 88.048 Z  M 37.611 85.93 L 36.957 89.338 L 35.905 89.338 L 36.56 85.93 L 37.611 85.93 Z " fill="rgb(77,77,79)"/><path d=" M 39.775 87.254 L 40.174 87.254 C 40.507 87.254 40.883 87.157 40.883 86.899 C 40.883 86.676 40.667 86.572 40.396 86.572 C 40.131 86.572 39.798 86.662 39.553 86.789 L 39.386 86.181 C 39.726 85.992 40.187 85.867 40.624 85.867 C 41.184 85.867 41.941 86.033 41.941 86.746 C 41.941 87.22 41.503 87.47 41.071 87.554 L 41.065 87.562 C 41.44 87.624 41.838 87.875 41.838 88.35 C 41.838 89.171 40.89 89.4 40.215 89.4 C 39.713 89.4 39.239 89.303 38.863 89.059 L 39.121 88.391 C 39.393 88.551 39.76 88.669 40.102 88.669 C 40.422 88.669 40.779 88.552 40.779 88.28 C 40.779 87.994 40.451 87.902 40.082 87.902 L 39.677 87.902 L 39.775 87.254 Z " fill="rgb(77,77,79)"/><path d=" M 43.942 85.93 L 43.705 87.187 L 44.743 87.187 L 44.98 85.93 L 45.983 85.93 L 45.335 89.338 L 44.332 89.338 L 44.597 87.959 L 43.561 87.959 L 43.301 89.338 L 42.299 89.338 L 42.94 85.93 L 43.942 85.93 Z " fill="rgb(77,77,79)"/><path d=" M 48.439 89.338 C 48.445 89.137 48.458 88.905 48.478 88.662 L 48.465 88.662 C 48.138 89.228 47.699 89.416 47.302 89.416 C 46.689 89.416 46.273 88.941 46.273 88.23 C 46.273 87.081 47.039 85.856 48.717 85.856 C 49.121 85.856 49.56 85.93 49.839 86.023 L 49.498 87.805 C 49.414 88.245 49.344 88.913 49.358 89.338 L 48.439 89.338 Z  M 48.709 86.643 C 48.633 86.628 48.544 86.613 48.445 86.613 C 47.79 86.613 47.315 87.407 47.315 88.041 C 47.315 88.375 47.449 88.605 47.726 88.605 C 48.032 88.605 48.41 88.265 48.563 87.428 L 48.709 86.643 Z " fill="rgb(77,77,79)"/><path d=" M 52.89 89.143 C 52.494 89.344 51.999 89.415 51.615 89.415 C 50.648 89.415 50.146 88.864 50.146 87.972 C 50.146 86.934 50.898 85.855 52.132 85.855 C 52.821 85.855 53.317 86.246 53.317 86.878 C 53.317 87.743 52.472 88.055 51.1 88.02 C 51.107 88.118 51.142 88.272 51.212 88.369 C 51.345 88.543 51.574 88.632 51.866 88.632 C 52.236 88.632 52.549 88.55 52.821 88.416 L 52.89 89.143 Z  M 52.006 86.584 C 51.539 86.584 51.267 86.975 51.197 87.289 C 51.985 87.297 52.375 87.193 52.375 86.871 C 52.374 86.706 52.236 86.584 52.006 86.584 Z " fill="rgb(77,77,79)"/><path d=" M 55.587 85.924 L 55.72 87.254 C 55.741 87.456 55.761 87.749 55.783 88.054 L 55.798 88.054 C 55.881 87.859 56.068 87.477 56.243 87.136 L 56.877 85.923 L 58.152 85.923 L 57.7 89.336 L 56.772 89.336 L 56.982 87.971 C 57.023 87.678 57.106 87.178 57.169 86.836 L 57.141 86.836 C 57.037 87.08 56.842 87.469 56.633 87.888 L 55.916 89.281 L 55.149 89.281 L 55.016 87.929 C 54.981 87.547 54.947 87.128 54.926 86.829 L 54.898 86.829 C 54.823 87.198 54.716 87.708 54.647 87.992 L 54.312 89.337 L 53.427 89.337 L 54.327 85.923 L 55.587 85.923 L 55.587 85.924 Z " fill="rgb(77,77,79)"/><path d=" M 59.861 87.999 C 59.861 86.823 60.683 85.85 61.896 85.85 C 62.815 85.85 63.344 86.475 63.344 87.255 C 63.344 88.502 62.487 89.416 61.31 89.416 C 60.44 89.415 59.861 88.849 59.861 87.999 Z  M 62.306 87.261 C 62.306 86.948 62.167 86.614 61.77 86.614 C 61.193 86.614 60.9 87.456 60.9 87.986 C 60.9 88.384 61.101 88.647 61.45 88.647 C 61.992 88.647 62.306 87.839 62.306 87.261 Z " fill="rgb(77,77,79)"/><path d=" M 68.292 86.69 C 68.292 87.136 67.854 87.407 67.497 87.499 L 67.497 87.511 C 67.854 87.554 68.209 87.783 68.209 88.223 C 68.209 89.122 67.158 89.405 66.411 89.405 C 65.535 89.405 65.075 89.071 65.075 88.353 C 65.075 87.727 65.345 86.613 65.959 86.166 C 66.259 85.956 66.621 85.847 67.067 85.847 C 67.813 85.85 68.292 86.119 68.292 86.69 Z  M 66.12 87.986 C 66.099 88.077 66.078 88.202 66.078 88.305 C 66.078 88.543 66.196 88.717 66.531 88.717 C 66.922 88.717 67.192 88.521 67.192 88.25 C 67.192 87.965 66.95 87.881 66.678 87.881 C 66.475 87.881 66.254 87.938 66.12 87.986 Z  M 66.237 87.345 C 66.507 87.303 66.808 87.254 67.039 87.15 C 67.198 87.074 67.331 86.961 67.331 86.801 C 67.331 86.633 67.185 86.53 66.975 86.53 C 66.53 86.53 66.342 86.969 66.237 87.345 Z " fill="rgb(77,77,79)"/><path d=" M 71.499 89.143 C 71.103 89.344 70.608 89.415 70.224 89.415 C 69.257 89.415 68.756 88.864 68.756 87.972 C 68.756 86.934 69.506 85.855 70.74 85.855 C 71.431 85.855 71.925 86.246 71.925 86.878 C 71.925 87.743 71.081 88.055 69.709 88.02 C 69.717 88.118 69.752 88.272 69.821 88.369 C 69.954 88.543 70.182 88.632 70.477 88.632 C 70.846 88.632 71.159 88.55 71.431 88.416 L 71.499 89.143 Z  M 70.614 86.584 C 70.148 86.584 69.875 86.975 69.806 87.289 C 70.594 87.297 70.983 87.193 70.983 86.871 C 70.983 86.706 70.845 86.584 70.614 86.584 Z " fill="rgb(77,77,79)"/><path d=" M 75.771 85.924 L 75.125 89.337 L 74.129 89.337 L 74.623 86.697 L 73.869 86.697 L 73.736 87.344 C 73.57 88.208 73.348 88.697 72.991 89.003 C 72.742 89.246 72.436 89.385 71.933 89.385 L 71.871 88.598 C 72.08 88.577 72.247 88.506 72.365 88.391 C 72.581 88.193 72.728 87.824 72.824 87.323 L 73.089 85.922 L 75.771 85.922 L 75.771 85.924 L 75.771 85.924 Z " fill="rgb(77,77,79)"/><path d=" M 76.101 87.999 C 76.101 86.823 76.923 85.85 78.135 85.85 C 79.054 85.85 79.582 86.475 79.582 87.255 C 79.582 88.502 78.726 89.416 77.549 89.416 C 76.678 89.415 76.101 88.849 76.101 87.999 Z  M 78.545 87.261 C 78.545 86.948 78.405 86.614 78.01 86.614 C 77.431 86.614 77.14 87.456 77.14 87.986 C 77.14 88.384 77.341 88.647 77.69 88.647 C 78.232 88.647 78.545 87.839 78.545 87.261 Z " fill="rgb(77,77,79)"/><path d=" M 82.428 89.227 C 82.212 89.332 81.863 89.405 81.461 89.405 C 80.617 89.405 80.024 88.892 80.024 88.013 C 80.024 86.8 80.951 85.854 82.247 85.854 C 82.541 85.854 82.792 85.908 82.945 85.967 L 82.692 86.74 C 82.574 86.69 82.434 86.655 82.232 86.655 C 81.521 86.655 81.077 87.261 81.077 87.902 C 81.077 88.369 81.376 88.605 81.745 88.605 C 82.036 88.605 82.246 88.535 82.418 88.467 L 82.428 89.227 Z " fill="rgb(77,77,79)"/><path d=" M 84.575 85.93 L 84.226 87.756 C 84.197 87.916 84.177 88.083 84.177 88.208 C 84.177 88.425 84.268 88.598 84.519 88.598 C 84.859 88.598 85.208 88.188 85.34 87.511 L 85.638 85.929 L 86.634 85.929 L 86.204 88.228 C 86.127 88.66 86.064 89.029 86.024 89.337 L 85.138 89.337 L 85.201 88.78 L 85.187 88.78 C 84.839 89.226 84.429 89.414 84.017 89.414 C 83.466 89.414 83.139 89.107 83.139 88.458 C 83.139 88.279 83.158 88.069 83.21 87.832 L 83.57 85.929 L 84.575 85.93 L 84.575 85.93 Z " fill="rgb(77,77,79)"/><path d=" M 86.842 89.338 L 87.273 87.04 C 87.357 86.608 87.41 86.237 87.461 85.93 L 88.345 85.93 L 88.282 86.496 L 88.296 86.496 C 88.617 86.057 89.034 85.856 89.487 85.856 C 90.046 85.856 90.366 86.198 90.366 86.79 C 90.366 86.943 90.336 87.194 90.311 87.361 L 89.935 89.338 L 88.925 89.338 L 89.287 87.451 C 89.306 87.334 89.32 87.2 89.32 87.074 C 89.32 86.831 89.236 86.662 88.978 86.662 C 88.652 86.662 88.271 87.074 88.128 87.826 L 87.844 89.338 L 86.842 89.338 L 86.842 89.338 Z " fill="rgb(77,77,79)"/><path d=" M 93.656 89.143 C 93.257 89.344 92.765 89.415 92.38 89.415 C 91.414 89.415 90.912 88.864 90.912 87.972 C 90.912 86.934 91.664 85.855 92.897 85.855 C 93.587 85.855 94.08 86.246 94.08 86.878 C 94.08 87.743 93.239 88.055 91.866 88.02 C 91.873 88.118 91.908 88.272 91.978 88.369 C 92.111 88.543 92.341 88.632 92.633 88.632 C 93.002 88.632 93.315 88.55 93.587 88.416 L 93.656 89.143 Z  M 92.771 86.584 C 92.305 86.584 92.033 86.975 91.964 87.289 C 92.749 87.297 93.141 87.193 93.141 86.871 C 93.141 86.706 93.002 86.584 92.771 86.584 Z " fill="rgb(77,77,79)"/><path d=" M 95.169 84.329 C 95.467 84.413 95.887 84.398 96.187 84.425 C 96.7 84.48 97.092 84.607 97.383 84.878 C 97.788 85.22 97.934 85.798 97.934 86.453 C 97.934 87.755 97.357 89.414 95.794 89.414 C 94.932 89.414 94.408 88.883 94.408 87.997 C 94.408 86.995 95.113 85.921 96.199 85.921 C 96.66 85.921 96.952 86.146 97.098 86.486 L 97.12 86.486 C 97.128 86.416 97.128 86.333 97.128 86.278 C 97.135 86.026 97.042 85.721 96.829 85.539 C 96.606 85.323 96.278 85.255 95.853 85.226 C 95.644 85.205 95.435 85.197 95.185 85.149 L 95.169 84.329 Z  M 96.779 87.372 C 96.779 87.039 96.653 86.677 96.278 86.677 C 95.713 86.677 95.441 87.486 95.448 88.021 C 95.448 88.363 95.586 88.676 95.951 88.676 C 96.487 88.676 96.772 87.825 96.779 87.372 Z " fill="rgb(77,77,79)"/><path d=" M 100.445 89.338 C 100.454 89.137 100.468 88.905 100.486 88.662 L 100.473 88.662 C 100.147 89.228 99.708 89.416 99.31 89.416 C 98.698 89.416 98.28 88.941 98.28 88.23 C 98.28 87.081 99.047 85.856 100.726 85.856 C 101.129 85.856 101.568 85.93 101.847 86.023 L 101.506 87.805 C 101.422 88.245 101.353 88.913 101.367 89.338 L 100.445 89.338 Z  M 100.718 86.643 C 100.641 86.628 100.552 86.613 100.454 86.613 C 99.799 86.613 99.324 87.407 99.324 88.041 C 99.324 88.375 99.458 88.605 99.736 88.605 C 100.042 88.605 100.42 88.265 100.571 87.428 L 100.718 86.643 Z " fill="rgb(77,77,79)"/><path d=" M 103.402 85.93 L 103.605 86.441 C 103.706 86.711 103.77 86.886 103.82 87.009 L 103.84 87.009 C 103.965 86.829 104.057 86.675 104.202 86.466 L 104.579 85.93 L 105.726 85.93 L 104.293 87.588 L 105.088 89.336 L 103.987 89.336 L 103.771 88.792 C 103.672 88.549 103.617 88.374 103.555 88.172 L 103.534 88.172 C 103.437 88.332 103.344 88.507 103.192 88.742 L 102.782 89.335 L 101.623 89.335 L 103.101 87.571 L 102.302 85.927 L 103.401 85.927 L 103.401 85.929 L 103.402 85.93 L 103.402 85.93 Z " fill="rgb(77,77,79)"/><path d=" M 110.162 86.69 C 110.162 87.136 109.722 87.407 109.368 87.499 L 109.368 87.511 C 109.724 87.554 110.078 87.783 110.078 88.223 C 110.078 89.122 109.027 89.405 108.281 89.405 C 107.404 89.405 106.943 89.071 106.943 88.353 C 106.943 87.727 107.215 86.613 107.828 86.166 C 108.128 85.956 108.49 85.847 108.936 85.847 C 109.679 85.85 110.162 86.119 110.162 86.69 Z  M 107.988 87.986 C 107.966 88.077 107.947 88.202 107.947 88.305 C 107.947 88.543 108.064 88.717 108.398 88.717 C 108.789 88.717 109.06 88.521 109.06 88.25 C 109.06 87.965 108.817 87.881 108.546 87.881 C 108.344 87.881 108.119 87.938 107.988 87.986 Z  M 108.107 87.345 C 108.377 87.303 108.677 87.254 108.906 87.15 C 109.068 87.074 109.2 86.961 109.2 86.801 C 109.2 86.633 109.054 86.53 108.843 86.53 C 108.398 86.53 108.211 86.969 108.107 87.345 Z " fill="rgb(77,77,79)"/><path d=" M 113.02 89.227 C 112.804 89.332 112.455 89.405 112.051 89.405 C 111.21 89.405 110.615 88.892 110.615 88.013 C 110.615 86.8 111.542 85.854 112.839 85.854 C 113.132 85.854 113.382 85.908 113.535 85.967 L 113.284 86.74 C 113.166 86.69 113.026 86.655 112.823 86.655 C 112.112 86.655 111.666 87.261 111.666 87.902 C 111.666 88.369 111.966 88.605 112.335 88.605 C 112.626 88.605 112.838 88.535 113.011 88.467 L 113.02 89.227 Z " fill="rgb(77,77,79)"/><path d=" M 116.335 89.143 C 115.939 89.344 115.445 89.415 115.061 89.415 C 114.093 89.415 113.592 88.864 113.592 87.972 C 113.592 86.934 114.345 85.855 115.576 85.855 C 116.266 85.855 116.761 86.246 116.761 86.878 C 116.761 87.743 115.917 88.055 114.546 88.02 C 114.553 88.118 114.587 88.272 114.657 88.369 C 114.791 88.543 115.02 88.632 115.313 88.632 C 115.681 88.632 115.993 88.55 116.267 88.416 L 116.335 89.143 Z  M 114.491 85.02 C 114.491 84.704 114.728 84.495 115.02 84.495 C 115.291 84.495 115.472 84.698 115.472 84.957 C 115.472 85.276 115.242 85.48 114.948 85.48 C 114.706 85.478 114.491 85.304 114.491 85.02 Z  M 115.45 86.584 C 114.983 86.584 114.714 86.975 114.642 87.289 C 115.43 87.297 115.821 87.193 115.821 86.871 C 115.821 86.706 115.681 86.584 115.45 86.584 Z  M 115.926 85.02 C 115.926 84.704 116.162 84.495 116.454 84.495 C 116.728 84.495 116.908 84.698 116.908 84.957 C 116.908 85.276 116.678 85.48 116.384 85.48 C 116.135 85.478 115.926 85.304 115.926 85.02 Z " fill="rgb(77,77,79)"/><path d=" M 116.986 88.843 C 116.986 88.474 117.265 88.147 117.661 88.147 C 117.996 88.147 118.233 88.392 118.233 88.733 C 118.233 89.13 117.947 89.416 117.543 89.416 C 117.209 89.415 116.986 89.171 116.986 88.843 Z  M 117.397 87.797 L 117.85 84.641 L 118.928 84.641 L 118.176 87.797 L 117.397 87.797 Z " fill="rgb(77,77,79)"/></g><path d=" M 146.949 67.763 L 145.591 75.776 L 144.671 75.776 C 144.268 75.776 144.049 75.666 143.864 75.479 C 143.677 75.259 143.57 75.002 143.57 74.667 L 143.605 74.408 L 144.636 67.764 L 141.619 67.764 L 140.48 74.595 C 140.48 74.595 140.441 74.745 140.441 74.966 C 140.441 75.777 140.739 76.445 141.292 76.994 C 141.804 77.511 142.465 77.809 143.314 77.809 L 145.334 77.809 L 145.262 78.03 C 145.185 78.287 145.039 78.51 144.819 78.731 C 144.636 78.917 144.379 79.026 144.085 79.026 L 139.744 79.026 L 139.415 81.098 L 145.371 81.098 C 146.066 81.098 146.691 80.835 147.278 80.392 C 147.831 79.912 148.126 79.322 148.234 78.657 L 150 67.763 L 146.949 67.763 L 146.949 67.763 Z " fill="rgb(0,146,215)"/><path d=" M 131.588 84.568 C 131.853 84.539 132.165 84.532 132.51 84.53 L 133.426 77.81 L 136.367 77.81 C 137.104 77.81 137.725 77.548 138.24 77.107 C 138.756 76.627 139.086 76.07 139.198 75.371 L 139.895 71.16 C 139.895 71.16 140.172 69.709 139.121 68.576 C 138.571 68.022 137.835 67.764 137.064 67.764 L 132.028 67.764 L 129.392 84.756 C 129.965 84.657 130.695 84.568 131.588 84.568 Z  M 134.711 69.759 L 135.666 69.759 C 136.953 69.759 136.844 71.014 136.806 71.087 L 136.179 74.818 C 136.07 75.444 135.704 75.775 135.04 75.775 L 133.717 75.775 L 134.711 69.759 Z " fill="rgb(0,146,215)"/><path d=" M 144.525 85.011 C 144.183 85.043 138.843 85.206 137.631 85.289 C 137.618 85.354 137.608 85.418 137.594 85.48 C 137.568 85.606 137.548 85.725 137.526 85.825 C 137.428 85.993 136.997 86.624 135.999 86.784 C 135.807 86.813 135.578 86.84 135.306 86.868 C 134.895 86.905 134.39 86.934 133.793 86.934 L 132.542 86.934 C 131.994 86.934 129.4 87.08 128.798 87.19 C 128.796 87.19 128.796 87.19 128.793 87.191 L 128.426 89.592 C 129.015 89.44 129.86 89.369 130.855 89.369 C 131.187 89.332 131.625 89.332 132.14 89.332 L 133.425 89.332 C 134.012 89.332 134.504 89.309 134.912 89.272 C 135.194 89.247 135.435 89.218 135.631 89.186 C 136.291 89.037 136.582 88.981 136.914 88.485 L 137.085 88.211 C 137.099 88.134 137.116 88.027 137.142 87.899 C 137.152 87.84 137.16 87.781 137.175 87.716 C 137.197 87.713 137.221 87.711 137.246 87.706 C 137.944 87.634 138.901 87.597 140.152 87.558 C 140.629 87.558 141.326 87.523 142.246 87.484 C 143.129 87.484 143.714 87.45 144.122 87.411 C 144.748 87.379 145.261 87.262 145.63 87.154 C 146.065 86.968 146.364 86.749 146.546 86.45 L 146.66 86.156 C 146.667 86.15 146.667 86.161 146.667 86.18 C 146.678 86.137 146.684 86.093 146.692 86.045 C 146.768 85.786 146.84 85.345 146.95 84.716 C 146.986 84.496 147.022 84.272 147.061 84.087 C 147.061 84.087 147.112 83.835 147.127 83.773 C 147.127 83.774 147.127 83.777 147.122 83.779 C 147.06 83.929 146.582 84.831 144.525 85.011 Z " fill="rgb(0,146,215)"/><path d=" M 126.369 75.002 L 126.128 76.486 L 126.068 76.863 L 125.928 77.735 L 125.954 77.735 L 126.324 77.735 L 128.648 77.735 L 129.087 75.002 L 126.369 75.002 Z " fill="rgb(77,77,79)"/><path d=" M 146.364 82.353 C 145.995 82.501 145.483 82.609 144.855 82.648 C 144.455 82.685 140.48 82.869 140.48 82.869 C 138.019 83.017 136.622 83.275 136.329 83.68 C 136.329 83.68 135.981 84.037 135.806 84.457 C 135.381 84.498 134.845 84.53 134.193 84.53 L 132.91 84.53 C 132.768 84.53 132.636 84.53 132.508 84.53 C 132.165 84.531 131.853 84.541 131.587 84.569 C 130.693 84.569 129.962 84.659 129.392 84.755 C 129.33 84.768 129.258 84.779 129.197 84.787 L 128.797 87.188 C 129.399 87.078 131.992 86.932 132.541 86.932 L 133.791 86.932 C 134.389 86.932 134.893 86.903 135.305 86.866 C 135.577 86.839 135.808 86.811 135.997 86.782 C 136.996 86.624 137.426 85.991 137.525 85.823 C 137.546 85.723 137.567 85.604 137.592 85.479 C 137.606 85.417 137.616 85.352 137.63 85.287 C 138.841 85.205 144.18 85.043 144.524 85.01 C 146.582 84.83 147.058 83.928 147.118 83.775 C 147.299 83.115 147.653 81.443 147.653 81.443 C 147.655 81.409 147.195 82.15 146.364 82.353 Z " fill="rgb(255,255,255)"/><path d=" M 146.547 86.448 C 146.364 86.747 146.065 86.966 145.629 87.152 C 145.262 87.261 144.747 87.376 144.122 87.409 C 143.717 87.447 143.13 87.483 142.245 87.483 C 141.326 87.521 140.629 87.556 140.152 87.556 C 138.901 87.595 137.944 87.632 137.245 87.703 C 137.221 87.708 137.198 87.71 137.175 87.713 C 137.16 87.778 137.151 87.837 137.141 87.896 C 137.116 88.025 137.099 88.132 137.086 88.209 L 136.915 88.482 C 136.58 88.978 136.29 89.035 135.631 89.183 C 135.434 89.214 135.193 89.244 134.912 89.27 C 134.505 89.306 134.011 89.33 133.425 89.33 L 132.141 89.33 C 131.624 89.33 131.186 89.33 130.855 89.366 C 129.859 89.366 129.015 89.438 128.427 89.589 L 128.062 91.988 C 128.393 91.956 128.98 91.915 129.899 91.881 L 132.397 91.839 C 133.426 91.806 133.981 91.787 134.751 91.655 C 136.082 91.426 136.548 90.439 136.622 90.289 C 136.626 90.283 136.63 90.281 136.63 90.279 C 137.438 90.123 138.488 90.027 139.784 89.997 L 141.692 89.924 C 142.354 89.924 142.907 89.887 143.349 89.811 C 145.744 89.501 146.351 88.603 146.546 87.117 C 146.577 86.89 146.666 86.305 146.666 86.178 C 146.666 86.159 146.666 86.147 146.659 86.153 L 146.547 86.448 Z " fill="rgb(236,28,36)"/></g></g></g></g></g></svg>