<?xml version="1.0" encoding="utf-8"?>
<!-- Generator: Adobe Illustrator 24.0.1, SVG Export Plug-In . SVG Version: 6.00 Build 0)  -->
<svg version="1.0" id="Layer_1" xmlns="http://www.w3.org/2000/svg" xmlns:xlink="http://www.w3.org/1999/xlink" x="0px" y="0px"
	 viewBox="0 0 1400 1400" style="enable-background:new 0 0 1400 1400;" width="1400" height="1400" xml:space="preserve">
<style type="text/css">
	.st0{fill:#4B64AD;}
	.st1{fill:#7AC044;}
	.st2{fill:#7CC146;}
</style>
<path class="st0" d="M775.86,792.04c6.26-8.69,13.43-16.6,18.82-25.81c19.03-32.55,27.2-67.2,22.88-104.98
	c-2.72-23.77-9.57-45.86-21.66-66.38c-2.26-3.84-1.58-5.22,2.78-5.07c2.03,0.07,4.07,0.01,6.11,0.01
	c164.75,0,329.5,0.12,494.25-0.08c47.48-0.06,82.24,34.18,80.99,80.98c-0.4,15.13-0.06,30.27-0.06,45.41
	c-0.01,43.84-33.2,77.28-77.17,77.3c-172.9,0.08-345.8,0.04-518.71-0.01C781.61,793.42,778.91,794.3,775.86,792.04z M1219.78,744.17
	c-4.36-33.88-8.67-67.77-13.15-101.64c-0.47-3.58,1.6-9.33-4.7-9.5c-5.9-0.16-12.87-3.06-16.68,5.22
	c-3.27,7.12-7.51,13.8-11.31,20.67c-17.19,31.06-34.32,62.16-51.63,93.15c-2.78,4.97-2.68,6.27,3.76,7
	c12.6,1.44,21.32-1.8,25.2-14.73c0.98-3.28,3.19-6.19,4.87-9.25c0.97-1.77,1.79-3.92,4.24-3.9c11.03,0.06,22.8-2.02,32.8,1.26
	c5.31,1.74,2.82,13.76,4.56,21c0.07,0.28,0.1,0.58,0.1,0.87c0,3.31,1.73,4.39,4.94,4.55c4.87,0.25,11.53-2.38,14.15,1.34
	c2.77,3.94-1.14,9.93-1.86,15.07c-0.31,2.2-1.61,4.43,1.74,5.73c6.83,2.63,13.73-0.46,16.2-7.58c0.86-2.47,1.9-4.93,2.38-7.48
	c1.03-5.53,3.98-7.39,9.7-7.27c17.46,0.37,34.93,0.13,52.4,0.13c15.31,0,15.27,0,14.7,15.03c-0.12,3.14-1.91,7.97,4.1,7.21
	c4.66-0.59,11.49,3.76,13.04-5.52c1.78-10.6,4.05-21.16,6.8-31.56c1.63-6.18-0.21-8.06-6.09-7.18c-6.58,0.98-7.57-1.45-6.15-7.74
	c6.53-28.93,12.35-58.02,18.8-86.97c1.46-6.57,0.28-8.78-6.81-8.61c-17.46,0.43-34.94,0.51-52.39-0.03
	c-7.65-0.24-12.05,1.07-12.29,9.85c-0.14,5.13-1.97,10.25-3.28,15.32c-6.5,25.12-13.87,49.93-27.87,72.15
	c-1.8,2.85-3.31,6.69-7.72,5.95C1226.03,735.67,1222.18,738.12,1219.78,744.17z M1034.42,635.76c-0.45-0.71-0.89-1.42-1.34-2.14
	c-4.03,0-8.14,0.5-12.08-0.1c-9.47-1.45-15.47,2.41-20.99,10.08c-10.02,13.92-21.16,27.04-31.85,40.47
	c-1.63,2.05-3.6,4.89-6.31,3.41c-2.5-1.37-0.22-4.2,0.21-6.31c2.7-13.1,5.27-26.23,8.39-39.23c1.58-6.6,0.01-9.38-6.98-8.36
	c-1.71,0.25-3.53,0.28-5.23,0c-7.05-1.17-10.05,1.4-11.51,8.79c-6.7,33.94-14.08,67.75-21.27,101.59
	c-3.2,15.05-3.24,14.71,12.04,15.01c6.22,0.12,8.73-1.89,9.81-7.93c2.36-13.16,5.39-26.2,8.13-39.29c0.65-3.09,0.59-6.37,5.27-6.59
	c4.17-0.2,5.5,2.26,6.86,5.33c4,9.05,8.98,17.77,11.95,27.13c5.07,15.95,13.54,21.42,31.64,22.21c26.88,1.18,38.14-9.56,47.56-29.56
	c8.73-18.54,13.46-38.38,18.46-58.1c4.36-17.21,4.23-16.99,22.09-16.73c6,0.09,6.46,1.82,5.27,7.2
	c-5.95,26.97-11.41,54.04-17.1,81.07c-3.25,15.46-3.31,15.3,12.9,15.19c4.63-0.03,7.45-0.74,8.54-6.09
	c7.67-37.6,15.54-75.16,23.65-112.66c1.14-5.25,0.04-6.67-5.18-6.61c-18.92,0.2-37.84,0.29-56.76-0.05
	c-5.69-0.1-7.45,2.31-8.51,7.33c-2.65,12.51-5.52,25-8.85,37.35c-4.23,15.72-8.39,31.54-16.36,45.91
	c-3.68,6.63-7.63,13.46-16.97,12.81c-3.17-0.22-3.74,2.16-4.54,4.33c-1.03,2.81-2.03,5.63-3.58,9.95
	c-3.13-6.68-5.3-12.05-8.07-17.08c-7.09-12.88-9.86-28.07-20.91-38.85c-2.91-2.84,0.43-3.73,2.14-5.05
	C1004.76,674.95,1017.25,653.3,1034.42,635.76z M903.54,631.4c-7.96-0.51-15.68,0.85-23.24,3.13
	c-40.36,12.17-61.94,72.85-38.43,108.01c12.44,18.6,44.11,25.15,63.59,12.97c7.54-4.71,4.1-12.56,2.93-18.24
	c-1.17-5.72-6.17-0.38-9,0.46c-24.26,7.22-41.52-5.14-41.76-30.43c-0.09-9.67,1.4-19.12,5.26-28.11
	c8.31-19.33,25.71-29.01,46.49-25.8c12.99,2.01,12.99,2.01,18.21-9.78c0.35-0.8,0.66-1.63,1.13-2.36c2.93-4.5,0.33-6.18-3.62-7.2
	C918.03,632.23,910.88,631.01,903.54,631.4z"/>
<path class="st0" d="M529.8,792.21c-2.85,2.16-5.54,1.2-8.01,1.2c-142.34,0.06-284.67,0.08-427.01,0.02
	c-37.26-0.01-66.44-22.63-75.36-57.86c-2.97-11.72-2.71-23.61-2.41-35.49c0.38-14.78-1.02-29.56,1.24-44.37
	c5.72-37.63,36-65.65,74.15-65.75c138.26-0.38,276.52-0.15,414.79-0.13c1.1,0,2.21,0.24,4.31,0.48
	c-19.17,32.49-27.71,66.92-24.45,104.13C490.32,731.84,504.91,764.21,529.8,792.21z M132.06,693.81c1.99-0.67,3.08-0.99,4.15-1.4
	c14.69-5.56,23.21-18.3,22.1-33.03c-1.07-14.25-10.24-23.23-26.83-26.32c-14.83-2.76-29.56-0.36-44.31,0.83
	c-4.27,0.34-4.6,3.63-5.27,6.84c-7.75,36.97-15.39,73.96-23.5,110.85c-1.31,5.97,0.9,7.34,5.75,7.57
	c10.16,0.48,20.32,1.21,30.49,1.26c12.95,0.06,25.59-1.92,36.78-9.04C153.89,737.08,154.69,709.1,132.06,693.81z M468.74,678.91
	c-0.23-2.94-0.27-8.21-1.11-13.36c-3.19-19.43-15.3-31.7-33.51-33.83c-18.41-2.16-34.86,2.71-47.8,16.16
	c-21.67,22.53-27.37,50.11-22.1,79.97c3.88,21.98,18.13,32.85,40.42,33.31c15.02,0.31,27.99-4.77,38.74-15.15
	C461.71,728.32,468.03,705.83,468.74,678.91z M324.53,633.62c-9.02,0-18.07,0.42-27.05-0.15c-6.05-0.38-8.02,2.27-9.16,7.56
	c-2.76,12.78-5.65,25.55-9.05,38.17c-4.38,16.27-8.65,32.65-17.49,47.28c-3.38,5.6-7.27,10.79-14.86,10.37
	c-2.9-0.16-4.17,1.25-4.96,3.78c-1.29,4.17-2.64,8.32-4.19,12.4c-1.71,4.48,0.76,5.81,4.43,6.31c12.33,1.7,23.16-1.14,31.53-10.84
	c5.36-6.22,9.26-13.36,12.56-20.85c7.9-17.93,12.44-36.89,17.25-55.76c4.27-16.72,4.27-16.49,21.37-16.43
	c6.01,0.02,7.4,1.55,6.07,7.55c-6,26.95-11.61,53.99-17.26,81.01c-3.13,14.97-3.04,14.97,12.35,14.81c4.09-0.04,7.69,0.56,8.92-5.44
	c7.73-37.88,15.78-75.69,23.99-113.47c1.22-5.6-0.85-6.48-5.64-6.37C343.74,633.78,334.13,633.62,324.53,633.62z M194.27,758.82
	c7.27,0,14.55,0,21.82,0c14.08,0,13.75-0.08,16.92-13.89c1.62-7.09-0.73-8.52-7.27-8.26c-11.04,0.45-22.11,0.01-33.17,0.18
	c-4.36,0.07-6.6-0.56-5.02-5.83c1.76-5.83,2.88-11.88,3.85-17.9c0.79-4.87,2.96-6.98,8.12-6.68c6.96,0.4,13.96,0.22,20.95,0.07
	c18.69-0.4,13.66,3.38,18.76-15.97c1.26-4.76-0.01-6.24-4.84-6.12c-10.18,0.25-20.37-0.08-30.55,0.14c-4.71,0.1-6.34-1.4-5.12-6.12
	c1.31-5.06,2.55-10.19,3.21-15.37c0.72-5.65,3.13-7.97,9.09-7.62c8.41,0.5,16.87,0.13,25.31,0.13c15.89,0,15.78-0.02,18.04-15.76
	c0.64-4.47-0.25-6.34-5.18-6.29c-19.49,0.2-38.99,0.18-58.49-0.01c-4.35-0.04-6.05,1.5-6.92,5.71
	c-7.83,37.86-15.76,75.71-23.95,113.49c-1.06,4.87-0.05,6.24,4.75,6.14C174.48,758.67,184.38,758.81,194.27,758.82z"/>
<path class="st1" d="M799.87,679.8c-0.57,78.18-63.63,145.2-146.58,145.08c-81.37-0.11-146.64-67.21-145.52-147.9
	c1.05-75.86,60.91-143.78,145.72-144.11C737.12,532.54,800.05,600.13,799.87,679.8z M701.19,642.91
	c6.89,12.27,6.89,12.27-3.23,19.84c-18.04,13.51-23.55,37.59-13.23,57.87c9.93,19.51,33,29.3,54.07,22.93
	c22.13-6.69,36.25-28.96,32.53-51.35c-3.76-22.67-23.72-39.52-46.8-38.76c-5.84,0.19-8.97-0.73-10.63-6.86
	c-2.81-10.37-6.4-20.53-9.92-30.69c-5.23-15.1-14.19-20.07-29.67-17.12c-3,0.57-3.83,1.94-3.82,4.64c0.01,2.83,0.15,5.36,3.94,5.33
	c2.62-0.02,5.24-0.01,7.86,0.04c7.42,0.14,14.65,8.23,14.08,15.47c-0.2,2.57-1.82,2.63-3.55,2.63c-24.15,0.02-48.31-0.05-72.46,0.04
	c-4.86,0.02-5.55-3.46-6.36-6.84c-1-4.2,2.68-3.68,4.9-4.35c3.06-0.92,6.25-1.38,9.31-2.29c1.84-0.54,4.67-0.66,4.52-3.26
	c-0.15-2.76-2.9-2.29-4.81-2.3c-10.18-0.07-20.37,0.02-30.55-0.07c-3.39-0.03-5.58,0.67-5.49,4.77c0.07,3.41,1.55,4.96,4.77,4.53
	c4.91-0.65,6.05,2.62,7.98,6.17c5.38,9.86-2.47,16.33-5.26,24.16c-2.42,6.8-5.78,8.73-13.5,7.02c-20.66-4.58-41.01,6.76-49.83,26.37
	c-8.66,19.25-2.9,42.19,13.78,54.93c25.03,19.11,59.48,9.39,71.44-20.19c1.48-3.65,1.79-8.35,7.77-7.06
	c11.16,2.4,18.99-3.03,25.77-11.02c4.14-4.88,8.52-9.56,12.65-14.44C678.68,669.78,689.82,656.44,701.19,642.91z"/>
<path class="st0" d="M1280.95,736.79c-19.11,0-19.17-0.03-11.13-17.51c8.41-18.28,13.89-37.53,18.7-56.97
	c1.17-4.71,2.53-6.77,7.79-6.87c20.06-0.36,20.09-0.56,16.02,19.09c-3.59,17.31-7.64,34.54-10.77,51.94
	c-1.41,7.84-4.1,12.15-12.78,10.39C1286.27,736.36,1283.57,736.79,1280.95,736.79z"/>
<path class="st0" d="M1190.38,666.42c0.18,13.18,1.32,26.14,2.93,39.05c0.55,4.45-0.82,6.67-5.59,6.18
	c-5.93-0.61-13.95,2.68-17.2-1.58c-2.52-3.31,3.75-9.52,6.35-14.25C1182.03,686.39,1185.84,676.42,1190.38,666.42z"/>
<path class="st0" d="M95.88,740.04c-2.61,0-5.21,0.02-7.82,0c-3.33-0.03-4.65-1.43-3.88-4.93c1.87-8.47,3.44-17,5.28-25.48
	c0.41-1.87,0.72-4.43,3.36-4.43c8.61-0.01,17.51-1.81,25.54,2.78c8.6,4.91,9.34,16.81,1.61,24.67
	C113.33,739.4,104.76,740.43,95.88,740.04z"/>
<path class="st0" d="M106.35,686.3c-11.49,0.15-11.49,0.15-9.31-11.04c0.5-2.56,0.91-5.15,1.59-7.67c1.32-4.94,0.01-12.57,4.57-14.2
	c7.15-2.55,15.55-2.31,23.12,0.35c8.64,3.03,10.88,14.08,4.82,22.76C125.08,685.16,115.93,686.36,106.35,686.3z"/>
<path class="st0" d="M386.89,709.06c0.13-12.73,2.7-24.87,8.8-36.13c3.8-7.03,8.71-13.12,15.9-16.95
	c14.86-7.91,29.66-0.99,31.92,15.53c2.56,18.71-0.82,36.54-11.05,52.68c-2,3.15-4.58,6.09-7.4,8.54
	c-7.63,6.63-16.62,8.67-26.04,4.99c-8.71-3.41-10.83-11.53-11.72-19.94C387,714.89,387.02,711.97,386.89,709.06z"/>
<path class="st2" d="M761.76,699.41c0.02,16.76-11.48,31.65-27.21,35.23c-16.85,3.83-33.64-3.82-41.25-18.79
	c-7.61-14.98-3.6-33.31,9.26-44.33c5.75-4.93,8.53-4.2,10.3,3.28c1.53,6.48,3.59,12.93,6.23,19.04c2.03,4.7,0.85,14.5,9.06,11.85
	c7.57-2.45,1.21-9.52,0.08-14.28c-1.74-7.33-4.31-14.47-6.79-21.6c-1.82-5.25,0.14-6.62,5.21-6.62
	C745.61,663.18,761.74,679.69,761.76,699.41z"/>
<path class="st2" d="M582.48,735.46c-24.75,0.03-41.35-16.76-40.63-36.69c0.76-20.94,17.92-36.78,38.49-35.51
	c8.95,0.55,9.81,1.92,5.88,9.74c-3.66,7.28-7.35,14.54-11.17,21.73c-3.3,6.22-1.17,9.42,5.45,10.04c8.68,0.82,17.38,1.85,26.09,1.99
	c7.18,0.12,6.92,3.11,4.36,8.04C604.04,728.13,593.26,735.24,582.48,735.46z"/>
<path class="st2" d="M656.99,636.91c9.6,0,19.21-0.06,28.81,0.05c1.85,0.02,4.39-1.1,5.4,1.38c0.76,1.88-1.19,3.09-2.27,4.34
	c-13.6,15.93-27.31,31.78-40.85,47.77c-3.97,4.68-6.01,5.02-8.3-1.53c-5.17-14.82-10.71-29.54-16.75-44.03
	c-3-7.21-0.71-8.4,6.01-8.09C638.35,637.23,647.68,636.91,656.99,636.91z"/>
<path class="st2" d="M608.62,697.08c-5.13-0.34-10.92-0.91-16.71-1.04c-5.38-0.12-5.79-2.19-3.38-6.41
	c2.88-5.03,5.51-10.21,8.06-15.42c1.85-3.78,3.82-3.49,6.56-0.9c5.68,5.39,8.94,11.99,10.7,19.53
	C614.88,697.28,612.97,698.04,608.62,697.08z"/>
<path class="st2" d="M612.24,643.82c6.83,17.91,12.93,33.85,18.97,49.81c0.67,1.78,1.97,4.15-1.28,4.74
	c-2.55,0.46-5.7,0.8-6.07-2.96c-1.34-13.47-7.34-24.28-18.01-32.53c-2.51-1.95-1.5-3.97-0.33-6.13
	C607.45,653.2,609.26,649.59,612.24,643.82z"/>
</svg>
