<?xml version="1.0" encoding="utf-8"?>
<!-- Generator: Adobe Illustrator 22.1.0, SVG Export Plug-In . SVG Version: 6.00 Build 0)  -->
<svg version="1.1"
	 id="svg2" inkscape:version="0.48.2 r9819" sodipodi:docname="Aeropostale_logo2.svg" xmlns:cc="http://creativecommons.org/ns#" xmlns:dc="http://purl.org/dc/elements/1.1/" xmlns:inkscape="http://www.inkscape.org/namespaces/inkscape" xmlns:rdf="http://www.w3.org/1999/02/22-rdf-syntax-ns#" xmlns:sodipodi="http://sodipodi.sourceforge.net/DTD/sodipodi-0.dtd" xmlns:svg="http://www.w3.org/2000/svg"
	 xmlns="http://www.w3.org/2000/svg" xmlns:xlink="http://www.w3.org/1999/xlink" x="0px" y="0px" viewBox="0 0 500 500"
	 style="enable-background:new 0 0 500 500;" xml:space="preserve">
<style type="text/css">
	.st0{fill:#070808;}
</style>
<sodipodi:namedview  bordercolor="#666666" borderopacity="1" gridtolerance="10" guidetolerance="10" id="namedview35" inkscape:current-layer="svg2" inkscape:cx="305.96738" inkscape:cy="101.65201" inkscape:pageopacity="0" inkscape:pageshadow="2" inkscape:window-height="1003" inkscape:window-maximized="1" inkscape:window-width="1680" inkscape:window-x="-4" inkscape:window-y="-4" inkscape:zoom="1.2764184" objecttolerance="10" pagecolor="#ffffff" showgrid="false">
	</sodipodi:namedview>
<sodipodi:namedview  bordercolor="#666666" borderopacity="1" fit-margin-bottom="0" fit-margin-left="0" fit-margin-right="0" fit-margin-top="0" gridtolerance="10" guidetolerance="10" id="namedview3875" inkscape:current-layer="g3881" inkscape:cx="836.55822" inkscape:cy="-249.2839" inkscape:pageopacity="0" inkscape:pageshadow="2" inkscape:window-height="1028" inkscape:window-maximized="1" inkscape:window-width="1920" inkscape:window-x="-8" inkscape:window-y="-8" inkscape:zoom="0.47532087" objecttolerance="10" pagecolor="#ffffff" showgrid="false">
	</sodipodi:namedview>
<g>
	<g>
		<path class="st0" d="M74.8,168.9c-2.6,0-6.4,0.3-6.9,0.3c-1.1,0-5.2-0.3-8.7-0.3c-1.4,0-2,0.2-2,0.7c0,0.5,0.4,0.5,1,0.5
			c1,0,2.3,0,3.4,0.4c0.9,0.4,1.2,1.3,1.2,2c0,0.8-0.3,2.1-0.8,3.4c-2,6.4-13.9,37.4-19,49.3l-17.1-45.4c-1.3-3.5-2.4-6.2-2.4-7.4
			c0-0.6,0.2-1.3,1.1-1.8c0.8-0.4,2.4-0.4,3.4-0.4c0.6,0,0.9-0.2,0.9-0.6c0-0.5-0.8-0.6-2.4-0.6c-3.4,0-7.4,0.3-8.3,0.3
			c-1.1,0-6.1-0.3-10.4-0.3c-1.4,0-2.3,0.1-2.3,0.6c0,0.3,0.2,0.6,0.7,0.6s2,0,3.4,0.4c3.1,0.9,4.4,1.9,6.4,6.8l21.8,54.4
			c1.7,4.3,2.1,5.5,3.2,5.5c0.9,0,1.3-1.4,3.7-6.7c2-4.4,6-13.9,11.5-26.9c4.5-10.9,9-21.6,10-24.1c2.4-6,3.7-7.6,4.9-8.3
			c1.7-1.1,3.7-1.1,4.3-1.1c0.7,0,1.1-0.2,1.1-0.6C76.3,169.1,75.8,168.9,74.8,168.9z M101.4,234.8c-0.7,0-2.4-0.2-3.5-0.4
			c-2.3-0.3-2.6-1.8-2.8-4c-0.4-3.1-0.4-9-0.4-16.3v-13.3c0-11.7,0-13.9,0.1-16.2c0.2-2.7,0.6-3.7,2.8-4.2c0.9-0.2,1.4-0.2,2-0.2
			c0.3,0,0.6-0.4,0.6-0.6c0-0.4-0.4-0.6-1.3-0.6c-2.4,0-7.5,0.2-7.8,0.2c-0.4,0-5.3-0.2-7.9-0.2c-0.9,0-1.2,0.2-1.2,0.6
			c0,0.3,0.3,0.6,0.6,0.6c0.5,0,1.5,0.1,2.4,0.3c1.7,0.4,2.3,1.5,2.5,4.1c0.2,2.4,0.2,4.5,0.2,16.2v13.3c0,7.3-0.1,13.2-0.5,16.3
			c-0.3,2.2-0.5,3.7-2,4c-0.7,0.2-1.7,0.4-2.4,0.4c-0.5,0-0.6,0.4-0.6,0.6c0,0.4,0.4,0.6,1.2,0.6c2.4,0,7.3-0.3,7.7-0.3
			c0.3,0,5.4,0.3,9.8,0.3c0.9,0,1.2-0.3,1.2-0.6C102,235.1,101.8,234.8,101.4,234.8z M163.3,233.1c0.8-2.6,1.9-9.1,1.9-9.7
			c0-0.5-0.4-1.1-0.7-1.1c-0.5,0-0.6,0.3-0.8,1.1c-0.3,1.4-1.3,4.6-3,6.3c-3.1,3.1-7,3.5-12.9,3.5c-16.7,0-28.2-12.9-28.2-27.3
			c0-7.6,1.3-14.4,7-19.7c2.8-2.6,7.6-5.2,17.6-5.2c6.9,0,12.6,1.9,15.4,4.2c2,1.6,3.3,4.6,3.3,7.6c0,1.1,0.1,1.6,0.6,1.6
			c0.4,0,0.8-0.4,0.9-1.6c0.1-1.1,0.1-5.2,0.2-7.7c0.2-2.8,0.4-3.6,0.4-4.3c0-0.4-0.2-0.8-1-0.8c-2.6-0.1-5.1-0.6-8-1.2
			c-3.8-0.6-8.3-0.9-11.4-0.9c-12,0-19.1,3.6-23.8,8.1c-6.9,6.7-8.8,15.5-8.8,20.6c0,7.2,1.9,15.8,9.5,22.4c6.1,5.3,14,8.1,25.8,8.1
			c5.1,0,10.9-0.4,14.1-1.7C162.7,234.8,162.9,234.5,163.3,233.1z M207.9,235.4c0-0.3-0.1-0.6-0.6-0.6c-0.7,0-2.5-0.2-3.5-0.4
			c-2.4-0.3-2.8-1.8-3-4c-0.4-3.1-0.4-9-0.4-16.3v-31.7l9.8,0.2c7.5,0.2,9.2,1.9,9.4,4.2l0.1,0.8c0.1,1.1,0.3,1.3,0.6,1.3
			c0.4,0,0.7-0.4,0.7-1c0-0.9,0.3-6.3,0.3-8.6c0-0.4,0-0.9-0.3-0.9c-0.4,0-1.1,0.2-2.2,0.4c-1.2,0.2-3,0.4-5.6,0.4h-29.5
			c-0.9,0-3.9-0.1-6.1-0.4c-2.1-0.3-2.9-0.9-3.5-0.9c-0.3,0-0.7,1-0.8,1.4c-0.2,0.6-1.7,7.4-1.7,8.2c0,0.5,0.4,0.6,0.5,0.6
			c0.4,0,0.6-0.1,0.8-0.7c0.3-0.5,0.4-1.1,1.2-2.4c1.2-1.8,3-2.3,7.9-2.4l11.3-0.2v31.7c0,7.3,0,13.2-0.4,16.3
			c-0.3,2.2-0.7,3.7-2.3,4.1c-0.7,0.2-1.6,0.4-2.3,0.4c-0.4,0-0.6,0.3-0.6,0.5c0,0.4,0.3,0.6,1.2,0.6c2.3,0,7.7-0.3,8.1-0.3
			c0.4,0,5.4,0.3,9.7,0.3C207.6,236,207.9,235.8,207.9,235.4z M257.1,237c18.8,0,31.4-13.9,31.4-30.8c0-17.6-13.3-28.3-30.9-28.3
			c-21.6,0-31,17.3-31,29.5C226.6,220.9,235.7,237,257.1,237z M257.1,180.7c12.4,0,23.4,9.5,23.4,27.6c0,21.8-14.1,25.6-21.2,25.6
			c-14.1,0-24.7-11-24.7-28.6C234.7,188.9,244.1,180.7,257.1,180.7z M298.8,180.2c0.7,0,2,0.1,2.7,0.2c2.6,0.3,3,1.6,3.2,4.2
			c0.2,2.4,0.2,4.5,0.2,16.2v13.3c0,7.3,0,13.2-0.5,16.3c-0.4,2.2-0.5,3.7-2,4c-0.7,0.2-1.7,0.4-2.4,0.4c-0.4,0-0.6,0.4-0.6,0.6
			c0,0.4,0.4,0.6,1.2,0.6c2.4,0,7.6-0.3,7.7-0.3c0.4,0,5.3,0.3,9.6,0.3c0.9,0,1.2-0.3,1.2-0.6c0-0.3-0.1-0.6-0.6-0.6
			c-0.7,0-2.4-0.2-3.5-0.4c-2.4-0.3-2.8-1.8-3.1-4c-0.4-3.1-0.4-9-0.4-16.2v-1.8c0-0.4,0.2-0.6,0.5-0.6l10,0.2
			c0.5,0,0.7,0.1,1.1,0.4c1.7,2,5.2,6.9,8.4,11c4.4,5.7,7.3,9.3,10.7,11.1c2,1.1,3.9,1.5,8.4,1.5h4.9c1.4,0,1.9-0.2,1.9-0.6
			c0-0.3-0.3-0.6-0.7-0.6c-0.4,0-1.2,0-2.8-0.3c-2-0.3-4.5-1-8.7-5.2c-4.5-4.7-10-11.5-16.4-19.5c7.3-6.2,9.6-11.6,9.6-17.2
			c0-5.2-3.5-8.9-5.4-10.3c-4.1-2.8-9.6-3.3-14.6-3.3c-2.4,0-9,0.2-9.8,0.2c-0.4,0-5.7-0.2-9.3-0.2c-0.9,0-1.2,0.2-1.2,0.6
			C298.2,179.8,298.6,180.2,298.8,180.2z M311.6,182.9c0-0.4,0.3-0.7,0.6-0.9c0.8-0.2,3.3-0.4,5.6-0.4c8.4,0,13.5,5.4,13.5,14.8
			c0,5.8-2,9.8-4.7,11.5c-1.9,1.2-4,1.3-5.9,1.3c-3.5,0-7.5-0.5-8.6-1.2c-0.4-0.3-0.5-0.5-0.5-1
			C311.6,207.2,311.6,182.9,311.6,182.9z M379.1,235.4c0-0.3-0.2-0.6-0.6-0.6c-0.7,0-2.4-0.2-3.6-0.4c-2.3-0.3-2.6-1.8-2.8-4
			c-0.4-3.1-0.4-9-0.4-16.3v-13.3c0-11.7,0-13.9,0.1-16.2c0.2-2.7,0.6-3.7,2.8-4.2c0.9-0.2,1.4-0.2,2-0.2c0.3,0,0.6-0.4,0.6-0.6
			c0-0.4-0.4-0.6-1.2-0.6c-2.4,0-7.5,0.2-7.8,0.2c-0.4,0-5.3-0.2-7.9-0.2c-0.9,0-1.3,0.2-1.3,0.6c0,0.3,0.3,0.6,0.6,0.6
			c0.5,0,1.5,0.1,2.4,0.3c1.7,0.4,2.3,1.5,2.5,4.1c0.2,2.4,0.2,4.5,0.2,16.2v13.3c0,7.3-0.1,13.2-0.4,16.3c-0.3,2.2-0.5,3.7-2,4
			c-0.7,0.2-1.7,0.4-2.4,0.4c-0.4,0-0.6,0.4-0.6,0.6c0,0.4,0.5,0.6,1.3,0.6c2.4,0,7.3-0.3,7.7-0.3c0.4,0,5.4,0.3,9.8,0.3
			C378.7,236,379.1,235.8,379.1,235.4z M443.3,234.8c-0.8,0-2-0.1-3.1-0.5c-1.7-0.5-3.8-1.5-6.7-8.2c-4.8-11.4-17.3-42.6-18.8-45.8
			c-0.8-1.7-1.1-2.8-1.9-2.8c-0.5,0-0.9,0.5-1.9,2.9l-18.4,47.2c-1.5,3.8-3,6.5-6.6,6.9c-0.6,0.1-1.8,0.2-2.3,0.2
			c-0.4,0-0.7,0.3-0.7,0.6c0,0.4,0.5,0.6,1.5,0.6c3.2,0,7.1-0.3,7.9-0.3c0.9,0,5.2,0.3,7,0.3c0.7,0,1.2-0.2,1.2-0.6
			c0-0.4-0.2-0.6-0.8-0.6h-0.7c-1.3,0-2.7-0.5-2.7-2c0-1.3,0.5-3.2,1.2-5.1l4.4-12.1c0.2-0.4,0.4-0.6,0.8-0.6h18
			c0.4,0,0.5,0.1,0.7,0.4l7,17.3c0.5,1.3-0.3,1.9-0.7,2c-0.4,0.2-0.5,0.2-0.5,0.5c0,0.5,1.3,0.5,2.7,0.5c5.4,0.2,11.2,0.2,12.4,0.2
			c0.9,0,1.8-0.2,1.8-0.6C444.3,235,443.8,234.8,443.3,234.8z M419.8,211.9h-15.8c-0.3,0-0.4-0.2-0.3-0.5l7.3-20.7
			c0.4-1.2,0.9-1.2,1.3,0l7.7,20.7C420.1,211.7,420.1,211.9,419.8,211.9z M447.6,171.9c-1.1,0-2,0.5-2.9,1.6c-0.8,1-1.2,2.3-1.2,3.7
			c0,1.3,0.4,2.4,1.2,3.3c0.8,0.9,1.7,1.4,2.8,1.4c0.4,0,0.9-0.1,1.5-0.3l0.4-0.1c0.3,0,0.5,0.1,0.7,0.4c0.1,0.2,0.2,0.6,0.2,1.1
			c0,1.4-0.6,3.1-1.7,5c-1.1,2-2.9,3.9-5.4,5.9l1.2,1.9c3.4-2.5,5.7-5.1,7.2-7.7c1.4-2.6,2.1-5.3,2.1-8.1c0-2.4-0.6-4.3-1.8-5.9
			C450.6,172.7,449.2,171.9,447.6,171.9z M481.7,203.3l-2.2-1.5c-7.7-5.2-10.1-8-10.1-12.8c0-5.3,4.7-8.2,10.4-8.2
			c7,0,9.6,2.8,10.1,3.7c0.4,0.8,1.1,2.8,1.1,3.7c0.1,0.6,0.2,1,0.7,1c0.5,0,0.6-0.5,0.6-1.7c0-5.1,0.4-7.6,0.4-8
			c0-0.4-0.2-0.5-0.8-0.5c-0.6,0-1.3,0-2.8-0.4c-1.9-0.4-5-0.9-8.1-0.9c-10.3,0-17.3,5.3-17.3,14.2c0,5.2,2.8,9.9,11.2,16.2l3.6,2.7
			c6.9,5.2,9.9,7.7,9.9,13.2c0,5.7-4,10-11.7,10c-5.2,0-11.1-2-12.4-7.5c-0.3-1.1-0.3-2.1-0.3-2.8c0-0.6-0.3-0.9-0.7-0.9
			c-0.4,0-0.6,0.4-0.6,1.2c-0.1,1.2-0.4,4.3-0.4,8c0,2,0.1,2.3,1.2,2.8c3.2,1.5,7.7,2,11.4,2c4.3,0,9.2-0.5,12.4-2.7
			c5.6-3.6,7.3-8.4,7.3-12.9C494.5,215,491.2,209.7,481.7,203.3z M129.7,291.7l-2.5-2c-8.5-6.7-10.9-9.9-10.9-14.9
			c0-6.5,4.8-10.3,10.9-10.3c8.2,0,10.6,3.7,11.1,4.7c0.5,1,1.1,3.4,1.1,4.4c0.1,0.7,0.2,1.1,0.7,1.1c0.4,0,0.6-0.6,0.6-2
			c0-6,0.3-9,0.3-9.4c0-0.4-0.2-0.6-0.9-0.6c-0.7,0-1.4-0.1-3.1-0.4c-2.2-0.5-4.8-0.9-8.3-0.9c-11.3,0-18.4,6.5-18.4,16
			c0,6,2.1,11.5,11.5,19.3l4,3.3c7.6,6.3,10.2,9.8,10.2,16c0,5.7-4.2,11.8-12.7,11.8c-5.9,0-11.8-2.5-13.1-9.1
			c-0.3-1.2-0.3-2.5-0.3-3.3c0-0.7-0.1-1-0.6-1c-0.4,0-0.6,0.4-0.7,1.4c-0.1,1.4-0.4,5-0.4,9.4c0,2.4,0.1,2.8,1.3,3.4
			c3.7,1.8,7.7,2.4,11.9,2.4c4.8,0,9.6-1.1,13.4-3.7c6.1-4.4,7.6-11.1,7.6-14.7C142.6,305.5,140.1,300,129.7,291.7z M192.7,319.6
			c-0.4,0-0.6,0.3-0.8,1.1c-0.4,3-1.5,4.4-3.6,5.2c-2,0.8-5.8,0.8-7.8,0.8c-7.7,0-9.2-1-9.3-6c-0.1-1.5,0-10.3,0-12.9v-6.3
			c0-0.3,0.1-0.5,0.5-0.5c1.3,0,9.7,0.1,11.8,0.4c3,0.4,3.7,1.2,4,2.3c0.4,1,0.4,1.8,0.4,2.5c0,0.5,0.2,0.7,0.5,0.7
			c0.5,0,0.7-0.8,0.7-1.4c0-0.5,0.2-3.4,0.4-4.9c0.2-2.5,0.6-3.7,0.6-4.2c0-0.4-0.2-0.6-0.4-0.6c-0.3,0-0.6,0.4-1.1,1
			c-0.8,0.8-2,0.9-3.8,1.1c-1.8,0.2-12.1,0.2-13.1,0.2c-0.5,0-0.5-0.3-0.5-0.8v-20.5c0-0.5,0.1-0.8,0.5-0.8c0.9,0,9.9,0.1,11.3,0.3
			c4.3,0.5,5.1,1.1,5.6,2.3c0.3,0.9,0.4,2.1,0.4,2.6c0,0.6,0.2,1,0.6,1c0.4,0,0.6-0.4,0.7-0.8c0.2-0.9,0.3-4.3,0.4-5
			c0.2-2.1,0.6-3,0.6-3.5c0-0.4-0.1-0.7-0.4-0.7c-0.4,0-0.7,0.3-1.1,0.4c-0.6,0.1-2,0.4-3.6,0.5c-1.8,0.1-18.1,0-18.7,0
			c-0.4,0-5.5-0.2-9.1-0.2c-0.9,0-1.3,0.2-1.3,0.6c0,0.3,0.4,0.6,0.6,0.6c0.7,0,2,0.1,2.7,0.2c2.6,0.4,3,1.6,3.2,4.2
			c0.2,2.4,0.2,4.5,0.2,16.2v13.3c0,7.3,0,13.2-0.4,16.3c-0.4,2.2-0.5,3.7-2,4c-0.7,0.1-1.7,0.4-2.4,0.4c-0.4,0-0.6,0.4-0.6,0.6
			c0,0.4,0.4,0.6,1.2,0.6c1.3,0,3-0.1,4.5-0.2c1.7-0.1,3.2-0.1,3.4-0.1c1.2,0,3.2,0,6.5,0.2c3.2,0.1,7.7,0.3,13.6,0.3
			c3,0,3.8,0,4.4-2c0.4-1.6,1.1-6.8,1.1-7.3S193.1,319.6,192.7,319.6z M256.6,316.1c-0.5,0-0.6,0.3-0.8,1.1c-0.3,1.4-1.3,4.6-3,6.3
			c-3.1,3.1-7,3.6-12.9,3.6c-16.7,0-28.2-12.9-28.2-27.3c0-7.6,1.2-14.4,7-19.7c2.8-2.6,7.6-5.2,17.6-5.2c6.9,0,12.6,1.9,15.4,4.2
			c2,1.6,3.3,4.6,3.3,7.6c0,1.1,0.1,1.6,0.6,1.6c0.4,0,0.8-0.4,0.9-1.6c0.1-1.1,0.1-5.2,0.2-7.7c0.2-2.8,0.3-3.6,0.3-4.3
			c0-0.4-0.2-0.8-1-0.8c-2.6-0.1-5.1-0.6-8-1.2c-3.8-0.6-8.3-0.9-11.4-0.9c-12,0-19.1,3.6-23.8,8.1c-6.9,6.7-8.8,15.5-8.8,20.6
			c0,7.2,1.9,15.8,9.5,22.4c6.1,5.3,14,8.1,25.8,8.1c5.1,0,10.9-0.4,14.1-1.7c1.3-0.5,1.5-0.8,1.9-2.2c0.8-2.6,1.9-9.1,1.9-9.7
			C257.3,316.7,257,316.1,256.6,316.1z M327.7,328.6c-0.4,0-1.3,0-2.8-0.3c-2-0.3-4.5-1-8.7-5.2c-4.5-4.7-10-11.5-16.4-19.5
			c7.3-6.2,9.6-11.6,9.6-17.2c0-5.2-3.5-8.9-5.4-10.3c-4.1-2.8-9.6-3.3-14.6-3.3c-2.4,0-9,0.2-9.8,0.2c-0.4,0-5.7-0.2-9.2-0.2
			c-0.9,0-1.3,0.2-1.3,0.6c0,0.3,0.3,0.6,0.6,0.6c0.7,0,2,0.1,2.7,0.2c2.6,0.4,3,1.6,3.2,4.2c0.2,2.4,0.2,4.5,0.2,16.2v13.3
			c0,7.3,0,13.2-0.4,16.3c-0.4,2.2-0.5,3.6-2,4c-0.7,0.2-1.7,0.4-2.4,0.4c-0.5,0-0.6,0.4-0.6,0.6c0,0.4,0.4,0.6,1.2,0.6
			c2.4,0,7.6-0.3,7.7-0.3c0.4,0,5.3,0.3,9.6,0.3c0.9,0,1.2-0.3,1.2-0.6c0-0.3-0.1-0.6-0.6-0.6c-0.7,0-2.4-0.2-3.5-0.4
			c-2.4-0.3-2.8-1.8-3.1-4c-0.4-3.1-0.4-9-0.4-16.2v-1.8c0-0.4,0.2-0.6,0.5-0.6l10,0.2c0.5,0,0.7,0.1,1.1,0.4c1.7,2,5.2,6.9,8.4,11
			c4.4,5.7,7.3,9.3,10.7,11.1c2,1.1,3.9,1.5,8.4,1.5h4.9c1.4,0,1.9-0.2,1.9-0.6C328.4,328.9,328.2,328.6,327.7,328.6z M297.7,301.8
			c-1.9,1.2-4,1.3-5.9,1.3c-3.5,0-7.5-0.5-8.6-1.1c-0.4-0.3-0.5-0.5-0.5-1v-24.2c0-0.4,0.3-0.7,0.6-0.9c0.8-0.2,3.3-0.4,5.6-0.4
			c8.4,0,13.5,5.4,13.5,14.8C302.4,296,300.3,300,297.7,301.8z M364.2,319.6c-0.4,0-0.6,0.3-0.8,1.1c-0.4,3-1.5,4.4-3.6,5.2
			c-2,0.8-5.8,0.8-7.8,0.8c-7.7,0-9.1-1-9.3-6c-0.1-1.5,0-10.3,0-12.9v-6.3c0-0.3,0.1-0.5,0.5-0.5c1.3,0,9.7,0.1,11.8,0.4
			c3,0.4,3.7,1.2,4,2.3c0.4,1,0.4,1.8,0.4,2.5c0,0.5,0.2,0.7,0.5,0.7c0.5,0,0.7-0.8,0.7-1.4c0-0.5,0.2-3.4,0.4-4.9
			c0.2-2.5,0.6-3.7,0.6-4.2c0-0.4-0.2-0.6-0.4-0.6c-0.3,0-0.6,0.4-1.2,1c-0.8,0.8-2,0.9-3.8,1.1c-1.8,0.2-12.1,0.2-13.1,0.2
			c-0.4,0-0.4-0.3-0.4-0.8v-20.5c0-0.5,0.1-0.8,0.4-0.8c0.9,0,10,0.1,11.3,0.3c4.3,0.5,5.1,1.1,5.6,2.3c0.4,0.9,0.4,2.1,0.4,2.6
			c0,0.6,0.2,1,0.6,1c0.4,0,0.6-0.4,0.7-0.8c0.2-0.9,0.4-4.3,0.4-5c0.2-2.1,0.6-3,0.6-3.5c0-0.4-0.1-0.7-0.4-0.7
			c-0.4,0-0.7,0.3-1.1,0.4c-0.6,0.1-2,0.4-3.6,0.5c-1.8,0.1-18.1,0-18.7,0c-0.4,0-5.5-0.2-9.1-0.2c-0.9,0-1.2,0.2-1.2,0.6
			c0,0.3,0.4,0.6,0.6,0.6c0.7,0,2,0.1,2.7,0.2c2.6,0.4,3,1.6,3.2,4.2c0.2,2.4,0.2,4.5,0.2,16.2v13.3c0,7.3,0,13.2-0.4,16.3
			c-0.4,2.2-0.5,3.7-2,4c-0.7,0.1-1.7,0.4-2.4,0.4c-0.4,0-0.6,0.4-0.6,0.6c0,0.4,0.5,0.6,1.3,0.6c1.3,0,3-0.1,4.5-0.2
			c1.7-0.1,3.2-0.1,3.4-0.1c1.2,0,3.2,0,6.5,0.2c3.2,0.1,7.7,0.3,13.6,0.3c3,0,3.8,0,4.4-2c0.4-1.6,1.1-6.8,1.1-7.3
			S364.7,319.6,364.2,319.6z M422.2,272.2c-0.4,0-1.1,0.2-2.2,0.4c-1.2,0.2-3,0.4-5.6,0.4h-29.5c-0.9,0-3.9-0.1-6.1-0.4
			c-2.1-0.3-2.9-0.9-3.5-0.9c-0.3,0-0.7,1-0.8,1.4c-0.2,0.6-1.7,7.4-1.7,8.2c0,0.4,0.4,0.6,0.5,0.6c0.3,0,0.6-0.1,0.8-0.7
			c0.3-0.5,0.4-1.1,1.2-2.4c1.2-1.8,3-2.3,7.9-2.4l11.3-0.2v31.7c0,7.3,0,13.2-0.4,16.3c-0.3,2.2-0.7,3.7-2.3,4.1
			c-0.7,0.2-1.6,0.3-2.3,0.3c-0.4,0-0.6,0.3-0.6,0.5c0,0.4,0.4,0.6,1.2,0.6c2.3,0,7.7-0.3,8.1-0.3c0.4,0,5.4,0.3,9.7,0.3
			c0.9,0,1.2-0.3,1.2-0.6c0-0.3-0.1-0.6-0.6-0.6c-0.7,0-2.5-0.2-3.6-0.4c-2.4-0.3-2.8-1.8-3-4c-0.3-3.1-0.3-9.1-0.3-16.3v-31.7
			l9.8,0.2c7.5,0.2,9.1,1.9,9.4,4.2l0.1,0.8c0.1,1.1,0.3,1.3,0.6,1.3c0.4,0,0.7-0.4,0.7-1c0-0.9,0.3-6.3,0.3-8.6
			C422.5,272.7,422.5,272.2,422.2,272.2z"/>
	</g>
</g>
</svg>
