<?xml version="1.0" encoding="UTF-8" standalone="no"?><!-- Generator: Gravit.io --><svg xmlns="http://www.w3.org/2000/svg" xmlns:xlink="http://www.w3.org/1999/xlink" style="isolation:isolate" viewBox="0 0 173 173" width="173" height="173"><defs><clipPath id="_clipPath_28yPtlnFI5znzyma6wlpb9BLJSc2MiBI"><rect width="173" height="173"/></clipPath></defs><g clip-path="url(#_clipPath_28yPtlnFI5znzyma6wlpb9BLJSc2MiBI)"><clipPath id="_clipPath_zN4c5FejHcKqDqZc5hZk9eO7LAuHxDvB"><rect x="0" y="0" width="173" height="173" transform="matrix(1,0,0,1,0,0)" fill="rgb(255,255,255)"/></clipPath><g clip-path="url(#_clipPath_zN4c5FejHcKqDqZc5hZk9eO7LAuHxDvB)"><g><g><path d=" M 0 74.379 C 0 74.379 4.304 92.018 4.991 94.881 C 5.793 98.222 7.238 99.452 11.404 98.623 L 14.091 87.687 C 14.772 84.97 15.229 83.034 15.668 80.27 L 15.744 80.27 C 16.052 83.061 16.49 84.978 17.051 87.697 C 17.051 87.697 18.145 92.661 18.705 95.269 C 19.267 97.875 20.831 99.518 24.91 98.624 L 31.315 74.381 L 26.144 74.381 L 23.958 84.862 C 23.369 87.914 22.836 90.297 22.425 93.088 L 22.353 93.088 C 21.978 90.325 21.504 88.035 20.905 85.063 L 18.629 74.381 L 13.242 74.381 L 10.806 84.794 C 10.116 87.958 9.471 90.513 9.06 93.21 L 8.986 93.21 C 8.567 90.67 8.006 87.459 7.4 84.396 C 7.4 84.396 5.954 76.948 5.446 74.381 L 0.001 74.382 L 0 74.379 Z  M 49.293 74.379 L 49.293 98.622 L 54.216 98.622 L 54.216 93.474 L 54.216 74.378 L 49.293 74.378 L 49.293 74.379 Z  M 118.629 74.379 L 118.629 92.263 C 118.629 94.729 119.092 96.457 120.085 97.512 C 120.952 98.435 122.382 99.033 124.093 99.033 C 125.549 99.033 126.98 98.757 127.655 98.506 L 127.592 94.658 C 127.089 94.782 126.512 94.881 125.722 94.881 C 124.045 94.881 123.483 93.807 123.483 91.592 L 123.483 84.75 L 127.77 84.75 L 127.77 80.112 L 123.483 80.112 L 123.483 74.379 L 118.629 74.379 L 118.629 74.379 Z  M 38.29 79.999 C 35.231 79.999 32.803 80.859 31.478 81.623 L 32.448 84.941 C 33.659 84.176 35.588 83.544 37.415 83.544 C 40.44 83.537 40.933 85.255 40.933 86.356 L 40.933 86.617 C 34.344 86.607 30.182 88.888 30.182 93.535 C 30.182 96.373 32.3 99.033 35.985 99.033 C 38.253 99.033 40.149 98.128 41.286 96.678 L 41.398 96.678 C 41.398 96.678 42.151 99.826 46.298 98.623 C 46.081 97.313 46.01 95.916 46.01 94.233 L 46.01 87.757 C 46.01 83.63 44.248 79.999 38.29 79.999 L 38.29 79.999 Z  M 67.74 79.999 C 64.659 79.999 63.275 81.56 62.435 82.885 L 62.363 82.885 L 62.363 80.41 L 57.664 80.41 L 57.664 98.623 L 62.613 98.623 L 62.613 87.942 C 62.613 87.441 62.671 86.912 62.845 86.452 C 63.256 85.375 64.255 84.118 65.854 84.118 C 67.85 84.118 68.785 85.806 68.785 88.242 L 68.785 98.623 L 73.729 98.623 L 73.729 87.812 C 73.729 87.335 73.794 86.759 73.934 86.336 C 74.341 85.113 75.42 84.118 76.905 84.118 C 78.929 84.118 79.901 85.777 79.901 88.644 L 79.901 98.623 L 84.848 98.623 L 84.848 87.896 C 84.848 82.239 81.976 79.999 78.733 79.999 C 77.297 79.999 76.163 80.359 75.139 80.988 C 74.277 81.517 73.506 82.268 72.832 83.256 L 72.759 83.256 C 71.975 81.294 70.135 79.999 67.739 79.999 L 67.74 79.999 Z  M 94.917 79.999 C 91.858 79.999 89.43 80.859 88.105 81.623 L 89.076 84.941 C 90.286 84.176 92.216 83.544 94.041 83.544 C 97.064 83.537 97.559 85.255 97.559 86.356 L 97.559 86.617 C 90.971 86.607 86.807 88.888 86.807 93.535 C 86.807 96.373 88.927 99.033 92.614 99.033 C 94.88 99.033 96.777 98.128 97.912 96.678 L 98.025 96.678 C 98.025 96.678 98.777 99.826 102.925 98.623 C 102.707 97.313 102.637 95.916 102.637 94.233 L 102.637 87.757 C 102.637 83.63 100.875 79.999 94.917 79.999 L 94.917 79.999 Z  M 115.469 79.999 C 113.574 79.999 111.418 81.222 110.513 83.845 L 110.375 83.845 L 110.375 80.41 L 105.92 80.41 L 105.92 98.623 L 110.999 98.623 L 110.999 89.297 C 110.999 88.793 111.029 88.355 111.109 87.953 C 111.485 86 112.978 84.75 115.123 84.75 C 115.712 84.75 116.133 84.814 116.59 84.879 L 116.59 80.112 C 116.207 80.034 115.945 79.999 115.47 79.999 L 115.469 79.999 Z  M 41.093 89.844 L 41.093 92.117 C 41.093 92.453 41.064 92.799 40.97 93.102 C 40.589 94.364 39.282 95.431 37.648 95.431 C 36.285 95.431 35.203 94.657 35.203 93.022 C 35.203 90.52 37.957 89.828 41.093 89.844 L 41.093 89.844 Z  M 97.719 89.844 L 97.719 92.117 C 97.719 92.453 97.688 92.799 97.596 93.102 C 97.215 94.364 95.909 95.431 94.275 95.431 C 92.912 95.431 91.829 94.657 91.829 93.022 C 91.829 90.52 94.583 89.828 97.719 89.844 L 97.719 89.844 Z " fill="rgb(0,125,198)"/><path d=" M 154.387 65.612 C 152.798 65.612 151.535 66.499 151.535 67.58 L 152.5 78.509 C 152.607 79.167 153.413 79.676 154.388 79.676 C 155.366 79.674 156.17 79.167 156.278 78.509 L 157.248 67.58 C 157.248 66.499 155.981 65.612 154.39 65.612 L 154.387 65.612 Z  M 138.659 74.378 C 137.833 74.399 136.896 75.023 136.3 76.056 C 135.503 77.433 135.644 78.971 136.577 79.511 L 146.524 84.143 C 147.144 84.374 147.989 83.934 148.477 83.09 C 148.477 83.09 148.477 83.09 148.477 83.09 C 148.969 82.243 148.93 81.292 148.413 80.869 L 139.43 74.568 C 139.196 74.433 138.934 74.373 138.659 74.378 L 138.659 74.378 Z  M 170.117 74.378 C 169.841 74.373 169.579 74.433 169.346 74.568 L 160.363 80.869 C 159.849 81.292 159.81 82.243 160.299 83.09 L 160.3 83.09 C 160.79 83.932 161.631 84.374 162.252 84.143 L 172.203 79.511 C 173.14 78.971 173.274 77.433 172.482 76.056 C 171.884 75.023 170.945 74.399 170.119 74.378 L 170.117 74.378 Z  M 146.895 88.799 C 146.767 88.797 146.642 88.817 146.525 88.861 L 136.578 93.486 C 135.646 94.029 135.504 95.568 136.302 96.946 C 137.097 98.319 138.498 98.973 139.43 98.434 L 148.415 92.138 C 148.932 91.711 148.97 90.759 148.478 89.913 L 148.483 89.914 C 148.086 89.226 147.453 88.806 146.895 88.798 L 146.895 88.799 Z  M 161.885 88.799 C 161.328 88.806 160.696 89.226 160.299 89.914 L 160.302 89.913 C 159.813 90.759 159.851 91.711 160.365 92.138 L 169.349 98.434 C 170.281 98.973 171.684 98.319 172.482 96.946 C 173.274 95.568 173.14 94.029 172.203 93.486 L 162.254 88.861 C 162.138 88.817 162.014 88.797 161.885 88.799 L 161.885 88.799 Z  M 154.386 93.328 C 153.413 93.329 152.608 93.835 152.501 94.492 L 151.536 105.42 C 151.536 106.502 152.799 107.388 154.39 107.388 C 155.981 107.388 157.247 106.502 157.247 105.42 L 156.28 94.492 C 156.171 93.835 155.367 93.329 154.39 93.328 L 154.386 93.328 L 154.386 93.328 Z " fill="rgb(255,194,32)"/></g></g></g></g></svg>