<?xml version="1.0" encoding="utf-8"?>
<!-- Generator: Adobe Illustrator 22.1.0, SVG Export Plug-In . SVG Version: 6.00 Build 0)  -->
<svg version="1.1"
	 id="svg2" inkscape:version="0.48.2 r9819" sodipodi:docname="Aeropostale_logo2.svg" xmlns:cc="http://creativecommons.org/ns#" xmlns:dc="http://purl.org/dc/elements/1.1/" xmlns:inkscape="http://www.inkscape.org/namespaces/inkscape" xmlns:rdf="http://www.w3.org/1999/02/22-rdf-syntax-ns#" xmlns:sodipodi="http://sodipodi.sourceforge.net/DTD/sodipodi-0.dtd" xmlns:svg="http://www.w3.org/2000/svg"
	 xmlns="http://www.w3.org/2000/svg" xmlns:xlink="http://www.w3.org/1999/xlink" x="0px" y="0px" viewBox="0 0 500 500"
	 style="enable-background:new 0 0 500 500;" xml:space="preserve">
<style type="text/css">
	.st0{fill:#7F187F;}
	.st1{fill:#82D170;}
	.st2{fill:#F8CF1C;}
	.st3{fill:#C6D636;}
	.st4{fill:#D57DEA;}
</style>
<sodipodi:namedview  bordercolor="#666666" borderopacity="1" gridtolerance="10" guidetolerance="10" id="namedview35" inkscape:current-layer="svg2" inkscape:cx="305.96738" inkscape:cy="101.65201" inkscape:pageopacity="0" inkscape:pageshadow="2" inkscape:window-height="1003" inkscape:window-maximized="1" inkscape:window-width="1680" inkscape:window-x="-4" inkscape:window-y="-4" inkscape:zoom="1.2764184" objecttolerance="10" pagecolor="#ffffff" showgrid="false">
	</sodipodi:namedview>
<sodipodi:namedview  bordercolor="#666666" borderopacity="1" fit-margin-bottom="0" fit-margin-left="0" fit-margin-right="0" fit-margin-top="0" gridtolerance="10" guidetolerance="10" id="namedview3875" inkscape:current-layer="g3881" inkscape:cx="836.55822" inkscape:cy="-249.2839" inkscape:pageopacity="0" inkscape:pageshadow="2" inkscape:window-height="1028" inkscape:window-maximized="1" inkscape:window-width="1920" inkscape:window-x="-8" inkscape:window-y="-8" inkscape:zoom="0.47532087" objecttolerance="10" pagecolor="#ffffff" showgrid="false">
	</sodipodi:namedview>
<g>
	<path class="st0" d="M178.6,197.4H157c-2,0-3.6,1.6-3.6,3.6v4.8c0,1.3,1.1,2.3,2.4,2.3h3.6c0.1,0,0.2,0.1,0.3,0.1
		c0.1,0.1,0.1,0.2,0.1,0.4l-8.5,25.4c-0.1,0.2-0.2,0.3-0.4,0.2c-0.2,0-0.3-0.1-0.3-0.2l-12.6-34.4v0c-0.3-0.8-1.1-1.4-2.1-1.5h-7.6
		c-0.9,0.1-1.7,0.6-2.1,1.5v0L113.4,234c0,0.2-0.2,0.3-0.3,0.3c-0.2,0-0.3-0.1-0.4-0.2l-8.5-25.4c0-0.1,0-0.3,0.1-0.4
		c0.1-0.1,0.2-0.1,0.3-0.1h3.6c1.3,0,2.3-1,2.4-2.3v-4.8c0-2-1.6-3.6-3.6-3.6H85.2c-0.8,0-1.5,0.4-1.9,1c-0.4,0.6-0.5,1.3-0.3,2
		c0.3,0.9,0.7,1.9,1,3c0.4,1.1,0.7,2.1,1,3.1c0.3,1,1.2,1.6,2.2,1.6h3.6c0.2,0,0.4,0.1,0.4,0.3l16.8,49.5c0.3,1,1.2,1.6,2.2,1.6h5.2
		c1,0,1.8-0.6,2.2-1.5c4.6-13.4,13.5-38.9,13.8-39.7c0.1-0.2,0.2-0.3,0.4-0.3c0.2,0,0.4,0.1,0.4,0.3c0.4,0.9,9.2,26.4,13.8,39.8
		c0.3,0.9,1.2,1.5,2.2,1.5h5.2c1,0,1.9-0.7,2.2-1.6l16.8-49.4c0.2-0.3,0.3-0.3,0.4-0.3h3.6c1,0,1.9-0.7,2.2-1.6c0.4-1,0.7-2,1-3.1
		c0.4-1,0.7-2.2,1-3c0.2-0.7,0.1-1.4-0.3-2C180.1,197.8,179.4,197.4,178.6,197.4L178.6,197.4z M431.8,249.5h-3.9
		c-0.6,0-1.1-0.5-1.1-1.1v-48.8c0-0.9-0.7-1.6-1.6-1.6l0,0h-11.4c-0.5,0-0.9,0.2-1.3,0.6l-4.8,5.9c-0.2,0.3-0.3,0.6-0.3,1
		c0,0.9,0.7,1.6,1.5,1.6h1.5c0.6,0,1.1,0.5,1.1,1.1v39.9c0,0.3-0.1,0.6-0.3,0.9c-1.3,1.6-4,5.1-5.4,6.8c-0.3,0.3-0.4,0.7-0.4,1.1
		c0,0.9,0.7,1.6,1.6,1.6h20c0.4,0,0.8-0.1,1.1-0.4l4.7-5.9C433.9,251,433.1,249.5,431.8,249.5L431.8,249.5z"/>
	<circle class="st0" cx="419" cy="182.9" r="8.6"/>
	<g>
		<path class="st0" d="M494.9,203.1c0-0.8-0.4-1.6-1.6-1.6h-2v5.3h0.8v-1.9h0.7l1.3,1.9h0.9l-1.4-2
			C494.5,204.6,494.9,203.8,494.9,203.1z M492.1,204v-1.9h1.3c0.5,0,0.8,0.4,0.8,0.9c0,0,0,0,0,0.1c0.1,0.5-0.3,0.9-0.8,1
			c0,0-0.1,0-0.1,0h0H492.1z"/>
		<path class="st0" d="M493,199.5c-2.5,0-4.5,2-4.5,4.5c0,2.5,2,4.5,4.5,4.5c2.5,0,4.5-2,4.5-4.5C497.5,201.6,495.5,199.5,493,199.5
			z M493,207.9L493,207.9c-2.1,0-3.9-1.7-3.9-3.8v0c0,0,0-0.1,0-0.1c0-2.1,1.7-3.8,3.8-3.8l0.1,0c2.1,0,3.9,1.7,3.9,3.9
			C496.8,206.2,495.1,207.9,493,207.9z M235.1,249.7c-3.3,0.1-5-1.4-5-5.2v-27.3c0-12-10-19.5-21.3-19.5c-17.5,0-23.9,8.3-24.6,17.6
			c0,0.9,0.6,1.7,1.5,1.7c0,0,0,0,0.1,0h8.6c0.8,0,1.5-0.7,1.6-1.5c0.4-4.8,3.7-8.4,9.1-8.4c6,0,9.7,3,9.7,10v5.9h-3.1
			c-10.8,0-18.2,1.4-23.2,4.5c-5,3.1-7.5,8.9-7.5,15.7c0,5,1.7,9.1,5.1,12.3s7.4,4.7,12.7,4.7c3.1,0,6.2-0.7,9.1-2.1
			c2.8-1.2,5.4-2.9,7.7-4.9c0.5-0.4,1.2-0.4,1.6,0c0.1,0.1,0.1,0.2,0.2,0.3c2.5,4.3,5.1,5.7,10.3,5.7c4.6,0,6.8-4.3,8.8-6.9
			C237.1,251.2,236.3,249.6,235.1,249.7z M214.8,245.3L214.8,245.3c-0.1,0.4-0.7,0.9-0.9,1.1c-1.4,1.2-3,2.2-4.6,3
			c-1.5,0.6-3.1,0.9-4.8,0.9c-2.4,0-4.8-0.9-6.3-2.6c-1.6-1.7-2.4-4-2.4-6.4c0-3.6,1.3-5.9,4-7.7c2.7-1.8,7.1-2.6,12.3-2.6h2.6
			L214.8,245.3z M399.5,249.7c-3.3,0.1-5-1.4-5-5.2v-27.3c0-12-10-19.5-21.3-19.5c-17.5,0-23.9,8.3-24.6,17.6c0,0.9,0.6,1.7,1.5,1.7
			c0,0,0,0,0.1,0h8.6c0.8,0,1.5-0.7,1.6-1.5c0.4-4.8,3.7-8.4,9.1-8.4c6,0,9.7,3,9.7,10v5.9h-3.1c-10.8,0-18.2,1.4-23.2,4.5
			c-5,3.1-7.5,8.9-7.5,15.7c0,5,1.7,9.1,5.1,12.3c3.4,3.3,7.4,4.7,12.7,4.7c3.1,0,6.2-0.7,9.1-2.1c2.8-1.2,5.4-2.9,7.7-4.9
			c0.5-0.4,1.2-0.4,1.6,0c0.1,0.1,0.1,0.2,0.2,0.3c2.5,4.3,5.1,5.7,10.3,5.7c4.6,0,6.8-4.3,8.8-6.9
			C401.5,251.2,400.7,249.6,399.5,249.7L399.5,249.7z M379.3,245.3L379.3,245.3c-0.1,0.4-0.7,0.9-0.9,1.1c-1.4,1.2-3,2.2-4.6,3
			c-1.5,0.6-3.1,0.9-4.8,0.9c-2.4,0-4.8-0.9-6.3-2.6c-1.6-1.7-2.4-4-2.4-6.4c0-3.6,1.3-5.9,4-7.7c2.7-1.8,7.1-2.6,12.3-2.6h2.6
			V245.3z M481,197.8c-0.8-0.4-2.8-0.6-4.5-0.6c-2.8,0-5,0.4-7,1.2l-0.2,0.1c-0.7,0.3-1.4,0.7-2.1,1.2c-2.4,1.5-4.6,3.4-6.5,5.6
			c-1.9,2.2-0.8,0.6-1-0.4v-5.4c0-0.9-0.7-1.6-1.6-1.6h-11.5c-0.5,0-0.9,0.2-1.2,0.6c-0.3,0.4-3.6,4.5-4.8,6.1
			c-0.7,0.9-0.3,2.6,1.3,2.6h1.4c0.6,0,1.1,0.5,1.1,1.1v40.1c0,0.3-0.1,0.6-0.3,0.9c-1.1,1.4-4,5-5.4,6.8c-0.2,0.3-0.3,0.6-0.3,1
			c0,0.9,0.7,1.6,1.6,1.6h24.8c0.9,0,1.6-0.7,1.6-1.6v-6c0-0.9-0.7-1.6-1.6-1.6h-3.9c-0.6,0-1.1-0.5-1.1-1.1v-23.3
			c0.5-11.1,7.1-14.5,10.3-15.5l0.5-0.1l0.1,0c0.9-0.2,1.8-0.3,2.6-0.4c3.8,0,5.2,0.6,7.2,1.1c0.9,0.2,1.6-0.7,1.6-1.6v-9.1
			C482.1,198.6,481.5,198.1,481,197.8L481,197.8z M345.8,198h-18c-0.6,0-1.1-0.5-1.1-1.1V188c0-4.3,2.2-8.6,6.8-8.6
			c5.2,0,6,4.4,6.2,7.7c0.1,0.8,0.7,1.5,1.6,1.6h7.4c0.8,0,1.5-0.7,1.5-1.6c-0.2-11.1-7.2-15.9-18.6-15.9c-6.9,0-11.4,2.2-14.9,6.3
			c-3.4,4.2-5.1,8.8-5.1,17.1v2.2c0,0.6-0.5,1.1-1.1,1.1l-30.7,0.1l0,0c-0.9,0-1.6,0.7-1.6,1.6v6c0,0.9,0.7,1.6,1.6,1.6h3.3
			c0.6,0,1.1,0.5,1.1,1.1c0,0.1,0,0.3-0.1,0.4c-0.1,0.1-8.5,19.7-11.9,27.6c-0.2,0.4-0.6,0.7-1,0.7c-0.5,0-0.9-0.3-1-0.7
			c-3.5-7.9-12-27.6-12-27.6c-0.1-0.1-0.1-0.3-0.1-0.4c0-0.6,0.5-1.1,1.1-1.1h2.3c0.9,0,1.6-0.7,1.6-1.6v-6c0-0.9-0.7-1.6-1.6-1.6
			l0,0h-27.8c-0.9,0-1.6,0.7-1.6,1.6c0,0.3,0.1,0.5,0.2,0.8c0.8,1.5,2.7,5,3.2,6c0.3,0.5,0.8,0.8,1.3,0.8h5.4c0.4,0,0.9,0.3,1,0.7
			c0.2,0.4,19.8,44.4,20.5,46c0.8,2,0.8,4.2,0,6.2c-0.9,3.6-7,10.1-10.3,9c-2.3-0.8-2.6-5-5.4-5.5c-0.5-0.1-1,0-1.5,0.2
			c-0.5,0.2-5,6-6,7c-0.5,0.6-0.5,1.5,0,2.2c2.5,2.5,6.6,5.9,12.5,6.2c7.3,0.3,14.6-0.7,21.2-13.4c0,0,21.3-52,23.8-57.6
			c0.2-0.4,0.6-0.6,1-0.6h11.2c0.6,0,1.1,0.5,1.1,1.1v40c0,0.3-0.1,0.6-0.3,0.9c-1.3,1.7-4,5.1-5.4,6.8c-0.2,0.3-0.4,0.6-0.4,1
			c0,0.9,0.7,1.6,1.6,1.6l0,0h25.1c0.9,0,1.6-0.7,1.6-1.6v-5.9c0-0.9-0.7-1.6-1.6-1.6H328c-0.6,0-1.1-0.5-1.1-1.1v-40
			c0-0.6,0.5-1.1,1.1-1.1h13.3c0.5,0,0.9-0.2,1.3-0.6c1.1-1.5,3.4-4.5,4.6-6c0.2-0.3,0.3-0.6,0.3-1C347.4,198.8,346.7,198,345.8,198
			L345.8,198z"/>
		<path class="st1" d="M74.8,217.3l-4.3-16.4c-0.1-0.6-0.6-1-1.1-1.1L53,195.4c-0.5-0.1-1.1,0-1.5,0.4l-11,11l22.9,22.9l11-11
			C74.8,218.4,74.9,217.8,74.8,217.3L74.8,217.3z"/>
		<path class="st2" d="M6.2,242.2l4.3,16.4c0.1,0.6,0.6,1,1.1,1.1l16.4,4.3c0.5,0.1,1.1,0,1.5-0.4l11-11l-22.9-22.9l-11,11
			C6.2,241.1,6,241.7,6.2,242.2z"/>
		<path class="st3" d="M28,195.4l-16.4,4.3c-0.6,0.1-1,0.6-1.1,1.1l-4.3,16.3c-0.1,0.5,0,1.1,0.4,1.5l11,11l22.9-22.9l-11-11
			C29.1,195.4,28.5,195.3,28,195.4z"/>
		<path class="st4" d="M74.2,240.6l-10.8-10.8l-22.9,22.9l10.8,10.8c0.5,0.5,1.2,0.7,1.9,0.5l15.9-4.2c0.7-0.2,1.2-0.7,1.4-1.4
			l4.2-15.9C74.9,241.8,74.7,241.1,74.2,240.6L74.2,240.6z"/>
		<path class="st0" d="M40.5,206.8l-22.9,22.9l22.9,22.9l22.9-22.9L40.5,206.8z"/>
		<path class="st1" d="M74.8,217.3l-4.3-16.4c-0.1-0.6-0.6-1-1.1-1.1L53,195.4c-0.5-0.1-1.1,0-1.5,0.4l-11,11l22.9,22.9l11-11
			C74.8,218.4,74.9,217.8,74.8,217.3L74.8,217.3z"/>
		<path class="st2" d="M6.2,242.2l4.3,16.4c0.1,0.6,0.6,1,1.1,1.1l16.4,4.3c0.5,0.1,1.1,0,1.5-0.4l11-11l-22.9-22.9l-11,11
			C6.2,241.1,6,241.7,6.2,242.2z"/>
		<path class="st3" d="M28,195.4l-16.4,4.3c-0.6,0.1-1,0.6-1.1,1.1l-4.3,16.3c-0.1,0.5,0,1.1,0.4,1.5l11,11l22.9-22.9l-11-11
			C29.1,195.4,28.5,195.3,28,195.4z"/>
		<path class="st4" d="M74.2,240.6l-10.8-10.8l-22.9,22.9l10.8,10.8c0.5,0.5,1.2,0.7,1.9,0.5l15.9-4.2c0.7-0.2,1.2-0.7,1.4-1.4
			l4.2-15.9C74.9,241.8,74.7,241.1,74.2,240.6L74.2,240.6z"/>
		<path class="st0" d="M40.5,206.8l-22.9,22.9l22.9,22.9l22.9-22.9L40.5,206.8z"/>
	</g>
</g>
</svg>
