<?xml version="1.0" encoding="utf-8"?>
<!-- Generator: Adobe Illustrator 22.1.0, SVG Export Plug-In . SVG Version: 6.00 Build 0)  -->
<svg version="1.1"
	 id="svg2" inkscape:version="0.48.2 r9819" sodipodi:docname="Aeropostale_logo2.svg" xmlns:cc="http://creativecommons.org/ns#" xmlns:dc="http://purl.org/dc/elements/1.1/" xmlns:inkscape="http://www.inkscape.org/namespaces/inkscape" xmlns:rdf="http://www.w3.org/1999/02/22-rdf-syntax-ns#" xmlns:sodipodi="http://sodipodi.sourceforge.net/DTD/sodipodi-0.dtd" xmlns:svg="http://www.w3.org/2000/svg"
	 xmlns="http://www.w3.org/2000/svg" xmlns:xlink="http://www.w3.org/1999/xlink" x="0px" y="0px" viewBox="0 0 500 500"
	 style="enable-background:new 0 0 500 500;" xml:space="preserve">
<sodipodi:namedview  bordercolor="#666666" borderopacity="1" gridtolerance="10" guidetolerance="10" id="namedview35" inkscape:current-layer="svg2" inkscape:cx="305.96738" inkscape:cy="101.65201" inkscape:pageopacity="0" inkscape:pageshadow="2" inkscape:window-height="1003" inkscape:window-maximized="1" inkscape:window-width="1680" inkscape:window-x="-4" inkscape:window-y="-4" inkscape:zoom="1.2764184" objecttolerance="10" pagecolor="#ffffff" showgrid="false">
	</sodipodi:namedview>
<sodipodi:namedview  bordercolor="#666666" borderopacity="1" fit-margin-bottom="0" fit-margin-left="0" fit-margin-right="0" fit-margin-top="0" gridtolerance="10" guidetolerance="10" id="namedview3875" inkscape:current-layer="g3881" inkscape:cx="836.55822" inkscape:cy="-249.2839" inkscape:pageopacity="0" inkscape:pageshadow="2" inkscape:window-height="1028" inkscape:window-maximized="1" inkscape:window-width="1920" inkscape:window-x="-8" inkscape:window-y="-8" inkscape:zoom="0.47532087" objecttolerance="10" pagecolor="#ffffff" showgrid="false">
	</sodipodi:namedview>
<g>
	<path d="M87.3,292.8H8.5v-5.1L66.4,190v-1.1H46.1c-8.7,0-15.2,1.9-19.5,5.4c-4.1,3.5-7.3,10-9.5,19.5h-4.1l1.9-29.2h73.9v5.4
		l-58.2,97.7v1.1h24.6c9.2,0,16-2.2,20-6.8c4.3-4.3,7.3-12.7,9.5-25.2h4.3L87.3,292.8z"/>
	<path d="M152.2,292.8v-4.1h15.7l-9.5-28.7h-33.8l-9.2,28.7h16v4.1h-33v-4.1h12.5l35.5-106.7h5.1l36.3,106.7h12.5v4.1H152.2z
		 M126.3,255.7h30.9l-14.6-43.9h-1.6L126.3,255.7z"/>
	<path d="M239.4,237.9v50.6h16.2v4.1h-51.2v-4.1h14.9V188.3h-14.9V184h84.2l1.1,32.5h-3.5c-1.4-10.6-4.1-17.9-8.1-22.2
		c-4.1-4.1-10.3-6.2-19.5-6.2h-19.2v46h1.9c7.6,0,13-1.4,15.7-4.3c3-2.7,4.9-8.1,5.7-15.7h3.5v43.6h-3.5c-0.8-7.9-2.4-13.3-5.4-16
		c-3-2.7-8.7-4.3-16.8-4.3h-1.1L239.4,237.9L239.4,237.9z"/>
	<path d="M333.3,259.5v2.7c0,10.3,1.6,17.6,5.1,21.7c3.5,4.1,9.2,6.2,17.1,6.2c9.2,0,16.2-2.4,21.1-7.3c4.9-4.9,7-12.2,7-21.7v-72.8
		h-14.9v-4.1h34.4v4.1h-15.4v72.5c0,11.6-3,20-8.9,25.7c-6,5.7-15.2,8.4-27.3,8.4c-12.7,0-22.5-2.7-28.7-8.1
		c-6.5-5.4-9.7-13.3-9.7-23.8v-74.7h-14.9v-4.1h50.1v4.1h-14.9L333.3,259.5L333.3,259.5z"/>
	<path d="M495,292.8h-85v-4.1h14.9V188.6H410v-4.3H460v4.3h-15.2v100.2h16c10,0,17.3-2.4,21.9-7.3c4.6-4.9,7.6-13.5,8.9-25.7h3.8
		L495,292.8z"/>
</g>
</svg>
