<?xml version="1.0" encoding="UTF-8" standalone="no"?><!-- Generator: Gravit.io --><svg xmlns="http://www.w3.org/2000/svg" xmlns:xlink="http://www.w3.org/1999/xlink" style="isolation:isolate" viewBox="0 0 150 150" width="150pt" height="150pt"><defs><clipPath id="_clipPath_JZNr8vgzXtQ24H7KWZ16JugS9eTbTfrX"><rect width="150" height="150"/></clipPath></defs><g clip-path="url(#_clipPath_JZNr8vgzXtQ24H7KWZ16JugS9eTbTfrX)"><path d=" M 65.84 67.31 C 64.757 66.7 63.126 66.41 60.885 66.41 C 57.821 66.41 54.971 67.066 53.904 67.477 C 53.611 67.556 53.401 67.814 53.385 68.117 L 53.385 68.209 L 53.69 69.749 L 53.69 69.779 C 53.797 70.084 54.056 70.236 54.3 70.236 L 54.483 70.206 L 54.986 70.084 C 56.327 69.749 58.34 69.23 60.596 69.23 C 61.968 69.23 62.882 69.352 63.492 69.611 C 64.498 70.008 64.513 70.663 64.529 71.745 L 64.529 73.377 L 63.919 73.377 C 62.806 73.377 60.641 73.422 58.507 73.773 C 55.245 74.276 52.562 75.069 52.562 79.626 C 52.562 85.419 57.852 85.419 60.398 85.434 C 62.12 85.434 63.705 85.175 64.757 84.962 C 67.12 84.398 67.73 83.636 67.699 81.242 L 67.699 71.608 C 67.699 70.145 67.699 68.316 65.84 67.31 Z  M 64.544 82.187 C 63.213 82.608 61.824 82.814 60.428 82.797 L 60.428 82.95 L 60.428 82.797 C 58.096 82.797 55.809 82.523 55.809 79.489 C 55.809 77.081 57.09 76.791 58.69 76.441 L 58.797 76.41 C 60.215 76.105 63.797 76.044 64.544 76.029 L 64.544 82.187 Z  M 94.117 71.608 L 94.117 81.242 C 94.162 83.636 93.553 84.398 91.175 84.947 C 90.138 85.175 88.553 85.434 86.83 85.434 C 84.284 85.434 78.995 85.419 78.995 79.626 C 78.98 75.069 81.662 74.276 84.94 73.773 C 87.074 73.422 89.239 73.361 90.336 73.361 L 90.946 73.361 L 90.946 71.761 C 90.946 70.678 90.931 70.023 89.925 69.627 C 89.315 69.367 88.4 69.246 87.028 69.246 C 84.772 69.246 82.76 69.764 81.419 70.099 L 80.9 70.221 C 80.741 70.273 80.567 70.256 80.42 70.175 C 80.272 70.095 80.165 69.957 80.123 69.794 L 80.123 69.764 L 79.818 68.224 L 79.818 68.133 C 79.818 67.782 80.077 67.553 80.321 67.477 C 81.403 67.081 84.254 66.425 87.318 66.425 C 89.559 66.425 91.175 66.73 92.272 67.34 C 94.132 68.331 94.132 70.16 94.117 71.624 L 94.117 71.608 Z  M 90.976 76.029 C 90.214 76.029 86.647 76.105 85.23 76.41 L 85.108 76.441 C 83.507 76.791 82.242 77.081 82.226 79.489 C 82.226 82.523 84.513 82.797 86.861 82.812 L 86.861 82.95 L 86.861 82.797 C 88.256 82.814 89.646 82.608 90.976 82.187 L 90.976 76.029 Z  M 141.997 66.41 C 134.634 66.41 134.009 71.334 134.009 75.937 C 134.009 80.526 134.634 85.419 141.997 85.434 C 149.36 85.419 149.985 80.541 150 75.937 C 150 71.12 149.36 66.425 141.997 66.41 Z  M 141.997 82.736 C 137.531 82.736 137.302 80.389 137.272 75.937 C 137.317 71.456 137.531 69.124 141.997 69.093 C 146.463 69.124 146.692 71.456 146.723 75.937 C 146.692 80.389 146.463 82.721 141.997 82.736 Z  M 128.781 84.748 L 128.598 84.809 C 127.561 85.068 126.159 85.419 123.674 85.419 C 116.86 85.419 115.519 81.928 115.519 75.907 C 115.519 68.986 117.683 66.425 123.476 66.41 C 125.519 66.41 126.936 66.685 127.942 66.928 L 127.942 61.365 C 127.927 61.121 128.034 60.8 128.598 60.694 L 130.412 60.221 L 130.519 60.221 C 130.93 60.221 131.083 60.602 131.083 60.922 L 131.083 81.837 C 131.098 83.163 130.945 84.291 128.796 84.748 L 128.781 84.748 Z  M 127.927 69.611 C 127.317 69.459 125.641 69.063 123.735 69.063 C 120.26 69.093 118.781 70.053 118.75 75.937 C 118.796 82.401 120.686 82.751 123.781 82.782 L 123.781 82.919 L 123.781 82.767 C 125.702 82.767 127.348 82.37 127.927 82.203 L 127.927 69.611 Z  M 111.677 84.992 L 110.061 84.992 C 109.641 84.992 109.299 84.651 109.299 84.23 L 109.299 71.791 C 109.269 69.703 108.644 69.108 106.403 69.078 C 103.903 69.078 101.342 69.718 100.504 69.962 L 100.504 84.2 C 100.504 84.657 100.199 84.977 99.787 84.977 L 98.126 84.977 C 97.705 84.977 97.363 84.636 97.363 84.215 L 97.363 70.297 C 97.348 69.017 97.455 68.133 99.269 67.538 C 100.991 66.928 104.299 66.41 106.479 66.41 C 110.641 66.41 112.424 67.935 112.424 71.517 L 112.424 84.23 C 112.424 84.651 112.083 84.992 111.662 84.992 L 111.677 84.992 Z  M 75.001 85.328 C 75.946 85.312 76.632 85.129 76.891 84.809 C 76.984 84.717 77.033 84.59 77.028 84.459 C 77.028 84.352 77.028 84.352 76.769 83.133 L 76.769 83.102 C 76.693 82.797 76.48 82.645 76.297 82.645 L 75.809 82.645 C 75.138 82.629 74.589 82.523 74.589 81.547 L 74.589 60.922 C 74.589 60.587 74.376 60.221 73.98 60.221 L 73.873 60.221 L 72.044 60.694 C 71.739 60.724 71.434 60.953 71.434 61.365 L 71.434 81.608 C 71.434 84.001 72.714 85.328 75.001 85.328 Z  M 49.392 84.992 L 36.404 84.992 C 35.983 84.992 35.642 84.651 35.642 84.23 L 35.642 82.614 C 35.642 82.218 35.764 82.035 36.008 81.73 L 46.343 69.535 L 36.206 69.535 C 35.785 69.535 35.444 69.194 35.444 68.773 L 35.444 67.614 C 35.444 67.172 35.779 66.852 36.206 66.852 L 49.331 66.852 C 49.773 66.852 50.093 67.188 50.093 67.614 L 50.093 69.261 C 50.093 69.566 50.001 69.81 49.773 70.084 L 39.407 82.309 L 49.407 82.309 C 49.834 82.309 50.169 82.645 50.169 83.072 L 50.169 84.23 C 50.169 84.651 49.828 84.992 49.407 84.992 L 49.392 84.992 Z " fill-rule="evenodd" fill="rgb(29,29,27)"/><path d=" M 6.023 90.114 C 4.91 90.114 4.301 89.84 3.981 89.657 C 3.523 89.382 2.685 88.712 1.938 86.715 C 0.615 82.961 -0.041 79.003 0.002 75.023 L 0.002 75.008 C 0.032 70.404 0.749 66.486 1.938 63.285 C 2.715 61.304 3.523 60.602 3.981 60.343 C 4.301 60.145 4.91 59.886 6.008 59.886 C 6.435 59.886 6.923 59.932 7.502 60.023 C 10.84 60.572 14.514 61.898 18.477 64.169 C 21.911 66.133 24.967 68.693 27.502 71.73 C 28.828 73.407 28.98 74.474 28.98 74.992 C 28.98 75.526 28.828 76.593 27.502 78.255 C 24.967 81.292 21.911 83.852 18.477 85.815 L 18.462 85.815 C 15.088 87.85 11.376 89.26 7.502 89.977 C 6.923 90.068 6.435 90.099 6.023 90.099" fill-rule="evenodd" fill="rgb(255,105,0)"/></g></svg>