<?xml version="1.0" encoding="utf-8"?>
<!-- Generator: Adobe Illustrator 22.1.0, SVG Export Plug-In . SVG Version: 6.00 Build 0)  -->
<svg version="1.1"
	 id="svg2" inkscape:version="0.48.2 r9819" sodipodi:docname="Aeropostale_logo2.svg" xmlns:cc="http://creativecommons.org/ns#" xmlns:dc="http://purl.org/dc/elements/1.1/" xmlns:inkscape="http://www.inkscape.org/namespaces/inkscape" xmlns:rdf="http://www.w3.org/1999/02/22-rdf-syntax-ns#" xmlns:sodipodi="http://sodipodi.sourceforge.net/DTD/sodipodi-0.dtd" xmlns:svg="http://www.w3.org/2000/svg"
	 xmlns="http://www.w3.org/2000/svg" xmlns:xlink="http://www.w3.org/1999/xlink" x="0px" y="0px" viewBox="0 0 500 500"
	 style="enable-background:new 0 0 500 500;" xml:space="preserve">
<style type="text/css">
	.st0{fill:#7399C6;}
	.st1{fill:#FFFFFF;}
	.st2{fill:#231F20;}
</style>
<sodipodi:namedview  bordercolor="#666666" borderopacity="1" gridtolerance="10" guidetolerance="10" id="namedview35" inkscape:current-layer="svg2" inkscape:cx="305.96738" inkscape:cy="101.65201" inkscape:pageopacity="0" inkscape:pageshadow="2" inkscape:window-height="1003" inkscape:window-maximized="1" inkscape:window-width="1680" inkscape:window-x="-4" inkscape:window-y="-4" inkscape:zoom="1.2764184" objecttolerance="10" pagecolor="#ffffff" showgrid="false">
	</sodipodi:namedview>
<sodipodi:namedview  bordercolor="#666666" borderopacity="1" fit-margin-bottom="0" fit-margin-left="0" fit-margin-right="0" fit-margin-top="0" gridtolerance="10" guidetolerance="10" id="namedview3875" inkscape:current-layer="g3881" inkscape:cx="836.55822" inkscape:cy="-249.2839" inkscape:pageopacity="0" inkscape:pageshadow="2" inkscape:window-height="1028" inkscape:window-maximized="1" inkscape:window-width="1920" inkscape:window-x="-8" inkscape:window-y="-8" inkscape:zoom="0.47532087" objecttolerance="10" pagecolor="#ffffff" showgrid="false">
	</sodipodi:namedview>
<g>
	<path class="st0" d="M264.6,284.2H410c3.3,0,6.2,3.1,6.2,6.7v28.3c0,3.6-2.8,6.5-6.2,6.5H264.6c-3.3,0-6.2-2.9-6.2-6.5v-28.3
		C258.4,287.2,261.3,284.2,264.6,284.2z"/>
	<path class="st1" d="M320,292.3l-3,5.1c-1.7-1.7-3.8-2.4-6.7-2.4c-2.7,0-4.7,0.8-6.3,2.6c-1.5,1.8-2.3,4.2-2.3,7.4
		c0,6.3,2.9,9.5,9,9.5c2.7,0,5-1,6.9-2.6l2.6,5.6c-2.1,1.3-3.8,2.1-5.4,2.4c-1.4,0.4-3.3,0.6-5.4,0.6c-4.6,0-8.3-1.4-11-4
		c-2.7-2.8-4-6.5-4-11.3c0-4.7,1.4-8.6,4.4-11.4c3-2.9,7.1-4.3,12.1-4.3C314.5,289.3,317.5,290.3,320,292.3z"/>
	<path class="st1" d="M324,304.6c0-4.6,1.3-8.2,4-11c2.7-2.9,6.2-4.3,10.5-4.3c4.6,0,8.1,1.4,10.7,4.2c2.6,2.5,3.8,6.4,3.8,11.1
		c0,4.9-1.3,8.6-4,11.4c-2.6,2.9-6,4.3-10.5,4.3c-4.6,0-8.2-1.4-10.7-4.3C325.3,313.3,324,309.4,324,304.6L324,304.6z M331.3,304.6
		c0,6.7,2.4,10,7.2,10c2.2,0,4-1,5.3-2.6c1.3-1.7,1.9-4.2,1.9-7.4c0-6.5-2.4-9.7-7.2-9.7c-2.2,0-4,0.8-5.3,2.5
		C332,299.2,331.3,301.6,331.3,304.6z"/>
	<path class="st1" d="M393.5,319.8v-18.9c0-3.9-1.8-5.8-5.4-5.8c-1,0-2.1,0.3-3.1,1c-0.9,0.6-1.5,1.3-2.1,2.1v21.7h-6.9v-19.9
		c0-1.5-0.5-2.8-1.4-3.6c-0.9-0.8-2.2-1.3-3.8-1.3c-0.9,0-1.9,0.3-3,1c-1,0.7-1.8,1.4-2.3,2.1v21.7h-6.9v-29.9h4.8l1.5,2.6
		c1.9-2.2,4.4-3.2,7.6-3.2c4,0,6.9,1.1,9,3.2c0.9-1,2.1-1.8,3.7-2.4c1.5-0.6,3.1-0.8,4.7-0.8c3.3,0,5.9,1,7.8,2.8
		c1.8,2,2.8,4.5,2.8,7.8v19.9L393.5,319.8L393.5,319.8z"/>
	<path class="st1" d="M275.1,299.9c4.1,0,7.6,3.8,7.6,8.5c0,4.6-3.5,8.3-7.6,8.3c-4.2,0-7.7-3.8-7.7-8.3
		C267.4,303.7,270.9,299.9,275.1,299.9z"/>
	<path class="st0" d="M477,151.9c-7.3-1.6-13.6,2.8-18,8.3c-5,6.3-8.4,14-11.1,21.6c-3.6,10-6.1,20.5-8.1,30.9
		c-2,10.7-3.3,21.6-3.6,32.6c-0.2,5.4-0.2,10.8,0.1,16.2c0.2,2.7,0.4,5.3,0.8,8c0.2,1.3,0.4,2.5,0.7,3.8c0.1,0.6,0.3,1.2,0.4,1.9
		c0.1,0.1,0.7-0.1,0.9-0.1c4.7-1,9.7-1.2,14.5-0.9c5.1,0.4,9.9,1.9,14.3,4.5c1.1,0.6,2.1,1.3,3.2,2c0.5,0.4,1.1,0.7,1.6,1.1
		c0.5,0.3,0.8,0.8,1.4,1.1c1.3-2.1,2.6-4.4,3.6-6.6c2.2-4.6,3.9-9.3,5.6-14.1c3.4-10.1,6-20.5,7.8-31c1.8-10.7,3-21.5,3.4-32.4
		c0.3-9.2,0-18.6-2.2-27.6C490.2,162.9,486,153.8,477,151.9 M453,233l33.3-29.9c0.1,6.1-0.1,12.2-0.8,18.3c-0.7,6.1-1.8,12.2-3,18.2
		c-8.1-1.8-16.2-3.6-24.3-5.4C456.4,233.8,454.7,233.4,453,233 M458.2,181.5c2.4-4.1,4.8-8.2,8.2-11.5c2.7-2.6,6.8-5.3,10.4-2.7
		c3,2.2,4.7,6.4,5.9,9.8c1.6,4.6,2.5,9.6,2.9,14.4c-9.7-2.3-19.4-4.4-29.1-6.6C457.1,183.7,457.7,182.6,458.2,181.5 M444.8,224.5
		c1.1-5.2,1.9-10.4,3.1-15.5c0.6-2.6,1.4-5.1,2.2-7.6c0.2-0.6,2-6.4,2.2-6.3c3.6,0.8,7.2,1.6,10.8,2.4c4.5,1,8.9,2,13.4,3
		l-32.1,27.1C444.5,226.6,444.7,225.6,444.8,224.5 M478.8,253.7c-0.8,2.4-1.6,4.9-2.5,7.2c-0.1,0.3-1.1,2.8-1.2,2.8
		c-0.1,0-0.2,0-0.2-0.1c-1.2-0.3-2.5-0.5-3.7-0.8c-4.9-1.1-9.9-2.1-14.8-3.2c-4.4-0.9-8.8-1.9-13.2-2.8c-0.1-2.4-0.1-4.8-0.2-7.2
		c-0.1-2.4,0.2-4.9,0.2-7.3c7.8,1.8,15.5,3.5,23.3,5.3c4.4,1,8.9,2,13.3,3C479.3,251.8,479,252.7,478.8,253.7"/>
	<path class="st2" d="M83.3,275.1H17.8c-2.8,0-5.3-1-7.3-2.9c-1.9-2-2.9-4.2-2.9-6.7c0-2.8,1.2-6.4,3.6-11l47-90.3H33.4
		c-6.3,0-10.7,1.1-13,3.2c-2.3,2.1-3.6,6.3-3.7,12.8H8.9v-28.3h58.8c8.9,0,13.3,3.6,13.3,10.7c0,2.1-0.6,4.6-2.1,7.2L30.5,263h52.9
		V275.1z"/>
	<path class="st2" d="M145.2,265h-9c-3.8,0-7.1,1-9.5,3.1c-4.9,3.8-7.3,5.8-7.6,6c-3.1,1.9-6.7,2.9-10.7,2.9
		c-6.4,0-11.8-2.1-16.2-6.3c-4.4-4.2-6.5-9.2-6.5-15c0-17.1,13.6-26.4,40.5-27.8v-7.8c0-7.5-0.5-12.9-1.8-16.3c-1.2-3.3-3.3-5-6.3-5
		c-3,0-5,1.4-5.9,4.5c-0.1,0.1-0.6,3.3-1.5,9.3c-0.9,6-4.5,9.2-11,9.2L89.4,211c0.3-6.5,3-11.8,8.1-15.7c5.3-4,12.2-6,20.9-6
		c9.8,0,16.7,2.5,20.8,7.2c4,4.9,6,13.1,6,24.5L145.2,265L145.2,265z M126.3,254.3v-17c-13.5,0.8-20.3,5.8-20.3,15.3
		c0,7.5,2.6,11.4,7.7,11.4C119.2,264.1,123.4,260.7,126.3,254.3z"/>
	<path class="st2" d="M156.1,204.8c0.6,0,1.5,0,2.4,0c1.2,0.1,1.9,0.1,2.3,0.1c5.3,0,8.7-0.7,10.6-2.1c3.2-2.9,6.5-5.8,10-8.9
		c3.7-2.9,8-4.3,12.7-4.3c8.6,0,15.4,3.8,20.4,11.6c5,7.8,7.6,18.5,7.6,32.3c0,14.2-2.7,25.2-8,33c-5.3,7.7-12.7,11.6-22.2,11.6
		c-7.2,0-13-2.9-17.5-8.6v33.1c0,2.9-0.9,5.3-2.6,7.2c-1.8,1.9-4,2.9-6.5,2.9c-2.7,0-4.9-1-6.7-3.1c-1.8-1.9-2.7-4.3-2.7-7.1
		L156.1,204.8L156.1,204.8z M174.5,239.7c0,17,4.6,25.3,13.7,25.3c8.9,0,13.2-10.7,13.2-32c0-20.5-4.2-30.8-12.8-30.8
		c-5.8,0-10.5,5.7-14.1,17.3V239.7z"/>
	<path class="st2" d="M229.8,204.8c0.6,0,1.4,0,2.4,0c1,0.1,1.8,0.1,2.3,0.1c5.3,0,8.7-0.7,10.6-2.1c3.2-2.9,6.5-5.8,9.9-8.9
		c3.8-2.9,8.1-4.3,12.8-4.3c8.5,0,15.3,3.8,20.3,11.6c5,7.8,7.4,18.5,7.4,32.3c0,14.2-2.6,25.2-7.8,33c-5.4,7.7-12.6,11.6-22.1,11.6
		c-7.2,0-13-2.9-17.4-8.6v33.1c0,2.9-0.9,5.3-2.7,7.2c-1.7,1.9-3.8,2.9-6.5,2.9c-2.6,0-4.7-1-6.5-3.1c-1.8-1.9-2.7-4.3-2.7-7.1
		L229.8,204.8L229.8,204.8z M248.3,239.7c0,17,4.5,25.3,13.7,25.3c8.8,0,13.2-10.7,13.2-32c0-20.5-4.4-30.8-13-30.8
		c-5.8,0-10.4,5.7-14,17.3V239.7z"/>
	<path class="st2" d="M364.9,233.9c0,28.7-10.7,43.2-31.7,43.2c-21.2,0-31.8-14.5-31.8-43.2c0-29.6,10.6-44.5,31.8-44.5
		c9.7,0,17.4,3.9,23.2,11.8C362.1,208.9,364.9,219.9,364.9,233.9L364.9,233.9z M346.5,241c0-13-0.4-21.6-1-25.5
		c-1.7-11-5.8-16.6-12.1-16.6c-4.9,0-8.3,2.8-10.4,8.5c-2.1,5.6-3.1,14.3-3.1,26.4c0,11.7,1,20,2.8,25.2c2.1,5.6,5.5,8.4,10.5,8.4
		C342,267.4,346.5,258.6,346.5,241z"/>
	<path class="st2" d="M409.7,211c0-7.4-4-11-11.9-11c-6.8,0-10.1,2.8-10.1,8.6c0,3.6,3.6,7.7,10.8,12.4c3.6,2.2,7.8,5.2,12.7,8.5
		c6.5,6.3,9.9,13.8,9.9,22.3c0,7.4-2.4,13.5-7.3,18.1c-4.9,4.6-11.2,6.8-19,6.8c-6.9,0-12.6-1.2-16.9-3.9c-4.4-2.6-6.7-6-6.7-9.7
		c0-2.4,1.7-3.5,5-3.5c0.9,0,1.8,0,2.4,0.1c5.1,3.8,9.9,5.7,14.2,5.7c7.3,0,11-2.9,11-8.8c0-3.2-1.4-6-4.2-8.6
		c-1.2-1.2-4.9-3.9-11.2-8.2c-6.3-4.3-10.8-8.2-13.3-11.7c-3.1-4-4.6-8.8-4.6-14.2c0-7.8,2.4-13.8,7.4-18.1
		c4.9-4.3,11.8-6.5,20.9-6.5c4.1,0,10,1.1,17.6,3.3V211L409.7,211L409.7,211z"/>
	<path class="st0" d="M470,308c-1.5,10.9-11.2,18.5-21.8,17.1c-10.6-1.4-17.9-11.4-16.5-22.2c1.5-10.8,11.2-18.5,21.8-17.1
		C464.1,287.2,471.5,297.1,470,308z"/>
</g>
</svg>
